<?xml version="1.0" encoding="utf-8"?>
<!-- Generator: Adobe Illustrator 21.0.0, SVG Export Plug-In . SVG Version: 6.00 Build 0)  -->
<svg version="1.1" xmlns="http://www.w3.org/2000/svg" xmlns:xlink="http://www.w3.org/1999/xlink" x="0px" y="0px"
	 viewBox="0 0 200 200" enable-background="new 0 0 200 200" xml:space="preserve">
<g id="Grid">
</g>
<g id="_x32_4_Grid_Col" display="none" opacity="0.1" enable-background="new    ">
</g>
<g id="Layer_3">
</g>
<g id="Layer_4">
</g>
<g id="Layer_5">
	<g>
		<g>
			<path fill="#6AECC8" d="M64.519,140.116c-1.4,0-2.712-0.542-3.696-1.526l-9.47-9.47c-1.709-1.709-1.709-4.49,0-6.199
				c1.352-1.352,2.695-1.279,3.881-1.216c1.227,0.066,2.293,0.122,3.671-1.255c1.773-1.773,1.773-4.659,0-6.432
				c-1.72-1.72-4.712-1.719-6.432,0c-1.387,1.387-1.327,2.445-1.257,3.671c0.067,1.182,0.143,2.522-1.214,3.88
				c-1.657,1.658-4.544,1.656-6.199,0l-9.469-9.469c-0.984-0.984-1.526-2.297-1.526-3.696c0-1.4,0.542-2.712,1.526-3.696
				l9.469-9.469c1.092-1.092,1.092-2.869,0-3.961c-0.853-0.853-1.622-0.812-2.677-0.755c-1.337,0.073-2.997,0.161-4.874-1.716
				c-1.159-1.159-1.797-2.698-1.797-4.335c0-1.637,0.638-3.176,1.797-4.335c2.39-2.39,6.28-2.39,8.67,0
				c1.887,1.887,1.793,3.546,1.718,4.878c-0.06,1.054-0.103,1.816,0.753,2.673c0.53,0.53,1.233,0.821,1.981,0.821c0,0,0,0,0.001,0
				c0.747,0,1.45-0.292,1.98-0.821l9.469-9.469c2.039-2.038,5.354-2.04,7.393,0l9.47,9.47c1.709,1.709,1.708,4.489-0.001,6.198
				c-1.352,1.352-2.698,1.28-3.881,1.216c-1.232-0.065-2.293-0.122-3.671,1.255c-0.86,0.86-1.334,2.002-1.334,3.216
				c0,1.214,0.474,2.356,1.334,3.216c1.773,1.773,4.658,1.773,6.432,0c1.386-1.386,1.326-2.445,1.256-3.671
				c-0.067-1.183-0.143-2.523,1.215-3.881c1.656-1.656,4.541-1.658,6.199,0l9.469,9.47c0.984,0.984,1.526,2.297,1.526,3.696
				c0,1.4-0.542,2.712-1.526,3.696l-9.469,9.469c-1.092,1.092-1.092,2.869,0,3.961c0.854,0.853,1.62,0.812,2.677,0.755
				c1.329-0.072,2.997-0.16,4.874,1.716c1.159,1.159,1.797,2.698,1.797,4.335c0,1.637-0.638,3.177-1.797,4.335
				c-1.158,1.159-2.698,1.797-4.334,1.797c0,0,0,0-0.001,0c-1.637,0-3.176-0.638-4.335-1.797c-1.887-1.887-1.793-3.546-1.717-4.879
				c0.06-1.054,0.103-1.816-0.753-2.672c-1.059-1.06-2.903-1.059-3.961,0l-9.469,9.469
				C67.232,139.574,65.919,140.116,64.519,140.116z M54.44,123.26c-0.719,0-1.318,0.13-1.969,0.781
				c-1.092,1.092-1.092,2.869,0,3.961l9.47,9.47c1.369,1.371,3.784,1.369,5.155,0l9.469-9.469c1.654-1.656,4.541-1.658,6.199,0
				c1.358,1.358,1.282,2.698,1.215,3.881c-0.07,1.226-0.13,2.284,1.256,3.67c0.86,0.86,2.002,1.333,3.216,1.333
				c0.001,0,0.001,0,0.001,0c1.214,0,2.356-0.473,3.215-1.333c0.86-0.86,1.334-2.002,1.334-3.217c0-1.214-0.474-2.356-1.334-3.216
				c-1.378-1.377-2.438-1.322-3.671-1.255c-1.185,0.064-2.528,0.135-3.88-1.216c-1.709-1.709-1.709-4.49,0-6.199l9.469-9.469
				c0.685-0.685,1.063-1.6,1.063-2.577c0-0.977-0.377-1.892-1.063-2.577l-9.469-9.47c-1.059-1.059-2.903-1.058-3.961,0
				c-0.857,0.857-0.814,1.619-0.753,2.673c0.075,1.333,0.169,2.991-1.718,4.879c-2.391,2.391-6.279,2.391-8.67,0
				c-1.159-1.159-1.797-2.698-1.797-4.335c0-1.637,0.638-3.176,1.797-4.335c1.876-1.876,3.537-1.789,4.874-1.717
				c1.061,0.057,1.824,0.097,2.678-0.755c1.092-1.092,1.092-2.869,0.001-3.96l-9.47-9.47c-1.422-1.42-3.733-1.421-5.155,0
				l-9.469,9.469c-1.709,1.708-4.49,1.709-6.199,0c-1.358-1.357-1.282-2.698-1.215-3.881c0.07-1.226,0.129-2.284-1.256-3.67
				c-1.72-1.72-4.712-1.72-6.432,0c-0.86,0.86-1.334,2.002-1.334,3.216c0,1.214,0.474,2.356,1.334,3.216
				c1.379,1.377,2.442,1.32,3.671,1.255c1.185-0.065,2.528-0.135,3.881,1.216c1.709,1.709,1.709,4.49,0,6.199l-9.469,9.469
				c-0.685,0.685-1.063,1.6-1.063,2.577c0,0.977,0.378,1.892,1.063,2.577l9.469,9.469c1.059,1.059,2.902,1.059,3.961,0
				c0.856-0.856,0.813-1.618,0.753-2.671c-0.076-1.333-0.17-2.992,1.719-4.88c2.317-2.317,6.352-2.318,8.67,0
				c2.39,2.39,2.39,6.28,0,8.67l0,0c-1.878,1.877-3.539,1.787-4.875,1.716C54.898,123.272,54.664,123.26,54.44,123.26z"/>
			<path fill="#6AECC8" d="M97.283,107.352C97.282,107.352,97.282,107.352,97.283,107.352c-1.401,0-2.713-0.542-3.697-1.526
				l-9.469-9.469c-1.059-1.059-2.903-1.058-3.961,0c-0.852,0.852-0.811,1.618-0.755,2.677c0.071,1.335,0.16,2.997-1.717,4.874l0,0
				l0,0c-2.315,2.317-6.35,2.319-8.67,0c-1.158-1.158-1.797-2.698-1.797-4.335c0-1.637,0.638-3.177,1.797-4.335
				c1.888-1.888,3.548-1.793,4.879-1.718c1.055,0.061,1.815,0.103,2.672-0.753c1.092-1.092,1.092-2.87,0-3.961l-9.469-9.469
				c-2.038-2.038-2.038-5.355-0.001-7.393l9.47-9.47c0.828-0.828,1.929-1.284,3.099-1.284h0.001c1.17,0,2.271,0.457,3.099,1.285
				c1.352,1.351,1.28,2.695,1.216,3.88c-0.066,1.23-0.122,2.293,1.256,3.671c1.72,1.719,4.712,1.72,6.432,0
				c1.773-1.773,1.773-4.659,0-6.432c-1.384-1.385-2.443-1.325-3.671-1.256c-1.181,0.066-2.524,0.142-3.882-1.215
				c-1.709-1.709-1.709-4.49,0-6.199l9.47-9.47c2.039-2.039,5.355-2.037,7.393,0l9.469,9.469c1.059,1.059,2.902,1.06,3.961,0
				c0.852-0.852,0.811-1.617,0.754-2.677c-0.071-1.335-0.16-2.998,1.717-4.874c2.392-2.39,6.28-2.39,8.67,0
				c2.39,2.39,2.39,6.28,0,8.67c-1.887,1.888-3.545,1.794-4.879,1.718c-1.054-0.059-1.817-0.102-2.672,0.754
				c-0.529,0.53-0.821,1.233-0.821,1.981c0,0.747,0.292,1.45,0.821,1.98l9.469,9.47c2.038,2.039,2.038,5.355,0,7.393l-9.47,9.47
				c-0.828,0.828-1.929,1.284-3.099,1.284c0,0,0,0-0.001,0c-1.17,0-2.271-0.456-3.099-1.285c-1.352-1.351-1.28-2.695-1.216-3.88
				c0.066-1.231,0.123-2.293-1.255-3.671c-1.72-1.72-4.712-1.719-6.432,0c-0.86,0.86-1.334,2.002-1.334,3.216
				c0,1.214,0.474,2.356,1.334,3.216c1.386,1.385,2.446,1.328,3.671,1.256c1.185-0.066,2.523-0.142,3.881,1.215
				c0.828,0.828,1.284,1.929,1.284,3.099c0.001,1.17-0.456,2.271-1.284,3.099l-9.47,9.47
				C99.995,106.81,98.682,107.352,97.283,107.352z M82.136,93.953c1.17,0,2.271,0.456,3.099,1.285l9.469,9.469
				c0.685,0.685,1.6,1.063,2.577,1.063l0,0c0.978,0,1.892-0.377,2.577-1.062l9.47-9.47c0.529-0.53,0.821-1.233,0.821-1.981
				c0-0.747-0.291-1.45-0.821-1.98c-0.857-0.856-1.615-0.813-2.673-0.754c-1.333,0.075-2.992,0.169-4.878-1.718
				c-1.159-1.159-1.797-2.698-1.797-4.335c0-1.637,0.638-3.176,1.797-4.335c2.317-2.317,6.352-2.319,8.67,0
				c1.877,1.877,1.788,3.539,1.716,4.874c-0.056,1.059-0.097,1.824,0.755,2.677c0.529,0.529,1.233,0.821,1.981,0.821l0,0
				c0.747,0,1.45-0.291,1.98-0.821l9.47-9.47c1.421-1.421,1.421-3.734,0-5.155l-9.469-9.47c-0.828-0.828-1.285-1.929-1.285-3.099
				c0-1.171,0.457-2.271,1.285-3.099c1.357-1.357,2.697-1.282,3.881-1.215c1.227,0.071,2.285,0.13,3.671-1.256
				c1.773-1.773,1.773-4.659,0-6.432c-1.773-1.773-4.658-1.773-6.432,0c-1.378,1.378-1.321,2.441-1.255,3.671
				c0.063,1.185,0.134,2.529-1.216,3.88c-0.828,0.828-1.93,1.285-3.099,1.285l0,0c-1.171,0-2.272-0.457-3.099-1.285l-9.469-9.469
				c-1.422-1.421-3.733-1.421-5.155,0l-9.47,9.47c-1.092,1.092-1.092,2.869,0,3.961c0.858,0.857,1.619,0.814,2.673,0.754
				c1.335-0.074,2.991-0.17,4.879,1.718c2.39,2.39,2.39,6.28,0,8.67c-1.159,1.159-2.698,1.797-4.335,1.797l0,0
				c-1.637,0-3.177-0.638-4.335-1.797c-1.877-1.877-1.788-3.539-1.717-4.874c0.056-1.059,0.097-1.824-0.755-2.677
				c-0.529-0.53-1.233-0.821-1.98-0.821h-0.001c-0.747,0-1.45,0.291-1.98,0.821l-9.47,9.47c-1.421,1.421-1.42,3.734,0.001,5.155
				l9.469,9.469c1.709,1.709,1.709,4.49,0,6.199c-1.358,1.357-2.7,1.28-3.881,1.214c-1.227-0.07-2.283-0.129-3.671,1.256
				c-1.773,1.773-1.774,4.659-0.001,6.432c1.72,1.72,4.712,1.72,6.432,0l0,0c1.378-1.378,1.321-2.44,1.256-3.671
				c-0.063-1.185-0.135-2.529,1.216-3.88C79.865,94.41,80.966,93.953,82.136,93.953z"/>
			<path fill="#6AECC8" d="M130.047,140.116C130.046,140.116,130.046,140.116,130.047,140.116c-1.401,0-2.713-0.542-3.697-1.526
				l-9.469-9.469c-1.709-1.709-1.71-4.49-0.001-6.199c1.351-1.351,2.695-1.279,3.881-1.216c1.233,0.066,2.293,0.123,3.671-1.255
				c0.86-0.86,1.333-2.002,1.333-3.216s-0.474-2.356-1.334-3.216c-0.86-0.86-2.002-1.334-3.216-1.334l0,0
				c-1.214,0-2.355,0.473-3.215,1.333c-1.386,1.385-1.326,2.445-1.257,3.672c0.066,1.183,0.141,2.524-1.215,3.879
				c-1.657,1.658-4.541,1.656-6.198,0l-9.469-9.47c-0.984-0.984-1.526-2.297-1.526-3.696c0-1.4,0.542-2.713,1.526-3.696l9.469-9.47
				c1.092-1.092,1.092-2.868,0-3.961c-0.852-0.852-1.618-0.812-2.677-0.755c-1.339,0.073-2.998,0.159-4.874-1.717
				c-1.159-1.159-1.797-2.698-1.797-4.335c0-1.637,0.638-3.176,1.797-4.335c2.317-2.317,6.352-2.319,8.67,0
				c1.887,1.887,1.793,3.546,1.718,4.879c-0.06,1.054-0.104,1.816,0.753,2.673c1.059,1.059,2.902,1.06,3.961,0l9.469-9.469
				c2.038-2.037,5.354-2.039,7.393,0l9.469,9.47c0.828,0.828,1.285,1.929,1.285,3.099c0,1.17-0.457,2.271-1.285,3.099
				c-1.352,1.352-2.694,1.28-3.881,1.216c-1.23-0.067-2.293-0.122-3.671,1.255c-0.86,0.86-1.334,2.002-1.334,3.216
				c0,1.214,0.474,2.356,1.334,3.217c1.72,1.719,4.712,1.719,6.432,0c1.386-1.386,1.326-2.445,1.256-3.671
				c-0.067-1.183-0.144-2.523,1.214-3.881c1.709-1.71,4.49-1.709,6.2,0l9.469,9.469c2.039,2.039,2.038,5.356,0,7.393l-9.469,9.469
				c-0.529,0.53-0.821,1.233-0.821,1.981s0.292,1.451,0.821,1.981c0.853,0.852,1.616,0.811,2.677,0.755
				c1.334-0.072,2.998-0.16,4.874,1.716c2.39,2.391,2.39,6.28,0,8.671c-2.389,2.39-6.279,2.39-8.67,0
				c-1.888-1.887-1.794-3.546-1.718-4.878c0.06-1.054,0.103-1.816-0.754-2.673c-0.529-0.53-1.233-0.821-1.981-0.821l0,0
				c-0.747,0-1.45,0.292-1.98,0.821l-9.469,9.47C132.759,139.574,131.446,140.116,130.047,140.116z M119.968,123.26
				c-0.719,0-1.318,0.13-1.969,0.781c-1.092,1.092-1.091,2.869,0.001,3.961l9.469,9.469c0.685,0.685,1.6,1.062,2.577,1.062h0.001
				c0.977,0,1.892-0.377,2.577-1.062l9.469-9.47c0.828-0.828,1.929-1.285,3.099-1.285c0,0,0,0,0.001,0
				c1.17,0,2.271,0.457,3.099,1.285c1.358,1.358,1.282,2.698,1.216,3.881c-0.07,1.225-0.13,2.283,1.256,3.67
				c0.86,0.86,2.002,1.334,3.216,1.334c0,0,0,0,0.001,0c1.213,0,2.355-0.474,3.215-1.333c1.773-1.773,1.773-4.659,0-6.433
				c-1.379-1.379-2.444-1.322-3.671-1.255c-1.187,0.062-2.529,0.135-3.88-1.216c-0.828-0.828-1.285-1.929-1.285-3.099
				s0.457-2.271,1.285-3.099l9.469-9.469c1.421-1.421,1.421-3.733,0-5.155l-9.469-9.469c-1.091-1.091-2.868-1.092-3.962,0
				c-0.856,0.857-0.813,1.618-0.753,2.672c0.076,1.333,0.17,2.992-1.717,4.879c-2.318,2.317-6.354,2.317-8.67,0
				c-1.159-1.159-1.797-2.698-1.797-4.335c0-1.637,0.638-3.176,1.797-4.335c1.875-1.877,3.536-1.789,4.874-1.716
				c1.059,0.057,1.824,0.098,2.677-0.755c0.529-0.53,0.821-1.233,0.821-1.981s-0.292-1.451-0.821-1.981l-9.469-9.47
				c-1.423-1.421-3.734-1.42-5.155,0L118,88.806c-1.657,1.658-4.544,1.656-6.199,0c-1.358-1.358-1.282-2.698-1.215-3.881
				c0.07-1.226,0.129-2.284-1.256-3.67c-1.72-1.72-4.712-1.719-6.432,0c-0.86,0.86-1.334,2.002-1.334,3.216
				c0,1.214,0.474,2.356,1.334,3.216c1.378,1.378,2.44,1.319,3.671,1.255c1.183-0.065,2.528-0.136,3.881,1.216
				c1.709,1.709,1.709,4.49,0,6.199l-9.469,9.47c-0.685,0.685-1.063,1.6-1.063,2.577c0,0.977,0.377,1.892,1.063,2.577l9.469,9.47
				c1.059,1.058,2.902,1.059,3.96,0c0.855-0.855,0.812-1.617,0.753-2.672c-0.075-1.334-0.168-2.994,1.719-4.88
				c1.158-1.159,2.698-1.797,4.334-1.797c0,0,0,0,0.001,0c1.637,0,3.176,0.638,4.334,1.797c1.159,1.159,1.797,2.698,1.797,4.335
				c0.001,1.637-0.638,3.177-1.797,4.335l0,0c-1.877,1.877-3.539,1.787-4.874,1.716C120.425,123.273,120.191,123.26,119.968,123.26z
				"/>
		</g>
		<path fill="#FFFFFF" d="M100,182.667c-21.182,0.002-42.356-8.06-58.481-24.185c-32.247-32.247-32.247-84.717,0-116.964l0,0l0,0
			c32.247-32.247,84.716-32.247,116.963,0c32.247,32.247,32.247,84.717,0,116.964C142.36,174.603,121.176,182.665,100,182.667z
			 M100,18.915c-20.774,0-41.547,7.908-57.363,23.722l0,0c-31.63,31.63-31.63,83.095,0,114.726
			c31.63,31.629,83.095,31.629,114.725,0c31.63-31.63,31.63-83.095,0-114.726C141.547,26.822,120.774,18.915,100,18.915z"/>
	</g>
</g>
</svg>
