<?xml version="1.0" encoding="utf-8"?>
<!-- Generator: Adobe Illustrator 17.0.0, SVG Export Plug-In . SVG Version: 6.00 Build 0)  -->
<!DOCTYPE svg PUBLIC "-//W3C//DTD SVG 1.1//EN" "http://www.w3.org/Graphics/SVG/1.1/DTD/svg11.dtd">
<svg version="1.1" xmlns="http://www.w3.org/2000/svg" xmlns:xlink="http://www.w3.org/1999/xlink" x="0px" y="0px"
	 width="999.348px" height="828px" viewBox="0 0 999.348 828" enable-background="new 0 0 999.348 828" xml:space="preserve">
<g id="Grid">
</g>
<g id="_x32_4_Grid_Col" display="none" opacity="0.1" enable-background="new    ">
</g>
<g id="Layer_3">
</g>
<g id="Layer_4">
</g>
<g id="Layer_5">
	<g>
		<g>
			
				<image overflow="visible" opacity="0.25" width="326" height="326" xlink:href="E8ACFC1.png"  transform="matrix(1 0 0 1 171.3113 266.4752)">
			</image>
			<g>
				<circle fill="#FFFFFF" cx="332.259" cy="422.19" r="117.656"/>
			</g>
		</g>
		<g>
			
				<image overflow="visible" opacity="0.25" width="240" height="240" xlink:href="E8ACFC3.png"  transform="matrix(1 0 0 1 361.3113 483.4752)">
			</image>
			<g>
				<circle fill="#FFFFFF" cx="479.071" cy="596.602" r="74.464"/>
			</g>
		</g>
		<g>
			
				<image overflow="visible" opacity="0.25" width="240" height="240" xlink:href="E8ACFC6.png"  transform="matrix(1 0 0 1 163.3113 531.4752)">
			</image>
			<g>
				<circle fill="#FFFFFF" cx="281.263" cy="644.229" r="74.464"/>
			</g>
		</g>
		<g>
			
				<image overflow="visible" opacity="0.25" width="188" height="188" xlink:href="E8ACFC7.png"  transform="matrix(1 0 0 1 13.3113 516.4752)">
			</image>
			<g>
				<circle fill="#FFFFFF" cx="105.388" cy="603.489" r="48.219"/>
			</g>
		</g>
		<g>
			
				<image overflow="visible" opacity="0.25" width="371" height="371" xlink:href="E8ACFC2.png"  transform="matrix(1 0 0 1 510.3113 474.4752)">
			</image>
			<g>
				<circle fill="#FFFFFF" cx="693.72" cy="652.873" r="140.185"/>
			</g>
		</g>
		<g>
			
				<image overflow="visible" opacity="0.25" width="371" height="371" xlink:href="E8ACFCD.png"  transform="matrix(1 0 0 1 438.3113 168.4752)">
			</image>
			<g>
				<circle fill="#FFFFFF" cx="621.633" cy="347.092" r="140.185"/>
			</g>
		</g>
		<g>
			
				<image overflow="visible" opacity="0.25" width="190" height="190" xlink:href="E8ACFCE.png"  transform="matrix(1 0 0 1 765.3113 165.4752)">
			</image>
			<g>
				<circle fill="#FFFFFF" cx="857.914" cy="253.643" r="49.472"/>
			</g>
		</g>
		<g>
			<g>
				<path fill="#FFCF40" d="M469.513,616.96h9.137v-13.305l-3.271-3.271C472.757,606.177,469.513,613.953,469.513,616.96z"/>
				<g>
					<path fill="#8CC1C6" d="M478.494,579.916c0-0.626,0.055-1.243,0.155-1.848v-6.766c-1.777,2.411-2.85,5.408-2.85,8.614
						c0,3.706,0.001,8.715,2.85,11.47v-7.356C478.539,582.824,478.494,581.461,478.494,579.916z"/>
					<path fill="#FFCF40" d="M495.58,565.586c-1.171,0-2.323,0.028-3.437,0.055c-0.738,0.018-1.446,0.035-2.114,0.043h-11.38
						h-11.379c-0.668-0.008-1.375-0.025-2.113-0.043c-1.114-0.027-2.266-0.055-3.437-0.055c-3.907,0-13.056,0-13.056,7.198
						c0,6.475,15.056,16.697,21.556,19.743c2.526,2.971,5.392,4.896,8.429,4.896v-29.127h2.988h12.399h2.875l0,0
						c6.391,0.155,9.029,1.489,9.029,4.488c0,3.834-9.013,10.76-15.452,14.794c-1.045,1.829-2.188,3.511-3.411,4.95
						c6.5-3.045,21.557-13.269,21.557-19.743C508.636,565.586,499.487,565.586,495.58,565.586z M451.359,572.784
						c0-2.998,2.638-4.333,9.029-4.488c0.604,5.62,2.975,13.243,6.424,19.282C460.373,583.544,451.359,576.618,451.359,572.784z"/>
					<path fill="#FDB34D" d="M487.079,592.527c1.223-1.438,2.366-3.121,3.411-4.95c3.448-6.038,5.819-13.662,6.423-19.281h-2.875
						h-12.399h-2.988v3.006v6.766v5.963v7.356v5.138h-3.2c-1.085,0-1.965,0.88-1.965,1.965c0,1.085,0.88,1.965,1.965,1.965
						l3.2,3.201v13.305h9.138c0-2.996-3.221-10.728-5.839-16.516c1.038-0.052,1.866-0.903,1.866-1.955
						c0-0.97-0.705-1.772-1.629-1.932C483.915,595.72,485.558,594.314,487.079,592.527z"/>
				</g>
				<g>
					<path fill="#003948" d="M463.53,627.964h-2.382c-1.086,0-1.965,0.88-1.965,1.965c0,1.085,0.879,1.965,1.965,1.965h17.502v-3.93
						H463.53z"/>
					<path fill="#0A1D23" d="M496.082,627.964h-2.461H478.65v3.93h17.432c1.085,0,1.965-0.88,1.965-1.965
						C498.047,628.844,497.167,627.964,496.082,627.964z"/>
					<rect x="478.649" y="619.43" fill="#307178" width="14.972" height="8.534"/>
					<rect x="463.53" y="619.43" fill="#4097A0" width="15.12" height="8.534"/>
					<rect x="463.53" y="616.96" fill="#8CC1C6" width="15.12" height="2.47"/>
					<rect x="478.649" y="616.96" fill="#4097A0" width="14.972" height="2.47"/>
				</g>
				<g>
					<g>
						<path fill="#FDE877" d="M474.705,584.416c-2.179-2.178-2.179-5.71,0-7.89c1.089-1.089,2.516-1.632,3.945-1.632v-2.45
							c-2.055,0-4.111,0.785-5.677,2.352c-3.135,3.135-3.135,8.217,0,11.352c1.567,1.568,3.622,2.352,5.677,2.352v-2.449
							C477.221,586.051,475.794,585.506,474.705,584.416z"/>
					</g>
					<g>
						<path fill="#FFCF40" d="M478.651,572.444v2.45c1.427,0,2.855,0.543,3.943,1.632c2.179,2.18,2.179,5.711,0,7.89
							c-1.088,1.09-2.516,1.635-3.943,1.635v2.449c2.054,0,4.109-0.785,5.676-2.352c3.136-3.135,3.136-8.218,0-11.352
							C482.76,573.228,480.704,572.444,478.651,572.444z"/>
					</g>
					<g>
						<path fill="#4097A0" d="M482.594,576.526c-1.088-1.089-2.516-1.632-3.943-1.632c-1.43,0-2.857,0.543-3.945,1.632
							c-2.179,2.18-2.179,5.711,0,7.89c1.089,1.09,2.516,1.635,3.945,1.635c1.427,0,2.855-0.545,3.943-1.635
							C484.773,582.238,484.773,578.706,482.594,576.526z"/>
					</g>
					<rect x="477.397" y="576.468" fill="#FDE877" width="2.507" height="7.869"/>
				</g>
			</g>
			<polygon fill="#FFFFFF" points="466.179,563.829 469.39,565.586 466.179,567.342 464.422,570.554 462.666,567.342 
				459.454,565.586 462.666,563.829 464.422,560.618 			"/>
		</g>
		<g>
			<g>
				<g>
					<polygon fill="#FFCF40" points="852.429,254.997 858.383,254.997 858.383,227.805 					"/>
					<polygon fill="#FDB34D" points="858.383,227.805 858.383,254.997 864.337,254.997 					"/>
				</g>
				<g>
					<polygon fill="#FDB34D" points="878.647,231.112 878.647,231.112 864.491,255.08 875.803,258.802 					"/>
					<g>
						<path fill="#FDE877" d="M874.033,231.09c-0.012,2.548,2.043,4.623,4.592,4.635l0.043-9.228
							C876.12,226.486,874.045,228.542,874.033,231.09z"/>
						<path fill="#FFCF40" d="M878.669,226.497l-0.043,9.228c2.549,0.012,4.623-2.044,4.635-4.592
							C883.273,228.585,881.217,226.509,878.669,226.497z"/>
					</g>
				</g>
				<g>
					<polygon fill="#FFCF40" points="838.257,231.112 838.257,231.112 852.412,255.08 841.102,258.802 					"/>
					<g>
						<path fill="#FFCF40" d="M842.872,231.09c0.011,2.548-2.044,4.623-4.593,4.635l-0.043-9.228
							C840.784,226.486,842.859,228.542,842.872,231.09z"/>
						<path fill="#FDE877" d="M838.236,226.497l0.043,9.228c-2.549,0.012-4.623-2.044-4.635-4.592
							C833.631,228.585,835.688,226.509,838.236,226.497z"/>
					</g>
				</g>
				<g>
					<path fill="#FDE877" d="M853.77,227.805c0,2.548,2.065,4.614,4.613,4.614v-9.228
						C855.836,223.191,853.77,225.257,853.77,227.805z"/>
					<path fill="#FFCF40" d="M858.383,223.191v9.228c2.549,0,4.615-2.066,4.615-4.614
						C862.998,225.257,860.932,223.191,858.383,223.191z"/>
				</g>
				<g>
					<path fill="#FDB34D" d="M835.666,273.829c0,1.746,1.415,3.16,3.16,3.16h19.566v-3.16H835.666z"/>
					<path fill="#FDE877" d="M858.392,270.67h-17.38h-2.186c-1.745,0-3.16,1.415-3.16,3.159h22.726V270.67z"/>
					<path fill="#FFCF40" d="M877.955,270.67h-2.185h-17.379v3.159h22.724C881.116,272.084,879.701,270.67,877.955,270.67z"/>
					<path fill="#BE863A" d="M858.392,276.99h19.563c1.746,0,3.161-1.415,3.161-3.16h-22.724V276.99z"/>
					<path fill="#FDE877" d="M858.392,255.031h-19.566c-1.745,0-3.16,1.415-3.16,3.16h22.726V255.031z"/>
					<path fill="#FFCF40" d="M881.116,258.191c0-1.745-1.415-3.16-3.161-3.16h-19.563v3.16H881.116z"/>
					<path fill="#FDB34D" d="M858.392,258.191h-22.726c0,1.745,1.415,3.16,3.16,3.16h2.186h17.38V258.191z"/>
					<path fill="#BE863A" d="M858.392,261.351h17.379h2.185c1.746,0,3.161-1.415,3.161-3.16h-22.724V261.351z"/>
					<rect x="858.392" y="261.351" fill="#FDB34D" width="17.379" height="9.319"/>
					<rect x="841.012" y="261.351" fill="#FFCF40" width="17.38" height="9.319"/>
				</g>
				<circle fill="#FDB34D" cx="846.292" cy="266.01" r="2.015"/>
				<circle fill="#FDB34D" cx="854.353" cy="266.01" r="2.015"/>
				<circle fill="#FFCF40" cx="862.415" cy="266.01" r="2.015"/>
				<circle fill="#FFCF40" cx="870.476" cy="266.01" r="2.015"/>
			</g>
			<polygon fill="#FFFFFF" points="836.88,225.41 839.099,226.623 836.88,227.837 835.666,230.056 834.453,227.837 832.234,226.623 
				834.453,225.41 835.666,223.191 			"/>
		</g>
		<g>
			<g>
				<g>
					<path fill="#307178" d="M330.412,476.741c2.627,4.19,0.961,9.96,0.961,9.96s-5.918-1.017-8.545-5.206
						c-2.624-4.19-0.96-9.961-0.96-9.961S327.788,472.553,330.412,476.741z"/>
					<path fill="#003948" d="M321.415,487.66c4.186-2.623,9.958-0.96,9.958-0.96s-1.018,5.92-5.208,8.55
						c-4.186,2.623-9.961,0.96-9.961,0.96S317.225,490.288,321.415,487.66z"/>
				</g>
				<g>
					<path fill="#307178" d="M316.353,474.698c1.454,4.727-1.65,9.87-1.65,9.87s-5.453-2.513-6.905-7.241
						c-1.45-4.724,1.649-9.869,1.649-9.869S314.901,469.976,316.353,474.698z"/>
					<path fill="#003948" d="M304.836,482.919c4.723-1.452,9.867,1.648,9.867,1.648s-2.515,5.455-7.243,6.911
						c-4.723,1.452-9.869-1.651-9.869-1.651S300.109,484.372,304.836,482.919z"/>
				</g>
				<g>
					<path fill="#307178" d="M303.3,469.088c0.182,4.942-4.147,9.108-4.147,9.108s-4.615-3.841-4.796-8.783
						c-0.177-4.939,4.149-9.106,4.149-9.106S303.121,464.152,303.3,469.088z"/>
					<path fill="#003948" d="M290.049,474.049c4.937-0.181,9.104,4.147,9.104,4.147s-3.842,4.616-8.784,4.798
						c-4.938,0.179-9.106-4.147-9.106-4.147S285.108,474.228,290.049,474.049z"/>
				</g>
				<g>
					<path fill="#307178" d="M292.147,460.29c-1.103,4.822-6.364,7.725-6.364,7.725s-3.464-4.906-2.359-9.726
						c1.107-4.817,6.363-7.723,6.363-7.723S293.25,455.476,292.147,460.29z"/>
					<path fill="#003948" d="M278.063,461.653c4.814,1.102,7.719,6.362,7.719,6.362s-4.906,3.464-9.727,2.361
						c-4.816-1.106-7.721-6.362-7.721-6.362S273.242,460.547,278.063,461.653z"/>
				</g>
				<g>
					<path fill="#307178" d="M283.649,448.905c-2.313,4.374-8.146,5.815-8.146,5.815s-2.076-5.634,0.238-10.005
						c2.317-4.367,8.145-5.814,8.145-5.814S285.961,444.541,283.649,448.905z"/>
					<path fill="#003948" d="M269.693,446.575c4.365,2.313,5.81,8.145,5.81,8.145s-5.635,2.076-10.006-0.237
						c-4.366-2.313-5.812-8.143-5.812-8.143S265.323,444.26,269.693,446.575z"/>
				</g>
				<g>
					<path fill="#307178" d="M278.388,435.708c-3.367,3.625-9.374,3.508-9.374,3.508s-0.546-5.978,2.82-9.601
						c3.368-3.619,9.373-3.508,9.373-3.508S281.75,432.092,278.388,435.708z"/>
					<path fill="#003948" d="M265.51,429.848c3.618,3.363,3.504,9.369,3.504,9.369s-5.98,0.549-9.604-2.819
						c-3.618-3.364-3.507-9.37-3.507-9.37S261.889,426.48,265.51,429.848z"/>
				</g>
				<g>
					<path fill="#307178" d="M276.721,421.6c-4.19,2.63-9.962,0.963-9.962,0.963s1.019-5.917,5.209-8.544
						c4.189-2.624,9.962-0.963,9.962-0.963S280.905,418.979,276.721,421.6z"/>
					<path fill="#003948" d="M265.8,412.606c2.623,4.186,0.959,9.957,0.959,9.957s-5.918-1.018-8.547-5.209
						c-2.624-4.186-0.962-9.959-0.962-9.959S263.173,408.416,265.8,412.606z"/>
				</g>
				<g>
					<path fill="#307178" d="M278.763,407.542c-4.728,1.456-9.873-1.648-9.873-1.648s2.516-5.451,7.243-6.905
						c4.725-1.45,9.871,1.647,9.871,1.647S283.483,406.093,278.763,407.542z"/>
					<path fill="#003948" d="M270.541,396.028c1.451,4.722-1.651,9.865-1.651,9.865s-5.453-2.514-6.908-7.244
						c-1.45-4.722,1.648-9.867,1.648-9.867S269.088,391.3,270.541,396.028z"/>
				</g>
				<g>
					<path fill="#307178" d="M284.375,394.491c-4.944,0.182-9.109-4.148-9.109-4.148s3.84-4.613,8.783-4.795
						c4.94-0.178,9.108,4.147,9.108,4.147S289.308,394.313,284.375,394.491z"/>
					<path fill="#003948" d="M279.413,381.24c0.178,4.938-4.147,9.103-4.147,9.103s-4.617-3.84-4.798-8.785
						c-0.18-4.938,4.146-9.105,4.146-9.105S279.232,376.297,279.413,381.24z"/>
				</g>
				<g>
					<path fill="#307178" d="M293.172,383.337c-4.823-1.104-7.727-6.365-7.727-6.365s4.904-3.461,9.727-2.357
						c4.817,1.106,7.724,6.362,7.724,6.362S297.982,384.442,293.172,383.337z"/>
					<path fill="#003948" d="M291.809,369.255c-1.107,4.814-6.363,7.716-6.363,7.716s-3.465-4.904-2.359-9.728
						c1.104-4.815,6.36-7.721,6.36-7.721S292.915,364.432,291.809,369.255z"/>
				</g>
				<g>
					<path fill="#307178" d="M304.557,374.839c-4.372-2.313-5.815-8.148-5.815-8.148s5.633-2.072,10.004,0.241
						c4.367,2.316,5.815,8.145,5.815,8.145S308.917,377.152,304.557,374.839z"/>
					<path fill="#003948" d="M306.884,360.886c-2.314,4.364-8.142,5.805-8.142,5.805s-2.079-5.633,0.237-10.005
						c2.313-4.367,8.142-5.814,8.142-5.814S309.2,356.512,306.884,360.886z"/>
				</g>
				<g>
					<path fill="#307178" d="M317.752,369.579c-3.624-3.367-3.508-9.376-3.508-9.376s5.977-0.543,9.6,2.821
						c3.62,3.366,3.51,9.373,3.51,9.373S321.366,372.941,317.752,369.579z"/>
					<path fill="#003948" d="M323.611,356.702c-3.364,3.616-9.366,3.501-9.366,3.501s-0.55-5.979,2.819-9.601
						c3.364-3.62,9.368-3.509,9.368-3.509S326.982,353.076,323.611,356.702z"/>
				</g>
				<g>
					<path fill="#307178" d="M331.86,367.911c-2.629-4.19-0.961-9.963-0.961-9.963s5.913,1.022,8.542,5.21
						c2.626,4.188,0.965,9.963,0.965,9.963S334.481,372.095,331.86,367.911z"/>
					<path fill="#003948" d="M340.852,356.991c-4.185,2.622-9.953,0.957-9.953,0.957s1.015-5.917,5.207-8.544
						c4.188-2.627,9.959-0.967,9.959-0.967S345.046,354.362,340.852,356.991z"/>
				</g>
				<g>
					<path fill="#307178" d="M345.919,369.954c-1.454-4.728,1.65-9.873,1.65-9.873s5.447,2.516,6.903,7.243
						c1.452,4.723-1.648,9.871-1.648,9.871S347.367,374.673,345.919,369.954z"/>
					<path fill="#003948" d="M357.432,361.732c-4.722,1.45-9.863-1.651-9.863-1.651s2.513-5.453,7.242-6.905
						c4.724-1.455,9.869,1.642,9.869,1.642S362.162,360.279,357.432,361.732z"/>
				</g>
				<g>
					<path fill="#307178" d="M358.97,375.565c-0.181-4.944,4.149-9.109,4.149-9.109s4.609,3.84,4.792,8.783
						c0.179,4.937-4.146,9.108-4.146,9.108S359.147,380.497,358.97,375.565z"/>
					<path fill="#003948" d="M372.219,370.602c-4.936,0.177-9.099-4.147-9.099-4.147s3.838-4.618,8.782-4.797
						c4.94-0.182,9.108,4.142,9.108,4.142S377.163,370.423,372.219,370.602z"/>
				</g>
				<g>
					<path fill="#307178" d="M370.124,384.362c1.105-4.824,6.366-7.726,6.366-7.726s3.46,4.903,2.356,9.726
						c-1.106,4.814-6.362,7.723-6.362,7.723S369.019,389.173,370.124,384.362z"/>
					<path fill="#003948" d="M384.206,382.998c-4.815-1.106-7.716-6.362-7.716-6.362s4.902-3.465,9.723-2.36
						c4.82,1.103,7.726,6.359,7.726,6.359S389.029,384.104,384.206,382.998z"/>
				</g>
				<g>
					<path fill="#307178" d="M378.621,395.746c2.316-4.372,8.149-5.814,8.149-5.814s2.072,5.63-0.241,10.004
						c-2.315,4.364-8.144,5.814-8.144,5.814S376.308,400.107,378.621,395.746z"/>
					<path fill="#003948" d="M392.577,398.074c-4.365-2.313-5.807-8.142-5.807-8.142s5.633-2.079,10.004,0.236
						c4.369,2.313,5.816,8.143,5.816,8.143S396.948,400.39,392.577,398.074z"/>
				</g>
				<g>
					<path fill="#307178" d="M383.882,408.943c3.368-3.625,9.376-3.507,9.376-3.507s0.545,5.974-2.822,9.6
						c-3.365,3.616-9.371,3.507-9.371,3.507S380.52,412.555,383.882,408.943z"/>
					<path fill="#003948" d="M396.759,414.802c-3.618-3.364-3.502-9.366-3.502-9.366s5.978-0.55,9.602,2.817
						c3.621,3.364,3.51,9.37,3.51,9.37S400.383,418.171,396.759,414.802z"/>
				</g>
				<g>
					<path fill="#307178" d="M385.549,423.05c4.19-2.629,9.963-0.961,9.963-0.961s-1.021,5.912-5.211,8.544
						c-4.185,2.623-9.959,0.962-9.959,0.962S381.366,425.669,385.549,423.05z"/>
					<path fill="#003948" d="M396.471,432.043c-2.624-4.186-0.958-9.954-0.958-9.954s5.916,1.018,8.545,5.207
						c2.627,4.186,0.966,9.959,0.966,9.959S399.099,436.235,396.471,432.043z"/>
				</g>
				<g>
					<path fill="#307178" d="M383.507,437.109c4.73-1.454,9.873,1.651,9.873,1.651s-2.515,5.447-7.245,6.903
						c-4.721,1.452-9.869-1.648-9.869-1.648S378.789,438.556,383.507,437.109z"/>
					<path fill="#003948" d="M391.73,448.623c-1.451-4.722,1.65-9.863,1.65-9.863s5.452,2.514,6.907,7.24
						c1.454,4.724-1.645,9.87-1.645,9.87S393.183,453.351,391.73,448.623z"/>
				</g>
				<g>
					<path fill="#307178" d="M377.896,450.16c4.945-0.181,9.11,4.152,9.11,4.152s-3.838,4.609-8.785,4.792
						c-4.936,0.181-9.105-4.147-9.105-4.147S372.964,450.338,377.896,450.16z"/>
					<path fill="#003948" d="M382.859,463.41c-0.18-4.937,4.147-9.098,4.147-9.098s4.615,3.838,4.798,8.78
						c0.182,4.94-4.143,9.109-4.143,9.109S383.039,468.354,382.859,463.41z"/>
				</g>
				<g>
					<path fill="#307178" d="M369.098,461.315c4.823,1.105,7.725,6.367,7.725,6.367s-4.899,3.46-9.726,2.355
						c-4.814-1.102-7.721-6.362-7.721-6.362S364.289,460.209,369.098,461.315z"/>
					<path fill="#003948" d="M370.463,475.397c1.105-4.816,6.36-7.716,6.36-7.716s3.466,4.902,2.362,9.724
						c-1.102,4.817-6.359,7.725-6.359,7.725S369.357,480.219,370.463,475.397z"/>
				</g>
				<g>
					<path fill="#307178" d="M357.713,469.812c4.374,2.315,5.813,8.149,5.813,8.149s-5.628,2.074-10.003-0.242
						c-4.366-2.312-5.812-8.145-5.812-8.145S353.355,467.498,357.713,469.812z"/>
					<path fill="#003948" d="M355.386,483.767c2.314-4.366,8.14-5.806,8.14-5.806s2.079,5.631-0.234,10.002
						c-2.312,4.368-8.142,5.817-8.142,5.817S353.071,488.138,355.386,483.767z"/>
				</g>
				<g>
					<path fill="#307178" d="M344.517,475.072c3.625,3.369,3.507,9.379,3.507,9.379s-5.974,0.544-9.599-2.825
						c-3.619-3.362-3.506-9.371-3.506-9.371S340.906,471.71,344.517,475.072z"/>
					<path fill="#003948" d="M338.658,487.951c3.365-3.617,9.366-3.5,9.366-3.5s0.55,5.975-2.815,9.6
						c-3.363,3.619-9.37,3.509-9.37,3.509S335.29,491.575,338.658,487.951z"/>
				</g>
			</g>
			<g>
				<path fill="#FFCF40" d="M328.421,400.495c0,1.171,0.692,2.156,1.676,2.642l-4.335,26.281L315.478,413.7
					c0.504-0.536,0.827-1.245,0.827-2.038c0-1.639-1.328-2.968-2.969-2.968c-1.636,0-2.963,1.329-2.963,2.968
					c0,1.535,1.179,2.751,2.67,2.907l3.437,14.768l-14.439-10.846c0.238-0.422,0.409-0.892,0.409-1.413
					c0-1.641-1.328-2.968-2.967-2.968c-1.633,0-2.963,1.327-2.963,2.968c0,1.638,1.33,2.964,2.963,2.964
					c0.181,0,0.333-0.072,0.498-0.102l13.553,22.752c0,0,0.724,1.949,3.288,1.647c4.581-0.542,9.377-0.79,14.311-0.79
					c0.056,0,0.11,0.003,0.166,0.003v-46.014C329.706,397.584,328.421,398.884,328.421,400.495z"/>
				<path fill="#FDB34D" d="M362.369,414.11c-1.639,0-2.969,1.327-2.969,2.968c0,0.636,0.243,1.189,0.581,1.671l-14.367,10.668
					l3.208-14.849c1.484-0.162,2.661-1.377,2.661-2.907c0-1.639-1.332-2.968-2.971-2.968c-1.635,0-2.963,1.329-2.963,2.968
					c0,0.85,0.367,1.601,0.938,2.146l-9.59,15.61l-4.06-26.388c0.889-0.51,1.518-1.432,1.518-2.534c0-1.641-1.331-2.967-2.971-2.967
					c-0.029,0-0.057,0.008-0.086,0.008v46.014c4.805,0.007,9.47,0.305,13.939,0.764c2.315,0.24,3.191-1.465,3.191-1.465
					l13.604-22.876c0.117,0.012,0.218,0.069,0.336,0.069c1.637,0,2.966-1.326,2.966-2.964
					C365.335,415.437,364.005,414.11,362.369,414.11z"/>
			</g>
			<polygon fill="#FFCF40" points="330.899,462.257 326.797,464.412 327.581,459.845 324.263,456.611 328.848,455.945 
				330.899,451.789 332.949,455.945 337.535,456.611 334.217,459.845 335,464.412 			"/>
			<polygon fill="#FFCF40" points="330.899,389.516 326.797,391.672 327.581,387.105 324.263,383.87 328.848,383.204 
				330.899,379.049 332.949,383.204 337.535,383.87 334.217,387.105 335,391.672 			"/>
		</g>
		<g>
			<g>
				<polygon fill="#B3211B" points="714.133,345.436 655.158,370.103 632.971,317.049 691.947,292.386 692.128,323.473 				"/>
				<polygon fill="#861914" points="574.039,306.107 561.886,311.193 549.74,316.272 571.929,369.324 584.075,364.243 
					596.225,359.161 672.782,327.142 650.593,274.094 				"/>
				<polygon fill="#5A110E" points="655.158,370.103 672.782,327.142 642.49,339.811 				"/>
				<g>
					<path fill="#FFCF40" d="M608.898,299.505l15.118,36.148l-7.767,3.253l-11.448-27.374c-0.267,0.553-0.622,1.123-1.066,1.707
						c-0.441,0.582-0.939,1.146-1.482,1.689c-0.542,0.548-1.13,1.062-1.757,1.548c-0.63,0.488-1.271,0.914-1.925,1.283l-2.744-6.557
						c1.773-1.44,3.365-2.995,4.772-4.664c1.407-1.669,2.604-3.356,3.584-5.063L608.898,299.505z"/>
				</g>
				<g>
					
						<rect x="556.774" y="301.308" transform="matrix(-0.3858 -0.9226 0.9226 -0.3858 498.7408 941.1113)" fill="#4097A0" width="11.693" height="6.482"/>
					
						<rect x="565.351" y="296.16" transform="matrix(0.9226 -0.3857 0.3857 0.9226 -72.4789 242.6946)" fill="#003948" width="6.693" height="11.695"/>
					
						<rect x="569.597" y="392.472" transform="matrix(0.3859 0.9225 -0.9225 0.3859 738.4988 -317.7683)" fill="#003948" width="76.669" height="6.691"/>
					
						<rect x="598.616" y="360.024" transform="matrix(-0.9225 0.3859 -0.3859 -0.9225 1310.8235 533.5739)" fill="#4097A0" width="6.478" height="76.67"/>
				</g>
			</g>
			<circle fill="#003948" cx="560.346" cy="287.164" r="14.845"/>
			<circle fill="#4097A0" cx="554.181" cy="283.518" r="4.441"/>
		</g>
		<g>
			<g>
				<rect x="744.511" y="668.84" fill="#8CC1C6" width="30.555" height="26.973"/>
				<g>
					<polygon fill="#003948" points="760.879,685.209 744.511,685.209 744.511,668.841 					"/>
				</g>
				<g>
					<polygon fill="#4097A0" points="775.066,668.841 758.697,668.841 758.697,652.472 					"/>
				</g>
				<rect x="613.449" y="668.84" fill="#8CC1C6" width="30.555" height="26.973"/>
				<g>
					<g>
						<polygon fill="#FDE877" points="694.223,648.665 780.153,620.743 720.777,612.115 694.223,648.665 						"/>
						<polygon fill="#FDB34D" points="737.188,662.624 780.153,620.743 694.223,648.665 						"/>
						<polygon fill="#FDB34D" points="720.777,612.115 694.223,558.313 694.223,648.665 						"/>
						<polygon fill="#FDB34D" points="694.223,693.839 747.328,721.761 694.223,648.665 						"/>
						<polygon fill="#BE863A" points="694.223,648.665 694.223,648.665 747.328,721.761 737.188,662.624 						"/>
						<polygon fill="#BE863A" points="694.223,648.665 694.223,648.665 641.116,721.761 694.223,693.839 694.223,648.665 						"/>
						<polygon fill="#FDB34D" points="694.223,648.665 694.223,648.665 608.294,620.743 651.259,662.624 694.223,648.665 						"/>
						<polygon fill="#FDE877" points="667.67,612.115 608.294,620.743 694.223,648.665 						"/>
						<polygon fill="#FFCF40" points="651.259,662.624 641.116,721.761 694.223,648.665 						"/>
						<polygon fill="#FFCF40" points="694.223,648.665 694.223,648.665 694.223,558.313 667.67,612.115 694.223,648.665 						"/>
					</g>
					<g>
						<g>
							<path fill="#4097A0" d="M679.646,661.793c-8.051-8.05-8.051-21.103,0-29.155c4.022-4.025,9.3-6.036,14.583-6.036v-9.052
								c-7.596,0-15.195,2.898-20.983,8.688c-11.589,11.586-11.589,30.37,0,41.956c5.788,5.796,13.387,8.699,20.983,8.699v-9.055
								C688.946,667.838,683.667,665.818,679.646,661.793z"/>
						</g>
						<g>
							<path fill="#003948" d="M694.229,617.549v9.052c5.273,0,10.55,2.011,14.572,6.036c8.051,8.052,8.051,21.105,0,29.155
								c-4.021,4.025-9.299,6.045-14.572,6.045v9.055c7.589,0,15.184-2.903,20.975-8.699c11.586-11.586,11.586-30.371,0-41.956
								C709.413,620.448,701.817,617.549,694.229,617.549z"/>
						</g>
						<g>
							<path fill="#5A110E" d="M708.8,632.638c-4.021-4.025-9.299-6.036-14.572-6.036c-5.283,0-10.561,2.011-14.583,6.036
								c-8.051,8.052-8.051,21.105,0,29.155c4.022,4.025,9.3,6.045,14.583,6.045c5.273,0,10.55-2.02,14.572-6.045
								C716.851,653.743,716.851,640.69,708.8,632.638z"/>
						</g>
						<rect x="689.591" y="632.422" fill="#B3211B" width="9.269" height="29.084"/>
					</g>
				</g>
				<rect x="627.635" y="685.209" fill="#4097A0" width="133.287" height="26.972"/>
				<g>
					<polygon fill="#003948" points="627.635,685.209 644.003,685.209 644.003,668.841 					"/>
				</g>
				<g>
					<polygon fill="#4097A0" points="613.448,668.841 629.817,668.841 629.817,652.472 					"/>
				</g>
			</g>
			<polygon fill="#FFFFFF" points="659.286,606.75 669.195,612.169 659.286,617.589 653.866,627.497 648.445,617.589 
				638.537,612.169 648.445,606.75 653.866,596.842 			"/>
		</g>
		<g>
			<rect x="290.534" y="628.24" fill="#0A1D23" width="20.288" height="37.271"/>
			<rect x="252.708" y="628.24" fill="#0A1D23" width="20.288" height="37.271"/>
			<g>
				<path fill="#FFCF40" d="M281.921,629.924l11.469,11.469l4.482,0.121l12.771,12.622c0.19-0.222,0.328-0.463,0.39-0.732
					c0.45-1.981-3.599-4.526-3.599-6.643c0-2.119,4.049-4.662,3.599-6.643c-0.322-1.414-2.692-2.105-4.422-3.007
					c-0.776-0.404-1.423-0.849-1.698-1.42c-0.905-1.875,1.636-5.932,0.351-7.543c-1.295-1.62-5.817-0.04-7.437-1.332
					c-1.611-1.287-1.071-6.052-2.948-6.957c-0.201-0.098-0.423-0.135-0.656-0.142c-1.914-0.048-4.797,2.582-6.621,2.167
					c-1.981-0.451-3.563-4.977-5.681-4.977c-2.118,0-3.699,4.526-5.68,4.977c-2.046,0.465-5.431-2.916-7.277-2.025
					c-1.875,0.905-1.337,5.668-2.948,6.954c-1.619,1.293-6.141-0.287-7.435,1.332c-1.287,1.611,1.254,5.669,0.349,7.545
					c-0.889,1.846-5.656,2.382-6.122,4.428c-0.45,1.982,3.601,4.526,3.601,6.644c0,2.118-4.051,4.661-3.601,6.642
					c0.466,2.047,5.23,2.583,6.122,4.428c0.904,1.876-1.637,5.933-0.351,7.545c1.293,1.621,5.817,0.039,7.437,1.333
					c1.611,1.287,1.07,6.049,2.948,6.955c1.846,0.889,5.229-2.489,7.277-2.024c1.981,0.451,3.563,4.977,5.68,4.977
					c1.275,0,2.356-1.639,3.448-3.044l-13.306-13.305L281.921,629.924z"/>
				<path fill="#FDB34D" d="M287.602,671.638c2.046-0.465,5.43,2.917,7.276,2.026c1.877-0.906,1.336-5.67,2.948-6.956
					c1.62-1.292,6.142,0.289,7.435-1.333c1.289-1.611-1.255-5.668-0.349-7.545c0.773-1.603,4.47-2.219,5.732-3.695l-12.771-12.622
					l-4.482-0.121l-11.469-11.469l-9.859,30.341l13.306,13.305C286.088,672.643,286.813,671.817,287.602,671.638z"/>
			</g>
			<g>
				<polygon fill="#307178" points="286.849,639.911 281.921,629.924 281.921,646.696 297.872,641.513 				"/>
				<polygon fill="#003948" points="297.872,641.513 281.921,646.696 291.778,660.265 289.896,649.288 				"/>
				<polygon fill="#002B36" points="281.921,646.696 272.062,660.265 281.921,655.082 291.778,660.265 				"/>
				<polygon fill="#307178" points="281.921,646.696 265.969,641.513 273.945,649.288 272.062,660.265 				"/>
				<polygon fill="#4097A0" points="276.991,639.911 265.969,641.513 281.921,646.696 281.921,629.924 				"/>
			</g>
			<polygon fill="#5A110E" points="252.709,628.24 252.709,665.511 262.056,660.265 262.056,633.305 			"/>
			<polygon fill="#5A110E" points="310.823,628.24 310.823,665.511 301.475,660.265 301.475,633.305 			"/>
			<g>
				<polygon fill="#861914" points="252.709,646.784 239.229,660.265 262.056,660.265 262.056,646.76 252.683,646.76 				"/>
				<polygon fill="#B3211B" points="239.229,633.305 252.683,646.76 262.056,646.76 262.056,633.305 				"/>
			</g>
			<g>
				<polygon fill="#861914" points="310.823,646.784 324.304,660.265 301.475,660.265 301.475,646.76 310.849,646.76 				"/>
				<polygon fill="#B3211B" points="324.304,633.305 310.849,646.76 301.475,646.76 301.475,633.305 				"/>
			</g>
		</g>
		<g>
			<g>
				<g>
					<g>
						<polygon fill="#5A110E" points="97.479,634.197 94.149,623.39 83.192,626.195 100.56,595.19 114.847,603.193 						"/>
						<path fill="#B3211B" d="M96.973,638.953l-4.096-13.295l-13.476,3.453l20.436-36.483l17.571,9.843L96.973,638.953z
							 M95.419,621.12l2.565,8.323l14.298-25.527l-11-6.161L86.984,623.28L95.419,621.12z"/>
					</g>
					<g>
						<polygon fill="#B3211B" points="115.823,634.197 119.154,623.39 130.109,626.195 112.742,595.19 98.456,603.193 						"/>
						<path fill="#5A110E" d="M116.329,638.953L95.893,602.47l17.571-9.843l20.436,36.483l-13.476-3.453L116.329,638.953z
							 M101.02,603.915l14.299,25.527l2.565-8.323l8.436,2.161l-14.3-25.527L101.02,603.915z"/>
					</g>
					<g>
						<g>
							<g>
								<polygon fill="#4097A0" points="110.938,586.398 99.695,584.833 107.605,568.912 117.304,573.822 								"/>
								<path fill="#8CC1C6" d="M111.568,587.602l-13.546-1.885l9.089-18.295l11.679,5.913L111.568,587.602z M101.368,583.949
									l8.939,1.244l5.511-10.885l-7.719-3.907L101.368,583.949z"/>
							</g>
							<g>
								
									<rect x="104.797" y="574.687" transform="matrix(0.8922 0.4516 -0.4516 0.8922 271.9547 12.2166)" fill="#8CC1C6" width="11.178" height="2.211"/>
							</g>
						</g>
						<g>
							<g>
								<polygon fill="#4097A0" points="107.357,585.284 96.507,588.617 96.947,570.845 107.812,571.196 								"/>
								<path fill="#8CC1C6" d="M95.364,590.125l0.504-20.421l13.085,0.423l-0.518,15.982L95.364,590.125z M98.024,571.986
									l-0.373,15.124l8.628-2.65l0.394-12.194L98.024,571.986z"/>
							</g>
							<g>
								
									<rect x="96.786" y="574.8" transform="matrix(0.9995 0.0322 -0.0322 0.9995 18.6051 -2.999)" fill="#8CC1C6" width="11.179" height="2.211"/>
							</g>
						</g>
						<g>
							<g>
								<polygon fill="#4097A0" points="103.642,585.788 95.217,593.394 88.104,577.102 98.1,572.827 								"/>
								<path fill="#8CC1C6" d="M94.818,595.244l-8.174-18.721l12.038-5.147l6.286,14.703L94.818,595.244z M89.562,577.68
									l6.054,13.865l6.699-6.048l-4.796-11.218L89.562,577.68z"/>
							</g>
							<g>
								
									<rect x="94.057" y="573.805" transform="matrix(0.3929 0.9196 -0.9196 0.3929 590.5632 264.2251)" fill="#8CC1C6" width="2.211" height="11.178"/>
							</g>
						</g>
						<g>
							<g>
								<polygon fill="#4097A0" points="100.487,587.815 96.065,598.269 82.733,586.509 89.987,578.41 								"/>
								<path fill="#8CC1C6" d="M96.487,600.114l-15.32-13.513l8.734-9.752l11.912,10.669L96.487,600.114z M84.3,586.417
									l11.346,10.007l3.514-8.314l-9.088-8.14L84.3,586.417z"/>
							</g>
							<g>
								
									<rect x="88.995" y="580.014" transform="matrix(0.7447 0.6674 -0.6674 0.7447 413.8527 89.3841)" fill="#8CC1C6" width="2.211" height="11.179"/>
							</g>
						</g>
						<g>
							<g>
								<polygon fill="#4097A0" points="98.485,590.985 98.896,602.328 81.843,597.304 84.994,586.899 								"/>
								<path fill="#8CC1C6" d="M100.056,603.823l-19.595-5.774l3.795-12.529l15.304,4.635L100.056,603.823z M83.223,596.558
									l14.512,4.276l-0.328-9.02l-11.675-3.536L83.223,596.558z"/>
							</g>
							<g>
								
									<rect x="87.031" y="587.78" transform="matrix(0.9571 0.2897 -0.2897 0.9571 175.7064 -0.0838)" fill="#8CC1C6" width="2.211" height="11.179"/>
							</g>
						</g>
						<g>
							<g>
								<polygon fill="#4097A0" points="98.009,594.704 103.176,604.811 85.598,607.465 84.057,596.702 								"/>
								<path fill="#8CC1C6" d="M84.661,608.724l-1.855-12.96l15.828-2.267l6.226,12.177L84.661,608.724z M85.308,597.64
									l1.226,8.565l14.958-2.258l-4.108-8.037L85.308,597.64z"/>
							</g>
							<g>
								
									<rect x="84.05" y="600.134" transform="matrix(0.1418 0.9899 -0.9899 0.1418 672.0977 427.2697)" fill="#8CC1C6" width="11.178" height="2.211"/>
							</g>
						</g>
						<g>
							<g>
								<polygon fill="#4097A0" points="99.15,598.276 108.105,605.252 93.294,615.087 87.349,605.983 								"/>
								<path fill="#8CC1C6" d="M92.979,616.624l-7.16-10.962l13.388-8.743l10.789,8.405L92.979,616.624z M88.879,606.305
									l4.731,7.245l12.604-8.37l-7.121-5.547L88.879,606.305z"/>
							</g>
							<g>
								
									<rect x="88.737" y="606.632" transform="matrix(0.5468 0.8373 -0.8373 0.5468 551.5792 196.4447)" fill="#8CC1C6" width="11.178" height="2.21"/>
							</g>
						</g>
						<g>
							<g>
								<polygon fill="#4097A0" points="101.693,601.031 112.759,603.569 103.492,618.741 94.257,613.004 								"/>
								<path fill="#8CC1C6" d="M103.856,620.268l-11.123-6.909l8.438-13.583l13.332,3.059L103.856,620.268z M95.779,612.648
									l7.351,4.567l7.885-12.912l-8.798-2.018L95.779,612.648z"/>
							</g>
							<g>
								
									<rect x="95.731" y="610.539" transform="matrix(0.8494 0.5277 -0.5277 0.8494 338.0209 38.6286)" fill="#8CC1C6" width="11.178" height="2.21"/>
							</g>
						</g>
						<g>
							<g>
								<polygon fill="#4097A0" points="105.164,602.453 116.264,600.077 114.278,617.745 103.483,616.447 								"/>
								<path fill="#8CC1C6" d="M115.253,618.975l-12.999-1.561l1.906-15.877l13.374-2.863L115.253,618.975z M104.713,615.482
									l8.591,1.032l1.69-15.034l-8.827,1.889L104.713,615.482z"/>
							</g>
							<g>
								
									<rect x="103.721" y="611.124" transform="matrix(0.9929 0.1192 -0.1192 0.9929 73.7732 -8.6656)" fill="#8CC1C6" width="11.177" height="2.211"/>
							</g>
						</g>
						<g>
							<g>
								<polygon fill="#4097A0" points="108.911,602.275 117.966,595.43 123.633,612.282 113.301,615.669 								"/>
								<path fill="#8CC1C6" d="M112.594,617.064l-4.98-15.195l10.91-8.246l6.51,19.363L112.594,617.064z M110.207,602.681
									l3.8,11.592l8.223-2.695l-4.823-14.34L110.207,602.681z"/>
							</g>
							<g>
								
									<rect x="115.694" y="603.794" transform="matrix(0.3116 0.9502 -0.9502 0.3116 659.4561 308.5283)" fill="#8CC1C6" width="2.211" height="11.178"/>
							</g>
						</g>
						<g>
							<g>
								<polygon fill="#4097A0" points="112.229,600.531 117.545,590.5 129.802,603.378 121.869,610.814 								"/>
								<path fill="#8CC1C6" d="M121.82,612.376l-10.937-11.666l6.404-12.085l14.084,14.797L121.82,612.376z M113.576,600.351
									l8.343,8.9l6.314-5.917l-10.431-10.959L113.576,600.351z"/>
							</g>
							<g>
								
									<rect x="121.278" y="598.049" transform="matrix(0.6844 0.7291 -0.7291 0.6844 478.7386 101.275)" fill="#8CC1C6" width="2.212" height="11.179"/>
							</g>
						</g>
						<g>
							<g>
								<polygon fill="#4097A0" points="114.501,597.547 115.078,586.21 131.63,592.702 127.583,602.793 								"/>
								<path fill="#8CC1C6" d="M128.197,604.23l-14.841-5.951l0.695-13.659l19.019,7.459L128.197,604.23z M115.646,596.815
									l11.322,4.54l3.221-8.031l-14.085-5.525L115.646,596.815z"/>
							</g>
							<g>
								
									<rect x="123.912" y="590.484" transform="matrix(0.9281 0.3724 -0.3724 0.9281 230.9924 -3.6784)" fill="#8CC1C6" width="2.21" height="11.178"/>
							</g>
						</g>
						<g>
							<g>
								<polygon fill="#4097A0" points="115.299,593.883 111.031,583.364 128.774,582.253 129.371,593.109 								"/>
								<path fill="#8CC1C6" d="M114.572,595.03l-5.143-12.673l20.389-1.277l0.72,13.073L114.572,595.03z M112.631,584.371
									l3.395,8.364l12.181-0.67l-0.476-8.64L112.631,584.371z"/>
							</g>
							<g>
								
									<rect x="118.617" y="586.997" transform="matrix(0.0549 0.9985 -0.9985 0.0549 704.5978 431.7771)" fill="#8CC1C6" width="11.179" height="2.21"/>
							</g>
						</g>
						<g>
							<g>
								<polygon fill="#4097A0" points="114.474,590.225 106.16,582.495 121.771,573.989 126.901,583.575 								"/>
								<path fill="#8CC1C6" d="M114.298,591.573l-10.017-9.313l17.939-9.774l6.177,11.543L114.298,591.573z M108.037,582.731
									l6.61,6.147l10.757-5.756l-4.082-7.629L108.037,582.731z"/>
							</g>
							<g>
								
									<rect x="114.514" y="580.116" transform="matrix(0.4718 0.8817 -0.8817 0.4718 575.8849 201.0821)" fill="#8CC1C6" width="11.179" height="2.211"/>
							</g>
						</g>
					</g>
				</g>
				<g>
					<path fill="#FDE877" d="M96.687,593.918c0,5.486,4.463,9.949,9.949,9.949v-19.899
						C101.149,583.968,96.687,588.432,96.687,593.918z"/>
					<path fill="#FFCF40" d="M116.586,593.918c0-5.486-4.464-9.95-9.95-9.95v19.899
						C112.122,603.867,116.586,599.404,116.586,593.918z"/>
					<path fill="#FFCF40" d="M93.001,593.918c0,7.518,6.116,13.635,13.634,13.635v-1.843v-1.843c-5.486,0-9.949-4.463-9.949-9.949
						c0-5.486,4.463-9.95,9.949-9.95v-1.843v-1.843C99.118,580.283,93.001,586.399,93.001,593.918z"/>
					<path fill="#FDB34D" d="M106.636,580.283v1.843v1.843c5.486,0,9.95,4.464,9.95,9.95c0,5.486-4.464,9.949-9.95,9.949v1.843
						v1.843c7.519,0,13.634-6.116,13.634-13.635C120.27,586.399,114.154,580.283,106.636,580.283z"/>
				</g>
			</g>
			<polygon fill="#FFFFFF" points="99.9,582.091 103.333,583.968 99.9,585.846 98.021,589.279 96.143,585.846 92.71,583.968 
				96.143,582.091 98.021,578.657 			"/>
		</g>
	</g>
	<g>
		
			<image overflow="visible" opacity="0.15" width="328" height="188" xlink:href="E8ACFCF.png"  transform="matrix(1 0 0 1 644.3113 25.4752)">
		</image>
		<g>
			<path fill="#10E0FA" d="M930.651,39.073H675.817c-11.715,0-21.213,9.497-21.213,21.213v20.505v51.512v63.852l31.141-42.64
				h244.905c11.715,0,21.213-9.497,21.213-21.213V60.286C951.863,48.571,942.366,39.073,930.651,39.073z"/>
		</g>
	</g>
	<g>
		<path opacity="0.8" fill="#FFFFFF" d="M701.539,91.777c-0.885,0-1.678-0.136-2.381-0.408c-0.702-0.272-1.298-0.672-1.784-1.199
			c-0.488-0.527-0.862-1.17-1.122-1.929c-0.261-0.759-0.392-1.632-0.392-2.618s0.15-1.859,0.451-2.618
			c0.3-0.759,0.711-1.402,1.232-1.929c0.521-0.527,1.133-0.927,1.836-1.199c0.702-0.272,1.456-0.408,2.261-0.408
			c0.487,0,0.929,0.037,1.326,0.111c0.396,0.074,0.742,0.156,1.037,0.247c0.294,0.091,0.538,0.187,0.73,0.289
			c0.192,0.102,0.329,0.176,0.408,0.221l-0.629,1.751c-0.272-0.17-0.66-0.332-1.165-0.484c-0.504-0.153-1.051-0.229-1.64-0.229
			c-0.511,0-0.986,0.088-1.429,0.263c-0.441,0.176-0.824,0.439-1.147,0.791c-0.322,0.352-0.575,0.793-0.756,1.326
			c-0.182,0.533-0.272,1.15-0.272,1.853c0,0.624,0.07,1.196,0.213,1.717c0.142,0.521,0.359,0.972,0.654,1.352
			c0.295,0.38,0.669,0.675,1.122,0.884c0.453,0.21,0.997,0.314,1.632,0.314c0.759,0,1.377-0.077,1.853-0.229
			c0.477-0.153,0.845-0.297,1.105-0.434l0.578,1.751c-0.136,0.091-0.32,0.182-0.553,0.272c-0.232,0.091-0.507,0.179-0.824,0.264
			s-0.675,0.153-1.071,0.204C702.417,91.752,701.992,91.777,701.539,91.777z"/>
		<path opacity="0.8" fill="#FFFFFF" d="M709.885,79.623c1.7,0,3,0.312,3.901,0.935c0.901,0.623,1.352,1.575,1.352,2.856
			c0,1.598-0.788,2.68-2.363,3.247c0.215,0.261,0.459,0.578,0.731,0.952c0.271,0.374,0.549,0.779,0.833,1.216
			c0.283,0.436,0.555,0.884,0.815,1.343s0.493,0.91,0.697,1.352h-2.397c-0.215-0.408-0.447-0.819-0.696-1.232
			c-0.25-0.414-0.502-0.816-0.757-1.207s-0.507-0.759-0.757-1.105c-0.249-0.346-0.481-0.655-0.696-0.927
			c-0.159,0.012-0.295,0.017-0.408,0.017s-0.221,0-0.323,0h-1.037v4.454h-2.142V79.912c0.521-0.113,1.076-0.19,1.666-0.229
			C708.893,79.643,709.421,79.623,709.885,79.623z M710.038,81.476c-0.453,0-0.872,0.017-1.258,0.051v3.808h0.936
			c0.521,0,0.979-0.028,1.377-0.085c0.396-0.057,0.728-0.159,0.994-0.306c0.267-0.147,0.468-0.346,0.604-0.595
			c0.136-0.25,0.204-0.567,0.204-0.952c0-0.363-0.068-0.668-0.204-0.918c-0.136-0.249-0.331-0.448-0.586-0.595
			c-0.256-0.147-0.559-0.252-0.91-0.314C710.843,81.507,710.458,81.476,710.038,81.476z"/>
		<path opacity="0.8" fill="#FFFFFF" d="M724.947,91.523c-0.385-0.646-0.815-1.34-1.292-2.083c-0.476-0.742-0.969-1.49-1.479-2.244
			c-0.51-0.753-1.028-1.484-1.556-2.193c-0.527-0.708-1.028-1.346-1.505-1.913v8.432h-2.107V79.742h1.751
			c0.453,0.476,0.94,1.04,1.462,1.691s1.046,1.329,1.572,2.031c0.527,0.703,1.037,1.409,1.53,2.117
			c0.493,0.708,0.932,1.368,1.317,1.98v-7.82h2.125v11.781H724.947z"/>
		<path opacity="0.8" fill="#FFFFFF" d="M732.648,82.19c0.657-0.261,1.317-0.595,1.98-1.003c0.663-0.408,1.249-0.89,1.759-1.445
			h1.445v11.781h-2.057v-9.027c-0.307,0.238-0.691,0.47-1.156,0.697c-0.465,0.227-0.912,0.414-1.343,0.561L732.648,82.19z"/>
		<path opacity="0.8" fill="#FFFFFF" d="M749.189,85.624c0,1.983-0.362,3.505-1.088,4.564c-0.726,1.06-1.729,1.589-3.009,1.589
			c-1.281,0-2.284-0.529-3.009-1.589c-0.726-1.06-1.088-2.581-1.088-4.564c0-0.986,0.093-1.862,0.28-2.626
			c0.187-0.765,0.459-1.408,0.815-1.93c0.357-0.521,0.788-0.918,1.292-1.19c0.505-0.272,1.074-0.408,1.709-0.408
			c1.28,0,2.283,0.53,3.009,1.59S749.189,83.64,749.189,85.624z M747.064,85.624c0-0.612-0.034-1.184-0.102-1.717
			c-0.068-0.532-0.179-0.994-0.332-1.385c-0.152-0.391-0.354-0.7-0.604-0.927c-0.249-0.227-0.561-0.34-0.935-0.34
			s-0.688,0.113-0.943,0.34c-0.255,0.227-0.459,0.536-0.612,0.927s-0.261,0.853-0.323,1.385c-0.063,0.533-0.093,1.105-0.093,1.717
			c0,0.612,0.03,1.185,0.093,1.717c0.063,0.533,0.17,0.995,0.323,1.386s0.357,0.7,0.612,0.926c0.255,0.227,0.569,0.34,0.943,0.34
			s0.686-0.113,0.935-0.34c0.249-0.227,0.451-0.535,0.604-0.926c0.153-0.391,0.264-0.853,0.332-1.386
			C747.03,86.808,747.064,86.235,747.064,85.624z"/>
		<path opacity="0.8" fill="#FFFFFF" d="M758.336,85.624c0,1.983-0.362,3.505-1.088,4.564c-0.726,1.06-1.729,1.589-3.009,1.589
			c-1.281,0-2.284-0.529-3.009-1.589c-0.726-1.06-1.088-2.581-1.088-4.564c0-0.986,0.093-1.862,0.28-2.626
			c0.187-0.765,0.459-1.408,0.815-1.93c0.357-0.521,0.788-0.918,1.292-1.19c0.505-0.272,1.074-0.408,1.709-0.408
			c1.28,0,2.283,0.53,3.009,1.59S758.336,83.64,758.336,85.624z M756.211,85.624c0-0.612-0.034-1.184-0.102-1.717
			c-0.068-0.532-0.179-0.994-0.332-1.385c-0.152-0.391-0.354-0.7-0.604-0.927c-0.249-0.227-0.561-0.34-0.935-0.34
			s-0.688,0.113-0.943,0.34c-0.255,0.227-0.459,0.536-0.612,0.927s-0.261,0.853-0.323,1.385c-0.063,0.533-0.093,1.105-0.093,1.717
			c0,0.612,0.03,1.185,0.093,1.717c0.063,0.533,0.17,0.995,0.323,1.386s0.357,0.7,0.612,0.926c0.255,0.227,0.569,0.34,0.943,0.34
			s0.686-0.113,0.935-0.34c0.249-0.227,0.451-0.535,0.604-0.926c0.153-0.391,0.264-0.853,0.332-1.386
			C756.177,86.808,756.211,86.235,756.211,85.624z"/>
		<path opacity="0.8" fill="#FFFFFF" d="M768.655,91.777c-0.885,0-1.678-0.136-2.381-0.408c-0.702-0.272-1.298-0.672-1.784-1.199
			c-0.488-0.527-0.862-1.17-1.122-1.929c-0.261-0.759-0.392-1.632-0.392-2.618s0.15-1.859,0.451-2.618
			c0.3-0.759,0.711-1.402,1.232-1.929c0.521-0.527,1.133-0.927,1.836-1.199c0.702-0.272,1.456-0.408,2.261-0.408
			c0.487,0,0.929,0.037,1.326,0.111c0.396,0.074,0.742,0.156,1.037,0.247c0.294,0.091,0.538,0.187,0.73,0.289
			c0.192,0.102,0.329,0.176,0.408,0.221l-0.629,1.751c-0.272-0.17-0.66-0.332-1.165-0.484c-0.504-0.153-1.051-0.229-1.64-0.229
			c-0.511,0-0.986,0.088-1.429,0.263c-0.441,0.176-0.824,0.439-1.147,0.791c-0.322,0.352-0.575,0.793-0.756,1.326
			c-0.182,0.533-0.272,1.15-0.272,1.853c0,0.624,0.07,1.196,0.213,1.717c0.142,0.521,0.359,0.972,0.654,1.352
			c0.295,0.38,0.669,0.675,1.122,0.884c0.453,0.21,0.997,0.314,1.632,0.314c0.759,0,1.377-0.077,1.853-0.229
			c0.477-0.153,0.845-0.297,1.105-0.434l0.578,1.751c-0.136,0.091-0.32,0.182-0.553,0.272c-0.232,0.091-0.507,0.179-0.824,0.264
			s-0.675,0.153-1.071,0.204C769.533,91.752,769.108,91.777,768.655,91.777z"/>
		<path opacity="0.8" fill="#FFFFFF" d="M784.397,85.624c0,1.009-0.15,1.898-0.451,2.669c-0.3,0.771-0.708,1.414-1.224,1.93
			s-1.119,0.904-1.811,1.164c-0.691,0.261-1.428,0.391-2.21,0.391s-1.521-0.13-2.219-0.391c-0.697-0.26-1.304-0.648-1.818-1.164
			c-0.517-0.516-0.927-1.159-1.233-1.93c-0.306-0.771-0.459-1.66-0.459-2.669s0.153-1.896,0.459-2.661
			c0.307-0.765,0.723-1.408,1.25-1.929c0.527-0.521,1.136-0.913,1.827-1.173c0.691-0.26,1.423-0.391,2.193-0.391
			s1.502,0.131,2.193,0.391c0.69,0.261,1.294,0.652,1.811,1.173c0.515,0.521,0.926,1.164,1.232,1.929
			C784.244,83.728,784.397,84.615,784.397,85.624z M775.2,85.624c0,0.646,0.079,1.232,0.238,1.759
			c0.158,0.527,0.388,0.975,0.688,1.343c0.3,0.368,0.665,0.654,1.096,0.858s0.918,0.306,1.463,0.306
			c0.532,0,1.014-0.102,1.444-0.306s0.796-0.49,1.097-0.858c0.3-0.368,0.529-0.816,0.688-1.343c0.158-0.527,0.238-1.113,0.238-1.759
			s-0.08-1.232-0.238-1.76c-0.159-0.527-0.389-0.975-0.688-1.343c-0.301-0.368-0.666-0.654-1.097-0.858s-0.912-0.306-1.444-0.306
			c-0.545,0-1.032,0.102-1.463,0.306s-0.796,0.493-1.096,0.867c-0.301,0.374-0.53,0.822-0.688,1.343
			C775.279,84.394,775.2,84.978,775.2,85.624z"/>
		<path opacity="0.8" fill="#FFFFFF" d="M797.181,85.624c0,1.009-0.15,1.898-0.451,2.669c-0.3,0.771-0.708,1.414-1.224,1.93
			s-1.119,0.904-1.811,1.164c-0.691,0.261-1.428,0.391-2.21,0.391s-1.521-0.13-2.219-0.391c-0.697-0.26-1.304-0.648-1.818-1.164
			c-0.517-0.516-0.927-1.159-1.233-1.93c-0.306-0.771-0.459-1.66-0.459-2.669s0.153-1.896,0.459-2.661
			c0.307-0.765,0.723-1.408,1.25-1.929c0.527-0.521,1.136-0.913,1.827-1.173c0.691-0.26,1.423-0.391,2.193-0.391
			s1.502,0.131,2.193,0.391c0.69,0.261,1.294,0.652,1.811,1.173c0.515,0.521,0.926,1.164,1.232,1.929
			C797.028,83.728,797.181,84.615,797.181,85.624z M787.984,85.624c0,0.646,0.079,1.232,0.238,1.759
			c0.158,0.527,0.388,0.975,0.688,1.343c0.3,0.368,0.665,0.654,1.096,0.858s0.918,0.306,1.463,0.306
			c0.532,0,1.014-0.102,1.444-0.306s0.796-0.49,1.097-0.858c0.3-0.368,0.529-0.816,0.688-1.343c0.158-0.527,0.238-1.113,0.238-1.759
			s-0.08-1.232-0.238-1.76c-0.159-0.527-0.389-0.975-0.688-1.343c-0.301-0.368-0.666-0.654-1.097-0.858s-0.912-0.306-1.444-0.306
			c-0.545,0-1.032,0.102-1.463,0.306s-0.796,0.493-1.096,0.867c-0.301,0.374-0.53,0.822-0.688,1.343
			C788.063,84.394,787.984,84.978,787.984,85.624z"/>
		<path opacity="0.8" fill="#FFFFFF" d="M806.463,89.67v1.853h-7.446V79.742h2.142v9.928H806.463z"/>
		<path opacity="0.8" fill="#FFFFFF" d="M807.585,91.523V79.742h7.564v1.819h-5.423v2.907h4.828v1.785h-4.828v3.451h5.831v1.819
			H807.585z"/>
		<path opacity="0.8" fill="#FFFFFF" d="M819.892,89.924c0.771,0,1.332-0.13,1.684-0.391c0.351-0.261,0.526-0.629,0.526-1.105
			c0-0.283-0.059-0.527-0.178-0.731c-0.119-0.204-0.289-0.388-0.511-0.552c-0.221-0.164-0.49-0.317-0.807-0.459
			c-0.317-0.142-0.681-0.281-1.089-0.417c-0.407-0.147-0.802-0.309-1.181-0.484c-0.38-0.176-0.715-0.394-1.003-0.655
			c-0.289-0.26-0.521-0.572-0.697-0.935c-0.176-0.362-0.264-0.799-0.264-1.309c0-1.065,0.368-1.901,1.104-2.507
			c0.737-0.606,1.74-0.91,3.01-0.91c0.736,0,1.391,0.083,1.963,0.247c0.572,0.165,1.023,0.343,1.352,0.536l-0.663,1.734
			c-0.385-0.215-0.808-0.379-1.267-0.493s-0.932-0.17-1.419-0.17c-0.578,0-1.028,0.119-1.352,0.357
			c-0.323,0.238-0.484,0.572-0.484,1.003c0,0.261,0.054,0.484,0.161,0.671s0.261,0.354,0.459,0.501
			c0.198,0.147,0.431,0.283,0.697,0.408c0.266,0.125,0.558,0.244,0.875,0.357c0.556,0.204,1.052,0.411,1.488,0.62
			c0.436,0.21,0.805,0.459,1.104,0.748c0.301,0.289,0.53,0.629,0.688,1.02c0.159,0.391,0.238,0.865,0.238,1.419
			c0,1.065-0.377,1.89-1.131,2.474c-0.754,0.584-1.855,0.875-3.307,0.875c-0.487,0-0.932-0.031-1.334-0.093
			c-0.402-0.063-0.76-0.139-1.071-0.229c-0.312-0.091-0.581-0.184-0.808-0.281c-0.227-0.096-0.407-0.184-0.544-0.263l0.629-1.751
			c0.307,0.17,0.72,0.34,1.241,0.51S819.156,89.924,819.892,89.924z"/>
		<path opacity="0.8" fill="#FFFFFF" d="M833.918,79.742v1.853h-3.621v9.928h-2.159v-9.928h-3.621v-1.853H833.918z"/>
		<path opacity="0.8" fill="#FFFFFF" d="M701.539,112.177c-0.885,0-1.678-0.136-2.381-0.408c-0.702-0.272-1.298-0.672-1.784-1.199
			c-0.488-0.527-0.862-1.17-1.122-1.929c-0.261-0.759-0.392-1.632-0.392-2.618s0.15-1.859,0.451-2.618
			c0.3-0.759,0.711-1.402,1.232-1.929c0.521-0.527,1.133-0.927,1.836-1.199c0.702-0.272,1.456-0.408,2.261-0.408
			c0.487,0,0.929,0.037,1.326,0.111c0.396,0.074,0.742,0.156,1.037,0.247c0.294,0.091,0.538,0.187,0.73,0.289
			c0.192,0.102,0.329,0.176,0.408,0.221l-0.629,1.751c-0.272-0.17-0.66-0.332-1.165-0.484c-0.504-0.153-1.051-0.229-1.64-0.229
			c-0.511,0-0.986,0.088-1.429,0.263c-0.441,0.176-0.824,0.439-1.147,0.791c-0.322,0.352-0.575,0.793-0.756,1.326
			c-0.182,0.533-0.272,1.15-0.272,1.853c0,0.624,0.07,1.196,0.213,1.717c0.142,0.521,0.359,0.972,0.654,1.352
			c0.295,0.38,0.669,0.675,1.122,0.884c0.453,0.21,0.997,0.314,1.632,0.314c0.759,0,1.377-0.077,1.853-0.229
			c0.477-0.153,0.845-0.297,1.105-0.434l0.578,1.751c-0.136,0.091-0.32,0.182-0.553,0.272c-0.232,0.091-0.507,0.179-0.824,0.264
			s-0.675,0.153-1.071,0.204C702.417,112.152,701.992,112.177,701.539,112.177z"/>
		<path opacity="0.8" fill="#FFFFFF" d="M714.085,110.069v1.853h-7.446v-11.781h2.142v9.928H714.085z"/>
		<path opacity="0.8" fill="#FFFFFF" d="M725.475,106.024c0,1.009-0.15,1.898-0.451,2.669c-0.3,0.771-0.708,1.414-1.224,1.93
			s-1.119,0.904-1.811,1.164c-0.691,0.261-1.428,0.391-2.21,0.391s-1.521-0.13-2.219-0.391c-0.697-0.26-1.304-0.648-1.818-1.164
			c-0.517-0.516-0.927-1.159-1.233-1.93c-0.306-0.771-0.459-1.66-0.459-2.669s0.153-1.896,0.459-2.661
			c0.307-0.765,0.723-1.408,1.25-1.929c0.527-0.521,1.136-0.913,1.827-1.173c0.691-0.26,1.423-0.391,2.193-0.391
			s1.502,0.131,2.193,0.391c0.69,0.261,1.294,0.652,1.811,1.173c0.515,0.521,0.926,1.164,1.232,1.929
			C725.322,104.128,725.475,105.015,725.475,106.024z M716.278,106.024c0,0.646,0.079,1.232,0.238,1.759
			c0.158,0.527,0.388,0.975,0.688,1.343c0.3,0.368,0.665,0.654,1.096,0.858s0.918,0.306,1.463,0.306
			c0.532,0,1.014-0.102,1.444-0.306s0.796-0.49,1.097-0.858c0.3-0.368,0.529-0.816,0.688-1.343c0.158-0.527,0.238-1.113,0.238-1.759
			s-0.08-1.232-0.238-1.76c-0.159-0.527-0.389-0.975-0.688-1.343c-0.301-0.368-0.666-0.654-1.097-0.858s-0.912-0.306-1.444-0.306
			c-0.545,0-1.032,0.102-1.463,0.306s-0.796,0.493-1.096,0.867c-0.301,0.374-0.53,0.822-0.688,1.343
			C716.357,104.794,716.278,105.378,716.278,106.024z"/>
		<path opacity="0.8" fill="#FFFFFF" d="M731.849,112.177c-0.805,0-1.496-0.116-2.074-0.348c-0.578-0.232-1.057-0.558-1.437-0.978
			s-0.66-0.913-0.842-1.479c-0.181-0.567-0.271-1.19-0.271-1.87v-7.361h2.159v7.157c0,0.533,0.06,0.989,0.178,1.369
			c0.119,0.38,0.289,0.688,0.511,0.926c0.221,0.238,0.481,0.414,0.781,0.527c0.301,0.113,0.638,0.17,1.012,0.17
			s0.714-0.057,1.021-0.17c0.306-0.113,0.569-0.289,0.79-0.527c0.221-0.238,0.392-0.546,0.51-0.926
			c0.119-0.38,0.179-0.836,0.179-1.369v-7.157h2.159v7.361c0,0.68-0.094,1.303-0.28,1.87c-0.188,0.566-0.471,1.06-0.851,1.479
			s-0.864,0.745-1.453,0.978C733.35,112.061,732.654,112.177,731.849,112.177z"/>
		<path opacity="0.8" fill="#FFFFFF" d="M748.748,106.024c0,1.02-0.159,1.907-0.477,2.661c-0.317,0.753-0.768,1.383-1.352,1.887
			c-0.583,0.504-1.286,0.878-2.107,1.122c-0.822,0.244-1.731,0.366-2.729,0.366c-0.477,0-1.015-0.02-1.615-0.06
			c-0.601-0.04-1.173-0.122-1.717-0.247v-11.441c0.544-0.125,1.122-0.204,1.733-0.238c0.612-0.034,1.156-0.051,1.633-0.051
			c0.985,0,1.887,0.116,2.703,0.349c0.815,0.232,1.516,0.595,2.099,1.088c0.584,0.493,1.034,1.116,1.352,1.87
			C748.589,104.083,748.748,104.981,748.748,106.024z M740.893,110.154c0.125,0.012,0.289,0.02,0.493,0.025
			c0.204,0.006,0.481,0.009,0.833,0.009c1.439,0,2.513-0.366,3.222-1.097c0.708-0.731,1.063-1.753,1.063-3.068
			c0-1.337-0.346-2.363-1.037-3.077s-1.763-1.071-3.213-1.071c-0.635,0-1.088,0.017-1.36,0.051V110.154z"/>
		<path opacity="0.8" fill="#FFFFFF" d="M757.403,111.922c-0.851-1.836-1.671-3.757-2.459-5.763
			c-0.788-2.006-1.521-4.012-2.202-6.018h2.364c0.272,0.793,0.551,1.604,0.835,2.431c0.284,0.828,0.567,1.641,0.852,2.439
			c0.284,0.799,0.568,1.573,0.853,2.321s0.563,1.434,0.835,2.057c0.262-0.623,0.534-1.306,0.818-2.048
			c0.284-0.742,0.57-1.516,0.86-2.32s0.576-1.621,0.86-2.448c0.284-0.827,0.557-1.638,0.818-2.431h2.296
			c-0.693,2.006-1.434,4.012-2.218,6.018c-0.785,2.006-1.604,3.927-2.457,5.763H757.403z"/>
		<path opacity="0.8" fill="#FFFFFF" d="M765.135,111.922v-11.781h7.564v1.819h-5.423v2.907h4.828v1.785h-4.828v3.451h5.831v1.819
			H765.135z"/>
		<path opacity="0.8" fill="#FFFFFF" d="M782.526,111.922c-0.385-0.646-0.815-1.34-1.292-2.083c-0.476-0.742-0.969-1.49-1.479-2.244
			c-0.51-0.753-1.028-1.484-1.556-2.193c-0.527-0.708-1.028-1.346-1.505-1.913v8.432h-2.107v-11.781h1.751
			c0.453,0.476,0.94,1.04,1.462,1.691s1.046,1.329,1.572,2.031c0.527,0.703,1.037,1.409,1.53,2.117
			c0.493,0.708,0.932,1.368,1.317,1.98v-7.82h2.125v11.781H782.526z"/>
		<path opacity="0.8" fill="#FFFFFF" d="M796.654,106.024c0,1.02-0.159,1.907-0.477,2.661c-0.317,0.753-0.768,1.383-1.352,1.887
			c-0.583,0.504-1.286,0.878-2.107,1.122c-0.822,0.244-1.731,0.366-2.729,0.366c-0.477,0-1.015-0.02-1.615-0.06
			c-0.601-0.04-1.173-0.122-1.717-0.247v-11.441c0.544-0.125,1.122-0.204,1.733-0.238c0.612-0.034,1.156-0.051,1.633-0.051
			c0.985,0,1.887,0.116,2.703,0.349c0.815,0.232,1.516,0.595,2.099,1.088c0.584,0.493,1.034,1.116,1.352,1.87
			C796.495,104.083,796.654,104.981,796.654,106.024z M788.8,110.154c0.125,0.012,0.289,0.02,0.493,0.025
			c0.204,0.006,0.481,0.009,0.833,0.009c1.439,0,2.513-0.366,3.222-1.097c0.708-0.731,1.063-1.753,1.063-3.068
			c0-1.337-0.346-2.363-1.037-3.077s-1.763-1.071-3.213-1.071c-0.635,0-1.088,0.017-1.36,0.051V110.154z"/>
		<path opacity="0.8" fill="#FFFFFF" d="M809.438,106.024c0,1.009-0.15,1.898-0.451,2.669c-0.3,0.771-0.708,1.414-1.224,1.93
			s-1.119,0.904-1.811,1.164c-0.691,0.261-1.428,0.391-2.21,0.391s-1.521-0.13-2.219-0.391c-0.697-0.26-1.304-0.648-1.818-1.164
			c-0.517-0.516-0.927-1.159-1.233-1.93c-0.306-0.771-0.459-1.66-0.459-2.669s0.153-1.896,0.459-2.661
			c0.307-0.765,0.723-1.408,1.25-1.929c0.527-0.521,1.136-0.913,1.827-1.173c0.691-0.26,1.423-0.391,2.193-0.391
			s1.502,0.131,2.193,0.391c0.69,0.261,1.294,0.652,1.811,1.173c0.515,0.521,0.926,1.164,1.232,1.929
			C809.285,104.128,809.438,105.015,809.438,106.024z M800.241,106.024c0,0.646,0.079,1.232,0.238,1.759
			c0.158,0.527,0.388,0.975,0.688,1.343c0.3,0.368,0.665,0.654,1.096,0.858s0.918,0.306,1.463,0.306
			c0.532,0,1.014-0.102,1.444-0.306s0.796-0.49,1.097-0.858c0.3-0.368,0.529-0.816,0.688-1.343c0.158-0.527,0.238-1.113,0.238-1.759
			s-0.08-1.232-0.238-1.76c-0.159-0.527-0.389-0.975-0.688-1.343c-0.301-0.368-0.666-0.654-1.097-0.858s-0.912-0.306-1.444-0.306
			c-0.545,0-1.032,0.102-1.463,0.306s-0.796,0.493-1.096,0.867c-0.301,0.374-0.53,0.822-0.688,1.343
			C800.32,104.794,800.241,105.378,800.241,106.024z"/>
		<path opacity="0.8" fill="#FFFFFF" d="M814.52,100.023c1.7,0,3,0.312,3.901,0.935c0.901,0.623,1.352,1.575,1.352,2.856
			c0,1.598-0.788,2.68-2.363,3.247c0.215,0.261,0.459,0.578,0.731,0.952c0.271,0.374,0.549,0.779,0.833,1.216
			c0.283,0.436,0.555,0.884,0.815,1.343s0.493,0.91,0.697,1.352h-2.397c-0.215-0.408-0.447-0.819-0.696-1.232
			c-0.25-0.414-0.502-0.816-0.757-1.207s-0.507-0.759-0.757-1.105c-0.249-0.346-0.481-0.655-0.696-0.927
			c-0.159,0.012-0.295,0.017-0.408,0.017s-0.221,0-0.323,0h-1.037v4.454h-2.142v-11.611c0.521-0.113,1.076-0.19,1.666-0.229
			C813.528,100.043,814.055,100.023,814.52,100.023z M814.673,101.876c-0.453,0-0.872,0.017-1.258,0.051v3.808h0.936
			c0.521,0,0.979-0.028,1.377-0.085c0.396-0.057,0.728-0.159,0.994-0.306c0.267-0.147,0.468-0.346,0.604-0.595
			c0.136-0.25,0.204-0.567,0.204-0.952c0-0.363-0.068-0.668-0.204-0.918c-0.136-0.249-0.331-0.448-0.586-0.595
			c-0.256-0.147-0.559-0.252-0.91-0.314C815.477,101.907,815.093,101.876,814.673,101.876z"/>
		<path opacity="0.8" fill="#FFFFFF" d="M824.499,110.324c0.771,0,1.332-0.13,1.684-0.391c0.351-0.261,0.526-0.629,0.526-1.105
			c0-0.283-0.059-0.527-0.178-0.731c-0.119-0.204-0.289-0.388-0.511-0.552c-0.221-0.164-0.49-0.317-0.807-0.459
			c-0.317-0.142-0.681-0.281-1.089-0.417c-0.407-0.147-0.802-0.309-1.181-0.484c-0.38-0.176-0.715-0.394-1.003-0.655
			c-0.289-0.26-0.521-0.572-0.697-0.935c-0.176-0.362-0.264-0.799-0.264-1.309c0-1.065,0.368-1.901,1.104-2.507
			c0.737-0.606,1.74-0.91,3.01-0.91c0.736,0,1.391,0.083,1.963,0.247c0.572,0.165,1.023,0.343,1.352,0.536l-0.663,1.734
			c-0.385-0.215-0.808-0.379-1.267-0.493s-0.932-0.17-1.419-0.17c-0.578,0-1.028,0.119-1.352,0.357
			c-0.323,0.238-0.484,0.572-0.484,1.003c0,0.261,0.054,0.484,0.161,0.671s0.261,0.354,0.459,0.501
			c0.198,0.147,0.431,0.283,0.697,0.408c0.266,0.125,0.558,0.244,0.875,0.357c0.556,0.204,1.052,0.411,1.488,0.62
			c0.436,0.21,0.805,0.459,1.104,0.748c0.301,0.289,0.53,0.629,0.688,1.02c0.159,0.391,0.238,0.865,0.238,1.419
			c0,1.065-0.377,1.89-1.131,2.474c-0.754,0.584-1.855,0.875-3.307,0.875c-0.487,0-0.932-0.031-1.334-0.093
			c-0.402-0.063-0.76-0.139-1.071-0.229c-0.312-0.091-0.581-0.184-0.808-0.281c-0.227-0.096-0.407-0.184-0.544-0.263l0.629-1.751
			c0.307,0.17,0.72,0.34,1.241,0.51S823.762,110.324,824.499,110.324z"/>
		<path opacity="0.8" fill="#FFFFFF" d="M840.53,103.201c0,0.408-0.085,0.808-0.255,1.199s-0.389,0.771-0.654,1.139
			c-0.267,0.368-0.569,0.725-0.909,1.071c-0.341,0.346-0.681,0.683-1.021,1.012c-0.182,0.17-0.386,0.374-0.612,0.612
			s-0.441,0.476-0.646,0.714c-0.204,0.238-0.38,0.468-0.527,0.688c-0.147,0.221-0.227,0.405-0.237,0.553h5.235v1.734h-7.497
			c-0.011-0.091-0.017-0.201-0.017-0.332c0-0.13,0-0.229,0-0.297c0-0.544,0.088-1.045,0.264-1.504s0.405-0.887,0.688-1.284
			c0.283-0.396,0.601-0.771,0.952-1.122c0.351-0.351,0.702-0.697,1.054-1.037c0.271-0.26,0.532-0.516,0.782-0.765
			c0.249-0.25,0.467-0.496,0.654-0.74c0.187-0.244,0.337-0.493,0.45-0.748s0.17-0.519,0.17-0.791c0-0.589-0.17-1.008-0.51-1.258
			c-0.34-0.249-0.754-0.374-1.241-0.374c-0.317,0-0.611,0.045-0.884,0.136c-0.272,0.091-0.513,0.199-0.723,0.323
			c-0.21,0.125-0.394,0.252-0.553,0.382c-0.158,0.13-0.277,0.235-0.356,0.314l-1.021-1.445c0.477-0.453,1.034-0.819,1.675-1.097
			c0.641-0.277,1.329-0.417,2.065-0.417c1.258,0,2.185,0.298,2.779,0.893C840.233,101.357,840.53,102.171,840.53,103.201z"/>
		<path opacity="0.8" fill="#FFFFFF" d="M850.424,106.024c0,1.983-0.362,3.505-1.088,4.564c-0.726,1.06-1.729,1.589-3.009,1.589
			c-1.281,0-2.284-0.529-3.009-1.589c-0.726-1.06-1.088-2.581-1.088-4.564c0-0.986,0.093-1.862,0.28-2.626
			c0.187-0.765,0.459-1.408,0.815-1.93c0.357-0.521,0.788-0.918,1.292-1.19c0.505-0.272,1.074-0.408,1.709-0.408
			c1.28,0,2.283,0.53,3.009,1.59S850.424,104.04,850.424,106.024z M848.299,106.024c0-0.612-0.034-1.184-0.102-1.717
			c-0.068-0.532-0.179-0.994-0.332-1.385c-0.152-0.391-0.354-0.7-0.604-0.927c-0.249-0.227-0.561-0.34-0.935-0.34
			s-0.688,0.113-0.943,0.34c-0.255,0.227-0.459,0.536-0.612,0.927s-0.261,0.853-0.323,1.385c-0.063,0.533-0.093,1.105-0.093,1.717
			c0,0.612,0.03,1.185,0.093,1.717c0.063,0.533,0.17,0.995,0.323,1.386s0.357,0.7,0.612,0.926c0.255,0.227,0.569,0.34,0.943,0.34
			s0.686-0.113,0.935-0.34c0.249-0.227,0.451-0.535,0.604-0.926c0.153-0.391,0.264-0.853,0.332-1.386
			C848.264,107.208,848.299,106.635,848.299,106.024z"/>
		<path opacity="0.8" fill="#FFFFFF" d="M852.176,102.589c0.657-0.261,1.317-0.595,1.98-1.003c0.663-0.408,1.249-0.89,1.759-1.445
			h1.445v11.781h-2.057v-9.027c-0.307,0.238-0.691,0.47-1.156,0.697c-0.465,0.227-0.912,0.414-1.343,0.561L852.176,102.589z"/>
		<path opacity="0.8" fill="#FFFFFF" d="M864.841,104.562c0.703,0,1.301,0.099,1.794,0.297s0.893,0.467,1.198,0.808
			c0.306,0.34,0.529,0.734,0.672,1.181c0.142,0.448,0.212,0.916,0.212,1.403c0,0.442-0.076,0.896-0.229,1.36
			c-0.152,0.465-0.391,0.887-0.714,1.267s-0.729,0.691-1.216,0.935s-1.065,0.365-1.733,0.365c-1.349,0-2.378-0.444-3.086-1.334
			c-0.708-0.89-1.063-2.116-1.063-3.68c0-1.133,0.167-2.139,0.502-3.018c0.334-0.878,0.81-1.618,1.428-2.219
			c0.617-0.601,1.365-1.057,2.244-1.368c0.878-0.312,1.867-0.473,2.967-0.485l0.118,1.7c-0.611,0.011-1.184,0.077-1.717,0.195
			c-0.532,0.119-1.009,0.303-1.428,0.553c-0.42,0.25-0.779,0.572-1.079,0.969c-0.301,0.397-0.53,0.884-0.688,1.462
			C863.577,104.692,864.183,104.562,864.841,104.562z M864.586,106.193c-0.329,0-0.646,0.028-0.952,0.085
			c-0.306,0.057-0.584,0.142-0.833,0.255c-0.011,0.091-0.02,0.19-0.025,0.298c-0.006,0.107-0.009,0.212-0.009,0.314
			c0,0.453,0.031,0.881,0.094,1.283c0.063,0.402,0.17,0.754,0.323,1.054s0.362,0.539,0.629,0.714
			c0.267,0.176,0.598,0.264,0.994,0.264c0.329,0,0.609-0.068,0.842-0.204c0.232-0.136,0.422-0.312,0.569-0.527
			s0.255-0.451,0.323-0.706s0.102-0.501,0.102-0.74c0-0.68-0.164-1.198-0.492-1.555C865.821,106.372,865.3,106.193,864.586,106.193z
			"/>
	</g>
</g>
</svg>
