<?xml version="1.0" encoding="utf-8"?>
<!-- Generator: Adobe Illustrator 21.0.0, SVG Export Plug-In . SVG Version: 6.00 Build 0)  -->
<svg version="1.1" xmlns="http://www.w3.org/2000/svg" xmlns:xlink="http://www.w3.org/1999/xlink" x="0px" y="0px"
	 viewBox="0 0 200 200" enable-background="new 0 0 200 200" xml:space="preserve">
<g id="Grid">
</g>
<g id="_x32_4_Grid_Col" display="none" opacity="0.1" enable-background="new    ">
</g>
<g id="Layer_3">
</g>
<g id="Layer_4">
</g>
<g id="Layer_5">
	<g>
		<path fill="#F4F6F9" d="M51.663,67.76h-0.166c-9.187,0-15.063-6.348-15.063-14.283c0-8.102,6.125-14.283,15.394-14.283
			c9.353,0,15.146,6.181,15.229,14.283C67.14,61.412,61.181,67.76,51.663,67.76z M65.319,161.811H38.007V79.036h27.312V161.811z
			 M163.559,161.811H136.33v-44.269c0-11.109-3.973-18.71-13.822-18.71c-7.532,0-12,5.095-13.987,10.023
			c-0.662,1.837-0.911,4.26-0.911,6.766v46.19H80.382c0.331-75.007,0-82.775,0-82.775h27.229v12.028h-0.166
			c3.559-5.68,10.015-13.949,24.746-13.949c17.96,0,31.368,11.861,31.368,37.253V161.811z"/>
	</g>
</g>
</svg>
