<?xml version="1.0" encoding="utf-8"?>
<!-- Generator: Adobe Illustrator 21.0.0, SVG Export Plug-In . SVG Version: 6.00 Build 0)  -->
<svg version="1.1" id="Layer_1" xmlns="http://www.w3.org/2000/svg" xmlns:xlink="http://www.w3.org/1999/xlink" x="0px" y="0px"
	 viewBox="0 0 1592.3 388.3" style="enable-background:new 0 0 1592.3 388.3;" xml:space="preserve">
<style type="text/css">
	.st0{display:none;opacity:0.1;enable-background:new    ;}
	.st1{opacity:0.7;clip-path:url(#SVGID_4_);}
	.st2{fill:none;stroke:#5D7E95;stroke-miterlimit:10;}
</style>
<g id="Grid">
</g>
<g id="_x32_4_Grid_Col" class="st0">
</g>
<g id="Layer_3">
</g>
<g id="Layer_4">
</g>
<g id="Layer_5">
	<g>
		<g>
			<defs>
				<rect id="SVGID_1_" x="-1764.6" y="-519.9" width="1601.2" height="946.8"/>
			</defs>
			<clipPath id="SVGID_2_">
				<use xlink:href="#SVGID_1_"  style="overflow:visible;"/>
			</clipPath>
		</g>
	</g>
	<g>
		<g>
			<defs>
				<rect id="SVGID_3_" x="19" y="-565.9" width="1601.2" height="946.8"/>
			</defs>
			<clipPath id="SVGID_4_">
				<use xlink:href="#SVGID_3_"  style="overflow:visible;"/>
			</clipPath>
			<g class="st1">
				<g>
					<g>
						<g>
							<g>
								<path class="st2" d="M397.6,152.7c0.7,0,1.5-0.3,2-0.7l31.8-26.6l23.1,4.9c1.9,0.4,3.9,0.1,5.7-1c2.3-1.2,3.9-3.4,4.5-5.9
									c0-0.1,0-0.2,0-0.2c0-0.1,0-0.1,0-0.2c0.6-2.6,0-5.2-1.6-7.3c-1.2-1.7-2.9-2.8-4.8-3.2l-23.1-5l-18-37.3
									c-0.4-0.9-1.2-1.5-2.2-1.7l-5.6-1.2c-1.1-0.2-2.3,0.1-3,1c-0.6,0.7-0.9,1.5-0.8,2.4l3.2,30.9L393,98l-8-14.4
									c-0.4-0.8-1.2-1.4-2.1-1.5l-1.9-0.4c-1.1-0.2-2.2,0.1-2.9,0.9c-0.6,0.6-0.9,1.4-0.9,2.3l0.5,19.6l-1,2.2l-7.5,15.5
									c-0.4,0.9-0.4,1.9,0,2.8c0.4,0.9,1.2,1.5,2.2,1.7l1.9,0.4c0.9,0.2,1.8,0,2.5-0.6l13.3-9.9l15.8,3.4l-15.6,26.9
									c-0.5,0.9-0.6,1.9-0.2,2.9c0.4,0.9,1.2,1.6,2.2,1.8l5.7,1.2C397.2,152.7,397.4,152.7,397.6,152.7z M431.3,121.5
									c-0.7,0-1.5,0.3-2,0.7l-31.8,26.6l-4.5-0.9l15.6-26.9c0.5-0.9,0.6-1.9,0.2-2.9c-0.4-0.9-1.2-1.6-2.2-1.8l-17-3.6
									c-0.9-0.2-1.8,0-2.5,0.6l-13.3,9.9L373,123l8.3-17.1c0.2-0.4,0.3-0.9,0.3-1.4l-0.5-19l0.8,0.2l8,14.4
									c0.4,0.8,1.2,1.4,2.1,1.6l16.9,3.7c1.1,0.2,2.3-0.1,3-1c0.6-0.7,0.9-1.5,0.8-2.4l-3.2-30.9l4.5,1l18.1,37.3
									c0.4,0.9,1.2,1.5,2.2,1.7l23.4,5.1c1.3,0.3,2.1,1.1,2.5,1.7l0.1,0.1c0.9,1.2,1.3,2.7,0.9,4.1l-0.1,0.2c0,0.1,0,0.2,0,0.3
									c-0.3,1.4-1.2,2.7-2.6,3.4l-0.1,0c-1,0.6-2,0.8-3,0.5l-23.4-5C431.7,121.6,431.5,121.5,431.3,121.5z"/>
							</g>
							<path class="st2" d="M115,126.8l0.4,0.9c0.3,0.6,1,1,1.6,0.7c4.5-1.8,9-3.5,13.6-5.1c0.7-0.2,1-0.9,0.8-1.6l-0.3-0.9
								c-0.2-0.7-1-1-1.6-0.8c-4.6,1.6-9.2,3.4-13.7,5.1C115,125.5,114.7,126.2,115,126.8z"/>
							<path class="st2" d="M83.6,140.8l0.4,0.9c0.3,0.6,1.1,0.9,1.7,0.6c4.3-2.1,8.8-4.2,13.2-6.2c0.6-0.3,0.9-1,0.6-1.7l-0.4-0.9
								c-0.3-0.6-1-0.9-1.7-0.6c-4.5,2-8.9,4.1-13.3,6.2C83.6,139.4,83.3,140.1,83.6,140.8z"/>
							<path class="st2" d="M53.6,157.2l0.5,0.8c0.4,0.6,1.1,0.8,1.7,0.4c4.1-2.5,8.4-4.9,12.6-7.2c0.6-0.3,0.8-1.1,0.5-1.7
								l-0.5-0.8c-0.3-0.6-1.1-0.8-1.7-0.5c-4.3,2.4-8.6,4.8-12.7,7.3C53.4,155.8,53.2,156.6,53.6,157.2z"/>
							<path class="st2" d="M-1.9,197.4l0.6,0.7c0.5,0.5,1.2,0.6,1.8,0.1c3.7-3.2,7.4-6.3,11.2-9.3c0.5-0.4,0.6-1.2,0.2-1.8
								l-0.6-0.8c-0.4-0.5-1.2-0.6-1.8-0.2c-3.8,3-7.6,6.2-11.3,9.3C-2.3,196-2.4,196.8-1.9,197.4z"/>
							<path class="st2" d="M25,176.1l0.6,0.8c0.4,0.6,1.2,0.7,1.7,0.3c3.9-2.8,7.9-5.6,12-8.3c0.6-0.4,0.7-1.2,0.4-1.7l-0.5-0.8
								c-0.4-0.6-1.2-0.7-1.7-0.4c-4.1,2.7-8.1,5.5-12.1,8.3C24.7,174.7,24.6,175.5,25,176.1z"/>
							<path class="st2" d="M249.5,98.1c4.8-0.4,9.7-0.7,14.5-1c0.7,0,1.2-0.6,1.2-1.3l-0.1-1c0-0.7-0.6-1.2-1.3-1.2
								c-4.9,0.3-9.8,0.6-14.6,1c-0.7,0.1-1.2,0.7-1.1,1.4l0.1,1C248.2,97.7,248.8,98.2,249.5,98.1z"/>
							<path class="st2" d="M317.8,97c4.9,0.2,9.8,0.6,14.5,0.9c0.7,0.1,1.3-0.5,1.3-1.1l0.1-1c0.1-0.7-0.5-1.3-1.1-1.4
								c-4.8-0.4-9.7-0.7-14.6-0.9c-0.7,0-1.3,0.5-1.3,1.2l0,1C316.5,96.3,317.1,96.9,317.8,97z"/>
							<path class="st2" d="M283.6,96.4c4.8-0.1,9.7-0.1,14.6,0c0.7,0,1.3-0.5,1.3-1.2l0-1c0-0.7-0.5-1.3-1.2-1.3
								c-4.9-0.1-9.8,0-14.7,0.1c-0.7,0-1.2,0.6-1.2,1.3l0,1C282.4,95.9,282.9,96.4,283.6,96.4z"/>
							<path class="st2" d="M366.8,98.7c-2.2-0.4-7.2-1.3-14.6-2.2c-0.7-0.1-1.3,0.4-1.4,1.1l-0.1,0.9c-0.1,0.7,0.4,1.3,1.1,1.4
								c7.3,0.9,12.2,1.8,14.4,2.2c0.7,0.1,1.3-0.3,1.5-1l0.2-0.9C367.9,99.5,367.5,98.8,366.8,98.7z"/>
							<path class="st2" d="M215.6,102.1c4.8-0.7,9.6-1.4,14.4-2c0.7-0.1,1.2-0.7,1.1-1.4l-0.1-1c-0.1-0.7-0.7-1.2-1.4-1.1
								c-5.3,0.6-9.9,1.3-14.5,2c-0.7,0.1-1.2,0.8-1.1,1.4l0.1,0.9C214.3,101.8,214.9,102.2,215.6,102.1z"/>
							<path class="st2" d="M180.4,106.6l0.2,0.9c0.2,0.7,0.8,1.1,1.5,0.9c4.7-1.1,9.5-2.1,14.3-3c0.7-0.1,1.1-0.8,1-1.5l-0.2-0.9
								c-0.1-0.7-0.8-1.1-1.5-1c-4.8,0.9-9.6,1.9-14.4,3C180.7,105.2,180.2,105.9,180.4,106.6z"/>
							<path class="st2" d="M147.3,115.5l0.3,0.9c0.2,0.7,0.9,1,1.6,0.8c4.6-1.4,9.3-2.8,14-4c0.7-0.2,1.1-0.9,0.9-1.5l-0.2-0.9
								c-0.2-0.7-0.9-1.1-1.5-0.9c-4.7,1.3-9.5,2.6-14.1,4.1C147.5,114.1,147.1,114.8,147.3,115.5z"/>
						</g>
						<path class="st2" d="M431.3,121.5c-0.7,0-1.5,0.3-2,0.7l-31.8,26.6l-4.5-0.9l15.6-26.9c0.5-0.9,0.6-1.9,0.2-2.9
							c-0.4-0.9-1.2-1.6-2.2-1.8l-17-3.6c-0.9-0.2-1.8,0-2.5,0.6l-13.3,9.9L373,123l8.3-17.1c0.2-0.4,0.3-0.9,0.3-1.4l-0.5-19
							l0.8,0.2l8,14.4c0.4,0.8,1.2,1.4,2.1,1.6l16.9,3.7c1.1,0.2,2.3-0.1,3-1c0.6-0.7,0.9-1.5,0.8-2.4l-3.2-30.9l4.5,1l18.1,37.3
							c0.4,0.9,1.2,1.5,2.2,1.7l23.4,5.1c1.3,0.3,2.1,1.1,2.5,1.7l0.1,0.1c0.9,1.2,1.3,2.7,0.9,4.1l-0.1,0.2c0,0.1,0,0.2,0,0.3
							c-0.3,1.4-1.2,2.7-2.6,3.4l-0.1,0c-1,0.6-2,0.8-3,0.5l-23.4-5C431.7,121.6,431.5,121.5,431.3,121.5z"/>
					</g>
					<path class="st2" d="M1548.5,267.7c14,0,25.4-11.4,25.4-25.4s-11.4-25.4-25.4-25.4c-0.2,0-0.4,0-0.7,0.1
						c-0.3,0-0.5,0.1-0.8,0.1l-1.6,0.1l-0.5-1.6c-3.6-10.2-13.1-17.1-23.9-17.1c-1.3,0-2.7,0.1-4.5,0.5l-1.5,0.3l-0.8-1.3
						c-6.2-10.9-17.7-17.7-30-17.7c-19.1,0-34.6,15.5-34.6,34.6c0,0.1,0,0.3,0.1,0.6c0,0.3,0.1,0.6,0.1,1l0.1,1.6l-1.5,0.5
						c-10.2,3.6-17.1,13.2-17.1,23.9c0,14,11.4,25.4,25.4,25.4L1548.5,267.7L1548.5,267.7z M1548.9,221.8
						c11.1,0.2,20.2,9.4,20.2,20.5c0,11.3-9.2,20.5-20.5,20.5h-91.8c-11.3,0-20.5-9.2-20.5-20.5c0-8.6,5.5-16.4,13.8-19.3l4.9-1.7
						l-0.2-5.2c0-0.4-0.1-0.9-0.1-1.5l0-0.1l0-0.1c0.2-16.2,13.5-29.3,29.7-29.3c10.6,0,20.5,5.8,25.8,15.3l2.4,4.4l4.9-0.9
						c1.5-0.3,2.6-0.4,3.6-0.4c8.6,0,16.4,5.6,19.3,13.8l1.8,5l5.3-0.4c0.4,0,0.7-0.1,1.2-0.1l0.2,0L1548.9,221.8z"/>
					<path class="st2" d="M815.7,108.3h-9.4c-0.5-7.1-3.3-13.6-7.8-18.7l6.7-6.7c0.9-0.9,0.9-2.3,0-3.2s-2.3-0.9-3.2,0l-6.7,6.7
						c-5.1-4.4-11.6-7.3-18.7-7.8v-9.4c0-1.3-1-2.3-2.3-2.3c-1.3,0-2.3,1-2.3,2.3v9.4c-7.1,0.5-13.6,3.3-18.7,7.8l-6.7-6.7
						c-0.9-0.9-2.3-0.9-3.2,0c-0.9,0.9-0.9,2.3,0,3.2l6.7,6.7c-4.4,5.1-7.3,11.6-7.8,18.7h-9.4c-1.3,0-2.3,1-2.3,2.3
						c0,1.3,1,2.3,2.3,2.3h9.4c0.5,7.1,3.3,13.6,7.8,18.7l-6.7,6.7c-0.9,0.9-0.9,2.3,0,3.2c0.4,0.4,1,0.7,1.6,0.7
						c0.6,0,1.2-0.2,1.6-0.7l6.7-6.7c5.1,4.4,11.6,7.3,18.7,7.8v9.4c0,1.3,1,2.3,2.3,2.3s2.3-1,2.3-2.3v-9.4
						c7.1-0.5,13.6-3.3,18.7-7.8l6.7,6.7c0.4,0.4,1,0.7,1.6,0.7s1.2-0.2,1.6-0.7c0.9-0.9,0.9-2.3,0-3.2l-6.7-6.7
						c4.4-5.1,7.3-11.6,7.8-18.7h9.4c1.3,0,2.3-1,2.3-2.3C818,109.3,817,108.3,815.7,108.3z M774.3,138.1
						c-15.2,0-27.5-12.3-27.5-27.5S759.1,83,774.3,83c15.2,0,27.5,12.3,27.5,27.5C801.8,125.7,789.5,138.1,774.3,138.1z"/>
					<g>
						<g>
							<path class="st2" d="M1088.7,171.1c-0.7,0-1.5-0.3-2-0.7l-31.8-26.6l-23.1,4.9c-1.9,0.4-3.9,0.1-5.7-1
								c-2.3-1.2-3.9-3.4-4.5-5.9c0-0.1,0-0.2,0-0.2c0-0.1,0-0.1,0-0.2c-0.6-2.6,0-5.2,1.6-7.3c1.2-1.7,2.9-2.8,4.8-3.2l23.1-5
								l18.1-37.3c0.4-0.9,1.2-1.5,2.2-1.7l5.6-1.2c1.1-0.2,2.3,0.1,3,1c0.6,0.7,0.9,1.5,0.8,2.4l-3.2,30.9l15.8-3.4l8-14.4
								c0.4-0.8,1.2-1.4,2.1-1.6l1.9-0.4c1.1-0.2,2.2,0.1,2.9,0.9c0.6,0.6,0.9,1.4,0.9,2.3l-0.5,19.6l1,2.2l7.5,15.5
								c0.4,0.9,0.4,1.9,0,2.8c-0.4,0.9-1.2,1.5-2.2,1.7l-1.9,0.4c-0.9,0.2-1.8,0-2.5-0.6l-13.3-9.9l-15.8,3.4l15.6,26.9
								c0.5,0.9,0.6,1.9,0.2,2.9s-1.2,1.6-2.2,1.8l-5.7,1.2C1089.1,171.1,1088.9,171.1,1088.7,171.1z M1055,139.9
								c0.7,0,1.5,0.3,2,0.7l31.8,26.6l4.5-0.9l-15.6-26.9c-0.5-0.9-0.6-1.9-0.2-2.9c0.4-0.9,1.2-1.6,2.2-1.8l17-3.6
								c0.9-0.2,1.8,0,2.5,0.6l13.3,9.9l0.8-0.2l-8.3-17.1c-0.2-0.4-0.3-0.9-0.3-1.4l0.5-19l-0.8,0.2l-8,14.4
								c-0.4,0.8-1.2,1.4-2.1,1.6l-16.9,3.7c-1.1,0.2-2.3-0.1-3-1c-0.6-0.7-0.9-1.5-0.8-2.4l3.2-30.9l-4.5,1l-18.1,37.3
								c-0.4,0.9-1.2,1.5-2.2,1.7l-23.4,5.1c-1.3,0.3-2.1,1.1-2.5,1.7l-0.1,0.1c-0.9,1.2-1.3,2.7-0.9,4.1l0.1,0.2c0,0.1,0,0.2,0,0.3
								c0.3,1.4,1.2,2.7,2.6,3.4l0.1,0c1,0.6,2,0.8,3,0.5l23.4-5C1054.6,140,1054.8,139.9,1055,139.9z"/>
						</g>
						<path class="st2" d="M1371.4,145.3l-0.4,0.9c-0.3,0.6-1,1-1.6,0.7c-4.5-1.8-9-3.5-13.6-5.1c-0.7-0.2-1-0.9-0.8-1.6l0.3-0.9
							c0.2-0.7,1-1,1.6-0.8c4.6,1.6,9.2,3.4,13.7,5.1C1371.3,143.9,1371.6,144.6,1371.4,145.3z"/>
						<path class="st2" d="M1402.7,159.2l-0.4,0.9c-0.3,0.6-1.1,0.9-1.7,0.6c-4.3-2.1-8.8-4.2-13.2-6.2c-0.6-0.3-0.9-1-0.6-1.7
							l0.4-0.9c0.3-0.6,1-0.9,1.7-0.6c4.5,2,8.9,4.1,13.3,6.2C1402.7,157.8,1403,158.5,1402.7,159.2z"/>
						<path class="st2" d="M1432.8,175.6l-0.5,0.8c-0.4,0.6-1.1,0.8-1.7,0.4c-4.1-2.5-8.4-4.9-12.6-7.2c-0.6-0.3-0.8-1.1-0.5-1.7
							l0.5-0.8c0.3-0.6,1.1-0.8,1.7-0.5c4.3,2.4,8.6,4.8,12.7,7.3C1432.9,174.2,1433.1,175,1432.8,175.6z"/>
						<path class="st2" d="M1461.4,194.5l-0.6,0.8c-0.4,0.6-1.2,0.7-1.7,0.3c-3.9-2.8-7.9-5.6-12-8.3c-0.6-0.4-0.7-1.2-0.4-1.7
							l0.5-0.8c0.4-0.6,1.2-0.7,1.7-0.4c4.1,2.7,8.1,5.5,12.1,8.3C1461.6,193.2,1461.8,193.9,1461.4,194.5z"/>
						<path class="st2" d="M1236.8,116.5c-4.8-0.4-9.7-0.7-14.5-1c-0.7,0-1.2-0.6-1.2-1.3l0.1-1c0-0.7,0.6-1.2,1.3-1.2
							c4.9,0.3,9.8,0.6,14.6,1c0.7,0.1,1.2,0.7,1.1,1.4l-0.1,1C1238.1,116.1,1237.5,116.6,1236.8,116.5z"/>
						<path class="st2" d="M1168.6,115.4c-4.9,0.2-9.8,0.6-14.5,0.9c-0.7,0.1-1.3-0.5-1.3-1.1l-0.1-1c-0.1-0.7,0.5-1.3,1.1-1.4
							c4.8-0.4,9.7-0.7,14.6-0.9c0.7,0,1.3,0.5,1.3,1.2l0,1C1169.8,114.8,1169.3,115.3,1168.6,115.4z"/>
						<path class="st2" d="M1202.7,114.8c-4.8-0.1-9.7-0.1-14.6,0c-0.7,0-1.3-0.5-1.3-1.2l0-1c0-0.7,0.5-1.3,1.2-1.3
							c4.9-0.1,9.8,0,14.7,0.1c0.7,0,1.2,0.6,1.2,1.3l0,1C1204,114.3,1203.4,114.8,1202.7,114.8z"/>
						<path class="st2" d="M1119.6,117.1c2.2-0.4,7.2-1.3,14.6-2.2c0.7-0.1,1.3,0.4,1.4,1.1l0.1,0.9c0.1,0.7-0.4,1.3-1.1,1.4
							c-7.3,0.9-12.2,1.8-14.4,2.2c-0.7,0.1-1.3-0.3-1.5-1l-0.2-0.9C1118.4,117.9,1118.9,117.2,1119.6,117.1z"/>
						<path class="st2" d="M1270.7,120.5c-4.8-0.7-9.6-1.4-14.4-2c-0.7-0.1-1.2-0.7-1.1-1.4l0.1-1c0.1-0.7,0.7-1.2,1.4-1.1
							c4.8,0.6,9.7,1.3,14.5,2c0.7,0.1,1.2,0.8,1.1,1.4l-0.1,0.9C1272,120.2,1271.4,120.6,1270.7,120.5z"/>
						<path class="st2" d="M1305.9,125l-0.2,0.9c-0.2,0.7-0.8,1.1-1.5,0.9c-4.7-1.1-9.5-2.1-14.3-3c-0.7-0.1-1.1-0.8-1-1.5l0.2-0.9
							c0.1-0.7,0.8-1.1,1.5-1c4.8,0.9,9.6,1.9,14.4,3C1305.7,123.6,1306.1,124.3,1305.9,125z"/>
						<path class="st2" d="M1339,133.9l-0.3,0.9c-0.2,0.7-0.9,1-1.6,0.8c-5.4-1.7-10.6-3.2-14-4c-0.7-0.2-1.1-0.9-0.9-1.5l0.2-0.9
							c0.2-0.7,0.9-1.1,1.5-0.9c4.7,1.3,9.5,2.6,14.1,4.1C1338.9,132.5,1339.2,133.2,1339,133.9z"/>
					</g>
					<g>
						<path class="st2" d="M28,236c14,0,25.4-11.4,25.4-25.4S42,185.2,28,185.2c-0.2,0-0.4,0-0.7,0.1c-0.3,0-0.5,0.1-0.8,0.1
							l-1.6,0.1l-0.5-1.6c-3.6-10.2-13.1-17.1-23.9-17.1c-1.3,0-2.7,0.1-4.5,0.5l-1.5,0.3l-0.8-1.3c-6.2-10.9-17.7-17.7-30-17.7
							c-19.1,0-34.6,15.5-34.6,34.6c0,0.1,0,0.3,0.1,0.6c0,0.3,0.1,0.6,0.1,1l0.1,1.6l-1.5,0.5c-10.2,3.6-17.1,13.2-17.1,23.9
							c0,14,11.4,25.4,25.4,25.4H28z M28.3,190.1c11.1,0.2,20.2,9.4,20.2,20.5c0,11.3-9.2,20.5-20.5,20.5h-91.8
							c-11.3,0-20.5-9.2-20.5-20.5c0-8.6,5.5-16.4,13.8-19.3l4.9-1.7l-0.2-5.2c0-0.4-0.1-0.9-0.1-1.5l0-0.1l0-0.1
							c0.2-16.2,13.5-29.3,29.7-29.3c10.6,0,20.5,5.8,25.8,15.3l2.4,4.4l4.9-0.9c1.5-0.3,2.6-0.4,3.6-0.4c8.6,0,16.4,5.6,19.3,13.8
							l1.8,5l5.3-0.4c0.4,0,0.7-0.1,1.2-0.1l0.2,0L28.3,190.1z"/>
						<path class="st2" d="M28.3,190.1c11.1,0.2,20.2,9.4,20.2,20.5c0,11.3-9.2,20.5-20.5,20.5h-91.8c-11.3,0-20.5-9.2-20.5-20.5
							c0-8.6,5.5-16.4,13.8-19.3l4.9-1.7l-0.2-5.2c0-0.4-0.1-0.9-0.1-1.5l0-0.1l0-0.1c0.2-16.2,13.5-29.3,29.7-29.3
							c10.6,0,20.5,5.8,25.8,15.3l2.4,4.4l4.9-0.9c1.5-0.3,2.6-0.4,3.6-0.4c8.6,0,16.4,5.6,19.3,13.8l1.8,5l5.3-0.4
							c0.4,0,0.7-0.1,1.2-0.1l0.2,0L28.3,190.1z"/>
					</g>
					<g>
						<path class="st2" d="M468.4,229.2c-14,0-25.4-11.4-25.4-25.4c0-14,11.4-25.4,25.4-25.4c0.2,0,0.4,0,0.7,0.1
							c0.3,0,0.5,0.1,0.8,0.1l1.6,0.1l0.5-1.6c3.6-10.2,13.1-17.1,23.9-17.1c1.3,0,2.7,0.1,4.5,0.5l1.5,0.3l0.7-1.3
							c6.2-10.9,17.7-17.7,30-17.7c19.1,0,34.6,15.5,34.6,34.6c0,0.1,0,0.3-0.1,0.6c0,0.3-0.1,0.6-0.1,1l-0.1,1.6l1.5,0.5
							c10.2,3.6,17.1,13.2,17.1,23.9c0,14-11.4,25.4-25.4,25.4L468.4,229.2L468.4,229.2z M468.1,183.3c-11.1,0.2-20.2,9.4-20.2,20.5
							c0,11.3,9.2,20.5,20.5,20.5h91.8c11.3,0,20.5-9.2,20.5-20.5c0-8.6-5.5-16.4-13.8-19.3l-4.9-1.7l0.2-5.2c0-0.4,0.1-0.9,0.1-1.5
							l0-0.1l0-0.1c-0.2-16.2-13.5-29.3-29.7-29.3c-10.6,0-20.5,5.8-25.8,15.3l-2.4,4.4l-4.9-0.9c-1.5-0.3-2.6-0.4-3.6-0.4
							c-8.6,0-16.4,5.6-19.3,13.8l-1.8,5l-5.3-0.4c-0.4,0-0.7-0.1-1.2-0.1l-0.2,0L468.1,183.3z"/>
						<path class="st2" d="M468.1,183.3c-11.1,0.2-20.2,9.4-20.2,20.5c0,11.3,9.2,20.5,20.5,20.5h91.8c11.3,0,20.5-9.2,20.5-20.5
							c0-8.6-5.5-16.4-13.8-19.3l-4.9-1.7l0.2-5.2c0-0.4,0.1-0.9,0.1-1.5l0-0.1l0-0.1c-0.2-16.2-13.5-29.3-29.7-29.3
							c-10.6,0-20.5,5.8-25.8,15.3l-2.4,4.4l-4.9-0.9c-1.5-0.3-2.6-0.4-3.6-0.4c-8.6,0-16.4,5.6-19.3,13.8l-1.8,5l-5.3-0.4
							c-0.4,0-0.7-0.1-1.2-0.1l-0.2,0L468.1,183.3z"/>
					</g>
					<path class="st2" d="M774.3,138.1c-15.2,0-27.5-12.3-27.5-27.5S759.1,83,774.3,83c15.2,0,27.5,12.3,27.5,27.5
						C801.8,125.7,789.5,138.1,774.3,138.1z"/>
					<path class="st2" d="M1055,139.9c0.7,0,1.5,0.3,2,0.7l31.8,26.6l4.5-0.9l-15.6-26.9c-0.5-0.9-0.6-1.9-0.2-2.9
						c0.4-0.9,1.2-1.6,2.2-1.8l17-3.6c0.9-0.2,1.8,0,2.5,0.6l13.3,9.9l0.8-0.2l-8.3-17.1c-0.2-0.4-0.3-0.9-0.3-1.4l0.5-19l-0.8,0.2
						l-8,14.4c-0.4,0.8-1.2,1.4-2.1,1.6l-16.9,3.7c-1.1,0.2-2.3-0.1-3-1c-0.6-0.7-0.9-1.5-0.8-2.4l3.2-30.9l-4.5,1l-18.1,37.3
						c-0.4,0.9-1.2,1.5-2.2,1.7l-23.4,5.1c-1.3,0.3-2.1,1.1-2.5,1.7l-0.1,0.1c-0.9,1.2-1.3,2.7-0.9,4.1l0.1,0.2c0,0.1,0,0.2,0,0.3
						c0.3,1.4,1.2,2.7,2.6,3.4l0.1,0c1,0.6,2,0.8,3,0.5l23.4-5C1054.6,140,1054.8,139.9,1055,139.9z"/>
					<path class="st2" d="M1548.9,221.8c11.1,0.2,20.2,9.4,20.2,20.5c0,11.3-9.2,20.5-20.5,20.5h-91.8c-11.3,0-20.5-9.2-20.5-20.5
						c0-8.6,5.5-16.4,13.8-19.3l4.9-1.7l-0.2-5.2c0-0.4-0.1-0.9-0.1-1.5l0-0.1l0-0.1c0.2-16.2,13.5-29.3,29.7-29.3
						c10.6,0,20.5,5.8,25.8,15.3l2.4,4.4l4.9-0.9c1.5-0.3,2.6-0.4,3.6-0.4c8.6,0,16.4,5.6,19.3,13.8l1.8,5l5.3-0.4
						c0.4,0,0.7-0.1,1.2-0.1l0.2,0L1548.9,221.8z"/>
					<g>
						<g>
							<polygon class="st2" points="1065.5,458 1064.3,457.8 1103.5,223 1103.5,223 1117.5,225.4 1122.8,193.2 1177.1,202.3 
								1171.7,234.4 1184.6,236.6 1184.6,236.6 1168.5,333 1163.2,365.2 1147.7,458 							"/>
							<g>
								<g>
									<path class="st2" d="M1163,399.7c-0.1,0-0.2,0-0.3,0l-90.2-15.1c-0.9-0.1-1.4-1-1.3-1.8c0.1-0.9,0.9-1.4,1.8-1.3l90.2,15.1
										c0.9,0.1,1.4,1,1.3,1.8C1164.4,399.1,1163.7,399.7,1163,399.7z"/>
								</g>
								<g>
									<path class="st2" d="M1099,389c-0.1,0-0.2,0-0.3,0l-14-2.3c-0.9-0.1-1.4-1-1.3-1.8l3.2-19c0.7-4.2,4.3-7.2,8.5-7.2
										c0.5,0,1,0,1.4,0.1l0.1,0c2.3,0.4,4.2,1.6,5.6,3.5c1.3,1.9,1.9,4.1,1.5,6.4l-3.2,19c-0.1,0.4-0.3,0.8-0.6,1
										C1099.7,388.9,1099.4,389,1099,389z M1086.8,383.8l10.9,1.8l2.9-17.5c0.2-1.4-0.1-2.9-0.9-4.1c-0.8-1.2-2.1-2-3.5-2.2
										l-0.1,0c-0.3-0.1-0.6-0.1-0.9-0.1c-2.7,0-4.9,1.9-5.4,4.6L1086.8,383.8z"/>
								</g>
								<g>
									<path class="st2" d="M1124.4,393.2c-0.1,0-0.2,0-0.3,0l-14-2.3c-0.9-0.1-1.4-1-1.3-1.8l3.2-19c0.7-4.2,4.3-7.2,8.5-7.2
										c0.5,0,1,0,1.4,0.1l0.1,0c4.7,0.8,7.8,5.2,7.1,9.9l-3.2,19c-0.1,0.4-0.3,0.8-0.6,1C1125,393.1,1124.7,393.2,1124.4,393.2z
										 M1112.2,388l10.9,1.8l2.9-17.5c0.5-3-1.5-5.8-4.5-6.3l-0.1,0c-0.3,0-0.6-0.1-0.9-0.1c-2.7,0-4.9,1.9-5.4,4.6L1112.2,388z"
										/>
								</g>
								<g>
									<path class="st2" d="M1149.1,397.4c-0.1,0-0.2,0-0.3,0l-14-2.3c-0.9-0.1-1.4-1-1.3-1.8l3.2-19c0.7-4.2,4.3-7.2,8.5-7.2
										c0.5,0,1,0,1.4,0.1l0.1,0c2.3,0.4,4.2,1.6,5.6,3.5c1.3,1.9,1.9,4.1,1.5,6.4l-3.2,19c-0.1,0.4-0.3,0.8-0.6,1
										C1149.8,397.3,1149.5,397.4,1149.1,397.4z M1136.9,392.2l10.9,1.8l2.9-17.5c0.2-1.4-0.1-2.9-0.9-4.1
										c-0.8-1.2-2.1-2-3.5-2.2l-0.1,0c-0.3-0.1-0.6-0.1-0.9-0.1c-2.7,0-4.9,1.9-5.4,4.6L1136.9,392.2z"/>
								</g>
								<g>
									<path class="st2" d="M1168.4,367.5c-0.1,0-0.2,0-0.3,0l-90.2-15.1c-0.9-0.1-1.4-1-1.3-1.8c0.1-0.9,0.9-1.4,1.8-1.3
										l90.2,15.1c0.9,0.1,1.4,1,1.3,1.8C1169.8,367,1169.1,367.5,1168.4,367.5z"/>
								</g>
								<g>
									<path class="st2" d="M1104.4,356.8c-0.1,0-0.2,0-0.3,0l-14-2.3c-0.9-0.1-1.4-1-1.3-1.8l3.2-19c0.7-4.2,4.3-7.2,8.5-7.2
										c0.5,0,1,0,1.4,0.1l0.1,0c2.3,0.4,4.2,1.6,5.6,3.5s1.9,4.1,1.5,6.4l-3.2,19c-0.1,0.4-0.3,0.8-0.6,1
										C1105,356.7,1104.7,356.8,1104.4,356.8z M1092.2,351.7l10.9,1.8l2.9-17.5c0.2-1.4-0.1-2.9-0.9-4.1s-2.1-2-3.5-2.2l-0.1,0
										c-0.3,0-0.6-0.1-0.9-0.1c-2.7,0-4.9,1.9-5.4,4.6L1092.2,351.7z"/>
								</g>
								<g>
									<path class="st2" d="M1129.7,361.1c-0.1,0-0.2,0-0.3,0l-14-2.3c-0.9-0.1-1.4-1-1.3-1.8l3.2-19c0.7-4.2,4.3-7.2,8.5-7.2
										c0.5,0,1,0,1.4,0.1l0.1,0c2.3,0.4,4.2,1.6,5.6,3.5c1.3,1.9,1.9,4.1,1.5,6.4l-3.2,19c-0.1,0.4-0.3,0.8-0.6,1
										C1130.4,361,1130.1,361.1,1129.7,361.1z M1117.5,355.9l10.9,1.8l2.9-17.5c0.2-1.4-0.1-2.9-0.9-4.1c-0.8-1.2-2.1-2-3.5-2.2
										l-0.1,0c-0.3,0-0.6-0.1-0.9-0.1c-2.7,0-4.9,1.9-5.4,4.6L1117.5,355.9z"/>
								</g>
								<g>
									<path class="st2" d="M1154.5,365.2c-0.1,0-0.2,0-0.3,0l-14-2.3c-0.9-0.1-1.4-1-1.3-1.8l3.2-19c0.7-4.2,4.3-7.2,8.5-7.2
										c0.5,0,1,0,1.4,0.1l0.1,0c2.3,0.4,4.2,1.6,5.6,3.5c1.3,1.9,1.9,4.1,1.5,6.4l-3.2,19c-0.1,0.4-0.3,0.8-0.6,1
										C1155.1,365.1,1154.8,365.2,1154.5,365.2z M1142.3,360l10.9,1.8l2.9-17.5c0.2-1.4-0.1-2.9-0.9-4.1c-0.8-1.2-2.1-2-3.5-2.2
										l-0.1,0c-0.3,0-0.6-0.1-0.9-0.1c-2.7,0-4.9,1.9-5.4,4.6L1142.3,360z"/>
								</g>
								<g>
									<path class="st2" d="M1173.7,335.4c-0.1,0-0.2,0-0.3,0l-90.2-15.1c-0.9-0.1-1.4-1-1.3-1.8s0.9-1.4,1.8-1.3l90.2,15.1
										c0.9,0.1,1.4,1,1.3,1.8C1175.1,334.8,1174.5,335.4,1173.7,335.4z"/>
								</g>
								<g>
									<path class="st2" d="M1109.8,324.7c-0.1,0-0.2,0-0.3,0l-14-2.3c-0.4-0.1-0.8-0.3-1-0.6c-0.2-0.3-0.3-0.8-0.3-1.2l3.2-19
										c0.7-4.2,4.3-7.2,8.5-7.2c0.5,0,1,0,1.4,0.1l0.1,0c2.3,0.4,4.2,1.6,5.6,3.5s1.9,4.1,1.5,6.4l-3.2,19
										C1111.2,324.2,1110.5,324.7,1109.8,324.7z M1097.6,319.5l10.9,1.8l2.9-17.5c0.2-1.4-0.1-2.9-0.9-4.1
										c-0.8-1.2-2.1-2-3.5-2.2l-0.1,0c-0.3,0-0.6-0.1-0.9-0.1c-2.7,0-4.9,1.9-5.4,4.6L1097.6,319.5z"/>
								</g>
								<g>
									<path class="st2" d="M1135.1,328.9c-0.1,0-0.2,0-0.3,0l-14-2.3c-0.9-0.1-1.4-1-1.3-1.8l3.2-19c0.7-4.2,4.3-7.2,8.5-7.2
										c0.5,0,1,0,1.4,0.1l0.1,0c2.3,0.4,4.2,1.6,5.6,3.5s1.9,4.1,1.5,6.4l-3.2,19c-0.1,0.4-0.3,0.8-0.6,1
										C1135.7,328.8,1135.4,328.9,1135.1,328.9z M1122.9,323.7l10.9,1.8l2.9-17.5c0.2-1.4-0.1-2.9-0.9-4.1
										c-0.8-1.2-2.1-2-3.5-2.2l-0.1,0c-0.3,0-0.6-0.1-0.9-0.1c-2.7,0-4.9,1.9-5.4,4.6L1122.9,323.7z"/>
								</g>
								<g>
									<path class="st2" d="M1159.9,333.1c-0.1,0-0.2,0-0.3,0l-14-2.3c-0.4-0.1-0.8-0.3-1-0.6s-0.3-0.8-0.3-1.2l3.2-19
										c0.7-4.2,4.3-7.2,8.5-7.2c0.5,0,1,0,1.4,0.1l0.1,0c2.3,0.4,4.2,1.6,5.6,3.5c1.3,1.9,1.9,4.1,1.5,6.4l-3.2,19
										C1161.3,332.5,1160.6,333.1,1159.9,333.1z M1147.6,327.9l10.9,1.8l2.9-17.5c0.2-1.4-0.1-2.9-0.9-4.1
										c-0.8-1.2-2.1-2-3.5-2.2l-0.1,0c-0.3,0-0.6-0.1-0.9-0.1c-2.7,0-4.9,1.9-5.4,4.6L1147.6,327.9z"/>
								</g>
								<g>
									<path class="st2" d="M1179.1,303.2c-0.1,0-0.2,0-0.3,0l-90.2-15.1c-0.9-0.1-1.4-1-1.3-1.8c0.1-0.9,0.9-1.4,1.8-1.3
										l90.2,15.1c0.9,0.1,1.4,1,1.3,1.8C1180.5,302.7,1179.8,303.2,1179.1,303.2z"/>
								</g>
								<g>
									<path class="st2" d="M1115.1,292.6c-0.1,0-0.2,0-0.3,0l-14-2.3c-0.4-0.1-0.8-0.3-1-0.6c-0.2-0.3-0.3-0.8-0.3-1.2l3.2-19
										c0.7-4.2,4.3-7.2,8.5-7.2c0.5,0,1,0,1.4,0.1l0.1,0c4.7,0.8,7.8,5.2,7.1,9.9l-3.2,19C1116.6,292,1115.9,292.6,1115.1,292.6z
										 M1102.9,287.4l10.9,1.8l2.9-17.5c0.5-3-1.5-5.8-4.5-6.3l-0.1,0c-0.3,0-0.6-0.1-0.9-0.1c-2.7,0-4.9,1.9-5.4,4.6
										L1102.9,287.4z"/>
								</g>
								<g>
									<path class="st2" d="M1140.5,296.8c-0.1,0-0.2,0-0.3,0l-14-2.3c-0.4-0.1-0.8-0.3-1-0.6s-0.3-0.8-0.3-1.2l3.2-19
										c0.7-4.2,4.3-7.2,8.5-7.2c0.5,0,1,0,1.4,0.1l0.1,0c2.3,0.4,4.2,1.6,5.6,3.5c1.3,1.9,1.9,4.1,1.5,6.4l-3.2,19
										C1141.9,296.3,1141.2,296.8,1140.5,296.8z M1128.3,291.6l10.9,1.8l2.9-17.5c0.2-1.4-0.1-2.9-0.9-4.1
										c-0.8-1.2-2.1-2-3.5-2.2l-0.1,0c-0.3,0-0.6-0.1-0.9-0.1c-2.7,0-4.9,1.9-5.4,4.6L1128.3,291.6z"/>
								</g>
								<g>
									<path class="st2" d="M1165.2,300.9c-0.1,0-0.2,0-0.3,0l-14-2.3c-0.4-0.1-0.8-0.3-1-0.6c-0.2-0.3-0.3-0.8-0.3-1.2l3.2-19
										c0.7-4.2,4.3-7.2,8.5-7.2c0.5,0,1,0,1.4,0.1l0.1,0c2.3,0.4,4.2,1.6,5.6,3.5c1.3,1.9,1.9,4.1,1.5,6.4l-3.2,19
										C1166.6,300.4,1166,300.9,1165.2,300.9z M1153,295.7l10.9,1.8l2.9-17.5c0.2-1.4-0.1-2.9-0.9-4.1c-0.8-1.2-2.1-2-3.5-2.2
										l-0.1,0c-0.3,0-0.6-0.1-0.9-0.1c-2.7,0-4.9,1.9-5.4,4.6L1153,295.7z"/>
								</g>
								<g>
									<path class="st2" d="M1184.4,271.1c-0.1,0-0.2,0-0.3,0l-90.2-15.1c-0.9-0.1-1.4-0.9-1.3-1.8c0.1-0.9,0.9-1.4,1.8-1.3
										l90.2,15.1c0.9,0.1,1.4,1,1.3,1.8C1185.9,270.6,1185.2,271.1,1184.4,271.1z"/>
								</g>
								<g>
									<path class="st2" d="M1120.5,260.4c-0.1,0-0.2,0-0.3,0l-14-2.3c-0.9-0.1-1.4-1-1.3-1.8l3.2-19c0.7-4.2,4.3-7.2,8.5-7.2
										c0.5,0,1,0,1.4,0.1l0.1,0c4.7,0.8,7.8,5.2,7.1,9.9l-3.2,19c-0.1,0.4-0.3,0.8-0.6,1C1121.1,260.3,1120.8,260.4,1120.5,260.4
										z M1108.3,255.2l10.9,1.8l2.9-17.5c0.5-3-1.5-5.8-4.5-6.3l-0.1,0c-0.3-0.1-0.6-0.1-0.9-0.1c-2.7,0-4.9,1.9-5.4,4.6
										L1108.3,255.2z"/>
								</g>
								<g>
									<path class="st2" d="M1145.8,264.7c-0.1,0-0.2,0-0.3,0l-14-2.3c-0.4-0.1-0.8-0.3-1-0.6s-0.3-0.8-0.3-1.2l3.2-19
										c0.7-4.2,4.3-7.2,8.5-7.2c0.5,0,1,0,1.4,0.1l0.1,0c2.3,0.4,4.2,1.6,5.6,3.5c1.3,1.9,1.9,4.1,1.5,6.4l-3.2,19
										C1147.2,264.1,1146.6,264.7,1145.8,264.7z M1133.6,259.5l10.9,1.8l2.9-17.5c0.2-1.4-0.1-2.9-0.9-4.1
										c-0.8-1.2-2.1-2-3.5-2.2l-0.1,0c-0.3-0.1-0.6-0.1-0.9-0.1c-2.7,0-4.9,1.9-5.4,4.6L1133.6,259.5z"/>
								</g>
								<g>
									<path class="st2" d="M1170.6,268.8c-0.1,0-0.2,0-0.3,0l-14-2.3c-0.4-0.1-0.8-0.3-1-0.6c-0.2-0.3-0.3-0.8-0.3-1.2l3.2-19
										c0.7-4.2,4.3-7.2,8.5-7.2c0.5,0,1,0,1.4,0.1l0.1,0c2.3,0.4,4.2,1.6,5.6,3.5c1.3,1.9,1.9,4.1,1.5,6.4l-3.2,19
										C1172,268.2,1171.3,268.8,1170.6,268.8z M1158.4,263.6l10.9,1.8l2.9-17.5c0.2-1.4-0.1-2.9-0.9-4.1c-0.8-1.2-2.1-2-3.5-2.2
										l-0.1,0c-0.3-0.1-0.6-0.1-0.9-0.1c-2.7,0-4.9,1.9-5.4,4.6L1158.4,263.6z"/>
								</g>
								<g>
									<path class="st2" d="M1189.8,239c-0.1,0-0.2,0-0.3,0l-90.2-15.1c-0.9-0.1-1.4-0.9-1.3-1.8c0.1-0.9,0.9-1.4,1.8-1.3
										l90.2,15.1c0.9,0.1,1.4,0.9,1.3,1.8C1191.2,238.4,1190.6,239,1189.8,239z"/>
								</g>
								<g>
									<path class="st2" d="M1139.4,230.5c-0.1,0-0.2,0-0.3,0l-14-2.3c-0.9-0.1-1.4-0.9-1.3-1.8l3.2-19c0.7-4.2,4.3-7.2,8.5-7.2
										c0.5,0,1,0,1.4,0.1l0.1,0c2.3,0.4,4.2,1.6,5.6,3.5c1.3,1.9,1.9,4.1,1.5,6.4l-3.2,19c-0.1,0.4-0.3,0.8-0.6,1
										C1140.1,230.4,1139.8,230.5,1139.4,230.5z M1127.2,225.4l10.9,1.8l2.9-17.5c0.2-1.4-0.1-2.9-0.9-4.1s-2.1-2-3.5-2.2l-0.1,0
										c-0.3-0.1-0.6-0.1-0.9-0.1c-2.7,0-4.9,1.9-5.4,4.6L1127.2,225.4z"/>
								</g>
								<g>
									<path class="st2" d="M1164.8,234.8c-0.1,0-0.2,0-0.3,0l-14-2.3c-0.4-0.1-0.8-0.3-1-0.6c-0.2-0.3-0.3-0.8-0.3-1.2l3.2-19
										c0.7-4.2,4.3-7.2,8.5-7.2c0.5,0,1,0,1.4,0.1l0.1,0c4.7,0.8,7.8,5.2,7.1,9.9l-3.2,19
										C1166.2,234.2,1165.5,234.8,1164.8,234.8z M1152.6,229.6l10.9,1.8l2.9-17.5c0.5-3-1.5-5.8-4.5-6.3l-0.1,0
										c-0.3-0.1-0.6-0.1-0.9-0.1c-2.7,0-4.9,1.9-5.4,4.6L1152.6,229.6z"/>
								</g>
								<g>
									<path class="st2" d="M1179.9,204.3c-0.1,0-0.2,0-0.3,0l-60-10c-0.9-0.1-1.4-0.9-1.3-1.8s1-1.4,1.8-1.3l60,10
										c0.9,0.1,1.4,0.9,1.3,1.8C1181.3,203.7,1180.6,204.3,1179.9,204.3z"/>
								</g>
								<g>
									<path class="st2" d="M1171.9,235.7c-0.1,0-0.2,0-0.3,0l-54.3-9.1c-0.9-0.1-1.4-0.9-1.3-1.8l5.3-31.9c0.1-0.4,0.3-0.8,0.6-1
										c0.3-0.2,0.8-0.3,1.2-0.3l54.3,9.1c0.4,0.1,0.8,0.3,1,0.6c0.2,0.3,0.3,0.8,0.3,1.2l-5.3,31.9
										C1173.3,235.1,1172.6,235.7,1171.9,235.7z M1119.4,223.8l51.2,8.5l4.8-28.8l-51.2-8.5L1119.4,223.8z"/>
								</g>
								<g>
									<path class="st2" d="M1147.8,459.6h-82.3c-0.1,0-0.2,0-0.3,0l-1.2-0.2c-0.4-0.1-0.8-0.3-1-0.6s-0.3-0.8-0.3-1.2l39.2-234.9
										c0.1-0.4,0.3-0.8,0.6-1c0.3-0.2,0.8-0.3,1.2-0.3l81.2,13.6c0.4,0.1,0.8,0.3,1,0.6c0.2,0.3,0.3,0.8,0.3,1.2l-37,221.5
										C1149.2,459,1148.6,459.6,1147.8,459.6z M1066.2,456.5h80.3l36.5-218.6l-78.1-13L1066.2,456.5z"/>
								</g>
							</g>
						</g>
					</g>
					<g>
						<path class="st2" d="M1163.9,454.7l1.8-36.8l7.8-19l0.6-6.6l-6.5-3.8l-3.8-0.1l-0.3-11.6l1.7-3.7l0.7-1.5l-4.8-1.9
							c-0.8-0.3-1.3-1.1-1.2-2l0-0.1c0.1-0.7,0.5-1.3,1.1-1.6l11.6-5.2l5.9-6l0.1-2.4c0.1-2.3,1.1-4.5,2.8-6
							c3.6-3.4,5.2-4.1,5.8-4.2c0.1,0,0.3,0,0.6,0c1.3,0,4.4,0.2,7.6,0.5l0.4,0l14.3-6.4l7.3-7.4l0.1-3c0.1-2.9,1.3-5.6,3.4-7.5
							c4.5-4.2,6.4-5.2,7.2-5.2c0.2,0,0.4,0,0.7,0c2.8,0,12.5,0.7,16.7,1.7l0.5,0.1l13.2-5.9l9-9.1l0.1-3.6c0.1-3.5,1.6-6.8,4.2-9.2
							c5.5-5.2,7.9-6.3,8.8-6.4c0.2,0,0.5,0,0.9,0c2.3,0,7.4,0.3,12.5,0.8c8.2,0.9,9.7,1.7,9.9,2c0,0,0,0,0.1,0.1
							c0.6,1.9-2.8,17.4-11.2,51.8l0,0.1c-1,4.1-1.5,6.3-1.6,6.8c-0.2,1-0.6,1.7-1.3,2l-1.2,0.6l1.7,5.2l1.2,0.3
							c1.8,0.5,3.1,2.1,3.2,4l0,0.1l8.7,69.4l-7.5,33.1l-48.2,0l-2.6-5l0.2-3.2l-3.2-0.4l-2.1,9.1l-39.5,0l-2.7-5.1l-1.3,5.6
							l-31.6,0L1163.9,454.7z M1196.7,371.9c-0.6,2.4-1.1,4.5-1.5,6.2l0,0.2c-0.6,2.6-1,4-1,4.3c-0.1,0.5-0.3,0.9-0.7,1.2l-1,0.7
							l1.1,3.3l0.8,0.2c1.2,0.3,2,1.4,2.1,2.6l0,0.1l2.8,22l11.9-28.8l0.8-8.2l-8.1-4.7l-4.8-0.1l-1.8-1L1196.7,371.9z
							 M1242.4,340.3c-1.6,6.6-3.2,13.3-4.2,17.7l0,0c-0.8,3.4-1.3,5.2-1.3,5.6c-0.1,0.7-0.5,1.3-1,1.6l-1.1,0.7l1.4,4.2l1,0.3
							c1.5,0.4,2.5,1.7,2.6,3.3l0,0.1l4.9,38.7l3.2-0.1l0.8-16.2l11.9-28.9l1-10l-9.8-5.7l-5.8-0.2l-0.2-10.6L1242.4,340.3z"/>
						<g>
							<g>
								<path class="st2" d="M1201.3,459.1c-0.6,0-1.1-0.3-1.4-0.8l-2.2-4.1c-0.1-0.2-0.2-0.5-0.2-0.8l2.3-45.9c0-0.2,0-0.4,0.1-0.5
									l9.7-23.4l0.7-6.9l-6.8-4l-4.4-0.1c-0.8,0-1.5-0.7-1.5-1.5l-0.3-14.6c0-0.2,0-0.5,0.1-0.7l2.2-5l-4.5-1.8
									c-1.7-0.7-2.7-2.3-2.6-4.1l0,0c0.1-1.5,1-2.8,2.4-3.4l14.2-6.4l6.7-6.8l0.1-2.3c0.1-3.3,1.5-6.4,4-8.6
									c5.2-4.9,7.1-5.6,8.2-5.7c0.2,0,0.5,0,0.8,0c3.2,0,13.7,0.7,17.6,1.9c0.6,0.2,1.1,0.7,1.1,1.4c0,0.7-0.3,1.3-0.9,1.5l-4.5,2
									c-0.5,0.2-0.8,0.7-0.9,1.2l0,0c-0.1,0.7,0.3,1.3,0.9,1.5l4.4,1.7c0.7,0.3,1.1,1,1,1.8c-2,9.8-5.8,25.3-7.8,33.6
									c-0.7,2.9-1.3,5.1-1.3,5.5c-0.3,1.3-0.9,2.2-1.7,2.6l0.7,2.1l0.1,0c2.2,0.6,3.7,2.5,3.8,4.8l7.1,56.4c0,0.1,0,0.2,0,0.3
									l0,0.7c0,0.1,0,0.2,0,0.3l-6.1,26.8c-0.2,0.7-0.8,1.2-1.5,1.2L1201.3,459.1L1201.3,459.1z M1200.7,453.1l1.5,2.9l37.3,0
									l5.8-25.4l0-0.4l-7.1-56.3c0,0,0-0.1,0-0.1c0-0.9-0.6-1.7-1.5-1.9l-1-0.3c-0.5-0.1-0.9-0.5-1.1-1l-1.5-4.5
									c-0.2-0.5-0.1-1.1,0.3-1.5c0.4-0.4,0.9-0.6,1.4-0.5c0.1,0,0.4,0,0.5-0.6c0.1-0.4,0.5-2.1,1.4-5.7c1.9-7.9,5.4-22.4,7.5-32.2
									l-3.1-1.3c-1.9-0.8-3.1-2.6-2.9-4.7l0,0c0.1-1.6,1.1-3.1,2.6-3.8c-4.2-0.5-9.5-0.9-11.9-0.9c-0.3,0-0.5,0-0.6,0
									c0,0-1.4,0.3-6.3,4.8c-1.8,1.7-2.9,4-3,6.5l-0.1,2.9c0,0.4-0.2,0.8-0.5,1l-7.3,7.4c-0.1,0.1-0.3,0.2-0.5,0.3l-14.5,6.5
									c-0.3,0.1-0.5,0.4-0.6,0.8l0,0c0,0.4,0.2,0.8,0.6,1l6,2.4c0.4,0.2,0.7,0.5,0.9,0.9s0.2,0.8,0,1.2l-2.8,6.1l0.3,12.7l3.3,0.1
									c0.3,0,0.5,0.1,0.7,0.2l8,4.7c0.5,0.3,0.8,0.9,0.8,1.5l-0.8,8.1c0,0.2-0.1,0.3-0.1,0.4l-9.7,23.4L1200.7,453.1z"/>
							</g>
							<g>
								<g id="path13183_21_">
									<path class="st2" d="M1229.1,338.8c-0.9,0-1.7-0.4-2.2-1l-6.9-8c-0.4-0.5-0.6-1-0.7-1.6l-0.4-3.4c-0.1-0.8,0.2-1.7,0.7-2.3
										c0.6-0.6,1.4-1,2.2-1c0.4,0,0.9,0.1,1.3,0.3l11.3,5.4c0.6,0.3,1.1,0.8,1.4,1.4l2.5,5.2c0.4,0.9,0.4,1.9-0.1,2.7
										s-1.3,1.4-2.2,1.5l-6.5,0.8C1229.4,338.8,1229.2,338.8,1229.1,338.8z M1222.4,327.7l6.8,7.9l6.1-0.8l-2.3-4.9l-10.9-5.2
										L1222.4,327.7z"/>
								</g>
								<g>
									<path class="st2" d="M1206.3,374.1c-0.7,0-1.3-0.5-1.5-1.2c-0.2-0.8,0.3-1.7,1.1-1.9l19.9-4.9c0.1,0,0.3,0,0.4,0l1.4,0
										c0.9,0,1.6,0.7,1.5,1.6c0,0.9-0.7,1.5-1.6,1.5c0,0,0,0,0,0l-1.2,0l-19.7,4.8C1206.5,374,1206.4,374.1,1206.3,374.1z"/>
								</g>
								<g>
									<path class="st2" d="M1210.6,360.5c-0.1,0-0.2,0-0.3,0l-11.8-2.6c-0.8-0.2-1.4-1-1.2-1.9c0.2-0.8,1-1.4,1.9-1.2l11.8,2.6
										c0.8,0.2,1.4,1,1.2,1.9C1212,360,1211.4,360.5,1210.6,360.5z"/>
								</g>
							</g>
							<g>
								<g id="path13181_10_">
									<path class="st2" d="M1248.5,458.7c-0.6,0-1.1-0.3-1.4-0.8l-2.7-5.1c-0.1-0.2-0.2-0.5-0.2-0.8l2.8-56c0-0.2,0-0.4,0.1-0.5
										l11.8-28.7l0.8-8.7l-8.6-5l-5.4-0.2c-0.8,0-1.5-0.7-1.5-1.5l-0.4-17.8c0-0.2,0-0.5,0.1-0.7l2.9-6.4l-5.8-2.3
										c-1.9-0.8-3.1-2.6-2.9-4.7l0,0c0.1-1.7,1.2-3.2,2.7-3.8l17.4-7.9l8.3-8.4l0.1-3c0.1-4,1.8-7.6,4.7-10.3
										c6.3-5.9,8.6-6.7,9.8-6.8c0.3,0,0.6,0,1,0c2.3,0,7.5,0.3,12.7,0.8c9.7,1,10.5,2,11,2.6c1,1.1,1.7,2-10.8,53.3
										c-0.9,3.7-1.5,6.3-1.6,6.8c-0.3,1.6-1.2,2.6-2.2,3.1l1,3l0.4,0.1c2.5,0.7,4.3,2.9,4.4,5.5l8.7,69.3c0,0.2,0,0.4,0,0.5
										l-7.5,33.1c-0.2,0.7-0.8,1.2-1.5,1.2L1248.5,458.7z M1247.4,451.7l2,3.8l46.1,0l7.2-31.6l-8.7-69.1c0,0,0-0.1,0-0.1
										c0-1.3-0.9-2.3-2.1-2.7l-1.2-0.3c-0.5-0.1-0.9-0.5-1.1-1l-1.8-5.5c-0.2-0.5-0.1-1.1,0.3-1.5c0.4-0.4,0.9-0.6,1.4-0.5
										c0.5,0,0.8-0.3,1-1c0.1-0.5,0.6-2.6,1.7-6.9c2.8-11.4,11-45.2,11.2-50.5c-2.8-1-15.7-2.3-21-2.3c-0.4,0-0.6,0-0.8,0
										c-0.1,0-1.7,0.2-7.9,6c-2.3,2.1-3.6,5-3.7,8.1l-0.1,3.6c0,0.4-0.2,0.8-0.5,1l-8.9,9c-0.1,0.1-0.3,0.2-0.5,0.3l-17.7,8
										c-0.5,0.2-0.8,0.7-0.9,1.2l0,0c-0.1,0.7,0.3,1.3,0.9,1.5l7.3,2.9c0.4,0.2,0.7,0.5,0.9,0.9c0.2,0.4,0.2,0.8,0,1.2l-3.4,7.6
										l0.4,16l4.4,0.1c0.3,0,0.5,0.1,0.7,0.2l9.8,5.7c0.5,0.3,0.8,0.9,0.8,1.5l-1,9.9c0,0.2-0.1,0.3-0.1,0.4l-11.8,28.6
										L1247.4,451.7z"/>
								</g>
								<g id="path13183_20_">
									<path class="st2" d="M1282.5,311.7c-0.9,0-1.8-0.4-2.5-1.1l-8.5-9.8c-0.4-0.5-0.7-1.1-0.8-1.8l-0.5-4.1
										c-0.1-0.9,0.2-1.8,0.8-2.5c0.6-0.7,1.5-1.1,2.4-1.1c0.5,0,1,0.1,1.4,0.3l13.8,6.6c0.7,0.3,1.2,0.9,1.5,1.5l3,6.4
										c0.4,0.9,0.4,2-0.1,3s-1.4,1.5-2.4,1.7l-7.9,1C1282.8,311.6,1282.6,311.7,1282.5,311.7z M1273.5,294.4
										C1273.5,294.4,1273.5,294.4,1273.5,294.4c-0.1,0.1-0.1,0.1-0.1,0.1l0.5,4.1c0,0,0,0,0,0.1l8.5,9.8c0,0,0.1,0,0.1,0l0,0
										l7.9-1c0,0,0.1,0,0.1-0.1c0,0,0-0.1,0-0.1l-3-6.4c0,0,0,0-0.1-0.1L1273.5,294.4C1273.6,294.4,1273.6,294.4,1273.5,294.4z"
										/>
								</g>
								<g>
									<path class="st2" d="M1254.6,354.8c-0.7,0-1.3-0.5-1.5-1.2c-0.2-0.8,0.3-1.7,1.1-1.9l24.3-5.9c0.1,0,0.3,0,0.4,0l1.7,0
										c0.9,0,1.6,0.7,1.5,1.6c0,0.9-0.7,1.6-1.6,1.5l-1.5,0l-24.1,5.9C1254.9,354.7,1254.7,354.8,1254.6,354.8z"/>
								</g>
								<g>
									<path class="st2" d="M1259.9,338.2c-0.1,0-0.2,0-0.3,0l-14.4-3.2c-0.8-0.2-1.4-1-1.2-1.9c0.2-0.8,1-1.4,1.9-1.2l14.4,3.2
										c0.8,0.2,1.4,1,1.2,1.9C1261.3,337.7,1260.7,338.2,1259.9,338.2z"/>
								</g>
								<g>
									<path class="st2" d="M1264.6,427.9c-0.5,0-0.9-0.2-1.3-0.6c-0.5-0.7-0.4-1.7,0.3-2.2l15.9-12l15.1-42.6
										c0.3-0.8,1.2-1.2,2-1c0.8,0.3,1.2,1.2,1,2l-15.2,43.1c-0.1,0.3-0.3,0.5-0.5,0.7l-16.2,12.3
										C1265.3,427.8,1264.9,427.9,1264.6,427.9z"/>
								</g>
							</g>
							<g>
								<path class="st2" d="M1165.7,459.6c-0.6,0-1.1-0.3-1.4-0.8l-1.7-3.3c-0.1-0.2-0.2-0.5-0.2-0.8l1.8-36.8c0-0.2,0-0.4,0.1-0.5
									l7.7-18.7l0.5-5.3l-5.2-3l-3.4-0.1c-0.8,0-1.5-0.7-1.5-1.5l-0.3-11.7c0-0.2,0-0.5,0.1-0.7l1.7-3.7l-3.3-1.3
									c-1.5-0.6-2.4-2-2.2-3.6c0,0,0,0,0,0c0.1-1.3,0.9-2.4,2.1-3l11.3-5.1l5.2-5.3l0.1-1.8c0.1-2.7,1.3-5.3,3.3-7.2
									c4.2-4,5.8-4.6,6.8-4.6c0.2,0,0.4,0,0.7,0c1.5,0,4.8,0.2,8.2,0.5c0.7,0.1,1.3,0.6,1.4,1.3s-0.3,1.4-0.9,1.7l-0.2,0.1
									c-0.3,0.1-0.5,0.4-0.6,0.8l0,0c0,0.4,0.2,0.8,0.6,1l6,2.4c0.4,0.2,0.7,0.5,0.9,0.9c0.2,0.4,0.2,0.8,0,1.2l-2.8,6.1l0.1,6.5
									c0,0.1,0,0.3,0,0.4c-1.3,5.6-2.7,11.3-3.6,15c-0.6,2.3-1,4.1-1.1,4.4c-0.2,1-0.7,1.8-1.3,2.2l0.4,1.3
									c1.8,0.5,3.1,2.2,3.2,4.1l4,32c0,0.1,0,0.2,0,0.3l-1.3,26.8c0,0.1,0,0.2,0,0.3l-1.9,8.4c-0.2,0.7-0.8,1.2-1.5,1.2
									L1165.7,459.6L1165.7,459.6z M1165.5,454.4l1.1,2.1l29.5,0l1.6-7l1.3-26.6l-4-31.9c0,0,0-0.1,0-0.1c0-0.6-0.4-1.1-1-1.3
									l-0.8-0.2c-0.5-0.1-0.9-0.5-1.1-1l-1.2-3.6c-0.2-0.5-0.1-1.1,0.3-1.6c0.4-0.4,0.8-0.6,1.4-0.5c0,0,0.1-0.1,0.1-0.2
									c0.1-0.4,0.4-1.7,1.1-4.6c0.9-3.7,2.3-9.3,3.5-14.8l-0.1-6.6c0-0.2,0-0.5,0.1-0.7l2.2-5l-4.5-1.8c-1.7-0.7-2.7-2.3-2.6-4.1
									l0,0c0-0.3,0.1-0.5,0.1-0.8c-2.1-0.2-3.9-0.3-4.9-0.3c-0.2,0-0.3,0-0.4,0c-0.1,0-1.3,0.4-4.9,3.8c-1.4,1.3-2.2,3.1-2.3,5
									l-0.1,2.4c0,0.4-0.2,0.8-0.5,1l-5.9,5.9c-0.1,0.1-0.3,0.2-0.5,0.3l-11.6,5.2c-0.1,0.1-0.2,0.2-0.3,0.4c0,0,0,0,0,0
									c0,0.2,0.1,0.4,0.3,0.4l4.8,1.9c0.4,0.2,0.7,0.5,0.9,0.9c0.2,0.4,0.2,0.8,0,1.2l-2.2,4.8l0.2,9.8l2.4,0.1
									c0.3,0,0.5,0.1,0.7,0.2l6.4,3.8c0.5,0.3,0.8,0.9,0.8,1.5l-0.6,6.5c0,0.2-0.1,0.3-0.1,0.4l-7.7,18.7L1165.5,454.4z"/>
							</g>
						</g>
					</g>
					<g>
						<polygon class="st2" points="895,458 895,311.1 889.3,311.1 889.3,256.1 895,256.1 895,244.8 895,244.7 895,244.7 900.7,234 
							901.2,233.5 901.2,232.8 901.2,223.1 901.2,223.1 901.2,223.1 916.6,193.4 917.1,193.4 932.5,223.1 932.5,223.1 932.5,223.2 
							932.5,233.5 933,234 938.7,244.7 938.7,244.8 938.7,244.8 938.7,256.1 944.4,256.1 944.4,311.1 938.7,311.1 938.7,458 						
							"/>
						<g>
							<g>
								<path class="st2" d="M938.9,459.6H895c-0.9,0-1.6-0.7-1.6-1.6V311.2c0-0.9,0.7-1.6,1.6-1.6h43.8c0.9,0,1.6,0.7,1.6,1.6V458
									C940.4,458.9,939.7,459.6,938.9,459.6z M896.6,456.5h40.7V312.7h-40.7V456.5z"/>
							</g>
							<g>
								<path class="st2" d="M938.9,257.1H895c-0.9,0-1.6-0.7-1.6-1.6v-10.8c0-0.9,0.7-1.6,1.6-1.6h43.8c0.9,0,1.6,0.7,1.6,1.6v10.8
									C940.4,256.4,939.7,257.1,938.9,257.1z M896.6,254h40.7v-7.7h-40.7V254z"/>
							</g>
							<g>
								<path class="st2" d="M938.9,246.3C938.9,246.3,938.9,246.3,938.9,246.3H895c-0.5,0-1.1-0.3-1.3-0.8c-0.3-0.5-0.3-1.1,0-1.5
									l5.7-10.8c0.3-0.5,0.8-0.8,1.4-0.8h32.5c0.6,0,1.1,0.3,1.4,0.8l5.6,10.7c0.2,0.2,0.2,0.5,0.2,0.8
									C940.4,245.6,939.7,246.3,938.9,246.3z M897.6,243.2h38.6l-4-7.7h-30.6L897.6,243.2z"/>
							</g>
							<g>
								<path class="st2" d="M932.7,235.5h-31.4c-0.9,0-1.6-0.7-1.6-1.6v-10.8c0-0.9,0.7-1.6,1.6-1.6h31.4c0.9,0,1.6,0.7,1.6,1.6
									v10.8C934.2,234.8,933.5,235.5,932.7,235.5z M902.8,232.4h28.3v-7.7h-28.3V232.4z"/>
							</g>
							<g>
								<path class="st2" d="M932.7,224.7C932.7,224.7,932.7,224.7,932.7,224.7h-31.4c-0.5,0-1.1-0.3-1.3-0.8s-0.3-1.1-0.1-1.5
									l15.5-29.8c0.3-0.5,0.8-0.8,1.4-0.8h0.5c0.6,0,1.1,0.3,1.4,0.8l15.4,29.7c0.2,0.2,0.2,0.5,0.2,0.8
									C934.2,224,933.5,224.7,932.7,224.7z M903.8,221.6h26.2L917,196.3L903.8,221.6z"/>
							</g>
							<g>
								<path class="st2" d="M944.5,312.7h-55.1c-0.9,0-1.6-0.7-1.6-1.6v-55.1c0-0.9,0.7-1.6,1.6-1.6h55.1c0.9,0,1.6,0.7,1.6,1.6
									v55.1C946.1,312,945.4,312.7,944.5,312.7z M891,309.6h52l0-52h-52V309.6z"/>
							</g>
							<g>
								<g>
									<path class="st2" d="M909.1,451.5c-0.9,0-1.6-0.7-1.6-1.6V319.2c0-0.9,0.7-1.6,1.6-1.6c0.9,0,1.6,0.7,1.6,1.6v130.7
										C910.7,450.8,910,451.5,909.1,451.5z"/>
								</g>
								<g>
									<path class="st2" d="M924.8,451.5c-0.9,0-1.6-0.7-1.6-1.6V319.2c0-0.9,0.7-1.6,1.6-1.6c0.9,0,1.6,0.7,1.6,1.6v130.7
										C926.4,450.8,925.7,451.5,924.8,451.5z"/>
								</g>
							</g>
							<g>
								<path class="st2" d="M917.2,305.9h-0.4c-12.2,0-22.1-9.9-22.1-22.1v-0.4c0-12.2,9.9-22.1,22.1-22.1h0.4
									c12.2,0,22.1,9.9,22.1,22.1v0.4C939.3,296,929.4,305.9,917.2,305.9z M916.7,264.4c-10.5,0-19,8.5-19,19v0.4
									c0,10.5,8.5,19,19,19h0.4c10.5,0,19-8.5,19-19v-0.4c0-10.5-8.5-19-19-19L916.7,264.4L916.7,264.4z"/>
							</g>
							<g>
								<path class="st2" d="M929.5,291.9c-0.3,0-0.6-0.1-0.9-0.3l-12.5-9.1c-0.4-0.3-0.6-0.8-0.6-1.3v-12c0-0.9,0.7-1.6,1.6-1.6
									s1.6,0.7,1.6,1.6v11.2l11.9,8.6c0.7,0.5,0.9,1.5,0.3,2.2C930.4,291.7,929.9,291.9,929.5,291.9z"/>
							</g>
						</g>
					</g>
					<g>
						<polygon class="st2" points="1522.9,458 1592.8,385.5 1592.8,385.5 1592.8,385.6 1633.7,426.3 1699.2,353.8 1793.6,458 						
							"/>
						<g>
							<g>
								<path class="st2" d="M1615.3,448.3c-0.1,0-0.2,0-0.3,0c-0.5-0.1-1-0.5-1.2-1l-22.4-61.3c-0.3-0.7,0-1.5,0.6-1.9
									c0.6-0.4,1.4-0.3,1.9,0.2l40.9,40.7c0.6,0.6,0.6,1.5,0.1,2.2l-18.5,20.5C1616.1,448.1,1615.7,448.3,1615.3,448.3z
									 M1596.8,391.5l19.1,52.2l15.8-17.5L1596.8,391.5z"/>
							</g>
							<g>
								<path class="st2" d="M1605,459.6h-82.2c-0.6,0-1.2-0.4-1.4-1c-0.2-0.6-0.1-1.2,0.3-1.7l70-72.6c0.4-0.4,0.9-0.6,1.5-0.4
									c0.5,0.1,1,0.5,1.1,1l22.4,61.3c0.2,0.5,0.1,1.2-0.3,1.6l-10.2,11.3C1605.9,459.4,1605.5,459.6,1605,459.6z M1526.6,456.5
									h77.8l9.1-10.1l-21.2-58L1526.6,456.5z"/>
							</g>
						</g>
					</g>
					<g>
						<path class="st2" d="M1519.7,458l2.4-100.9h0.6l0.2-1.4c0.3-3.2,2.8-5.7,5.9-6.3l1.3-0.2l1.3,0.2c3.1,0.6,5.5,3.2,5.9,6.3
							l0.2,1.4h0.6l2.4,100.9H1519.7z M1485.4,458l2.1-88.8h0.5l0.2-1.4c0.3-2.7,2.4-4.9,5-5.4l1.2-0.3l1.2,0.3
							c2.7,0.5,4.7,2.7,5,5.4l0.2,1.4h0.5l2.1,88.8H1485.4z M1433,458v-36.4c0-8-6.5-14.4-14.4-14.4h-0.3c-8,0-14.4,6.5-14.4,14.4
							V458H1364v-53.5h2v-11.9l0.1-1.7h-1.7c-0.3-1.1-0.4-2.2-0.4-3.3c0-2.9,1-5.6,2.8-7.9l2.1-2.6h-3.9l2.5-1.7
							c3.1-2.2,5.9-4.7,8.3-7.5l0.8-0.9l0.8,0.9c1.6,1.8,3.4,3.6,5.4,5.2l3.2,2.7l-0.6-4.1c-0.2-1.6-0.3-3.1-0.3-4.7
							c0-6.8,2-13.3,5.9-18.9c2.4-3.5,5.3-6.4,8.8-8.8l4.3-3h-6l4.4-2.8c5.4-3.4,10.3-7.4,14.5-11.7l1.4-1.5l1.4,1.5
							c4.2,4.3,9.1,8.3,14.5,11.7l4.4,2.8h-6l4.3,3c3.5,2.4,6.4,5.3,8.8,8.8c3.8,5.6,5.9,12.1,5.9,18.9c0,1.4-0.1,2.7-0.3,4.1
							l-0.5,4.2l3.2-2.7c1.7-1.5,3.3-3,4.7-4.6l0.8-0.9l0.8,0.9c2.4,2.8,5.2,5.3,8.3,7.5l2.5,1.7h-3.9l2.1,2.6
							c1.8,2.2,2.8,5,2.8,7.9c0,1.1-0.1,2.2-0.4,3.3h-1.7l0.1,1.7v11.9h2V458L1433,458L1433,458z M1386.3,379.7
							c1,1.3,1.8,2.8,2.3,4.4l3.2-0.4v-8h-3.5l-0.1,1.4h-4L1386.3,379.7z M1444.4,383.7l3.2,0.4c0.5-1.6,1.2-3.1,2.3-4.4l2.1-2.6h-4
							l-0.1-1.4l-1.5,0h-2L1444.4,383.7L1444.4,383.7z M1330.5,458l0.6-26.2l1.5-62.6h0.5l0.2-1.4c0.3-2.7,2.4-4.9,5-5.4l1.2-0.3
							l1.2,0.3c2.7,0.5,4.7,2.7,5,5.4l0.2,1.4h0.5l2.1,88.8L1330.5,458L1330.5,458z M1293.7,458l2.4-100.9h0.6l0.2-1.4
							c0.3-3.2,2.8-5.7,5.9-6.3l1.3-0.2l1.3,0.2c3.1,0.6,5.5,3.2,5.9,6.3l0.2,1.4h0.6l2.4,100.9H1293.7z"/>
						<g>
							<g>
								<path class="st2" d="M1391.8,391.6c-0.9,0-1.6-0.7-1.6-1.6v-14c0-0.9,0.7-1.6,1.6-1.6s1.6,0.7,1.6,1.6v14
									C1393.4,390.9,1392.7,391.6,1391.8,391.6z"/>
							</g>
							<g>
								<path class="st2" d="M1444.5,391.6c-0.9,0-1.6-0.7-1.6-1.6v-14c0-0.9,0.7-1.6,1.6-1.6c0.9,0,1.6,0.7,1.6,1.6v14
									C1446.1,390.9,1445.4,391.6,1444.5,391.6z"/>
							</g>
							<g>
								<path class="st2" d="M1439,338H1398c-0.7,0-1.3-0.5-1.5-1.1c-0.2-0.7,0.1-1.4,0.7-1.8l4.5-2.9c5.3-3.4,10.1-7.2,14.3-11.5
									l1.5-1.5c0.3-0.3,0.7-0.5,1.1-0.5s0.8,0.2,1.1,0.5l1.5,1.5c4.1,4.3,8.9,8.1,14.3,11.5l4.5,2.9c0.6,0.4,0.9,1.1,0.7,1.8
									C1440.3,337.5,1439.7,338,1439,338z M1403.4,334.8h30.3c-5.5-3.5-10.5-7.5-14.8-11.9l-0.3-0.4l-0.3,0.4
									C1413.8,327.3,1408.9,331.3,1403.4,334.8z"/>
							</g>
							<g>
								<path class="st2" d="M1450.8,377.3h-64.6c-0.7,0-1.3-0.5-1.5-1.2c-0.8-3-1.2-6.1-1.2-9.2c0-7.1,2.1-14,6.1-19.8
									c3.9-5.7,9.4-10.1,15.8-12.7c0.2-0.1,0.4-0.1,0.6-0.1h25.1c0.2,0,0.4,0,0.6,0.1c6.4,2.6,11.8,7,15.8,12.7
									c4,5.8,6.1,12.7,6.1,19.8c0,3.1-0.4,6.2-1.2,9.2C1452.1,376.8,1451.5,377.3,1450.8,377.3z M1387.4,374.1h62.2
									c0.5-2.4,0.8-4.8,0.8-7.2c0-13-7.7-24.5-19.7-29.5h-24.5c-12,5-19.7,16.5-19.7,29.5C1386.6,369.4,1386.9,371.8,1387.4,374.1
									z"/>
							</g>
							<g>
								<path class="st2" d="M1418.5,321.9c-0.9,0-1.6-0.7-1.6-1.6v-7.2c0-0.9,0.7-1.6,1.6-1.6s1.6,0.7,1.6,1.6v7.2
									C1420.1,321.2,1419.4,321.9,1418.5,321.9z"/>
							</g>
							<g>
								<g>
									<path class="st2" d="M1471.5,378.7H1448c-0.7,0-1.3-0.4-1.5-1.1c-0.2-0.6,0-1.4,0.6-1.8l2.6-1.8c3-2.1,5.7-4.6,8-7.2l0.8-1
										c0.3-0.3,0.7-0.5,1.2-0.5l0,0c0.5,0,0.9,0.2,1.2,0.5l0.8,1c2.3,2.7,5,5.1,8,7.2l2.6,1.8c0.6,0.4,0.8,1.1,0.6,1.8
										C1472.8,378.3,1472.2,378.7,1471.5,378.7z M1452.9,375.6h13.7c-2.5-1.9-4.8-4-6.9-6.3
										C1457.7,371.5,1455.4,373.7,1452.9,375.6z"/>
								</g>
								<g>
									<path class="st2" d="M1459.8,368.4c-0.9,0-1.6-0.7-1.6-1.6v-4.6c0-0.9,0.7-1.6,1.6-1.6s1.6,0.7,1.6,1.6v4.6
										C1461.3,367.7,1460.6,368.4,1459.8,368.4z"/>
								</g>
								<g>
									<path class="st2" d="M1472,392.5h-24.4c-0.7,0-1.3-0.5-1.5-1.2c-0.3-1.2-0.5-2.5-0.5-3.7c0-4.7,2.3-9.1,6.2-11.7
										c0.3-0.2,0.6-0.3,0.9-0.3h14.2c0.3,0,0.6,0.1,0.9,0.3c3.9,2.7,6.2,7,6.2,11.7c0,1.3-0.2,2.5-0.5,3.7
										C1473.3,392,1472.7,392.5,1472,392.5z M1448.8,389.3h21.9c0.1-0.6,0.1-1.2,0.1-1.7c0-3.5-1.7-6.8-4.5-8.9h-13.2
										c-2.8,2.1-4.5,5.4-4.5,8.9C1448.7,388.2,1448.7,388.8,1448.8,389.3z"/>
								</g>
							</g>
							<g>
								<g>
									<path class="st2" d="M1388.3,378.7h-23.4c-0.7,0-1.3-0.4-1.5-1.1c-0.2-0.6,0-1.4,0.6-1.8l2.6-1.8c3-2.1,5.7-4.6,8-7.2
										l0.8-1c0.3-0.3,0.7-0.5,1.2-0.5c0.5,0,0.9,0.2,1.2,0.5l0.8,1c2.3,2.7,5,5.1,8,7.2l2.6,1.8c0.6,0.4,0.8,1.1,0.6,1.8
										C1389.6,378.3,1389,378.7,1388.3,378.7z M1369.8,375.6h13.7c-2.5-1.9-4.8-4-6.9-6.3
										C1374.6,371.5,1372.3,373.7,1369.8,375.6z"/>
								</g>
								<g>
									<path class="st2" d="M1376.6,368.4c-0.9,0-1.6-0.7-1.6-1.6v-4.6c0-0.9,0.7-1.6,1.6-1.6c0.9,0,1.6,0.7,1.6,1.6v4.6
										C1378.2,367.7,1377.5,368.4,1376.6,368.4z"/>
								</g>
								<g>
									<path class="st2" d="M1388.8,392.5h-24.4c-0.7,0-1.3-0.5-1.5-1.2c-0.3-1.2-0.5-2.5-0.5-3.7c0-4.7,2.3-9.1,6.2-11.7
										c0.3-0.2,0.6-0.3,0.9-0.3h14.2c0.3,0,0.6,0.1,0.9,0.3c3.9,2.7,6.2,7,6.2,11.7c0,1.3-0.2,2.5-0.5,3.7
										C1390.1,392,1389.5,392.5,1388.8,392.5z M1365.7,389.3h21.9c0.1-0.6,0.1-1.2,0.1-1.7c0-3.5-1.7-6.8-4.5-8.9H1370
										c-2.8,2.1-4.5,5.4-4.5,8.9C1365.5,388.2,1365.6,388.8,1365.7,389.3z"/>
								</g>
							</g>
							<g>
								<g>
									<path class="st2" d="M1540.5,459.6C1540.5,459.6,1540.5,459.6,1540.5,459.6h-20.7c-0.4,0-0.8-0.2-1.1-0.5s-0.5-0.7-0.4-1.1
										l2.4-100.8c0-0.9,0.7-1.5,1.6-1.5h15.9c0.9,0,1.5,0.7,1.6,1.5l2.4,100.7c0,0.1,0,0.1,0,0.2
										C1542.1,458.9,1541.4,459.6,1540.5,459.6z M1521.4,456.5h17.5l-2.4-97.7h-12.8L1521.4,456.5z"/>
								</g>
								<g>
									<path class="st2" d="M1541.8,374.3h-23.4c-0.9,0-1.6-0.7-1.6-1.6s0.7-1.6,1.6-1.6h23.4c0.9,0,1.6,0.7,1.6,1.6
										C1543.4,373.6,1542.7,374.3,1541.8,374.3z"/>
								</g>
								<g>
									<path class="st2" d="M1537.4,358c-0.9,0-1.6-0.7-1.6-1.6c0-3.1-2.5-5.7-5.7-5.7s-5.7,2.5-5.7,5.7c0,0.9-0.7,1.6-1.6,1.6
										c-0.9,0-1.6-0.7-1.6-1.6c0-4.9,4-8.8,8.8-8.8s8.8,4,8.8,8.8C1538.9,357.3,1538.2,358,1537.4,358z"/>
								</g>
								<g>
									<path class="st2" d="M1530.1,349.9c-0.9,0-1.6-0.7-1.6-1.6v-3.6c0-0.9,0.7-1.6,1.6-1.6s1.6,0.7,1.6,1.6v3.6
										C1531.7,349.2,1531,349.9,1530.1,349.9z"/>
								</g>
								<g>
									<path class="st2" d="M1530.1,372.4c-0.9,0-1.6-0.7-1.6-1.6v-5.7c0-0.9,0.7-1.6,1.6-1.6s1.6,0.7,1.6,1.6v5.7
										C1531.7,371.7,1531,372.4,1530.1,372.4z"/>
								</g>
								<g>
									<path class="st2" d="M1541.5,358.6h-22.7c-0.9,0-1.6-0.7-1.6-1.6s0.7-1.6,1.6-1.6h22.7c0.9,0,1.6,0.7,1.6,1.6
										C1543.1,357.9,1542.4,358.6,1541.5,358.6z"/>
								</g>
							</g>
							<g>
								<g>
									<path class="st2" d="M1503.7,459.6C1503.7,459.6,1503.7,459.6,1503.7,459.6h-18.2c-0.4,0-0.8-0.2-1.1-0.5
										c-0.3-0.3-0.5-0.7-0.4-1.1l2.1-88.7c0-0.9,0.7-1.5,1.6-1.5l0,0h14c0.9,0,1.5,0.7,1.6,1.5l2.1,88.6c0,0.1,0,0.1,0,0.2
										C1505.3,458.9,1504.6,459.6,1503.7,459.6z M1487.1,456.5h15l-2.1-85.6h-10.9L1487.1,456.5z"/>
								</g>
								<g>
									<path class="st2" d="M1504.9,384.5h-20.6c-0.9,0-1.6-0.7-1.6-1.6s0.7-1.6,1.6-1.6h20.6c0.9,0,1.6,0.7,1.6,1.6
										S1505.8,384.5,1504.9,384.5z"/>
								</g>
								<g>
									<path class="st2" d="M1501,370.2c-0.9,0-1.6-0.7-1.6-1.6c0-2.7-2.2-4.8-4.8-4.8s-4.8,2.2-4.8,4.8c0,0.9-0.7,1.6-1.6,1.6
										c-0.9,0-1.6-0.7-1.6-1.6c0-4.4,3.6-7.9,7.9-7.9s7.9,3.6,7.9,7.9C1502.5,369.5,1501.8,370.2,1501,370.2z"/>
								</g>
								<g>
									<path class="st2" d="M1494.6,363c-0.9,0-1.6-0.7-1.6-1.6v-3.1c0-0.9,0.7-1.6,1.6-1.6s1.6,0.7,1.6,1.6v3.1
										C1496.2,362.3,1495.5,363,1494.6,363z"/>
								</g>
								<g>
									<path class="st2" d="M1494.6,382.9c-0.9,0-1.6-0.7-1.6-1.6v-5.1c0-0.9,0.7-1.6,1.6-1.6s1.6,0.7,1.6,1.6v5.1
										C1496.2,382.1,1495.5,382.9,1494.6,382.9z"/>
								</g>
								<g>
									<path class="st2" d="M1504.6,370.7h-20c-0.9,0-1.6-0.7-1.6-1.6s0.7-1.6,1.6-1.6h20c0.9,0,1.6,0.7,1.6,1.6
										S1505.5,370.7,1504.6,370.7z"/>
								</g>
							</g>
							<g>
								<g>
									<path class="st2" d="M1314.5,459.6h-20.7c-0.4,0-0.8-0.2-1.1-0.5s-0.5-0.7-0.4-1.1l2.4-100.8c0-0.9,0.7-1.5,1.6-1.5h15.9
										c0.9,0,1.5,0.7,1.6,1.5l2.4,100.8c0,0.4-0.2,0.8-0.4,1.1S1314.9,459.6,1314.5,459.6z M1295.4,456.5h17.5l-2.4-97.7h-12.8
										L1295.4,456.5z"/>
								</g>
								<g>
									<path class="st2" d="M1315.9,374.3h-23.4c-0.9,0-1.6-0.7-1.6-1.6s0.7-1.6,1.6-1.6h23.4c0.9,0,1.6,0.7,1.6,1.6
										S1316.7,374.3,1315.9,374.3z"/>
								</g>
								<g>
									<path class="st2" d="M1311.4,358c-0.9,0-1.6-0.7-1.6-1.6c0-3.1-2.5-5.7-5.7-5.7s-5.7,2.5-5.7,5.7c0,0.9-0.7,1.6-1.6,1.6
										c-0.9,0-1.6-0.7-1.6-1.6c0-4.9,4-8.8,8.8-8.8s8.8,4,8.8,8.8C1313,357.3,1312.3,358,1311.4,358z"/>
								</g>
								<g>
									<path class="st2" d="M1304.1,349.9c-0.9,0-1.6-0.7-1.6-1.6v-3.6c0-0.9,0.7-1.6,1.6-1.6s1.6,0.7,1.6,1.6v3.6
										C1305.7,349.2,1305,349.9,1304.1,349.9z"/>
								</g>
								<g>
									<path class="st2" d="M1304.1,372.4c-0.9,0-1.6-0.7-1.6-1.6v-5.7c0-0.9,0.7-1.6,1.6-1.6s1.6,0.7,1.6,1.6v5.7
										C1305.7,371.7,1305,372.4,1304.1,372.4z"/>
								</g>
								<g>
									<path class="st2" d="M1315.5,358.6h-22.7c-0.9,0-1.6-0.7-1.6-1.6s0.7-1.6,1.6-1.6h22.7c0.9,0,1.6,0.7,1.6,1.6
										S1316.4,358.6,1315.5,358.6z"/>
								</g>
							</g>
							<g>
								<g>
									<path class="st2" d="M1348.8,459.6h-18.2c-0.4,0-0.8-0.2-1.1-0.5s-0.5-0.7-0.4-1.1l2.1-88.7c0-0.9,0.7-1.5,1.6-1.5h14
										c0.9,0,1.5,0.7,1.6,1.5l2.1,88.7c0,0.4-0.2,0.8-0.4,1.1S1349.2,459.6,1348.8,459.6z M1332.2,456.5h15l-2.1-85.6h-10.9
										L1332.2,456.5z"/>
								</g>
								<g>
									<path class="st2" d="M1350,384.5h-20.6c-0.9,0-1.6-0.7-1.6-1.6s0.7-1.6,1.6-1.6h20.6c0.9,0,1.6,0.7,1.6,1.6
										S1350.8,384.5,1350,384.5z"/>
								</g>
								<g>
									<path class="st2" d="M1346.1,370.2c-0.9,0-1.6-0.7-1.6-1.6c0-2.7-2.2-4.8-4.8-4.8c-2.7,0-4.8,2.2-4.8,4.8
										c0,0.9-0.7,1.6-1.6,1.6s-1.6-0.7-1.6-1.6c0-4.4,3.6-7.9,7.9-7.9s7.9,3.6,7.9,7.9C1347.6,369.5,1346.9,370.2,1346.1,370.2z"
										/>
								</g>
								<g>
									<path class="st2" d="M1339.7,363c-0.9,0-1.6-0.7-1.6-1.6v-3.1c0-0.9,0.7-1.6,1.6-1.6s1.6,0.7,1.6,1.6v3.1
										C1341.2,362.3,1340.5,363,1339.7,363z"/>
								</g>
								<g>
									<path class="st2" d="M1339.7,382.9c-0.9,0-1.6-0.7-1.6-1.6v-5.1c0-0.9,0.7-1.6,1.6-1.6s1.6,0.7,1.6,1.6v5.1
										C1341.2,382.1,1340.5,382.9,1339.7,382.9z"/>
								</g>
								<g>
									<path class="st2" d="M1349.7,370.7h-20c-0.9,0-1.6-0.7-1.6-1.6s0.7-1.6,1.6-1.6h20c0.9,0,1.6,0.7,1.6,1.6
										S1350.5,370.7,1349.7,370.7z"/>
								</g>
							</g>
						</g>
					</g>
					<g>
						<g>
							<g>
								<path class="st2" d="M697.9,459.6c-0.9,0-1.6-0.7-1.6-1.6l-0.8-108.4l-0.2-23.1l-0.1-17.8l-38.9-10.4
									c-0.3-0.1-0.6-0.3-0.8-0.5L640,278.3c-3.6,0.6-7.1,0.9-10.1,0.9c-18.5,0-20.8-10.6-20.9-11c-0.1-0.5,0-0.9,0.3-1.3
									c0.3-0.4,0.7-0.6,1.2-0.6l10.4,0l0-1c0-0.7,0.4-1.3,1.1-1.5c1.3-0.4,2.7-0.7,4.3-0.7c6.4,0,13.2,3.8,15.2,5.1
									c11.6-2.8,39.6-5.6,61.2-7.4c0.8-0.1,1.5,0.5,1.7,1.3c0.8,3.7,1.3,7.6,1.7,11.4c0.8,6.1,1.5,11.9,3.2,16.4
									c0.1,0.2,0.1,0.4,0.1,0.5c0,0.1,0,0.1,0,0.2c-4.4,34.2-0.5,63,11.6,85.8c8.8,16.6,21.6,29.8,39.1,40.2
									c0.5,0.3,0.8,0.8,0.8,1.3l0,40c0,0.9-0.7,1.6-1.6,1.6l-29,0.1l-1.1,0L697.9,459.6C697.9,459.6,697.9,459.6,697.9,459.6z
									 M657.7,295.4l39.5,10.6c0.7,0.2,1.2,0.8,1.2,1.5l0.1,19l0.2,23.1l0.7,106.8l29.6-0.1l1.1,0l27.5-0.1l0-37.5
									c-17.6-10.7-30.5-24.1-39.4-41c-12.3-23.3-16.3-52.6-12-87.3c-1.7-4.8-2.5-10.6-3.3-16.7c-0.4-3.2-0.8-6.6-1.4-9.8
									c-21.7,1.9-49.2,4.7-60,7.4c-0.4,0.1-0.9,0-1.2-0.2c-0.1,0-7.5-4.9-14.1-4.9c-0.8,0-1.5,0.1-2.2,0.2l0,1.4
									c0,0.4-0.2,0.8-0.5,1.1c-0.3,0.3-0.7,0.5-1.1,0.5l-9.6,0c1.5,2.5,5.8,6.6,17,6.6c3.2,0,6.7-0.3,10.5-1
									c0.6-0.1,1.1,0.1,1.5,0.6L657.7,295.4z"/>
							</g>
							<g>
								<path class="st2" d="M759.1,326.1c-0.2,0-0.5-0.1-0.7-0.2c-15.6-7.9-29.8-19.8-41-34.4c-9-11.7-14.3-22.8-16.2-28.8
									c-0.1-0.5-0.1-0.9,0.2-1.3c0.3-0.4,0.7-0.6,1.2-0.7c0.3,0,2.2-0.2,3.7-0.3l2-0.2c1.3-0.1,2.6-0.2,3.9-0.3l-0.1-23.8
									c0-4.2,1.6-8.1,4.5-11c2.9-3,6.8-4.6,11-4.6h0.1c8.6,0,15.5,7,15.6,15.5l0.1,23.8c21.4,1.6,57.4,4.6,70.9,7.8
									c2-1.3,8.8-5.2,15.3-5.2c1.5,0,2.9,0.2,4.1,0.6c0.6,0.2,1.1,0.8,1.1,1.5l0,1l10.4,0c0.5,0,0.9,0.2,1.2,0.6
									c0.3,0.4,0.4,0.8,0.3,1.3c-0.1,0.5-2.3,11.1-21.2,11.1c-3,0-6.3-0.3-9.8-0.8l-15.5,19.6c-0.2,0.3-0.5,0.5-0.8,0.5
									l-38.8,10.7v16c0,0.5-0.3,1-0.7,1.3C759.7,326,759.4,326.1,759.1,326.1z M704.9,263.7c2.2,6,7.1,15.7,15,26
									c10.4,13.5,23.3,24.6,37.7,32.3v-14.6c0-0.7,0.5-1.3,1.1-1.5l39.4-10.9l15.7-19.9c0.4-0.4,0.9-0.7,1.5-0.6
									c3.7,0.6,7.1,0.9,10.2,0.9c11.5,0,15.7-4.2,17.3-6.7l-9.6,0c-0.4,0-0.8-0.2-1.1-0.5s-0.5-0.7-0.5-1.1l0-1.4
									c-0.7-0.1-1.4-0.2-2.1-0.2c-6.6,0-14.1,5-14.1,5c-0.4,0.2-0.8,0.3-1.2,0.2c-13-3.2-51-6.3-72.5-7.9
									c-0.8-0.1-1.4-0.7-15.1,17.7l-0.1-25.2c13.6-26.1,8-31.6,1.2-31.6h-0.1c-3.3,0-6.5,1.3-8.8,3.7c-2.3,2.4-3.6,5.5-3.6,8.8
									l0.1,25.2c0,0.8-0.6,1.5-1.4,1.6c-1.7,0.1-3.5,0.3-5.3,0.4l-2,0.2C706,263.6,705.4,263.6,704.9,263.7z"/>
							</g>
							<g>
								<path class="st2" d="M764.5,419.7h-4.8c-0.9,0-1.6-0.7-1.6-1.6s0.7-1.6,1.6-1.6h3.2l-2-89.4l-2.5-1.4
									c-0.8-0.4-1-1.4-0.6-2.1c0.4-0.8,1.4-1,2.1-0.6l3.3,1.8c0.5,0.3,0.8,0.8,0.8,1.3l2.1,91.9c0,0.4-0.2,0.8-0.4,1.1
									C765.3,419.6,764.9,419.7,764.5,419.7z"/>
							</g>
						</g>
					</g>
					<g>
						<path class="st2" d="M492.1,458v-8.4h11v-8.5h6.7v-87.8h-6.7v-8.8h-9.2v-14.2h-7.8l112.7-58.5l112.7,58.5h-7.8v14.2h-9.2v8.8
							h-6.7v87.8h6.7v8.5h11v8.4H492.1z M663.5,441.1h15.3v-87.8h-15.3v7.8V441.1z M639.3,441.1h15.3v-87.8h-15.3v7.8V441.1z
							 M615.2,441.1h15.3v-87.8h-15.3v7.8V441.1z M591.1,441.1h15.3v-87.8h-15.3v7.8l0,0V441.1z M566.9,441.1h15.3v-87.8h-15.3v7.8
							V441.1z M542.8,441.1h15.3v-87.8h-15.3v7.8V441.1z M518.6,441.1h15.3v-87.8h-15.3v7.8V441.1z"/>
						<g>
							<g>
								<path class="st2" d="M703.7,346.2H493.9c-0.9,0-1.6-0.7-1.6-1.6v-14c0-0.9,0.7-1.6,1.6-1.6h209.8c0.9,0,1.6,0.7,1.6,1.6v14
									C705.3,345.5,704.6,346.2,703.7,346.2z M495.5,343h206.6v-10.8H495.5L495.5,343L495.5,343z"/>
							</g>
							<g>
								<path class="st2" d="M694.5,355H503.2c-0.9,0-1.6-0.7-1.6-1.6v-8.5c0-0.9,0.7-1.6,1.6-1.6h191.3c0.9,0,1.6,0.7,1.6,1.6v8.5
									C696,354.3,695.3,355,694.5,355z M504.7,351.8h188.2v-5.3H504.7V351.8z"/>
							</g>
							<g>
								<g>
									<path class="st2" d="M518.8,442.7h-8.9c-0.4,0-0.8-0.2-1.1-0.5c-0.3-0.3-0.5-0.7-0.5-1.1v-87.2c0-0.9,0.7-1.6,1.6-1.6h8.9
										c0.9,0,1.6,0.7,1.6,1.6v87.2C520.3,442,519.6,442.7,518.8,442.7z M511.4,439.5h5.8v-84.1h-5.8V439.5z"/>
								</g>
								<g>
									<path class="st2" d="M523.1,362.7h-17.5c-0.9,0-1.6-0.7-1.6-1.6c0-0.9,0.7-1.6,1.6-1.6h17.5c0.9,0,1.6,0.7,1.6,1.6
										C524.6,362,523.9,362.7,523.1,362.7z"/>
								</g>
								<g>
									<path class="st2" d="M542.9,442.7H534c-0.9,0-1.6-0.7-1.6-1.6v-87.2c0-0.9,0.7-1.6,1.6-1.6h8.9c0.4,0,0.8,0.2,1.1,0.5
										c0.3,0.3,0.5,0.7,0.5,1.1v87.2C544.5,442,543.8,442.7,542.9,442.7z M535.6,439.5h5.8v-84.1h-5.8V439.5z"/>
								</g>
								<g>
									<path class="st2" d="M547.2,362.7h-17.5c-0.9,0-1.6-0.7-1.6-1.6c0-0.9,0.7-1.6,1.6-1.6h17.5c0.9,0,1.6,0.7,1.6,1.6
										C548.8,362,548.1,362.7,547.2,362.7z"/>
								</g>
								<g>
									<path class="st2" d="M567,442.7h-8.9c-0.9,0-1.6-0.7-1.6-1.6v-87.2c0-0.9,0.7-1.6,1.6-1.6h8.9c0.4,0,0.8,0.2,1.1,0.5
										c0.3,0.3,0.5,0.7,0.5,1.1v87.2C568.6,442,567.9,442.7,567,442.7z M559.7,439.5h5.8v-84.1h-5.8V439.5z"/>
								</g>
								<g>
									<path class="st2" d="M571.4,362.7h-17.5c-0.9,0-1.6-0.7-1.6-1.6c0-0.9,0.7-1.6,1.6-1.6h17.5c0.9,0,1.6,0.7,1.6,1.6
										C572.9,362,572.2,362.7,571.4,362.7z"/>
								</g>
								<g>
									<path class="st2" d="M591.2,442.7h-8.9c-0.9,0-1.6-0.7-1.6-1.6v-87.2c0-0.9,0.7-1.6,1.6-1.6h8.9c0.4,0,0.8,0.2,1.1,0.5
										s0.5,0.7,0.5,1.1l0,87.2C592.8,442,592.1,442.7,591.2,442.7z M583.8,439.5h5.8v-84.1h-5.8V439.5z"/>
								</g>
								<g>
									<path class="st2" d="M595.5,362.7H578c-0.9,0-1.6-0.7-1.6-1.6c0-0.9,0.7-1.6,1.6-1.6h17.5c0.9,0,1.6,0.7,1.6,1.6
										C597.1,362,596.4,362.7,595.5,362.7z"/>
								</g>
								<g>
									<path class="st2" d="M615.3,442.7h-8.9c-0.9,0-1.6-0.7-1.6-1.6v-87.2c0-0.9,0.7-1.6,1.6-1.6h8.9c0.4,0,0.8,0.2,1.1,0.5
										s0.5,0.7,0.5,1.1v87.2C616.9,442,616.2,442.7,615.3,442.7z M608,439.5h5.8v-84.1H608V439.5z"/>
								</g>
								<g>
									<path class="st2" d="M619.6,362.7h-17.5c-0.9,0-1.6-0.7-1.6-1.6c0-0.9,0.7-1.6,1.6-1.6h17.5c0.9,0,1.6,0.7,1.6,1.6
										C621.2,362,620.5,362.7,619.6,362.7z"/>
								</g>
								<g>
									<path class="st2" d="M639.5,442.7h-8.9c-0.4,0-0.8-0.2-1.1-0.5c-0.3-0.3-0.5-0.7-0.5-1.1v-87.2c0-0.9,0.7-1.6,1.6-1.6h8.9
										c0.4,0,0.8,0.2,1.1,0.5s0.5,0.7,0.5,1.1v87.2C641.1,442,640.4,442.7,639.5,442.7z M632.1,439.5h5.8v-84.1h-5.8L632.1,439.5
										z"/>
								</g>
								<g>
									<path class="st2" d="M643.8,362.7h-17.5c-0.9,0-1.6-0.7-1.6-1.6c0-0.9,0.7-1.6,1.6-1.6h17.5c0.9,0,1.6,0.7,1.6,1.6
										C645.4,362,644.7,362.7,643.8,362.7z"/>
								</g>
								<g>
									<path class="st2" d="M663.6,442.7h-8.9c-0.4,0-0.8-0.2-1.1-0.5c-0.3-0.3-0.5-0.7-0.5-1.1l0-87.2c0-0.9,0.7-1.6,1.6-1.6h8.9
										c0.9,0,1.6,0.7,1.6,1.6v87.2C665.2,442,664.5,442.7,663.6,442.7z M656.3,439.5h5.8v-84.1h-5.8V439.5z"/>
								</g>
								<g>
									<path class="st2" d="M667.9,362.7h-17.5c-0.9,0-1.6-0.7-1.6-1.6c0-0.9,0.7-1.6,1.6-1.6h17.5c0.9,0,1.6,0.7,1.6,1.6
										C669.5,362,668.8,362.7,667.9,362.7z"/>
								</g>
								<g>
									<path class="st2" d="M687.8,442.7h-8.9c-0.4,0-0.8-0.2-1.1-0.5c-0.3-0.3-0.5-0.7-0.5-1.1v-87.2c0-0.9,0.7-1.6,1.6-1.6h8.9
										c0.9,0,1.6,0.7,1.6,1.6v87.2C689.4,442,688.7,442.7,687.8,442.7z M680.4,439.5h5.8v-84.1h-5.8V439.5z"/>
								</g>
								<g>
									<path class="st2" d="M692.1,362.7h-17.5c-0.9,0-1.6-0.7-1.6-1.6c0-0.9,0.7-1.6,1.6-1.6h17.5c0.9,0,1.6,0.7,1.6,1.6
										C693.7,362,693,362.7,692.1,362.7z"/>
								</g>
							</g>
							<g>
								<path class="st2" d="M486,332c-0.7,0-1.4-0.5-1.5-1.2c-0.2-0.7,0.2-1.4,0.8-1.8l112.9-58.6c0.5-0.2,1-0.2,1.4,0L712.4,329
									c0.6,0.3,1,1.1,0.8,1.8c-0.2,0.7-0.8,1.2-1.5,1.2L486,332L486,332z M598.8,273.6l-106.4,55.3h212.9L598.8,273.6z"/>
							</g>
							<g>
								<path class="st2" d="M689.3,332c-0.2,0-0.5-0.1-0.7-0.2l-89.8-44.6L509,331.8c-0.8,0.4-1.7,0.1-2.1-0.7
									c-0.4-0.8-0.1-1.7,0.7-2.1l90.5-45c0.4-0.2,1-0.2,1.4,0l90.5,45c0.8,0.4,1.1,1.3,0.7,2.1C690.4,331.7,689.9,332,689.3,332z"
									/>
							</g>
						</g>
					</g>
					<g>
						<path class="st2" d="M1001.7,463.4l0.3-5.7H896.3v-20h18.8v-20.4H934v-20.1h18.8v-18.4h18.8v-18.4h18.8v-18.4h9.2l0-27h58.4
							v27h9.2v18.4h18.8v18.4h18.8v18.4h18.8v20.1h18.8v20.4h18.8v20h-105.2l0.3,5.7l0,0h-0.1H1001.7z M1040.6,342.2h6.5v-11.4h-6.5
							V342.2z M1024.2,342.2h9.3v-11.4h-9.3V342.2z M1010.6,342.2h6.5v-11.4h-6.5V342.2z"/>
						<g>
							<g>
								<path class="st2" d="M1056.6,465C1056.6,465,1056.6,465,1056.6,465h-54.8c-0.4,0-0.8-0.2-1.1-0.5c-0.3-0.3-0.5-0.7-0.4-1.2
									l5.7-121.3c0-0.8,0.7-1.5,1.6-1.5h43.4c0.8,0,1.5,0.7,1.6,1.5l5.7,121.2c0,0.1,0,0.1,0,0.2
									C1058.2,464.3,1057.5,465,1056.6,465z M1003.4,461.9h51.5l-5.5-118.2h-40.5L1003.4,461.9z"/>
							</g>
							<g>
								<path class="st2" d="M1058.2,343.7h-58.5c-0.9,0-1.6-0.7-1.6-1.6v-27c0-0.9,0.7-1.6,1.6-1.6h58.5c0.9,0,1.6,0.7,1.6,1.6v27
									C1059.8,343,1059.1,343.7,1058.2,343.7z M1001.3,340.6h55.4v-23.9h-55.4L1001.3,340.6L1001.3,340.6z"/>
							</g>
							<g>
								<path class="st2" d="M1061.1,323.4h-64.2c-0.9,0-1.6-0.7-1.6-1.6s0.7-1.6,1.6-1.6h64.2c0.9,0,1.6,0.7,1.6,1.6
									S1061.9,323.4,1061.1,323.4z"/>
							</g>
							<g>
								<g>
									<path class="st2" d="M1017.1,343.7h-6.4c-0.9,0-1.6-0.7-1.6-1.6v-11.3c0-0.9,0.7-1.6,1.6-1.6h6.4c0.9,0,1.6,0.7,1.6,1.6
										v11.3C1018.7,343,1018,343.7,1017.1,343.7z M1012.3,340.6h3.3v-8.2h-3.3V340.6z"/>
								</g>
								<g>
									<path class="st2" d="M1033.6,343.7h-9.2c-0.9,0-1.6-0.7-1.6-1.6v-11.3c0-0.9,0.7-1.6,1.6-1.6h9.2c0.9,0,1.6,0.7,1.6,1.6
										v11.3C1035.1,343,1034.4,343.7,1033.6,343.7z M1025.9,340.6h6.1v-8.2h-6.1V340.6z"/>
								</g>
								<g>
									<path class="st2" d="M1047.2,343.7h-6.4c-0.9,0-1.6-0.7-1.6-1.6v-11.3c0-0.9,0.7-1.6,1.6-1.6h6.4c0.9,0,1.6,0.7,1.6,1.6
										v11.3C1048.7,343,1048,343.7,1047.2,343.7z M1042.3,340.6h3.3v-8.2h-3.3V340.6z"/>
								</g>
							</g>
							<g>
								<path class="st2" d="M1010.2,465C1010.2,465,1010.2,465,1010.2,465c-0.9,0-1.6-0.8-1.6-1.6l3.8-121.3c0-0.9,0.8-1.5,1.6-1.5
									c0.9,0,1.5,0.8,1.5,1.6l-3.8,121.3C1011.8,464.4,1011.1,465,1010.2,465z"/>
							</g>
							<g>
								<path class="st2" d="M1048.4,465c-0.8,0-1.5-0.7-1.6-1.5l-3.8-121.3c0-0.9,0.7-1.6,1.5-1.6c0.9,0,1.6,0.7,1.6,1.5l3.8,121.3
									C1050,464.3,1049.3,465,1048.4,465C1048.4,465,1048.4,465,1048.4,465z"/>
							</g>
							<g>
								<g>
									<path class="st2" d="M1004.9,398.8h-52c-0.9,0-1.6-0.7-1.6-1.6v-18.4c0-0.9,0.7-1.6,1.6-1.6h52.9c0.4,0,0.8,0.2,1.1,0.5
										c0.3,0.3,0.5,0.7,0.4,1.2l-0.9,18.4C1006.4,398.2,1005.7,398.8,1004.9,398.8z M954.4,395.7h48.9l0.7-15.2h-49.7V395.7z"/>
								</g>
								<g>
									<path class="st2" d="M1105,398.8h-51.6c-0.8,0-1.5-0.7-1.6-1.5L1051,379c0-0.4,0.1-0.8,0.4-1.2c0.3-0.3,0.7-0.5,1.1-0.5
										h52.4c0.9,0,1.6,0.7,1.6,1.6v18.4C1106.6,398.1,1105.9,398.8,1105,398.8z M1055,395.7h48.5v-15.2h-49.2L1055,395.7z"/>
								</g>
							</g>
							<g>
								<g>
									<path class="st2" d="M1005.7,380.5h-34c-0.9,0-1.6-0.7-1.6-1.6v-18.4c0-0.9,0.7-1.6,1.6-1.6h34.9c0.4,0,0.8,0.2,1.1,0.5
										c0.3,0.3,0.5,0.7,0.4,1.2l-0.9,18.4C1007.2,379.8,1006.6,380.5,1005.7,380.5z M973.2,377.3h31l0.7-15.2h-31.7L973.2,377.3
										L973.2,377.3z"/>
								</g>
								<g>
									<path class="st2" d="M1086.2,380.5h-33.6c-0.8,0-1.5-0.7-1.6-1.5l-0.9-18.4c0-0.4,0.1-0.8,0.4-1.2s0.7-0.5,1.1-0.5h34.5
										c0.9,0,1.6,0.7,1.6,1.6v18.4C1087.8,379.8,1087.1,380.5,1086.2,380.5z M1054.1,377.3h30.5v-15.2h-31.2L1054.1,377.3z"/>
								</g>
							</g>
							<g>
								<g>
									<path class="st2" d="M1006.6,362.1h-16.1c-0.9,0-1.6-0.7-1.6-1.6v-18.4c0-0.9,0.7-1.6,1.6-1.6h16.9c0.4,0,0.8,0.2,1.1,0.5
										s0.5,0.7,0.4,1.2l-0.9,18.4C1008.1,361.4,1007.4,362.1,1006.6,362.1z M992.1,359h13l0.7-15.2h-13.7L992.1,359L992.1,359z"
										/>
								</g>
								<g>
									<path class="st2" d="M1067.4,362.1h-15.6c-0.8,0-1.5-0.7-1.6-1.5l-0.9-18.4c0-0.4,0.1-0.8,0.4-1.2c0.3-0.3,0.7-0.5,1.1-0.5
										h16.5c0.9,0,1.6,0.7,1.6,1.6v18.4C1069,361.4,1068.3,362.1,1067.4,362.1z M1053.2,359h12.6v-15.2h-13.3L1053.2,359z"/>
								</g>
							</g>
						</g>
					</g>
					<g>
						<path class="st2" d="M380.3,458v-12.5l-0.1-0.2c-0.2-0.7-0.7-1.5-1.3-2.2l1.4,1.1v-16.3h3.5v-84.1h-3.3l0-0.1l7-12.7l3.2,5.8
							l8.2-14.9l8.2,15l3.2-5.9l6.9,12.6l0,0l0,0.1l0,0H414v5.8l0.1,0.3c0,4.7,1,9.4,2.9,13.9l-3,0.6v63.4h3.5V458L380.3,458
							L380.3,458z M252.9,458v-30.2h3.5v-63.4l-3-0.6c1.9-4.6,2.9-9.2,2.9-13.9l0.1-0.3l0-0.3v-5.5h-3.3l0,0l0-0.1L260,331l3.2,5.9
							l8.2-15l8.2,14.9l3.2-5.8l7,12.7l0,0.1h-3.3v84.1h3.5v16.3l1.4-1.1c-0.6,0.7-1.1,1.4-1.3,2.2l-0.1,0.2V458L252.9,458
							L252.9,458z"/>
						<g>
							<g>
								<path class="st2" d="M286.8,429.3h-30.3c-0.9,0-1.6-0.7-1.6-1.6l0-84c0-0.9,0.7-1.6,1.6-1.6h30.3c0.9,0,1.6,0.7,1.6,1.6v84
									C288.3,428.6,287.6,429.3,286.8,429.3z M258,426.2h27.2v-80.8H258V426.2z"/>
							</g>
							<g>
								<path class="st2" d="M288.9,374.5h-34.7c-0.9,0-1.6-0.7-1.6-1.6s0.7-1.6,1.6-1.6h34.7c0.9,0,1.6,0.7,1.6,1.6
									S289.8,374.5,288.9,374.5z"/>
							</g>
							<g>
								<path class="st2" d="M290.1,345.3h-36.9c-0.9,0-1.6-0.7-1.6-1.6c0-0.9,0.7-1.6,1.6-1.6h36.9c0.9,0,1.6,0.7,1.6,1.6
									C291.6,344.6,290.9,345.3,290.1,345.3z"/>
							</g>
							<g>
								<path class="st2" d="M382.9,352.5h-94.5c-0.9,0-1.6-0.7-1.6-1.6s0.7-1.6,1.6-1.6h94.5c0.9,0,1.6,0.7,1.6,1.6
									C384.4,351.8,383.7,352.5,382.9,352.5z"/>
							</g>
							<g>
								<path class="st2" d="M370,364.1c-0.4,0-0.8-0.2-1.1-0.5l-10.4-10.3l-10.4,10.3c-0.6,0.6-1.6,0.6-2.2,0l-10.4-10.3
									l-10.4,10.3c-0.6,0.6-1.6,0.6-2.2,0l-10.4-10.3l-10.4,10.3c-0.6,0.6-1.6,0.6-2.2,0l-11.5-11.4c-0.6-0.6-0.6-1.6,0-2.2
									c0.6-0.6,1.6-0.6,2.2,0l10.4,10.3l10.4-10.3c0.6-0.6,1.6-0.6,2.2,0l10.4,10.3l10.4-10.3c0.6-0.6,1.6-0.6,2.2,0l10.4,10.3
									l10.4-10.3c0.6-0.6,1.6-0.6,2.2,0l10.4,10.3l10.4-10.3c0.6-0.6,1.6-0.6,2.2,0c0.6,0.6,0.6,1.6,0,2.2l-11.5,11.4
									C370.8,363.9,370.4,364.1,370,364.1z"/>
							</g>
							<g>
								<path class="st2" d="M382.9,364.5h-94.5c-0.9,0-1.6-0.7-1.6-1.6s0.7-1.6,1.6-1.6h94.5c0.9,0,1.6,0.7,1.6,1.6
									S383.7,364.5,382.9,364.5z"/>
							</g>
							<g>
								<g>
									<path class="st2" d="M278.9,366.5c-0.9,0-1.6-0.7-1.6-1.6V352c0-0.9,0.7-1.6,1.6-1.6c0.9,0,1.6,0.7,1.6,1.6v12.9
										C280.5,365.8,279.8,366.5,278.9,366.5z"/>
								</g>
								<g>
									<path class="st2" d="M264.3,366.5c-0.9,0-1.6-0.7-1.6-1.6V352c0-0.9,0.7-1.6,1.6-1.6s1.6,0.7,1.6,1.6v12.9
										C265.9,365.8,265.2,366.5,264.3,366.5z"/>
								</g>
							</g>
							<g>
								<g>
									<path class="st2" d="M278.9,394.7c-0.9,0-1.6-0.7-1.6-1.6v-12.9c0-0.9,0.7-1.6,1.6-1.6c0.9,0,1.6,0.7,1.6,1.6v12.9
										C280.5,394,279.8,394.7,278.9,394.7z"/>
								</g>
								<g>
									<path class="st2" d="M264.3,394.7c-0.9,0-1.6-0.7-1.6-1.6v-12.9c0-0.9,0.7-1.6,1.6-1.6s1.6,0.7,1.6,1.6v12.9
										C265.9,394,265.2,394.7,264.3,394.7z"/>
								</g>
							</g>
							<g>
								<path class="st2" d="M267.1,345.2h-14c-0.6,0-1.1-0.3-1.3-0.8c-0.3-0.5-0.3-1.1,0-1.6l7-12.8c0.3-0.5,0.8-0.8,1.4-0.8l0,0
									c0.6,0,1.1,0.3,1.4,0.8l7,12.8c0.3,0.5,0.3,1.1,0,1.6S267.7,345.2,267.1,345.2z M255.8,342.1h8.7l-4.4-7.9L255.8,342.1z"/>
							</g>
							<g>
								<path class="st2" d="M290,345.2h-14c-0.6,0-1.1-0.3-1.3-0.8s-0.3-1.1,0-1.6l7-12.8c0.3-0.5,0.8-0.8,1.4-0.8l0,0
									c0.6,0,1.1,0.3,1.4,0.8l7,12.8c0.3,0.5,0.3,1.1,0,1.6C291.1,344.9,290.6,345.2,290,345.2z M278.7,342.1h8.7l-4.4-7.9
									L278.7,342.1z"/>
							</g>
							<g>
								<path class="st2" d="M193.5,402.3c-0.9,0-1.6-0.7-1.6-1.6s0.7-1.6,1.6-1.6c13.3,0,28.6-5.5,40.8-14.6
									c6.2-4.6,11.3-10.1,14.8-15.8c3.8-6.2,5.7-12.6,5.7-19c0-0.9,0.7-1.6,1.6-1.6s1.6,0.7,1.6,1.6c0,7-2.1,14-6.2,20.7
									c-3.8,6.1-9,11.7-15.6,16.6C223.4,396.6,207.5,402.3,193.5,402.3z"/>
							</g>
							<g>
								<path class="st2" d="M239.4,429.3c-0.9,0-1.6-0.7-1.6-1.6v-45.4c0-0.9,0.7-1.6,1.6-1.6c0.9,0,1.6,0.7,1.6,1.6l0,45.4
									C241,428.6,240.3,429.3,239.4,429.3z"/>
							</g>
							<g>
								<path class="st2" d="M414.1,429.3h-30.3c-0.9,0-1.6-0.7-1.6-1.6v-84c0-0.9,0.7-1.6,1.6-1.6h30.3c0.9,0,1.6,0.7,1.6,1.6v84
									C415.7,428.6,415,429.3,414.1,429.3z M385.4,426.2h27.2v-80.8h-27.2V426.2z"/>
							</g>
							<g>
								<path class="st2" d="M416.3,374.5h-34.7c-0.9,0-1.6-0.7-1.6-1.6s0.7-1.6,1.6-1.6h34.7c0.9,0,1.6,0.7,1.6,1.6
									S417.2,374.5,416.3,374.5z"/>
							</g>
							<g>
								<path class="st2" d="M417.5,345.3h-36.9c-0.9,0-1.6-0.7-1.6-1.6c0-0.9,0.7-1.6,1.6-1.6h36.9c0.9,0,1.6,0.7,1.6,1.6
									C419,344.6,418.3,345.3,417.5,345.3z"/>
							</g>
							<g>
								<g>
									<path class="st2" d="M391.7,366.5c-0.9,0-1.6-0.7-1.6-1.6V352c0-0.9,0.7-1.6,1.6-1.6s1.6,0.7,1.6,1.6v12.9
										C393.3,365.8,392.6,366.5,391.7,366.5z"/>
								</g>
								<g>
									<path class="st2" d="M406.3,366.5c-0.9,0-1.6-0.7-1.6-1.6V352c0-0.9,0.7-1.6,1.6-1.6c0.9,0,1.6,0.7,1.6,1.6v12.9
										C407.9,365.8,407.2,366.5,406.3,366.5z"/>
								</g>
							</g>
							<g>
								<g>
									<path class="st2" d="M391.7,394.7c-0.9,0-1.6-0.7-1.6-1.6v-12.9c0-0.9,0.7-1.6,1.6-1.6s1.6,0.7,1.6,1.6v12.9
										C393.3,394,392.6,394.7,391.7,394.7z"/>
								</g>
								<g>
									<path class="st2" d="M406.3,394.7c-0.9,0-1.6-0.7-1.6-1.6v-12.9c0-0.9,0.7-1.6,1.6-1.6c0.9,0,1.6,0.7,1.6,1.6v12.9
										C407.9,394,407.2,394.7,406.3,394.7z"/>
								</g>
							</g>
							<g>
								<path class="st2" d="M394.6,345.2C394.6,345.2,394.6,345.2,394.6,345.2h-14c-0.6,0-1.1-0.3-1.3-0.8c-0.3-0.5-0.3-1.1,0-1.6
									l7-12.8c0.3-0.5,0.8-0.8,1.4-0.8c0.6,0,1.1,0.3,1.4,0.8l6.9,12.6c0.2,0.2,0.3,0.5,0.3,0.9
									C396.2,344.5,395.5,345.2,394.6,345.2z M383.3,342.1h8.7l-4.4-7.9L383.3,342.1z"/>
							</g>
							<g>
								<path class="st2" d="M477.1,402.3c-14,0-29.9-5.7-42.7-15.2c-6.6-4.9-11.8-10.5-15.6-16.6c-4.1-6.7-6.2-13.6-6.2-20.7
									c0-0.9,0.7-1.6,1.6-1.6c0.9,0,1.6,0.7,1.6,1.6c0,6.4,1.9,12.8,5.7,19c3.5,5.7,8.6,11.1,14.8,15.8
									c12.2,9.1,27.5,14.6,40.8,14.6c0.9,0,1.6,0.7,1.6,1.6C478.7,401.6,478,402.3,477.1,402.3z"/>
							</g>
							<g>
								<path class="st2" d="M431.2,429.3c-0.9,0-1.6-0.7-1.6-1.6v-45.4c0-0.9,0.7-1.6,1.6-1.6c0.9,0,1.6,0.7,1.6,1.6v45.4
									C432.8,428.6,432.1,429.3,431.2,429.3z"/>
							</g>
							<g>
								<path class="st2" d="M276.5,344.3h-9.8c-0.6,0-1.1-0.3-1.4-0.8l-3.3-6c-0.3-0.5-0.3-1,0-1.5l8.2-15c0.3-0.5,0.8-0.8,1.4-0.8
									c0.6,0,1.1,0.3,1.4,0.8l8.2,14.9c0.3,0.5,0.3,1,0,1.5l-3.3,6.1C277.6,344,277.1,344.3,276.5,344.3z M267.6,341.2h8l2.5-4.5
									l-6.4-11.7l-6.5,11.8L267.6,341.2z"/>
							</g>
							<g>
								<path class="st2" d="M417.5,345.2C417.5,345.2,417.5,345.2,417.5,345.2L417.5,345.2h-14c-0.6,0-1.1-0.3-1.3-0.8
									c-0.3-0.5-0.3-1.1,0-1.6l7-12.8c0.3-0.5,0.8-0.8,1.4-0.8s1.1,0.3,1.4,0.8l6.9,12.6c0.2,0.2,0.3,0.5,0.3,0.9
									C419.1,344.5,418.4,345.2,417.5,345.2z M406.1,342.1h8.7l-4.4-7.9L406.1,342.1z"/>
							</g>
							<g>
								<path class="st2" d="M404,344.3h-9.8c-0.6,0-1.1-0.3-1.4-0.8l-3.3-6.1c-0.3-0.5-0.3-1,0-1.5l8.2-14.9
									c0.3-0.5,0.8-0.8,1.4-0.8c0.6,0,1.1,0.3,1.4,0.8l8.2,15c0.3,0.5,0.3,1,0,1.5l-3.3,6C405.1,344,404.5,344.3,404,344.3z
									 M395.1,341.2h8l2.4-4.4L399,325l-6.4,11.7L395.1,341.2z"/>
							</g>
						</g>
					</g>
					<g>
						<path class="st2" d="M522.5,458l0.2-0.1l0-0.8c-0.2-11.1-3.3-21.5-8.7-29.4c-5.5-8-12.9-12.5-20.8-12.5
							c-7.8,0-15.2,4.4-20.8,12.5c-5.4,7.8-8.5,18.3-8.7,29.4l0,0.9l0.2,0.1h-28.4l0.2-0.2c0.2-0.3,0.5-0.6,0.7-1
							c0.5-0.6,0.9-1.2,1.3-1.9c2-3.5,3.8-6.7,5.4-10c7.2-12.9,12.7-24.6,17.2-36.9l0.8-2.2h-6.4V399h10.3l-0.7-2.1
							c6.3-18.7,10.5-37.9,14.4-56l0.4-2h-5.9v-6.8h8.5l-1-2.3c0.5-3.5,1-7.1,1.6-10.5l0-0.1c0.8-5,1.5-10.1,2.2-15.1
							c3.2-26,4.8-53.5,5.1-84l0.2-1.8l-3.5,0v-15.6c0-2.7,2.2-4.8,4.8-4.8h4c2.7,0,4.8,2.2,4.8,4.8v15.6h-6l2.9,2.8
							c0.3,13.7,0.8,26.2,1.4,38.2c0.8,13.4,1.8,25.9,3.1,38c1.2,11.2,2.7,22.1,4.5,32.5l-1.2,2.3h7.3v6.8h-4.5l0.4,1.9
							c2.5,13,5.4,25.8,8.8,38c0.7,2.7,1.6,5.9,2.6,9c0.5,1.7,1.1,3.4,1.7,5c0.4,1.1,0.9,2.4,1.3,3.6l-1.8,2.5h10v6.8h-4.9l0.8,2.2
							c6.5,17.1,14.4,33.3,24.2,49.7l0.2,0.3L522.5,458L522.5,458z"/>
						<g>
							<g>
								<g>
									<path class="st2" d="M464.4,398.4c-0.2,0-0.3,0-0.5-0.1c-0.8-0.3-1.3-1.2-1-2c6.3-18.6,10.5-37.9,14.4-56.1
										c0.2-0.8,1-1.4,1.9-1.2c0.8,0.2,1.4,1,1.2,1.9c-3.9,18.2-8.1,37.6-14.5,56.4C465.7,398,465.1,398.4,464.4,398.4z"/>
								</g>
								<g>
									<path class="st2" d="M480.8,331.4c-0.1,0-0.1,0-0.2,0c-0.9-0.1-1.5-0.9-1.3-1.8c0.5-3.6,1.1-7.1,1.6-10.6
										c0.8-4.9,1.5-10.1,2.2-15.1c3.1-25.9,4.8-53.4,5.1-83.8c0-0.9,0.7-1.6,1.6-1.6c0.9,0,1.6,0.7,1.6,1.6
										c-0.3,30.6-1.9,58.1-5.1,84.2c-0.7,5.1-1.5,10.2-2.2,15.2c-0.5,3.5-1.1,7-1.6,10.6C482.2,330.9,481.5,331.4,480.8,331.4z"
										/>
								</g>
								<g>
									<path class="st2" d="M522.5,398c-0.7,0-1.3-0.4-1.5-1.1c-0.4-1.2-0.8-2.4-1.3-3.6c-0.6-1.7-1.2-3.4-1.8-5.1
										c-1-3.1-1.8-6.3-2.6-9c-3.4-12.3-6.4-25.1-8.8-38.2c-0.2-0.9,0.4-1.7,1.2-1.8c0.8-0.2,1.7,0.4,1.8,1.2
										c2.5,13,5.4,25.8,8.8,38c0.7,2.7,1.6,5.8,2.6,8.9c0.5,1.7,1.1,3.3,1.7,4.9c0.4,1.2,0.9,2.4,1.3,3.7c0.3,0.8-0.2,1.7-1,2
										C522.9,398,522.7,398,522.5,398z"/>
								</g>
								<g>
									<path class="st2" d="M506.1,331.4c-0.8,0-1.4-0.5-1.5-1.3c-1.7-10.5-3.3-21.4-4.5-32.6c-1.3-12.2-2.4-24.6-3.1-38.1
										c-0.7-12-1.2-24.5-1.4-38.2c0-0.9,0.7-1.6,1.5-1.6c0.9,0,1.6,0.7,1.6,1.5c0.3,13.7,0.8,26.2,1.4,38.1
										c0.8,13.4,1.8,25.8,3.1,37.9c1.2,11.1,2.7,22.1,4.5,32.4c0.1,0.9-0.4,1.7-1.3,1.8C506.3,331.4,506.2,331.4,506.1,331.4z"/>
								</g>
								<g>
									<path class="st2" d="M493.4,199.4c-0.9,0-1.6-0.7-1.6-1.6v-18c0-0.9,0.7-1.6,1.6-1.6s1.6,0.7,1.6,1.6v18
										C494.9,198.7,494.2,199.4,493.4,199.4z"/>
								</g>
								<g>
									<path class="st2" d="M500.2,219.9h-13.8c-0.9,0-1.6-0.7-1.6-1.6v-15.7c0-3.6,2.9-6.5,6.5-6.5h4c3.6,0,6.5,2.9,6.5,6.5v15.7
										C501.8,219.2,501.1,219.9,500.2,219.9z M488,216.8h10.6v-14.1c0-1.8-1.5-3.3-3.3-3.3h-4c-1.8,0-3.3,1.5-3.3,3.3L488,216.8
										L488,216.8z"/>
								</g>
								<g>
									<path class="st2" d="M512.3,340.6h-39c-0.9,0-1.6-0.7-1.6-1.6v-6.9c0-0.9,0.7-1.6,1.6-1.6h39c0.9,0,1.6,0.7,1.6,1.6v6.9
										C513.8,339.9,513.1,340.6,512.3,340.6z M474.8,337.4h35.9v-3.8h-35.9L474.8,337.4L474.8,337.4z"/>
								</g>
								<g>
									<path class="st2" d="M500.2,219.9h-13.8c-0.9,0-1.6-0.7-1.6-1.6v-15.7c0-3.6,2.9-6.5,6.5-6.5h4c3.6,0,6.5,2.9,6.5,6.5v15.7
										C501.8,219.2,501.1,219.9,500.2,219.9z M488,216.8h10.6v-14.1c0-1.8-1.5-3.3-3.3-3.3h-4c-1.8,0-3.3,1.5-3.3,3.3L488,216.8
										L488,216.8z"/>
								</g>
							</g>
						</g>
					</g>
					<g>
						<path class="st2" d="M164.5,458v-10.3l9.1-2.2l1.6-10.8l-2,0.1c-0.7,0.1-1.4,0.1-1.9,0.2l3.4-30.5c0.6-0.3,1.2-0.5,1.8-0.7
							c0.8-0.3,1.7-0.6,2.6-1l0.8-0.4l1.3-34.9l-1.8-3.1l0.7-21l-4.7-3.5l3.8-29.6l-3.8-4.3l3.1-9.7l-9.6-12.9c0,0-1.1-3.3-0.9-7.5
							c0.3-5,2.4-9.2,6.2-12.1l1-0.8l-0.5-1.2c-0.9-2-2.4-6-2.3-11.3c0.1-5.8-0.3-14.4-0.5-17.9l-0.1-1.5h-2.9v-7.9h-3.1v-12h2.2
							l-1.1-5l-4.1-2.5v-6.4c0.3-0.1,2.5-0.9,5.8-1.3l4-0.5l-3.3-2.4c-0.7-0.5-1.7-1.5-2.2-3c-0.7-2.2-0.1-4.8,1.7-7.7l2,5.7
							l2.4-6.5l1.8,7l1.9-7c0.4,0.6,2.8,4.2,2.2,7.7c-0.3,1.6-1,2.9-2.4,4.1l-2.7,2.3l3.5,0.5c1.6,0.2,3.3,0.6,4.9,1.1v6.8l-4.8,2.1
							l-1,5.2l0.8,0.6c1.2,1,2.6,2.6,2.6,5.3c0,0.8-0.1,1.8-0.2,3.1c-0.4,5.6-1,14.9,2.6,21.5c2.1,3.9,3.1,8.2,3.4,11.1l0.2,1.3
							l10.1,0.8l1.5-1.7l-6.8-11.7l10.5,9.2l2.5-0.7l1.4-15.5l3.2,15l3.2,0.5l10.7-10.1l-6.8,12.2l2.3,2.5l13-2.9l-13.4,6.6
							l12.4,3.4l-10.1-0.1l-1.1,3.8l0,0.2c0,0.9-0.1,5.9,1.4,10.5l0,0.1l0,0.1c0.3,0.7,0.6,2.1-0.1,3l-0.3,0.4l0,0.5
							c-0.1,1.6-0.2,7,3.2,8.9c0.4,0.2,0.9,0.5,1.4,0.7c4.6,2.3,12.2,6.1,13.7,20.4l0.1,0.7l2.7,2l6.4-10.8l16,10.7l-4.4,7.7
							l1.3,2.3l-7.5,14.1h-4.7l0.2,1.8c0.3,3.4,0.6,11.9-3.2,16.6c-1.3,1.7-3.1,2.7-5.2,3.1l-1.5,0.3l3.5,33.3l-2.3,0.6l1.2,9.9
							l-2.6,0.9l1,19.1l-3.5,0.9l2.1,19.8l5.7,4.7V458L164.5,458L164.5,458z M191.3,262.6l0.3,1.8c0.1,0.8,0.3,1.8,0.6,2.8l3.2-0.1
							c0.2-1.4,0.4-2.1,0.5-2.4l0.7-2.1L191.3,262.6z M186.1,256.8c0,0.4,0,0.9,0,1.3l0,1.2l1.1,0.4c0.7,0.2,1.7,0.6,2.5,1.3
							l0.7,0.6l3.7-1.5l0.8-2.3l-9-3.3L186.1,256.8z"/>
						<g>
							<g>
								<g>
									<path class="st2" d="M243.2,459.6h-78.9c-0.9,0-1.6-0.7-1.6-1.6v-10.4c0-0.7,0.5-1.4,1.2-1.5l8.1-1.9l1.4-9.6
										c0.1-0.7,0.7-1.3,1.4-1.3c13.8-1.5,25.5-7.9,34.9-19c7.8-9.3,14-21.9,18.5-37.5c8-27.9,8.3-57.4,8.2-65.8
										c0-0.6,0.3-1.1,0.8-1.4c0.5-0.3,1.2-0.2,1.6,0.1l1.3,0.9l5.5-9.3c0.2-0.4,0.6-0.6,1-0.7c0.4-0.1,0.9,0,1.2,0.2l16.1,10.8
										c0.7,0.5,0.9,1.4,0.5,2.1l-4,6.9l0.9,1.6c0.3,0.5,0.3,1,0,1.5l-7.5,14.2c-0.3,0.5-0.8,0.8-1.4,0.8h-2.9
										c0.3,3.8,0.6,12.6-3.5,17.8c-1.6,2-3.6,3.2-6.1,3.7l3.3,31.9c0.1,0.8-0.4,1.5-1.1,1.7l-1,0.3l1,8.5c0.1,0.7-0.3,1.4-1,1.7
										l-1.5,0.5l1,17.9c0,0.7-0.5,1.4-1.2,1.6l-2.2,0.6l1.9,17.8l5.2,4.3c0.4,0.3,0.6,0.7,0.6,1.2V458
										C244.8,458.9,244.1,459.6,243.2,459.6z M165.9,456.5h75.7v-7.8l-5.1-4.2c-0.3-0.3-0.5-0.6-0.6-1l-2.1-19.8
										c-0.1-0.8,0.4-1.5,1.2-1.7l2.3-0.6l-1-17.8c0-0.7,0.4-1.3,1.1-1.6l1.4-0.5l-1-8.6c-0.1-0.8,0.4-1.5,1.1-1.7l1.1-0.3
										l-3.4-32.1c0-0.4,0.1-0.9,0.4-1.2s0.7-0.5,1.1-0.6c2.3-0.1,4.1-1,5.5-2.7c4.4-5.5,2.7-17,2.7-17.2
										c-0.1-0.5,0.1-0.9,0.4-1.3c0.3-0.3,0.7-0.5,1.2-0.5h3.7l6.7-12.6l-0.9-1.6c-0.3-0.5-0.3-1.1,0-1.5l3.7-6.4l-13.5-9
										l-5.5,9.3c-0.2,0.4-0.6,0.6-1,0.7c-0.4,0.1-0.9,0-1.2-0.3l-0.2-0.1c0,11.3-1,38.1-8.3,63.6c-4.6,16-11.1,29.1-19.1,38.7
										c-9.6,11.5-21.6,18.2-35.7,20l-1.4,9.4c-0.1,0.6-0.6,1.1-1.2,1.3l-7.9,1.9L165.9,456.5L165.9,456.5z"/>
								</g>
								<g>
									<path class="st2" d="M176,197.5c-0.1,0-0.1,0-0.2,0c-1.9-0.2-3.9-0.3-5.8-0.1c-0.5,0-1-0.2-1.4-0.6
										c-0.2-0.3-0.3-0.6-0.3-0.9v-1.3c-0.9-0.6-2.3-1.9-2.9-3.9c-0.8-2.6-0.2-5.7,1.9-9.1c0.3-0.5,0.9-0.8,1.5-0.8
										c0.6,0.1,1.1,0.5,1.3,1l0.6,1.6l0.9-2.5c0.2-0.6,0.9-1.1,1.5-1c0.7,0,1.3,0.5,1.4,1.2l0.3,1.3l0.3-1.3
										c0.2-0.6,0.6-1,1.2-1.1c0.6-0.1,1.2,0.1,1.6,0.6c0.1,0.2,3.3,4.5,2.6,9c-0.3,2-1.3,3.7-3,5.1l0,1.2c0,0.1,0,0.1,0,0.2
										C177.6,196.8,176.9,197.5,176,197.5C176,197.5,176,197.5,176,197.5z M172.3,194.1c0.7,0,1.4,0,2.1,0.1l0-0.3
										c0-0.5,0.2-1,0.7-1.3c1.4-1,2.2-2.1,2.4-3.6c0.2-1.1,0-2.2-0.3-3.2l-0.8,2.9c-0.2,0.7-0.8,1.2-1.5,1.2c0,0,0,0,0,0
										c-0.7,0-1.3-0.5-1.5-1.2l-0.6-2.1l-0.7,1.9c-0.2,0.6-0.8,1-1.5,1c-0.7,0-1.2-0.4-1.5-1l-0.7-2c-0.3,1.2-0.3,2.3,0,3.2
										c0.6,1.8,2.1,2.5,2.1,2.5c0.6,0.3,0.9,0.8,0.9,1.4v0.5C171.8,194.1,172,194.1,172.3,194.1z"/>
								</g>
							</g>
							<g>
								<path class="st2" d="M179.7,403.9c-0.3,0-0.6-0.1-0.8-0.2c-0.5-0.3-0.7-0.8-0.7-1.4l1.3-34.4l-1.6-2.7
									c-0.1-0.3-0.2-0.5-0.2-0.8l0.6-20.2l-4-3c-0.5-0.3-0.7-0.9-0.6-1.5l3.7-28.9l-3.3-3.8c-0.4-0.4-0.5-1-0.3-1.5l2.9-9
									l-9.1-12.2c-0.1-0.1-0.2-0.3-0.2-0.4c-0.1-0.1-1.3-3.7-1-8.1c0.3-5.5,2.7-10.1,6.9-13.3c-0.9-2.1-2.5-6.4-2.4-12
									c0.1-5.7-0.3-14.3-0.5-17.8h-1.4c-0.9,0-1.6-0.7-1.6-1.6v-6.4h-1.6c-0.9,0-1.6-0.7-1.6-1.6v-12.1c0-0.9,0.7-1.6,1.6-1.6h0.3
									l-0.5-2.4l-3.6-2.1c-0.5-0.3-0.8-0.8-0.8-1.3v-6.5c0-0.6,0.4-1.2,1-1.5c0.2-0.1,4.3-1.6,10.3-1.6c3.6,0,7.1,0.5,10.4,1.6
									c0.7,0.2,1.1,0.8,1.1,1.5v6.9c0,0.6-0.4,1.2-0.9,1.4l-4.1,1.8l-0.7,3.4c1.2,1,3.2,3.1,3.2,6.5c0,0.8-0.1,1.9-0.2,3.2
									c-0.4,5.4-0.9,14.4,2.4,20.6c2.2,4,3.2,8.3,3.6,11.6l7.9,0.6l0.2-0.2l-6.3-11c-0.4-0.7-0.2-1.5,0.4-2c0.6-0.5,1.5-0.5,2,0
									l10,8.8l0.6-0.2l1.3-14.7c0.1-0.8,0.7-1.4,1.5-1.4c0.8,0,1.5,0.5,1.6,1.2l3,14.3l1.3,0.2l10.3-9.7c0.6-0.5,1.4-0.6,2-0.1
									c0.6,0.5,0.8,1.3,0.4,2l-6.4,11.5l0.9,1l12.5-2.8c0.8-0.2,1.6,0.3,1.8,1c0.3,0.7-0.1,1.6-0.8,1.9l-9.9,4.9l8.5,2.3
									c0.7,0.2,1.2,0.8,1.2,1.5c0,0.9-0.7,1.6-1.6,1.6c0,0,0,0,0,0l-9.2-0.1l-0.7,2.4c0,0.9-0.1,5.6,1.3,10
									c0.5,1.2,0.9,3.2-0.4,4.7c-0.1,2,0.1,6.1,2.4,7.4c0.4,0.2,0.8,0.4,1.4,0.7c4.7,2.3,13.4,6.6,14.7,22.5c0,0.1,0,0.3,0,0.4
									c0,0.2-2.8,17.3-11.5,37.1c-5.1,11.6-11.1,21.9-18,30.6c-8.6,10.9-18.6,19.2-29.6,24.7C180.2,403.8,179.9,403.9,179.7,403.9
									z M180.7,364l1.6,2.7c0.1,0.3,0.2,0.6,0.2,0.9l-1.2,32.1c9.7-5.3,18.5-12.9,26.2-22.6c6.7-8.5,12.6-18.5,17.6-29.9
									c8-18.3,10.9-34.3,11.2-36.2c-1.2-14-8.6-17.6-13-19.8c-0.5-0.3-1-0.5-1.5-0.8c-4.9-2.7-4-10.7-3.9-11
									c0.1-0.4,0.3-0.8,0.6-1.1c0.2-0.2,0.1-1.1-0.1-1.5c0-0.1,0-0.1-0.1-0.2c-1.8-5.4-1.5-11.1-1.5-11.3c0-0.1,0-0.2,0.1-0.3
									l1-3.8c0.1-0.4,0.3-0.7,0.7-0.9l-0.1,0c-0.6-0.2-1-0.6-1.1-1.2l-0.3-1.2c-0.2-0.7,0.2-1.4,0.8-1.8l0.3-0.2l-0.5,0.1
									c-0.6,0.1-1.1-0.1-1.5-0.5l-2.2-2.5c-0.4-0.5-0.5-1.2-0.2-1.8l2.1-3.7l-3.6,3.4c-0.4,0.3-0.8,0.5-1.3,0.4L208,251
									c-0.6-0.1-1.1-0.6-1.3-1.2l-1.1-5.1l-0.5,5.5c-0.1,0.7-0.5,1.2-1.2,1.4l-2.5,0.7c-0.5,0.1-1,0-1.4-0.3l-3.5-3.1l2.1,3.7
									c0.3,0.6,0.3,1.3-0.2,1.8l-1.4,1.7c-0.3,0.4-0.8,0.6-1.3,0.5c0.6,0.4,0.8,1.1,0.6,1.8l-0.8,2.2c-0.1,0.2-0.2,0.4-0.3,0.5
									l0.5,0c0,0,0,0,0,0c0.8,0,1.4,0.5,1.5,1.3c0.3,1.7,0,2.5-0.2,2.8c-0.1,0.4-0.4,1.7-0.5,2.9l0.6,1.1c0.3,0.5,0.2,1.1-0.1,1.6
									l-1.9,2.7c-0.3,0.5-0.9,0.7-1.5,0.6c-0.6-0.1-1.1-0.5-1.3-1c-0.1-0.2-1.9-4.9-2.4-8.9c0-0.3-0.1-0.6-0.3-0.9
									c-0.1-0.1-0.1-0.3-0.1-0.5c-0.1-0.1-0.3-0.2-0.4-0.3c-1.2-1.3-3.3-1.7-3.4-1.7c-0.8-0.1-1.4-0.9-1.3-1.7
									c0,0,0.1-1.9-0.1-4.6c0-0.1,0-0.1,0-0.2c0-0.1,0-0.1,0-0.2c-0.3-3.1-1.2-7.6-3.4-11.7c-3.8-7-3.2-16.6-2.8-22.3
									c0.1-1.2,0.1-2.3,0.1-3c0-3-2.5-4.4-2.6-4.5c-0.6-0.3-0.9-1-0.8-1.7l1-5.2c0.1-0.5,0.4-0.9,0.9-1.1l3.9-1.7v-4.7
									c-2.7-0.7-5.5-1.1-8.4-1.1c-3.8,0-6.7,0.7-8.2,1.1v4.4l3.4,2c0.4,0.2,0.6,0.6,0.7,1l1,4.9c0.1,0.5,0,0.9-0.3,1.3
									c-0.3,0.4-0.7,0.6-1.2,0.6h-0.6v8.9h1.6c0.9,0,1.6,0.7,1.6,1.6v6.4h1.3c0.8,0,1.5,0.6,1.6,1.5c0,0.5,0.8,12.1,0.6,19.5
									c-0.1,6.8,2.6,11.6,2.7,11.6c0.4,0.7,0.2,1.6-0.5,2.1c-9.2,6-6.4,16.7-5.8,18.4l9.5,12.7c0.3,0.4,0.4,0.9,0.2,1.4l-2.8,8.9
									l3.2,3.6c0.3,0.3,0.4,0.8,0.4,1.2l-3.7,28.7l3.9,3c0.4,0.3,0.6,0.8,0.6,1.3L180.7,364z M193.1,264.1
									c0.1,0.9,0.3,1.8,0.5,2.6c0.2-1.4,0.4-2.2,0.5-2.6L193.1,264.1z M187.6,258.1c0.9,0.3,2,0.8,3,1.6l2.2-0.9l0-0.1l-5.3-1.9
									C187.6,257.3,187.6,257.7,187.6,258.1z"/>
							</g>
						</g>
					</g>
					<g>
						<path class="st2" d="M889,458l-8.3-41.3l-1.1-0.2c-3.9-0.6-7.4-2.8-9.7-6l-0.9-1.3l0,0l-0.5-1.2c-0.9-1.9-1.3-4-1.3-6.1
							c0-1.8,0.3-3.6,1-5.3l0.6-1.5l0,0l1-1.5c2.3-3.3,5.8-5.6,9.8-6.3l1.2-0.2l0,0l1.6,0c3.9,0.1,7.5,1.7,10.2,4.5
							c2.7,2.8,4.2,6.5,4.2,10.3c0,5-2.5,9.7-6.7,12.4L889,415l17.6,42.9L889,458L889,458z M823.6,458l0.9-8.5l-0.7-0.5
							c-3.3-2.6-5.2-6.5-5.2-10.7c0-2.8,0.8-5.5,2.4-7.8l0.8-1.2l0,0l1-0.9c1-0.9,2.1-1.7,3.3-2.3l0.8-0.4l2.1-20.9l-1.3-0.4
							c-6.2-1.9-10.4-7.6-10.4-14.2c0-0.5,0-1,0.1-1.6l0.3-2.6l0.3-0.1l0.2-0.7c0.1-0.1,0.1-0.3,0.2-0.4l0.2-0.6l-0.2-0.6
							c-0.7-1.7-1-3.5-1-5.4c0-0.4,0-0.8,0.1-1.3l-3-0.8l3.1-0.1c0.4-2.6,1.5-5.1,3.1-7.1l1.4-1.7l0.2,0l0.7-0.5
							c2.3-1.8,5-2.9,7.9-3.2l1.4-0.1l1.4,0.1c2.9,0.3,5.6,1.4,7.8,3.2l0.7,0.5l0.2-0.1l1.4,1.7c1.6,2,2.7,4.4,3.1,7l0.1,0.6
							l0.1,0.7c0,0.4,0,0.8,0,1.1c0,1.8-0.3,3.7-1,5.4l-0.2,0.6l0.2,0.6c0.1,0.2,0.1,0.3,0.2,0.5l0.2,0.7l0.2,0.1l0.3,2.6
							c0.1,0.5,0.1,1,0.1,1.5c0,6.6-4.5,12.5-10.9,14.3l-1.3,0.4l2.1,20.6l0.8,0.4c1.4,0.6,2.6,1.4,3.7,2.5l1,0.9l0,0l0.8,1.2
							c1.6,2.3,2.5,5,2.5,7.8c0,4.4-2.1,8.4-5.6,11l-0.8,0.5l0.8,8.1l0,0H840L823.6,458L823.6,458z M757.5,458l17.7-43l-1.1-0.7
							c-4.1-2.8-6.6-7.4-6.6-12.3c0-8,6.3-14.5,14.3-14.8l1.6-0.1l0,0l1.2,0.2c4,0.6,7.6,2.9,9.9,6.2l1.1,1.5l0,0l0.6,1.5
							c0.7,1.7,1,3.5,1,5.4c0,2.2-0.5,4.3-1.4,6.2l-0.6,1.2l0,0l-0.9,1.3c-2.3,3.2-5.9,5.4-9.8,6l-1.1,0.2L775,458L757.5,458
							L757.5,458z M801,389.6l1.6,2.5l-7,2.8L801,389.6z M861.4,392.1l1.6-2.5l5.3,5.3L861.4,392.1z M884.8,365.2
							c-0.2,0-0.4,0-0.6,0l-1.4-0.1v0l-1.4-0.3c-3.6-0.8-6.7-3-8.8-6.1l-0.9-1.3l-0.6-1.5c-0.7-1.8-1.1-3.6-1.1-5.6
							c0-2.5,0.7-5.1,1.9-7.3l0.7-1.2l0.9-1.1c2.8-3.3,6.9-5.2,11.3-5.2c8.2,0,14.8,6.6,14.8,14.8
							C899.6,358.5,893,365.2,884.8,365.2z M779.5,365.2c-8.2,0-14.8-6.6-14.8-14.8s6.7-14.8,14.8-14.8c4.3,0,8.4,1.9,11.2,5.2
							l0.9,1.1l0.7,1.2c1.3,2.2,2,4.8,2,7.4c0,1.9-0.4,3.8-1.1,5.6l-0.6,1.5l-0.9,1.3c-2.1,3.1-5.3,5.2-9,6l-1.4,0.3l-1.6,0
							C779.6,365.2,779.5,365.2,779.5,365.2z M793.1,357.8l7.1,2.4l-1.5,2.6L793.1,357.8z M863.8,360.1l7.1-2.4l-5.7,4.9
							L863.8,360.1z M830.7,330.1c-4.4-0.4-8.3-2.7-10.8-6.3l-0.9-1.3l0,0l-0.5-1.2c-0.8-1.9-1.2-3.9-1.2-5.9
							c0-8.2,6.7-14.8,14.8-14.8s14.8,6.6,14.8,14.8c0,2.1-0.4,4.1-1.3,6l-0.5,1.2l0,0l-0.9,1.3c-2.5,3.6-6.4,5.9-10.8,6.3l-1.4,0.1
							L830.7,330.1z"/>
						<g>
							<g>
								<path class="st2" d="M832.2,331.8c-9.1,0-16.4-7.4-16.4-16.4c0-9.1,7.4-16.4,16.4-16.4s16.4,7.4,16.4,16.4
									S841.2,331.8,832.2,331.8z M832.2,302c-7.3,0-13.3,6-13.3,13.3c0,7.3,6,13.3,13.3,13.3s13.3-6,13.3-13.3
									C845.5,308,839.5,302,832.2,302z"/>
							</g>
							<g>
								<path class="st2" d="M779.6,366.8c-9.1,0-16.4-7.4-16.4-16.4c0-9.1,7.4-16.4,16.4-16.4s16.4,7.4,16.4,16.4
									C796,359.4,788.6,366.8,779.6,366.8z M779.6,337c-7.3,0-13.3,6-13.3,13.3s6,13.3,13.3,13.3c7.3,0,13.3-6,13.3-13.3
									S786.9,337,779.6,337z"/>
							</g>
							<g>
								<path class="st2" d="M782.3,418.3c-9.1,0-16.4-7.4-16.4-16.4s7.4-16.4,16.4-16.4s16.4,7.4,16.4,16.4
									S791.4,418.3,782.3,418.3z M782.3,388.6c-7.3,0-13.3,6-13.3,13.3s6,13.3,13.3,13.3c7.3,0,13.3-6,13.3-13.3
									S789.7,388.6,782.3,388.6z"/>
							</g>
							<g>
								<path class="st2" d="M884.9,366.8c-9.1,0-16.4-7.4-16.4-16.4c0-9.1,7.4-16.4,16.4-16.4s16.4,7.4,16.4,16.4
									C901.4,359.4,894,366.8,884.9,366.8z M884.9,337c-7.3,0-13.3,6-13.3,13.3s6,13.3,13.3,13.3c7.3,0,13.3-6,13.3-13.3
									S892.2,337,884.9,337z"/>
							</g>
							<g>
								<path class="st2" d="M882.1,418.3c-9.1,0-16.4-7.4-16.4-16.4s7.4-16.4,16.4-16.4c9.1,0,16.4,7.4,16.4,16.4
									S891.2,418.3,882.1,418.3z M882.1,388.6c-7.3,0-13.3,6-13.3,13.3s6,13.3,13.3,13.3c7.3,0,13.3-6,13.3-13.3
									S889.5,388.6,882.1,388.6z"/>
							</g>
							<g>
								<path class="st2" d="M832.2,406.7c-9.1,0-16.4-7.4-16.4-16.4c0-9.1,7.4-16.4,16.4-16.4s16.4,7.4,16.4,16.4
									C848.6,399.3,841.2,406.7,832.2,406.7z M832.2,376.9c-7.3,0-13.3,6-13.3,13.3s6,13.3,13.3,13.3s13.3-6,13.3-13.3
									C845.5,382.9,839.5,376.9,832.2,376.9z"/>
							</g>
							<g>
								<path class="st2" d="M845.8,385.8L845.8,385.8c-0.6,0-1.2-0.4-1.4-0.9c-2.1-4.8-6.9-8-12.2-8s-10.1,3.1-12.2,8
									c-0.3,0.6-0.8,0.9-1.4,0.9c-0.6,0-1.2-0.4-1.4-0.9c-0.9-2.1-1.4-4.3-1.4-6.6c0-9.1,7.4-16.4,16.4-16.4s16.4,7.4,16.4,16.4
									c0,2.3-0.5,4.5-1.4,6.6C847,385.5,846.4,385.8,845.8,385.8z M832.2,365c-7.3,0-13.3,6-13.3,13.3c0,0.7,0.1,1.4,0.2,2
									c3.1-4.1,7.9-6.6,13.1-6.6s10.1,2.5,13.2,6.6c0.1-0.7,0.2-1.4,0.2-2C845.5,371,839.5,365,832.2,365z"/>
							</g>
							<g>
								<path class="st2" d="M832.2,365c-0.9,0-1.6-0.7-1.6-1.6v-33.3c0-0.9,0.7-1.6,1.6-1.6s1.6,0.7,1.6,1.6v33.3
									C833.8,364.3,833,365,832.2,365z"/>
							</g>
							<g>
								<path class="st2" d="M795.6,396.6c-0.5,0-1-0.3-1.3-0.7c-0.4-0.6-0.3-1.4,0.2-2l17.6-17.6L792,358.8c-0.6-0.5-0.7-1.3-0.3-2
									s1.1-0.9,1.9-0.7l28.4,9.4c0.8,0.3,1.3,1.2,1,2c-0.3,0.8-1.2,1.3-2,1l-21-6.9l15.5,13.5c0.3,0.3,0.5,0.7,0.5,1.1
									c0,0.4-0.2,0.9-0.5,1.2l-13.3,13.3l14.5-5.9c0.8-0.3,1.7,0.1,2,0.9s-0.1,1.7-0.9,2l-21.7,8.9
									C796,396.6,795.8,396.6,795.6,396.6z"/>
							</g>
							<g>
								<path class="st2" d="M791.7,343.3c-0.5,0-1-0.2-1.3-0.7c-0.5-0.7-0.3-1.7,0.4-2.2l27.4-19.4c0.7-0.5,1.7-0.3,2.2,0.4
									c0.5,0.7,0.3,1.7-0.4,2.2l-27.4,19.4C792.3,343.2,792,343.3,791.7,343.3z"/>
							</g>
							<g>
								<path class="st2" d="M783.4,388.6c-0.8,0-1.5-0.6-1.6-1.4l-2-21.8c-0.1-0.9,0.6-1.6,1.4-1.7c0.9-0.1,1.6,0.6,1.7,1.4l2,21.8
									c0.1,0.9-0.6,1.6-1.4,1.7C783.5,388.6,783.5,388.6,783.4,388.6z"/>
							</g>
							<g>
								<path class="st2" d="M868.7,396.6c-0.2,0-0.4,0-0.6-0.1l-21.7-8.9c-0.8-0.3-1.2-1.2-0.9-2c0.3-0.8,1.2-1.2,2-0.9l14.5,5.9
									l-13.3-13.3c-0.3-0.3-0.5-0.7-0.5-1.2s0.2-0.8,0.5-1.1l15.5-13.5l-21,6.9c-0.8,0.3-1.7-0.2-2-1c-0.3-0.8,0.2-1.7,1-2
									l28.4-9.4c0.7-0.2,1.5,0.1,1.9,0.7c0.4,0.6,0.2,1.5-0.3,2l-20.1,17.5l17.6,17.6c0.5,0.5,0.6,1.4,0.2,2
									C869.7,396.4,869.2,396.6,868.7,396.6z"/>
							</g>
							<g>
								<path class="st2" d="M872.6,343.3c-0.3,0-0.6-0.1-0.9-0.3l-27.4-19.4c-0.7-0.5-0.9-1.5-0.4-2.2c0.5-0.7,1.5-0.9,2.2-0.4
									l27.4,19.4c0.7,0.5,0.9,1.5,0.4,2.2C873.5,343.1,873.1,343.3,872.6,343.3z"/>
							</g>
							<g>
								<path class="st2" d="M880.8,388.6c0,0-0.1,0-0.1,0c-0.9-0.1-1.5-0.8-1.4-1.7l2-21.8c0.1-0.9,0.8-1.5,1.7-1.4
									c0.9,0.1,1.5,0.8,1.4,1.7l-2,21.8C882.3,388,881.6,388.6,880.8,388.6z"/>
							</g>
						</g>
					</g>
					<g>
						<path class="st2" d="M127.2,458l2.4-96.9H69.3l2.4,96.9H50.3l3.8-96.9H34.7l-1.9-12.7h21.8l0.7-18.5H34.7l-1.9-9H26l-8-24.2
							c0.8,0.5,6.7,3.9,18.8,7.3c11.9,3.3,32.3,7.3,62.6,7.3c30,0,50.4-3.9,62.3-7.2c12.3-3.4,18.2-6.9,19.1-7.4l-8,24.2H166l-1.9,9
							h-20.6l0.7,18.5H166l-1.9,12.7h-19.4l3.8,96.9L127.2,458L127.2,458z M129.9,348.5l0.5-18.5H68.5l0.5,18.5h19.8l0.5-17.7
							l21.1-0.8l-0.2,18.5H129.9z"/>
						<g>
							<g>
								<g>
									<path class="st2" d="M110.2,350H88.8c-0.9,0-1.6-0.7-1.6-1.6V330c0-0.9,0.7-1.6,1.6-1.6h21.4c0.9,0,1.6,0.7,1.6,1.6v18.4
										C111.8,349.3,111.1,350,110.2,350z M90.4,346.9h18.3v-15.3H90.4V346.9z"/>
								</g>
								<g>
									<path class="st2" d="M54.2,362.7H34.8c-0.8,0-1.4-0.6-1.5-1.3l-1.9-12.8c-0.1-0.5,0.1-0.9,0.4-1.3c0.3-0.3,0.7-0.5,1.2-0.5
										h21.8c0.4,0,0.8,0.2,1.1,0.5c0.3,0.3,0.5,0.7,0.4,1.1l-0.5,12.8C55.7,362.1,55,362.7,54.2,362.7z M36.1,359.6h16.5l0.4-9.6
										H34.7L36.1,359.6z"/>
								</g>
								<g>
									<path class="st2" d="M164.2,331.6H34.8c-0.7,0-1.4-0.5-1.5-1.2l-1.9-9c-0.1-0.5,0-0.9,0.3-1.3s0.7-0.6,1.2-0.6h133.2
										c0.5,0,0.9,0.2,1.2,0.6c0.3,0.4,0.4,0.8,0.3,1.3l-1.9,9C165.6,331,165,331.6,164.2,331.6z M36.1,328.4H163l1.2-5.8H34.8
										L36.1,328.4z"/>
								</g>
								<g>
									<path class="st2" d="M71.8,459.6H50.4c-0.4,0-0.8-0.2-1.1-0.5c-0.3-0.3-0.5-0.7-0.4-1.1l5-128c0-0.8,0.7-1.5,1.6-1.5h13.2
										c0.8,0,1.5,0.7,1.6,1.5l3.1,128c0,0.4-0.1,0.8-0.4,1.1C72.6,459.4,72.2,459.6,71.8,459.6z M52,456.5h18.2l-3.1-124.9H56.9
										L52,456.5z"/>
								</g>
								<g>
									<path class="st2" d="M164.2,362.7h-19.4c-0.8,0-1.5-0.7-1.6-1.5l-0.5-12.8c0-0.4,0.1-0.8,0.4-1.1c0.3-0.3,0.7-0.5,1.1-0.5
										h21.8c0.5,0,0.9,0.2,1.2,0.5c0.3,0.3,0.4,0.8,0.4,1.3l-1.9,12.8C165.7,362.2,165,362.7,164.2,362.7z M146.3,359.6h16.5
										l1.4-9.6H146L146.3,359.6z"/>
								</g>
								<g>
									<path class="st2" d="M129.6,362.7H69.4c-0.8,0-1.5-0.7-1.6-1.5l-0.3-12.8c0-0.4,0.1-0.8,0.4-1.1s0.7-0.5,1.1-0.5h60.8
										c0.4,0,0.8,0.2,1.1,0.5s0.5,0.7,0.4,1.1l-0.3,12.8C131.2,362.1,130.5,362.7,129.6,362.7z M70.9,359.6h57.1l0.2-9.6H70.7
										L70.9,359.6z"/>
								</g>
								<g>
									<path class="st2" d="M173,322.6H26c-0.7,0-1.3-0.4-1.5-1.1l-8-24.3c-0.2-0.6,0-1.3,0.5-1.7c0.5-0.4,1.3-0.4,1.8-0.1
										c0.1,0,5.8,3.6,18.5,7.2c11.8,3.3,32.1,7.2,62.2,7.2c57.7,0,80.4-14.3,80.7-14.4c0.6-0.4,1.3-0.3,1.8,0.1s0.7,1.1,0.5,1.7
										l-8,24.3C174.3,322.1,173.7,322.6,173,322.6z M27.2,319.5h144.7l6.5-19.6c-3,1.4-8.1,3.5-15.6,5.6
										c-12,3.4-32.7,7.4-63.2,7.4s-51.3-4-63.2-7.4c-7.4-2.1-12.5-4.2-15.6-5.6L27.2,319.5z"/>
								</g>
								<g>
									<path class="st2" d="M148.6,459.6h-21.4c-0.4,0-0.8-0.2-1.1-0.5c-0.3-0.3-0.5-0.7-0.4-1.1l3.1-128c0-0.9,0.7-1.5,1.6-1.5
										h13.2c0.8,0,1.5,0.7,1.6,1.5l5,128c0,0.4-0.1,0.8-0.4,1.1C149.5,459.4,149.1,459.6,148.6,459.6z M128.8,456.5H147
										l-4.9-124.9h-10.2L128.8,456.5z"/>
								</g>
							</g>
						</g>
					</g>
					<g>
						<path class="st2" d="M-174.4,457.5L-174.4,457.5h-0.2h-14.3v-16.3h14.5v-13.8h5.1l5-6.9l-19.3-40.5l3.7-0.6
							c3.4-0.5,7.1-0.8,10.9-0.8c12.5,0,24,2.8,28.4,4l2.4,0.6l-0.3-2.4c-1.4-9.8-2.2-15.4-2.4-16.7l-0.4-3.3l3.3,0.2
							c15.4,0.9,27.9,5.6,32.5,7.5l2.8,1.2l-0.6-3c-2.6-13.8-4.6-23.6-5.9-28.9l-0.9-4.1l4.1,0.7c19.8,3.4,37.5,12.7,52.5,27.7
							c11.2,11.2,18.1,22.8,21.2,28.8l2.5,4.8l3.4-6.9l1.1,1.7l3-1.2C-4,383,9.7,380,22.2,379.8c0.4,0,0.8,0,1.2,0
							c4.1,0,8.5,0.4,13.3,1.2l4,0.7l-2,3.5c-3.1,5.2-7.3,12.8-10.4,18.2l-1,1.8l2,0.6c6.2,1.8,11.7,4.1,14.4,5.4l0.9,0.4l2.6-1.2
							c5.4-2.4,19.8-7.9,37.6-7.9c2.6,0,5.3,0.1,7.9,0.4l6.3,0.6l-4.7,4.2c-11.6,10.6-30,25.8-37.4,31.8l0.6,3.1h15.3v-4l7.2,2.3
							l11.7,16.6L-174.4,457.5L-174.4,457.5z"/>
						<g>
							<g>
								<path class="st2" d="M4.5,438.5C4.5,438.5,4.5,438.5,4.5,438.5h-43.2c-0.4,0-0.9-0.2-1.1-0.5c-0.3-0.3-0.4-0.7-0.4-1.2
									l0.2-3c0.5-7.2,2.6-25.7,10.1-41.1l2.2-4.5c0.2-0.5,0.8-0.8,1.3-0.9c0.6,0,1.1,0.2,1.4,0.7l30.7,48c0.2,0.3,0.3,0.6,0.3,0.9
									C6.1,437.8,5.4,438.5,4.5,438.5z M-37,435.3H1.6L-26.1,392l-1,2c-7.3,15-9.3,33-9.8,40L-37,435.3z"/>
							</g>
							<g>
								<path class="st2" d="M11.3,438.5c-0.2,0-0.4,0-0.6-0.1c-0.8-0.3-1.2-1.2-0.9-2l0.7-1.8c0.6-1.5,4-9.6,8.4-17.6l0.3-0.5
									l-0.2-0.6c-2.1-5.2-3.7-9.2-4.8-11.8c-0.2-0.5-0.2-1,0.1-1.5c0.3-0.4,0.8-0.7,1.3-0.7c0,0,0,0,0,0c2.9,0,6.3,0.5,10,1.3
									l0.9,0.2l0.5-0.8c3.1-5.4,7.3-13,10.4-18.2l0.9-1.6l-1.8-0.3c-5.1-0.9-9.8-1.3-14.2-1.2c-12.3,0.2-25.9,3.1-44,9.5l-3.1,1.3
									c-0.8,0.3-1.7-0.1-2-0.9c-0.3-0.8,0.1-1.7,0.9-2l3.1-1.3c0,0,0,0,0.1,0c18.4-6.4,32.3-9.4,45-9.6c4.6-0.1,9.5,0.3,14.8,1.2
									l4,0.7c0.5,0.1,0.9,0.4,1.2,0.9c0.2,0.5,0.2,1-0.1,1.5l-2.1,3.5c-3.1,5.2-7.3,12.8-10.4,18.2l-1,1.8c-0.3,0.6-1,0.9-1.7,0.8
									l-2.1-0.5c-2.5-0.6-4.8-1-6.9-1.1c1,2.5,2.3,5.7,3.9,9.6l0.5,1.2c0.2,0.4,0.1,0.9-0.1,1.3l-0.6,1.2
									c-4.3,7.9-7.6,15.8-8.2,17.3l-0.7,1.8C12.5,438.1,11.9,438.5,11.3,438.5z"/>
							</g>
						</g>
					</g>
				</g>
			</g>
		</g>
	</g>
</g>
</svg>
