<?xml version="1.0" encoding="utf-8"?>
<!-- Generator: Adobe Illustrator 21.0.0, SVG Export Plug-In . SVG Version: 6.00 Build 0)  -->
<svg version="1.1" id="Layer_1" xmlns="http://www.w3.org/2000/svg" xmlns:xlink="http://www.w3.org/1999/xlink" x="0px" y="0px"
	 viewBox="0 0 1602 909.7" style="enable-background:new 0 0 1602 909.7;" xml:space="preserve">
<style type="text/css">
	.st0{fill:#1035A0;}
	.st1{opacity:0.2;fill:url(#SVGID_1_);}
	.st2{fill:#ADC0D0;}
	.st3{fill:#5B6977;}
	.st4{fill:#A3CBE5;}
	.st5{fill:#F89C69;}
	.st6{fill:#F9A873;}
	.st7{fill:#FBB686;}
	.st8{fill:#B9E5FB;}
	.st9{fill:#060115;}
	.st10{fill:#1B181A;}
	.st11{fill:#08041E;}
	.st12{fill:#020009;}
	.st13{fill:#0F0A2C;}
	.st14{fill:#15123A;}
	.st15{fill:#08051D;}
	.st16{fill:#2B254D;}
	.st17{fill:#3A0F00;}
	.st18{fill:#522915;}
	.st19{fill:#310B00;}
	.st20{fill:#431A00;}
	.st21{fill:#0C0825;}
	.st22{fill:#310A00;}
	.st23{fill:#110B14;}
	.st24{fill:#A97C50;}
	.st25{fill:#D4EFFC;}
	.st26{fill:#8B5E3C;}
	.st27{fill:#2B282F;}
	.st28{fill:#C7C6C1;}
	.st29{fill:#603913;}
	.st30{fill:#0F0C2C;}
	.st31{fill:#754C29;}
	.st32{fill:url(#SVGID_2_);}
	.st33{fill:#06E0A4;}
	.st34{fill:url(#SVGID_3_);}
	.st35{fill:#FABB9A;}
	.st36{opacity:0.2;fill:#4672F0;}
	.st37{fill:#4672F0;}
	.st38{fill:none;stroke:#4672F0;stroke-width:6;stroke-miterlimit:10;}
	.st39{fill:none;stroke:#4672F0;stroke-width:18;stroke-miterlimit:10;}
	.st40{fill:none;stroke:#4672F0;stroke-width:4;stroke-miterlimit:10;}
	.st41{fill:url(#SVGID_4_);}
	.st42{fill:#FFFFFF;}
	.st43{fill:#EDF1FD;}
	.st44{clip-path:url(#SVGID_6_);fill:url(#SVGID_7_);}
	.st45{opacity:5.000000e-02;clip-path:url(#SVGID_6_);fill:#FFFFFF;}
	.st46{fill:#57BE97;}
	.st47{fill:#071747;}
	.st48{fill:#304586;}
	.st49{fill:none;}
	.st50{fill:#999999;}
	.st51{fill:#06133A;}
	.st52{fill:#184EED;}
	.st53{opacity:0.75;}
	.st54{clip-path:url(#SVGID_9_);fill:#184EED;}
	.st55{opacity:5.000000e-02;clip-path:url(#SVGID_9_);fill:#FFFFFF;}
	.st56{fill:#FDFFFF;}
	.st57{fill:#10E0FA;}
	.st58{fill:#FE78B7;}
	.st59{fill:#A2B8F8;}
	.st60{fill:#7495F4;}
	.st61{fill:url(#SVGID_10_);}
	.st62{opacity:0.5;fill:none;stroke:#071747;stroke-miterlimit:10;}
	.st63{opacity:0.8;}
	.st64{opacity:0.8;fill:#817E93;}
	.st65{fill:none;stroke:#E6E6E6;stroke-miterlimit:10;}
	.st66{opacity:5.000000e-02;fill:#0B153A;}
	.st67{fill:#FFFFFF;stroke:#5E6790;stroke-width:0.6989;stroke-miterlimit:10;}
	.st68{opacity:0.2;fill:#1A1F4E;}
	.st69{fill:#233E96;}
	.st70{opacity:0.6;fill:#0B153A;}
	.st71{fill:#F2F5F9;}
	.st72{fill:#F1F8F8;}
	.st73{opacity:0.85;fill:#1A1F4E;}
	.st74{fill:#57C7E4;}
	.st75{opacity:0.75;fill:#06133A;}
	.st76{fill:#081B50;}
	.st77{fill:#1B4F7F;}
	.st78{fill-rule:evenodd;clip-rule:evenodd;fill:#DB6262;}
	.st79{fill-rule:evenodd;clip-rule:evenodd;fill:#53A892;}
	.st80{fill-rule:evenodd;clip-rule:evenodd;fill:#FEFEFE;}
	.st81{fill-rule:evenodd;clip-rule:evenodd;fill:#A7C2E7;}
	.st82{fill-rule:evenodd;clip-rule:evenodd;fill:#879EC0;}
	.st83{fill-rule:evenodd;clip-rule:evenodd;fill:#7C7C7C;}
	.st84{fill-rule:evenodd;clip-rule:evenodd;fill:#F99E3F;}
	.st85{fill-rule:evenodd;clip-rule:evenodd;fill:#E4883A;}
	.st86{fill-rule:evenodd;clip-rule:evenodd;fill:#B96F2D;}
	.st87{fill-rule:evenodd;clip-rule:evenodd;fill:#E6E6E6;}
	.st88{fill-rule:evenodd;clip-rule:evenodd;fill:#DDA46D;}
	.st89{fill-rule:evenodd;clip-rule:evenodd;fill:#F2C99C;}
	.st90{fill-rule:evenodd;clip-rule:evenodd;fill:#FBB03B;}
	.st91{fill-rule:evenodd;clip-rule:evenodd;fill:#1B4F7F;}
	.st92{fill-rule:evenodd;clip-rule:evenodd;fill:#FFFFFF;}
	.st93{fill:#A7C2E7;}
	
		.st94{fill:none;stroke:#A7C2E7;stroke-width:3;stroke-linecap:round;stroke-linejoin:round;stroke-miterlimit:10;stroke-dasharray:7;}
	.st95{fill-rule:evenodd;clip-rule:evenodd;fill:#6BC06F;}
	.st96{fill-rule:evenodd;clip-rule:evenodd;fill:#A8DAAA;}
	.st97{fill-rule:evenodd;clip-rule:evenodd;fill:#FDFDFD;}
	.st98{fill-rule:evenodd;clip-rule:evenodd;fill:#DE8527;}
	.st99{fill-rule:evenodd;clip-rule:evenodd;fill:#B3B3B3;}
	.st100{fill-rule:evenodd;clip-rule:evenodd;fill:#CCCCCC;}
	.st101{fill-rule:evenodd;clip-rule:evenodd;fill:#FCB245;}
	.st102{fill-rule:evenodd;clip-rule:evenodd;fill:#FFE5AF;}
	.st103{fill-rule:evenodd;clip-rule:evenodd;fill:#FEC878;}
	.st104{fill-rule:evenodd;clip-rule:evenodd;fill:#686868;}
	.st105{fill-rule:evenodd;clip-rule:evenodd;fill:#E84C40;}
	.st106{fill-rule:evenodd;clip-rule:evenodd;fill:#0071C1;}
	.st107{fill-rule:evenodd;clip-rule:evenodd;fill:#8E4323;}
	.st108{fill-rule:evenodd;clip-rule:evenodd;fill:#C79C68;}
	.st109{fill-rule:evenodd;clip-rule:evenodd;fill:#F77B55;}
	.st110{fill-rule:evenodd;clip-rule:evenodd;fill:#318CCD;}
	.st111{fill-rule:evenodd;clip-rule:evenodd;fill:#005A83;}
	.st112{fill-rule:evenodd;clip-rule:evenodd;fill:#C93237;}
	.st113{fill-rule:evenodd;clip-rule:evenodd;fill:#FCB238;}
	.st114{fill-rule:evenodd;clip-rule:evenodd;fill:#03386E;}
	.st115{fill-rule:evenodd;clip-rule:evenodd;fill:#9A8AB3;}
	.st116{fill-rule:evenodd;clip-rule:evenodd;fill:#FFBF2D;}
	.st117{fill-rule:evenodd;clip-rule:evenodd;fill:#EC9492;}
	.st118{fill-rule:evenodd;clip-rule:evenodd;fill:#02465D;}
	.st119{fill-rule:evenodd;clip-rule:evenodd;fill:#40954E;}
	.st120{fill:#FFC344;}
	.st121{fill-rule:evenodd;clip-rule:evenodd;fill:#F9BF92;}
	.st122{fill-rule:evenodd;clip-rule:evenodd;fill:#F9D4B4;}
	.st123{fill-rule:evenodd;clip-rule:evenodd;fill:#FBFFFC;}
	.st124{fill-rule:evenodd;clip-rule:evenodd;fill:#3C4650;}
	.st125{fill-rule:evenodd;clip-rule:evenodd;fill:#3F3E43;}
	.st126{fill-rule:evenodd;clip-rule:evenodd;fill:#EE6249;}
	.st127{fill-rule:evenodd;clip-rule:evenodd;fill:#FFC344;}
	.st128{fill-rule:evenodd;clip-rule:evenodd;fill:#3F3F41;}
	.st129{fill-rule:evenodd;clip-rule:evenodd;fill:#CF9E37;}
	.st130{fill-rule:evenodd;clip-rule:evenodd;fill:#4FB761;}
	.st131{fill:#4FB761;}
	.st132{fill-rule:evenodd;clip-rule:evenodd;fill:#2A7BB1;}
	.st133{fill-rule:evenodd;clip-rule:evenodd;fill:#22648F;}
	.st134{fill-rule:evenodd;clip-rule:evenodd;fill:#826EA1;}
	.st135{fill:none;stroke:#D1D3D4;stroke-width:15;stroke-miterlimit:10;}
	.st136{fill:none;stroke:#1035A0;stroke-width:15;stroke-linecap:round;stroke-linejoin:round;stroke-miterlimit:10;}
	.st137{opacity:0.2;}
	.st138{fill:url(#SVGID_15_);}
	.st139{fill:#405DB3;}
	.st140{fill:#7086C6;}
	.st141{fill:#9FAED9;}
	.st142{fill:#CFD7EC;}
	.st143{fill:#D1DCFB;}
	.st144{fill:#38E6B6;}
	.st145{fill:#6AECC8;}
	.st146{fill:#9BF3DB;}
	.st147{fill:url(#SVGID_16_);}
	.st148{fill:#CDF9ED;}
	.st149{fill:#CDE5FB;}
	.st150{fill:#9BCCF8;}
	.st151{fill:#69B2F4;}
	.st152{fill:#3799F0;}
	.st153{fill:#057FED;}
	.st154{fill:url(#SVGID_17_);}
	.st155{fill:#F26922;}
	.st156{fill:#E81E25;}
	.st157{fill:#0CC189;}
	.st158{fill:#FED3AC;}
	.st159{fill:#FCBC83;}
	.st160{fill:#5F0F40;}
	.st161{fill:#F04E23;}
	.st162{fill:#D0ECF4;}
	.st163{fill:#00BBD6;}
	.st164{fill:#C6D8DF;}
	.st165{fill:#E5F2F8;}
	.st166{fill:#EDF5F6;}
	.st167{fill:#E8F6FF;}
	.st168{fill:#081723;}
	.st169{fill:#13202D;}
	.st170{fill:#071421;}
	.st171{fill:#1B2734;}
	.st172{fill:#0A2F60;}
	.st173{fill:#C1C0BF;}
	.st174{fill:#EAE9E8;}
	.st175{fill:#A9A19B;}
	.st176{fill:#222E3C;}
	.st177{fill:#E4E1DF;}
	.st178{fill:#0A1C29;}
	.st179{fill:#6B6B6B;}
	.st180{fill:#CCE6F3;}
	.st181{fill:#F9A36D;}
	.st182{fill:#706F6F;}
	.st183{fill:#F89B61;}
	.st184{fill:#010300;}
	.st185{fill:#22241D;}
	.st186{fill:#A09A9A;}
	.st187{fill:#7C7A7A;}
	.st188{fill:#666565;}
	.st189{fill:#14160E;}
	.st190{fill:#0F1C29;}
	.st191{fill:#2D2729;}
	.st192{fill:#191316;}
	.st193{fill:#16212E;}
	.st194{fill:#939198;}
	.st195{fill:#E9E6ED;}
	.st196{fill:#B3B1B6;}
	.st197{fill:#BDCEED;}
	.st198{fill:#92A0B6;}
	.st199{fill:#778B98;}
	.st200{fill:#A1BDE1;}
	.st201{fill:#627F8C;}
	.st202{fill:#7A91AA;}
	.st203{fill:#DACAD5;}
	.st204{fill:#857984;}
	.st205{fill:#A397A0;}
	.st206{fill:#D3E1DD;}
	.st207{fill:#818C86;}
	.st208{fill:#A0AAA7;}
	.st209{fill:#252228;}
	.st210{fill:#13153F;}
	.st211{fill:#0F0B12;}
	.st212{fill:#07062B;}
	.st213{fill:#24284D;}
	.st214{fill:#373860;}
	.st215{fill:#282650;}
	.st216{fill:#3F3C6E;}
	.st217{fill:#242333;}
	.st218{fill:#01001D;}
	.st219{fill:#060428;}
	.st220{fill:#3A3764;}
	.st221{fill:#090931;}
	.st222{fill:#BC7227;}
	.st223{fill:#DE9943;}
	.st224{fill:#A3692B;}
	.st225{fill:#151945;}
	.st226{fill:#111338;}
	.st227{fill:#060629;}
	.st228{fill:#633803;}
	.st229{fill:#9EABC0;}
	.st230{fill:#CD3A1D;}
	.st231{fill:#83F2D0;}
	.st232{fill:#BFA3A3;}
	.st233{fill:#AF9F8F;}
	.st234{fill:#F3B478;}
	.st235{fill:#F4BE8D;}
	.st236{fill:#F3AE70;}
	.st237{fill:#F4BB85;}
	.st238{fill:#90001A;}
	.st239{fill:#B299C9;}
	.st240{fill:#A34638;}
	.st241{fill:#D7C4A6;}
	.st242{fill:#F5DFB9;}
	.st243{fill:#F3D296;}
	.st244{fill:#8D7F6B;}
	.st245{fill:#002836;}
	.st246{fill:#003645;}
	.st247{fill:#6D7E8D;}
	.st248{fill:#87929F;}
	.st249{fill:#0F4C5C;}
	.st250{fill:#456373;}
	.st251{fill:#758492;}
	.st252{fill:#9DA5B0;}
	.st253{fill:#B9B6B3;}
	.st254{fill:#FDE8C2;}
	.st255{fill:#FDC99A;}
	.st256{fill:#979189;}
	.st257{fill:#FDCFA3;}
	.st258{fill:#FED6B0;}
	.st259{fill:#E1DACF;}
	.st260{fill:#AD5042;}
	.st261{fill:#9A031E;}
	.st262{fill:#C9C9C9;}
	.st263{fill:#FFF6E7;}
	.st264{fill:#FEDAB9;}
	.st265{fill:#CAC0D3;}
	.st266{fill:#CA7E6C;}
	.st267{fill:#854A93;}
	.st268{fill:#582B63;}
	.st269{fill:#DEB5E8;}
	.st270{fill:#CD97D9;}
	.st271{fill:#9F78A8;}
	.st272{fill:#BC74CC;}
	.st273{fill:#E1E7E1;}
	.st274{fill:#5FC281;}
	.st275{fill:#AFD1B4;}
	.st276{fill:#001926;}
	.st277{fill:#AFB5BD;}
	.st278{fill:#053D4D;}
	.st279{fill:#9C887A;}
	.st280{fill:#FFEED3;}
	.st281{fill:#F1995B;}
	.st282{fill:#FFF9F1;}
	.st283{fill:#F9E0C7;}
	.st284{fill:#FDEBE7;}
	.st285{fill:#D8BDAA;}
	.st286{fill:#D19871;}
	.st287{fill:#FCF4EF;}
	.st288{fill:#FFBE9F;}
	.st289{fill:#FEA985;}
	.st290{fill:#8E7867;}
	.st291{fill:#C5AB97;}
	.st292{fill:#FFB18E;}
	.st293{fill:#5F7584;}
	.st294{fill:#B6BAC2;}
	.st295{fill:#5B7FAD;}
	.st296{fill:#4D0032;}
	.st297{fill:#DBDADD;}
	.st298{fill:#9C9FA8;}
	.st299{fill:#8E8B8B;}
	.st300{fill:#858184;}
	.st301{fill:#6D5659;}
	.st302{fill:#BEBDD9;}
	.st303{fill:#C6C4C4;}
	.st304{fill:#A8A7A7;}
	.st305{fill:#DDDBDB;}
	.st306{fill:#8CD0F3;}
	.st307{fill:#30393A;}
	.st308{fill:#4A2431;}
	.st309{fill:#181D1E;}
	.st310{fill:#1A2425;}
	.st311{fill:#A5DEF9;}
	.st312{fill:#82D3F7;}
	.st313{fill:#D7EBF5;}
	.st314{fill:#242F30;}
	.st315{fill:#9ADBF9;}
	.st316{fill:#2A3334;}
	.st317{fill:#55323C;}
	.st318{fill:#24000E;}
	.st319{fill:#411E2C;}
	.st320{fill:#7CD0F5;}
	.st321{fill:#77ACCA;}
	.st322{fill:#E6C8AC;}
	.st323{fill:#E0BA98;}
	.st324{fill:#011A20;}
	.st325{fill:#263136;}
	.st326{fill:#1D282C;}
	.st327{fill:#41494E;}
	.st328{fill:#04091D;}
	.st329{fill:#071D39;}
	.st330{fill:#070D22;}
	.st331{fill:#0B1010;}
	.st332{fill:#071D38;}
	.st333{fill:#000322;}
	.st334{fill:#C3854E;}
	.st335{fill:#D8AA80;}
	.st336{fill:#0B2A50;}
	.st337{fill:#E3C09F;}
	.st338{fill:#350000;}
	.st339{fill:#9E3A26;}
	.st340{fill:#AA5338;}
	.st341{fill:#641C05;}
	.st342{fill:#7A2914;}
	.st343{fill:#E7A477;}
	.st344{fill:#191919;}
	.st345{fill:#DD966A;}
	.st346{fill:#0D0D0D;}
	.st347{fill:#022237;}
	.st348{fill:#241303;}
	.st349{fill:#571803;}
	.st350{fill:#6D2310;}
	.st351{fill:#090909;}
	.st352{fill:#262262;}
	.st353{fill:#222222;}
	.st354{fill:#33261D;}
	.st355{fill:#121212;}
	.st356{fill:#070707;}
	.st357{fill:#191519;}
	.st358{fill:#101010;}
	.st359{fill:#4A4948;}
	.st360{fill:#373737;}
	.st361{fill:#555352;}
	.st362{fill:#4B6B7B;}
	.st363{fill:#F37029;}
	.st364{fill:#EAEAEC;}
	.st365{fill:#08BF86;}
	.st366{fill:#FAAA65;}
	.st367{fill:#C91A20;}
	.st368{fill:#716C64;}
	.st369{fill:#8D857E;}
	.st370{fill:#8E1618;}
	.st371{fill:#261721;}
	.st372{fill:#FFEBCB;}
	.st373{fill:#FFF2DF;}
	.st374{fill:#FEDA9C;}
	.st375{fill:#ED1C24;}
	.st376{fill:#222B2C;}
	.st377{fill:#FEE4B8;}
	.st378{fill:#374041;}
	.st379{fill:#6FCDF4;}
	.st380{fill:#3F4849;}
	.st381{fill:#99D5EF;}
	.st382{fill:#59A3C2;}
	.st383{fill:#91D7F7;}
	.st384{fill:#3D2A2F;}
	.st385{fill:#283031;}
	.st386{fill:#3B4546;}
	.st387{fill:#2F3839;}
	.st388{fill:#48373A;}
	.st389{fill:#10063A;}
	.st390{fill:#1C174A;}
	.st391{fill:#EADFD3;}
	.st392{fill:#150D43;}
	.st393{fill:#201A51;}
	.st394{fill:#211D51;}
	.st395{fill:#27235A;}
	.st396{fill:#F6874B;}
	.st397{fill:#DCC9B6;}
	.st398{fill:#9F2541;}
	.st399{fill:#0A012E;}
	.st400{fill:#6C0E26;}
	.st401{fill:#8A1C37;}
	.st402{fill:#811932;}
	.st403{fill:#494472;}
	.st404{fill:#2A275F;}
	.st405{fill:#A27449;}
	.st406{fill:#333333;}
	.st407{fill:#4D4D4D;}
	.st408{fill:#3B3A3A;}
	.st409{fill:#B3B3B3;}
	.st410{fill:#8D9091;}
	.st411{fill:#6D6B6A;}
	.st412{fill:#5A5A5A;}
	.st413{fill:#FF892E;}
	.st414{fill:#F0EEE8;}
	.st415{fill:#857E61;}
	.st416{fill:#8B0304;}
	.st417{fill:#6F0000;}
	.st418{fill:#246A7F;}
	.st419{fill:#D3D0BD;}
	.st420{fill:#31373A;}
	.st421{fill:#1D272B;}
	.st422{fill:#FEE3D5;}
	.st423{fill:#165364;}
	.st424{fill:#FCCEB8;}
	.st425{fill:#FAB99D;}
	.st426{fill:#216174;}
	.st427{fill:#C3191C;}
	.st428{fill:#06C68A;}
	.st429{fill:#000005;}
	.st430{fill:#C7EAFB;}
	.st431{fill:#FBA92C;}
	.st432{fill:#F7943F;}
	.st433{fill:#FBB040;}
	.st434{fill:#15192C;}
	.st435{fill:#FFD342;}
	.st436{fill:#D7EFFC;}
	.st437{fill:#1A1E32;}
	.st438{fill:#000107;}
	.st439{fill:#222538;}
	.st440{fill:#FFD02B;}
	.st441{fill:#131524;}
	.st442{fill:#05081C;}
	.st443{fill:#121423;}
	.st444{fill:#F7925C;}
	.st445{fill:#10121B;}
	.st446{fill:#342E30;}
	.st447{fill:#0A0423;}
	.st448{fill:#17133A;}
	.st449{fill:#201E48;}
	.st450{fill:#3B375B;}
	.st451{fill:#0E092C;}
	.st452{fill:#141134;}
	.st453{fill:#131033;}
	.st454{fill:#01000F;}
	.st455{fill:#1B1840;}
	.st456{fill:#353333;}
	.st457{fill:#898888;}
	.st458{fill:#5B5959;}
	.st459{fill:#9E9D9D;}
	.st460{fill:#EF3D29;}
	.st461{fill:#FCBB81;}
	.st462{fill:#F47D5A;}
	.st463{fill:#FAAA61;}
	.st464{fill:#FBB87B;}
	.st465{fill:#FCC18A;}
	.st466{fill:#A8AEBE;}
	.st467{fill:#8B96AA;}
	.st468{fill:#75839B;}
	.st469{fill:#152528;}
	.st470{fill:#CF3D27;}
	.st471{fill:#949EA3;}
	.st472{fill:#60767B;}
	.st473{fill:#8E97AB;}
	.st474{fill:#67748A;}
	.st475{fill:#5D697D;}
	.st476{fill:#848F94;}
	.st477{fill:#828DA3;}
	.st478{fill:#E4E5E6;}
	.st479{fill:#BDC2C4;}
	.st480{fill:#A8C0D4;}
	.st481{fill:#75A0BF;}
	.st482{fill:#221F21;}
	.st483{fill:#1C191B;}
	.st484{fill:#253645;}
	.st485{fill:#323031;}
	.st486{fill:#FDCCA9;}
	.st487{fill:#160000;}
	.st488{fill:#1F0000;}
	.st489{fill:#020500;}
	.st490{fill:#2D2B2C;}
	.st491{fill:#171416;}
	.st492{fill:#180000;}
	.st493{fill:#0D0A0C;}
	.st494{fill:#560000;}
	.st495{fill:#030203;}
	.st496{fill:#191718;}
	.st497{fill:#020102;}
	.st498{fill:#5EBC6E;}
	.st499{fill:#98CF99;}
	.st500{fill:#C5E2BA;}
	.st501{enable-background:new    ;}
	.st502{fill:#21A2DC;}
	.st503{fill:#EF4C43;}
	.st504{fill:#E4A44B;}
	.st505{fill:#DDB9E5;}
	.st506{fill:#626E80;}
	.st507{fill:#454E5B;}
	.st508{fill:#282C33;}
	.st509{fill:#3AA0BC;}
	.st510{fill:#24697A;}
	.st511{fill:#3089A0;}
	.st512{fill:#969595;}
	.st513{fill:#B4B4B5;}
	.st514{fill:#D0DCD7;}
	.st515{fill:#B9C3BF;}
	.st516{fill:#89908E;}
	.st517{fill:#CC3D27;}
	.st518{fill:#747A79;}
	.st519{fill:#9EA7A4;}
	.st520{fill:#A3ACA8;}
	.st521{fill:#D8E5E0;}
	.st522{fill:#C3CFC9;}
	.st523{fill:#E5F3ED;}
	.st524{fill:#D1DDD9;}
	.st525{fill:#762522;}
	.st526{fill:#BE9A6E;}
	.st527{fill:#D5AE7D;}
	.st528{fill:#D5B997;}
	.st529{fill:#391413;}
	.st530{fill:#444343;}
	.st531{fill:#150D0D;}
	.st532{fill:#5E5C5C;}
	.st533{fill:#B33934;}
	.st534{fill:#8C8C8C;}
	.st535{fill:#AFAEAE;}
	.st536{fill:#4C4B4B;}
	.st537{fill:#CB413B;}
	.st538{fill:#E06B67;}
	.st539{fill:#C44D49;}
	.st540{fill:#FDC374;}
	.st541{fill:#FAA746;}
	.st542{fill:#E59129;}
	.st543{fill:#FBAD54;}
	.st544{fill:#FAA541;}
	.st545{fill:#F7951F;}
	.st546{fill:#252157;}
	.st547{opacity:0.2;fill:url(#SVGID_18_);}
	.st548{fill:#718FA4;}
	.st549{fill:#567F96;}
	.st550{fill:#696F76;}
	.st551{fill:#A2DEF9;}
	.st552{fill:#4B5961;}
	.st553{fill:#2D3E45;}
	.st554{fill:#C63B2A;}
	.st555{fill:#5C7586;}
	.st556{fill:#8AA0B2;}
	.st557{fill:#CEA490;}
	.st558{fill:#A2887B;}
	.st559{fill:#050A0B;}
	.st560{fill:#FBD1BD;}
	.st561{fill:#C0866D;}
	.st562{fill:#C5C8BA;}
	.st563{fill:#A3A890;}
	.st564{fill:#B4B99F;}
	.st565{fill:#979C83;}
	.st566{fill:#DBDED3;}
	.st567{fill:#B3B3B1;}
	.st568{fill:#C4C8B7;}
	.st569{fill:#BDC1AC;}
	.st570{fill:#CDD5A6;}
	.st571{fill:#CDD5DA;}
	.st572{fill:#CDBFDA;}
	.st573{fill:#F68C1E;}
	.st574{fill:#1E5F30;}
	.st575{fill:#795549;}
	.st576{fill:#CCDDF2;}
	.st577{fill:#888A8B;}
	.st578{fill:#F47D3D;}
	.st579{fill:#262225;}
	.st580{fill:#5E7679;}
	.st581{fill:#385D60;}
	.st582{fill:#6C8084;}
	.st583{fill:#100E0E;}
	.st584{fill:#151515;}
	.st585{fill:#090808;}
	.st586{fill:#1E1317;}
	.st587{fill:#B1AEAE;}
	.st588{fill:#9A9898;}
	.st589{fill:#747474;}
	.st590{fill:#09000C;}
	.st591{fill:#8C8E8F;}
	.st592{fill:#151E25;}
	.st593{fill:#000F19;}
	.st594{fill:#00000C;}
	.st595{fill:#120700;}
	.st596{fill:#888787;}
	.st597{fill:#12141A;}
	.st598{fill:#240000;}
	.st599{fill:#FABAA9;}
	.st600{fill:#F8AA92;}
	.st601{fill:#FBCCBD;}
	.st602{fill:#FABBA6;}
	.st603{fill:#001823;}
	.st604{fill:#303A3A;}
	.st605{fill:#3F4747;}
	.st606{fill:#4D5857;}
	.st607{fill:#55605F;}
	.st608{fill:#F58A75;}
	.st609{fill:#6D7B79;}
	.st610{fill:#2F2F2F;}
	.st611{fill:#2C2C2C;}
	.st612{fill:#251E1D;}
	.st613{fill:#000004;}
	.st614{fill:#181514;}
	.st615{fill:#0E0301;}
	.st616{fill:#0C0000;}
	.st617{fill:#070504;}
	.st618{fill:#1F1C1B;}
	.st619{fill:#6A6B6B;}
	.st620{fill:#9E9C9C;}
	.st621{fill:#8D8C8C;}
	.st622{fill:#A9A6A6;}
	.st623{fill:#F2F2F2;}
	.st624{fill:#DDD7D6;}
	.st625{fill:#221314;}
	.st626{fill:#3E191A;}
	.st627{fill:#672D31;}
	.st628{fill:#A65C6D;}
	.st629{fill:#8F3A42;}
	.st630{fill:#DEDCEE;}
	.st631{fill:#BCBCBC;}
	.st632{fill:#434343;}
	.st633{fill:#212121;}
	.st634{fill:#9EA2B8;}
	.st635{fill:#8690A7;}
	.st636{fill:#BABAC7;}
	.st637{fill:#D1D1D1;}
	.st638{fill:#D8D9D9;}
	.st639{fill:#C1CECF;}
	.st640{fill:#6E4D41;}
	.st641{fill:#A0887F;}
	.st642{fill:#FDCB80;}
	.st643{fill:#FDECB2;}
	.st644{fill:#F07255;}
	.st645{fill:#EF6045;}
	.st646{fill:#EE5039;}
	.st647{fill:#B73829;}
	.st648{fill:#A83220;}
	.st649{fill:#9B2E1F;}
	.st650{fill:#DAE3FC;}
	.st651{fill:#A9BBEA;}
</style>
<path class="st650" d="M0,475.3c0,0,191.2-261.2,488.2-69c0,0,150-406.3,504-406.3H0V475.3z"/>
<polygon class="st37" points="1186.4,229.6 1132.4,283.6 1245.6,283.6 "/>
<circle class="st38" cx="1254.9" cy="518.5" r="98.2"/>
<circle class="st39" cx="341.3" cy="660.3" r="79.2"/>
<circle class="st40" cx="363.1" cy="324" r="57.4"/>
<g>
	<g>
		<path class="st42" d="M502.4,744c1.7,0,2.6-0.6,2.6-1.8c0-0.4-0.1-0.7-0.2-0.9c-0.2-0.3-0.4-0.5-0.6-0.7c-0.3-0.2-0.6-0.3-0.9-0.5
			c-0.3-0.1-0.7-0.3-1.1-0.4c-0.4-0.1-0.8-0.3-1.2-0.5c-0.4-0.2-0.7-0.4-1-0.7c-0.3-0.3-0.5-0.6-0.7-0.9s-0.2-0.8-0.2-1.3
			c0-1,0.4-1.8,1.1-2.4c0.7-0.6,1.7-0.9,2.9-0.9c0.7,0,1.4,0.1,1.9,0.2c0.6,0.2,1,0.3,1.3,0.5l-0.5,1.3c-0.2-0.1-0.6-0.3-1.1-0.4
			c-0.5-0.1-1-0.2-1.6-0.2c-0.3,0-0.6,0-0.9,0.1c-0.3,0.1-0.5,0.2-0.7,0.3c-0.2,0.1-0.4,0.3-0.5,0.5c-0.1,0.2-0.2,0.5-0.2,0.7
			c0,0.3,0.1,0.6,0.2,0.8c0.1,0.2,0.3,0.4,0.5,0.6c0.2,0.2,0.5,0.3,0.8,0.5c0.3,0.1,0.6,0.3,1,0.4c0.5,0.2,1,0.4,1.4,0.6
			c0.4,0.2,0.8,0.4,1.1,0.7c0.3,0.3,0.6,0.6,0.7,1c0.2,0.4,0.3,0.9,0.3,1.4c0,1-0.4,1.8-1.1,2.4c-0.8,0.6-1.8,0.8-3.2,0.8
			c-0.5,0-0.9,0-1.3-0.1c-0.4-0.1-0.7-0.1-1-0.2c-0.3-0.1-0.6-0.2-0.8-0.3c-0.2-0.1-0.4-0.2-0.5-0.2l0.5-1.4
			c0.3,0.1,0.7,0.3,1.2,0.5C500.9,743.9,501.6,744,502.4,744z"/>
		<path class="st42" d="M513,745.4c-0.8,0-1.4-0.1-2-0.4c-0.6-0.2-1-0.6-1.4-1c-0.4-0.4-0.6-0.9-0.8-1.5s-0.3-1.2-0.3-1.8v-7.4h1.6
			v7.2c0,1.2,0.3,2,0.8,2.6c0.5,0.5,1.2,0.8,2,0.8c0.4,0,0.8-0.1,1.1-0.2c0.3-0.1,0.6-0.3,0.9-0.6c0.2-0.3,0.4-0.6,0.6-1
			c0.1-0.4,0.2-0.9,0.2-1.5v-7.2h1.6v7.4c0,0.7-0.1,1.3-0.3,1.8c-0.2,0.6-0.4,1.1-0.8,1.5c-0.4,0.4-0.8,0.7-1.4,1
			C514.5,745.3,513.8,745.4,513,745.4z"/>
		<path class="st42" d="M523.5,745.3c-0.2,0-0.5,0-0.8,0c-0.3,0-0.6,0-0.8-0.1c-0.3,0-0.6-0.1-0.8-0.1c-0.3,0-0.5-0.1-0.7-0.1v-11.4
			c0.2-0.1,0.5-0.1,0.7-0.1c0.3,0,0.5-0.1,0.8-0.1s0.6,0,0.8-0.1s0.5,0,0.8,0c0.7,0,1.3,0.1,1.9,0.2c0.6,0.1,1.1,0.3,1.5,0.5
			c0.4,0.2,0.8,0.6,1,1c0.2,0.4,0.4,0.9,0.4,1.5c0,0.6-0.2,1.2-0.5,1.6c-0.3,0.4-0.7,0.7-1.2,0.9c0.7,0.2,1.2,0.5,1.6,1
			c0.4,0.4,0.6,1.1,0.6,1.9c0,1.2-0.4,2.1-1.3,2.7C526.8,745,525.4,745.3,523.5,745.3z M522,738.3h1.7c0.4,0,0.8,0,1.2-0.1
			c0.4-0.1,0.7-0.2,0.9-0.3c0.3-0.1,0.5-0.3,0.6-0.6c0.2-0.2,0.2-0.5,0.2-0.9c0-0.3-0.1-0.6-0.2-0.9c-0.2-0.2-0.4-0.4-0.7-0.6
			c-0.3-0.1-0.6-0.2-1-0.3c-0.4-0.1-0.8-0.1-1.2-0.1c-0.4,0-0.7,0-1,0s-0.5,0-0.6,0.1V738.3z M522,739.7v4.1c0.1,0,0.3,0,0.4,0
			c0.1,0,0.3,0,0.5,0s0.4,0,0.7,0c0.5,0,0.9,0,1.4-0.1c0.4-0.1,0.8-0.2,1.1-0.3c0.3-0.2,0.6-0.4,0.8-0.7c0.2-0.3,0.3-0.6,0.3-1.1
			c0-0.4-0.1-0.7-0.2-1c-0.1-0.3-0.4-0.5-0.6-0.6s-0.6-0.3-1-0.3c-0.4-0.1-0.8-0.1-1.3-0.1H522z"/>
		<path class="st42" d="M536.6,743.5c-0.1-0.3-0.3-0.6-0.5-1c-0.2-0.4-0.4-0.9-0.6-1.4s-0.4-1-0.7-1.5s-0.5-1-0.7-1.5
			s-0.4-0.9-0.6-1.2c-0.2-0.4-0.3-0.6-0.5-0.8c-0.1,1.3-0.2,2.8-0.3,4.3c-0.1,1.6-0.1,3.1-0.2,4.7H531c0-1,0.1-2,0.2-3.1
			c0.1-1,0.1-2.1,0.2-3.1c0.1-1,0.2-2,0.2-2.9c0.1-1,0.2-1.9,0.3-2.7h1.4c0.3,0.5,0.6,1.1,1,1.8c0.4,0.7,0.7,1.4,1.1,2.1
			c0.4,0.7,0.7,1.5,1,2.2c0.3,0.7,0.6,1.4,0.9,2c0.3-0.6,0.6-1.3,0.9-2s0.7-1.5,1-2.2c0.4-0.7,0.7-1.5,1.1-2.1
			c0.4-0.7,0.7-1.3,1-1.8h1.4c0.4,3.8,0.7,7.7,0.9,11.8h-1.6c-0.1-1.6-0.1-3.2-0.2-4.7c-0.1-1.6-0.2-3-0.3-4.3
			c-0.1,0.2-0.3,0.5-0.5,0.8c-0.2,0.4-0.4,0.8-0.6,1.2c-0.2,0.5-0.4,0.9-0.7,1.5c-0.2,0.5-0.5,1-0.7,1.5c-0.2,0.5-0.4,0.9-0.6,1.4
			c-0.2,0.4-0.3,0.8-0.5,1H536.6z"/>
		<path class="st42" d="M546.1,733.4h1.6v11.8h-1.6V733.4z"/>
		<path class="st42" d="M558.5,733.4v1.4h-3.7v10.4h-1.6v-10.4h-3.7v-1.4H558.5z"/>
	</g>
</g>
</svg>
