<?xml version="1.0" encoding="utf-8"?>
<!-- Generator: Adobe Illustrator 17.0.0, SVG Export Plug-In . SVG Version: 6.00 Build 0)  -->
<!DOCTYPE svg PUBLIC "-//W3C//DTD SVG 1.1//EN" "http://www.w3.org/Graphics/SVG/1.1/DTD/svg11.dtd">
<svg version="1.1" xmlns="http://www.w3.org/2000/svg" xmlns:xlink="http://www.w3.org/1999/xlink" x="0px" y="0px" width="19px"
	 height="19px" viewBox="0 0 19 19" enable-background="new 0 0 19 19" xml:space="preserve">
<g id="Layer_1">
	<g>
		<path fill="#233E96" d="M13.096,11.27l4.141,4.141l-1.25,1.25l-4.141-4.141v-0.664l-0.234-0.234
			c-1.016,0.859-2.188,1.289-3.516,1.289c-1.511,0-2.793-0.527-3.848-1.582S2.667,8.998,2.667,7.5c0-1.497,0.527-2.773,1.582-3.828
			S6.579,2.09,8.077,2.09c1.497,0,2.773,0.527,3.828,1.582s1.582,2.338,1.582,3.848c0,1.328-0.43,2.5-1.289,3.516l0.234,0.234
			H13.096z M5.44,10.176c0.729,0.729,1.614,1.094,2.656,1.094c1.041,0,1.927-0.364,2.656-1.094c0.729-0.729,1.094-1.614,1.094-2.656
			c0-1.041-0.365-1.927-1.094-2.656C10.023,4.135,9.137,3.77,8.096,3.77c-1.042,0-1.928,0.365-2.656,1.094
			C4.71,5.593,4.346,6.479,4.346,7.52C4.346,8.562,4.71,9.447,5.44,10.176z"/>
	</g>
</g>
<g id="Layer_2">
</g>
<g id="Layer_3">
</g>
<g id="Layer_4">
</g>
<g id="Layer_5">
</g>
<g id="Layer_6">
</g>
<g id="Layer_7">
</g>
<g id="Layer_8">
</g>
<g id="Layer_9">
</g>
<g id="Layer_10">
</g>
<g id="Layer_11">
</g>
<g id="Layer_12">
</g>
</svg>
