<?xml version="1.0" encoding="utf-8"?>
<!-- Generator: Adobe Illustrator 17.0.0, SVG Export Plug-In . SVG Version: 6.00 Build 0)  -->
<!DOCTYPE svg PUBLIC "-//W3C//DTD SVG 1.1//EN" "http://www.w3.org/Graphics/SVG/1.1/DTD/svg11.dtd">
<svg version="1.1" xmlns="http://www.w3.org/2000/svg" xmlns:xlink="http://www.w3.org/1999/xlink" x="0px" y="0px" width="35px"
	 height="36px" viewBox="0 0 35 36" enable-background="new 0 0 35 36" xml:space="preserve">
<g id="Grid">
</g>
<g id="_x32_4_Grid_Col" display="none" opacity="0.1" enable-background="new    ">
</g>
<g id="Layer_3">
</g>
<g id="Layer_4">
</g>
<g id="Layer_5">
	<g>
		<circle fill="#10E0FA" cx="17.609" cy="17.98" r="15.218"/>
		<g>
			<g>
				<g>
					<path fill="#FFFFFF" d="M15.82,22.289c-1.046,0-1.847,0.8-1.847,1.847s0.8,1.847,1.847,1.847s1.847-0.8,1.847-1.847
						S16.866,22.289,15.82,22.289z M15.82,24.997c-0.492,0-0.862-0.369-0.862-0.862s0.369-0.862,0.862-0.862
						c0.492,0,0.862,0.369,0.862,0.862S16.312,24.997,15.82,24.997z"/>
				</g>
			</g>
			<g>
				<g>
					<path fill="#FFFFFF" d="M21.975,22.289c-1.046,0-1.847,0.8-1.847,1.847s0.8,1.847,1.847,1.847s1.847-0.8,1.847-1.847
						S23.021,22.289,21.975,22.289z M21.975,24.997c-0.492,0-0.862-0.369-0.862-0.862s0.369-0.862,0.862-0.862
						c0.492,0,0.862,0.369,0.862,0.862S22.467,24.997,21.975,24.997z"/>
				</g>
			</g>
			<g>
				<g>
					<path fill="#FFFFFF" d="M24.314,12.44H13.788l-1.046-2.462H10.28v1.231h1.662l2.585,6.278c-0.739,0.308-1.231,1.046-1.17,1.908
						c0.123,0.985,0.985,1.662,1.908,1.662h8.556v-1.231h-8.617c-0.369,0-0.616-0.246-0.616-0.616s0.246-0.616,0.616-0.616h8.125
						c0.308,0,0.554-0.185,0.616-0.492l0.985-4.924C24.991,12.81,24.683,12.44,24.314,12.44z"/>
				</g>
			</g>
		</g>
	</g>
</g>
</svg>
