<?xml version="1.0" encoding="utf-8"?>
<!-- Generator: Adobe Illustrator 17.0.0, SVG Export Plug-In . SVG Version: 6.00 Build 0)  -->
<!DOCTYPE svg PUBLIC "-//W3C//DTD SVG 1.1//EN" "http://www.w3.org/Graphics/SVG/1.1/DTD/svg11.dtd">
<svg version="1.1" xmlns="http://www.w3.org/2000/svg" xmlns:xlink="http://www.w3.org/1999/xlink" x="0px" y="0px" width="28px"
	 height="30px" viewBox="0 0 28 30" enable-background="new 0 0 28 30" xml:space="preserve">
<g id="Grid">
</g>
<g id="_x32_4_Grid_Col" display="none" opacity="0.1" enable-background="new    ">
</g>
<g id="Layer_3">
</g>
<g id="Layer_4">
</g>
<g id="Layer_5">
	<g>
		<path fill="#06E0A4" d="M25.258,5.955l-2.304-2.304c-0.339-0.339-0.888-0.339-1.227,0L12,13.378l-2.249-2.249
			c-0.163-0.163-0.384-0.254-0.614-0.254c-0.23,0-0.451,0.091-0.614,0.254L6.22,13.433c-0.339,0.339-0.339,0.888,0,1.227
			l2.832,2.832c0.01,0.011,0.02,0.021,0.03,0.032l2.304,2.304c0.163,0.163,0.384,0.254,0.614,0.254c0.23,0,0.451-0.091,0.614-0.254
			L25.258,7.183c0.163-0.163,0.254-0.384,0.254-0.614S25.42,6.118,25.258,5.955z"/>
		<path fill="#7086C6" d="M24.511,9.205l-1.728,1.728c0.541,1.222,0.826,2.554,0.826,3.931c0,2.592-1.009,5.029-2.843,6.862
			c-1.833,1.833-4.27,2.842-6.862,2.842c-2.592,0-5.029-1.009-6.862-2.842c-1.833-1.833-2.842-4.27-2.842-6.862
			c0-2.592,1.009-5.029,2.842-6.862c1.833-1.833,4.27-2.843,6.862-2.843c1.449,0,2.85,0.316,4.124,0.915l1.717-1.717
			c-0.376-0.209-0.763-0.399-1.162-0.568c-1.483-0.627-3.057-0.945-4.679-0.945c-1.622,0-3.196,0.318-4.679,0.945
			c-1.431,0.605-2.717,1.472-3.82,2.575c-1.103,1.103-1.97,2.389-2.575,3.82c-0.627,1.483-0.945,3.057-0.945,4.679
			c0,1.622,0.318,3.196,0.945,4.679c0.605,1.431,1.472,2.717,2.575,3.82c1.103,1.103,2.389,1.97,3.82,2.575
			c1.483,0.627,3.057,0.945,4.679,0.945c1.622,0,3.196-0.318,4.679-0.945c1.431-0.605,2.717-1.472,3.82-2.575
			c1.103-1.103,1.97-2.389,2.575-3.82c0.627-1.483,0.945-3.057,0.945-4.679c0-1.622-0.318-3.196-0.945-4.679
			C24.837,9.85,24.68,9.524,24.511,9.205z"/>
	</g>
</g>
</svg>
