<?xml version="1.0" encoding="utf-8"?>
<!-- Generator: Adobe Illustrator 17.0.0, SVG Export Plug-In . SVG Version: 6.00 Build 0)  -->
<!DOCTYPE svg PUBLIC "-//W3C//DTD SVG 1.1//EN" "http://www.w3.org/Graphics/SVG/1.1/DTD/svg11.dtd">
<svg version="1.1" xmlns="http://www.w3.org/2000/svg" xmlns:xlink="http://www.w3.org/1999/xlink" x="0px" y="0px" width="35px"
	 height="36px" viewBox="0 0 35 36" enable-background="new 0 0 35 36" xml:space="preserve">
<g id="Grid">
</g>
<g id="_x32_4_Grid_Col" display="none" opacity="0.1" enable-background="new    ">
</g>
<g id="Layer_3">
</g>
<g id="Layer_4">
</g>
<g id="Layer_5">
	<g>
		<circle fill="#06E0A4" cx="17.69" cy="18.534" r="15.504"/>
		<g>
			<g>
				<polygon fill="#FFFFFF" points="17.52,22.061 18.604,22.061 18.604,20.7 19.993,20.7 19.993,19.615 18.604,19.616 
					18.604,18.254 17.52,18.255 17.52,19.616 16.187,19.616 16.187,20.7 17.52,20.7 				"/>
				<path fill="#FFFFFF" d="M10.489,26.377l14.403-0.001c0.814,0,1.474-0.66,1.474-1.474l0-9.49c0-0.814-0.66-1.474-1.474-1.474
					l-3.203,0c0.034-0.156,0.055-0.318,0.055-0.484l0-0.553c0-1.219-0.992-2.211-2.211-2.211l-3.685,0
					c-1.219,0-2.211,0.992-2.211,2.211l0,0.553c0,0.167,0.02,0.328,0.055,0.484l-3.202,0c-0.814,0-1.474,0.66-1.474,1.474l0,9.49
					C9.015,25.717,9.675,26.377,10.489,26.377z M15.111,12.902c0-0.407,0.331-0.737,0.737-0.737l3.685,0
					c0.406,0,0.737,0.33,0.737,0.737l0,0.553c0,0.186-0.071,0.355-0.186,0.484l-4.787,0c-0.115-0.13-0.186-0.298-0.186-0.484
					L15.111,12.902L15.111,12.902z M16.315,16.474c0.708,0,1.342,0.312,1.775,0.805c0.434-0.493,1.067-0.805,1.775-0.805
					c1.308,0,2.368,1.06,2.368,2.368c0,0.723-0.326,1.37-0.837,1.805h0.001l-3.258,3.196l-3.357-3.195l0.001,0
					c-0.511-0.435-0.837-1.081-0.837-1.804C13.947,17.534,15.007,16.474,16.315,16.474z"/>
			</g>
		</g>
	</g>
</g>
</svg>
