<?xml version="1.0" encoding="utf-8"?>
<!-- Generator: Adobe Illustrator 21.0.0, SVG Export Plug-In . SVG Version: 6.00 Build 0)  -->
<svg version="1.1" id="Layer_1" xmlns="http://www.w3.org/2000/svg" xmlns:xlink="http://www.w3.org/1999/xlink" x="0px" y="0px"
	 viewBox="0 0 22 36" style="enable-background:new 0 0 22 36;" xml:space="preserve">
<style type="text/css">
	.st0{fill:#3F7FBC;}
	.st1{fill:#333333;}
	.st2{fill:none;stroke:#E4F1FD;}
	.st3{fill:#1035A0;}
	.st4{fill:#405DB3;}
	.st5{fill:#FFFFFF;}
	.st6{fill-rule:evenodd;clip-rule:evenodd;fill:#009245;}
</style>
<g>
	<polygon class="st5" points="21.5,6.5 21.5,13.6 17.6,11.6 17.6,8.7 11,4.6 4.4,8.7 4.4,16.1 9.4,19.4 11.2,18.5 14.9,20.5 
		14.9,25.1 13.4,26.1 13.4,26.1 13,26.3 11.2,27.5 7.3,25.1 7.3,22.6 4.4,20.7 0.5,18.2 0.5,6.6 1.1,6.2 7.4,2.3 11,0 14.7,2.3 
		20.7,6 	"/>
	<polygon class="st5" points="0.5,28.9 0.5,21.8 4.4,23.9 4.4,26.8 11,30.9 17.6,26.7 17.6,19.4 12.6,16.1 10.8,17 7.1,14.9 
		7.1,10.4 8.6,9.4 8.6,9.4 9,9.1 10.8,8 14.7,10.4 14.7,12.8 17.6,14.7 21.5,17.3 21.5,28.9 20.9,29.3 14.6,33.1 11,35.4 7.3,33.1 
		1.3,29.4 	"/>
</g>
</svg>
