<svg id="Layer_1" data-name="Layer 1" xmlns="http://www.w3.org/2000/svg" viewBox="0 0 19 19"><defs><style>.cls-1{opacity:0.5;}.cls-2{fill:#515e72;}</style></defs><title>useracct_billing-icon</title><g class="cls-1"><circle class="cls-2" cx="4.39" cy="8.98" r="0.33"/><path class="cls-2" d="M17.31.9a.4.4,0,0,0-.42,0l-1,.67-1-.63a.48.48,0,0,0-.46,0l-1,.63-1-.63a.48.48,0,0,0-.46,0l-1,.63-1-.63a.48.48,0,0,0-.46,0l-1,.63-1-.63a.48.48,0,0,0-.46,0l-1,.63-1-.63a.48.48,0,0,0-.46,0l-1,.63-1-.63a.4.4,0,0,0-.42,0,.3.3,0,0,0-.25.31V17.74a.42.42,0,0,0,.63.35l1-.67,1,.63a.48.48,0,0,0,.46,0l1-.63,1,.63a.48.48,0,0,0,.46,0l1-.63,1,.63a.48.48,0,0,0,.46,0l1-.63,1,.63a.48.48,0,0,0,.46,0l1-.63,1,.63a.48.48,0,0,0,.46,0l1-.63,1,.63a.63.63,0,0,0,.25.08.4.4,0,0,0,.21,0,.41.41,0,0,0,.21-.35V1.26C17.52,1.1,17.44,1,17.31.9Zm-1.22,15.7a.48.48,0,0,0-.46,0l-1,.67-1-.63a.44.44,0,0,0-.5,0l-1,.63-1-.63a.48.48,0,0,0-.46,0l-1,.63-1-.63a.48.48,0,0,0-.46,0l-1,.63-1-.63a.48.48,0,0,0-.46,0l-1,.63-1-.63a.48.48,0,0,0-.46,0L2.44,17V2L3,2.39a.48.48,0,0,0,.46,0l1-.67,1,.63a.48.48,0,0,0,.46,0l1-.63,1,.63a.48.48,0,0,0,.46,0l1-.63,1,.63a.48.48,0,0,0,.46,0l1-.63,1,.63a.48.48,0,0,0,.46,0l1-.63,1,.63a.48.48,0,0,0,.46,0L16.64,2V17Z"/><path class="cls-2" d="M13.3,9.22H12.25a.53.53,0,0,1,0-1.05h1.58a.53.53,0,0,0,0-1.05H13.3V6.6a.53.53,0,1,0-1.05,0v.53a1.58,1.58,0,0,0,0,3.15H13.3a.53.53,0,0,1,0,1.05H11.72a.53.53,0,0,0,0,1.05h.53v.53a.53.53,0,1,0,1.05,0v-.53a1.58,1.58,0,0,0,0-3.15Z"/><path class="cls-2" d="M9.6,5H4.29a.33.33,0,1,0,0,.66H9.6A.33.33,0,0,0,9.6,5Z"/><path class="cls-2" d="M8.27,6.33H4.39a.33.33,0,1,0,0,.66H8.27a.33.33,0,0,0,0-.66Z"/><path class="cls-2" d="M7.37,8.65H5.71a.33.33,0,1,0,0,.66H7.37a.33.33,0,1,0,0-.66Z"/><circle class="cls-2" cx="4.39" cy="10.31" r="0.33"/><path class="cls-2" d="M7.7,10h-2a.33.33,0,1,0,0,.66h2a.33.33,0,1,0,0-.66Z"/><circle class="cls-2" cx="4.39" cy="11.64" r="0.33"/><path class="cls-2" d="M7,11.3H5.71a.33.33,0,1,0,0,.66H7a.33.33,0,1,0,0-.66Z"/><circle class="cls-2" cx="4.39" cy="12.96" r="0.33"/><path class="cls-2" d="M8.37,12.63H5.71a.33.33,0,1,0,0,.66H8.37a.33.33,0,1,0,0-.66Z"/></g></svg>