<?xml version="1.0" encoding="utf-8"?>
<!-- Generator: Adobe Illustrator 17.0.0, SVG Export Plug-In . SVG Version: 6.00 Build 0)  -->
<!DOCTYPE svg PUBLIC "-//W3C//DTD SVG 1.1//EN" "http://www.w3.org/Graphics/SVG/1.1/DTD/svg11.dtd">
<svg version="1.1" xmlns="http://www.w3.org/2000/svg" xmlns:xlink="http://www.w3.org/1999/xlink" x="0px" y="0px" width="61px"
	 height="61px" viewBox="0 0 61 61" enable-background="new 0 0 61 61" xml:space="preserve">
<g id="Grid">
</g>
<g id="_x32_4_Grid_Col" display="none" opacity="0.1" enable-background="new    ">
</g>
<g id="Layer_3">
</g>
<g id="Layer_4">
</g>
<g id="Layer_5">
	<g opacity="0.7">
		<g>
			<g>
				<g>
					<path fill="#06133A" d="M28.442,17.651c-2.758,0-5.003,2.244-5.003,5.003c0,2.758,2.244,5.003,5.003,5.003
						c2.758,0,5.002-2.244,5.002-5.003C33.444,19.895,31.2,17.651,28.442,17.651z M28.442,25.812c-1.742,0-3.159-1.417-3.159-3.159
						c0-1.742,1.417-3.159,3.159-3.159c1.742,0,3.159,1.417,3.159,3.159C31.601,24.395,30.183,25.812,28.442,25.812z"/>
				</g>
			</g>
			<g>
				<g>
					<path fill="#06133A" d="M50.323,16.127c-1.808,0-3.279,1.471-3.279,3.279c0,1.808,1.471,3.279,3.279,3.279
						c1.808,0,3.279-1.471,3.279-3.279C53.602,17.598,52.131,16.127,50.323,16.127z M50.323,20.841
						c-0.791,0-1.435-0.644-1.435-1.435c0-0.791,0.644-1.435,1.435-1.435c0.792,0,1.435,0.644,1.435,1.435
						C51.758,20.197,51.114,20.841,50.323,20.841z"/>
				</g>
			</g>
			<g>
				<g>
					<path fill="#06133A" d="M52.93,7.305l-13.404,0c-2.047,0-3.713,1.666-3.713,3.714v4.232h-5.527c-0.001,0-0.002,0-0.004,0
						H10.157c-0.002,0-0.005,0-0.007,0H6.583c-2.172,0-3.939,1.767-3.939,3.939v23.669c0,2.172,1.767,3.939,3.939,3.939h14.114
						l-1.244,5.055c-0.001,0.004-0.001,0.009-0.002,0.013c-0.005,0.022-0.009,0.045-0.013,0.067
						c-0.002,0.011-0.004,0.022-0.005,0.033c-0.003,0.022-0.004,0.044-0.005,0.067c0,0.011-0.001,0.023-0.002,0.034
						c0,0.002,0,0.004,0,0.007c0,0.028,0.002,0.055,0.004,0.082c0,0.004,0,0.007,0.001,0.011c0.003,0.034,0.009,0.067,0.016,0.1
						c0.001,0.004,0.002,0.008,0.003,0.013c0.007,0.028,0.014,0.056,0.023,0.083c0.003,0.008,0.006,0.015,0.009,0.023
						c0.008,0.023,0.017,0.046,0.027,0.068c0.004,0.009,0.009,0.018,0.013,0.027c0.01,0.02,0.021,0.04,0.032,0.06
						c0.006,0.01,0.011,0.019,0.017,0.028c0.012,0.019,0.025,0.037,0.038,0.055c0.005,0.006,0.008,0.013,0.013,0.019
						c0.002,0.002,0.005,0.005,0.007,0.007c0.016,0.02,0.033,0.039,0.051,0.058c0.005,0.005,0.009,0.01,0.014,0.015
						c0.023,0.023,0.047,0.045,0.072,0.065c0.007,0.005,0.014,0.01,0.02,0.015c0.019,0.015,0.039,0.029,0.059,0.042
						c0.009,0.006,0.018,0.011,0.027,0.016c0.019,0.012,0.039,0.023,0.059,0.033c0.009,0.005,0.019,0.009,0.028,0.014
						c0.021,0.01,0.042,0.018,0.063,0.027c0.01,0.004,0.019,0.007,0.028,0.01c0.022,0.008,0.045,0.014,0.068,0.02
						c0.009,0.003,0.018,0.005,0.028,0.007c0.024,0.005,0.049,0.009,0.074,0.013c0.008,0.001,0.016,0.003,0.025,0.004
						c0.033,0.004,0.067,0.006,0.101,0.006h11.112h7.295c0.509,0,0.922-0.413,0.922-0.922c0-0.509-0.413-0.922-0.922-0.922h-6.119
						l1.072-4.354l16.121,0c1.944,0,3.525-1.581,3.525-3.523V35.3c1.849-0.21,3.291-1.784,3.291-3.688V11.018
						C56.644,8.97,54.978,7.305,52.93,7.305z M40.606,11.018c0-1.031,0.839-1.87,1.87-1.87H52.93c1.031,0,1.87,0.839,1.87,1.87
						v1.087H40.606V11.018z M40.606,13.948H54.8v14.617h-0.441l-4.638-5.104c-0.175-0.192-0.423-0.302-0.682-0.302
						c-0.26,0-0.507,0.11-0.682,0.302L47.04,24.91l-3.27-3.597c-0.175-0.192-0.422-0.302-0.682-0.302
						c-0.26,0-0.507,0.11-0.682,0.302l-1.799,1.979L40.606,13.948L40.606,13.948z M51.868,28.565h-1.506l-2.077-2.285l0.753-0.829
						L51.868,28.565z M40.606,25.959l0.037,0.033l2.445-2.69l4.784,5.262h-7.265V25.959z M37.657,11.018
						c0-0.94,0.697-1.718,1.6-1.849c-0.314,0.545-0.495,1.176-0.495,1.849v20.593c0,0.672,0.181,1.303,0.494,1.848
						c-0.903-0.131-1.6-0.909-1.6-1.848L37.657,11.018L37.657,11.018z M8.476,35.996l7.415-7.621l9.858,10.843H8.476V35.996z
						 M24.003,34.556l2.215-2.437l6.451,7.099H28.24v0L24.003,34.556z M7.06,44.954H6.583c-1.156,0-2.096-0.94-2.096-2.096V19.189
						c0-1.156,0.94-2.096,2.096-2.096H7.06c-0.272,0.5-0.428,1.073-0.428,1.681v24.499C6.632,43.881,6.787,44.454,7.06,44.954z
						 M30.736,51.151h-9.214l1.072-4.354h9.214L30.736,51.151z M51.509,43.273c0,0.926-0.754,1.68-1.681,1.68H10.157
						c-0.927,0-1.681-0.754-1.681-1.68v-2.212h43.033V43.273z M51.509,39.217H35.16l-8.26-9.089
						c-0.175-0.192-0.422-0.302-0.682-0.302c-0.26,0-0.507,0.11-0.682,0.302l-2.778,3.057l-6.162-6.776
						c-0.171-0.188-0.412-0.297-0.666-0.301c-0.257-0.001-0.499,0.097-0.676,0.279l-6.777,6.965V18.774
						c0-0.926,0.752-1.679,1.678-1.681h25.66v14.518c0,2.047,1.666,3.713,3.713,3.713l11.983,0L51.509,39.217L51.509,39.217z
						 M54.8,31.611c0,1.031-0.839,1.87-1.87,1.87l-10.462,0c-1.028-0.004-1.863-0.841-1.863-1.869v-1.203H54.8L54.8,31.611
						L54.8,31.611z"/>
				</g>
			</g>
		</g>
	</g>
</g>
</svg>
