<?xml version="1.0" encoding="utf-8"?>
<!-- Generator: Adobe Illustrator 17.0.0, SVG Export Plug-In . SVG Version: 6.00 Build 0)  -->
<!DOCTYPE svg PUBLIC "-//W3C//DTD SVG 1.1//EN" "http://www.w3.org/Graphics/SVG/1.1/DTD/svg11.dtd">
<svg version="1.1" xmlns="http://www.w3.org/2000/svg" xmlns:xlink="http://www.w3.org/1999/xlink" x="0px" y="0px" width="52px"
	 height="50px" viewBox="0 0 52 50" enable-background="new 0 0 52 50" xml:space="preserve">
<g id="Grid">
</g>
<g id="_x32_4_Grid_Col" display="none" opacity="0.1" enable-background="new    ">
</g>
<g id="Layer_3">
</g>
<g id="Layer_4">
</g>
<g id="Layer_5">
	<g opacity="0.7">
		<g>
			<g>
				<path fill="#06133A" d="M40.718,22.446c-1.869,0-3.437,1.13-4.433,2.506c-0.995-1.376-2.564-2.506-4.433-2.506
					c-2.979,0-5.359,2.311-5.67,5.499c-0.033,0.21-0.113,0.953,0.175,2.114c0.425,1.713,1.404,3.269,2.832,4.501l6.496,5.558
					c0.174,0.149,0.387,0.224,0.6,0.224c0.212,0,0.425-0.074,0.599-0.222l6.498-5.561c1.426-1.229,2.405-2.784,2.831-4.499
					c0.288-1.161,0.208-1.904,0.176-2.114C46.078,24.757,43.697,22.446,40.718,22.446z M44.699,29.684
					c-0.347,1.399-1.154,2.676-2.333,3.691l-6.081,5.204l-6.08-5.202c-1.181-1.018-1.988-2.294-2.334-3.693
					c-0.236-0.946-0.15-1.479-0.151-1.479l0.013-0.083c0.19-2.044,1.667-4.114,4.119-4.114c1.707,0,3.1,1.413,3.72,2.812
					l0.713,1.607l0.713-1.607c0.621-1.4,2.012-2.812,3.72-2.812c2.454,0,3.929,2.07,4.131,4.187
					C44.849,28.198,44.935,28.732,44.699,29.684z"/>
				<path fill="#06133A" d="M39.365,13.037c0-1.693-1.377-3.07-3.069-3.07c-1.692,0-3.07,1.377-3.07,3.07s1.377,3.069,3.07,3.069
					C37.989,16.106,39.365,14.729,39.365,13.037z M34.787,13.037c0-0.832,0.677-1.51,1.51-1.51c0.832,0,1.509,0.677,1.509,1.51
					c0,0.831-0.677,1.509-1.509,1.509C35.464,14.545,34.787,13.868,34.787,13.037z"/>
				<path fill="#06133A" d="M38.535,2.947H27.612L7.88,22.615l0.007,0.006l-4.683,4.67l19.602,19.645l6.017-5.762L10.099,22.618
					L28.257,4.507h9.634l7.753,7.736v10.058h1.56V11.596L38.535,2.947z M26.587,41.155l-3.757,3.598L5.41,27.295l3.585-3.575
					L26.587,41.155z"/>
			</g>
		</g>
	</g>
</g>
</svg>
