<?xml version="1.0" encoding="utf-8"?>
<!-- Generator: Adobe Illustrator 17.0.0, SVG Export Plug-In . SVG Version: 6.00 Build 0)  -->
<!DOCTYPE svg PUBLIC "-//W3C//DTD SVG 1.1//EN" "http://www.w3.org/Graphics/SVG/1.1/DTD/svg11.dtd">
<svg version="1.1" xmlns="http://www.w3.org/2000/svg" xmlns:xlink="http://www.w3.org/1999/xlink" x="0px" y="0px" width="61px"
	 height="55px" viewBox="0 0 61 55" enable-background="new 0 0 61 55" xml:space="preserve">
<g id="Grid">
</g>
<g id="_x32_4_Grid_Col" display="none" opacity="0.1" enable-background="new    ">
</g>
<g id="Layer_3">
</g>
<g id="Layer_4">
</g>
<g id="Layer_5">
	<g opacity="0.7">
		<g>
			<g>
				<g>
					<path fill="#06133A" d="M53.858,6.434H8.39c-1.269,0-2.301,1.032-2.301,2.301v31.357c0,1.269,1.032,2.301,2.301,2.301h16.513
						v4.805h-3.186c-0.837,0-1.517,0.681-1.517,1.517v1.568c0,0.837,0.681,1.517,1.517,1.517h18.814
						c0.837,0,1.517-0.681,1.517-1.517v-1.568c0-0.837-0.681-1.517-1.517-1.517h-3.186v-4.805h16.513
						c1.269,0,2.301-1.032,2.301-2.301V8.735C56.159,7.466,55.127,6.434,53.858,6.434z M40.531,48.664
						c0.028,0,0.051,0.023,0.051,0.051v1.568c0,0.028-0.023,0.05-0.051,0.05H21.717c-0.028,0-0.051-0.023-0.051-0.05v-1.568
						c0-0.028,0.023-0.051,0.051-0.051h10.191c0.405,0,0.734-0.328,0.734-0.733c0-0.405-0.328-0.733-0.734-0.733H26.37v-4.805h9.508
						v4.805h-0.835c-0.405,0-0.733,0.328-0.733,0.733c0,0.405,0.328,0.733,0.733,0.733H40.531z M54.692,40.092L54.692,40.092
						c0,0.46-0.374,0.834-0.834,0.834H8.39c-0.46,0-0.834-0.374-0.834-0.834V8.735C7.556,8.275,7.93,7.9,8.39,7.9h45.468
						c0.46,0,0.834,0.374,0.834,0.834V40.092L54.692,40.092z"/>
				</g>
			</g>
			<g>
				<g>
					<path fill="#06133A" d="M52.29,9.569H9.958c-0.405,0-0.733,0.328-0.733,0.733v28.221c0,0.405,0.328,0.733,0.733,0.733H52.29
						c0.405,0,0.734-0.328,0.734-0.733V10.303C53.024,9.898,52.695,9.569,52.29,9.569z M23.235,14.172h8.724v1.669h-8.724V14.172
						L23.235,14.172z M21.768,37.79H10.692V14.172h11.076V37.79z M21.768,12.705H10.692v-1.669h11.076V12.705z M51.557,37.79H23.235
						V17.307h28.322V37.79z M33.425,15.841v-1.669h7.941v1.669H33.425z M51.557,12.705h-2.402c-0.405,0-0.733,0.328-0.733,0.733
						c0,0.405,0.328,0.734,0.733,0.734h2.402v1.669h-8.724v-1.669h3.186c0.405,0,0.734-0.328,0.734-0.734
						c0-0.405-0.328-0.733-0.734-0.733H23.235v-1.669h28.322V12.705z"/>
				</g>
			</g>
			<g>
				<g>
					<path fill="#06133A" d="M13.878,15.841h-0.784c-0.405,0-0.734,0.328-0.734,0.733c0,0.405,0.328,0.733,0.734,0.733h0.784
						c0.405,0,0.733-0.328,0.733-0.733C14.611,16.169,14.283,15.841,13.878,15.841z"/>
				</g>
			</g>
			<g>
				<g>
					<path fill="#06133A" d="M19.365,15.841h-2.352c-0.405,0-0.733,0.328-0.733,0.733c0,0.405,0.328,0.733,0.733,0.733h2.352
						c0.405,0,0.733-0.328,0.733-0.733C20.099,16.169,19.77,15.841,19.365,15.841z"/>
				</g>
			</g>
			<g>
				<g>
					<path fill="#06133A" d="M13.878,18.976h-0.784c-0.405,0-0.734,0.328-0.734,0.733c0,0.405,0.328,0.733,0.734,0.733h0.784
						c0.405,0,0.733-0.328,0.733-0.733C14.611,19.305,14.283,18.976,13.878,18.976z"/>
				</g>
			</g>
			<g>
				<g>
					<path fill="#06133A" d="M19.365,18.976h-2.352c-0.405,0-0.733,0.328-0.733,0.733c0,0.405,0.328,0.733,0.733,0.733h2.352
						c0.405,0,0.733-0.328,0.733-0.733C20.099,19.305,19.77,18.976,19.365,18.976z"/>
				</g>
			</g>
			<g>
				<g>
					<path fill="#06133A" d="M13.878,22.112h-0.784c-0.405,0-0.734,0.328-0.734,0.733c0,0.405,0.328,0.733,0.734,0.733h0.784
						c0.405,0,0.733-0.328,0.733-0.733C14.611,22.44,14.283,22.112,13.878,22.112z"/>
				</g>
			</g>
			<g>
				<g>
					<path fill="#06133A" d="M19.365,22.112h-2.352c-0.405,0-0.733,0.328-0.733,0.733c0,0.405,0.328,0.733,0.733,0.733h2.352
						c0.405,0,0.733-0.328,0.733-0.733C20.099,22.44,19.77,22.112,19.365,22.112z"/>
				</g>
			</g>
			<g>
				<g>
					<path fill="#06133A" d="M13.878,25.248h-0.784c-0.405,0-0.734,0.328-0.734,0.733c0,0.405,0.328,0.733,0.734,0.733h0.784
						c0.405,0,0.733-0.328,0.733-0.733C14.611,25.576,14.283,25.248,13.878,25.248z"/>
				</g>
			</g>
			<g>
				<g>
					<path fill="#06133A" d="M19.365,25.248h-2.352c-0.405,0-0.733,0.328-0.733,0.733c0,0.405,0.328,0.733,0.733,0.733h2.352
						c0.405,0,0.733-0.328,0.733-0.733C20.099,25.576,19.77,25.248,19.365,25.248z"/>
				</g>
			</g>
			<g>
				<g>
					<path fill="#06133A" d="M13.878,28.383h-0.784c-0.405,0-0.734,0.328-0.734,0.734c0,0.405,0.328,0.733,0.734,0.733h0.784
						c0.405,0,0.733-0.328,0.733-0.733C14.611,28.712,14.283,28.383,13.878,28.383z"/>
				</g>
			</g>
			<g>
				<g>
					<path fill="#06133A" d="M19.365,28.383h-2.352c-0.405,0-0.733,0.328-0.733,0.734c0,0.405,0.328,0.733,0.733,0.733h2.352
						c0.405,0,0.733-0.328,0.733-0.733C20.099,28.712,19.77,28.383,19.365,28.383z"/>
				</g>
			</g>
			<g>
				<g>
					<path fill="#06133A" d="M49.154,22.896h-0.705c-0.309,0-0.585,0.194-0.69,0.485l-2.132,5.922l-2.132-5.922
						c-0.105-0.291-0.381-0.485-0.69-0.485h-0.705c-0.405,0-0.734,0.328-0.734,0.734v7.839c0,0.405,0.328,0.733,0.734,0.733
						c0.405,0,0.733-0.328,0.733-0.733v-5.596l2.069,5.747c0.017,0.088,0.057,0.174,0.125,0.271
						c0.141,0.201,0.368,0.312,0.601,0.312c0.114,0,0.23-0.027,0.338-0.083c0.171-0.089,0.293-0.237,0.354-0.407
						c0.036-0.102,1.278-3.552,2.102-5.84v5.596c0,0.405,0.328,0.733,0.734,0.733c0.405,0,0.733-0.328,0.733-0.733v-7.839
						C49.887,23.224,49.559,22.896,49.154,22.896z"/>
				</g>
			</g>
			<g>
				<g>
					<path fill="#06133A" d="M38.157,28.868c1.166-0.441,1.998-1.568,1.998-2.887c0-1.701-1.384-3.085-3.085-3.085h-3.136
						c-0.405,0-0.733,0.328-0.733,0.733v7.839c0,0.405,0.328,0.733,0.733,0.733c0.405,0,0.734-0.328,0.734-0.733v-2.402h1.949
						l1.365,2.73c0.129,0.257,0.388,0.405,0.657,0.405c0.11,0,0.222-0.025,0.327-0.078c0.362-0.181,0.509-0.622,0.328-0.984
						L38.157,28.868z M37.069,27.599h-2.402v-3.237h2.402c0.892,0,1.618,0.726,1.618,1.618
						C38.687,26.873,37.961,27.599,37.069,27.599z"/>
				</g>
			</g>
			<g>
				<g>
					<path fill="#06133A" d="M31.61,29.857c-0.304-0.268-0.767-0.239-1.035,0.065c-0.456,0.517-1.113,0.814-1.802,0.814
						c-1.325,0-2.402-1.078-2.402-2.402v-1.568c0-1.325,1.078-2.402,2.402-2.402c0.689,0,1.346,0.297,1.802,0.814
						c0.268,0.304,0.731,0.333,1.035,0.065c0.304-0.268,0.333-0.731,0.065-1.035c-0.735-0.833-1.793-1.311-2.903-1.311
						c-2.133,0-3.869,1.736-3.869,3.869v1.568c0,2.133,1.736,3.869,3.869,3.869c1.11,0,2.167-0.478,2.902-1.31
						C31.943,30.588,31.914,30.125,31.61,29.857z"/>
				</g>
			</g>
		</g>
	</g>
</g>
</svg>
