<?xml version="1.0" encoding="utf-8"?>
<!-- Generator: Adobe Illustrator 22.0.1, SVG Export Plug-In . SVG Version: 6.00 Build 0)  -->
<svg version="1.1" xmlns="http://www.w3.org/2000/svg" xmlns:xlink="http://www.w3.org/1999/xlink" x="0px" y="0px"
	 viewBox="0 0 731 532.8" style="enable-background:new 0 0 731 532.8;" xml:space="preserve">
<style type="text/css">
	.st0{fill:#FFFFFF;}
	.st1{fill:none;stroke:#9FAED9;stroke-miterlimit:10;}
	.st2{clip-path:url(#SVGID_2_);}
	.st3{clip-path:url(#SVGID_4_);fill:url(#SVGID_5_);}
	.st4{opacity:2.000000e-02;clip-path:url(#SVGID_4_);}
	.st5{clip-path:url(#SVGID_4_);fill:none;}
	.st6{display:none;}
	.st7{display:inline;fill:#FFFFFF;}
	.st8{opacity:0.75;}
	.st9{opacity:0.75;fill:#5D5D5D;}
	.st10{fill:#5D5D5D;}
	.st11{fill:#FE78B7;}
	.st12{fill:#8F70D6;}
	.st13{fill:#EC818D;}
	.st14{fill:#057FED;}
	.st15{fill:#FF7A6C;}
	.st16{fill:#FFC352;}
	.st17{fill:url(#SVGID_6_);}
	.st18{fill:#1035A0;}
	.st19{fill:#B6DDA2;}
	.st20{fill:#6DBC45;}
	.st21{fill:#D1EFE4;}
	.st22{opacity:0.8;fill:#2F8466;}
	.st23{fill:#FAF0F8;}
	.st24{fill:#AC2F96;}
	.st25{opacity:0.5;}
	.st26{fill:#E6E6E6;}
	.st27{fill:#999999;}
	.st28{fill:#FACCD0;}
	.st29{fill:#F15C69;}
	.st30{fill:#F5CDA5;}
	.st31{fill:#E6831F;}
	.st32{fill:#D7E8F9;}
	.st33{fill:#4494E7;}
	.st34{fill:#06E0A4;}
	.st35{fill:#BC74CC;}
	.st36{fill:#5A75BA;}
	.st37{fill:none;}
	.st38{fill:#E7061F;}
	.st39{fill:url(#SVGID_7_);}
	.st40{opacity:5.000000e-02;}
	.st41{fill:url(#SVGID_8_);}
	.st42{opacity:7.000000e-02;fill:none;}
	.st43{fill:#FFF5E3;}
	.st44{fill:#0C2878;}
	.st45{fill:#E2FBFE;}
	.st46{fill:#E1FBF4;}
	.st47{fill:#FFEFF7;}
	.st48{fill:url(#SVGID_9_);}
	.st49{fill:#9FF3FD;stroke:#475DAD;stroke-width:1.2526;stroke-miterlimit:10;}
	.st50{fill:#A4FFE5;}
	.st51{fill:#475DAD;}
	.st52{fill:#FFE7BA;}
	.st53{fill:#CCCCCC;}
	.st54{fill:none;stroke:#475DAD;stroke-width:2;stroke-linecap:round;stroke-miterlimit:10;stroke-dasharray:12,12;}
	.st55{fill:none;stroke:#9FF3FD;stroke-width:0.9506;stroke-miterlimit:10;}
	.st56{fill:#9FF3FD;}
	.st57{fill:#405DB3;}
	.st58{fill:#E3FEFF;}
	.st59{fill:#F3FFFF;}
	.st60{fill:#FFFFFF;stroke:#9FF3FD;stroke-width:0.9506;stroke-miterlimit:10;}
	.st61{fill:#F59BA5;}
	.st62{fill:none;stroke:#9FF3FD;stroke-width:0.9471;stroke-miterlimit:10;}
	.st63{fill:#FFFFFF;stroke:#9FF3FD;stroke-width:0.9471;stroke-miterlimit:10;}
	.st64{fill:#416170;stroke:#364042;stroke-width:0.9471;stroke-miterlimit:10;}
	.st65{fill:#FCD9C1;}
	.st66{fill:#F4C8B3;}
	.st67{clip-path:url(#SVGID_11_);fill:#F4C8B3;}
	.st68{fill:#FCD9C1;stroke:#B29583;stroke-width:0.9471;stroke-miterlimit:10;}
	.st69{fill:#E26668;stroke:#8C414D;stroke-width:0.9471;stroke-miterlimit:10;}
	.st70{clip-path:url(#SVGID_13_);fill:#FFFFFF;}
	.st71{clip-path:url(#SVGID_13_);fill:#FC9493;}
	.st72{fill:#284354;}
	.st73{fill:none;stroke:#9FF3FD;stroke-width:1.2685;stroke-miterlimit:10;}
	.st74{fill:#B3B3B3;}
	.st75{fill:#666666;}
	.st76{fill:#FE93C5;stroke:#455EB2;stroke-width:1.0983;stroke-miterlimit:10;}
	.st77{fill:#455EB2;stroke:#455EB2;stroke-width:1.0983;stroke-miterlimit:10;}
	.st78{fill:#FFFFFF;stroke:#455EB2;stroke-width:1.0983;stroke-miterlimit:10;}
	.st79{fill:#9FF3FD;stroke:#455EB2;stroke-width:1.0983;stroke-miterlimit:10;}
	.st80{fill:#40E6FB;stroke:#455EB2;stroke-width:1.0983;stroke-miterlimit:10;}
	.st81{fill:#9BCCF8;stroke:#455EB2;stroke-width:1.0983;stroke-miterlimit:10;}
	.st82{fill:#F1F2F2;stroke:#455EB2;stroke-width:1.0983;stroke-miterlimit:10;}
	.st83{fill:#FE93C5;}
	.st84{fill:#455EB2;}
	.st85{fill:#F1F2F2;}
	.st86{fill:#40E5FF;}
	.st87{fill:#9BF3DB;}
	.st88{fill:#FFC9E2;}
	.st89{fill:#455EB2;stroke:#455EB2;stroke-width:1.0921;stroke-miterlimit:10;}
	.st90{fill:#FFEFDA;}
	.st91{fill:#70ECFC;}
	.st92{fill:#455EB2;stroke:#455EB2;stroke-width:2.1326;stroke-miterlimit:10;}
	.st93{fill:none;stroke:#455EB2;stroke-width:2.1326;stroke-miterlimit:10;}
	.st94{fill:#F6F6F7;}
	.st95{fill:none;stroke:#9FF3FD;stroke-width:0.9373;stroke-miterlimit:10;}
	.st96{fill:#FFFFFF;stroke:#9FF3FD;stroke-width:0.9373;stroke-miterlimit:10;}
	.st97{fill:none;stroke:#D8D8D8;stroke-miterlimit:10;}
	.st98{fill:none;stroke:#9FF3FD;stroke-miterlimit:10;}
	.st99{fill:#CFF9FE;}
	.st100{fill:#EBFBFC;}
	.st101{fill:none;stroke:#D8D8D8;stroke-width:0.9373;stroke-miterlimit:10;}
	.st102{fill:#0AE0A4;}
	.st103{fill:#38A078;}
	.st104{fill:none;stroke:#9FF3FD;stroke-width:0.9461;stroke-miterlimit:10;}
	.st105{fill:#FFFFFF;stroke:#9FF3FD;stroke-width:0.9461;stroke-miterlimit:10;}
	.st106{fill:#FFFFFF;stroke:#9FF3FD;stroke-width:0.8527;stroke-miterlimit:10;}
	.st107{fill:#333333;}
	.st108{fill:#808080;}
	.st109{fill:#818181;}
	.st110{fill:none;stroke:#9FF3FD;stroke-width:0.9436;stroke-miterlimit:10;}
	.st111{fill:#D8D8D8;}
	.st112{fill:#CFD7EC;}
	.st113{fill:#FFFFFF;stroke:#9FF3FD;stroke-width:0.9436;stroke-miterlimit:10;}
	.st114{fill:#FFFFFF;stroke:#9FF3FD;stroke-width:0.8311;stroke-miterlimit:10;}
	.st115{fill:#F16979;}
	.st116{fill:#FFDB97;}
	.st117{fill:#38E6B6;}
	.st118{fill:#FEAED4;}
	.st119{fill:#C7B7EB;}
	.st120{fill:none;stroke:#FFFFFF;stroke-width:0.9436;}
	.st121{fill:#9FF3FD;stroke:#9FF3FD;stroke-width:0.9436;stroke-miterlimit:10;}
	.st122{fill:none;stroke:#405DB3;stroke-width:1.8873;stroke-miterlimit:10;}
	.st123{fill:#FFF2BD;}
	.st124{fill:#FFB8CC;}
	.st125{fill:#C0F2FF;}
	.st126{fill:none;stroke:#9FF3FD;stroke-width:1.1021;stroke-miterlimit:10;}
	.st127{fill:#FFFFFF;stroke:#9FF3FD;stroke-width:1.1021;stroke-miterlimit:10;}
	.st128{fill:#4D4D4D;}
	.st129{fill:none;stroke:#FFFFFF;stroke-width:1.1021;stroke-miterlimit:10;}
	.st130{fill:#BBFCE8;}
	.st131{fill:#F1A1AA;}
	.st132{fill:#10E0FA;stroke:#FFFFFF;stroke-miterlimit:10;}
</style>
<g id="Grid">
</g>
<g id="Layer_4">
</g>
<g id="Layer_5">
</g>
<g id="Layer_6">
</g>
<g id="Layer_7">
</g>
<g id="Layer_8">
	<g>
		<g>
			
				<image style="overflow:visible;opacity:0.1;" width="758" height="470" xlink:href="5AD09996.png"  transform="matrix(1 0 0 1 -15.8796 41.7048)">
			</image>
			<g>
				<path class="st0" d="M700.7,462.8H24.5c-6.3,0-11.4-5.1-11.4-11.4V63.1c0-6.3,5.1-11.4,11.4-11.4h676.2
					c6.3,0,11.4,5.1,11.4,11.4v388.3C712.1,457.7,707,462.8,700.7,462.8z"/>
				<path class="st62" d="M700.7,462.8H24.5c-6.3,0-11.4-5.1-11.4-11.4V63.1c0-6.3,5.1-11.4,11.4-11.4h676.2
					c6.3,0,11.4,5.1,11.4,11.4v388.3C712.1,457.7,707,462.8,700.7,462.8z"/>
			</g>
		</g>
		<path class="st56" d="M712.1,82.4h-699V63.1c0-6.3,5.1-11.4,11.4-11.4h676.2c6.3,0,11.4,5.1,11.4,11.4V82.4z"/>
		<path class="st57" d="M39.3,66.6c0,3.3-2.7,6-6,6c-3.3,0-6-2.7-6-6c0-3.3,2.7-6,6-6C36.6,60.6,39.3,63.3,39.3,66.6z"/>
		<path class="st57" d="M61.1,66.6c0,3.3-2.7,6-6,6s-6-2.7-6-6c0-3.3,2.7-6,6-6S61.1,63.3,61.1,66.6z"/>
		<rect x="13.6" y="82.4" class="st58" width="697.3" height="30.5"/>
		<rect x="13.6" y="112.8" class="st59" width="697.3" height="37.7"/>
		<g>
			<g>
				<g>
					<path class="st57" d="M43.9,94.4H28.8c-0.8,0-1.4-0.6-1.4-1.4l0,0c0-0.8,0.6-1.4,1.4-1.4h15.2c0.8,0,1.4,0.6,1.4,1.4l0,0
						C45.3,93.7,44.7,94.4,43.9,94.4z"/>
				</g>
				<g>
					<path class="st57" d="M43.9,99.1H28.8c-0.8,0-1.4-0.6-1.4-1.4l0,0c0-0.8,0.6-1.4,1.4-1.4h15.2c0.8,0,1.4,0.6,1.4,1.4l0,0
						C45.3,98.5,44.7,99.1,43.9,99.1z"/>
				</g>
				<g>
					<path class="st57" d="M43.9,103.7H28.8c-0.8,0-1.4-0.6-1.4-1.4l0,0c0-0.8,0.6-1.4,1.4-1.4h15.2c0.8,0,1.4,0.6,1.4,1.4l0,0
						C45.3,103,44.7,103.7,43.9,103.7z"/>
				</g>
			</g>
		</g>
		<path class="st34" d="M74.1,103.7H64c-1.6,0-2.8-1.3-2.8-2.8v-6.5c0-1.6,1.3-2.8,2.8-2.8h10.1c1.6,0,2.8,1.3,2.8,2.8v6.5
			C76.9,102.4,75.6,103.7,74.1,103.7z"/>
		<path class="st34" d="M96.6,103.7H86.5c-1.6,0-2.8-1.3-2.8-2.8v-6.5c0-1.6,1.3-2.8,2.8-2.8h10.1c1.6,0,2.8,1.3,2.8,2.8v6.5
			C99.4,102.4,98.1,103.7,96.6,103.7z"/>
		<path class="st34" d="M578.6,103.7h-10.1c-1.6,0-2.8-1.3-2.8-2.8v-6.5c0-1.6,1.3-2.8,2.8-2.8h10.1c1.6,0,2.8,1.3,2.8,2.8v6.5
			C581.4,102.4,580.1,103.7,578.6,103.7z"/>
		<path class="st34" d="M556.8,103.7h-10.1c-1.6,0-2.8-1.3-2.8-2.8v-6.5c0-1.6,1.3-2.8,2.8-2.8h10.1c1.6,0,2.8,1.3,2.8,2.8v6.5
			C559.6,102.4,558.3,103.7,556.8,103.7z"/>
		<path class="st34" d="M118.4,103.7h-10.1c-1.6,0-2.8-1.3-2.8-2.8v-6.5c0-1.6,1.3-2.8,2.8-2.8h10.1c1.6,0,2.8,1.3,2.8,2.8v6.5
			C121.2,102.4,119.9,103.7,118.4,103.7z"/>
		<path class="st63" d="M691.3,105.9h-84.4c-3.3,0-6.1-2.7-6.1-6.1v-5c0-3.3,2.7-6.1,6.1-6.1h84.4c3.3,0,6.1,2.7,6.1,6.1v5
			C697.4,103.2,694.7,105.9,691.3,105.9z"/>
		<g>
			<path d="M614.8,97.9c0,0.4-0.1,0.7-0.4,0.9c-0.3,0.2-0.7,0.3-1.2,0.3c-0.6,0-1-0.1-1.3-0.2v-0.3c0.3,0.1,0.8,0.2,1.3,0.2
				c0.4,0,0.7-0.1,0.9-0.3c0.2-0.2,0.3-0.4,0.3-0.7c0-0.2,0-0.3-0.1-0.4c-0.1-0.1-0.2-0.2-0.4-0.3c-0.2-0.1-0.4-0.2-0.8-0.3
				c-0.5-0.2-0.8-0.3-1-0.5c-0.2-0.2-0.3-0.5-0.3-0.8c0-0.4,0.1-0.6,0.4-0.9c0.3-0.2,0.6-0.3,1.1-0.3c0.4,0,0.9,0.1,1.3,0.3
				l-0.1,0.3c-0.4-0.2-0.8-0.2-1.1-0.2c-0.3,0-0.6,0.1-0.8,0.2c-0.2,0.2-0.3,0.4-0.3,0.7c0,0.2,0,0.3,0.1,0.4
				c0.1,0.1,0.2,0.2,0.3,0.3c0.1,0.1,0.4,0.2,0.7,0.3c0.4,0.1,0.6,0.3,0.8,0.4c0.2,0.1,0.3,0.3,0.4,0.4
				C614.8,97.5,614.8,97.7,614.8,97.9z"/>
			<path d="M617.2,99.2c-0.5,0-0.9-0.2-1.2-0.5c-0.3-0.3-0.4-0.8-0.4-1.3c0-0.6,0.1-1,0.4-1.3s0.6-0.5,1.1-0.5c0.4,0,0.7,0.1,1,0.4
				c0.2,0.3,0.4,0.7,0.4,1.2v0.3h-2.5c0,0.5,0.1,0.9,0.3,1.1c0.2,0.3,0.5,0.4,1,0.4c0.2,0,0.4,0,0.5,0c0.2,0,0.3-0.1,0.6-0.2v0.3
				c-0.2,0.1-0.4,0.1-0.6,0.2S617.4,99.2,617.2,99.2z M617.1,95.8c-0.3,0-0.6,0.1-0.8,0.3c-0.2,0.2-0.3,0.5-0.4,1h2.2
				c0-0.4-0.1-0.7-0.3-1C617.6,95.9,617.4,95.8,617.1,95.8z"/>
			<path d="M621.5,99.1l-0.1-0.6h0c-0.2,0.2-0.4,0.4-0.5,0.5c-0.2,0.1-0.4,0.1-0.7,0.1c-0.3,0-0.6-0.1-0.8-0.3
				c-0.2-0.2-0.3-0.4-0.3-0.7c0-0.3,0.1-0.6,0.4-0.8c0.3-0.2,0.7-0.3,1.2-0.3l0.7,0v-0.2c0-0.3-0.1-0.6-0.2-0.8
				c-0.1-0.2-0.4-0.3-0.7-0.3c-0.3,0-0.7,0.1-1,0.3l-0.1-0.3c0.4-0.2,0.8-0.3,1.1-0.3c0.4,0,0.7,0.1,0.9,0.3s0.3,0.5,0.3,0.9v2.3
				H621.5z M620.2,98.9c0.4,0,0.7-0.1,0.9-0.3c0.2-0.2,0.3-0.5,0.3-0.9v-0.3l-0.6,0c-0.5,0-0.8,0.1-1.1,0.2
				c-0.2,0.1-0.3,0.3-0.3,0.6c0,0.2,0.1,0.4,0.2,0.5C619.8,98.8,620,98.9,620.2,98.9z"/>
			<path d="M624.3,95.5c0.1,0,0.3,0,0.5,0l-0.1,0.3c-0.1,0-0.3-0.1-0.5-0.1c-0.3,0-0.5,0.1-0.7,0.4c-0.2,0.3-0.3,0.6-0.3,1v1.9h-0.3
				v-3.5h0.3l0,0.6h0c0.1-0.3,0.3-0.4,0.5-0.5C623.9,95.6,624.1,95.5,624.3,95.5z"/>
			<path d="M626.9,99.2c-0.5,0-0.9-0.2-1.2-0.5c-0.3-0.3-0.4-0.8-0.4-1.3c0-0.6,0.1-1,0.4-1.4s0.7-0.5,1.2-0.5
				c0.3,0,0.6,0.1,0.9,0.2l-0.1,0.3c-0.3-0.1-0.6-0.2-0.8-0.2c-0.4,0-0.8,0.1-1,0.4s-0.3,0.6-0.3,1.2c0,0.5,0.1,0.8,0.3,1.1
				c0.2,0.3,0.5,0.4,0.9,0.4c0.3,0,0.6-0.1,0.9-0.2V99C627.5,99.1,627.2,99.2,626.9,99.2z"/>
			<path d="M631.1,99.1v-2.3c0-0.4-0.1-0.6-0.2-0.8s-0.4-0.2-0.7-0.2c-0.4,0-0.7,0.1-0.9,0.3s-0.3,0.6-0.3,1v1.9h-0.3v-5h0.3v1.6
				l0,0.4h0c0.1-0.2,0.3-0.4,0.5-0.5c0.2-0.1,0.4-0.1,0.7-0.1c0.8,0,1.2,0.4,1.2,1.3v2.3H631.1z"/>
		</g>
		<g>
			<g>
				<path class="st57" d="M333.2,131.7l-0.9,2.8h-1.2l3-8.9h1.4l3,8.9h-1.2l-1-2.8H333.2z M336.1,130.8l-0.9-2.6
					c-0.2-0.6-0.3-1.1-0.5-1.6h0c-0.1,0.5-0.3,1.1-0.5,1.6l-0.9,2.6H336.1z"/>
				<path class="st57" d="M345,132.8c0,0.7,0,1.2,0.1,1.8h-1l-0.1-1h0c-0.3,0.5-1,1.2-2.1,1.2c-1,0-2.2-0.6-2.2-2.8v-3.8h1.2v3.6
					c0,1.2,0.4,2,1.4,2c0.8,0,1.3-0.5,1.5-1.1c0.1-0.2,0.1-0.4,0.1-0.6v-3.9h1.2V132.8z"/>
				<path class="st57" d="M352.5,125.1v7.8c0,0.6,0,1.2,0.1,1.7h-1l-0.1-1.1h0c-0.4,0.7-1.1,1.3-2.2,1.3c-1.6,0-2.7-1.3-2.7-3.3
					c0-2.1,1.3-3.4,2.9-3.4c1,0,1.6,0.5,1.9,1h0v-3.8H352.5z M351.3,130.7c0-0.1,0-0.3-0.1-0.5c-0.2-0.7-0.8-1.4-1.7-1.4
					c-1.2,0-1.9,1.1-1.9,2.5c0,1.3,0.6,2.4,1.9,2.4c0.8,0,1.5-0.5,1.7-1.4c0-0.2,0.1-0.3,0.1-0.5V130.7z"/>
				<path class="st57" d="M355.7,126.3c0,0.4-0.3,0.7-0.7,0.7c-0.4,0-0.7-0.3-0.7-0.7c0-0.4,0.3-0.7,0.7-0.7
					C355.5,125.6,355.7,125.9,355.7,126.3z M354.4,134.5v-6.4h1.2v6.4H354.4z"/>
				<path class="st57" d="M363.3,131.3c0,2.4-1.6,3.4-3.2,3.4c-1.7,0-3.1-1.3-3.1-3.3c0-2.1,1.4-3.4,3.2-3.4
					C362.1,128,363.3,129.3,363.3,131.3z M358.3,131.3c0,1.4,0.8,2.5,1.9,2.5c1.1,0,1.9-1,1.9-2.5c0-1.1-0.5-2.5-1.9-2.5
					C358.9,128.8,358.3,130.1,358.3,131.3z"/>
				<path class="st57" d="M373.9,134.2c-0.4,0.2-1.3,0.4-2.4,0.4c-2.5,0-4.4-1.6-4.4-4.5c0-2.8,1.9-4.7,4.7-4.7
					c1.1,0,1.8,0.2,2.1,0.4l-0.3,0.9c-0.4-0.2-1.1-0.4-1.8-0.4c-2.1,0-3.5,1.3-3.5,3.7c0,2.2,1.3,3.6,3.4,3.6c0.7,0,1.4-0.1,1.9-0.4
					L373.9,134.2z"/>
				<path class="st57" d="M378.8,134.5l-0.1-0.8h0c-0.4,0.5-1,1-2,1c-1.3,0-2-0.9-2-1.8c0-1.6,1.4-2.4,3.9-2.4v-0.1
					c0-0.5-0.1-1.5-1.5-1.5c-0.6,0-1.2,0.2-1.7,0.5l-0.3-0.8c0.5-0.3,1.3-0.6,2.1-0.6c2,0,2.4,1.3,2.4,2.6v2.4c0,0.6,0,1.1,0.1,1.5
					H378.8z M378.6,131.3c-1.3,0-2.7,0.2-2.7,1.4c0,0.8,0.5,1.1,1.1,1.1c0.8,0,1.4-0.5,1.6-1.1c0-0.1,0.1-0.3,0.1-0.4V131.3z"/>
				<path class="st57" d="M381.6,125.1h1.2v9.4h-1.2V125.1z"/>
				<path class="st57" d="M384.7,125.1h1.2v9.4h-1.2V125.1z"/>
			</g>
		</g>
		<g>
			
				<image style="overflow:visible;" width="446" height="448" xlink:href="5AD0999A.png"  transform="matrix(6.966000e-02 0 0 6.966000e-02 666.3211 115.5412)">
			</image>
		</g>
		<g>
			<g>
				<path class="st57" d="M580.4,167c-0.1,0-0.2,0-0.4,0.1l-6.5,3.7c-0.4,0.2-0.7,0.6-0.7,0.9v1.3v3v1.3c0,0.3,0.3,0.7,0.7,0.9
					l6.5,3.7c0.1,0.1,0.3,0.1,0.4,0.1c0.2,0,0.3-0.1,0.3-0.3v-4.5v-5.2v-4.5C580.7,167.1,580.6,167,580.4,167z"/>
				<path class="st57" d="M572.2,177.7v-6.6h-3.5c-1.3,0-2.4,1.1-2.4,2.4v1.7c0,0.6,0.2,1.2,0.6,1.6h0l3.6,3.6h2.6l-2.7-2.7
					C571.4,177.7,572.2,177.7,572.2,177.7z"/>
			</g>
		</g>
		<g>
			<path class="st57" d="M606.6,180.5L606.6,180.5c-0.9,0-1.7-0.7-1.7-1.7v-6.4c0-0.9,0.7-1.7,1.7-1.7l0,0c0.9,0,1.7,0.7,1.7,1.7
				v6.4C608.2,179.7,607.5,180.5,606.6,180.5z"/>
			<path class="st57" d="M611.6,180.5L611.6,180.5c-0.9,0-1.7-0.7-1.7-1.7V170c0-0.9,0.7-1.7,1.7-1.7l0,0c0.9,0,1.7,0.7,1.7,1.7v8.8
				C613.3,179.7,612.5,180.5,611.6,180.5z"/>
			<path class="st57" d="M616.5,180.5L616.5,180.5c-0.9,0-1.7-0.7-1.7-1.7v-11.6c0-0.9,0.7-1.7,1.7-1.7l0,0c0.9,0,1.7,0.7,1.7,1.7
				v11.6C618.2,179.7,617.4,180.5,616.5,180.5z"/>
		</g>
		<g>
			<g>
				<path class="st57" d="M328,374.7c0.6-0.1,1.4-0.2,2.2-0.2c1.2,0,2,0.2,2.6,0.7c0.5,0.4,0.7,1,0.7,1.7c0,1.2-0.7,2-1.7,2.3v0
					c0.7,0.2,1.1,0.9,1.3,1.8c0.3,1.2,0.5,2.1,0.7,2.5h-1.2c-0.1-0.3-0.3-1-0.6-2.1c-0.3-1.2-0.7-1.7-1.8-1.7h-1.1v3.9H328V374.7z
					 M329.2,378.8h1.2c1.2,0,2-0.7,2-1.7c0-1.2-0.8-1.7-2.1-1.7c-0.6,0-1,0.1-1.1,0.1V378.8z"/>
				<path class="st57" d="M340.5,381.8c0,0.7,0,1.2,0.1,1.8h-1l-0.1-1h0c-0.3,0.5-1,1.2-2.1,1.2c-1,0-2.2-0.6-2.2-2.8v-3.8h1.2v3.6
					c0,1.2,0.4,2,1.4,2c0.8,0,1.3-0.5,1.5-1.1c0.1-0.2,0.1-0.4,0.1-0.6v-3.9h1.2V381.8z"/>
				<path class="st57" d="M342.3,382.3c0.3,0.2,1,0.5,1.5,0.5c0.8,0,1.2-0.4,1.2-1c0-0.6-0.3-0.9-1.2-1.2c-1.2-0.4-1.7-1-1.7-1.8
					c0-1,0.8-1.9,2.2-1.9c0.6,0,1.2,0.2,1.6,0.4l-0.3,0.8c-0.3-0.2-0.7-0.4-1.3-0.4c-0.7,0-1.1,0.4-1.1,0.9c0,0.5,0.4,0.8,1.2,1.1
					c1.1,0.4,1.7,1,1.7,1.9c0,1.1-0.9,1.9-2.4,1.9c-0.7,0-1.4-0.2-1.8-0.4L342.3,382.3z"/>
				<path class="st57" d="M348.8,380L348.8,380c0.2-0.2,0.4-0.5,0.6-0.7l1.9-2.2h1.4l-2.5,2.6l2.8,3.8h-1.4l-2.2-3.1l-0.6,0.7v2.4
					h-1.2v-9.4h1.2V380z"/>
				<path class="st57" d="M357.7,383.5l-0.1-0.8h0c-0.4,0.5-1,1-2,1c-1.3,0-2-0.9-2-1.8c0-1.6,1.4-2.4,3.9-2.4v-0.1
					c0-0.5-0.1-1.5-1.5-1.5c-0.6,0-1.2,0.2-1.7,0.5l-0.3-0.8c0.5-0.3,1.3-0.6,2.1-0.6c2,0,2.4,1.3,2.4,2.6v2.4c0,0.6,0,1.1,0.1,1.5
					H357.7z M357.5,380.2c-1.3,0-2.7,0.2-2.7,1.4c0,0.8,0.5,1.1,1.1,1.1c0.8,0,1.4-0.5,1.6-1.1c0-0.1,0.1-0.3,0.1-0.4V380.2z"/>
				<path class="st57" d="M364.4,383.5l-2.3-8.9h1.2l1.1,4.5c0.3,1.1,0.5,2.2,0.7,3.1h0c0.1-0.9,0.4-1.9,0.7-3.1l1.2-4.5h1.2
					l1.1,4.5c0.3,1.1,0.5,2.1,0.6,3.1h0c0.2-1,0.4-2,0.7-3.1l1.2-4.5h1.2l-2.5,8.9h-1.2l-1.1-4.7c-0.3-1.1-0.5-2-0.6-2.9h0
					c-0.2,0.9-0.4,1.8-0.7,2.9l-1.3,4.7H364.4z"/>
				<path class="st57" d="M375.2,375.3c0,0.4-0.3,0.7-0.7,0.7c-0.4,0-0.7-0.3-0.7-0.7c0-0.4,0.3-0.7,0.7-0.7
					C374.9,374.6,375.2,374.9,375.2,375.3z M373.9,383.5v-6.4h1.2v6.4H373.9z"/>
				<path class="st57" d="M377,374.1h1.2v9.4H377V374.1z"/>
				<path class="st57" d="M380.1,374.1h1.2v9.4h-1.2V374.1z"/>
				<path class="st57" d="M384.5,375.3c0,0.4-0.3,0.7-0.7,0.7c-0.4,0-0.7-0.3-0.7-0.7c0-0.4,0.3-0.7,0.7-0.7
					C384.2,374.6,384.5,374.9,384.5,375.3z M383.2,383.5v-6.4h1.2v6.4H383.2z"/>
				<path class="st57" d="M386.2,382.3c0.3,0.2,1,0.5,1.5,0.5c0.8,0,1.2-0.4,1.2-1c0-0.6-0.3-0.9-1.2-1.2c-1.2-0.4-1.7-1-1.7-1.8
					c0-1,0.8-1.9,2.2-1.9c0.6,0,1.2,0.2,1.6,0.4l-0.3,0.8c-0.3-0.2-0.7-0.4-1.3-0.4c-0.7,0-1.1,0.4-1.1,0.9c0,0.5,0.4,0.8,1.2,1.1
					c1.1,0.4,1.7,1,1.7,1.9c0,1.1-0.9,1.9-2.4,1.9c-0.7,0-1.4-0.2-1.8-0.4L386.2,382.3z"/>
			</g>
		</g>
		<g>
			<path d="M357.7,398.8c0,2.1-0.8,3.3-2.1,3.3c-1.2,0-2-1.1-2-3.2c0-2.1,0.9-3.2,2.1-3.2C356.9,395.7,357.7,396.9,357.7,398.8z
				 M354.3,398.9c0,1.6,0.5,2.5,1.3,2.5c0.9,0,1.3-1,1.3-2.6c0-1.5-0.4-2.5-1.3-2.5C354.8,396.4,354.3,397.3,354.3,398.9z"/>
			<path d="M358.5,398.2c0-0.4,0.2-0.6,0.6-0.6s0.5,0.2,0.6,0.6c0,0.3-0.2,0.6-0.6,0.6C358.7,398.7,358.5,398.5,358.5,398.2z
				 M358.5,401.5c0-0.4,0.2-0.6,0.6-0.6s0.5,0.2,0.6,0.6c0,0.3-0.2,0.6-0.6,0.6C358.7,402.1,358.5,401.8,358.5,401.5z"/>
			<path d="M362.2,396.6L362.2,396.6l-1.1,0.6l-0.2-0.6l1.3-0.7h0.7v6.2h-0.8V396.6z"/>
			<path d="M369.3,398.8c0,2.1-0.8,3.3-2.1,3.3c-1.2,0-2-1.1-2-3.2c0-2.1,0.9-3.2,2.1-3.2C368.6,395.7,369.3,396.9,369.3,398.8z
				 M366,398.9c0,1.6,0.5,2.5,1.3,2.5c0.9,0,1.3-1,1.3-2.6c0-1.5-0.4-2.5-1.3-2.5C366.5,396.4,366,397.3,366,398.9z"/>
		</g>
		<path class="st61" d="M296.3,446.2h-24.6c-2.6,0-4.7-2.1-4.7-4.7v-24.6c0-2.6,2.1-4.7,4.7-4.7h24.6c2.6,0,4.7,2.1,4.7,4.7v24.6
			C301.1,444.1,298.9,446.2,296.3,446.2z"/>
		<path class="st61" d="M349.9,446.2h-24.6c-2.6,0-4.7-2.1-4.7-4.7v-24.6c0-2.6,2.1-4.7,4.7-4.7h24.6c2.6,0,4.7,2.1,4.7,4.7v24.6
			C354.6,444.1,352.5,446.2,349.9,446.2z"/>
		<path class="st61" d="M401.4,446.2h-24.6c-2.6,0-4.7-2.1-4.7-4.7v-24.6c0-2.6,2.1-4.7,4.7-4.7h24.6c2.6,0,4.7,2.1,4.7,4.7v24.6
			C406.2,444.1,404.1,446.2,401.4,446.2z"/>
		<path class="st61" d="M456.4,446.2h-24.6c-2.6,0-4.7-2.1-4.7-4.7v-24.6c0-2.6,2.1-4.7,4.7-4.7h24.6c2.6,0,4.7,2.1,4.7,4.7v24.6
			C461.1,444.1,459,446.2,456.4,446.2z"/>
		<g>
			<path class="st64" d="M305,283.3c-2.9-3.8-1-7.5,3.5-9.9c6.4-3.5,4.8-9-3.1-12.5c-7.9-3.5-9.4-14-1.1-19.8
				c8.3-5.8,10.4-10.5,4.6-18.3c-5.9-7.9-1.5-21.2,7.5-23c9-1.8,7.6-2.8,9.5-9.7c3.3-12.1,17.6-21.3,25.3-13.4
				c11-13,35.6-3.1,40.1,9c4.7,12.8,9,12.6,16,16.2c7,3.5,9.3,19.4,4,26.1c-7.1,8.8-3.2,12.7,5.5,16.9c8.6,4.2,6.5,10.3-0.4,13.7
				c-6.9,3.4-11.1,9.6-4.7,13.1c4.7,2.6,6.1,6.2,4.3,11.8C407.4,309.8,328.7,314.2,305,283.3L305,283.3z"/>
			<path class="st65" d="M414,333.4c-3.1-13.5-7.3-23.5-13.1-25.3c-17-5.5-36.2-6.8-32.1-18.9c2.6-7.6-18.3-7.6-15.8,0
				c4.1,12.1-13,13.4-30,18.9c-7.4,2.4-12.5,12.2-15.9,25.2c16.5,6,34.6,9.3,53.6,9.3C379.5,342.6,397.5,339.4,414,333.4L414,333.4z
				"/>
			<path class="st66" d="M333.2,248.1c3.2-1.3,4.1-6.6,2-11.8c-2.1-5.2-6.4-8.4-9.6-7.1c-3.2,1.3-4.1,6.6-2,11.8
				C325.7,246.2,330,249.4,333.2,248.1L333.2,248.1z"/>
			<path class="st66" d="M387.9,248.1c-3.2-1.3-4.1-6.6-2-11.8c2.1-5.2,6.4-8.4,9.6-7.1c3.2,1.3,4.1,6.6,2,11.8
				C395.4,246.2,391.1,249.4,387.9,248.1L387.9,248.1z"/>
			<g>
				<defs>
					<polygon id="SVGID_10_" points="348,262 351,307.8 368.7,307.8 371.7,262 348,262 					"/>
				</defs>
				<use xlink:href="#SVGID_10_"  style="overflow:visible;fill:#FCD9C1;"/>
				<clipPath id="SVGID_2_">
					<use xlink:href="#SVGID_10_"  style="overflow:visible;"/>
				</clipPath>
				<path style="clip-path:url(#SVGID_2_);fill:#F4C8B3;" d="M359.8,289c14.1,0,29.6-20.9,29.6-46.7s8.7-46.7-29.6-46.7
					s-29.6,20.9-29.6,46.7S345.7,289,359.8,289L359.8,289z"/>
			</g>
			<path class="st68" d="M360.7,283.8c15.1,0,31.6-20.9,31.6-46.7c0-25.8,9.3-46.7-31.6-46.7c-40.9,0-31.6,20.9-31.6,46.7
				C329.1,262.9,345.5,283.8,360.7,283.8L360.7,283.8z"/>
			<path class="st69" d="M421.1,352.8c-3.1-13.5-7.9-44.6-20.2-44.6c-6.5-2.1-13.3-3.6-19.1-5.3c-4.4,5.5-12.3,9.2-21.3,9.2
				c-8.8,0-16.5-3.5-20.9-8.7c-5,1.5-10.8,2.9-16.7,4.8c-13.9,0-19.6,31.5-23,44.5c16.6,6,41.7,9.3,60.7,9.3
				C379.5,361.9,404.6,358.7,421.1,352.8L421.1,352.8z"/>
			<path class="st64" d="M402.9,223.6c0-34-25.6-43.9-42-43.9c-16.3,0-42.6,9.9-42.6,43.9c0,15.8,3.8,11.7,3.8,11.7
				s17.6-7.3,38.5-7.3c20.9,0,38.5,7.3,38.5,7.3S402.9,239.3,402.9,223.6L402.9,223.6z"/>
			<g>
				<defs>
					<path id="SVGID_12_" d="M348,258.3c1.8,0,23.2,0,25,0c12.1,0,2.3,14.9-11.2,16c-0.3,0-1.2,0.1-1.3,0.1c-0.1,0-1,0-1.3-0.1
						C345.7,273.2,335.9,258.3,348,258.3L348,258.3z"/>
				</defs>
				<use xlink:href="#SVGID_12_"  style="overflow:visible;fill:#E26668;"/>
				<clipPath id="SVGID_4_">
					<use xlink:href="#SVGID_12_"  style="overflow:visible;"/>
				</clipPath>
				<path style="clip-path:url(#SVGID_4_);fill:#FFFFFF;" d="M371.4,253.3c0,0,2.9,0,2.9,2.9v3.2c0,0,0,2.9-2.9,2.9h-21.7
					c0,0-2.9,0-2.9-2.9v-3.2c0,0,0-2.9,2.9-2.9H371.4L371.4,253.3z"/>
				<path style="clip-path:url(#SVGID_4_);fill:#FC9493;" d="M348,279.4c1.8,0,23.2,0,25,0c12.1,0,2.3-14.9-11.2-16
					c-0.3,0-1.2-0.1-1.3-0.1c-0.1,0-1,0-1.3,0.1C345.7,264.5,335.9,279.4,348,279.4L348,279.4z"/>
				<path style="clip-path:url(#SVGID_4_);fill:#FFFFFF;" d="M368.5,270.7c0,0,2.1,0,2.1,2.1v2.3c0,0,0,2.1-2.1,2.1h-15.8
					c0,0-2.1,0-2.1-2.1v-2.3c0,0,0-2.1,2.1-2.1H368.5L368.5,270.7z"/>
			</g>
			<path class="st72" d="M345.1,237c3.4,0.2,6.5,2.6,6.8-0.5c0.3-3.6-3-5.9-6.3-6.3c-2.6-0.3-6.3,2.4-6.2,5.6
				C339.5,239.3,341.7,236.8,345.1,237L345.1,237z"/>
			<path class="st72" d="M376,237c-3.4,0.2-6.5,2.6-6.8-0.5c-0.3-3.6,3-5.9,6.3-6.3c2.6-0.3,6.3,2.4,6.2,5.6
				C381.6,239.3,379.4,236.8,376,237L376,237z"/>
		</g>
	</g>
</g>
</svg>
