<?xml version="1.0" encoding="utf-8"?>
<!-- Generator: Adobe Illustrator 21.0.0, SVG Export Plug-In . SVG Version: 6.00 Build 0)  -->
<svg version="1.1" id="Layer_1" xmlns="http://www.w3.org/2000/svg" xmlns:xlink="http://www.w3.org/1999/xlink" x="0px" y="0px"
	 viewBox="0 0 729.2 515.5" style="enable-background:new 0 0 729.2 515.5;" xml:space="preserve">
<style type="text/css">
	.st0{display:none;opacity:0.1;enable-background:new    ;}
	.st1{opacity:0.25;}
	.st2{fill:#9BF3DB;}
	.st3{fill:#475FAB;}
	.st4{fill:#FFFFFF;}
	.st5{fill:#BAE5F5;}
	.st6{fill:#8E919B;}
	.st7{fill:#CBE7D7;}
	.st8{fill:#FFFBF8;}
	.st9{fill:#485FAB;}
	.st10{fill:#FEFAE7;}
	.st11{fill:#C0E5F1;}
	.st12{fill:#E5A373;}
	.st13{fill:#475EAA;}
	.st14{fill:#F7D76F;}
	.st15{fill:#F9C05D;}
</style>
<g id="Grid">
</g>
<g id="_x32_4_Grid_Col" class="st0">
</g>
<g id="Layer_3">
</g>
<g id="Layer_4">
</g>
<g id="Layer_5">
	<g>
		<g class="st1">
			<g>
				<path class="st2" d="M89.9,208.7c0,131.5,236.7,275.2,367.3,275.2c130.6,0,270.9-143.7,270.9-275.2
					c0-131.5-55.1-220.6-247.9-120.9C364,147.9,89.9,77.2,89.9,208.7z"/>
			</g>
		</g>
		<g id="Layer_6_2_">
			<g id="XMLID_2_">
				<g>
					<g>
						<path class="st3" d="M625.3,234.6c13.1,12.6,25.5,24.4,24.2,41.7c-0.1,1.3-1.2,2.3-2.5,2.3c-0.1,0-0.1,0-0.2,0
							c-1.4-0.1-2.4-1.3-2.3-2.7c1.2-14.9-9.8-25.5-22.6-37.7c-14.4-13.8-3.7-34.8-3.6-35c0.7-1.2,2.2-1.7,3.4-1.1
							c1.2,0.7,1.7,2.2,1.1,3.4C622.3,206.3,613.6,223.4,625.3,234.6z"/>
					</g>
					<g>
						<path class="st3" d="M626.7,272.9c0.1,1.4-1,2.5-2.4,2.6c0,0-0.1,0-0.1,0c-1.3,0-2.4-1.1-2.5-2.4c0-0.2-0.7-13.1-10-18
							c-11.4-6.1-12-11.8-12-12.9c0-1.4,1.1-2.5,2.5-2.5c1.4,0,2.4,1.1,2.5,2.4c0.1,0.3,0.8,4.1,9.4,8.6
							C625.9,256.9,626.7,272.2,626.7,272.9z"/>
					</g>
					<g>
						<path class="st3" d="M590.7,251c19.6,18.4,18.1,26.4,17.6,27.9c-0.4,1-1.3,1.7-2.4,1.7c-0.3,0-0.6,0-0.9-0.2
							c-1.3-0.5-2-1.9-1.5-3.2c0,0,0,0,0-0.1c0-0.8-0.3-7.4-16.3-22.4c-5.2-4.9-7.9-10.7-8.1-17.4c-0.4-15.8,13.6-30.6,14.2-31.2
							c1-1,2.5-1.1,3.5-0.1c1,1,1,2.5,0.1,3.5c-0.1,0.1-13.2,14-12.8,27.6C584.4,242.5,586.6,247.1,590.7,251z"/>
					</g>
					<g>
						<path class="st3" d="M589.3,50.9c4,9.3,4.4,28.5-16.1,66.5c-5.5,10.3-12.1,20.2-19,28.7c-7.7,9.4-21,23.5-32.4,23.5
							c-2.1,0-4.2-0.5-6.1-1.6c-0.6-0.3-1.6-0.9-4.7-4.3c0.5,0.6,1.2,1,2,1c0.1,0,0.1,0,0.2,0c1.4-0.1,2.4-1.3,2.3-2.7
							c0-0.3,0-0.6,0-0.9c1.6,1.7,2.3,2.3,2.7,2.5c6.4,3.7,18.7-4.3,32.1-20.7c6.6-8.2,13.2-18,18.4-27.9
							c19.3-36.1,19.4-53.6,16-61.9c1.3-0.1,2.3-1.2,2.3-2.6c0-1.4-1.2-2.5-2.6-2.4c-0.1,0-1.1,0-2.6,0.3c-1.5-1.6-2.9-2.1-3.2-2.3
							c-41.3-7.5-102.1-18.3-114.5-20v0.1l-2.5-0.3c-0.3,0-7.3-0.5-15.8,10.6c-4.8,6.2-6.9,15.1-5.7,24c0.7,1,2.4,3.4,4.9,6.8
							c0,0.1,0.1,0.1,0.1,0.2c21.1,29.3,38,52.4,50.5,68.8c6.8,8.9,11.6,14.9,15,19c-0.1,2.4-0.1,4.7,0.1,7c0,0.5,0.2,0.9,0.5,1.3
							c-3.4-3.7-9.2-10.7-19.6-24.3c-6.1-8-13.3-17.6-21.6-28.9l0.2-0.4c0.7-1.2,0.2-2.7-1-3.4c-0.7-0.4-1.4-0.4-2.1-0.1
							c-4.7-6.4-9.7-13.3-15-20.6l1.9-3.5c0.7-1.2,0.2-2.7-1-3.4c-1.2-0.7-2.7-0.2-3.4,1l-0.8,1.4c-2.6-3.5-5.2-7.2-7.9-10.9
							c-0.1-0.1-0.1-0.1-0.1-0.2c-3.3-4.6-5.3-7.3-5.3-7.3l-0.4-0.5l-0.1-0.6c-0.1-0.8-0.2-1.6-0.3-2.4c0.1,0.2,0.3,0.3,0.4,0.5
							c0.5,0.7,1.2,1,2,1c0.5,0,1.1-0.2,1.5-0.5c1.1-0.8,1.3-2.4,0.5-3.5c-1.4-1.9-2.9-3.9-4.3-5.9c0.8-6.6,3.1-12.8,6.8-17.6
							c3.6-4.7,7-7.6,10.1-9.5c0,0,0,0,0,0c3.8,0.9,6.6,1.8,6.6,1.8c1.3,0.5,2.7-0.3,3.2-1.6c0.5-1.3-0.2-2.7-1.5-3.2c0,0,0,0-0.1,0
							c1.1-0.1,1.8-0.1,2.1-0.1l0,0.2c4.9,0.2,24.8,3.3,117.5,20.1C580.2,41.4,586.1,43.1,589.3,50.9z"/>
					</g>
					<g>
						<path class="st3" d="M587.1,50.6c0.1,1.4-1,2.5-2.3,2.6v0c-0.9-2.1-1.9-3.6-2.9-4.6c1.6-0.3,2.5-0.3,2.6-0.3
							C585.8,48.1,587,49.2,587.1,50.6z"/>
					</g>
					<g>
						<path class="st4" d="M584.8,53.1c3.4,8.4,3.4,25.9-16,61.9c-5.3,9.8-11.8,19.7-18.4,27.9c-13.4,16.5-25.7,24.4-32.1,20.7
							c-0.4-0.2-1.1-0.8-2.7-2.5c-0.1-1.4-0.1-2.9-0.1-4.3c0.4,0,0.8,0.1,1.2,0.1c6.3,0,18.8-3.4,34.1-24.9
							c12-16.8,26.3-44.6,29.3-63c1.2-7.6,0.7-12.2-0.4-14.8c3-0.9,4.8-1,4.9-1C584.7,53.1,584.7,53.1,584.8,53.1z"/>
					</g>
					<g>
						<path class="st3" d="M584.8,53.1L584.8,53.1c0,0.1-0.1,0.1-0.1,0.1c-0.1,0-1.9,0.1-4.9,1c-0.9-2.3-2-3.2-2.6-3.5
							c-1.2-0.7-2.7-0.3-3.4,1c-0.6,1.2-0.3,2.6,0.8,3.3c0.1,0.1,0.3,0.4,0.6,1.1c-3.2,1.6-7.1,3.9-11.2,7.5
							c-10,9-44.4,51.3-48.1,88.3c-1.1-0.1-1.7-0.3-1.7-0.3c-1.3-0.5-2.7,0.1-3.3,1.4c-0.1,0.2-0.1,0.3-0.1,0.5
							c2.7-39.4,38.9-83.7,49.9-93.6c9-8.1,17.3-10.5,21.3-11.3C582.9,49.5,583.9,51,584.8,53.1z"/>
					</g>
					<g>
						<path class="st4" d="M578.6,46.2c0.4,0.1,1.7,0.7,3.2,2.3c-4,0.8-12.3,3.2-21.3,11.3c-11,9.9-47.2,54.2-49.9,93.6
							c0,0.2-0.1,0.3-0.1,0.5c0,0.5,0,1-0.1,1.5c-3.4-4.1-8.2-10.1-15-19C483.1,120,466.1,96.9,445,67.6c0-0.1-0.1-0.1-0.1-0.2
							c-2.5-3.4-4.2-5.8-4.9-6.8c-1.1-8.9,1-17.8,5.7-24c8.5-11.1,15.5-10.6,15.8-10.6l2.5,0.3v-0.1
							C476.5,27.9,537.3,38.7,578.6,46.2z"/>
					</g>
					<g>
						<path class="st3" d="M579.8,54.2c1,2.6,1.6,7.2,0.4,14.8c-3,18.4-17.3,46.2-29.3,63c-15.3,21.5-27.8,24.9-34.1,24.9
							c-0.4,0-0.8,0-1.2-0.1c0-1.7,0.1-3.3,0.3-5c4.2,0.3,15.6-1.3,30.9-22.8c11.8-16.5,25.7-43.9,28.4-60.9
							c1.2-7.2,0.5-10.7-0.1-12.2C576.8,55.2,578.4,54.6,579.8,54.2z"/>
					</g>
					<g>
						<path class="st3" d="M579.8,54.2c-1.4,0.4-2.9,1-4.7,1.8c-0.3-0.7-0.5-1-0.6-1.1c-1-0.7-1.4-2.1-0.8-3.3
							c0.7-1.2,2.2-1.6,3.4-1C577.7,51,578.9,51.9,579.8,54.2z"/>
					</g>
					<g>
						<path class="st4" d="M575.1,56c0.6,1.5,1.3,5,0.1,12.2c-2.8,17-16.6,44.4-28.4,60.9c-15.3,21.5-26.7,23.1-30.9,22.8
							c3.6-37,38-79.3,48.1-88.3C567.9,59.9,571.8,57.6,575.1,56z"/>
					</g>
					<g>
						<path class="st3" d="M568.8,369.8v5c0,0,0,0-0.1,0c-7.7,0-14-2.7-18.7-8c-15.5-17.5-7.9-57.6-7.5-59.3l0.1-0.3
							c3.2-10.1,8.8-10.9,9.4-11h16.8v5h-16.3c-0.5,0.2-3.2,1.3-5.1,7.3c-0.5,2.5-7,39.7,6.4,54.8
							C557.6,367.7,562.5,369.8,568.8,369.8z"/>
					</g>
					<g>
						<path class="st4" d="M568.8,364v5.8c-6.3,0-11.2-2-15-6.3c-13.4-15.1-6.9-52.3-6.4-54.8c1.9-6,4.6-7.1,5.1-7.3h16.3v3.3h-8.6
							l-0.4,0c-0.3,0-7.6,1.2-9.2,8.7c-0.9,4.4-3.9,40.7,5,46.8c4.5,3.1,8.5,3.9,11.4,3.9C567.7,364.1,568.3,364.1,568.8,364z"/>
					</g>
					<g>
						<path class="st3" d="M568.8,358.9v5.1c-0.5,0.1-1.1,0.1-1.8,0.1c-2.9,0-6.9-0.8-11.4-3.9c-8.9-6.1-5.9-42.4-5-46.8
							c1.6-7.5,8.9-8.6,9.2-8.7l0.4,0h8.6v5h-8.4c-0.7,0.2-4.1,1.1-4.9,4.7c-1.6,7.5-2.3,38,2.9,41.6
							C563.2,359.3,567,359.3,568.8,358.9z"/>
					</g>
					<g>
						<path class="st3" d="M515.6,162c0.1,1.4-0.9,2.6-2.3,2.7c-0.1,0-0.1,0-0.2,0c-0.8,0-1.5-0.4-2-1c-0.3-0.4-0.4-0.8-0.5-1.3
							c-0.2-2.3-0.2-4.7-0.1-7c2.3,2.7,3.9,4.6,5.1,5.8C515.6,161.4,515.6,161.7,515.6,162z"/>
					</g>
					<g>
						<path class="st3" d="M515.8,151.8c-0.2,1.7-0.3,3.3-0.3,5c-2-0.1-3.2-0.6-3.3-0.7c-1-0.4-1.6-1.3-1.6-2.3c0-0.2,0-0.4,0.1-0.5
							c0-0.2,0.1-0.3,0.1-0.5c0.6-1.3,2-1.9,3.3-1.4C514.1,151.6,514.7,151.8,515.8,151.8z"/>
					</g>
					<g>
						<path class="st3" d="M515.5,156.8c0,1.5,0,2.9,0.1,4.3c-1.2-1.2-2.8-3.1-5.1-5.8c0-0.5,0.1-1,0.1-1.5c0,1,0.6,1.9,1.6,2.3
							C512.3,156.3,513.5,156.7,515.5,156.8z"/>
					</g>
					<g>
						<path class="st3" d="M482.7,339.3c-2.2-0.3-4.5-0.5-6.8-0.6c-9.9-13.7-40.3-57.9-66-95.5l-0.9-1.2c1.2-1.2,2.3-2.5,3.3-4
							c0.1,0.1,0.1,0.1,0.1,0.2l0.1-0.1c0.1,0.1,0.2,0.3,0.2,0.4c0.4,0.5,0.8,1.1,1.3,1.9C454.7,299.8,480.3,336.7,482.7,339.3z"/>
					</g>
					<g>
						<path class="st5" d="M475.9,338.7c-1.3-0.1-2.7-0.1-4-0.1c-5.1,0-10.4,0.7-15.6,1.8c-0.1-0.2-0.2-0.3-0.2-0.5
							c-0.2-0.4-0.5-0.7-0.9-0.9c-5-6.5-38.2-54.6-61.7-89c6.1-1,11.5-3.9,15.6-8.1l0.9,1.2C435.6,280.8,466,325,475.9,338.7z"/>
					</g>
					<g>
						<path class="st3" d="M469.2,106.8c1.2,0.7,1.7,2.2,1,3.4l-0.2,0.4c-0.9-1.3-1.9-2.6-2.9-3.9
							C467.7,106.4,468.5,106.4,469.2,106.8z"/>
					</g>
					<g>
						<path class="st3" d="M467.1,106.6c1,1.3,2,2.6,2.9,3.9l-54.9,100.8c-0.8-1.9-1.7-3.6-2.8-5.2l53.5-98.4
							C466.1,107.2,466.5,106.8,467.1,106.6z"/>
					</g>
					<g>
						<path class="st5" d="M467.1,106.6c-0.6,0.2-1,0.6-1.3,1.1l-53.5,98.4c-4.4-6.4-11.3-10.9-19.3-12L452.1,86
							C457.4,93.4,462.4,100.2,467.1,106.6z"/>
					</g>
					<g>
						<path class="st3" d="M460.2,21.1c1.3,0.5,2,1.9,1.5,3.2c-0.5,1.3-1.9,2-3.2,1.6c0,0-2.8-1-6.6-1.8c3.4-2.1,6.3-2.8,8.2-3
							c0,0,0,0,0,0C460.2,21.1,460.2,21.1,460.2,21.1z"/>
					</g>
					<g>
						<path class="st3" d="M445.2,17.9c7,0.6,13.8,2.9,14.9,3.2c-1.8,0.2-4.7,0.9-8.2,3c0,0,0,0,0,0c-2.2-0.5-4.7-1-7.2-1.2
							c-5.5-0.5-9.3,0.3-10.9,2.2c-5.9,7.1-6.7,11.4-6.3,13.8c0.3,1.5,3.6,6.7,7.5,12.2c-0.3,2.8-0.4,5.6-0.1,8.4
							c-3.1-4.2-11.6-15.9-12.3-19.8c-0.9-5,1.6-11,7.4-17.9C432.8,18.6,437.9,17.2,445.2,17.9z"/>
					</g>
					<g>
						<path class="st3" d="M456,339.9c0.1,0.2,0.1,0.3,0.2,0.5c-1.8,0.4-3.5,0.8-5.2,1.3c-1.8-2.2-4.6-6.2-9.6-13.3
							c-6.1-8.8-14.2-20.5-22.3-32.2c-14.1-20.5-28.2-41-31.6-45.8c0.5,0,0.9,0,1.3,0c1.5,0,3-0.1,4.5-0.4
							c23.5,34.3,56.8,82.5,61.7,89C455.5,339.2,455.8,339.5,456,339.9z"/>
					</g>
					<g>
						<path class="st3" d="M453,79.1c1.2,0.7,1.7,2.2,1,3.4l-1.9,3.5c-1.1-1.5-2.2-3-3.2-4.5l0.8-1.4
							C450.3,78.9,451.8,78.5,453,79.1z"/>
					</g>
					<g>
						<path class="st3" d="M448.9,81.5c1.1,1.5,2.2,3,3.2,4.5L393,194.1c-1.3-0.2-2.7-0.3-4.1-0.3c-0.5,0-1,0-1.5,0L448.9,81.5z"/>
					</g>
					<g>
						<path class="st5" d="M444.7,22.9c2.5,0.2,5,0.7,7.2,1.2c-3,1.9-6.5,4.8-10.1,9.5c-3.7,4.8-6,11-6.8,17.6
							c-3.9-5.5-7.2-10.8-7.5-12.2c-0.4-2.4,0.4-6.7,6.3-13.8C435.5,23.2,439.2,22.4,444.7,22.9z"/>
					</g>
					<g>
						<path class="st3" d="M439.3,57c0.8,1.1,0.6,2.7-0.5,3.5c-0.5,0.4-1,0.5-1.5,0.5c-0.8,0-1.5-0.4-2-1c-0.1-0.1-0.2-0.3-0.4-0.5
							c-0.2-2.8-0.2-5.7,0.1-8.4C436.4,53.1,437.9,55.1,439.3,57z"/>
					</g>
					<g>
						<path class="st3" d="M415.1,211.4c1.4,3.3,2.1,6.9,2.1,10.7c0,5.9-1.8,11.4-4.9,15.9c-1-1.2-1.9-1.5-3.3-0.6
							c-0.7,0.5-1.1,1.3-1.1,2.1c0,0.5,0.1,1,0.4,1.4l0,0c0,0,0,0.1,0,0.1c0,0,0,0.1,0,0.1l0.6,0.9c-4.1,4.2-9.5,7.1-15.6,8.1
							c-0.8-1.2-1.7-2.4-2.5-3.6c-0.5-0.7-1.2-1.1-1.9-1.1c12.8-0.1,23.1-10.5,23.1-23.3c0-3.4-0.7-6.6-2-9.5c0.2,0.4,0.5,0.7,1,0.9
							c0.4,0.2,0.8,0.3,1.2,0.3c0.9,0,1.8-0.5,2.2-1.3L415.1,211.4z"/>
					</g>
					<g>
						<path class="st3" d="M415.1,211.4l-0.6,1.1c-0.5,0.9-1.3,1.3-2.2,1.3c-0.4,0-0.8-0.1-1.2-0.3c-0.4-0.2-0.8-0.5-1-0.9
							c-0.1-0.2-0.2-0.4-0.3-0.6c-0.2-0.6-0.1-1.3,0.2-1.9l2.2-3.9C413.4,207.8,414.3,209.5,415.1,211.4z"/>
					</g>
					<g>
						<path class="st3" d="M412.3,206.1l-2.2,3.9c-0.3,0.6-0.4,1.3-0.2,1.9c-3.8-7.8-11.8-13.1-21-13.1c0.9,0,1.7-0.5,2.2-1.3
							l1.9-3.4C401,195.3,407.9,199.8,412.3,206.1z"/>
					</g>
					<g>
						<path class="st3" d="M409,237.5c1.4-0.9,2.3-0.6,3.3,0.6c-1,1.4-2.1,2.7-3.3,4l-0.6-0.9c0,0,0-0.1,0-0.1c0,0,0,0,0-0.1l0,0
							c-0.3-0.4-0.4-1-0.4-1.4C408,238.7,408.3,237.9,409,237.5z"/>
					</g>
					<g>
						<path class="st3" d="M410.2,212.6c1.3,2.9,2,6.1,2,9.5c0,12.8-10.3,23.2-23.1,23.3c-0.2,0-0.3,0-0.5,0c0,0-0.1,0-0.1,0
							c-12.7-0.2-22.9-10.6-22.9-23.3c0-12.8,10.4-23.3,23.3-23.3c9.2,0,17.2,5.4,21,13.1C409.9,212.2,410,212.4,410.2,212.6z
							 M405.2,222.1c0-9.3-7.5-16.8-16.8-16.8c-9.3,0-16.8,7.5-16.8,16.8c0,9.3,7.5,16.8,16.8,16.8
							C397.7,239,405.2,231.4,405.2,222.1z"/>
					</g>
					<g>
						<path class="st3" d="M391,246.5c0.8,1.2,1.6,2.4,2.5,3.6c-1.5,0.3-3,0.4-4.5,0.4c-0.5,0-0.9,0-1.3,0c-0.5-0.7-0.8-1.1-0.8-1.1
							c-0.8-1.1-0.5-2.7,0.7-3.5c0.4-0.2,0.7-0.4,1.1-0.4c0,0,0.1,0,0.1,0c0.1,0,0.2,0,0.3,0c0.1,0,0.1,0,0.2,0
							C389.8,245.4,390.5,245.9,391,246.5z"/>
					</g>
					<g>
						<path class="st3" d="M393,194.1l-1.9,3.4c-0.5,0.8-1.3,1.3-2.2,1.3c-0.4,0-0.8-0.1-1.2-0.3c-1.2-0.7-1.7-2.2-1-3.4l0.7-1.3
							c0.5,0,1,0,1.5,0C390.3,193.8,391.7,193.9,393,194.1z"/>
					</g>
					<g>
						<path class="st3" d="M389.1,245.4c-0.1,0-0.1,0-0.2,0c-0.1,0-0.2,0-0.3,0C388.8,245.4,388.9,245.4,389.1,245.4z"/>
					</g>
					<g>
						<path class="st3" d="M387.7,198.5c0.4,0.2,0.8,0.3,1.2,0.3c-12.8,0-23.3,10.4-23.3,23.3c0,12.7,10.2,23.1,22.9,23.3
							c-0.4,0.1-0.7,0.2-1.1,0.4c-1.1,0.8-1.4,2.4-0.7,3.5c0,0,0.3,0.4,0.8,1.1c-15-0.7-27-13.1-27-28.3c0-15.1,11.9-27.5,26.8-28.3
							l-0.7,1.3C386.1,196.4,386.5,197.9,387.7,198.5z"/>
					</g>
				</g>
				<g>
					<g>
						<path class="st5" d="M482.7,339.3c33,4.3,61.1,26.7,63.5,29.5c1.7,1.9,1.4,3.6,1.1,4.5c-1.1,2.9-5.5,3.7-7.3,3.9l-0.3,0
							c-0.6,0-61,0.4-102.2,0.4c-36.7,0-38.1-0.3-38.8-0.4c-1.5-0.3-2.5-1.6-2.3-3.1c0.5-4.7,26.7-24.6,54.6-32.3
							c1.7-0.5,3.5-0.9,5.2-1.3c5.2-1.2,10.5-1.8,15.6-1.8c1.4,0,2.7,0,4,0.1C478.2,338.8,480.4,339,482.7,339.3z"/>
						<path class="st3" d="M437.5,380.1c-36.8,0-38.3-0.3-39.2-0.4c-2.8-0.6-4.6-3.1-4.4-5.8c0.7-6.9,29.4-27,56.5-34.5
							c1.7-0.5,3.5-0.9,5.4-1.3c7.1-1.6,13.9-2.1,20.3-1.8c2.5,0.1,4.7,0.3,7,0.6c34.2,4.5,62.5,27.4,65.1,30.3
							c1.9,2.1,2.4,4.7,1.5,7c-1.6,4-6.5,5.2-9.3,5.5l-0.3,0l-2.4,0C496.7,380,461.2,380.1,437.5,380.1z M471.9,341.1
							c-4.7,0-9.8,0.6-15.1,1.8c-1.8,0.4-3.5,0.8-5.1,1.3c-27.2,7.5-51.6,26.3-52.9,30.3c0,0.1,0.2,0.2,0.3,0.2
							c1.3,0.2,14.1,0.4,38.3,0.4c23.7,0,59.2-0.1,100-0.3l2.2,0c2.7-0.3,4.7-1.2,5.2-2.3c0.2-0.6,0-1.2-0.6-1.9
							c-2.1-2.4-29.5-24.4-61.9-28.7h0c-2.1-0.3-4.2-0.5-6.6-0.6C474.5,341.2,473.2,341.1,471.9,341.1z"/>
					</g>
					<g>
						<path class="st3" d="M388.4,240.2c-10,0-18.1-8.1-18.1-18.1c0-10,8.1-18.1,18.1-18.1c10,0,18.1,8.1,18.1,18.1
							C406.5,232.1,398.3,240.2,388.4,240.2z M388.4,206.6c-8.6,0-15.5,7-15.5,15.5c0,8.6,7,15.6,15.5,15.6c8.6,0,15.6-7,15.6-15.6
							C403.9,213.6,397,206.6,388.4,206.6z"/>
					</g>
					<g>
						<path class="st4" d="M568.8,296.3v-5.5c-0.3-1-0.2-2.2,0.5-3.4c1.7-2.8,6.1-4.1,13.9-4.1h77.5l0.3,0.1
							c0.6,0.2,5.9,1.8,5.9,11.3V375c0,0.7,0.3,8.1-3.9,12.5c-1.9,2-4.5,3-7.4,3h-77.8l-0.5-0.2c-0.4-0.2-8.5-3.6-8.5-15.4v-0.3v-5
							V364v-5.1v-49.3v-5v-3.3V296.3z"/>
						<path class="st3" d="M655.6,393.1h-78.3l-0.9-0.4c-1.1-0.5-10.1-4.7-10.1-17.7v-84c-0.3-1.7,0-3.5,0.9-5
							c2.3-3.6,7.2-5.3,16.1-5.3h77.9l0.7,0.2c0.6,0.1,7.6,2.2,7.6,13.7V375c0.1,2.1,0,9.5-4.6,14.3
							C662.5,391.8,659.3,393.1,655.6,393.1z M578.3,388.1h77.3c2.2,0,4.2-0.8,5.6-2.3c3.3-3.5,3.3-9.5,3.2-10.7l0-80.4
							c0-7.7-3.8-8.9-4-8.9l-0.1,0h-77.1c-8.3,0-11,1.6-11.8,2.9c-0.4,0.7-0.3,1.3-0.2,1.5l0.1,0.6V375
							C571.3,384.6,577.3,387.7,578.3,388.1z"/>
					</g>
				</g>
			</g>
		</g>
		<g id="Layer_6_1_">
			<g>
				<polygon class="st6" points="238.8,158.8 255.8,160.9 251.8,194.5 234.4,195.5 				"/>
			</g>
			<g>
				<polygon class="st6" points="212.2,137.4 212.2,193.5 227.8,194.6 229.2,138.7 				"/>
			</g>
			<g>
				<polygon class="st7" points="210.5,211.2 241.4,231.4 274,244 284.7,245.5 283.7,275.4 254.5,270.8 210.5,247.9 				"/>
			</g>
			<g id="XMLID_1_">
				<g>
					<path class="st8" d="M325.8,329.9h14.3c7.5,0,11.5,1.2,13,3.7c0.6,1.1,0.6,2.2,0.4,3v31.6c0,0,0,5.5,0.1,12.1
						c0,6.6,0.1,14.3,0.1,18.7c0,5.5-2.8,8.1-5.1,9.4c-2.4,1.4-5,1.5-6,1.5l-174.6,0c-10.6,0-12.4-6.6-12.5-6.9l-0.1-0.6v-60.6
						c0-11.1,5.4-12,7-12h1.2h5h6.9h0.6h5h139.6L325.8,329.9L325.8,329.9z"/>
					<path class="st3" d="M342.6,412.5l-174.6,0c-12.2,0-14.7-7.9-14.9-8.8l-0.2-1.3v-60.6c0-13.8,7.9-14.5,9.5-14.5h177.8
						c8.7,0,13.2,1.5,15.2,5c0.8,1.4,1,3,0.7,4.6v31.3l0,0c0,0,0,5.5,0.1,12.1l0,6.9c0,4.5,0,8.9,0,11.8c0,5.2-2.3,9.3-6.4,11.6
						C346.8,412.4,343.7,412.5,342.6,412.5z M157.9,402.6c0.3,0.8,2.1,4.9,10,4.9l174.6,0c0.6,0,2.7-0.1,4.7-1.2
						c2.5-1.4,3.8-3.8,3.8-7.2c0-2.9,0-7.3,0-11.8l0-6.9c0-6.6-0.1-12.1-0.1-12.1l0.1-32.3c0.1-0.3,0.1-0.7-0.1-1.1
						c-0.6-1.1-3-2.4-10.8-2.4H162.4c-2.8,0-4.5,3.5-4.5,9.4L157.9,402.6z"/>
				</g>
				<g>
					<g>
						<path class="st3" d="M286.9,193.5v55.1c-0.4-1.3-0.5-0.8-0.6-2.2s1.1-3.7-0.3-3.6c-0.8,0.1-1.5,0.1-2.3,0.1v-46.3h-71.5
							c1.4,0,2.5-1.1,2.5-2.5v-0.6h12v0.4c0,1.4,1.1,2.5,2.5,2.5c1.4,0,2.5-1.1,2.5-2.5v-0.4h0.5c0.2,1.1,1.1,1.9,2.2,2.1
							c1.3,0.2,2.5-0.8,2.7-2.1h12.1c0.1,1.2,1,2.1,2.2,2.3c0.1,0,0.2,0,0.3,0c1.3,0,2.4-1,2.5-2.2v0L286.9,193.5L286.9,193.5z"/>
					</g>
					<g>
						<path class="st3" d="M283.7,247.9v-5c0.8,0,1.6,0,2.3-0.1c1.4-0.1,0.2,2.2,0.3,3.6s0.2,0.9,0.6,2.2v0.6
							C286.5,249.5,284.5,247.9,283.7,247.9C283.7,247.9,283.7,247.9,283.7,247.9z"/>
					</g>
					<g>
						<path class="st9" d="M343.7,344.2c1.4,0,2.5,1.1,2.5,2.5s-1.1,2.5-2.5,2.5H187.2c-1.4,0-2.5-1.1-2.5-2.5s1.1-2.5,2.5-2.5
							H343.7z"/>
					</g>
					<g>
						<path class="st9" d="M343.7,367.4c1.4,0,2.5,1.1,2.5,2.5c0,1.4-1.1,2.5-2.5,2.5H187.2c-1.4,0-2.5-1.1-2.5-2.5
							c0-1.4,1.1-2.5,2.5-2.5H343.7z"/>
					</g>
					<g>
						<path class="st9" d="M343.7,386.1c1.4,0,2.5,1.1,2.5,2.5c0,1.4-1.1,2.5-2.5,2.5H187.2c-1.4,0-2.5-1.1-2.5-2.5
							c0-1.4,1.1-2.5,2.5-2.5H343.7z"/>
					</g>
					<g>
						<path class="st4" d="M320.2,299.7l0.5,30.2H181.1v-30.8h133.3C318.6,299.1,319.7,299.3,320.2,299.7z M318.6,308.5
							c0-1.4-1.1-2.5-2.5-2.5H192.8c-1.4,0-2.5,1.1-2.5,2.5c0,1.4,1.1,2.5,2.5,2.5h123.3C317.5,311,318.6,309.9,318.6,308.5z
							 M316.6,320.7c0-1.4-1.1-2.5-2.5-2.5H190.8c-1.4,0-2.5,1.1-2.5,2.5c0,1.4,1.1,2.5,2.5,2.5H314
							C315.4,323.2,316.6,322.1,316.6,320.7z"/>
					</g>
					<g>
						<path class="st9" d="M316.1,306c1.4,0,2.5,1.1,2.5,2.5c0,1.4-1.1,2.5-2.5,2.5H192.8c-1.4,0-2.5-1.1-2.5-2.5
							c0-1.4,1.1-2.5,2.5-2.5H316.1z"/>
					</g>
					<g>
						<path class="st9" d="M314,318.2c1.4,0,2.5,1.1,2.5,2.5c0,1.4-1.1,2.5-2.5,2.5H190.8c-1.4,0-2.5-1.1-2.5-2.5
							c0-1.4,1.1-2.5,2.5-2.5H314z"/>
					</g>
					<g>
						<path class="st9" d="M286.9,294.1c0,1.4,1.4,2.2,0,2.2c-1.4,0-3.2,1.7-3.2,0.3v-2.5H286.9z"/>
					</g>
					<g>
						<path class="st3" d="M286.9,248.6c0.1,0.3,0.1,0.5,0,0.6V248.6z"/>
					</g>
					<g>
						<path class="st3" d="M286.9,275.2v0.2c0,1.3-1,2.4-2.3,2.5c-0.3,0-0.6,0.1-0.9,0.1v-5c0.2,0,0.4,0,0.5,0
							C285.6,272.7,286.8,273.8,286.9,275.2z"/>
					</g>
					<g>
						<path class="st3" d="M286.9,275.4v18.7h-3.2v-16.1c0.3,0,0.6,0,0.9-0.1C285.9,277.8,286.9,276.7,286.9,275.4z"/>
					</g>
					<g>
						<path class="st3" d="M286.9,249.2v26c-0.1-1.4-1.3-2.4-2.7-2.3c-0.2,0-0.4,0-0.5,0v-25c0,0,0,0,0.1,0
							C284.5,247.9,286.5,249.5,286.9,249.2z"/>
					</g>
					<g>
						<path class="st10" d="M283.7,277.9v16.1h-74.2V250c11.7,7.3,46.6,28.1,72,28.1C282.2,278,282.9,278,283.7,277.9z"/>
					</g>
					<g>
						<path class="st3" d="M283.7,272.9v5c-0.8,0-1.5,0.1-2.3,0.1c-25.3,0-60.3-20.7-72-28.1v-6
							C216.7,248.6,257.8,274.5,283.7,272.9z"/>
					</g>
					<g>
						<path class="st3" d="M283.7,242.9v5c-25.5-0.1-62.1-25.4-74.2-34.3v-6.3C216.2,212.4,257.5,242.9,283.7,242.9z"/>
					</g>
					<g>
						<path class="st10" d="M283.7,196.6v46.3c-26.2,0-67.5-30.5-74.2-35.6v-10.7h2.7H283.7z"/>
					</g>
					<g>
						<path class="st3" d="M258.1,158.2l-3.8,35.2h-5c0-0.2,0-0.3,0-0.5l3.3-30.3l-11.9-1.3l-3.4,31.9c0,0.1,0,0.1,0,0.2h-5
							c-0.1-0.2-0.1-0.5,0-0.7l4-36.9L258.1,158.2z"/>
					</g>
					<g>
						<path class="st3" d="M254.3,193.5L254.3,193.5c-0.1,1.3-1.2,2.3-2.5,2.3c-0.1,0-0.2,0-0.3,0c-1.2-0.2-2.1-1.1-2.2-2.3
							L254.3,193.5L254.3,193.5z"/>
					</g>
					<g>
						<path class="st3" d="M232.2,193.5h5c-0.2,1.3-1.5,2.2-2.7,2.1C233.3,195.4,232.4,194.5,232.2,193.5z"/>
					</g>
					<g>
						<path class="st3" d="M231.7,193.5v0.4c0,1.4-1.1,2.5-2.5,2.5c-1.4,0-2.5-1.1-2.5-2.5v-0.4H231.7z"/>
					</g>
					<g>
						<polygon class="st3" points="231.7,135.5 231.7,193.5 226.7,193.5 226.7,140.6 214.7,140.6 214.7,193.5 209.7,193.5 
							209.7,135.5 						"/>
					</g>
					<g>
						<path class="st3" d="M214.7,193.5v0.6c0,1.4-1.1,2.5-2.5,2.5c-1.4,0-2.5-1.1-2.5-2.5v-0.6H214.7z"/>
					</g>
					<g>
						<path class="st3" d="M212.2,196.6h-2.7v10.7c-0.6-0.5-0.9-0.7-1-0.7c-0.7-0.5-1.5-0.7-2.2-0.4l0-12.6h3.4v0.6
							C209.7,195.4,210.8,196.6,212.2,196.6z"/>
					</g>
					<g>
						<path class="st9" d="M209.4,294.1v2.5c0,1.4-0.2,0.4-1.6,0.4s-1.4,1.4-1.4,0v-2.9H209.4z"/>
					</g>
					<g>
						<path class="st3" d="M209.4,250v44.1h-3l-0.1-46.1C207,248.4,208.1,249.1,209.4,250z"/>
					</g>
					<g>
						<path class="st3" d="M209.4,244v6c-1.4-0.9-2.4-1.6-3.1-2v-2.6c0.4-0.4,0.7-0.7,1-1.1c0.8-1.2-0.1-1.8,1-1.1
							C208.4,243.3,208.8,243.5,209.4,244z"/>
					</g>
					<g>
						<path class="st3" d="M209.4,213.6V244c-0.7-0.5-1.1-0.7-1.1-0.7c-1.1-0.8-0.3-0.1-1,1.1c-0.3,0.4-0.6,0.7-1,1.1l-0.1-34.1
							C207,211.7,208,212.5,209.4,213.6z"/>
					</g>
					<g>
						<path class="st3" d="M209.4,207.3v6.3c-1.4-1-2.5-1.8-3.2-2.4v-5.1c0.7-0.2,1.6-0.1,2.2,0.4
							C208.5,206.6,208.8,206.8,209.4,207.3z"/>
					</g>
					<g>
						<path class="st3" d="M206.4,245.3v2.6c-0.4-0.3-0.7-0.5-0.8-0.5C204.7,246.9,205.5,246.1,206.4,245.3z"/>
					</g>
					<g>
						<path class="st3" d="M206.3,206.1v5.1c-0.3-0.3-0.6-0.5-0.7-0.6c0.7,0.4-1.4-2.6-0.6-3.7C205.3,206.5,205.8,206.2,206.3,206.1
							z"/>
					</g>
					<g>
						<path class="st3" d="M205.4,210.5c0.1,0,0.1,0.1,0.1,0.1C205.4,210.5,205.3,210.5,205.4,210.5z"/>
					</g>
					<g>
						<rect x="176.1" y="299.1" class="st9" width="5" height="30.8"/>
					</g>
					<g>
						<path class="st9" d="M181.1,296.6v2.5h-5v-2.5c0-1.4,1.1-2.5,2.5-2.5C180,294.1,181.1,295.2,181.1,296.6z"/>
					</g>
					<g>
						<path class="st9" d="M169.9,294.1h8.7c-1.4,0-2.5,1.1-2.5,2.5v2.5h-6.2c-0.3,0.3-1.4,1.7-1.4,6.9v23.9h-5V306
							c0-5.5,1.1-9,3.2-10.8C167.8,294.3,169,294,169.9,294.1z"/>
					</g>
					<g>
						<path class="st9" d="M178,334.9v69.8c0,0.1,0,0.1,0,0.2h-5c0-0.1,0-0.1,0-0.2v-69.8H178z"/>
					</g>
					<g>
						<path class="st9" d="M178,332.4v2.5h-5v-2.5c0-1.4,1.1-2.5,2.5-2.5c0.2,0,0.4,0,0.6,0.1C176.2,331.1,176.9,332.1,178,332.4
							C178,332.4,178,332.4,178,332.4z"/>
					</g>
					<g>
						<path class="st9" d="M173,405h5c-0.1,1.3-1.2,2.3-2.5,2.3C174.2,407.3,173.1,406.2,173,405z"/>
					</g>
					<g>
						<path class="st9" d="M176.1,330c1.1,0.3,1.8,1.2,1.9,2.3C176.9,332.1,176.2,331.1,176.1,330z"/>
					</g>
					<g>
						<path class="st11" d="M176.1,299.1v30.8h-0.6h-6.9V306c0-5.2,1.1-6.6,1.4-6.9L176.1,299.1L176.1,299.1z"/>
					</g>
					<g>
						<path class="st3" d="M156,222.7l-0.2,2.6c-0.1,1.5-2.9,31.6-15.8,45.9V271l-2.4-0.2c-2-0.2-4,0.2-6,0.9
							c13.2-7.7,17.7-35.3,18.9-44.1c-15.2,0.6-26,11.5-29,14.9c-0.3-1.1-0.6-2.1-1-3.2c-0.3-0.8-0.5-1.5-0.8-2.3
							c5.3-5.4,17.4-15.2,33.7-14.5L156,222.7z"/>
					</g>
					<g>
						<path class="st7" d="M150.4,227.6c-1.1,8.8-5.7,36.4-18.9,44.1c-3.5,1.3-6.8,3.6-9.7,6c2.6-10.1,3.3-22.1-0.5-35.2
							C124.4,239.2,135.3,228.2,150.4,227.6z"/>
					</g>
					<g>
						<path class="st3" d="M140,271v0.2c-1.8,2-3.8,3.7-6,5c-0.1,0.1-0.2,0.1-0.4,0.2c-0.1,0-0.2,0.1-0.3,0.1
							c-0.2,0-0.4,0.1-0.6,0.1c-0.9,0-1.7-0.5-2.2-1.3c-0.7-1.2-0.3-2.7,0.9-3.4c0.1,0,0.1,0,0.2-0.1c2-0.7,4-1.1,6-0.9L140,271z"/>
					</g>
					<g>
						<path class="st3" d="M140,271.2l-0.1,2.2c-0.2,2.8-1.4,23.5-10,33c-0.1-0.1-0.3-0.2-0.4-0.2L129,306h-7.7
							c8.9-1.8,12.4-20.2,13.3-30c-0.4,0.1-0.7,0.2-1.1,0.3c0.1,0,0.2-0.1,0.4-0.2C136.1,274.9,138.1,273.3,140,271.2z"/>
					</g>
					<g>
						<path class="st7" d="M133.6,276.3c0.4-0.2,0.7-0.3,1.1-0.3c-0.9,9.8-4.3,28.2-13.3,30H108c2.9-3.7,6.9-9.6,10.2-17.2
							c0,0,0,0,0-0.1c2.6-3.1,9.3-10.1,15.1-12.3C133.4,276.4,133.5,276.4,133.6,276.3z"/>
					</g>
					<g>
						<path class="st3" d="M132.7,276.5c0.2,0,0.4,0,0.6-0.1c-5.9,2.2-12.6,9.2-15.1,12.3c1.5-3.3,2.8-7,3.8-11
							c2.8-2.4,6.2-4.8,9.7-6c-0.1,0.1-0.1,0.1-0.2,0.1c-1.2,0.7-1.6,2.2-0.9,3.4C131,276.1,131.8,276.5,132.7,276.5z"/>
					</g>
					<g>
						<path class="st3" d="M133,313.2l0.2,4.9h-4.6v-4.9c0-1.3-0.4-1.9-0.8-2.2h-6.2c0.2,0,0.3,0,0.5,0c3.1-0.6,5.7-2.2,7.8-4.6
							C131.3,307.2,133,309.4,133,313.2z"/>
					</g>
					<g>
						<path class="st3" d="M128.5,318.2h4.6c0,1.4-0.5,1.4-1.9,1.4C129.9,319.6,128.5,319.6,128.5,318.2z"/>
					</g>
					<g>
						<path class="st3" d="M129.5,306.2c0.1,0,0.3,0.1,0.4,0.2c-2.1,2.4-4.7,4.1-7.8,4.6c-0.2,0-0.3,0-0.5,0c-1.2,0-2.3-0.9-2.5-2.1
							c-0.3-1.4,0.7-2.7,2-2.9c0.1,0,0.1,0,0.2-0.1h7.7L129.5,306.2z"/>
					</g>
					<g>
						<path class="st4" d="M128.5,313.3v4.9H48v-6.7c0.1,0,0.1,0,0.2,0c0,0,0,0,0.1,0c0,0,0.1,0,0.1,0c0.1,0,0.2,0,0.2,0
							c0.1,0,0.3-0.1,0.4-0.1c0.7-0.1,1.6-0.2,2.9-0.2h24.7h26h19.1h6.2C128.1,311.3,128.5,312,128.5,313.3z"/>
					</g>
					<g>
						<path class="st3" d="M121.4,242.5c3.8,13.1,3.1,25.1,0.5,35.2c-4.1,3.5-7.1,7.1-7.7,7.9c-0.9,1.1-0.7,2.6,0.4,3.5
							c1.1,0.9,2.7,0.7,3.5-0.4c-3.3,7.6-7.3,13.6-10.2,17.2h-6.5c4.1-4.5,25.2-30.1,14.7-63.5c0.2,0.6,0.5,1.1,0.9,1.4
							c1.1,0.9,2.7,0.7,3.5-0.5C120.6,243.5,120.9,243.1,121.4,242.5z"/>
					</g>
					<g>
						<path class="st3" d="M121.6,311h-19.1c0.7,0,1.3-0.2,1.8-0.7c0.1-0.1,1.5-1.6,3.6-4.3h13.4c-0.1,0-0.1,0.1-0.2,0.1
							c-1.4,0.2-2.3,1.5-2,2.9C119.3,310.2,120.4,311,121.6,311z"/>
					</g>
					<g>
						<path class="st3" d="M120.4,239.4c0.4,1.1,0.7,2.1,1,3.2c-0.5,0.6-0.8,1-0.8,1c-0.9,1.1-2.4,1.3-3.5,0.5
							c-0.5-0.4-0.8-0.9-0.9-1.4c0,0,0,0,0,0c-0.2-0.7,0-1.5,0.5-2.1c0.2-0.2,1.2-1.5,3-3.4C119.9,237.8,120.2,238.6,120.4,239.4z"
							/>
					</g>
					<g>
						<path class="st3" d="M121.9,277.7c-1,4-2.3,7.6-3.8,11c0,0,0,0,0,0.1c-0.9,1.1-2.4,1.2-3.5,0.4c-1.1-0.9-1.3-2.4-0.4-3.5
							C114.8,284.8,117.8,281.2,121.9,277.7z"/>
					</g>
					<g>
						<path class="st3" d="M119.6,237.1c-1.8,1.9-2.9,3.2-3,3.4c-0.5,0.6-0.6,1.4-0.5,2.1c-0.2-0.5-0.3-1-0.5-1.5
							c-10.8-31.7-24.5-43.1-28.7-46c-4,3.1-15.9,13.3-20.2,25.5c-2.1,6-8.4,25.9-7.5,46.1c0-0.3,0-0.6-0.2-0.9
							c-0.2-0.4-1.8-4.2-4.7-9.3c1-17.2,5.9-32.4,7.7-37.5c5.6-16.1,22.6-28.4,23.3-28.9l1.2-0.9l1.4,0.7
							C88.7,190.1,106.1,199.1,119.6,237.1z"/>
					</g>
					<g>
						<path class="st7" d="M116.2,242.5c10.5,33.4-10.6,58.9-14.7,63.5H77.4c-13-9.7-17.5-24.6-18.2-39.4c0,0,0-0.1,0-0.1
							c-0.9-20.2,5.4-40.1,7.5-46.1C71,208.3,83,198.1,86.9,195c4.2,2.9,17.9,14.3,28.7,46C115.9,241.5,116,242,116.2,242.5
							C116.2,242.5,116.2,242.5,116.2,242.5z"/>
					</g>
					<g>
						<path class="st3" d="M101.4,306h6.5c-2.1,2.7-3.6,4.2-3.6,4.3c-0.5,0.5-1.1,0.7-1.8,0.7c-0.6,0-1.3-0.2-1.8-0.7
							c-1-1-1-2.6,0-3.6C100.8,306.7,101,306.5,101.4,306z"/>
					</g>
					<g>
						<path class="st3" d="M102.5,311h-26c0.8,0,1.6-0.4,2-1c0.8-1.1,0.6-2.7-0.6-3.5c-0.2-0.2-0.4-0.3-0.6-0.5h24.1
							c-0.4,0.5-0.7,0.7-0.7,0.7c-1,1-1,2.6,0,3.6C101.3,310.8,101.9,311,102.5,311z"/>
					</g>
					<g>
						<path class="st3" d="M78,306.5c1.1,0.8,1.4,2.4,0.6,3.5c-0.5,0.7-1.3,1-2,1c-0.5,0-1-0.2-1.5-0.5c-2-1.4-3.8-2.9-5.4-4.6h7.7
							C77.6,306.2,77.8,306.3,78,306.5z"/>
					</g>
					<g>
						<path class="st3" d="M77.4,306h-7.7c-10.7-10.5-14.7-24.7-15.4-38.7c0.1,0.2,0.1,0.3,0.1,0.3c0.6,1.3,2,1.9,3.3,1.3
							c0.9-0.4,1.5-1.3,1.5-2.3C59.9,281.4,64.4,296.3,77.4,306z"/>
					</g>
					<g>
						<path class="st3" d="M76.5,311H51.8c0.9,0,1.8-0.5,2.3-1.4c0.6-1.3,0.1-2.8-1.2-3.4c-0.2-0.1-0.3-0.2-0.5-0.3h17.3
							c1.6,1.6,3.4,3.1,5.4,4.6C75.5,310.9,76,311,76.5,311z"/>
					</g>
					<g>
						<path class="st7" d="M69.7,306H52.4c-9.6-4.9-14.6-15.5-17.1-27.2c0,0,0-0.1,0-0.2c-3.3-15.6-2.1-33-1.3-41.1
							c11.2,10.3,19.1,27.3,20.3,29.8C54.9,281.3,59,295.5,69.7,306z"/>
					</g>
					<g>
						<path class="st3" d="M59.2,266.5c0,0,0,0.1,0,0.1c0,1-0.6,1.9-1.5,2.3c-1.3,0.6-2.8,0-3.3-1.3c0,0-0.1-0.1-0.1-0.3
							c-0.2-3.7-0.2-7.4,0.1-11c2.8,5.1,4.5,8.9,4.7,9.3C59.2,265.9,59.2,266.2,59.2,266.5z"/>
					</g>
					<g>
						<path class="st3" d="M52.9,306.3c1.3,0.6,1.8,2.1,1.2,3.4c-0.5,0.9-1.3,1.4-2.3,1.4c-0.4,0-0.8-0.1-1.1-0.3
							c-0.3-0.1-0.5-0.2-0.7-0.4c0.4-0.5,0.6-1.2,0.5-1.9c-0.2-1.4-1.5-2.4-2.8-2.1c1.2-0.3,2.5-0.4,4.2-0.4h0.6
							C52.6,306.1,52.7,306.2,52.9,306.3z"/>
					</g>
					<g>
						<path class="st3" d="M54.3,256.3c-0.2,3.6-0.3,7.3-0.1,11c-1.1-2.5-9-19.4-20.3-29.8c-0.8,8-2,25.4,1.3,41.1
							c-0.1-0.5-0.4-0.9-0.8-1.3c-0.2-0.2-2.2-1.9-5.2-3.5c-3-20,0.1-40.1,0.3-41.6l0.6-4.1l3.3,2.5
							C42.7,237.4,49.9,248.4,54.3,256.3z"/>
					</g>
					<g>
						<path class="st3" d="M52.4,306h-0.6c-1.6,0-3,0.1-4.2,0.4c0,0-0.1,0-0.2,0c-1.1,0.1-2.1,0.2-3,0.3
							c-7.3-6.3-11.5-15.9-13.9-26.1c0.4,0.3,0.6,0.5,0.6,0.5c1,0.9,2.6,0.8,3.5-0.2c0.5-0.6,0.7-1.4,0.6-2.1
							C37.8,290.5,42.8,301.1,52.4,306z"/>
					</g>
					<g>
						<path class="st3" d="M50.7,310.8c0.4,0.2,0.7,0.3,1.1,0.3c-1.3,0-2.2,0.1-2.9,0.2c0.4-0.2,0.8-0.5,1.1-0.8
							C50.2,310.6,50.4,310.7,50.7,310.8z"/>
					</g>
					<g>
						<path class="st3" d="M50.5,308.5c0.1,0.7-0.1,1.4-0.5,1.9c-1.8-0.9-3.4-2-4.9-3.2c0.6-0.4,1.4-0.7,2.4-0.9c0.1,0,0.1,0,0.2,0
							C49,306.1,50.3,307.1,50.5,308.5z"/>
					</g>
					<g>
						<path class="st3" d="M50,310.4c-0.3,0.4-0.7,0.6-1.1,0.8c-0.1,0-0.2,0.1-0.4,0.1c-0.1,0-0.2,0-0.3,0c0,0,0,0-0.1,0
							c-1.8,0.3-3.5,0.4-5.2,0.4v-0.4c-0.2-0.8-0.1-1.7,0.5-2.7c0.4-0.6,0.9-1.1,1.6-1.5C46.6,308.4,48.2,309.5,50,310.4z"/>
					</g>
					<g>
						<path class="st3" d="M48.6,311.3c-0.1,0-0.1,0-0.2,0c0,0-0.1,0-0.1,0C48.4,311.3,48.5,311.3,48.6,311.3z"/>
					</g>
					<g>
						<path class="st3" d="M48.2,311.4c-0.1,0-0.1,0-0.2,0v6.7h-2.9c-0.7,0-1.4,0-2.1,0.1c0,0,0-0.1,0-0.1v-6.4
							C44.7,311.7,46.4,311.6,48.2,311.4z"/>
					</g>
					<g>
						<path class="st3" d="M45.1,318.2H48c0,1.4-1.1,2.5-2.5,2.5c-1.3,0-2.4-1-2.5-2.4C43.6,318.2,44.3,318.2,45.1,318.2z"/>
					</g>
					<g>
						<path class="st3" d="M47.5,306.4c-1,0.2-1.7,0.5-2.4,0.9c-0.2-0.2-0.5-0.4-0.7-0.6C45.4,306.6,46.4,306.5,47.5,306.4z"/>
					</g>
					<g>
						<path class="st3" d="M44.4,306.7c0.2,0.2,0.5,0.4,0.7,0.6c-0.7,0.4-1.3,0.9-1.6,1.5c-0.6,0.9-0.7,1.9-0.5,2.7v0.4
							c-0.3,0-0.5,0-0.8,0c-7.7,0-14-2.3-18.8-6.8c-11.5-10.8-10.2-30.3-10.1-31.1l0.1-1.8l1.8-0.5c5.4-1.4,10.6,0.4,14.2,2.2
							c0.3,2.3,0.8,4.6,1.3,6.8c-1.8-1.4-6.9-4.9-12.4-4.5c0,4.9,0.8,17.8,8.6,25.2C31.1,305.3,37,307.1,44.4,306.7z"/>
					</g>
					<g>
						<path class="st7" d="M44.4,306.7c-7.4,0.5-13.3-1.4-17.6-5.4c-7.9-7.3-8.6-20.3-8.6-25.2c5.5-0.4,10.6,3.1,12.4,4.5
							C32.9,290.8,37.1,300.4,44.4,306.7z"/>
					</g>
					<g>
						<path class="st3" d="M35.3,278.8c0.2,0.7,0,1.5-0.6,2.1c-0.9,1.1-2.5,1.1-3.5,0.2c0,0-0.3-0.2-0.6-0.5
							c-0.5-2.2-0.9-4.5-1.3-6.8c3.1,1.6,5.1,3.3,5.2,3.5c0.4,0.4,0.6,0.8,0.8,1.3C35.3,278.6,35.3,278.7,35.3,278.8z"/>
					</g>
					<g>
						<path class="st9" d="M325.3,297.5c0.7,1.1,0.8,2.3,0.5,3.3v29.2h-5.1l-0.5-30.2c-0.6-0.3-1.6-0.6-5.7-0.6H181.1v-2.5
							c0-1.4-1.1-2.5-2.5-2.5h27.8v2.9c0,1.4,0,0,1.4,0s1.6,1,1.6-0.4v-2.5h74.2v2.5c0,1.4,1.8-0.3,3.2-0.3c1.4,0,0-0.9,0-2.2h27.6
							C320.4,294.1,323.9,295.1,325.3,297.5z"/>
					</g>
				</g>
				<g>
					<path class="st9" d="M206.9,298.9l-0.9-0.2c-0.8-0.3-0.8-1.1-0.8-1.8L205,192.2h83.2v56.4h-2.5v-53.9h-78.1l0.2,100.9
						c0.2,0,0.3,0,0.5,0V195.3h76.7v100.2c0.3-0.1,0.6-0.2,0.9-0.3c-0.1-0.4-0.2-0.7-0.2-1.1v-18.7h2.5v18.7c0,0.3,0.1,0.6,0.3,0.9
						c0.2,0.4,0.6,1.2,0.1,1.9c-0.5,0.8-1.4,0.8-1.7,0.8c-0.3,0-0.8,0.2-1.2,0.4c-0.8,0.3-1.7,0.7-2.5,0.2c-0.3-0.2-0.7-0.6-0.7-1.5
						v-98.8h-71.7v98.8c0,0.6,0,1.3-0.7,1.8c-0.6,0.4-1.3,0.1-1.5,0c-0.3-0.1-0.7-0.3-1,0L206.9,298.9z"/>
				</g>
				<g>
					<rect x="285.6" y="249.2" class="st9" width="2.5" height="26"/>
				</g>
				<g>
					<path class="st12" d="M133.1,318.2c0.7,0,6.7,0.4,6.7,11.8v69.2c0,0.4,0.1,4.7-2.9,7.8c-1.9,2-4.6,3.1-8,3.1H43.5
						c-0.6,0.2-1.4,0.4-2.4,0.5c-2.2,0-4-1.1-5.3-3.2c-1.4-2.3-2.1-5.6-2.1-10.3v-70c0-0.1-0.1-3.1,2.2-5.6c1.7-1.7,4-2.8,7-3.1
						c0.7-0.1,1.4-0.1,2.1-0.1H48h80.5L133.1,318.2L133.1,318.2z"/>
					<path class="st3" d="M41.2,413c-3.1,0-5.8-1.6-7.5-4.4c-1.6-2.7-2.4-6.5-2.4-11.6v-70c-0.1-1.3,0.3-4.5,2.9-7.3
						c2.1-2.2,5-3.5,8.6-3.9c0.8-0.1,1.7-0.1,2.3-0.1h88.1c0.9,0,9.2,0.4,9.2,14.3v69.2c0,0.1,0.3,5.5-3.6,9.6
						c-2.4,2.6-5.8,3.9-9.8,3.9h-85C43.2,412.7,42.3,413,41.2,413C41.2,413,41.2,413,41.2,413z M45.1,320.7c-0.6,0-1.2,0-1.7,0.1
						c-2.5,0.3-4.4,1-5.6,2.3c-1.5,1.7-1.5,3.6-1.5,3.7l0,70.2c0,4.1,0.6,7.1,1.7,9c0.5,0.9,1.5,2,3.2,2c0.7,0,1.3-0.2,1.5-0.3
						l0.4-0.2h85.9c2.7,0,4.7-0.8,6.2-2.3c2.4-2.5,2.2-5.9,2.2-5.9l0-69.4c0-7.2-2.6-9.2-4.2-9.2L45.1,320.7L45.1,320.7z"/>
				</g>
			</g>
			<g>
				<rect x="283.2" y="238.4" class="st3" width="5" height="21.2"/>
			</g>
		</g>
		<g>
			<g>
				<g>
					<rect x="290.7" y="348.2" class="st12" width="141.4" height="61.7"/>
					<path class="st13" d="M434.6,412.4H288.2v-66.7h146.4L434.6,412.4L434.6,412.4z M293.2,407.4h136.4v-56.7H293.2V407.4z"/>
				</g>
				<g>
					<path class="st14" d="M377.4,268.2h-16h-16c0,0,2.9,38-41.9,68.9h57.8h57.8C374.4,306.1,377.4,268.2,377.4,268.2z"/>
					<path class="st13" d="M427.3,339.6H295.5l6.6-4.6c43.1-29.8,40.8-66.2,40.8-66.6l-0.2-2.7h37.3l-0.2,2.7
						c0,0.5-2.1,37,40.8,66.6L427.3,339.6z M311.3,334.5h100.3c-33.3-25.9-36.6-54.9-36.7-63.8H348
						C347.8,279.6,344.5,308.6,311.3,334.5z"/>
				</g>
				<g>
					<circle class="st15" cx="361.4" cy="254.9" r="27.3"/>
					<path class="st13" d="M361.4,284.7c-16.4,0-29.8-13.4-29.8-29.8c0-16.4,13.4-29.8,29.8-29.8c16.4,0,29.8,13.4,29.8,29.8
						C391.2,271.3,377.8,284.7,361.4,284.7z M361.4,230.1c-13.7,0-24.8,11.1-24.8,24.8c0,13.7,11.1,24.8,24.8,24.8
						s24.8-11.1,24.8-24.8C386.2,241.2,375.1,230.1,361.4,230.1z"/>
				</g>
				<g>
					<g>
						<path class="st15" d="M281,70.4h-60.9c0,0-9.3,111.1,106.6,165v-12.2c0,0-81-43.1-88.8-123.3h49.8L281,70.4z"/>
						<path class="st13" d="M329.2,239.3l-3.6-1.7c-116.1-54-108.2-166.4-108.1-167.5l0.2-2.3H283l7.8,34.6h-50.1
							c9.1,76.2,86.4,118.1,87.2,118.6l1.3,0.7L329.2,239.3L329.2,239.3z M222.5,72.9c-0.4,15.9,1.5,109.8,101.7,158.5v-6.7
							c-10.7-6.1-81.5-49.7-88.8-124.5l-0.3-2.8h49.4L279,72.9L222.5,72.9L222.5,72.9z"/>
					</g>
					<g>
						<path class="st15" d="M441.8,70.4h60.9c0,0,9.3,111.1-106.6,165v-12.2c0,0,81-43.1,88.8-123.3h-49.8L441.8,70.4z"/>
						<path class="st13" d="M393.6,239.3v-17.6l1.3-0.7c0.8-0.4,78-42.5,87.2-118.6H432l7.8-34.6H505l0.2,2.3
							c0.1,1.1,8.1,113.5-108.1,167.5L393.6,239.3z M398.6,224.7v6.7C498.8,182.6,500.8,88.8,500.3,72.9h-56.5l-5.5,24.5h49.4
							l-0.3,2.8C480.1,175,409.3,218.5,398.6,224.7z"/>
					</g>
				</g>
				<g>
					<path class="st14" d="M361.4,44.3H256.6c0,78.7,42.1,210.6,104.8,210.6c62.7,0,104.8-131.9,104.8-210.6
						C466.2,44.3,361.4,44.3,361.4,44.3z"/>
					<path class="st13" d="M361.4,257.4c-66.6,0-107.3-138-107.3-213.1v-2.5h214.6v2.5C468.7,119.4,428,257.4,361.4,257.4z
						 M259.1,46.8c0.9,81.9,44.5,205.6,102.3,205.6c57.8,0,101.4-123.7,102.3-205.6H259.1z"/>
				</g>
				<g>
					<path class="st15" d="M486.3,41.8c0,5.3-4.3,9.7-9.7,9.7H246.2c-5.3,0-9.7-4.3-9.7-9.7l0,0c0-5.3,4.3-9.7,9.7-9.7h230.5
						C482,32.2,486.3,36.5,486.3,41.8L486.3,41.8z"/>
					<path class="st13" d="M476.7,54H246.2c-6.7,0-12.2-5.5-12.2-12.2s5.5-12.2,12.2-12.2h230.5c6.7,0,12.2,5.5,12.2,12.2
						S483.4,54,476.7,54z M246.2,34.7c-3.9,0-7.1,3.2-7.1,7.1s3.2,7.1,7.1,7.1h230.5c3.9,0,7.1-3.2,7.1-7.1s-3.2-7.1-7.1-7.1H246.2z
						"/>
				</g>
				<g>
					<path class="st15" d="M270.2,134.9h182.5c2-7.4,3.9-14.8,5.5-22.2H264.7C266.3,120.1,268.1,127.6,270.2,134.9z"/>
					<path class="st13" d="M454.6,137.4H268.2l-0.5-1.8c-2-7.3-3.9-14.9-5.5-22.3l-0.7-3.1h199.7l-0.7,3.1c-1.6,7.5-3.5,15-5.5,22.3
						L454.6,137.4z M272.1,132.4h178.7c1.5-5.7,3-11.4,4.3-17.1H267.8C269.1,121,270.5,126.7,272.1,132.4z"/>
				</g>
				<g>
					<path class="st15" d="M443.5,342.7c0,3.1-8.2,5.5-11.3,5.5L285,348.3c-3.1,0-5.6-2.5-5.6-5.6l0,0c0-3.1,2.5-5.6,5.6-5.6h152.8
						C440.9,337.1,443.5,339.6,443.5,342.7L443.5,342.7z"/>
					<path class="st13" d="M285,350.8c-4.5,0-8.2-3.7-8.2-8.2c0-4.5,3.7-8.2,8.2-8.2h152.8c4.5,0,8.2,3.7,8.2,8.2c0,6-11.4,8-13.9,8
						L285,350.8z M285,339.6c-1.7,0-3.1,1.4-3.1,3.1s1.4,3.1,3.1,3.1l147.1-0.1c2.7,0,8-1.9,8.8-3.2c-0.1-1.6-1.4-3-3.1-3L285,339.6
						L285,339.6z"/>
				</g>
				<g>
					<path class="st15" d="M443.5,413.5c0,3.1-2.5,5.6-5.6,5.6H285c-3.1,0-5.6-2.5-5.6-5.6l0,0c0-3.1,2.5-5.6,5.6-5.6h152.8
						C440.9,407.9,443.5,410.4,443.5,413.5L443.5,413.5z"/>
					<path class="st13" d="M437.8,421.7H285c-4.5,0-8.2-3.7-8.2-8.2s3.7-8.2,8.2-8.2h152.8c4.5,0,8.2,3.7,8.2,8.2
						S442.3,421.7,437.8,421.7z M285,410.4c-1.7,0-3.1,1.4-3.1,3.1s1.4,3.1,3.1,3.1h152.8c1.7,0,3.1-1.4,3.1-3.1s-1.4-3.1-3.1-3.1
						H285z"/>
				</g>
				<g>
					<path class="st14" d="M405.6,389.7c0,5-4,9-9,9h-70.3c-5,0-9-4-9-9v-23.5c0-5,4-9,9-9h70.3c5,0,9,4,9,9V389.7z"/>
					<path class="st13" d="M396.6,401.3h-70.3c-6.4,0-11.5-5.2-11.5-11.5v-23.5c0-6.4,5.2-11.5,11.5-11.5h70.3
						c6.4,0,11.5,5.2,11.5,11.5v23.5C408.1,396.1,402.9,401.3,396.6,401.3z M326.3,359.8c-3.6,0-6.5,2.9-6.5,6.5v23.5
						c0,3.6,2.9,6.5,6.5,6.5h70.3c3.6,0,6.5-2.9,6.5-6.5v-23.5c0-3.6-2.9-6.5-6.5-6.5H326.3z"/>
				</g>
			</g>
		</g>
	</g>
</g>
</svg>
