<?xml version="1.0" encoding="utf-8"?>
<!-- Generator: Adobe Illustrator 21.0.0, SVG Export Plug-In . SVG Version: 6.00 Build 0)  -->
<svg version="1.1" xmlns="http://www.w3.org/2000/svg" xmlns:xlink="http://www.w3.org/1999/xlink" x="0px" y="0px"
	 viewBox="0 0 200 200" enable-background="new 0 0 200 200" xml:space="preserve">
<g id="Grid">
</g>
<g id="_x32_4_Grid_Col" display="none" opacity="0.1" enable-background="new    ">
</g>
<g id="Layer_3">
</g>
<g id="Layer_4">
</g>
<g id="Layer_5">
	<g>
		<defs>
			<rect id="SVGID_23_" x="-1661.05" y="-215.511" width="1600.5" height="616.708"/>
		</defs>
		<clipPath id="SVGID_1_">
			<use xlink:href="#SVGID_23_"  overflow="visible"/>
		</clipPath>
		<g transform="matrix(1 0 0 1 0 -3.051758e-05)" clip-path="url(#SVGID_1_)">
			
				<image overflow="visible" width="1280" height="847" xlink:href="350B693F.jpg"  transform="matrix(1.5965 0 0 1.5965 -1833.1134 -496.8333)">
			</image>
		</g>
	</g>
	<g>
		<path fill="#F4F6F9" d="M151.806,74.86c0.083,1.169,0.083,2.339,0.083,3.508c0,35.666-26.898,76.761-76.06,76.761
			c-15.146,0-29.215-4.427-41.051-12.111c2.152,0.25,4.221,0.334,6.456,0.334c12.497,0,24.001-4.26,33.188-11.527
			c-11.753-0.25-21.602-8.019-24.995-18.71c1.655,0.25,3.311,0.418,5.049,0.418c2.4,0,4.8-0.334,7.035-0.919
			c-12.249-2.506-21.436-13.364-21.436-26.478c0-0.083,0-0.251,0-0.334c3.559,2.005,7.697,3.258,12.083,3.425
			c-7.2-4.844-11.918-13.114-11.918-22.469c0-5.012,1.324-9.606,3.642-13.615c13.159,16.371,32.94,27.063,55.121,28.232
			c-0.414-2.005-0.662-4.093-0.662-6.181c0-14.868,11.918-26.979,26.733-26.979c7.697,0,14.649,3.258,19.532,8.52
			c6.042-1.169,11.835-3.425,16.966-6.515c-1.986,6.264-6.208,11.527-11.752,14.868c5.38-0.585,10.594-2.088,15.394-4.176
			C161.572,66.257,157.02,71.018,151.806,74.86z"/>
	</g>
</g>
</svg>
