<?xml version="1.0" encoding="utf-8"?>
<!-- Generator: Adobe Illustrator 17.0.0, SVG Export Plug-In . SVG Version: 6.00 Build 0)  -->
<!DOCTYPE svg PUBLIC "-//W3C//DTD SVG 1.1//EN" "http://www.w3.org/Graphics/SVG/1.1/DTD/svg11.dtd">
<svg version="1.1" xmlns="http://www.w3.org/2000/svg" xmlns:xlink="http://www.w3.org/1999/xlink" x="0px" y="0px"
	 width="316.828px" height="235.104px" viewBox="0 0 316.828 235.104" enable-background="new 0 0 316.828 235.104"
	 xml:space="preserve">
<g id="Grid">
</g>
<g id="_x32_4_Grid_Col" display="none" opacity="0.1" enable-background="new    ">
</g>
<g id="Layer_3">
</g>
<g id="Layer_4">
</g>
<g id="Layer_5">
	<g>
		<rect x="0.5" y="0.5" fill="#057FED" stroke="#FFFFFF" stroke-miterlimit="10" width="315.828" height="34.037"/>
		<rect x="0.5" y="34.537" fill="#69B2F4" width="315.828" height="34.037"/>
		<rect x="0.5" y="67.743" fill="#69B2F4" width="315.828" height="34.037"/>
		<rect x="0.5" y="100.949" fill="#69B2F4" width="315.828" height="34.037"/>
		<rect x="0.5" y="134.155" fill="#057FED" stroke="#FFFFFF" stroke-miterlimit="10" width="315.828" height="34.037"/>
		<rect x="0.5" y="167.361" fill="#057FED" stroke="#FFFFFF" stroke-miterlimit="10" width="315.828" height="34.037"/>
		<rect x="0.5" y="200.567" fill="#057FED" stroke="#FFFFFF" stroke-miterlimit="10" width="315.828" height="34.037"/>
	</g>
	<g>
		<path opacity="0.6" fill="#FFFFFF" d="M23.385,51.765c-0.728,0-1.381-0.112-1.96-0.336c-0.578-0.224-1.068-0.553-1.47-0.987
			c-0.401-0.434-0.709-0.964-0.924-1.589c-0.214-0.625-0.321-1.344-0.321-2.156s0.124-1.531,0.37-2.156
			c0.247-0.625,0.586-1.155,1.015-1.589c0.43-0.434,0.934-0.763,1.513-0.987c0.578-0.224,1.199-0.336,1.861-0.336
			c0.401,0,0.766,0.03,1.093,0.091c0.326,0.061,0.61,0.128,0.854,0.203s0.443,0.154,0.603,0.238
			c0.158,0.084,0.271,0.145,0.336,0.182l-0.519,1.442c-0.224-0.14-0.544-0.273-0.959-0.399s-0.865-0.189-1.351-0.189
			c-0.42,0-0.813,0.072-1.176,0.217c-0.364,0.145-0.68,0.362-0.945,0.651c-0.267,0.29-0.474,0.654-0.623,1.092
			c-0.149,0.439-0.224,0.947-0.224,1.526c0,0.514,0.058,0.985,0.175,1.414c0.116,0.429,0.296,0.8,0.539,1.113
			c0.242,0.313,0.55,0.556,0.924,0.728c0.373,0.173,0.821,0.259,1.344,0.259c0.625,0,1.134-0.063,1.526-0.189
			c0.392-0.126,0.695-0.245,0.91-0.357l0.476,1.442c-0.112,0.075-0.264,0.149-0.455,0.224s-0.418,0.147-0.679,0.217
			c-0.262,0.07-0.556,0.126-0.882,0.168C24.109,51.745,23.759,51.765,23.385,51.765z"/>
		<path opacity="0.6" fill="#FFFFFF" d="M33.942,47.888c0,0.579-0.084,1.106-0.252,1.582s-0.406,0.882-0.714,1.218
			c-0.309,0.336-0.68,0.598-1.113,0.784c-0.435,0.187-0.912,0.28-1.436,0.28c-0.522,0-0.998-0.093-1.428-0.28
			s-0.798-0.448-1.105-0.784c-0.309-0.336-0.549-0.742-0.722-1.218s-0.259-1.003-0.259-1.582s0.086-1.104,0.259-1.575
			c0.173-0.471,0.415-0.875,0.729-1.211c0.313-0.336,0.684-0.595,1.113-0.777c0.429-0.182,0.9-0.273,1.413-0.273
			c0.514,0,0.987,0.091,1.422,0.273c0.434,0.182,0.805,0.441,1.112,0.777c0.309,0.336,0.549,0.74,0.722,1.211
			C33.855,46.784,33.942,47.309,33.942,47.888z M32.205,47.888c0-0.728-0.156-1.304-0.469-1.729s-0.749-0.637-1.31-0.637
			c-0.56,0-0.996,0.212-1.309,0.637s-0.469,1.001-0.469,1.729c0,0.737,0.156,1.321,0.469,1.75s0.749,0.644,1.309,0.644
			c0.561,0,0.997-0.215,1.31-0.644S32.205,48.625,32.205,47.888z"/>
		<path opacity="0.6" fill="#FFFFFF" d="M41.278,51.331c-0.327,0.084-0.751,0.17-1.274,0.259c-0.522,0.088-1.097,0.133-1.722,0.133
			c-0.588,0-1.08-0.084-1.477-0.252c-0.397-0.168-0.714-0.401-0.952-0.7c-0.238-0.298-0.408-0.655-0.511-1.071
			c-0.104-0.415-0.154-0.87-0.154-1.365v-4.102h1.694v3.836c0,0.784,0.113,1.344,0.343,1.68c0.229,0.336,0.627,0.504,1.196,0.504
			c0.206,0,0.423-0.009,0.651-0.028c0.229-0.019,0.399-0.042,0.511-0.07v-5.922h1.694V51.331z"/>
		<path opacity="0.6" fill="#FFFFFF" d="M43.013,44.472c0.326-0.093,0.751-0.182,1.273-0.266c0.523-0.084,1.102-0.126,1.736-0.126
			c0.598,0,1.097,0.082,1.498,0.245c0.401,0.164,0.721,0.392,0.959,0.686s0.406,0.649,0.504,1.064
			c0.099,0.416,0.147,0.871,0.147,1.365v4.116h-1.694v-3.85c0-0.392-0.025-0.726-0.077-1.001c-0.051-0.275-0.135-0.499-0.252-0.672
			c-0.116-0.173-0.275-0.299-0.476-0.378c-0.201-0.079-0.446-0.119-0.735-0.119c-0.215,0-0.438,0.014-0.672,0.042
			s-0.406,0.051-0.518,0.07v5.908h-1.694V44.472z"/>
		<path opacity="0.6" fill="#FFFFFF" d="M50.699,42.302l1.694-0.28v2.212h2.604v1.414h-2.604v2.982c0,0.588,0.093,1.008,0.279,1.26
			s0.504,0.378,0.952,0.378c0.308,0,0.581-0.033,0.819-0.098c0.237-0.065,0.427-0.126,0.566-0.182l0.28,1.344
			c-0.196,0.084-0.453,0.17-0.77,0.259c-0.317,0.088-0.691,0.133-1.12,0.133c-0.523,0-0.959-0.07-1.31-0.21
			c-0.35-0.14-0.628-0.343-0.833-0.609s-0.35-0.588-0.434-0.966c-0.084-0.378-0.126-0.81-0.126-1.295V42.302z"/>
		<path opacity="0.6" fill="#FFFFFF" d="M60.387,45.76c-0.14-0.047-0.334-0.096-0.581-0.147s-0.534-0.077-0.861-0.077
			c-0.187,0-0.385,0.019-0.595,0.056s-0.356,0.07-0.44,0.098v5.866h-1.694v-6.972c0.326-0.121,0.735-0.235,1.225-0.343
			c0.49-0.107,1.034-0.161,1.631-0.161c0.112,0,0.243,0.007,0.393,0.021s0.299,0.033,0.448,0.056
			c0.148,0.023,0.294,0.051,0.434,0.084s0.252,0.063,0.336,0.091L60.387,45.76z"/>
		<path opacity="0.6" fill="#FFFFFF" d="M67.666,44.234c-0.754,2.781-1.63,5.301-2.627,7.56c-0.187,0.42-0.378,0.779-0.574,1.078
			s-0.416,0.546-0.659,0.742c-0.243,0.196-0.514,0.338-0.813,0.427s-0.645,0.133-1.037,0.133c-0.262,0-0.521-0.028-0.778-0.084
			c-0.257-0.056-0.45-0.117-0.581-0.182l0.308-1.358c0.338,0.13,0.671,0.196,0.999,0.196c0.44,0,0.785-0.105,1.033-0.315
			s0.467-0.534,0.654-0.973c-0.534-1.026-1.048-2.146-1.54-3.36s-0.931-2.501-1.314-3.864h1.806
			c0.094,0.392,0.209,0.816,0.345,1.274c0.136,0.457,0.283,0.922,0.442,1.393s0.328,0.94,0.506,1.407
			c0.179,0.467,0.356,0.901,0.534,1.302c0.298-0.831,0.576-1.715,0.837-2.653c0.26-0.938,0.496-1.846,0.71-2.723H67.666z"/>
		<path opacity="0.6" fill="#FFFFFF" d="M25.528,68.355c-0.131-0.383-0.267-0.761-0.407-1.134c-0.141-0.374-0.276-0.756-0.407-1.148
			h-4.098c-0.131,0.392-0.265,0.777-0.4,1.155s-0.269,0.754-0.399,1.127h-1.834c0.364-1.036,0.709-1.993,1.034-2.87
			c0.326-0.877,0.646-1.708,0.958-2.492c0.313-0.784,0.623-1.531,0.931-2.24c0.308-0.709,0.625-1.409,0.951-2.1h1.684
			c0.327,0.691,0.645,1.391,0.952,2.1c0.309,0.709,0.618,1.456,0.931,2.24c0.313,0.784,0.636,1.615,0.967,2.492
			c0.331,0.877,0.679,1.834,1.043,2.87H25.528z M22.664,60.529c-0.215,0.495-0.46,1.097-0.735,1.806
			c-0.275,0.709-0.562,1.479-0.86,2.31h3.191c-0.299-0.831-0.588-1.605-0.867-2.324C23.113,61.603,22.869,61.005,22.664,60.529z"/>
		<path opacity="0.6" fill="#FFFFFF" d="M34.137,68.131c-0.336,0.103-0.758,0.196-1.267,0.28s-1.043,0.126-1.603,0.126
			c-0.579,0-1.098-0.089-1.555-0.266s-0.847-0.432-1.169-0.763c-0.322-0.331-0.569-0.732-0.742-1.204s-0.259-1.001-0.259-1.589
			c0-0.579,0.072-1.104,0.217-1.575s0.357-0.875,0.638-1.211c0.279-0.336,0.62-0.595,1.021-0.777
			c0.401-0.182,0.863-0.273,1.386-0.273c0.355,0,0.668,0.042,0.938,0.126s0.504,0.178,0.7,0.28v-3.514l1.693-0.28V68.131z
			 M29.28,64.673c0,0.747,0.177,1.333,0.532,1.757c0.354,0.425,0.844,0.637,1.47,0.637c0.271,0,0.501-0.012,0.692-0.035
			c0.191-0.023,0.348-0.049,0.47-0.077v-4.2c-0.149-0.103-0.348-0.198-0.596-0.287c-0.247-0.088-0.511-0.133-0.791-0.133
			c-0.615,0-1.066,0.21-1.351,0.63C29.421,63.385,29.28,63.955,29.28,64.673z"/>
		<path opacity="0.6" fill="#FFFFFF" d="M42.061,68.131c-0.336,0.103-0.758,0.196-1.267,0.28s-1.043,0.126-1.603,0.126
			c-0.579,0-1.098-0.089-1.555-0.266s-0.847-0.432-1.169-0.763c-0.322-0.331-0.569-0.732-0.742-1.204s-0.259-1.001-0.259-1.589
			c0-0.579,0.072-1.104,0.217-1.575s0.357-0.875,0.638-1.211c0.279-0.336,0.62-0.595,1.021-0.777
			c0.401-0.182,0.863-0.273,1.386-0.273c0.355,0,0.668,0.042,0.938,0.126s0.504,0.178,0.7,0.28v-3.514l1.693-0.28V68.131z
			 M37.203,64.673c0,0.747,0.177,1.333,0.532,1.757c0.354,0.425,0.844,0.637,1.47,0.637c0.271,0,0.501-0.012,0.692-0.035
			c0.191-0.023,0.348-0.049,0.47-0.077v-4.2c-0.149-0.103-0.348-0.198-0.596-0.287c-0.247-0.088-0.511-0.133-0.791-0.133
			c-0.615,0-1.066,0.21-1.351,0.63C37.345,63.385,37.203,63.955,37.203,64.673z"/>
		<path opacity="0.6" fill="#FFFFFF" d="M47.969,62.559c-0.14-0.047-0.334-0.096-0.581-0.147s-0.534-0.077-0.861-0.077
			c-0.187,0-0.385,0.019-0.595,0.056s-0.356,0.07-0.44,0.098v5.866h-1.694v-6.972c0.326-0.121,0.735-0.235,1.225-0.343
			c0.49-0.107,1.034-0.161,1.631-0.161c0.112,0,0.243,0.007,0.393,0.021s0.299,0.033,0.448,0.056
			c0.148,0.023,0.294,0.051,0.434,0.084s0.252,0.063,0.336,0.091L47.969,62.559z"/>
		<path opacity="0.6" fill="#FFFFFF" d="M48.613,64.729c0-0.644,0.096-1.208,0.287-1.694s0.445-0.889,0.763-1.211
			c0.317-0.322,0.682-0.565,1.093-0.728c0.41-0.164,0.83-0.245,1.26-0.245c1.008,0,1.794,0.313,2.358,0.938
			c0.565,0.625,0.848,1.559,0.848,2.8c0,0.094-0.003,0.199-0.007,0.315c-0.005,0.117-0.013,0.222-0.021,0.315h-4.83
			c0.047,0.588,0.254,1.043,0.623,1.365s0.903,0.483,1.604,0.483c0.41,0,0.786-0.037,1.127-0.112
			c0.34-0.075,0.608-0.154,0.805-0.238l0.224,1.386c-0.093,0.047-0.222,0.096-0.385,0.147s-0.35,0.098-0.56,0.14
			s-0.437,0.077-0.68,0.105c-0.242,0.028-0.489,0.042-0.741,0.042c-0.645,0-1.204-0.096-1.681-0.287
			c-0.476-0.191-0.868-0.457-1.176-0.798s-0.537-0.742-0.686-1.204C48.688,65.786,48.613,65.28,48.613,64.729z M53.527,63.974
			c0-0.233-0.033-0.455-0.098-0.665c-0.065-0.21-0.161-0.392-0.287-0.546c-0.126-0.154-0.28-0.275-0.462-0.364
			c-0.183-0.088-0.399-0.133-0.651-0.133c-0.262,0-0.49,0.049-0.686,0.147c-0.196,0.098-0.362,0.226-0.497,0.385
			c-0.136,0.159-0.24,0.341-0.315,0.546c-0.074,0.206-0.126,0.416-0.154,0.63H53.527z"/>
		<path opacity="0.6" fill="#FFFFFF" d="M58.427,67.138c0.448,0,0.774-0.054,0.979-0.161c0.206-0.107,0.309-0.292,0.309-0.553
			c0-0.243-0.11-0.443-0.329-0.602c-0.22-0.158-0.581-0.331-1.085-0.518c-0.309-0.112-0.591-0.231-0.847-0.357
			c-0.257-0.126-0.479-0.273-0.665-0.441c-0.188-0.168-0.334-0.371-0.441-0.609c-0.107-0.238-0.161-0.53-0.161-0.875
			c0-0.672,0.247-1.202,0.742-1.589c0.494-0.387,1.167-0.581,2.016-0.581c0.43,0,0.84,0.04,1.232,0.119
			c0.392,0.079,0.686,0.156,0.882,0.231l-0.308,1.372c-0.188-0.084-0.425-0.161-0.714-0.231c-0.29-0.07-0.626-0.105-1.009-0.105
			c-0.345,0-0.625,0.059-0.84,0.175s-0.322,0.296-0.322,0.539c0,0.121,0.021,0.229,0.063,0.322s0.114,0.18,0.217,0.259
			c0.103,0.08,0.238,0.159,0.406,0.238c0.168,0.08,0.373,0.161,0.616,0.245c0.401,0.149,0.742,0.296,1.021,0.441
			c0.28,0.145,0.511,0.308,0.693,0.49c0.182,0.182,0.314,0.39,0.398,0.623c0.084,0.233,0.126,0.514,0.126,0.84
			c0,0.7-0.259,1.229-0.776,1.589c-0.519,0.359-1.258,0.539-2.219,0.539c-0.645,0-1.162-0.054-1.555-0.161
			c-0.392-0.107-0.667-0.193-0.826-0.259l0.294-1.414c0.253,0.103,0.554,0.201,0.903,0.294
			C57.58,67.091,57.979,67.138,58.427,67.138z"/>
		<path opacity="0.6" fill="#FFFFFF" d="M64.406,67.138c0.448,0,0.774-0.054,0.979-0.161c0.206-0.107,0.309-0.292,0.309-0.553
			c0-0.243-0.11-0.443-0.329-0.602c-0.22-0.158-0.581-0.331-1.085-0.518c-0.309-0.112-0.591-0.231-0.847-0.357
			c-0.257-0.126-0.479-0.273-0.665-0.441c-0.188-0.168-0.334-0.371-0.441-0.609c-0.107-0.238-0.161-0.53-0.161-0.875
			c0-0.672,0.247-1.202,0.742-1.589c0.494-0.387,1.167-0.581,2.016-0.581c0.43,0,0.84,0.04,1.232,0.119
			c0.392,0.079,0.686,0.156,0.882,0.231l-0.308,1.372c-0.188-0.084-0.425-0.161-0.714-0.231c-0.29-0.07-0.626-0.105-1.009-0.105
			c-0.345,0-0.625,0.059-0.84,0.175s-0.322,0.296-0.322,0.539c0,0.121,0.021,0.229,0.063,0.322s0.114,0.18,0.217,0.259
			c0.103,0.08,0.238,0.159,0.406,0.238c0.168,0.08,0.373,0.161,0.616,0.245c0.401,0.149,0.742,0.296,1.021,0.441
			c0.28,0.145,0.511,0.308,0.693,0.49c0.182,0.182,0.314,0.39,0.398,0.623c0.084,0.233,0.126,0.514,0.126,0.84
			c0,0.7-0.259,1.229-0.776,1.589c-0.519,0.359-1.258,0.539-2.219,0.539c-0.645,0-1.162-0.054-1.555-0.161
			c-0.392-0.107-0.667-0.193-0.826-0.259l0.294-1.414c0.253,0.103,0.554,0.201,0.903,0.294
			C63.559,67.091,63.957,67.138,64.406,67.138z"/>
		<path opacity="0.6" fill="#FFFFFF" d="M71.573,60.669c0.541-0.214,1.085-0.49,1.631-0.826c0.546-0.336,1.029-0.732,1.449-1.19
			h1.19v9.702h-1.694v-7.434c-0.252,0.196-0.569,0.388-0.952,0.574s-0.751,0.341-1.105,0.462L71.573,60.669z"/>
		<path opacity="0.6" fill="#FFFFFF" d="M25.528,85.156c-0.131-0.383-0.267-0.761-0.407-1.134c-0.141-0.374-0.276-0.756-0.407-1.148
			h-4.098c-0.131,0.392-0.265,0.777-0.4,1.155s-0.269,0.754-0.399,1.127h-1.834c0.364-1.036,0.709-1.993,1.034-2.87
			c0.326-0.877,0.646-1.708,0.958-2.492c0.313-0.784,0.623-1.531,0.931-2.24c0.308-0.709,0.625-1.409,0.951-2.1h1.684
			c0.327,0.691,0.645,1.391,0.952,2.1c0.309,0.709,0.618,1.456,0.931,2.24c0.313,0.784,0.636,1.615,0.967,2.492
			c0.331,0.877,0.679,1.834,1.043,2.87H25.528z M22.664,77.329c-0.215,0.495-0.46,1.097-0.735,1.806
			c-0.275,0.709-0.562,1.479-0.86,2.31h3.191c-0.299-0.831-0.588-1.605-0.867-2.324C23.113,78.403,22.869,77.806,22.664,77.329z"/>
		<path opacity="0.6" fill="#FFFFFF" d="M34.137,84.932c-0.336,0.103-0.758,0.196-1.267,0.28s-1.043,0.126-1.603,0.126
			c-0.579,0-1.098-0.089-1.555-0.266s-0.847-0.432-1.169-0.763c-0.322-0.331-0.569-0.732-0.742-1.204s-0.259-1.001-0.259-1.589
			c0-0.579,0.072-1.104,0.217-1.575s0.357-0.875,0.638-1.211c0.279-0.336,0.62-0.595,1.021-0.777
			c0.401-0.182,0.863-0.273,1.386-0.273c0.355,0,0.668,0.042,0.938,0.126s0.504,0.178,0.7,0.28v-3.514l1.693-0.28V84.932z
			 M29.28,81.474c0,0.747,0.177,1.333,0.532,1.757c0.354,0.425,0.844,0.637,1.47,0.637c0.271,0,0.501-0.012,0.692-0.035
			c0.191-0.023,0.348-0.049,0.47-0.077v-4.2c-0.149-0.103-0.348-0.198-0.596-0.287c-0.247-0.088-0.511-0.133-0.791-0.133
			c-0.615,0-1.066,0.21-1.351,0.63C29.421,80.185,29.28,80.755,29.28,81.474z"/>
		<path opacity="0.6" fill="#FFFFFF" d="M42.061,84.932c-0.336,0.103-0.758,0.196-1.267,0.28s-1.043,0.126-1.603,0.126
			c-0.579,0-1.098-0.089-1.555-0.266s-0.847-0.432-1.169-0.763c-0.322-0.331-0.569-0.732-0.742-1.204s-0.259-1.001-0.259-1.589
			c0-0.579,0.072-1.104,0.217-1.575s0.357-0.875,0.638-1.211c0.279-0.336,0.62-0.595,1.021-0.777
			c0.401-0.182,0.863-0.273,1.386-0.273c0.355,0,0.668,0.042,0.938,0.126s0.504,0.178,0.7,0.28v-3.514l1.693-0.28V84.932z
			 M37.203,81.474c0,0.747,0.177,1.333,0.532,1.757c0.354,0.425,0.844,0.637,1.47,0.637c0.271,0,0.501-0.012,0.692-0.035
			c0.191-0.023,0.348-0.049,0.47-0.077v-4.2c-0.149-0.103-0.348-0.198-0.596-0.287c-0.247-0.088-0.511-0.133-0.791-0.133
			c-0.615,0-1.066,0.21-1.351,0.63C37.345,80.185,37.203,80.755,37.203,81.474z"/>
		<path opacity="0.6" fill="#FFFFFF" d="M47.969,79.36c-0.14-0.047-0.334-0.096-0.581-0.147s-0.534-0.077-0.861-0.077
			c-0.187,0-0.385,0.019-0.595,0.056s-0.356,0.07-0.44,0.098v5.866h-1.694v-6.972c0.326-0.121,0.735-0.235,1.225-0.343
			c0.49-0.107,1.034-0.161,1.631-0.161c0.112,0,0.243,0.007,0.393,0.021s0.299,0.033,0.448,0.056
			c0.148,0.023,0.294,0.051,0.434,0.084s0.252,0.063,0.336,0.091L47.969,79.36z"/>
		<path opacity="0.6" fill="#FFFFFF" d="M48.613,81.53c0-0.644,0.096-1.208,0.287-1.694s0.445-0.889,0.763-1.211
			c0.317-0.322,0.682-0.565,1.093-0.728c0.41-0.164,0.83-0.245,1.26-0.245c1.008,0,1.794,0.313,2.358,0.938
			c0.565,0.625,0.848,1.559,0.848,2.8c0,0.094-0.003,0.199-0.007,0.315c-0.005,0.117-0.013,0.222-0.021,0.315h-4.83
			c0.047,0.588,0.254,1.043,0.623,1.365s0.903,0.483,1.604,0.483c0.41,0,0.786-0.037,1.127-0.112
			c0.34-0.075,0.608-0.154,0.805-0.238l0.224,1.386c-0.093,0.047-0.222,0.096-0.385,0.147s-0.35,0.098-0.56,0.14
			s-0.437,0.077-0.68,0.105c-0.242,0.028-0.489,0.042-0.741,0.042c-0.645,0-1.204-0.096-1.681-0.287
			c-0.476-0.191-0.868-0.457-1.176-0.798s-0.537-0.742-0.686-1.204C48.688,82.587,48.613,82.08,48.613,81.53z M53.527,80.774
			c0-0.233-0.033-0.455-0.098-0.665c-0.065-0.21-0.161-0.392-0.287-0.546c-0.126-0.154-0.28-0.275-0.462-0.364
			c-0.183-0.088-0.399-0.133-0.651-0.133c-0.262,0-0.49,0.049-0.686,0.147c-0.196,0.098-0.362,0.226-0.497,0.385
			c-0.136,0.159-0.24,0.341-0.315,0.546c-0.074,0.206-0.126,0.416-0.154,0.63H53.527z"/>
		<path opacity="0.6" fill="#FFFFFF" d="M58.427,83.938c0.448,0,0.774-0.054,0.979-0.161c0.206-0.107,0.309-0.292,0.309-0.553
			c0-0.243-0.11-0.443-0.329-0.602c-0.22-0.158-0.581-0.331-1.085-0.518c-0.309-0.112-0.591-0.231-0.847-0.357
			c-0.257-0.126-0.479-0.273-0.665-0.441c-0.188-0.168-0.334-0.371-0.441-0.609s-0.161-0.53-0.161-0.875
			c0-0.672,0.247-1.202,0.742-1.589c0.494-0.387,1.167-0.581,2.016-0.581c0.43,0,0.84,0.04,1.232,0.119
			c0.392,0.079,0.686,0.156,0.882,0.231l-0.308,1.372c-0.188-0.084-0.425-0.161-0.714-0.231c-0.29-0.07-0.626-0.105-1.009-0.105
			c-0.345,0-0.625,0.059-0.84,0.175s-0.322,0.296-0.322,0.539c0,0.121,0.021,0.229,0.063,0.322s0.114,0.18,0.217,0.259
			c0.103,0.08,0.238,0.159,0.406,0.238c0.168,0.08,0.373,0.161,0.616,0.245c0.401,0.149,0.742,0.296,1.021,0.441
			c0.28,0.145,0.511,0.308,0.693,0.49c0.182,0.182,0.314,0.39,0.398,0.623c0.084,0.233,0.126,0.514,0.126,0.84
			c0,0.7-0.259,1.229-0.776,1.589c-0.519,0.359-1.258,0.539-2.219,0.539c-0.645,0-1.162-0.054-1.555-0.161
			c-0.392-0.107-0.667-0.193-0.826-0.259l0.294-1.414c0.253,0.103,0.554,0.201,0.903,0.294
			C57.58,83.891,57.979,83.938,58.427,83.938z"/>
		<path opacity="0.6" fill="#FFFFFF" d="M64.406,83.938c0.448,0,0.774-0.054,0.979-0.161c0.206-0.107,0.309-0.292,0.309-0.553
			c0-0.243-0.11-0.443-0.329-0.602c-0.22-0.158-0.581-0.331-1.085-0.518c-0.309-0.112-0.591-0.231-0.847-0.357
			c-0.257-0.126-0.479-0.273-0.665-0.441c-0.188-0.168-0.334-0.371-0.441-0.609s-0.161-0.53-0.161-0.875
			c0-0.672,0.247-1.202,0.742-1.589c0.494-0.387,1.167-0.581,2.016-0.581c0.43,0,0.84,0.04,1.232,0.119
			c0.392,0.079,0.686,0.156,0.882,0.231l-0.308,1.372c-0.188-0.084-0.425-0.161-0.714-0.231c-0.29-0.07-0.626-0.105-1.009-0.105
			c-0.345,0-0.625,0.059-0.84,0.175s-0.322,0.296-0.322,0.539c0,0.121,0.021,0.229,0.063,0.322s0.114,0.18,0.217,0.259
			c0.103,0.08,0.238,0.159,0.406,0.238c0.168,0.08,0.373,0.161,0.616,0.245c0.401,0.149,0.742,0.296,1.021,0.441
			c0.28,0.145,0.511,0.308,0.693,0.49c0.182,0.182,0.314,0.39,0.398,0.623c0.084,0.233,0.126,0.514,0.126,0.84
			c0,0.7-0.259,1.229-0.776,1.589c-0.519,0.359-1.258,0.539-2.219,0.539c-0.645,0-1.162-0.054-1.555-0.161
			c-0.392-0.107-0.667-0.193-0.826-0.259l0.294-1.414c0.253,0.103,0.554,0.201,0.903,0.294
			C63.559,83.891,63.957,83.938,64.406,83.938z"/>
		<path opacity="0.6" fill="#FFFFFF" d="M77.047,77.974c0,0.336-0.07,0.665-0.21,0.987c-0.141,0.322-0.32,0.635-0.539,0.938
			c-0.22,0.303-0.47,0.597-0.749,0.882c-0.28,0.285-0.561,0.563-0.84,0.833c-0.149,0.14-0.318,0.308-0.505,0.504
			c-0.187,0.196-0.363,0.392-0.531,0.588c-0.168,0.196-0.313,0.385-0.435,0.567c-0.121,0.182-0.187,0.333-0.195,0.455h4.312v1.428
			h-6.174c-0.01-0.075-0.015-0.166-0.015-0.273s0-0.189,0-0.245c0-0.448,0.072-0.861,0.218-1.239
			c0.145-0.378,0.333-0.73,0.566-1.057s0.495-0.635,0.784-0.924c0.289-0.29,0.579-0.574,0.868-0.854
			c0.224-0.215,0.438-0.425,0.644-0.63c0.206-0.205,0.386-0.408,0.539-0.609c0.154-0.201,0.278-0.406,0.371-0.616
			c0.094-0.21,0.141-0.427,0.141-0.651c0-0.485-0.141-0.831-0.42-1.036c-0.28-0.206-0.621-0.308-1.022-0.308
			c-0.262,0-0.504,0.037-0.728,0.112c-0.225,0.075-0.423,0.164-0.596,0.266s-0.324,0.208-0.455,0.315
			c-0.131,0.107-0.229,0.194-0.294,0.259l-0.84-1.19c0.393-0.373,0.852-0.674,1.379-0.903c0.527-0.229,1.095-0.343,1.701-0.343
			c1.036,0,1.799,0.245,2.289,0.735C76.802,76.454,77.047,77.124,77.047,77.974z"/>
		<path opacity="0.6" fill="#FFFFFF" d="M23.385,102.165c-0.728,0-1.381-0.112-1.96-0.336c-0.578-0.224-1.068-0.553-1.47-0.987
			c-0.401-0.434-0.709-0.964-0.924-1.589c-0.214-0.625-0.321-1.344-0.321-2.156s0.124-1.531,0.37-2.156
			c0.247-0.625,0.586-1.155,1.015-1.589c0.43-0.434,0.934-0.763,1.513-0.987c0.578-0.224,1.199-0.336,1.861-0.336
			c0.401,0,0.766,0.03,1.093,0.091c0.326,0.061,0.61,0.128,0.854,0.203s0.443,0.154,0.603,0.238
			c0.158,0.084,0.271,0.145,0.336,0.182l-0.519,1.442c-0.224-0.14-0.544-0.273-0.959-0.399s-0.865-0.189-1.351-0.189
			c-0.42,0-0.813,0.072-1.176,0.217c-0.364,0.145-0.68,0.362-0.945,0.651c-0.267,0.29-0.474,0.654-0.623,1.092
			c-0.149,0.439-0.224,0.947-0.224,1.526c0,0.514,0.058,0.985,0.175,1.414c0.116,0.429,0.296,0.8,0.539,1.113
			c0.242,0.313,0.55,0.556,0.924,0.728c0.373,0.173,0.821,0.259,1.344,0.259c0.625,0,1.134-0.063,1.526-0.189
			c0.392-0.126,0.695-0.245,0.91-0.357l0.476,1.442c-0.112,0.075-0.264,0.149-0.455,0.224s-0.418,0.147-0.679,0.217
			c-0.262,0.07-0.556,0.126-0.882,0.168C24.109,102.144,23.759,102.165,23.385,102.165z"/>
		<path opacity="0.6" fill="#FFFFFF" d="M33.942,98.287c0,0.579-0.084,1.106-0.252,1.582s-0.406,0.882-0.714,1.218
			c-0.309,0.336-0.68,0.598-1.113,0.784c-0.435,0.187-0.912,0.28-1.436,0.28c-0.522,0-0.998-0.093-1.428-0.28
			s-0.798-0.448-1.105-0.784c-0.309-0.336-0.549-0.742-0.722-1.218s-0.259-1.003-0.259-1.582s0.086-1.104,0.259-1.575
			c0.173-0.471,0.415-0.875,0.729-1.211c0.313-0.336,0.684-0.595,1.113-0.777c0.429-0.182,0.9-0.273,1.413-0.273
			c0.514,0,0.987,0.091,1.422,0.273c0.434,0.182,0.805,0.441,1.112,0.777c0.309,0.336,0.549,0.74,0.722,1.211
			C33.855,97.184,33.942,97.709,33.942,98.287z M32.205,98.287c0-0.728-0.156-1.304-0.469-1.729s-0.749-0.637-1.31-0.637
			c-0.56,0-0.996,0.212-1.309,0.637s-0.469,1.001-0.469,1.729c0,0.737,0.156,1.321,0.469,1.75s0.749,0.644,1.309,0.644
			c0.561,0,0.997-0.215,1.31-0.644S32.205,99.025,32.205,98.287z"/>
		<path opacity="0.6" fill="#FFFFFF" d="M35.272,94.871c0.326-0.093,0.751-0.182,1.273-0.266c0.523-0.084,1.102-0.126,1.736-0.126
			c0.598,0,1.097,0.082,1.498,0.245c0.401,0.164,0.721,0.392,0.959,0.686s0.406,0.649,0.504,1.064
			c0.099,0.416,0.147,0.871,0.147,1.365v4.116h-1.694v-3.85c0-0.392-0.025-0.726-0.077-1.001c-0.051-0.275-0.135-0.499-0.252-0.672
			c-0.116-0.173-0.275-0.299-0.476-0.378c-0.201-0.079-0.446-0.119-0.735-0.119c-0.215,0-0.438,0.014-0.672,0.042
			s-0.406,0.051-0.518,0.07v5.908h-1.694V94.871z"/>
		<path opacity="0.6" fill="#FFFFFF" d="M42.957,92.702l1.694-0.28v2.212h2.604v1.414h-2.604v2.982c0,0.588,0.093,1.008,0.279,1.26
			s0.504,0.378,0.952,0.378c0.308,0,0.581-0.033,0.819-0.098c0.237-0.065,0.427-0.126,0.566-0.182l0.28,1.344
			c-0.196,0.084-0.453,0.17-0.77,0.259c-0.317,0.088-0.691,0.133-1.12,0.133c-0.523,0-0.959-0.07-1.31-0.21
			c-0.35-0.14-0.628-0.343-0.833-0.609s-0.35-0.588-0.434-0.966c-0.084-0.378-0.126-0.81-0.126-1.295V92.702z"/>
		<path opacity="0.6" fill="#FFFFFF" d="M50.908,94.452c0.561,0,1.031,0.07,1.414,0.21s0.688,0.336,0.917,0.588
			s0.393,0.558,0.49,0.917c0.098,0.359,0.147,0.754,0.147,1.183v4.438c-0.262,0.056-0.656,0.124-1.184,0.203
			s-1.122,0.119-1.785,0.119c-0.438,0-0.84-0.042-1.204-0.126c-0.363-0.084-0.674-0.219-0.931-0.406s-0.457-0.429-0.602-0.728
			c-0.146-0.299-0.218-0.667-0.218-1.106c0-0.42,0.082-0.775,0.245-1.064c0.163-0.29,0.386-0.525,0.665-0.707
			c0.28-0.182,0.604-0.313,0.974-0.392c0.368-0.079,0.753-0.119,1.154-0.119c0.187,0,0.383,0.012,0.588,0.035
			c0.206,0.023,0.425,0.063,0.658,0.119v-0.28c0-0.196-0.023-0.382-0.069-0.56c-0.047-0.177-0.129-0.333-0.245-0.469
			c-0.117-0.135-0.271-0.24-0.462-0.315c-0.191-0.075-0.433-0.112-0.722-0.112c-0.392,0-0.751,0.028-1.078,0.084
			c-0.326,0.056-0.593,0.122-0.798,0.196l-0.21-1.372c0.215-0.075,0.527-0.149,0.938-0.224
			C50.003,94.489,50.442,94.452,50.908,94.452z M51.049,100.765c0.522,0,0.919-0.028,1.189-0.084v-1.876
			c-0.093-0.028-0.229-0.056-0.405-0.084c-0.178-0.028-0.374-0.042-0.589-0.042c-0.187,0-0.375,0.014-0.566,0.042
			c-0.191,0.028-0.364,0.079-0.519,0.154c-0.153,0.075-0.277,0.18-0.371,0.315c-0.093,0.136-0.14,0.306-0.14,0.511
			c0,0.401,0.126,0.679,0.378,0.833C50.279,100.688,50.619,100.765,51.049,100.765z"/>
		<path opacity="0.6" fill="#FFFFFF" d="M55.123,98.302c0-0.542,0.084-1.048,0.252-1.519s0.408-0.88,0.721-1.225
			c0.313-0.345,0.693-0.616,1.142-0.812s0.952-0.294,1.512-0.294c0.69,0,1.344,0.126,1.96,0.378l-0.364,1.386
			c-0.195-0.084-0.417-0.154-0.665-0.21c-0.247-0.056-0.511-0.084-0.79-0.084c-0.663,0-1.167,0.208-1.513,0.623
			c-0.345,0.416-0.518,1.001-0.518,1.757c0,0.728,0.163,1.304,0.49,1.729c0.326,0.425,0.877,0.637,1.651,0.637
			c0.289,0,0.574-0.028,0.854-0.084c0.279-0.056,0.522-0.126,0.728-0.21l0.238,1.4c-0.187,0.094-0.469,0.178-0.847,0.252
			c-0.379,0.075-0.769,0.112-1.17,0.112c-0.625,0-1.169-0.096-1.631-0.287s-0.845-0.457-1.147-0.798
			c-0.304-0.341-0.53-0.747-0.679-1.218C55.199,99.363,55.123,98.852,55.123,98.302z"/>
		<path opacity="0.6" fill="#FFFFFF" d="M61.633,92.702l1.694-0.28v2.212h2.604v1.414h-2.604v2.982c0,0.588,0.093,1.008,0.279,1.26
			s0.504,0.378,0.952,0.378c0.308,0,0.581-0.033,0.819-0.098c0.237-0.065,0.427-0.126,0.566-0.182l0.28,1.344
			c-0.196,0.084-0.453,0.17-0.77,0.259c-0.317,0.088-0.691,0.133-1.12,0.133c-0.523,0-0.959-0.07-1.31-0.21
			c-0.35-0.14-0.628-0.343-0.833-0.609s-0.35-0.588-0.434-0.966c-0.084-0.378-0.126-0.81-0.126-1.295V92.702z"/>
		<path opacity="0.6" fill="#FFFFFF" d="M69.991,94.871c0.326-0.093,0.751-0.182,1.273-0.266c0.523-0.084,1.102-0.126,1.736-0.126
			c0.598,0,1.097,0.082,1.498,0.245c0.401,0.164,0.721,0.392,0.959,0.686s0.406,0.649,0.504,1.064
			c0.099,0.416,0.147,0.871,0.147,1.365v4.116h-1.694v-3.85c0-0.392-0.025-0.726-0.077-1.001c-0.051-0.275-0.135-0.499-0.252-0.672
			c-0.116-0.173-0.275-0.299-0.476-0.378c-0.201-0.079-0.446-0.119-0.735-0.119c-0.215,0-0.438,0.014-0.672,0.042
			s-0.406,0.051-0.518,0.07v5.908h-1.694V94.871z"/>
		<path opacity="0.6" fill="#FFFFFF" d="M83.767,101.731c-0.327,0.084-0.751,0.17-1.274,0.259c-0.522,0.088-1.097,0.133-1.722,0.133
			c-0.588,0-1.08-0.084-1.477-0.252c-0.397-0.168-0.714-0.401-0.952-0.7c-0.238-0.298-0.408-0.655-0.511-1.071
			c-0.104-0.415-0.154-0.87-0.154-1.365v-4.102h1.694v3.836c0,0.784,0.113,1.344,0.343,1.68c0.229,0.336,0.627,0.504,1.196,0.504
			c0.206,0,0.423-0.009,0.651-0.028c0.229-0.019,0.399-0.042,0.511-0.07v-5.922h1.694V101.731z"/>
		<path opacity="0.6" fill="#FFFFFF" d="M89.674,98.105c0-0.765-0.096-1.318-0.287-1.659s-0.548-0.511-1.071-0.511
			c-0.187,0-0.392,0.014-0.615,0.042c-0.225,0.028-0.393,0.051-0.504,0.07v5.908h-1.694v-7.084c0.326-0.093,0.754-0.182,1.281-0.266
			c0.526-0.084,1.085-0.126,1.673-0.126c0.504,0,0.917,0.065,1.239,0.196c0.321,0.13,0.59,0.303,0.805,0.518
			c0.103-0.074,0.233-0.154,0.392-0.238c0.159-0.084,0.336-0.161,0.532-0.231s0.403-0.128,0.623-0.175
			c0.219-0.047,0.441-0.07,0.665-0.07c0.569,0,1.038,0.082,1.407,0.245c0.368,0.164,0.657,0.392,0.868,0.686
			c0.21,0.294,0.354,0.649,0.434,1.064c0.079,0.416,0.119,0.871,0.119,1.365v4.116h-1.694v-3.85c0-0.765-0.094-1.318-0.28-1.659
			s-0.546-0.511-1.077-0.511c-0.271,0-0.528,0.044-0.771,0.133c-0.243,0.089-0.425,0.175-0.546,0.259
			c0.074,0.233,0.126,0.481,0.154,0.742c0.027,0.262,0.042,0.542,0.042,0.84v4.046h-1.694V98.105z"/>
		<path opacity="0.6" fill="#FFFFFF" d="M103.786,98.302c0,0.588-0.086,1.118-0.259,1.589s-0.42,0.875-0.742,1.211
			s-0.712,0.593-1.169,0.77s-0.976,0.266-1.554,0.266c-0.561,0-1.095-0.042-1.604-0.126s-0.931-0.177-1.267-0.28v-10.36l1.694-0.28
			v3.794c0.195-0.103,0.436-0.196,0.721-0.28c0.284-0.084,0.6-0.126,0.945-0.126c0.513,0,0.973,0.091,1.379,0.273
			c0.405,0.182,0.744,0.441,1.015,0.777c0.271,0.336,0.479,0.74,0.623,1.211S103.786,97.732,103.786,98.302z M102.05,98.273
			c0-0.718-0.142-1.288-0.427-1.708c-0.284-0.42-0.734-0.63-1.351-0.63c-0.28,0-0.544,0.042-0.791,0.126
			c-0.248,0.084-0.446,0.177-0.595,0.28v4.214c0.121,0.028,0.277,0.054,0.469,0.077c0.191,0.023,0.422,0.035,0.692,0.035
			c0.626,0,1.115-0.212,1.471-0.637C101.873,99.606,102.05,99.02,102.05,98.273z"/>
		<path opacity="0.6" fill="#FFFFFF" d="M104.71,98.329c0-0.644,0.096-1.208,0.287-1.694s0.445-0.889,0.763-1.211
			c0.317-0.322,0.682-0.565,1.093-0.728c0.41-0.164,0.83-0.245,1.26-0.245c1.008,0,1.794,0.313,2.358,0.938
			c0.565,0.625,0.848,1.559,0.848,2.8c0,0.094-0.003,0.199-0.007,0.315c-0.005,0.117-0.013,0.222-0.021,0.315h-4.83
			c0.047,0.588,0.254,1.043,0.623,1.365s0.903,0.483,1.604,0.483c0.41,0,0.786-0.037,1.127-0.112
			c0.34-0.075,0.608-0.154,0.805-0.238l0.224,1.386c-0.093,0.047-0.222,0.096-0.385,0.147s-0.35,0.098-0.56,0.14
			s-0.437,0.077-0.68,0.105c-0.242,0.028-0.489,0.042-0.741,0.042c-0.645,0-1.204-0.096-1.681-0.287
			c-0.476-0.191-0.868-0.457-1.176-0.798s-0.537-0.742-0.686-1.204C104.785,99.387,104.71,98.88,104.71,98.329z M109.624,97.574
			c0-0.233-0.033-0.455-0.098-0.665c-0.065-0.21-0.161-0.392-0.287-0.546c-0.126-0.154-0.28-0.275-0.462-0.364
			c-0.183-0.088-0.399-0.133-0.651-0.133c-0.262,0-0.49,0.049-0.686,0.147c-0.196,0.098-0.362,0.226-0.497,0.385
			c-0.136,0.159-0.24,0.341-0.315,0.546c-0.074,0.206-0.126,0.416-0.154,0.63H109.624z"/>
		<path opacity="0.6" fill="#FFFFFF" d="M116.862,96.16c-0.14-0.047-0.334-0.096-0.58-0.147c-0.247-0.051-0.534-0.077-0.861-0.077
			c-0.187,0-0.385,0.019-0.595,0.056s-0.356,0.07-0.44,0.098v5.866h-1.694v-6.972c0.326-0.121,0.735-0.235,1.225-0.343
			c0.49-0.107,1.034-0.161,1.631-0.161c0.112,0,0.243,0.007,0.393,0.021s0.299,0.033,0.448,0.056
			c0.147,0.023,0.293,0.051,0.433,0.084s0.252,0.063,0.336,0.091L116.862,96.16z"/>
		<path opacity="0.6" fill="#FFFFFF" d="M19.074,118.756v-9.702h6.229v1.498h-4.466v2.394h3.977v1.47h-3.977v2.842h4.802v1.498
			H19.074z"/>
		<path opacity="0.6" fill="#FFFFFF" d="M30.946,114.906c0-0.765-0.096-1.318-0.287-1.659s-0.548-0.511-1.071-0.511
			c-0.187,0-0.392,0.014-0.615,0.042c-0.225,0.028-0.393,0.051-0.504,0.07v5.908h-1.694v-7.084c0.326-0.093,0.754-0.182,1.281-0.266
			c0.526-0.084,1.085-0.126,1.673-0.126c0.504,0,0.917,0.065,1.239,0.196c0.321,0.13,0.59,0.303,0.805,0.518
			c0.103-0.074,0.233-0.154,0.392-0.238c0.159-0.084,0.336-0.161,0.532-0.231s0.403-0.128,0.623-0.175
			c0.219-0.047,0.441-0.07,0.665-0.07c0.569,0,1.038,0.082,1.407,0.245c0.368,0.164,0.657,0.392,0.868,0.686
			c0.21,0.294,0.354,0.649,0.434,1.064c0.079,0.416,0.119,0.871,0.119,1.365v4.116h-1.694v-3.85c0-0.765-0.094-1.318-0.28-1.659
			s-0.546-0.511-1.077-0.511c-0.271,0-0.528,0.044-0.771,0.133c-0.243,0.089-0.425,0.175-0.546,0.259
			c0.074,0.233,0.126,0.481,0.154,0.742c0.027,0.262,0.042,0.542,0.042,0.84v4.046h-1.694V114.906z"/>
		<path opacity="0.6" fill="#FFFFFF" d="M40.899,111.252c0.561,0,1.031,0.07,1.414,0.21s0.688,0.336,0.917,0.588
			s0.393,0.558,0.49,0.917c0.098,0.359,0.147,0.754,0.147,1.183v4.438c-0.262,0.056-0.656,0.124-1.184,0.203
			s-1.122,0.119-1.785,0.119c-0.438,0-0.84-0.042-1.204-0.126c-0.363-0.084-0.674-0.219-0.931-0.406s-0.457-0.429-0.602-0.728
			c-0.146-0.299-0.218-0.667-0.218-1.106c0-0.42,0.082-0.775,0.245-1.064c0.163-0.29,0.386-0.525,0.665-0.707
			c0.28-0.182,0.604-0.313,0.974-0.392c0.368-0.079,0.753-0.119,1.154-0.119c0.187,0,0.383,0.012,0.588,0.035
			c0.206,0.023,0.425,0.063,0.658,0.119v-0.28c0-0.196-0.023-0.382-0.069-0.56c-0.047-0.177-0.129-0.333-0.245-0.469
			c-0.117-0.135-0.271-0.24-0.462-0.315c-0.191-0.075-0.433-0.112-0.722-0.112c-0.392,0-0.751,0.028-1.078,0.084
			c-0.326,0.056-0.593,0.122-0.798,0.196l-0.21-1.372c0.215-0.075,0.527-0.149,0.938-0.224
			C39.993,111.289,40.432,111.252,40.899,111.252z M41.039,117.566c0.522,0,0.919-0.028,1.189-0.084v-1.876
			c-0.093-0.028-0.229-0.056-0.405-0.084c-0.178-0.028-0.374-0.042-0.589-0.042c-0.187,0-0.375,0.014-0.566,0.042
			c-0.191,0.028-0.364,0.079-0.519,0.154c-0.153,0.075-0.277,0.18-0.371,0.315c-0.093,0.136-0.14,0.306-0.14,0.511
			c0,0.401,0.126,0.679,0.378,0.833C40.269,117.489,40.61,117.566,41.039,117.566z"/>
		<path opacity="0.6" fill="#FFFFFF" d="M47.409,109.292c0,0.317-0.103,0.569-0.308,0.756c-0.205,0.187-0.448,0.28-0.729,0.28
			c-0.289,0-0.536-0.093-0.741-0.28c-0.206-0.187-0.309-0.438-0.309-0.756c0-0.327,0.103-0.583,0.309-0.77
			c0.205-0.187,0.452-0.28,0.741-0.28c0.28,0,0.523,0.094,0.729,0.28S47.409,108.965,47.409,109.292z M47.228,118.756h-1.694v-7.322
			h1.694V118.756z"/>
		<path opacity="0.6" fill="#FFFFFF" d="M51.511,118.896c-0.504-0.01-0.922-0.065-1.253-0.168s-0.595-0.25-0.791-0.441
			c-0.196-0.191-0.334-0.429-0.413-0.714c-0.079-0.285-0.119-0.609-0.119-0.973v-8.428l1.694-0.28v8.386
			c0,0.206,0.016,0.378,0.049,0.518c0.032,0.14,0.091,0.259,0.175,0.357s0.198,0.173,0.343,0.224
			c0.146,0.051,0.329,0.091,0.554,0.119L51.511,118.896z"/>
		<path opacity="0.6" fill="#FFFFFF" d="M62.081,118.756c-0.131-0.383-0.267-0.761-0.407-1.134
			c-0.141-0.374-0.276-0.756-0.407-1.148h-4.098c-0.131,0.392-0.265,0.777-0.4,1.155s-0.269,0.754-0.399,1.127h-1.835
			c0.364-1.036,0.709-1.993,1.035-2.87c0.326-0.877,0.646-1.708,0.958-2.492c0.313-0.784,0.623-1.531,0.931-2.24
			c0.308-0.709,0.625-1.409,0.951-2.1h1.684c0.327,0.691,0.645,1.391,0.952,2.1c0.309,0.709,0.618,1.456,0.931,2.24
			c0.313,0.784,0.636,1.615,0.967,2.492c0.331,0.877,0.679,1.834,1.043,2.87H62.081z M59.218,110.93
			c-0.215,0.495-0.46,1.097-0.735,1.806c-0.275,0.709-0.562,1.479-0.86,2.31h3.191c-0.299-0.831-0.588-1.605-0.867-2.324
			C59.666,112.003,59.423,111.406,59.218,110.93z"/>
		<path opacity="0.6" fill="#FFFFFF" d="M70.691,118.532c-0.336,0.103-0.758,0.196-1.267,0.28s-1.043,0.126-1.603,0.126
			c-0.579,0-1.098-0.089-1.555-0.266s-0.847-0.432-1.169-0.763c-0.322-0.331-0.569-0.732-0.742-1.204s-0.259-1.001-0.259-1.589
			c0-0.579,0.072-1.104,0.217-1.575s0.357-0.875,0.638-1.211c0.279-0.336,0.62-0.595,1.021-0.777
			c0.401-0.182,0.863-0.273,1.386-0.273c0.355,0,0.668,0.042,0.938,0.126s0.504,0.178,0.7,0.28v-3.514l1.693-0.28V118.532z
			 M65.833,115.074c0,0.747,0.177,1.333,0.532,1.757c0.354,0.425,0.844,0.637,1.47,0.637c0.271,0,0.501-0.012,0.692-0.035
			c0.191-0.023,0.348-0.049,0.47-0.077v-4.2c-0.149-0.103-0.348-0.198-0.596-0.287c-0.247-0.088-0.511-0.133-0.791-0.133
			c-0.615,0-1.066,0.21-1.351,0.63C65.975,113.786,65.833,114.355,65.833,115.074z"/>
		<path opacity="0.6" fill="#FFFFFF" d="M78.615,118.532c-0.336,0.103-0.758,0.196-1.267,0.28s-1.043,0.126-1.603,0.126
			c-0.579,0-1.098-0.089-1.555-0.266s-0.847-0.432-1.169-0.763c-0.322-0.331-0.569-0.732-0.742-1.204s-0.259-1.001-0.259-1.589
			c0-0.579,0.072-1.104,0.217-1.575s0.357-0.875,0.638-1.211c0.279-0.336,0.62-0.595,1.021-0.777
			c0.401-0.182,0.863-0.273,1.386-0.273c0.355,0,0.668,0.042,0.938,0.126s0.504,0.178,0.7,0.28v-3.514l1.693-0.28V118.532z
			 M73.757,115.074c0,0.747,0.177,1.333,0.532,1.757c0.354,0.425,0.844,0.637,1.47,0.637c0.271,0,0.501-0.012,0.692-0.035
			c0.191-0.023,0.348-0.049,0.47-0.077v-4.2c-0.149-0.103-0.348-0.198-0.596-0.287c-0.247-0.088-0.511-0.133-0.791-0.133
			c-0.615,0-1.066,0.21-1.351,0.63C73.899,113.786,73.757,114.355,73.757,115.074z"/>
		<path opacity="0.6" fill="#FFFFFF" d="M84.523,112.96c-0.14-0.047-0.334-0.096-0.581-0.147s-0.534-0.077-0.861-0.077
			c-0.187,0-0.385,0.019-0.595,0.056s-0.356,0.07-0.44,0.098v5.866h-1.694v-6.972c0.326-0.121,0.735-0.235,1.225-0.343
			c0.49-0.107,1.034-0.161,1.631-0.161c0.112,0,0.243,0.007,0.393,0.021s0.299,0.033,0.448,0.056
			c0.148,0.023,0.294,0.051,0.434,0.084s0.252,0.063,0.336,0.091L84.523,112.96z"/>
		<path opacity="0.6" fill="#FFFFFF" d="M85.166,115.13c0-0.644,0.096-1.208,0.287-1.694s0.445-0.889,0.763-1.211
			c0.317-0.322,0.682-0.565,1.093-0.728c0.41-0.164,0.83-0.245,1.26-0.245c1.008,0,1.794,0.313,2.358,0.938
			c0.565,0.625,0.848,1.559,0.848,2.8c0,0.094-0.003,0.199-0.007,0.315c-0.005,0.117-0.013,0.222-0.021,0.315h-4.83
			c0.047,0.588,0.254,1.043,0.623,1.365s0.903,0.483,1.604,0.483c0.41,0,0.786-0.037,1.127-0.112
			c0.34-0.075,0.608-0.154,0.805-0.238l0.224,1.386c-0.093,0.047-0.222,0.096-0.385,0.147s-0.35,0.098-0.56,0.14
			s-0.437,0.077-0.68,0.105c-0.242,0.028-0.489,0.042-0.741,0.042c-0.645,0-1.204-0.096-1.681-0.287
			c-0.476-0.191-0.868-0.457-1.176-0.798s-0.537-0.742-0.686-1.204C85.241,116.187,85.166,115.681,85.166,115.13z M90.08,114.374
			c0-0.233-0.033-0.455-0.098-0.665c-0.065-0.21-0.161-0.392-0.287-0.546c-0.126-0.154-0.28-0.275-0.462-0.364
			c-0.183-0.088-0.399-0.133-0.651-0.133c-0.262,0-0.49,0.049-0.686,0.147c-0.196,0.098-0.362,0.226-0.497,0.385
			c-0.136,0.159-0.24,0.341-0.315,0.546c-0.074,0.206-0.126,0.416-0.154,0.63H90.08z"/>
		<path opacity="0.6" fill="#FFFFFF" d="M94.981,117.538c0.448,0,0.774-0.054,0.979-0.161c0.206-0.107,0.309-0.292,0.309-0.553
			c0-0.243-0.11-0.443-0.329-0.602c-0.22-0.158-0.581-0.331-1.085-0.518c-0.309-0.112-0.591-0.231-0.847-0.357
			c-0.257-0.126-0.479-0.273-0.665-0.441c-0.188-0.168-0.334-0.371-0.441-0.609s-0.161-0.53-0.161-0.875
			c0-0.672,0.247-1.202,0.742-1.589c0.494-0.387,1.167-0.581,2.016-0.581c0.43,0,0.84,0.04,1.232,0.119
			c0.392,0.079,0.686,0.156,0.882,0.231l-0.308,1.372c-0.188-0.084-0.425-0.161-0.714-0.231c-0.29-0.07-0.626-0.105-1.009-0.105
			c-0.345,0-0.625,0.059-0.84,0.175s-0.322,0.296-0.322,0.539c0,0.121,0.021,0.229,0.063,0.322s0.114,0.18,0.217,0.259
			c0.103,0.08,0.238,0.159,0.406,0.238c0.168,0.08,0.373,0.161,0.616,0.245c0.401,0.149,0.742,0.296,1.021,0.441
			c0.28,0.145,0.511,0.308,0.693,0.49c0.182,0.182,0.314,0.39,0.398,0.623c0.084,0.233,0.126,0.514,0.126,0.84
			c0,0.7-0.259,1.229-0.776,1.589c-0.519,0.359-1.258,0.539-2.219,0.539c-0.645,0-1.162-0.054-1.555-0.161
			c-0.392-0.107-0.667-0.193-0.826-0.259l0.294-1.414c0.253,0.103,0.554,0.201,0.903,0.294
			C94.134,117.491,94.533,117.538,94.981,117.538z"/>
		<path opacity="0.6" fill="#FFFFFF" d="M100.958,117.538c0.448,0,0.774-0.054,0.979-0.161c0.206-0.107,0.309-0.292,0.309-0.553
			c0-0.243-0.11-0.443-0.329-0.602c-0.22-0.158-0.581-0.331-1.085-0.518c-0.309-0.112-0.591-0.231-0.847-0.357
			c-0.257-0.126-0.479-0.273-0.665-0.441c-0.188-0.168-0.334-0.371-0.441-0.609s-0.161-0.53-0.161-0.875
			c0-0.672,0.247-1.202,0.742-1.589c0.494-0.387,1.167-0.581,2.016-0.581c0.43,0,0.84,0.04,1.232,0.119
			c0.392,0.079,0.686,0.156,0.882,0.231l-0.308,1.372c-0.188-0.084-0.425-0.161-0.714-0.231c-0.29-0.07-0.626-0.105-1.009-0.105
			c-0.345,0-0.625,0.059-0.84,0.175s-0.322,0.296-0.322,0.539c0,0.121,0.021,0.229,0.063,0.322s0.114,0.18,0.217,0.259
			c0.103,0.08,0.238,0.159,0.406,0.238c0.168,0.08,0.373,0.161,0.616,0.245c0.401,0.149,0.742,0.296,1.021,0.441
			c0.28,0.145,0.511,0.308,0.693,0.49c0.182,0.182,0.314,0.39,0.398,0.623c0.084,0.233,0.126,0.514,0.126,0.84
			c0,0.7-0.259,1.229-0.776,1.589c-0.519,0.359-1.258,0.539-2.219,0.539c-0.645,0-1.162-0.054-1.555-0.161
			c-0.392-0.107-0.667-0.193-0.826-0.259l0.294-1.414c0.253,0.103,0.554,0.201,0.903,0.294
			C100.112,117.491,100.51,117.538,100.958,117.538z"/>
	</g>
</g>
</svg>
