<?xml version="1.0" encoding="utf-8"?>
<!-- Generator: Adobe Illustrator 17.0.0, SVG Export Plug-In . SVG Version: 6.00 Build 0)  -->
<!DOCTYPE svg PUBLIC "-//W3C//DTD SVG 1.1//EN" "http://www.w3.org/Graphics/SVG/1.1/DTD/svg11.dtd">
<svg version="1.1" xmlns="http://www.w3.org/2000/svg" xmlns:xlink="http://www.w3.org/1999/xlink" x="0px" y="0px"
	 width="316.828px" height="235.134px" viewBox="0 0 316.828 235.134" enable-background="new 0 0 316.828 235.134"
	 xml:space="preserve">
<g id="Grid">
</g>
<g id="_x32_4_Grid_Col" display="none" opacity="0.1" enable-background="new    ">
</g>
<g id="Layer_3">
</g>
<g id="Layer_4">
</g>
<g id="Layer_5">
	<g>
		<rect x="0.5" y="0.5" fill="#057FED" stroke="#FFFFFF" stroke-miterlimit="10" width="315.828" height="34.037"/>
		<rect x="0.5" y="34.567" fill="#057FED" stroke="#FFFFFF" stroke-miterlimit="10" width="315.828" height="34.037"/>
		<rect x="0.5" y="67.773" fill="#057FED" stroke="#FFFFFF" stroke-miterlimit="10" width="315.828" height="34.037"/>
		<rect x="0.5" y="100.979" fill="#057FED" stroke="#FFFFFF" stroke-miterlimit="10" width="315.828" height="34.037"/>
		<rect x="0.5" y="134.185" fill="#057FED" stroke="#FFFFFF" stroke-miterlimit="10" width="315.828" height="34.037"/>
		<rect x="0.5" y="167.391" fill="#057FED" stroke="#FFFFFF" stroke-miterlimit="10" width="315.828" height="34.037"/>
		<rect x="0.5" y="200.597" fill="#057FED" stroke="#FFFFFF" stroke-miterlimit="10" width="315.828" height="34.037"/>
	</g>
	<g>
		<path opacity="0.6" fill="#FFFFFF" d="M32.075,22.12c-0.514,0-1.031-0.016-1.555-0.049s-0.98-0.1-1.371-0.203v-9.422
			c0.205-0.037,0.424-0.072,0.658-0.105c0.232-0.033,0.471-0.058,0.713-0.077c0.242-0.019,0.482-0.032,0.721-0.042
			c0.238-0.009,0.465-0.014,0.68-0.014c0.588,0,1.135,0.044,1.639,0.133c0.504,0.089,0.939,0.236,1.309,0.441
			c0.369,0.206,0.654,0.476,0.861,0.812c0.205,0.336,0.307,0.751,0.307,1.246c0,0.458-0.109,0.85-0.328,1.176
			c-0.219,0.327-0.525,0.588-0.918,0.784c0.588,0.196,1.023,0.485,1.303,0.868s0.42,0.868,0.42,1.456
			c0,0.999-0.363,1.748-1.092,2.247C34.693,21.87,33.577,22.12,32.075,22.12z M30.886,16.254h1.244c0.674,0,1.199-0.096,1.582-0.287
			s0.574-0.534,0.574-1.029c0-0.467-0.197-0.798-0.594-0.994s-0.912-0.294-1.547-0.294c-0.271,0-0.512,0.005-0.723,0.014
			c-0.209,0.01-0.389,0.023-0.537,0.042V16.254z M30.886,17.64v2.954c0.195,0.019,0.404,0.033,0.629,0.042s0.43,0.014,0.615,0.014
			c0.365,0,0.703-0.023,1.016-0.07c0.313-0.046,0.584-0.128,0.813-0.245s0.41-0.273,0.545-0.469
			c0.137-0.196,0.203-0.448,0.203-0.756c0-0.551-0.199-0.933-0.602-1.148c-0.4-0.215-0.957-0.322-1.666-0.322H30.886z"/>
		<path opacity="0.6" fill="#FFFFFF" d="M42.015,16.212c-0.139-0.047-0.334-0.096-0.58-0.147c-0.248-0.051-0.535-0.077-0.861-0.077
			c-0.188,0-0.385,0.019-0.596,0.056c-0.209,0.037-0.355,0.07-0.439,0.098v5.866h-1.695v-6.972c0.326-0.121,0.736-0.235,1.225-0.343
			c0.49-0.107,1.035-0.161,1.631-0.161c0.113,0,0.244,0.007,0.393,0.021c0.15,0.014,0.299,0.033,0.449,0.056
			c0.148,0.023,0.293,0.051,0.434,0.084c0.139,0.033,0.252,0.063,0.336,0.091L42.015,16.212z"/>
		<path opacity="0.6" fill="#FFFFFF" d="M45.501,14.504c0.561,0,1.031,0.07,1.414,0.21s0.688,0.336,0.916,0.588
			s0.393,0.558,0.49,0.917c0.098,0.359,0.148,0.754,0.148,1.183v4.438c-0.262,0.056-0.656,0.124-1.184,0.203
			s-1.123,0.119-1.785,0.119c-0.439,0-0.84-0.042-1.205-0.126c-0.363-0.084-0.674-0.219-0.93-0.406
			c-0.258-0.187-0.457-0.429-0.602-0.728c-0.146-0.299-0.219-0.667-0.219-1.106c0-0.42,0.082-0.775,0.246-1.064
			c0.162-0.29,0.385-0.525,0.664-0.707c0.281-0.182,0.605-0.313,0.975-0.392c0.367-0.079,0.752-0.119,1.154-0.119
			c0.186,0,0.383,0.012,0.588,0.035s0.424,0.063,0.658,0.119v-0.28c0-0.196-0.023-0.382-0.07-0.56
			c-0.047-0.177-0.129-0.333-0.244-0.469c-0.117-0.135-0.271-0.24-0.463-0.315s-0.432-0.112-0.721-0.112
			c-0.393,0-0.752,0.028-1.078,0.084c-0.326,0.056-0.594,0.122-0.799,0.196l-0.209-1.372c0.215-0.075,0.527-0.149,0.938-0.224
			S45.034,14.504,45.501,14.504z M45.642,20.818c0.521,0,0.918-0.028,1.189-0.084v-1.876c-0.094-0.028-0.229-0.056-0.406-0.084
			c-0.178-0.028-0.373-0.042-0.588-0.042c-0.188,0-0.375,0.014-0.566,0.042c-0.191,0.028-0.365,0.079-0.52,0.154
			c-0.152,0.075-0.277,0.18-0.371,0.315c-0.092,0.136-0.139,0.306-0.139,0.511c0,0.401,0.125,0.679,0.377,0.833
			C44.87,20.741,45.212,20.818,45.642,20.818z"/>
		<path opacity="0.6" fill="#FFFFFF" d="M50.12,14.924c0.326-0.093,0.752-0.182,1.273-0.266c0.523-0.084,1.102-0.126,1.736-0.126
			c0.598,0,1.098,0.082,1.498,0.245c0.402,0.164,0.721,0.392,0.959,0.686s0.406,0.649,0.504,1.064
			c0.1,0.416,0.148,0.871,0.148,1.365v4.116h-1.695v-3.85c0-0.392-0.025-0.726-0.076-1.001c-0.051-0.275-0.135-0.499-0.252-0.672
			s-0.275-0.299-0.477-0.378s-0.445-0.119-0.734-0.119c-0.215,0-0.439,0.014-0.672,0.042c-0.234,0.028-0.406,0.051-0.518,0.07v5.908
			H50.12V14.924z"/>
		<path opacity="0.6" fill="#FFFFFF" d="M57.485,18.354c0-0.542,0.084-1.048,0.252-1.519s0.408-0.88,0.721-1.225
			s0.693-0.616,1.141-0.812c0.449-0.196,0.953-0.294,1.512-0.294c0.691,0,1.344,0.126,1.961,0.378l-0.365,1.386
			c-0.195-0.084-0.416-0.154-0.664-0.21c-0.248-0.056-0.512-0.084-0.791-0.084c-0.662,0-1.166,0.208-1.512,0.623
			c-0.346,0.416-0.518,1.001-0.518,1.757c0,0.728,0.162,1.304,0.49,1.729c0.326,0.425,0.877,0.637,1.65,0.637
			c0.289,0,0.574-0.028,0.855-0.084c0.279-0.056,0.521-0.126,0.727-0.21l0.238,1.4c-0.186,0.094-0.469,0.178-0.846,0.252
			c-0.379,0.075-0.77,0.112-1.17,0.112c-0.625,0-1.17-0.096-1.631-0.287c-0.463-0.191-0.846-0.457-1.148-0.798
			s-0.529-0.747-0.678-1.218C57.56,19.416,57.485,18.905,57.485,18.354z"/>
		<path opacity="0.6" fill="#FFFFFF" d="M64.079,22.008V11.424l1.693-0.28v3.626c0.188-0.065,0.404-0.122,0.65-0.168
			c0.248-0.047,0.492-0.07,0.736-0.07c0.586,0,1.074,0.082,1.461,0.245c0.387,0.164,0.697,0.392,0.932,0.686
			c0.232,0.294,0.398,0.646,0.496,1.057c0.1,0.411,0.148,0.868,0.148,1.372v4.116h-1.695v-3.85c0-0.392-0.025-0.726-0.076-1.001
			c-0.051-0.275-0.135-0.499-0.252-0.672s-0.273-0.299-0.469-0.378c-0.197-0.079-0.438-0.119-0.729-0.119
			c-0.223,0-0.451,0.023-0.686,0.07c-0.232,0.047-0.406,0.089-0.518,0.126v5.824H64.079z"/>
	</g>
	<g>
		<path opacity="0.6" fill="#FFFFFF" d="M32.074,54.953c-0.514,0-1.031-0.016-1.554-0.049c-0.523-0.033-0.98-0.1-1.372-0.203V45.28
			c0.205-0.037,0.425-0.072,0.658-0.105c0.232-0.033,0.471-0.058,0.714-0.077c0.242-0.019,0.482-0.032,0.721-0.042
			c0.238-0.009,0.464-0.014,0.679-0.014c0.589,0,1.135,0.044,1.639,0.133c0.504,0.089,0.939,0.236,1.309,0.441
			c0.369,0.206,0.655,0.476,0.861,0.812c0.205,0.336,0.308,0.751,0.308,1.246c0,0.458-0.109,0.85-0.329,1.176
			c-0.219,0.327-0.524,0.588-0.917,0.784c0.588,0.196,1.022,0.485,1.303,0.868c0.279,0.383,0.42,0.868,0.42,1.456
			c0,0.999-0.364,1.748-1.093,2.247C34.693,54.704,33.577,54.953,32.074,54.953z M30.885,49.088h1.245
			c0.673,0,1.199-0.096,1.582-0.287s0.574-0.534,0.574-1.029c0-0.467-0.198-0.798-0.595-0.994s-0.912-0.294-1.547-0.294
			c-0.271,0-0.511,0.005-0.722,0.014c-0.21,0.01-0.39,0.023-0.538,0.042V49.088z M30.885,50.473v2.954
			c0.195,0.019,0.405,0.033,0.63,0.042c0.224,0.009,0.429,0.014,0.615,0.014c0.364,0,0.702-0.023,1.016-0.07
			c0.313-0.046,0.583-0.128,0.812-0.245s0.411-0.273,0.546-0.469c0.136-0.196,0.203-0.448,0.203-0.756
			c0-0.551-0.2-0.933-0.602-1.148s-0.957-0.322-1.666-0.322H30.885z"/>
		<path opacity="0.6" fill="#FFFFFF" d="M42.015,49.046c-0.14-0.047-0.334-0.096-0.581-0.147s-0.534-0.077-0.861-0.077
			c-0.187,0-0.385,0.019-0.595,0.056s-0.356,0.07-0.44,0.098v5.866h-1.694v-6.972c0.326-0.121,0.735-0.235,1.225-0.343
			c0.49-0.107,1.034-0.161,1.631-0.161c0.112,0,0.243,0.007,0.393,0.021s0.299,0.033,0.448,0.056
			c0.148,0.023,0.294,0.051,0.434,0.084s0.252,0.063,0.336,0.091L42.015,49.046z"/>
		<path opacity="0.6" fill="#FFFFFF" d="M45.5,47.338c0.561,0,1.031,0.07,1.414,0.21s0.688,0.336,0.917,0.588
			s0.393,0.558,0.49,0.917c0.098,0.359,0.147,0.754,0.147,1.183v4.438c-0.262,0.056-0.656,0.124-1.184,0.203
			s-1.122,0.119-1.785,0.119c-0.438,0-0.84-0.042-1.204-0.126c-0.363-0.084-0.674-0.219-0.931-0.406s-0.457-0.429-0.602-0.728
			c-0.146-0.299-0.218-0.667-0.218-1.106c0-0.42,0.082-0.775,0.245-1.064c0.163-0.29,0.386-0.525,0.665-0.707
			c0.28-0.182,0.604-0.313,0.974-0.392c0.368-0.079,0.753-0.119,1.154-0.119c0.187,0,0.383,0.012,0.588,0.035
			c0.206,0.023,0.425,0.063,0.658,0.119v-0.28c0-0.196-0.023-0.382-0.069-0.56c-0.047-0.177-0.129-0.333-0.245-0.469
			c-0.117-0.135-0.271-0.24-0.462-0.315c-0.191-0.075-0.433-0.112-0.722-0.112c-0.392,0-0.751,0.028-1.078,0.084
			c-0.326,0.056-0.593,0.122-0.798,0.196l-0.21-1.372c0.215-0.075,0.527-0.149,0.938-0.224C44.595,47.375,45.033,47.338,45.5,47.338
			z M45.641,53.652c0.522,0,0.919-0.028,1.189-0.084v-1.876c-0.093-0.028-0.229-0.056-0.405-0.084
			c-0.178-0.028-0.374-0.042-0.589-0.042c-0.187,0-0.375,0.014-0.566,0.042c-0.191,0.028-0.364,0.079-0.519,0.154
			c-0.153,0.075-0.277,0.18-0.371,0.315c-0.093,0.136-0.14,0.306-0.14,0.511c0,0.401,0.126,0.679,0.378,0.833
			C44.87,53.575,45.211,53.652,45.641,53.652z"/>
		<path opacity="0.6" fill="#FFFFFF" d="M50.12,47.758c0.326-0.093,0.751-0.182,1.273-0.266c0.523-0.084,1.102-0.126,1.736-0.126
			c0.598,0,1.097,0.082,1.498,0.245c0.401,0.164,0.721,0.392,0.959,0.686s0.406,0.649,0.504,1.064
			c0.099,0.416,0.147,0.871,0.147,1.365v4.116h-1.694v-3.85c0-0.392-0.025-0.726-0.077-1.001c-0.051-0.275-0.135-0.499-0.252-0.672
			c-0.116-0.173-0.275-0.299-0.476-0.378c-0.201-0.079-0.446-0.119-0.735-0.119c-0.215,0-0.438,0.014-0.672,0.042
			s-0.406,0.051-0.518,0.07v5.908H50.12V47.758z"/>
		<path opacity="0.6" fill="#FFFFFF" d="M57.484,51.188c0-0.542,0.084-1.048,0.252-1.519s0.408-0.88,0.721-1.225
			c0.313-0.345,0.693-0.616,1.142-0.812s0.952-0.294,1.512-0.294c0.69,0,1.344,0.126,1.96,0.378l-0.364,1.386
			c-0.195-0.084-0.417-0.154-0.665-0.21c-0.247-0.056-0.511-0.084-0.79-0.084c-0.663,0-1.167,0.208-1.513,0.623
			c-0.345,0.416-0.518,1.001-0.518,1.757c0,0.728,0.163,1.304,0.49,1.729c0.326,0.425,0.877,0.637,1.651,0.637
			c0.289,0,0.574-0.028,0.854-0.084c0.279-0.056,0.522-0.126,0.728-0.21l0.238,1.4c-0.187,0.094-0.469,0.178-0.847,0.252
			c-0.379,0.075-0.769,0.112-1.17,0.112c-0.625,0-1.169-0.096-1.631-0.287s-0.845-0.457-1.147-0.798
			c-0.304-0.341-0.53-0.747-0.679-1.218C57.56,52.249,57.484,51.739,57.484,51.188z"/>
		<path opacity="0.6" fill="#FFFFFF" d="M64.078,54.842V44.258l1.694-0.28v3.626c0.187-0.065,0.403-0.122,0.65-0.168
			c0.247-0.047,0.492-0.07,0.735-0.07c0.587,0,1.074,0.082,1.462,0.245c0.387,0.164,0.697,0.392,0.931,0.686
			s0.399,0.646,0.497,1.057c0.099,0.411,0.147,0.868,0.147,1.372v4.116h-1.694v-3.85c0-0.392-0.025-0.726-0.077-1.001
			c-0.051-0.275-0.135-0.499-0.252-0.672c-0.116-0.173-0.272-0.299-0.469-0.378s-0.438-0.119-0.728-0.119
			c-0.224,0-0.452,0.023-0.686,0.07c-0.233,0.047-0.406,0.089-0.518,0.126v5.824H64.078z"/>
	</g>
	<g>
		<path opacity="0.6" fill="#FFFFFF" d="M32.074,87.787c-0.514,0-1.031-0.017-1.554-0.049c-0.523-0.033-0.98-0.101-1.372-0.203
			v-9.422c0.205-0.037,0.425-0.072,0.658-0.105c0.232-0.032,0.471-0.058,0.714-0.077c0.242-0.019,0.482-0.032,0.721-0.042
			c0.238-0.009,0.464-0.014,0.679-0.014c0.589,0,1.135,0.045,1.639,0.133c0.504,0.089,0.939,0.236,1.309,0.441
			s0.655,0.476,0.861,0.812c0.205,0.336,0.308,0.752,0.308,1.246c0,0.458-0.109,0.85-0.329,1.176
			c-0.219,0.327-0.524,0.589-0.917,0.784c0.588,0.196,1.022,0.485,1.303,0.868c0.279,0.383,0.42,0.868,0.42,1.456
			c0,0.999-0.364,1.748-1.093,2.247C34.693,87.537,33.577,87.787,32.074,87.787z M30.885,81.921h1.245
			c0.673,0,1.199-0.096,1.582-0.287s0.574-0.534,0.574-1.028c0-0.467-0.198-0.799-0.595-0.994c-0.396-0.196-0.912-0.294-1.547-0.294
			c-0.271,0-0.511,0.005-0.722,0.014c-0.21,0.01-0.39,0.023-0.538,0.042V81.921z M30.885,83.306v2.954
			c0.195,0.02,0.405,0.033,0.63,0.042c0.224,0.01,0.429,0.015,0.615,0.015c0.364,0,0.702-0.023,1.016-0.07
			c0.313-0.047,0.583-0.128,0.812-0.245c0.229-0.116,0.411-0.272,0.546-0.469c0.136-0.196,0.203-0.448,0.203-0.756
			c0-0.551-0.2-0.934-0.602-1.148s-0.957-0.322-1.666-0.322H30.885z"/>
		<path opacity="0.6" fill="#FFFFFF" d="M42.015,81.879c-0.14-0.047-0.334-0.096-0.581-0.146c-0.247-0.052-0.534-0.077-0.861-0.077
			c-0.187,0-0.385,0.019-0.595,0.056s-0.356,0.07-0.44,0.098v5.866h-1.694v-6.972c0.326-0.121,0.735-0.235,1.225-0.343
			c0.49-0.107,1.034-0.161,1.631-0.161c0.112,0,0.243,0.007,0.393,0.021c0.149,0.015,0.299,0.033,0.448,0.057
			c0.148,0.023,0.294,0.051,0.434,0.084c0.14,0.032,0.252,0.063,0.336,0.091L42.015,81.879z"/>
		<path opacity="0.6" fill="#FFFFFF" d="M45.5,80.171c0.561,0,1.031,0.07,1.414,0.21c0.383,0.141,0.688,0.336,0.917,0.588
			s0.393,0.559,0.49,0.917c0.098,0.359,0.147,0.754,0.147,1.184v4.438c-0.262,0.057-0.656,0.124-1.184,0.203
			s-1.122,0.119-1.785,0.119c-0.438,0-0.84-0.042-1.204-0.126c-0.363-0.084-0.674-0.22-0.931-0.406s-0.457-0.429-0.602-0.728
			c-0.146-0.299-0.218-0.667-0.218-1.106c0-0.42,0.082-0.774,0.245-1.063c0.163-0.29,0.386-0.525,0.665-0.707
			c0.28-0.183,0.604-0.313,0.974-0.393c0.368-0.079,0.753-0.119,1.154-0.119c0.187,0,0.383,0.012,0.588,0.035
			c0.206,0.023,0.425,0.063,0.658,0.119v-0.28c0-0.195-0.023-0.382-0.069-0.56c-0.047-0.178-0.129-0.334-0.245-0.469
			c-0.117-0.136-0.271-0.24-0.462-0.315c-0.191-0.074-0.433-0.112-0.722-0.112c-0.392,0-0.751,0.028-1.078,0.084
			c-0.326,0.057-0.593,0.122-0.798,0.196l-0.21-1.372c0.215-0.074,0.527-0.149,0.938-0.224C44.595,80.208,45.033,80.171,45.5,80.171
			z M45.641,86.485c0.522,0,0.919-0.028,1.189-0.084v-1.876c-0.093-0.028-0.229-0.057-0.405-0.084
			c-0.178-0.028-0.374-0.042-0.589-0.042c-0.187,0-0.375,0.014-0.566,0.042c-0.191,0.027-0.364,0.079-0.519,0.153
			c-0.153,0.075-0.277,0.18-0.371,0.315c-0.093,0.136-0.14,0.306-0.14,0.511c0,0.401,0.126,0.679,0.378,0.833
			S45.211,86.485,45.641,86.485z"/>
		<path opacity="0.6" fill="#FFFFFF" d="M50.12,80.591c0.326-0.093,0.751-0.182,1.273-0.266c0.523-0.084,1.102-0.126,1.736-0.126
			c0.598,0,1.097,0.082,1.498,0.245s0.721,0.392,0.959,0.686s0.406,0.649,0.504,1.064c0.099,0.415,0.147,0.87,0.147,1.364v4.116
			h-1.694v-3.85c0-0.393-0.025-0.726-0.077-1.001c-0.051-0.275-0.135-0.499-0.252-0.672c-0.116-0.173-0.275-0.299-0.476-0.378
			c-0.201-0.079-0.446-0.119-0.735-0.119c-0.215,0-0.438,0.014-0.672,0.042c-0.233,0.027-0.406,0.051-0.518,0.069v5.908H50.12
			V80.591z"/>
		<path opacity="0.6" fill="#FFFFFF" d="M57.484,84.021c0-0.542,0.084-1.048,0.252-1.52c0.168-0.471,0.408-0.88,0.721-1.225
			c0.313-0.346,0.693-0.616,1.142-0.813c0.448-0.195,0.952-0.294,1.512-0.294c0.69,0,1.344,0.126,1.96,0.378l-0.364,1.386
			c-0.195-0.084-0.417-0.153-0.665-0.21c-0.247-0.056-0.511-0.084-0.79-0.084c-0.663,0-1.167,0.208-1.513,0.623
			c-0.345,0.416-0.518,1.001-0.518,1.758c0,0.728,0.163,1.304,0.49,1.729c0.326,0.425,0.877,0.637,1.651,0.637
			c0.289,0,0.574-0.027,0.854-0.084c0.279-0.056,0.522-0.126,0.728-0.21l0.238,1.4c-0.187,0.094-0.469,0.178-0.847,0.252
			c-0.379,0.074-0.769,0.112-1.17,0.112c-0.625,0-1.169-0.096-1.631-0.287s-0.845-0.457-1.147-0.798
			c-0.304-0.341-0.53-0.747-0.679-1.219C57.56,85.083,57.484,84.572,57.484,84.021z"/>
		<path opacity="0.6" fill="#FFFFFF" d="M64.078,87.675V77.091l1.694-0.279v3.626c0.187-0.065,0.403-0.122,0.65-0.168
			c0.247-0.047,0.492-0.07,0.735-0.07c0.587,0,1.074,0.082,1.462,0.245c0.387,0.163,0.697,0.392,0.931,0.686
			s0.399,0.646,0.497,1.058c0.099,0.41,0.147,0.867,0.147,1.371v4.116h-1.694v-3.85c0-0.393-0.025-0.726-0.077-1.001
			c-0.051-0.275-0.135-0.499-0.252-0.672c-0.116-0.173-0.272-0.299-0.469-0.378s-0.438-0.119-0.728-0.119
			c-0.224,0-0.452,0.023-0.686,0.069c-0.233,0.047-0.406,0.089-0.518,0.126v5.824H64.078z"/>
	</g>
	<g>
		<path opacity="0.6" fill="#FFFFFF" d="M32.074,120.62c-0.514,0-1.031-0.016-1.554-0.049c-0.523-0.033-0.98-0.1-1.372-0.203v-9.422
			c0.205-0.037,0.425-0.072,0.658-0.105c0.232-0.033,0.471-0.058,0.714-0.077c0.242-0.019,0.482-0.032,0.721-0.042
			c0.238-0.009,0.464-0.014,0.679-0.014c0.589,0,1.135,0.044,1.639,0.133c0.504,0.089,0.939,0.236,1.309,0.441
			c0.369,0.206,0.655,0.476,0.861,0.812c0.205,0.336,0.308,0.751,0.308,1.246c0,0.458-0.109,0.85-0.329,1.176
			c-0.219,0.327-0.524,0.588-0.917,0.784c0.588,0.196,1.022,0.485,1.303,0.868c0.279,0.383,0.42,0.868,0.42,1.456
			c0,0.999-0.364,1.748-1.093,2.247C34.693,120.37,33.577,120.62,32.074,120.62z M30.885,114.754h1.245
			c0.673,0,1.199-0.096,1.582-0.287s0.574-0.534,0.574-1.029c0-0.467-0.198-0.798-0.595-0.994s-0.912-0.294-1.547-0.294
			c-0.271,0-0.511,0.005-0.722,0.014c-0.21,0.01-0.39,0.023-0.538,0.042V114.754z M30.885,116.14v2.954
			c0.195,0.019,0.405,0.033,0.63,0.042c0.224,0.009,0.429,0.014,0.615,0.014c0.364,0,0.702-0.023,1.016-0.07
			c0.313-0.046,0.583-0.128,0.812-0.245s0.411-0.273,0.546-0.469c0.136-0.196,0.203-0.448,0.203-0.756
			c0-0.551-0.2-0.933-0.602-1.148s-0.957-0.322-1.666-0.322H30.885z"/>
		<path opacity="0.6" fill="#FFFFFF" d="M42.015,114.712c-0.14-0.047-0.334-0.096-0.581-0.147s-0.534-0.077-0.861-0.077
			c-0.187,0-0.385,0.019-0.595,0.056s-0.356,0.07-0.44,0.098v5.866h-1.694v-6.972c0.326-0.121,0.735-0.235,1.225-0.343
			c0.49-0.107,1.034-0.161,1.631-0.161c0.112,0,0.243,0.007,0.393,0.021s0.299,0.033,0.448,0.056
			c0.148,0.023,0.294,0.051,0.434,0.084s0.252,0.063,0.336,0.091L42.015,114.712z"/>
		<path opacity="0.6" fill="#FFFFFF" d="M45.5,113.004c0.561,0,1.031,0.07,1.414,0.21s0.688,0.336,0.917,0.588
			s0.393,0.558,0.49,0.917c0.098,0.359,0.147,0.754,0.147,1.183v4.438c-0.262,0.056-0.656,0.124-1.184,0.203
			s-1.122,0.119-1.785,0.119c-0.438,0-0.84-0.042-1.204-0.126c-0.363-0.084-0.674-0.219-0.931-0.406s-0.457-0.429-0.602-0.728
			c-0.146-0.299-0.218-0.667-0.218-1.106c0-0.42,0.082-0.775,0.245-1.064c0.163-0.29,0.386-0.525,0.665-0.707
			c0.28-0.182,0.604-0.313,0.974-0.392c0.368-0.079,0.753-0.119,1.154-0.119c0.187,0,0.383,0.012,0.588,0.035
			c0.206,0.023,0.425,0.063,0.658,0.119v-0.28c0-0.196-0.023-0.382-0.069-0.56c-0.047-0.177-0.129-0.333-0.245-0.469
			c-0.117-0.135-0.271-0.24-0.462-0.315c-0.191-0.075-0.433-0.112-0.722-0.112c-0.392,0-0.751,0.028-1.078,0.084
			c-0.326,0.056-0.593,0.122-0.798,0.196l-0.21-1.372c0.215-0.075,0.527-0.149,0.938-0.224
			C44.595,113.041,45.033,113.004,45.5,113.004z M45.641,119.318c0.522,0,0.919-0.028,1.189-0.084v-1.876
			c-0.093-0.028-0.229-0.056-0.405-0.084c-0.178-0.028-0.374-0.042-0.589-0.042c-0.187,0-0.375,0.014-0.566,0.042
			c-0.191,0.028-0.364,0.079-0.519,0.154c-0.153,0.075-0.277,0.18-0.371,0.315c-0.093,0.136-0.14,0.306-0.14,0.511
			c0,0.401,0.126,0.679,0.378,0.833C44.87,119.241,45.211,119.318,45.641,119.318z"/>
		<path opacity="0.6" fill="#FFFFFF" d="M50.12,113.424c0.326-0.093,0.751-0.182,1.273-0.266c0.523-0.084,1.102-0.126,1.736-0.126
			c0.598,0,1.097,0.082,1.498,0.245c0.401,0.164,0.721,0.392,0.959,0.686s0.406,0.649,0.504,1.064
			c0.099,0.416,0.147,0.871,0.147,1.365v4.116h-1.694v-3.85c0-0.392-0.025-0.726-0.077-1.001c-0.051-0.275-0.135-0.499-0.252-0.672
			c-0.116-0.173-0.275-0.299-0.476-0.378c-0.201-0.079-0.446-0.119-0.735-0.119c-0.215,0-0.438,0.014-0.672,0.042
			s-0.406,0.051-0.518,0.07v5.908H50.12V113.424z"/>
		<path opacity="0.6" fill="#FFFFFF" d="M57.484,116.854c0-0.542,0.084-1.048,0.252-1.519s0.408-0.88,0.721-1.225
			c0.313-0.345,0.693-0.616,1.142-0.812s0.952-0.294,1.512-0.294c0.69,0,1.344,0.126,1.96,0.378l-0.364,1.386
			c-0.195-0.084-0.417-0.154-0.665-0.21c-0.247-0.056-0.511-0.084-0.79-0.084c-0.663,0-1.167,0.208-1.513,0.623
			c-0.345,0.416-0.518,1.001-0.518,1.757c0,0.728,0.163,1.304,0.49,1.729c0.326,0.425,0.877,0.637,1.651,0.637
			c0.289,0,0.574-0.028,0.854-0.084c0.279-0.056,0.522-0.126,0.728-0.21l0.238,1.4c-0.187,0.094-0.469,0.178-0.847,0.252
			c-0.379,0.075-0.769,0.112-1.17,0.112c-0.625,0-1.169-0.096-1.631-0.287s-0.845-0.457-1.147-0.798
			c-0.304-0.341-0.53-0.747-0.679-1.218C57.56,117.916,57.484,117.405,57.484,116.854z"/>
		<path opacity="0.6" fill="#FFFFFF" d="M64.078,120.508v-10.584l1.694-0.28v3.626c0.187-0.065,0.403-0.122,0.65-0.168
			c0.247-0.047,0.492-0.07,0.735-0.07c0.587,0,1.074,0.082,1.462,0.245c0.387,0.164,0.697,0.392,0.931,0.686
			s0.399,0.646,0.497,1.057c0.099,0.411,0.147,0.868,0.147,1.372v4.116h-1.694v-3.85c0-0.392-0.025-0.726-0.077-1.001
			c-0.051-0.275-0.135-0.499-0.252-0.672c-0.116-0.173-0.272-0.299-0.469-0.378s-0.438-0.119-0.728-0.119
			c-0.224,0-0.452,0.023-0.686,0.07c-0.233,0.047-0.406,0.089-0.518,0.126v5.824H64.078z"/>
	</g>
	<g>
		<path opacity="0.6" fill="#FFFFFF" d="M32.074,153.453c-0.514,0-1.031-0.016-1.554-0.049c-0.523-0.033-0.98-0.1-1.372-0.203
			v-9.422c0.205-0.037,0.425-0.072,0.658-0.105c0.232-0.033,0.471-0.058,0.714-0.077c0.242-0.019,0.482-0.032,0.721-0.042
			c0.238-0.009,0.464-0.014,0.679-0.014c0.589,0,1.135,0.044,1.639,0.133c0.504,0.089,0.939,0.236,1.309,0.441
			c0.369,0.206,0.655,0.476,0.861,0.812c0.205,0.336,0.308,0.751,0.308,1.246c0,0.458-0.109,0.85-0.329,1.176
			c-0.219,0.327-0.524,0.588-0.917,0.784c0.588,0.196,1.022,0.485,1.303,0.868c0.279,0.383,0.42,0.868,0.42,1.456
			c0,0.999-0.364,1.748-1.093,2.247C34.693,153.204,33.577,153.453,32.074,153.453z M30.885,147.588h1.245
			c0.673,0,1.199-0.096,1.582-0.287s0.574-0.534,0.574-1.029c0-0.467-0.198-0.798-0.595-0.994s-0.912-0.294-1.547-0.294
			c-0.271,0-0.511,0.005-0.722,0.014c-0.21,0.01-0.39,0.023-0.538,0.042V147.588z M30.885,148.973v2.954
			c0.195,0.019,0.405,0.033,0.63,0.042c0.224,0.009,0.429,0.014,0.615,0.014c0.364,0,0.702-0.023,1.016-0.07
			c0.313-0.046,0.583-0.128,0.812-0.245s0.411-0.273,0.546-0.469c0.136-0.196,0.203-0.448,0.203-0.756
			c0-0.551-0.2-0.933-0.602-1.148s-0.957-0.322-1.666-0.322H30.885z"/>
		<path opacity="0.6" fill="#FFFFFF" d="M42.015,147.546c-0.14-0.047-0.334-0.096-0.581-0.147s-0.534-0.077-0.861-0.077
			c-0.187,0-0.385,0.019-0.595,0.056s-0.356,0.07-0.44,0.098v5.866h-1.694v-6.972c0.326-0.121,0.735-0.235,1.225-0.343
			c0.49-0.107,1.034-0.161,1.631-0.161c0.112,0,0.243,0.007,0.393,0.021s0.299,0.033,0.448,0.056
			c0.148,0.023,0.294,0.051,0.434,0.084s0.252,0.063,0.336,0.091L42.015,147.546z"/>
		<path opacity="0.6" fill="#FFFFFF" d="M45.5,145.838c0.561,0,1.031,0.07,1.414,0.21s0.688,0.336,0.917,0.588
			s0.393,0.558,0.49,0.917c0.098,0.359,0.147,0.754,0.147,1.183v4.438c-0.262,0.056-0.656,0.124-1.184,0.203
			s-1.122,0.119-1.785,0.119c-0.438,0-0.84-0.042-1.204-0.126c-0.363-0.084-0.674-0.219-0.931-0.406s-0.457-0.429-0.602-0.728
			c-0.146-0.299-0.218-0.667-0.218-1.106c0-0.42,0.082-0.775,0.245-1.064c0.163-0.29,0.386-0.525,0.665-0.707
			c0.28-0.182,0.604-0.313,0.974-0.392c0.368-0.079,0.753-0.119,1.154-0.119c0.187,0,0.383,0.012,0.588,0.035
			c0.206,0.023,0.425,0.063,0.658,0.119v-0.28c0-0.196-0.023-0.382-0.069-0.56c-0.047-0.177-0.129-0.333-0.245-0.469
			c-0.117-0.135-0.271-0.24-0.462-0.315c-0.191-0.075-0.433-0.112-0.722-0.112c-0.392,0-0.751,0.028-1.078,0.084
			c-0.326,0.056-0.593,0.122-0.798,0.196l-0.21-1.372c0.215-0.075,0.527-0.149,0.938-0.224
			C44.595,145.875,45.033,145.838,45.5,145.838z M45.641,152.152c0.522,0,0.919-0.028,1.189-0.084v-1.876
			c-0.093-0.028-0.229-0.056-0.405-0.084c-0.178-0.028-0.374-0.042-0.589-0.042c-0.187,0-0.375,0.014-0.566,0.042
			c-0.191,0.028-0.364,0.079-0.519,0.154c-0.153,0.075-0.277,0.18-0.371,0.315c-0.093,0.136-0.14,0.306-0.14,0.511
			c0,0.401,0.126,0.679,0.378,0.833C44.87,152.075,45.211,152.152,45.641,152.152z"/>
		<path opacity="0.6" fill="#FFFFFF" d="M50.12,146.258c0.326-0.093,0.751-0.182,1.273-0.266c0.523-0.084,1.102-0.126,1.736-0.126
			c0.598,0,1.097,0.082,1.498,0.245c0.401,0.164,0.721,0.392,0.959,0.686s0.406,0.649,0.504,1.064
			c0.099,0.416,0.147,0.871,0.147,1.365v4.116h-1.694v-3.85c0-0.392-0.025-0.726-0.077-1.001c-0.051-0.275-0.135-0.499-0.252-0.672
			c-0.116-0.173-0.275-0.299-0.476-0.378c-0.201-0.079-0.446-0.119-0.735-0.119c-0.215,0-0.438,0.014-0.672,0.042
			s-0.406,0.051-0.518,0.07v5.908H50.12V146.258z"/>
		<path opacity="0.6" fill="#FFFFFF" d="M57.484,149.688c0-0.542,0.084-1.048,0.252-1.519s0.408-0.88,0.721-1.225
			c0.313-0.345,0.693-0.616,1.142-0.812s0.952-0.294,1.512-0.294c0.69,0,1.344,0.126,1.96,0.378l-0.364,1.386
			c-0.195-0.084-0.417-0.154-0.665-0.21c-0.247-0.056-0.511-0.084-0.79-0.084c-0.663,0-1.167,0.208-1.513,0.623
			c-0.345,0.416-0.518,1.001-0.518,1.757c0,0.728,0.163,1.304,0.49,1.729c0.326,0.425,0.877,0.637,1.651,0.637
			c0.289,0,0.574-0.028,0.854-0.084c0.279-0.056,0.522-0.126,0.728-0.21l0.238,1.4c-0.187,0.094-0.469,0.178-0.847,0.252
			c-0.379,0.075-0.769,0.112-1.17,0.112c-0.625,0-1.169-0.096-1.631-0.287s-0.845-0.457-1.147-0.798
			c-0.304-0.341-0.53-0.747-0.679-1.218C57.56,150.749,57.484,150.239,57.484,149.688z"/>
		<path opacity="0.6" fill="#FFFFFF" d="M64.078,153.342v-10.584l1.694-0.28v3.626c0.187-0.065,0.403-0.122,0.65-0.168
			c0.247-0.047,0.492-0.07,0.735-0.07c0.587,0,1.074,0.082,1.462,0.245c0.387,0.164,0.697,0.392,0.931,0.686
			s0.399,0.646,0.497,1.057c0.099,0.411,0.147,0.868,0.147,1.372v4.116h-1.694v-3.85c0-0.392-0.025-0.726-0.077-1.001
			c-0.051-0.275-0.135-0.499-0.252-0.672c-0.116-0.173-0.272-0.299-0.469-0.378s-0.438-0.119-0.728-0.119
			c-0.224,0-0.452,0.023-0.686,0.07c-0.233,0.047-0.406,0.089-0.518,0.126v5.824H64.078z"/>
	</g>
	<g>
		<path opacity="0.6" fill="#FFFFFF" d="M32.074,186.286c-0.514,0-1.031-0.016-1.554-0.049c-0.523-0.033-0.98-0.1-1.372-0.203
			v-9.422c0.205-0.037,0.425-0.072,0.658-0.105c0.232-0.033,0.471-0.058,0.714-0.077c0.242-0.019,0.482-0.032,0.721-0.042
			c0.238-0.009,0.464-0.014,0.679-0.014c0.589,0,1.135,0.044,1.639,0.133c0.504,0.089,0.939,0.236,1.309,0.441
			c0.369,0.206,0.655,0.476,0.861,0.812c0.205,0.336,0.308,0.751,0.308,1.246c0,0.458-0.109,0.85-0.329,1.176
			c-0.219,0.327-0.524,0.588-0.917,0.784c0.588,0.196,1.022,0.485,1.303,0.868c0.279,0.383,0.42,0.868,0.42,1.456
			c0,0.999-0.364,1.748-1.093,2.247C34.693,186.037,33.577,186.286,32.074,186.286z M30.885,180.421h1.245
			c0.673,0,1.199-0.096,1.582-0.287s0.574-0.534,0.574-1.029c0-0.467-0.198-0.798-0.595-0.994s-0.912-0.294-1.547-0.294
			c-0.271,0-0.511,0.005-0.722,0.014c-0.21,0.01-0.39,0.023-0.538,0.042V180.421z M30.885,181.806v2.954
			c0.195,0.019,0.405,0.033,0.63,0.042c0.224,0.009,0.429,0.014,0.615,0.014c0.364,0,0.702-0.023,1.016-0.07
			c0.313-0.046,0.583-0.128,0.812-0.245s0.411-0.273,0.546-0.469c0.136-0.196,0.203-0.448,0.203-0.756
			c0-0.551-0.2-0.933-0.602-1.148s-0.957-0.322-1.666-0.322H30.885z"/>
		<path opacity="0.6" fill="#FFFFFF" d="M42.015,180.379c-0.14-0.047-0.334-0.096-0.581-0.147s-0.534-0.077-0.861-0.077
			c-0.187,0-0.385,0.019-0.595,0.056s-0.356,0.07-0.44,0.098v5.866h-1.694v-6.972c0.326-0.121,0.735-0.235,1.225-0.343
			c0.49-0.107,1.034-0.161,1.631-0.161c0.112,0,0.243,0.007,0.393,0.021s0.299,0.033,0.448,0.056
			c0.148,0.023,0.294,0.051,0.434,0.084s0.252,0.063,0.336,0.091L42.015,180.379z"/>
		<path opacity="0.6" fill="#FFFFFF" d="M45.5,178.671c0.561,0,1.031,0.07,1.414,0.21s0.688,0.336,0.917,0.588
			s0.393,0.558,0.49,0.917c0.098,0.359,0.147,0.754,0.147,1.183v4.438c-0.262,0.056-0.656,0.124-1.184,0.203
			s-1.122,0.119-1.785,0.119c-0.438,0-0.84-0.042-1.204-0.126c-0.363-0.084-0.674-0.219-0.931-0.406s-0.457-0.429-0.602-0.728
			c-0.146-0.299-0.218-0.667-0.218-1.106c0-0.42,0.082-0.775,0.245-1.064c0.163-0.29,0.386-0.525,0.665-0.707
			c0.28-0.182,0.604-0.313,0.974-0.392c0.368-0.079,0.753-0.119,1.154-0.119c0.187,0,0.383,0.012,0.588,0.035
			c0.206,0.023,0.425,0.063,0.658,0.119v-0.28c0-0.196-0.023-0.382-0.069-0.56c-0.047-0.177-0.129-0.333-0.245-0.469
			c-0.117-0.135-0.271-0.24-0.462-0.315c-0.191-0.075-0.433-0.112-0.722-0.112c-0.392,0-0.751,0.028-1.078,0.084
			c-0.326,0.056-0.593,0.122-0.798,0.196l-0.21-1.372c0.215-0.075,0.527-0.149,0.938-0.224
			C44.595,178.708,45.033,178.671,45.5,178.671z M45.641,184.985c0.522,0,0.919-0.028,1.189-0.084v-1.876
			c-0.093-0.028-0.229-0.056-0.405-0.084c-0.178-0.028-0.374-0.042-0.589-0.042c-0.187,0-0.375,0.014-0.566,0.042
			c-0.191,0.028-0.364,0.079-0.519,0.154c-0.153,0.075-0.277,0.18-0.371,0.315c-0.093,0.136-0.14,0.306-0.14,0.511
			c0,0.401,0.126,0.679,0.378,0.833C44.87,184.908,45.211,184.985,45.641,184.985z"/>
		<path opacity="0.6" fill="#FFFFFF" d="M50.12,179.091c0.326-0.093,0.751-0.182,1.273-0.266c0.523-0.084,1.102-0.126,1.736-0.126
			c0.598,0,1.097,0.082,1.498,0.245c0.401,0.164,0.721,0.392,0.959,0.686s0.406,0.649,0.504,1.064
			c0.099,0.416,0.147,0.871,0.147,1.365v4.116h-1.694v-3.85c0-0.392-0.025-0.726-0.077-1.001c-0.051-0.275-0.135-0.499-0.252-0.672
			c-0.116-0.173-0.275-0.299-0.476-0.378c-0.201-0.079-0.446-0.119-0.735-0.119c-0.215,0-0.438,0.014-0.672,0.042
			s-0.406,0.051-0.518,0.07v5.908H50.12V179.091z"/>
		<path opacity="0.6" fill="#FFFFFF" d="M57.484,182.521c0-0.542,0.084-1.048,0.252-1.519s0.408-0.88,0.721-1.225
			c0.313-0.345,0.693-0.616,1.142-0.812s0.952-0.294,1.512-0.294c0.69,0,1.344,0.126,1.96,0.378l-0.364,1.386
			c-0.195-0.084-0.417-0.154-0.665-0.21c-0.247-0.056-0.511-0.084-0.79-0.084c-0.663,0-1.167,0.208-1.513,0.623
			c-0.345,0.416-0.518,1.001-0.518,1.757c0,0.728,0.163,1.304,0.49,1.729c0.326,0.425,0.877,0.637,1.651,0.637
			c0.289,0,0.574-0.028,0.854-0.084c0.279-0.056,0.522-0.126,0.728-0.21l0.238,1.4c-0.187,0.094-0.469,0.178-0.847,0.252
			c-0.379,0.075-0.769,0.112-1.17,0.112c-0.625,0-1.169-0.096-1.631-0.287s-0.845-0.457-1.147-0.798
			c-0.304-0.341-0.53-0.747-0.679-1.218C57.56,183.582,57.484,183.072,57.484,182.521z"/>
		<path opacity="0.6" fill="#FFFFFF" d="M64.078,186.175v-10.584l1.694-0.28v3.626c0.187-0.065,0.403-0.122,0.65-0.168
			c0.247-0.047,0.492-0.07,0.735-0.07c0.587,0,1.074,0.082,1.462,0.245c0.387,0.164,0.697,0.392,0.931,0.686
			s0.399,0.646,0.497,1.057c0.099,0.411,0.147,0.868,0.147,1.372v4.116h-1.694v-3.85c0-0.392-0.025-0.726-0.077-1.001
			c-0.051-0.275-0.135-0.499-0.252-0.672c-0.116-0.173-0.272-0.299-0.469-0.378s-0.438-0.119-0.728-0.119
			c-0.224,0-0.452,0.023-0.686,0.07c-0.233,0.047-0.406,0.089-0.518,0.126v5.824H64.078z"/>
	</g>
	<g>
		<path opacity="0.6" fill="#FFFFFF" d="M32.074,219.12c-0.514,0-1.031-0.016-1.554-0.049c-0.523-0.033-0.98-0.1-1.372-0.203v-9.422
			c0.205-0.037,0.425-0.072,0.658-0.105c0.232-0.033,0.471-0.058,0.714-0.077c0.242-0.019,0.482-0.032,0.721-0.042
			c0.238-0.009,0.464-0.014,0.679-0.014c0.589,0,1.135,0.044,1.639,0.133c0.504,0.089,0.939,0.236,1.309,0.441
			c0.369,0.206,0.655,0.476,0.861,0.812c0.205,0.336,0.308,0.751,0.308,1.246c0,0.458-0.109,0.85-0.329,1.176
			c-0.219,0.327-0.524,0.588-0.917,0.784c0.588,0.196,1.022,0.485,1.303,0.868c0.279,0.383,0.42,0.868,0.42,1.456
			c0,0.999-0.364,1.748-1.093,2.247C34.693,218.87,33.577,219.12,32.074,219.12z M30.885,213.254h1.245
			c0.673,0,1.199-0.096,1.582-0.287s0.574-0.534,0.574-1.029c0-0.467-0.198-0.798-0.595-0.994s-0.912-0.294-1.547-0.294
			c-0.271,0-0.511,0.005-0.722,0.014c-0.21,0.01-0.39,0.023-0.538,0.042V213.254z M30.885,214.64v2.954
			c0.195,0.019,0.405,0.033,0.63,0.042c0.224,0.009,0.429,0.014,0.615,0.014c0.364,0,0.702-0.023,1.016-0.07
			c0.313-0.046,0.583-0.128,0.812-0.245s0.411-0.273,0.546-0.469c0.136-0.196,0.203-0.448,0.203-0.756
			c0-0.551-0.2-0.933-0.602-1.148s-0.957-0.322-1.666-0.322H30.885z"/>
		<path opacity="0.6" fill="#FFFFFF" d="M42.015,213.212c-0.14-0.047-0.334-0.096-0.581-0.147s-0.534-0.077-0.861-0.077
			c-0.187,0-0.385,0.019-0.595,0.056s-0.356,0.07-0.44,0.098v5.866h-1.694v-6.972c0.326-0.121,0.735-0.235,1.225-0.343
			c0.49-0.107,1.034-0.161,1.631-0.161c0.112,0,0.243,0.007,0.393,0.021s0.299,0.033,0.448,0.056
			c0.148,0.023,0.294,0.051,0.434,0.084s0.252,0.063,0.336,0.091L42.015,213.212z"/>
		<path opacity="0.6" fill="#FFFFFF" d="M45.5,211.504c0.561,0,1.031,0.07,1.414,0.21s0.688,0.336,0.917,0.588
			s0.393,0.558,0.49,0.917c0.098,0.359,0.147,0.754,0.147,1.183v4.438c-0.262,0.056-0.656,0.124-1.184,0.203
			s-1.122,0.119-1.785,0.119c-0.438,0-0.84-0.042-1.204-0.126c-0.363-0.084-0.674-0.219-0.931-0.406s-0.457-0.429-0.602-0.728
			c-0.146-0.299-0.218-0.667-0.218-1.106c0-0.42,0.082-0.775,0.245-1.064c0.163-0.29,0.386-0.525,0.665-0.707
			c0.28-0.182,0.604-0.313,0.974-0.392c0.368-0.079,0.753-0.119,1.154-0.119c0.187,0,0.383,0.012,0.588,0.035
			c0.206,0.023,0.425,0.063,0.658,0.119v-0.28c0-0.196-0.023-0.382-0.069-0.56c-0.047-0.177-0.129-0.333-0.245-0.469
			c-0.117-0.135-0.271-0.24-0.462-0.315c-0.191-0.075-0.433-0.112-0.722-0.112c-0.392,0-0.751,0.028-1.078,0.084
			c-0.326,0.056-0.593,0.122-0.798,0.196l-0.21-1.372c0.215-0.075,0.527-0.149,0.938-0.224
			C44.595,211.541,45.033,211.504,45.5,211.504z M45.641,217.818c0.522,0,0.919-0.028,1.189-0.084v-1.876
			c-0.093-0.028-0.229-0.056-0.405-0.084c-0.178-0.028-0.374-0.042-0.589-0.042c-0.187,0-0.375,0.014-0.566,0.042
			c-0.191,0.028-0.364,0.079-0.519,0.154c-0.153,0.075-0.277,0.18-0.371,0.315c-0.093,0.136-0.14,0.306-0.14,0.511
			c0,0.401,0.126,0.679,0.378,0.833C44.87,217.741,45.211,217.818,45.641,217.818z"/>
		<path opacity="0.6" fill="#FFFFFF" d="M50.12,211.924c0.326-0.093,0.751-0.182,1.273-0.266c0.523-0.084,1.102-0.126,1.736-0.126
			c0.598,0,1.097,0.082,1.498,0.245c0.401,0.164,0.721,0.392,0.959,0.686s0.406,0.649,0.504,1.064
			c0.099,0.416,0.147,0.871,0.147,1.365v4.116h-1.694v-3.85c0-0.392-0.025-0.726-0.077-1.001c-0.051-0.275-0.135-0.499-0.252-0.672
			c-0.116-0.173-0.275-0.299-0.476-0.378c-0.201-0.079-0.446-0.119-0.735-0.119c-0.215,0-0.438,0.014-0.672,0.042
			s-0.406,0.051-0.518,0.07v5.908H50.12V211.924z"/>
		<path opacity="0.6" fill="#FFFFFF" d="M57.484,215.354c0-0.542,0.084-1.048,0.252-1.519s0.408-0.88,0.721-1.225
			c0.313-0.345,0.693-0.616,1.142-0.812s0.952-0.294,1.512-0.294c0.69,0,1.344,0.126,1.96,0.378l-0.364,1.386
			c-0.195-0.084-0.417-0.154-0.665-0.21c-0.247-0.056-0.511-0.084-0.79-0.084c-0.663,0-1.167,0.208-1.513,0.623
			c-0.345,0.416-0.518,1.001-0.518,1.757c0,0.728,0.163,1.304,0.49,1.729c0.326,0.425,0.877,0.637,1.651,0.637
			c0.289,0,0.574-0.028,0.854-0.084c0.279-0.056,0.522-0.126,0.728-0.21l0.238,1.4c-0.187,0.094-0.469,0.178-0.847,0.252
			c-0.379,0.075-0.769,0.112-1.17,0.112c-0.625,0-1.169-0.096-1.631-0.287s-0.845-0.457-1.147-0.798
			c-0.304-0.341-0.53-0.747-0.679-1.218C57.56,216.416,57.484,215.905,57.484,215.354z"/>
		<path opacity="0.6" fill="#FFFFFF" d="M64.078,219.008v-10.584l1.694-0.28v3.626c0.187-0.065,0.403-0.122,0.65-0.168
			c0.247-0.047,0.492-0.07,0.735-0.07c0.587,0,1.074,0.082,1.462,0.245c0.387,0.164,0.697,0.392,0.931,0.686
			s0.399,0.646,0.497,1.057c0.099,0.411,0.147,0.868,0.147,1.372v4.116h-1.694v-3.85c0-0.392-0.025-0.726-0.077-1.001
			c-0.051-0.275-0.135-0.499-0.252-0.672c-0.116-0.173-0.272-0.299-0.469-0.378s-0.438-0.119-0.728-0.119
			c-0.224,0-0.452,0.023-0.686,0.07c-0.233,0.047-0.406,0.089-0.518,0.126v5.824H64.078z"/>
	</g>
</g>
</svg>
