<?xml version="1.0" encoding="utf-8"?>
<!-- Generator: Adobe Illustrator 16.0.0, SVG Export Plug-In . SVG Version: 6.00 Build 0)  -->
<!DOCTYPE svg PUBLIC "-//W3C//DTD SVG 1.1//EN" "http://www.w3.org/Graphics/SVG/1.1/DTD/svg11.dtd">
<svg version="1.1" id="Layer_1" xmlns="http://www.w3.org/2000/svg" xmlns:xlink="http://www.w3.org/1999/xlink" x="0px" y="0px"
	 width="794.919px" height="519.839px" viewBox="0 0 794.919 519.839" enable-background="new 0 0 794.919 519.839"
	 xml:space="preserve">
<g>
	<defs>
		<rect id="SVGID_1_" x="-1718.469" y="-807.199" width="1597.962" height="366.233"/>
	</defs>
	<clipPath id="SVGID_2_">
		<use xlink:href="#SVGID_1_"  overflow="visible"/>
	</clipPath>
	<g clip-path="url(#SVGID_2_)">
		<g>
			<defs>
				<rect id="SVGID_3_" x="-1716.822" y="-827.019" width="1598.119" height="920.961"/>
			</defs>
			<clipPath id="SVGID_4_">
				<use xlink:href="#SVGID_3_"  overflow="visible"/>
			</clipPath>
			<g opacity="0.2" clip-path="url(#SVGID_4_)">
				<g>
					<g>
						<path fill="#CFF9FE" d="M10.182,7.466c-0.949,0-1.812-0.647-2.043-1.612L3.823-12.233c-0.269-1.131,0.429-2.264,1.558-2.534
							c1.114-0.267,2.262,0.425,2.532,1.556l4.315,18.087c0.269,1.13-0.429,2.264-1.558,2.534
							C10.508,7.446,10.344,7.466,10.182,7.466z"/>
					</g>
				</g>
			</g>
		</g>
	</g>
</g>
<g>
	<g>
		<defs>
			<rect id="SVGID_6_" x="-914" y="-396.566" width="794.919" height="806.44"/>
		</defs>
		<clipPath id="SVGID_5_">
			<use xlink:href="#SVGID_6_"  overflow="visible"/>
		</clipPath>
		<g clip-path="url(#SVGID_5_)">
			<path fill="#9BCCF8" d="M-915.357,507.508c88.331,189.85,526.521,238.219,715.033,150.51
				C-11.809,570.307,94.242,268.718,5.911,78.869C-82.42-110.98-221.77-202.536-433.165,70.927
				C-560.518,235.669-1003.689,317.659-915.357,507.508z"/>
		</g>
	</g>
</g>
<g>
	<g>
		<defs>
			<rect id="SVGID_8_" y="-286.602" width="794.919" height="806.44"/>
		</defs>
		<clipPath id="SVGID_7_">
			<use xlink:href="#SVGID_8_"  overflow="visible"/>
		</clipPath>
		<g clip-path="url(#SVGID_7_)">
			<path fill="#9BCCF8" d="M-1.357,617.473c88.331,189.85,526.521,238.219,715.033,150.51
				c188.516-87.711,294.566-389.3,206.235-579.148C831.58-1.016,692.23-92.571,480.835,180.892
				C353.482,345.634-89.689,427.624-1.357,617.473z"/>
		</g>
	</g>
	<g>
		<g>
			<g opacity="0.04">
				<g>
					<path stroke="#000000" stroke-miterlimit="10" d="M574.172,448.858L574.172,448.858c-4.127,16.023,6.067,31.064,22.653,33.424
						l50.509,7.187c16.586,2.359,33.532-8.82,37.658-24.844l0,0l7.676-29.805l-110.82-15.767L574.172,448.858z"/>
					<g>
						<path stroke="#000000" stroke-miterlimit="10" d="M580.27,412.425c0,0-3.098,4.617-0.436,6.343
							c2.661,1.725,49.486,23.887,116.828,16.621c1.668-0.18,1.909-1.382,2.59-6.036"/>
						<path stroke="#000000" stroke-miterlimit="10" d="M699.252,429.353c-1.475,5.728-29.306,6.581-62.162,1.907
							c-32.855-4.675-58.295-13.107-56.82-18.835c1.475-5.727,29.306-6.58,62.162-1.906
							C675.288,415.193,700.727,423.626,699.252,429.353z"/>
						<path stroke="#000000" stroke-miterlimit="10" d="M694.52,427.632c-1.022,3.97-26.195,3.726-56.225-0.547
							c-30.03-4.272-53.545-10.955-52.522-14.925c1.022-3.971,26.195-3.726,56.225,0.547
							C672.027,416.979,695.542,423.661,694.52,427.632z"/>
					</g>
				</g>
				<g>
					<path d="M623.313,382.139c0.507,7.163-0.679,14.083-2.609,20.309c-0.859,2.771-2.003,5.512-4.077,6.917
						c-3.533,2.395-9.36-0.43-11.646-5.643c-0.73-1.668-1.131-3.491-2.026-5.063s-2.587-2.854-3.759-2.166
						c-1.374,0.808-0.941,3.637,0.238,5.375s2.84,2.871,4.134,4.487c2.833,3.54,3.315,9.22,1.211,12.313
						c-2.104,3.094-6.386,3.401-9.815,0.946c-3.43-2.456-5.811-7.333-5.988-11.804c-0.088-2.218-0.018-5.07-1.733-6.244
						c-0.993-0.681-2.15-0.279-2.695,0.671s-0.573,2.313-0.352,3.614c0.564,3.311,2.534,6.282,4.091,9.317
						c1.559,3.035,2.774,6.819,1.635,9.461c-1.251,2.899-4.629,2.957-7.556,2.609c-3.513-0.416-7.208-1.097-10.449-3.629
						c-3.24-2.532-5.819-7.461-4.99-11.397c0.407-1.931,1.574-3.548,1.275-5.687c-0.369-2.638-3.382-4.68-4.985-3.379
						c-1.912,1.554-1.008,5.569,0.235,8.579c1.244,3.009,2.723,6.612,1.526,9.03c-0.819,1.658-2.71,2.057-4.459,1.539
						c-1.75-0.518-3.405-1.787-5.014-3.032c-3.698-2.862-7.397-5.725-11.096-8.587l-0.013-0.029
						c0.335-4.756,0.669-9.513,1.004-14.27c0.146-2.068,0.304-4.19,1.074-5.892c0.77-1.7,2.303-2.909,4.053-2.459
						c2.554,0.656,4.219,4.173,5.603,7.116c1.385,2.943,3.729,6.283,6.119,5.814c2.005-0.393,2.488-4.078,0.802-6.097
						c-1.367-1.636-3.316-1.79-4.996-2.741c-3.423-1.938-5.335-7.181-5.06-11.365c0.275-4.184,2.205-7.505,4.206-10.512
						c1.667-2.506,3.927-5.096,6.869-4.165c2.68,0.847,4.649,4.278,5.846,7.482c1.197,3.204,2.078,6.688,4.129,9.3
						c0.806,1.027,1.82,1.899,2.874,2.1c1.053,0.199,2.105-0.438,2.261-1.657c0.267-2.105-1.865-3.924-3.429-5.447
						c-3.153-3.074-5.157-8.128-4.702-12.408c0.456-4.28,3.492-7.41,7.136-7.017c3.645,0.395,7.481,4.498,8.21,9.026
						c0.333,2.068,0.072,4.104,0.569,6.162c0.496,2.06,2.281,4.254,3.774,3.715c1.272-0.46,1.444-2.618,0.883-4.347
						c-0.563-1.729-1.633-3.237-2.372-4.901c-2.313-5.2-0.552-11.589,3.518-12.766c2.391-0.69,5.146,0.219,7.736,1.369
						c5.819,2.585,11.468,6.438,16.565,11.302C617.067,367.991,622.814,375.088,623.313,382.139z"/>
					<g>
						<path d="M621.813,382.139c0.285,5.536-0.337,28.94-9.977,26.259c-4.363-1.213-5.313-5.766-6.996-9.276
							c-0.883-1.842-2.515-4.354-4.89-4.275c-5.223,0.175-2.503,7.045-0.616,9.289c2.976,3.54,8.046,8.708,3.85,13.521
							c-6.313,7.242-12.282-5.122-12.734-10.539c-0.237-2.846-1.744-9.967-6.245-6.688c-5.459,3.979,2.5,13.965,3.839,17.88
							c1.181,3.456,1.232,6.424-3.763,7.561c-1.824,0.415-4.344-0.367-6.085-0.882c-6.018-1.777-11.213-7.146-9.412-13.777
							c0.954-3.517,1.1-10.729-4.808-9.923c-5.442,0.742-2.806,8.622-1.658,11.61c0.379,0.987,1.093,2.102,1.132,3.167
							c0.032,0.878-1.385,4.482-2.534,4.785c-1.646,0.433-6.075-3.981-7.125-4.793c-1.828-1.411-3.845-2.735-5.548-4.294
							c-2.259-2.067-2.187-3.41-1.972-6.466c0.168-2.379,0.332-4.757,0.502-7.136c0.062-0.852,0.099-1.71,0.187-2.561
							c0.286-2.769-0.056-3.102,2.489-4.349c2.645-1.296,2.315-0.942,3.759,1.442c0.375,0.62,0.687,1.274,1.014,1.92
							c0.893,1.76,1.667,3.593,2.966,5.109c2.363,2.762,6.869,4.256,8.195-0.296c0.551-1.89-0.032-4.141-1.272-5.627
							c-0.781-0.937-1.813-1.392-2.864-1.938c-3.152-1.64-4.966-2.646-6.129-6.257c-1.582-4.911,0.178-9.831,2.953-13.951
							c2.258-3.35,5.795-5.406,8.59-1.361c1.47,2.126,2.164,4.752,3.041,7.15c1.115,3.053,4.279,10.954,8.993,8.741
							c5.976-2.806-2.466-9.714-3.969-12.06c-1.722-2.687-2.797-6.491-1.986-9.66c1.313-5.14,6.88-5.288,9.892-1.528
							c3.147,3.93,1.41,8.517,3.477,12.668c2.199,4.418,7.732,4.071,7.264-1.474c-0.347-4.106-3.808-7.068-3.644-11.405
							c0.371-9.828,10.835-4.702,15.766-1.744C613.583,365.837,620.613,372.26,621.813,382.139c0.229,1.893,3.232,1.915,3,0
							c-0.819-6.743-4.122-13.135-9.278-17.555c-5.319-4.559-14.835-12.277-22.431-10.826c-6.516,1.244-7.38,9.604-5.304,14.728
							c0.307,0.755,0.719,1.455,1.08,2.184c0.108,0.2,0.217,0.4,0.324,0.601c1.664,2.021,1.398,2.671-0.796,1.951
							c-0.847-1.557-0.221-4.424-0.569-6.162c-0.737-3.687-3.049-7.393-6.478-9.146c-5.715-2.925-11.081,1.456-11.787,7.336
							c-0.432,3.585,0.698,7.35,2.56,10.393c1.01,1.65,2.237,2.829,3.537,4.225c2.996,3.218,0.146,2.039-1.145,1.068
							c-1.26-0.946-1.63-3.497-2.183-4.983c-1.896-5.106-5.802-14.979-12.945-10.373c-5.914,3.813-9.111,13.596-7.351,20.168
							c0.758,2.834,2.264,5.672,4.758,7.332c0.667,0.444,1.521,0.629,2.146,1.089c0.604,0.637,1.207,1.273,1.811,1.909
							c2.945,2.459,2.299,2.736-1.938,0.833c-1.606-1.568-2.169-4.479-3.382-6.352c-3.884-5.994-9.878-4.585-11.187,2.339
							c-0.867,4.588-0.782,9.53-1.109,14.185c-0.373,5.302,0.708,5.05,5.056,8.414c3.589,2.778,13.4,13.046,17.836,6.323
							c1.781-2.7,0.474-6.216-0.513-8.944c-0.437-1.206-0.993-2.351-1.344-3.589c-0.069-0.233-0.14-0.468-0.21-0.701
							c-0.993-3.438-0.19-3.283,2.409,0.466c0.257,1.586-1.217,3.993-1.034,5.898c0.768,7.984,8.086,12.465,15.303,13.566
							c6.168,0.94,12.139-0.686,11.043-8.159c-0.719-4.897-4.327-8.616-5.661-13.273c-0.154-0.844-0.31-1.689-0.465-2.533
							c1.349-1.013,1.918-0.786,1.707,0.679c0.515,1.02,0.186,2.972,0.341,4.085c0.25,1.802,0.744,3.557,1.507,5.21
							c2.758,5.983,11.869,12.4,16.953,4.903c1.884-2.778,1.827-6.747,0.849-9.833c-0.583-1.837-1.547-3.423-2.808-4.867
							c-0.661-0.757-2.346-1.802-2.659-2.711c0.067-0.866,0.136-1.732,0.202-2.599c0.541,1.112,1,2.256,1.377,3.432
							c2.227,5.218,8.343,11.788,14.5,7.695c3.418-2.271,4.566-7.17,5.514-10.864c1.476-5.754,2.07-11.608,1.765-17.539
							C624.714,380.218,621.714,380.206,621.813,382.139z"/>
					</g>
				</g>
				<g>
					<path d="M670.585,399.476c4.94-3.71,10.285-6.22,15.386-7.924c2.271-0.759,4.617-1.321,6.328-0.655
						c2.912,1.133,2.882,6.203-0.062,10.132c-0.941,1.257-2.106,2.375-2.924,3.692c-0.817,1.316-1.156,3.007-0.266,3.433
						c1.045,0.5,2.917-1.115,3.756-2.692c0.839-1.578,1.082-3.178,1.795-4.771c1.562-3.49,5.452-6.483,8.377-6.596
						c2.926-0.113,4.604,2.486,4.02,5.845c-0.584,3.359-3.255,7.19-6.386,9.417c-1.553,1.104-3.613,2.407-3.867,4.062
						c-0.146,0.959,0.534,1.511,1.398,1.411s1.846-0.726,2.699-1.482c2.171-1.927,3.622-4.594,5.258-7.026s3.923-5.001,6.196-5.519
						c2.497-0.568,3.688,1.569,4.438,3.61c0.899,2.449,1.673,5.14,0.97,8.413c-0.704,3.274-3.344,7.257-6.437,8.585
						c-1.517,0.652-3.069,0.668-4.493,1.87c-1.758,1.483-2.189,4.38-0.714,4.792c1.76,0.492,4.319-1.985,6.043-4.204
						c1.725-2.22,3.793-4.871,5.927-5.246c1.463-0.258,2.392,0.765,2.618,2.131s-0.116,3.027-0.456,4.646
						c-0.783,3.724-1.566,7.447-2.35,11.171l-0.017,0.022c-3.51,2.033-7.02,4.066-10.528,6.1c-1.526,0.885-3.096,1.786-4.572,2.096
						c-1.477,0.311-2.861-0.101-3.137-1.436c-0.4-1.947,1.542-4.677,3.172-6.955c1.629-2.278,3.215-5.358,2.065-6.67
						c-0.963-1.1-3.758,0.331-4.625,2.367c-0.702,1.649-0.147,2.972-0.254,4.498c-0.219,3.11-3.31,6.813-6.39,8.614
						c-3.08,1.8-6.108,2.134-8.937,2.271c-2.357,0.115-4.976-0.109-5.314-2.435c-0.308-2.119,1.471-5.002,3.351-7.284
						c1.879-2.281,4.065-4.492,5.231-7.041c0.459-1.002,0.735-2.065,0.52-2.835s-1.029-1.143-1.952-0.666
						c-1.595,0.824-2.166,3.05-2.722,4.772c-1.119,3.474-4.044,7.146-7.255,8.878c-3.211,1.73-6.479,1.263-7.439-1.259
						c-0.961-2.521,0.661-6.921,3.646-9.528c1.363-1.19,2.905-1.985,4.206-3.276c1.301-1.292,2.258-3.473,1.365-4.175
						c-0.762-0.599-2.361,0.311-3.404,1.487c-1.042,1.178-1.754,2.576-2.69,3.837c-2.925,3.94-8.084,5.83-10.311,3.777
						c-1.308-1.205-1.598-3.401-1.659-5.605c-0.137-4.952,0.689-10.394,2.425-15.96
						C662.614,410.166,665.722,403.128,670.585,399.476z"/>
					<g>
						<path d="M671.342,400.771c3.325-2.398,6.794-4.439,10.566-6.06c1.453-0.624,3.693-1.917,5.314-1.972
							c1-0.034,5.273,2.416,5.54,3.769c0.261,1.324-1.866,3.74-2.581,4.682c-1.315,1.735-5.508,6.868-1.532,8.409
							c4.766,1.849,6.508-7.146,7.933-9.433c0.843-1.353,2.296-2.775,3.627-3.561c1.894-1.117,1.911-0.993,3.716,0.526
							c1.779,1.499,1.935,1.577,1.311,3.686c-0.287,0.97-0.839,2.011-1.38,2.865c-2.039,3.216-5.814,4.583-7.798,7.648
							c-1.801,2.784-0.06,5.518,3.158,4.696c1.97-0.503,3.564-2.397,4.767-3.91c0.804-1.012,1.495-2.108,2.203-3.188
							c0.648-0.988,1.278-1.965,2.004-2.899c1.661-2.14,1.371-2.206,4.462-1.674c3.084,0.531,3.253,1.258,3.626,4.186
							c0.283,2.222,0.071,4.214-0.889,6.234c-1.332,2.806-3.187,4.51-6.045,5.694c-1.243,0.515-2.411,0.719-3.481,1.631
							c-1.842,1.57-3.438,5.431-0.853,7.067c3.653,2.313,7.672-3.771,9.511-5.939c0.335-0.395,0.97-1.413,1.451-1.616
							c0.538,0.099,1.077,0.197,1.616,0.295c1.631-0.258,2.093,0.307,1.385,1.694c0.361,1.835-1.002,5.069-1.405,6.982
							c-0.397,1.891-0.528,4.155-2.006,5.583c-1.316,1.271-3.673,2.128-5.264,3.05c-1.311,0.759-3.854,2.908-5.296,3.046
							c-0.549-0.252-1.099-0.503-1.648-0.754c-1.617-0.079-2.048-0.533-1.292-1.363c0.039-0.505,0.887-1.407,1.163-1.821
							c1.309-1.965,3.157-4.136,3.409-6.594c0.323-3.141-2.129-4.687-4.916-3.292c-1.31,0.655-2.427,1.904-2.966,3.256
							c-0.472,1.184-0.288,2.207-0.351,3.419c-0.158,3.058-1.265,5.273-3.64,7.362c-1.735,1.527-3.937,2.513-6.169,3.042
							c-0.821,0.195-4.285,1.035-5.163,0.48c-1.001-0.633-1.87-3.514-1.614-4.415c0.266-0.938,1.314-2.017,1.899-2.765
							c0.996-1.274,2.131-2.439,3.117-3.724c1.474-1.915,5.574-7.972,1.261-9.46c-4.335-1.495-5.548,5.957-6.811,8.206
							c-0.962,1.713-2.635,4.242-4.55,5.033c-0.338,0.232-0.675,0.465-1.014,0.697c-1.764-1-3.527-2.001-5.291-3.001
							c-0.333-1.22,1.748-3.686,2.451-4.466c2.005-2.222,5.13-3.45,6.501-6.248c1.639-3.343-0.699-6.192-4.11-4.078
							c-3.231,2.003-4.077,6.316-7.541,8.161c-7.609,4.054-6.157-7.793-5.438-12.062c1.165-6.916,3.816-12.781,9.355-17.343
							c1.491-1.229-0.642-3.341-2.121-2.122c-4.376,3.604-7.718,8.629-9.14,14.121c-1.307,5.045-4.309,16.588,0.706,20.491
							c4.097,3.188,9.857-1.105,12.364-4.315c1.141-1.462,4.237-4.358,0.597-1.526c-1.211,0.941-2.443,1.73-3.482,2.89
							c-1.736,1.937-3.164,4.695-3.288,7.348c-0.254,5.429,4.971,6.979,9.266,5.044c2.918-1.313,5.27-3.779,6.933-6.475
							c0.71-1.152,1.211-2.346,1.699-3.603c0.21-0.543,1.125-2.306,1.083-2.875c0.137,1.852-1.717,3.674-2.736,4.912
							c-2.413,2.933-8.787,9.554-4.277,13.368c4.002,3.386,12.779,0.428,16.365-2.17c2.128-1.541,4.114-3.772,5.12-6.229
							c0.573-1.399,0.187-3.028,0.668-4.281c1.357-3.527,1.708-2.07,0.859-0.669c-0.621,1.026-1.376,1.967-2.03,2.972
							c-2.251,3.455-3.548,9.989,2.892,8.816c3.849-0.7,7.625-3.809,10.946-5.732c3.131-1.814,4.83-2.013,5.609-5.395
							c0.821-3.564,5.628-15.813-0.078-17.824c-1.678-0.592-3.428,0.31-4.734,1.312c-1.522,1.168-2.605,2.76-3.825,4.213
							c0.15-0.179-1.901,2.234-1.941,2.186c-1.073-1.303,2.513-2.012,2.923-2.287c5.021-3.375,8.255-8.485,7.242-14.796
							c-0.72-4.481-3.336-10.638-8.861-7.983c-2.836,1.361-4.729,4.344-6.406,6.868c-1.346,2.024-2.487,4.313-4.746,5.446
							c1.784-0.895,3.847-2.863,5.16-4.33c3.086-3.446,7.129-11.811,1.143-14.741c-7.383-3.614-11.923,6.683-14.044,11.533
							c-0.3,0.259-0.6,0.517-0.899,0.774c0.564-0.722,1.129-1.443,1.694-2.165c0.567-0.737,1.169-1.41,1.666-2.2
							c0.989-1.573,1.718-3.287,1.909-5.154c0.219-2.115-0.183-4.466-1.962-5.841c-2.977-2.301-7.67-0.315-10.655,0.817
							c-4.806,1.822-9.265,4.238-13.434,7.246C668.276,399.3,669.772,401.903,671.342,400.771z"/>
					</g>
				</g>
				<g>
					<path d="M693.076,329.374c5.625-4.612,11.928-7.818,18.046-10.06c2.723-0.997,5.569-1.766,7.8-1.05
						c3.8,1.218,4.501,7.23,1.4,12.017c-0.991,1.531-2.282,2.907-3.11,4.504s-1.005,3.616,0.169,4.082
						c1.376,0.547,3.477-1.448,4.294-3.354c0.817-1.907,0.888-3.814,1.545-5.734c1.44-4.205,5.859-7.922,9.493-8.182
						c3.634-0.261,6.107,2.75,5.867,6.758s-3.014,8.665-6.597,11.44c-1.776,1.376-4.158,3.011-4.233,4.983
						c-0.044,1.143,0.886,1.768,1.949,1.612c1.064-0.155,2.198-0.939,3.152-1.874c2.429-2.378,3.852-5.603,5.538-8.558
						s4.166-6.1,6.928-6.812c3.033-0.781,4.832,1.702,6.064,4.09c1.479,2.865,2.836,6.021,2.435,9.934
						c-0.4,3.913-3.115,8.749-6.78,10.458c-1.798,0.838-3.732,0.924-5.335,2.411c-1.977,1.834-2.094,5.287-0.192,5.713
						c2.269,0.508,5.101-2.541,6.929-5.247s4.024-5.938,6.632-6.476c1.787-0.369,3.096,0.805,3.577,2.414
						c0.482,1.61,0.297,3.596,0.107,5.53c-0.435,4.448-0.869,8.897-1.305,13.347l-0.017,0.026c-4.084,2.563-8.167,5.124-12.25,7.687
						c-1.776,1.114-3.602,2.251-5.399,2.683c-1.797,0.432-3.586,0.003-4.123-1.567c-0.784-2.292,1.242-5.611,2.943-8.383
						c1.702-2.771,3.232-6.493,1.606-7.999c-1.362-1.262-4.642,0.556-5.427,3.007c-0.636,1.986,0.249,3.53,0.338,5.344
						c0.182,3.698-3.136,8.223-6.718,10.49s-7.312,2.793-10.821,3.079c-2.924,0.238-6.225,0.085-6.986-2.658
						c-0.692-2.499,1.106-5.995,3.119-8.781c2.014-2.786,4.42-5.502,5.504-8.575c0.426-1.207,0.617-2.479,0.235-3.383
						s-1.452-1.312-2.534-0.706c-1.869,1.046-2.258,3.71-2.7,5.776c-0.892,4.168-4.006,8.648-7.761,10.84
						c-3.754,2.19-7.901,1.776-9.467-1.172c-1.566-2.949-0.183-8.235,3.161-11.455c1.527-1.471,3.336-2.479,4.771-4.067
						c1.436-1.587,2.313-4.215,1.096-5.009c-1.038-0.677-2.901,0.471-4.03,1.911c-1.13,1.441-1.814,3.13-2.799,4.666
						c-3.075,4.798-9.239,7.262-12.317,4.923c-1.807-1.373-2.488-3.965-2.886-6.575c-0.894-5.866-0.654-12.354,0.7-19.029
						C684.688,342.393,687.54,333.914,693.076,329.374z"/>
					<g>
						<path d="M694.138,330.435c3.819-3.024,7.937-5.562,12.363-7.602c2.035-0.938,4.415-2.144,6.662-2.633
							c1.604-0.35,5.547-0.492,6.867,0.766c1.183,1.127,0.747,4.102,0.356,5.535c-0.721,2.646-8.936,10.994-3.764,13.661
							c5.046,2.603,7.005-6.643,7.842-9.267c1.208-3.788,10.059-12.832,12.444-4.642c1.56,5.353-3.525,10.298-7.102,13.338
							c-2.177,1.85-6.211,7.784-0.603,8.252c5.758,0.479,8.84-8.74,11.25-12.398c-0.089,0.134,1.879-2.933,2.568-3.188
							c1.065,0.092,2.132,0.184,3.198,0.275c2.06-0.711,3.349-0.224,3.864,1.462c1.263,1.582,1.896,4.303,2.13,6.234
							c0.69,5.709-2.397,10.58-7.632,12.694c-3.068,1.239-8.753,5.616-4.919,9.445c3.723,3.719,8.712-3.241,10.471-5.697
							c0.725-1.011,1.312-2.521,2.392-3.14c1.867-1.067,4.501,0.068,4.891,2.271c0.325,1.834-0.356,4.143-0.537,5.983
							c-0.212,2.17,0.104,5.621-0.745,7.627c-0.948,2.241-3.634,3.257-5.585,4.481c-2.041,1.281-4.071,2.584-6.125,3.844
							c-0.628,0.385-1.321,0.962-2.016,1.213c-0.226,0.128-0.451,0.256-0.676,0.385c-4.116,0.433-5.47-0.447-4.061-2.642
							c0.524-3.493,4.107-6.129,4.596-9.82c0.531-4.026-2.668-6.353-6.207-4.006c-1.763,1.17-2.845,3.022-2.98,5.124
							c-0.074,1.167,0.364,2.081,0.413,3.203c0.17,3.926-1.847,6.975-4.844,9.328c-3.103,2.435-9.544,4.814-13.6,3.72
							c-7.134-1.925,0.976-10.334,3.059-13.419c1.538-2.277,5.915-10.467,0.062-11.001c-1.881-0.172-3.361,1.393-4.178,2.893
							c-2.133,3.918-1.771,8.019-5.113,11.564c-2.369,2.516-9.425,6.925-10.927,0.489c-0.661-2.83,1.344-6.215,3.26-8.137
							c2.376-2.384,5.861-3.935,6.659-7.519c1.253-5.63-4.736-4.533-7.18-1.464c-2.796,3.514-4.629,9.522-10.12,9.619
							c-6.52,0.113-5.77-11.608-5.54-15.933C685.467,343.187,687.858,336.014,694.138,330.435c1.446-1.285-0.683-3.4-2.122-2.121
							c-4.385,3.896-8.057,9.655-9.117,15.496c-1.198,6.605-3.021,19.43,2.437,24.768c4.333,4.239,11.268,0.313,14.321-3.597
							c1.367-1.75,1.981-3.888,3.804-4.99c2.777-1.681-1.595,2.22-1.947,2.532c-0.789,0.699-1.66,1.24-2.42,1.989
							c-2.438,2.405-4.182,5.881-4.24,9.351c-0.105,6.191,5.754,8.474,10.943,6.332c3.515-1.45,6.378-4.599,8.146-7.901
							c0.916-1.712,1.033-4.326,1.996-5.827c-0.045,0.069,1.252-4.206,1.342-0.041c0.02,0.955-2.259,3.573-2.779,4.288
							c-2.719,3.737-9.636,12.805-2.333,15.96c6.326,2.733,16.392-1.111,20.671-5.91c2.271-2.546,3.462-5.292,3.783-8.645
							c0.054-0.56-0.254-1.157-0.233-1.72c0.213-1.483,0.425-2.968,0.638-4.452c1.991,0.535,2.488,1.438,1.492,2.705
							c-0.362,2.402-2.885,4.772-3.764,7.088c-2.777,7.308,3.802,8.763,9.17,5.804c4.353-2.399,8.552-5.256,12.734-7.939
							c3.57-2.291,2.639-5.836,3.037-9.909c0.391-4.006,2.712-18.321-6.117-14.725c-2.715,1.105-4.396,3.918-6.032,6.188
							c-0.252,0.349-2.742,3.817-2.949,3.648c0.017-0.462,0.032-0.923,0.049-1.385c-0.391-1.263,0.084-1.871,1.423-1.825
							c1.229-0.94,2.831-1.174,4.103-2.275c5.813-5.035,6.248-13.018,3.127-19.594c-3.235-6.819-8.918-8.01-13.872-1.937
							c-2.31,2.83-3.765,8.788-6.819,10.707c-1.907,1.197-2.206,0.564,0.134-1.408c0.503-0.423,0.935-0.714,1.466-1.226
							c1.583-1.524,2.966-3.304,3.999-5.246c2.798-5.257,2.613-14.896-5.492-14.521c-3.404,0.156-6.658,2.623-8.672,5.2
							c-1.151,1.474-1.929,3.016-2.47,4.802c-0.354,1.168-0.429,2.441-0.85,3.584c-0.709,1.93-4.063,4.898-1.519,0.697
							c2.157-3.563,4.787-6.328,4.557-10.82c-0.149-2.928-1.541-5.735-4.438-6.742c-3.841-1.333-8.603,0.955-12.026,2.404
							c-5.526,2.339-10.578,5.37-15.279,9.092C690.503,329.511,692.639,331.621,694.138,330.435z"/>
					</g>
				</g>
				<g>
					<path d="M683.531,280.036c-0.95-7.103,0.029-14.282,1.887-20.903c0.826-2.946,1.978-5.918,4.251-7.724
						c3.871-3.073,10.614-1.337,13.474,3.471c0.915,1.538,1.463,3.294,2.559,4.705s3.077,2.38,4.367,1.467
						c1.513-1.071,0.875-3.833-0.552-5.357c-1.427-1.523-3.364-2.349-4.913-3.729c-3.392-3.022-4.235-8.64-2.017-12.146
						s7.048-4.626,11.058-2.806c4.009,1.819,6.959,6.271,7.395,10.73c0.216,2.212,0.286,5.092,2.289,5.948
						c1.16,0.496,2.448-0.126,3.016-1.185c0.566-1.059,0.526-2.433,0.207-3.698c-0.813-3.221-3.196-5.836-5.118-8.592
						c-1.921-2.755-3.497-6.329-2.346-9.199c1.264-3.15,5.082-3.847,8.413-4.051c3.997-0.245,8.214-0.261,12.014,1.672
						c3.8,1.932,6.977,6.398,6.245,10.512c-0.359,2.017-1.596,3.863-1.145,5.955c0.556,2.582,4.071,4.064,5.817,2.454
						c2.083-1.923,0.849-5.788-0.717-8.577c-1.564-2.789-3.427-6.132-2.2-8.788c0.841-1.82,2.959-2.579,4.966-2.39
						s3.946,1.152,5.832,2.1c4.335,2.178,8.67,4.355,13.005,6.533l0.017,0.026c-0.13,4.844-0.259,9.688-0.388,14.531
						c-0.057,2.106-0.124,4.269-0.906,6.124s-2.453,3.36-4.457,3.238c-2.924-0.178-4.992-3.396-6.713-6.093s-4.548-5.61-7.229-4.687
						c-2.247,0.773-2.602,4.568-0.587,6.278c1.633,1.386,3.847,1.172,5.797,1.81c3.976,1.302,6.413,6.209,6.321,10.466
						s-2.101,7.96-4.207,11.36c-1.756,2.834-4.176,5.864-7.555,5.485c-3.076-0.345-5.484-3.421-7.007-6.415s-2.703-6.328-5.16-8.566
						c-0.966-0.88-2.16-1.564-3.362-1.566c-1.201-0.002-2.359,0.837-2.471,2.092c-0.191,2.167,2.316,3.591,4.166,4.828
						c3.729,2.492,6.262,7.192,5.971,11.581c-0.291,4.388-3.563,8.106-7.707,8.4c-4.144,0.293-8.7-3.106-9.763-7.52
						c-0.485-2.016-0.297-4.11-0.967-6.086s-2.805-3.844-4.466-3.02c-1.416,0.703-1.498,2.904-0.771,4.536
						c0.727,1.631,2.018,2.944,2.941,4.477c2.89,4.79,1.232,11.543-3.311,13.495c-2.668,1.146-5.834,0.753-8.825,0.087
						c-6.722-1.498-13.314-4.303-19.338-8.228C691.341,293.074,684.466,287.028,683.531,280.036z"/>
					<g>
						<path d="M685.031,280.036c-0.785-7.05-0.922-29.043,9.8-28.591c5.069,0.214,6.535,4.136,8.842,7.782
							c1.179,1.863,3.066,3.906,5.522,3.652c5.642-0.585,2.474-7.413-0.073-9.512c-2.099-1.729-4.22-2.661-5.417-5.31
							c-1.491-3.298-1.05-6.546,1.831-8.743c7.029-5.362,13.232,3.143,14.108,9.578c0.436,3.199,2.688,8.996,6.983,5.563
							c5.037-4.026-1.634-11.582-3.899-14.995c-0.533-0.802-1.098-1.646-1.507-2.526c-0.896-1.923-0.819-5.605,0.962-7.233
							c1.531-1.4,5.181-1.259,7.041-1.319c6.486-0.213,15.87,2.25,14.916,10.623c-0.311,2.722-1.989,5.207-0.416,7.893
							c0.997,1.701,3.109,2.924,5.087,2.806c6.247-0.373,3.782-8.113,2.199-11.477c-0.513-1.09-2.128-3.148-1.996-4.086
							c0.76-0.769,1.52-1.538,2.279-2.307c0.83-2.247,2.017-2.854,3.559-1.82c2.126,0.277,4.871,2.276,6.767,3.229
							c2.01,1.009,4.711,1.914,6.503,3.267c2.361,1.781,1.592,4.449,1.518,7.222c-0.064,2.42-0.075,4.849-0.193,7.266
							c-0.056,1.128,0.104,3.577-0.389,4.282c-0.957,0.399-1.914,0.799-2.871,1.197c-1.623,1.729-2.894,1.796-3.812,0.203
							c-2.669-2.114-3.383-5.948-6.548-7.787c-3.682-2.139-7.911-0.07-7.542,4.419c0.187,2.274,1.6,3.925,3.69,4.771
							c2.463,0.997,4.913,0.602,6.95,2.677c2.272,2.316,2.93,5.63,2.573,8.723c-0.428,3.702-3.071,10.032-6.241,12.42
							c-7.088,5.338-9.984-5.898-12.512-9.899c-1.885-2.983-7.644-8.007-10.359-2.978c-1.055,1.953-0.098,3.864,1.311,5.309
							c3.55,3.64,7.996,5.374,8.354,11.276c0.498,8.195-9.566,10.977-13.653,3.952c-1.997-3.435-0.477-8.116-3.609-11.048
							c-4.232-3.962-8.158,1.012-6.21,5.487c1.972,4.528,6.32,8.17,2.956,13.489c-3.574,5.652-13.053,1.988-17.939,0.133
							c-8.692-3.302-16.748-8.121-18.617-17.984c-0.359-1.895-3.251-1.092-2.894,0.798c1.184,6.241,5.323,12.116,10.787,15.347
							c6.816,4.03,18.95,10.294,27.031,6.879c5.498-2.323,7.112-9.423,4.795-14.562c-0.461-1.021-1.098-1.884-1.733-2.796
							c-0.633-0.906-2.079-4.646,1.199-0.549c0.686,0.855,0.52,3.849,0.963,4.927c1.275,3.104,4.006,5.616,7.195,6.644
							c6.366,2.05,12.318-2.988,12.726-9.394c0.218-3.429-1.111-6.885-3.187-9.567c-0.985-1.273-2.61-2.09-3.527-3.31
							c-0.532-0.708-4.259-1.612-0.881-3.56c0.869-0.501,3.304,4.028,3.759,4.901c2.781,5.332,7.323,14.669,14.795,9.77
							c6.021-3.948,10.147-14.433,8.039-21.323c-0.859-2.809-2.676-5.535-5.292-6.977c-0.305-0.168-1.04-0.478-1.504-0.646
							c-2.443-0.882-3.039,0.503-2.977-2.682c0.086-4.385,2.19-0.097,3.302,1.483c0.618,0.879,1.152,1.807,1.807,2.66
							c3.992,5.199,10.681,5.563,12.569-1.607c1.243-4.716,0.634-10.23,0.763-15.069c0.154-5.807,0.49-5.296-4.703-7.904
							c-4.793-2.408-16.089-10.864-21.145-4.629c-2.001,2.469-1.173,5.711,0.016,8.34c0.625,1.382,1.449,2.651,2.059,4.041
							c0.066,0.149,2.784,8.166-0.957,5.784c-1.591-1.014-1.232-4.268-1.171-5.601c0.068-1.484,0.582-1.761,0.551-3.267
							c-0.187-8.904-9.8-12.48-17.268-12.403c-6.343,0.066-14.381,1.856-12.619,10.009c0.873,4.041,3.992,6.897,6.03,10.324
							c0.336,0.566,1.782,2.781,1.599,3.508c-0.715,0.54-1.43,1.08-2.145,1.62c-0.212-1.019-0.353-2.047-0.421-3.084
							c-0.305-1.781-0.633-3.478-1.425-5.117c-3.311-6.858-13.161-11.442-18.991-4.644c-2.468,2.878-2.775,6.962-1.549,10.449
							c0.622,1.766,1.617,3.301,2.969,4.594c0.504,0.482,1.039,0.748,1.524,1.186c1.728,1.011,3.144,2.383,4.249,4.117
							c-1.018-0.205-2.035-0.41-3.053-0.615c-1.52-1.224-2.086-4.361-3.632-5.89c-1.066-1.054-2.356-1.887-3.729-2.477
							c-3.211-1.379-7.107-1.368-9.991,0.767c-3.644,2.698-4.854,7.815-5.79,11.975c-1.334,5.922-1.763,11.908-1.09,17.947
							C682.242,281.935,685.244,281.956,685.031,280.036z"/>
					</g>
				</g>
				<g>
					<path d="M636.287,344.2c-6.981,1.152-13.681,0.723-19.684-0.458c-2.671-0.526-5.307-1.317-6.618-3.092
						c-2.233-3.023,0.671-8.659,5.804-11.262c1.642-0.833,3.426-1.376,4.979-2.352c1.554-0.975,2.847-2.654,2.209-3.667
						c-0.749-1.188-3.513-0.52-5.235,0.733s-2.869,2.89-4.477,4.235c-3.52,2.947-9.058,3.936-12.01,2.294
						c-2.951-1.641-3.136-5.554-0.654-8.946c2.48-3.393,7.289-6.051,11.643-6.643c2.159-0.293,4.932-0.502,6.12-2.193
						c0.688-0.98,0.33-2.007-0.58-2.418s-2.234-0.307-3.506,0.022c-3.235,0.837-6.18,2.935-9.174,4.659
						c-2.993,1.724-6.708,3.206-9.246,2.41c-2.787-0.875-2.751-3.979-2.335-6.707c0.501-3.273,1.262-6.741,3.813-9.967
						c2.551-3.227,7.415-6.072,11.221-5.686c1.867,0.189,3.409,1.109,5.497,0.63c2.576-0.593,4.644-3.562,3.421-4.913
						c-1.459-1.612-5.39-0.396-8.351,1.038c-2.96,1.433-6.506,3.14-8.825,2.27c-1.59-0.596-1.927-2.298-1.376-3.958
						c0.551-1.661,1.83-3.307,3.085-4.906c2.884-3.679,5.768-7.358,8.651-11.037l0.028-0.015c4.618-0.147,9.236-0.294,13.854-0.441
						c2.008-0.064,4.067-0.122,5.701,0.425c1.634,0.546,2.768,1.841,2.283,3.496c-0.708,2.413-4.174,4.283-7.073,5.839
						c-2.9,1.557-6.213,4.033-5.821,6.19c0.328,1.808,3.898,1.9,5.908,0.154c1.629-1.416,1.83-3.225,2.801-4.862
						c1.979-3.337,7.129-5.599,11.191-5.745c4.063-0.147,7.24,1.311,10.111,2.865c2.393,1.295,4.851,3.127,3.866,5.926
						c-0.896,2.548-4.287,4.689-7.437,6.098c-3.148,1.409-6.561,2.554-9.157,4.691c-1.021,0.841-1.896,1.858-2.119,2.847
						c-0.223,0.989,0.368,1.897,1.551,1.923c2.04,0.045,3.866-2.093,5.392-3.679c3.074-3.196,8.044-5.525,12.195-5.516
						s7.113,2.506,6.632,5.897c-0.481,3.393-4.577,7.318-9.001,8.423c-2.021,0.505-3.993,0.459-6.01,1.113s-4.198,2.508-3.715,3.831
						c0.413,1.127,2.508,1.079,4.204,0.396c1.697-0.683,3.193-1.813,4.831-2.653c5.121-2.627,11.287-1.617,12.322,2.018
						c0.607,2.134-0.352,4.758-1.541,7.253c-2.671,5.605-6.571,11.174-11.44,16.333C650.216,337.096,643.158,343.065,636.287,344.2z
						"/>
					<g>
						<path d="M635.888,342.754c-5.247,0.763-10.478,0.796-15.729,0.058c-1.917-0.271-4.476-0.422-6.263-1.32
							c-5.25-2.641-2.603-6.847,0.49-9.354c2.174-1.762,12.761-4.749,9.886-9.525c-2.717-4.513-9.001,1.809-10.932,3.612
							c-1.928,1.802-4.066,3.063-6.691,3.536c-1.169,0.21-3.811,0.397-4.636-0.423c-1.184-1.176-0.824-5.425-0.183-6.647
							c2.391-4.557,8.382-5.599,12.86-6.495c2.848-0.57,8.535-4.355,3.85-7.058c-5.794-3.343-12.783,5.533-17.932,6.453
							c-1.61,0.287-4.851-0.691-5.793-2.403c-0.237-0.432,0.471-3.822,0.389-3.385c0.395-2.119,1.009-4.192,2.04-6.09
							c1.222-2.247,3.121-4.104,5.323-5.393c3.094-1.811,5.53-1.462,8.933-1.046c3.226,0.395,9.158-2.105,7.619-6.357
							c-1.79-4.944-9.356-0.846-12.273,0.434c-0.925,0.374-1.85,0.748-2.774,1.121c-1.105-0.908-2.211-1.817-3.316-2.726
							c-0.143-0.61,1.941-2.873,2.313-3.36c1.236-1.628,2.523-3.22,3.785-4.828c1.351-1.724,2.818-4.378,4.799-5.338
							c2.295-1.113,5.396-0.648,7.941-0.73c2.01-0.063,5.225-0.723,7.197-0.185c0.721,0.197,3.53,2.299,3.469,3.328
							c-0.033,0.556-2.313,1.801-3.019,2.248c-2.785,1.766-6.335,3.024-8.195,5.942c-2.013,3.156-0.091,6.117,3.627,5.828
							c2.115-0.165,3.969-1.349,5.149-3.085c0.986-1.448,1.315-3.15,2.463-4.516c1.632-1.94,4.021-3.148,6.461-3.771
							c3.333-0.852,10.982-0.358,13.325,2.904c0.177,0.825,0.354,1.651,0.53,2.477c1.164,1.896,0.725,3.254-1.319,4.073
							c-0.802,0.586-1.738,1.091-2.61,1.542c-1.77,0.916-3.657,1.58-5.465,2.412c-2.443,1.125-11.071,5.715-7.016,9.61
							c3.932,3.776,10.436-5.17,13.288-6.621c2.422-1.233,5.958-2.358,8.622-1.389c5.531,2.014,1.572,7.788-1.766,9.702
							c-3.682,2.112-8.475,1.22-11.856,3.883c-3.569,2.812-2.021,6.977,2.648,6.104c4.837-0.904,8.178-5.731,13.659-4.255
							c6.758,1.82-0.508,12.486-2.854,15.931C650.939,334.985,644.852,340.847,635.888,342.754
							c-1.887,0.401-1.089,3.294,0.798,2.893c7.258-1.544,13.425-5.768,18.057-11.431c3.891-4.756,12.124-14.475,9.826-21.284
							c-2.187-6.478-11.273-4.485-15.657-2.062c-0.666,0.368-1.612,1.15-2.384,1.396c-0.475-0.177-0.948-0.353-1.423-0.529
							c0.997-0.45,2.031-0.739,3.104-0.868c1.897-0.374,3.761-0.504,5.571-1.236c3.256-1.316,6.693-4.087,7.867-7.525
							c2.064-6.048-3.759-9.526-9.123-9.041c-3.416,0.31-6.825,1.848-9.545,3.888c-1.874,1.405-3.222,3.435-5.368,4.274
							c-3.365,1.316,1.663-2.154,2.462-2.642c1.261-0.769,2.673-1.311,4.02-1.9c4.33-1.898,14.611-6.452,10.045-12.85
							c-4.07-5.704-14.033-7.177-20.129-4.829c-2.751,1.06-5.377,2.769-6.963,5.311c-0.485,0.778-0.676,1.747-1.153,2.514
							c-0.915,0.903-1.829,1.806-2.744,2.708c-0.414-0.516-0.828-1.032-1.242-1.548c0.649-1.883,5.211-3.51,6.851-4.52
							c4.677-2.883,8.377-9.286,0.588-10.968c-4.557-0.982-10.076-0.004-14.698,0.144c-5.54,0.177-5.297,0.898-8.832,5.408
							c-2.484,3.169-12.366,12.294-7.234,16.793c2.287,2.005,5.788,0.785,8.214-0.215c1.053-0.435,2.047-0.966,3.089-1.419
							c-0.032,0.014,6.094-3.04,2.726-0.148c-1.814,1.558-1.296,0.876-3.651,0.652c-0.635-0.061-1.262-0.084-1.901-0.04
							c-8.009,0.548-13.378,8.078-14.742,15.326c-1.122,5.962,0.488,11.534,7.707,9.895c4.402-1,7.842-4.122,11.865-5.952
							c3.205-1.459,3.977-0.1-0.04,0.65c-2.161,0.403-4.229,1.028-6.188,2.048c-5.06,2.635-12.854,11.766-5.158,16.283
							c2.856,1.676,6.864,1.043,9.756-0.113c2.039-0.814,3.621-1.999,5.207-3.469c0.745-0.691,1.355-1.533,2.142-2.182
							c4.966-4.093,2.693-0.723,1.205,0.238c-3.451,2.229-6.967,2.935-9.359,6.653c-1.567,2.436-2.51,5.751-0.759,8.351
							c2.228,3.31,7.286,3.83,10.855,4.346c5.737,0.83,11.414,0.726,17.14-0.106C638.589,345.37,637.779,342.479,635.888,342.754z"
							/>
					</g>
				</g>
				<g>
					<g>
						<path d="M631.403,417.154c5.242-15.016,11.03-30.308,12.522-46.265c1.4-14.958-2.215-29.215-8.167-42.864
							c-0.771-1.766-3.355-0.239-2.591,1.515c5.932,13.603,9.271,27.836,7.618,42.714c-1.685,15.173-7.278,29.786-12.276,44.104
							C627.873,418.184,630.77,418.969,631.403,417.154L631.403,417.154z"/>
					</g>
				</g>
				<g>
					<g>
						<path d="M645.972,420.918c5.969-16.166,6.63-33.728,14.242-49.392c7.456-15.342,23.287-29.928,41.676-26.252
							c1.886,0.377,2.692-2.515,0.798-2.893c-17.194-3.438-33.307,7.855-41.974,21.972c-10.521,17.138-10.827,37.329-17.635,55.767
							C642.409,421.934,645.308,422.716,645.972,420.918L645.972,420.918z"/>
					</g>
				</g>
				<g>
					<path d="M676.186,406.907c-5.113-2.494-11.884-2.1-17.211,1.001c-5.326,3.102-9.021,8.799-9.389,14.483"/>
					<g>
						<path d="M676.942,405.611c-12.794-5.498-27.294,2.948-28.856,16.78c-0.216,1.915,2.786,1.9,3,0
							c1.293-11.441,13.739-18.746,24.343-14.189C677.184,408.956,678.713,406.373,676.942,405.611L676.942,405.611z"/>
					</g>
				</g>
				<g>
					<g>
						<path d="M611.164,379.867c16.124,4.065,14.803,23.005,12.987,35.87c-0.266,1.888,2.624,2.704,2.894,0.797
							c2.051-14.537,2.865-35.034-15.084-39.56C610.089,376.502,609.29,379.395,611.164,379.867L611.164,379.867z"/>
					</g>
				</g>
				<g>
					<g>
						<path d="M703.572,274.814c-33.756,40.882-57.122,90.241-64.767,142.864c-0.274,1.889,2.616,2.704,2.894,0.798
							c7.567-52.096,30.563-101.052,63.994-141.541C706.913,275.458,704.803,273.324,703.572,274.814L703.572,274.814z"/>
					</g>
				</g>
			</g>
			<g>
				<path fill="#1035A0" d="M535.016,465.881L535.016,465.881c0,19.234,15.737,34.972,34.973,34.972h58.575
					c19.234,0,34.972-15.737,34.972-34.972l0,0v-35.778h-128.52V465.881z"/>
				<g>
					<path fill="#184EED" d="M531.34,422.687c0,0-2.134,5.857,1.34,7.416c3.475,1.559,62.244,19.508,135.488,0
						c1.813-0.482,1.736-1.915,1.158-7.416"/>
					<ellipse fill="#184EED" cx="600.333" cy="422.687" rx="68.993" ry="12.449"/>
					<ellipse fill="#1035A0" cx="600.478" cy="421.474" rx="63.058" ry="8.629"/>
				</g>
			</g>
			<g>
				<path fill="#3799F0" d="M570.769,380.524c2.631,8.211,3.298,16.42,2.932,23.946c-0.163,3.35-0.653,6.713-2.568,8.683
					c-3.262,3.354-10.596,1.044-14.654-4.616c-1.299-1.812-2.271-3.856-3.727-5.529c-1.454-1.673-3.716-2.879-4.828-1.89
					c-1.306,1.162-0.006,4.366,1.814,6.186c1.821,1.818,4.004,2.856,5.918,4.516c4.189,3.633,6.365,10.13,4.902,14.059
					s-6.165,4.991-10.709,2.713s-8.612-7.533-10.099-12.682c-0.738-2.554-1.481-5.868-3.738-6.945
					c-1.308-0.624-2.486,0.03-2.823,1.221c-0.336,1.191,0.025,2.773,0.648,4.243c1.586,3.74,4.645,6.858,7.262,10.116
					c2.616,3.258,5.068,7.439,4.554,10.686c-0.563,3.564-4.326,4.188-7.701,4.268c-4.05,0.096-8.38-0.083-12.734-2.481
					c-4.355-2.398-8.66-7.681-8.866-12.376c-0.102-2.303,0.738-4.368-0.212-6.795c-1.173-2.994-5.132-4.862-6.55-3.091
					c-1.693,2.113,0.476,6.615,2.734,9.895s4.95,7.209,4.31,10.206c-0.439,2.055-2.439,2.828-4.546,2.517
					c-2.106-0.311-4.324-1.509-6.482-2.685c-4.962-2.705-9.925-5.411-14.887-8.116l-0.022-0.031
					c-0.996-5.563-1.992-11.127-2.988-16.689c-0.434-2.42-0.868-4.902-0.496-6.999c0.371-2.097,1.738-3.749,3.826-3.516
					c3.045,0.34,5.921,4.137,8.317,7.317c2.396,3.18,5.98,6.661,8.521,5.725c2.129-0.785,1.608-5.132-0.86-7.191
					c-2.001-1.669-4.227-1.526-6.378-2.351c-4.389-1.682-8.038-7.438-8.935-12.327c-0.897-4.891,0.303-9.055,1.676-12.866
					c1.144-3.176,2.925-6.548,6.484-5.955c3.242,0.54,6.434,4.188,8.696,7.701c2.262,3.514,4.251,7.402,7.298,10.09
					c1.197,1.056,2.584,1.899,3.82,1.957c1.235,0.059,2.229-0.853,2.052-2.291c-0.308-2.482-3.217-4.236-5.406-5.743
					c-4.413-3.04-8.11-8.562-8.834-13.594c-0.724-5.031,1.771-9.155,5.962-9.3c4.189-0.145,9.665,3.976,11.785,9.1
					c0.968,2.34,1.262,4.739,2.411,7.042s3.778,4.549,5.293,3.679c1.291-0.742,0.862-3.27-0.265-5.179s-2.759-3.479-4.066-5.284
					c-4.085-5.642-3.956-13.329,0.259-15.362c2.475-1.193,5.819-0.595,9.049,0.312c7.255,2.033,14.684,5.565,21.788,10.357
					C559.705,365.171,568.179,372.441,570.769,380.524z"/>
			</g>
			<g>
				<path fill="#3799F0" d="M628.647,392.813c4.458-5.11,9.714-8.897,14.93-11.711c2.321-1.253,4.784-2.29,6.89-1.802
					c3.585,0.832,5.012,6.709,2.852,11.743c-0.691,1.61-1.673,3.098-2.208,4.757c-0.534,1.66-0.427,3.673,0.692,4.02
					c1.313,0.406,2.941-1.771,3.426-3.737c0.483-1.965,0.295-3.857,0.634-5.819c0.741-4.299,4.231-8.405,7.471-9.019
					c3.24-0.612,5.867,2.121,6.181,6.106c0.314,3.986-1.569,8.862-4.431,11.957c-1.419,1.534-3.349,3.383-3.155,5.341
					c0.111,1.134,1.031,1.661,1.97,1.403s1.856-1.145,2.593-2.162c1.873-2.588,2.729-5.915,3.857-9.002
					c1.129-3.086,2.948-6.438,5.342-7.411c2.63-1.069,4.579,1.21,6.005,3.45c1.712,2.688,3.353,5.675,3.509,9.582
					s-1.65,8.953-4.727,11.002c-1.51,1.004-3.241,1.278-4.488,2.905c-1.539,2.007-1.188,5.432,0.582,5.667
					c2.11,0.28,4.26-3.011,5.549-5.865c1.29-2.854,2.841-6.264,5.119-7.051c1.563-0.54,2.896,0.492,3.543,2.037
					c0.647,1.544,0.742,3.524,0.828,5.455c0.196,4.441,0.393,8.882,0.59,13.323l-0.012,0.028c-3.341,2.933-6.682,5.865-10.021,8.798
					c-1.453,1.275-2.947,2.577-4.51,3.18s-3.23,0.354-3.923-1.146c-1.01-2.189,0.377-5.669,1.544-8.576
					c1.166-2.906,2.053-6.735,0.389-8.064c-1.395-1.113-4.108,1.004-4.491,3.504c-0.311,2.025,0.69,3.465,1.011,5.25
					c0.652,3.638-1.738,8.436-4.666,11.027c-2.928,2.593-6.219,3.478-9.343,4.104c-2.604,0.521-5.599,0.693-6.646-1.944
					c-0.955-2.402,0.203-6.034,1.648-8.986c1.445-2.951,3.255-5.872,3.825-9.016c0.224-1.235,0.228-2.513-0.235-3.368
					c-0.464-0.855-1.481-1.154-2.377-0.449c-1.546,1.217-1.544,3.889-1.669,5.975c-0.252,4.207-2.466,8.942-5.559,11.476
					c-3.094,2.533-6.885,2.53-8.686-0.232c-1.802-2.762-1.254-8.123,1.333-11.634c1.182-1.604,2.678-2.777,3.761-4.487
					s1.526-4.394,0.324-5.06c-1.023-0.567-2.551,0.749-3.379,2.284c-0.827,1.535-1.221,3.272-1.904,4.886
					c-2.137,5.045-7.364,8.084-10.447,6.073c-1.81-1.181-2.767-3.676-3.47-6.219c-1.581-5.712-2.224-12.148-1.887-18.881
					C622.81,406.504,624.259,397.843,628.647,392.813z"/>
			</g>
			<g>
				<path fill="#057FED" d="M633.612,307.931c4.963-6.268,11.091-11.02,17.289-14.622c2.759-1.604,5.722-2.962,8.424-2.501
					c4.602,0.784,7.118,7.633,5.029,13.685c-0.669,1.937-1.716,3.742-2.183,5.728c-0.466,1.986-0.082,4.353,1.364,4.699
					c1.697,0.407,3.474-2.249,3.838-4.592c0.364-2.344-0.106-4.563,0.077-6.895c0.399-5.106,4.271-10.139,8.262-11.038
					c3.99-0.9,7.625,2.178,8.512,6.858c0.886,4.681-0.876,10.531-4.084,14.335c-1.592,1.887-3.784,4.171-3.301,6.468
					c0.28,1.331,1.5,1.902,2.646,1.547s2.188-1.451,2.987-2.69c2.031-3.153,2.693-7.122,3.729-10.821
					c1.036-3.7,2.904-7.749,5.789-9.028c3.168-1.405,5.896,1.175,7.962,3.736c2.479,3.074,4.907,6.505,5.587,11.103
					c0.679,4.596-0.965,10.643-4.573,13.226c-1.77,1.267-3.909,1.686-5.273,3.671c-1.684,2.45-0.819,6.468,1.431,6.647
					c2.684,0.214,4.974-3.782,6.24-7.217c1.266-3.435,2.79-7.539,5.553-8.592c1.894-0.722,3.694,0.422,4.697,2.207
					c1.004,1.784,1.368,4.113,1.714,6.385c0.795,5.224,1.591,10.447,2.386,15.67l-0.012,0.034c-3.83,3.64-7.659,7.279-11.489,10.92
					c-1.666,1.582-3.381,3.199-5.268,3.995s-4.011,0.595-5.064-1.136c-1.537-2.524-0.227-6.703,0.878-10.192
					c1.105-3.49,1.745-8.052-0.508-9.526c-1.887-1.237-5.032,1.407-5.204,4.375c-0.139,2.405,1.296,4.047,1.917,6.133
					c1.269,4.252-1.139,10.037-4.493,13.254c-3.354,3.216-7.375,4.439-11.218,5.348c-3.203,0.758-6.939,1.124-8.582-1.927
					c-1.495-2.779-0.489-7.124,0.96-10.682c1.449-3.559,3.358-7.1,3.686-10.837c0.129-1.469-0.024-2.973-0.711-3.956
					c-0.688-0.982-2.002-1.279-3.038-0.399c-1.79,1.519-1.458,4.667-1.356,7.134c0.203,4.972-1.99,10.674-5.56,13.829
					c-3.568,3.156-8.327,3.36-10.929,0.203c-2.602-3.156-2.577-9.506,0.237-13.785c1.284-1.955,3.017-3.421,4.164-5.495
					c1.148-2.075,1.373-5.263-0.217-5.981c-1.355-0.612-3.11,1.022-3.959,2.877c-0.849,1.855-1.127,3.924-1.786,5.864
					c-2.059,6.063-8.244,9.931-12.36,7.73c-2.418-1.292-3.927-4.182-5.124-7.14c-2.689-6.646-4.291-14.197-4.699-22.15
					C627.978,324.388,628.727,314.101,633.612,307.931z"/>
			</g>
			<g>
				<path fill="#3799F0" d="M608.719,252.371c-3.109-8.068-4.082-16.543-3.912-24.517c0.076-3.549,0.508-7.179,2.53-9.644
					c3.446-4.197,11.489-3.298,16.073,1.798c1.467,1.631,2.587,3.574,4.219,5.027c1.633,1.453,4.129,2.249,5.308,0.979
					c1.384-1.49-0.126-4.583-2.16-6.112c-2.035-1.53-4.44-2.166-6.57-3.509c-4.666-2.94-7.228-9.307-5.756-13.732
					c1.472-4.427,6.552-6.519,11.562-5.071c5.01,1.446,9.592,6.114,11.364,11.207c0.879,2.526,1.787,5.85,4.274,6.511
					c1.44,0.384,2.703-0.549,3.032-1.868c0.329-1.318-0.111-2.904-0.833-4.317c-1.837-3.595-5.258-6.23-8.201-9.104
					c-2.943-2.875-5.735-6.753-5.275-10.266c0.506-3.857,4.578-5.293,8.245-6.078c4.4-0.942,9.114-1.655,13.922-0.043
					c4.808,1.611,9.647,6.26,10.015,11.143c0.18,2.396-0.672,4.737,0.436,7.086c1.365,2.897,5.727,4.035,7.215,1.883
					c1.776-2.569-0.718-6.842-3.272-9.814c-2.555-2.972-5.601-6.535-4.994-9.813c0.416-2.247,2.567-3.474,4.867-3.585
					c2.299-0.111,4.747,0.685,7.129,1.471c5.478,1.807,10.954,3.614,16.432,5.422l0.025,0.028c1.251,5.63,2.502,11.261,3.753,16.891
					c0.545,2.448,1.092,4.964,0.752,7.24c-0.341,2.277-1.776,4.295-4.054,4.484c-3.322,0.276-6.563-3.11-9.266-5.949
					s-6.704-5.747-9.438-4.236c-2.291,1.267-1.594,5.719,1.153,7.367c2.226,1.336,4.641,0.723,7.006,1.142
					c4.822,0.852,8.964,6.133,10.087,11.077c1.124,4.944-0.056,9.563-1.434,13.848c-1.147,3.57-2.982,7.479-6.871,7.597
					c-3.541,0.107-7.121-3.059-9.688-6.274c-2.565-3.216-4.846-6.883-8.24-9.069c-1.334-0.859-2.867-1.456-4.212-1.26
					c-1.346,0.195-2.399,1.357-2.162,2.83c0.409,2.54,3.626,3.776,6.052,4.903c4.89,2.271,9.077,7.298,10.016,12.427
					c0.939,5.129-1.649,9.975-6.201,10.997c-4.551,1.022-10.629-2.163-13.089-7.099c-1.123-2.254-1.516-4.711-2.834-6.888
					c-1.319-2.178-4.246-3.988-5.866-2.761c-1.381,1.047-0.839,3.609,0.443,5.379c1.283,1.77,3.105,3.078,4.581,4.7
					c4.612,5.07,4.704,13.163,0.184,16.172c-2.654,1.767-6.31,1.833-9.849,1.555c-7.949-0.627-16.134-2.789-24.003-6.342
					C621.212,266.182,611.779,260.314,608.719,252.371z"/>
			</g>
			<g>
				<path fill="#057FED" d="M574.352,334.455c-7.478,2.484-15.096,3.091-22.151,2.712c-3.141-0.169-6.316-0.65-8.295-2.489
					c-3.37-3.133-1.745-10.138,3.247-13.997c1.598-1.235,3.437-2.158,4.894-3.543s2.42-3.543,1.415-4.611
					c-1.18-1.252-4.078-0.021-5.645,1.713s-2.378,3.818-3.789,5.642c-3.088,3.993-8.998,6.049-12.773,4.635
					s-5.109-5.915-3.311-10.252c1.798-4.337,6.411-8.208,11.11-9.61c2.331-0.695,5.373-1.394,6.216-3.548
					c0.488-1.248-0.209-2.378-1.346-2.704s-2.588,0.014-3.916,0.604c-3.378,1.502-6.067,4.416-8.92,6.906s-6.58,4.818-9.649,4.314
					c-3.37-0.554-4.225-4.154-4.544-7.382c-0.384-3.874-0.531-8.014,1.393-12.17c1.924-4.155,6.546-8.253,10.915-8.432
					c2.144-0.089,4.133,0.723,6.33-0.177c2.712-1.11,4.169-4.889,2.412-6.252c-2.097-1.627-6.144,0.43-9.042,2.577
					c-2.899,2.147-6.374,4.707-9.22,4.082c-1.95-0.429-2.817-2.344-2.681-4.357c0.139-2.013,1.096-4.13,2.038-6.188
					c2.167-4.735,4.333-9.471,6.499-14.206l0.028-0.022c5.123-0.931,10.247-1.862,15.37-2.793c2.229-0.405,4.516-0.812,6.5-0.448
					c1.985,0.363,3.628,1.677,3.562,3.673c-0.097,2.912-3.435,5.647-6.23,7.927c-2.796,2.28-5.788,5.694-4.729,8.128
					c0.888,2.039,4.909,1.559,6.654-0.795c1.414-1.908,1.118-4.036,1.732-6.092c1.252-4.19,6.362-7.658,10.864-8.497
					c4.502-0.84,8.479,0.325,12.138,1.652c3.05,1.105,6.327,2.822,6.032,6.225c-0.269,3.099-3.445,6.137-6.563,8.287
					c-3.116,2.149-6.604,4.037-8.893,6.94c-0.899,1.142-1.586,2.465-1.551,3.646c0.035,1.182,0.959,2.137,2.288,1.972
					c2.296-0.285,3.724-3.061,4.973-5.148c2.519-4.208,7.407-7.724,12.054-8.396s8.68,1.729,9.119,5.737
					c0.438,4.008-3.012,9.229-7.644,11.236c-2.115,0.917-4.335,1.188-6.402,2.279c-2.067,1.09-3.975,3.596-3.052,5.048
					c0.787,1.237,3.116,0.837,4.817-0.233s3.05-2.625,4.641-3.868c4.972-3.886,12.161-3.732,14.365,0.306
					c1.295,2.371,0.978,5.567,0.366,8.652c-1.373,6.932-4.133,14.022-8.093,20.798C587.888,323.933,581.713,332.009,574.352,334.455
					z"/>
			</g>
			<g>
				<g>
					<path fill="#184EED" d="M589.674,419.516c1.529-18.136,3.488-36.642,0.804-54.764c-2.662-17.971-10.824-33.967-21.313-48.607
						c-1.114-1.556-3.718-0.06-2.591,1.515c10.344,14.438,18.403,30.16,21.011,47.89c2.621,17.827,0.593,36.134-0.911,53.967
						C586.512,421.439,589.513,421.429,589.674,419.516L589.674,419.516z"/>
				</g>
			</g>
			<g>
				<g>
					<path fill="#184EED" d="M607.057,421.474c2.061-19.822-2.35-39.709,1.685-59.438c3.896-19.053,17.771-38.678,39.341-37.385
						c1.929,0.115,1.922-2.885,0-3c-20.024-1.2-35.144,15.175-40.593,33.077c-6.676,21.932-1.114,44.442-3.433,66.746
						C603.856,423.392,606.858,423.378,607.057,421.474L607.057,421.474z"/>
				</g>
			</g>
			<g>
				<g>
					<path fill="#184EED" d="M637.452,399.049c-15.494-4.259-29.411,8.403-27.141,24.158c0.274,1.903,3.165,1.094,2.893-0.798
						c-1.953-13.552,10.388-24.059,23.45-20.468C638.519,402.454,639.314,399.561,637.452,399.049L637.452,399.049z"/>
				</g>
			</g>
			<g>
				<g>
					<path fill="#184EED" d="M556.551,379.655c19.345,1.971,23.36,24.306,25.068,39.86c0.209,1.898,3.211,1.92,3,0
						c-1.918-17.464-6.788-40.692-28.068-42.86C554.633,376.46,554.646,379.461,556.551,379.655L556.551,379.655z"/>
				</g>
			</g>
			<g>
				<g>
					<path fill="#184EED" d="M629.831,243.319c-26.729,54.378-37.679,115.77-31.258,176.031c0.202,1.899,3.204,1.921,3,0
						c-6.364-59.729,4.347-120.603,30.849-174.518C633.271,243.106,630.684,241.585,629.831,243.319L629.831,243.319z"/>
				</g>
			</g>
		</g>
		<g opacity="0.03">
			<g>
				<path stroke="#000000" stroke-miterlimit="10" d="M385.436,455.434L385.436,455.434c-2.975,9.834,1.589,20.678,10.141,24.099
					l26.042,10.415c8.552,3.421,17.982-1.826,20.957-11.66l0,0l5.533-18.291l-57.14-22.854L385.436,455.434z"/>
				<g>
					<path stroke="#000000" stroke-miterlimit="10" d="M390.48,432.697c0,0-1.854,2.615-0.551,4.03
						c1.304,1.414,24.656,21.041,60.238,24.092c0.881,0.076,1.068-0.67,1.661-3.585"/>
					<path stroke="#000000" stroke-miterlimit="10" d="M451.829,457.234c-1.063,3.515-15.658,0.871-32.599-5.904
						c-16.941-6.775-29.813-15.118-28.75-18.633c1.063-3.515,15.659-0.871,32.6,5.904
						C440.021,445.377,452.893,453.72,451.829,457.234z"/>
					<path stroke="#000000" stroke-miterlimit="10" d="M449.442,455.584c-0.737,2.437-13.886-0.608-29.37-6.801
						c-15.483-6.193-27.438-13.188-26.7-15.625c0.736-2.437,13.886,0.608,29.369,6.802
						C438.226,446.152,450.18,453.147,449.442,455.584z"/>
				</g>
			</g>
			<g>
				<g>
					<path d="M420.953,445.048c6.977-22.219,10.041-46.052,8.956-69.642"/>
					<g>
						<path d="M422.399,445.446c7.002-22.678,9.99-46.332,9.01-70.04c-0.079-1.924-3.08-1.934-3,0
							c0.97,23.459-1.975,46.803-8.902,69.243C418.936,446.498,421.83,447.289,422.399,445.446L422.399,445.446z"/>
					</g>
				</g>
				<g>
					<path d="M412.595,352.08c1.345,7.375,5.885,12.734,10.622,17.94c1.783,1.961,4.086,3.791,6.52,3.316
						c2.054-0.4,3.592-2.336,4.861-4.236c3.871-5.797,6.849-12.379,8.754-19.351"/>
					<g>
						<path d="M411.148,352.479c1.097,5.061,3.42,9.404,6.604,13.469c2.512,3.206,6.042,8.479,10.542,8.914
							c4.139,0.4,6.624-3.418,8.547-6.471c3.563-5.655,6.113-11.833,7.956-18.243c0.534-1.858-2.36-2.652-2.894-0.798
							c-1.468,5.108-7.865,26.599-16.498,20.753c-5.521-3.739-10.005-12.144-11.365-18.422
							C413.633,349.796,410.74,350.594,411.148,352.479L411.148,352.479z"/>
					</g>
				</g>
				<g>
					<path d="M418.434,347.953c1.776,8.538,4.979,16.681,9.382,23.853"/>
					<g>
						<path d="M416.986,348.353c1.88,8.574,5.025,16.676,9.534,24.211c0.99,1.654,3.585,0.147,2.591-1.515
							c-4.389-7.334-7.404-15.153-9.231-23.494C419.467,345.67,416.574,346.468,416.986,348.353L416.986,348.353z"/>
					</g>
				</g>
				<g>
					<path d="M425.967,348.574c-0.021,7.456,0.813,14.916,2.478,22.123"/>
					<g>
						<path d="M424.467,348.574c0.045,7.609,0.886,15.093,2.531,22.521c0.417,1.885,3.31,1.087,2.893-0.797
							c-1.588-7.17-2.381-14.384-2.424-21.725C427.455,346.644,424.455,346.64,424.467,348.574L424.467,348.574z"/>
					</g>
				</g>
				<g>
					<path d="M435.616,346.987c-2.057,8.711-4.114,17.422-6.171,26.133"/>
					<g>
						<path d="M434.17,346.589c-2.057,8.711-4.114,17.422-6.171,26.133c-0.443,1.877,2.448,2.679,2.893,0.798
							c2.058-8.712,4.114-17.423,6.171-26.134C437.506,345.509,434.614,344.707,434.17,346.589L434.17,346.589z"/>
					</g>
				</g>
				<path stroke="#000000" stroke-miterlimit="10" d="M415.174,350.906c-0.686,2.267-2.84,3.465-4.811,2.677
					c-1.972-0.789-3.014-3.266-2.328-5.531c0.686-2.268,2.84-3.466,4.811-2.677C414.817,346.163,415.859,348.64,415.174,350.906z"/>
				<path stroke="#000000" stroke-miterlimit="10" d="M422.38,347.655c-0.687,2.267-2.84,3.465-4.811,2.677
					c-1.972-0.789-3.014-3.266-2.328-5.532s2.84-3.465,4.811-2.676C422.023,342.912,423.065,345.389,422.38,347.655z"/>
				<path stroke="#000000" stroke-miterlimit="10" d="M430.344,347.774c-0.686,2.266-2.839,3.465-4.811,2.676
					c-1.971-0.788-3.013-3.265-2.327-5.531s2.839-3.465,4.811-2.677C429.987,343.031,431.029,345.508,430.344,347.774z"/>
				<path stroke="#000000" stroke-miterlimit="10" d="M439.102,348.21c-0.686,2.267-2.839,3.465-4.811,2.677
					c-1.971-0.788-3.013-3.265-2.327-5.531s2.839-3.465,4.811-2.677C438.745,343.467,439.787,345.943,439.102,348.21z"/>
				<path stroke="#000000" stroke-miterlimit="10" d="M447.584,349.558c-0.687,2.267-2.84,3.465-4.811,2.677
					c-1.972-0.788-3.014-3.265-2.328-5.531s2.84-3.465,4.811-2.677C447.227,344.815,448.27,347.291,447.584,349.558z"/>
			</g>
			<g>
				<g>
					<path d="M428.329,446.324c6.08-14.391,13.847-27.841,23.045-39.845"/>
					<g>
						<path d="M429.624,447.082c6.072-14.185,13.721-27.546,23.046-39.846c1.166-1.538-1.438-3.034-2.591-1.514
							c-9.325,12.299-16.973,25.66-23.045,39.845C426.282,447.323,428.866,448.853,429.624,447.082L429.624,447.082z"/>
					</g>
				</g>
				<g>
					<path d="M477.54,400.544c-5.034,4.823-11.487,5.786-18.011,6.488c-2.457,0.265-5.251,0.057-6.902-2.052
						c-1.395-1.78-1.557-4.396-1.526-6.792c0.093-7.307,1.311-14.593,3.579-21.419"/>
					<g>
						<path d="M476.479,399.483c-4.122,3.635-20.572,10.87-23.555,2.629c-1.161-3.211-0.24-7.946,0.142-11.207
							c0.548-4.688,1.633-9.244,3.06-13.737c0.587-1.845-2.31-2.634-2.893-0.798c-1.972,6.205-3.207,12.573-3.539,19.081
							c-0.201,3.925-0.519,9.1,3.09,11.728c3.253,2.368,7.993,1.325,11.632,0.729c5.379-0.883,10.066-2.671,14.185-6.303
							C480.051,400.325,477.923,398.21,476.479,399.483L476.479,399.483z"/>
					</g>
				</g>
				<g>
					<path d="M475.188,393.142c-6.001,5.428-12.906,9.527-20.229,12.009"/>
					<g>
						<path d="M474.128,392.081c-5.792,5.118-12.271,9.047-19.567,11.623c-1.809,0.639-1.03,3.538,0.797,2.893
							c7.778-2.746,14.717-6.938,20.892-12.395C477.699,392.921,475.57,390.807,474.128,392.081L474.128,392.081z"/>
					</g>
				</g>
				<g>
					<path d="M468.946,388.252c-4.007,5.863-8.688,11.116-13.882,15.581"/>
					<g>
						<path d="M467.651,387.495c-3.921,5.654-8.462,10.755-13.647,15.277c-1.458,1.271,0.671,3.385,2.121,2.121
							c5.378-4.69,10.053-10.023,14.117-15.885C471.345,387.419,468.745,385.918,467.651,387.495L467.651,387.495z"/>
					</g>
				</g>
				<g>
					<path d="M462.236,380.122c-3.089,8.299-6.177,16.598-9.265,24.896"/>
					<g>
						<path d="M460.789,379.724c-3.088,8.299-6.176,16.597-9.264,24.896c-0.675,1.812,2.225,2.595,2.893,0.798
							c3.088-8.299,6.176-16.598,9.265-24.896C464.356,378.709,461.458,377.927,460.789,379.724L460.789,379.724z"/>
					</g>
				</g>
				<path stroke="#000000" stroke-miterlimit="10" d="M476.151,397.783c-0.686,2.267,0.356,4.743,2.327,5.531
					c1.972,0.788,4.125-0.41,4.811-2.677s-0.356-4.743-2.327-5.531C478.99,394.318,476.837,395.517,476.151,397.783z"/>
				<path stroke="#000000" stroke-miterlimit="10" d="M472.255,390.092c-0.686,2.267,0.356,4.743,2.328,5.531
					c1.971,0.788,4.125-0.41,4.811-2.677s-0.356-4.743-2.328-5.531C475.095,386.627,472.94,387.825,472.255,390.092z"/>
				<path stroke="#000000" stroke-miterlimit="10" d="M465.945,384.501c-0.686,2.268,0.356,4.743,2.328,5.532
					c1.971,0.788,4.125-0.41,4.811-2.677s-0.356-4.743-2.328-5.531C468.785,381.036,466.631,382.235,465.945,384.501z"/>
				<path stroke="#000000" stroke-miterlimit="10" d="M458.843,378.594c-0.686,2.267,0.356,4.743,2.328,5.532
					c1.971,0.788,4.125-0.41,4.811-2.677s-0.356-4.743-2.328-5.532C461.683,375.129,459.528,376.327,458.843,378.594z"/>
				<path stroke="#000000" stroke-miterlimit="10" d="M451.465,373.599c-0.686,2.267,0.356,4.743,2.327,5.531
					c1.972,0.789,4.125-0.41,4.811-2.677s-0.356-4.743-2.327-5.531C454.304,370.134,452.15,371.332,451.465,373.599z"/>
			</g>
			<g>
				<g>
					<path d="M415.006,443.252c-1.207-8.853-3.086-17.583-5.621-26.056"/>
					<g>
						<path d="M416.452,442.853c-1.253-8.826-3.113-17.499-5.621-26.056c-0.542-1.849-3.438-1.062-2.893,0.798
							c2.507,8.557,4.368,17.229,5.621,26.056C413.83,445.554,416.721,444.744,416.452,442.853L416.452,442.853z"/>
					</g>
				</g>
				<g>
					<path d="M390.22,402.575c2.636,5.749,7.505,8.955,12.506,11.979c1.883,1.14,4.17,2.029,6.089,0.973
						c1.621-0.893,2.497-2.916,3.158-4.838c2.014-5.861,3.126-12.131,3.268-18.431"/>
					<g>
						<path d="M388.925,403.333c1.951,3.84,4.695,6.803,8.164,9.345c2.81,2.058,6.865,5.346,10.628,4.75
							c3.584-0.567,4.981-4.188,5.99-7.225c1.928-5.802,2.803-11.853,3.033-17.944c0.073-1.931-2.927-1.928-3,0
							c-0.138,3.643-0.493,7.252-1.234,10.826c-0.379,1.822-0.836,3.662-1.402,5.436c-1.016,3.18-0.852,4.147-4.633,4.479
							c-3.82,0.334-5.9-1.328-8.846-3.692c-2.621-2.104-4.582-4.481-6.11-7.488C390.641,400.097,388.051,401.614,388.925,403.333
							L388.925,403.333z"/>
					</g>
				</g>
				<g>
					<path d="M394.21,397.563c3.233,6.595,7.567,12.473,12.697,17.219"/>
					<g>
						<path d="M392.914,398.319c3.295,6.565,7.589,12.476,12.933,17.523c1.402,1.325,3.528-0.793,2.121-2.122
							c-5.171-4.884-9.275-10.565-12.463-16.915C394.639,395.079,392.05,396.597,392.914,398.319L392.914,398.319z"/>
					</g>
				</g>
				<g>
					<path d="M400.584,396.023c1.52,6.188,3.75,12.146,6.615,17.668"/>
					<g>
						<path d="M399.138,396.422c1.589,6.263,3.838,12.268,6.767,18.026c0.875,1.722,3.465,0.205,2.59-1.514
							c-2.814-5.535-4.937-11.295-6.464-17.311C401.556,393.754,398.662,394.547,399.138,396.422L399.138,396.422z"/>
					</g>
				</g>
				<g>
					<path d="M408.258,392.077c0.09,7.783,0.181,15.566,0.271,23.35"/>
					<g>
						<path d="M406.758,392.077c0.09,7.783,0.181,15.566,0.271,23.35c0.022,1.93,3.022,1.935,3,0
							c-0.091-7.783-0.182-15.566-0.271-23.35C409.735,390.147,406.735,390.143,406.758,392.077L406.758,392.077z"/>
					</g>
				</g>
				<path stroke="#000000" stroke-miterlimit="10" d="M392.115,400.899c-0.101,2.066-1.64,3.646-3.437,3.53
					c-1.796-0.116-3.171-1.886-3.07-3.951c0.102-2.066,1.64-3.647,3.437-3.531S392.217,398.833,392.115,400.899z"/>
				<path stroke="#000000" stroke-miterlimit="10" d="M397.42,396.239c-0.101,2.066-1.64,3.646-3.437,3.53s-3.171-1.886-3.07-3.951
					c0.102-2.066,1.64-3.647,3.437-3.531S397.521,394.173,397.42,396.239z"/>
				<path stroke="#000000" stroke-miterlimit="10" d="M404.049,394.167c-0.102,2.065-1.641,3.646-3.438,3.53
					s-3.171-1.886-3.07-3.952c0.102-2.066,1.641-3.646,3.438-3.53S404.149,392.101,404.049,394.167z"/>
				<path stroke="#000000" stroke-miterlimit="10" d="M411.399,392.141c-0.101,2.066-1.64,3.646-3.437,3.53s-3.172-1.885-3.07-3.951
					s1.64-3.647,3.437-3.531C410.126,388.306,411.501,390.074,411.399,392.141z"/>
				<path stroke="#000000" stroke-miterlimit="10" d="M418.71,390.946c-0.101,2.066-1.64,3.646-3.437,3.53s-3.172-1.886-3.07-3.952
					c0.102-2.065,1.64-3.646,3.437-3.53S418.812,388.88,418.71,390.946z"/>
			</g>
			<g>
				<path d="M430.094,394.181c0.925-5.003,3.487-9.582,7.063-12.623c0.608-0.517,1.46-0.993,2.071-0.48
					c0.452,0.379,0.52,1.116,0.508,1.76c-0.057,2.981-0.986,5.933-2.604,8.265c-1.617,2.331-3.913,4.029-6.429,4.755"/>
				<g>
					<path d="M431.54,394.579c0.483-2.344,1.208-4.596,2.387-6.688c0.693-1.233,2.467-4.715,3.971-4.869
						c1.224-0.125-1.015,5.638-1.547,6.523c-1.402,2.332-3.466,4.003-6.045,4.865c-1.822,0.609-1.041,3.508,0.797,2.894
						c3.62-1.211,6.558-3.664,8.3-7.085c1.2-2.357,3.137-7.507,1.121-9.899c-2.26-2.681-5.501,1.012-6.909,2.729
						c-2.553,3.112-4.157,6.809-4.967,10.732C428.259,395.666,431.15,396.472,431.54,394.579L431.54,394.579z"/>
				</g>
			</g>
			<g>
				<path d="M428.694,405.202c-0.329-1.949-0.917-3.841-1.734-5.59c-0.335-0.716-0.771-1.464-1.45-1.687
					c-0.633-0.207-1.33,0.121-1.783,0.669s-0.696,1.281-0.855,2.015c-0.892,4.122,0.852,8.808,4.061,10.913"/>
				<g>
					<path d="M430.141,404.804c-0.465-2.422-1.22-6.587-3.572-7.984c-1.905-1.133-3.85,0.181-4.676,1.979
						c-2.228,4.848,0.188,11.046,4.281,14.019c1.564,1.137,3.063-1.465,1.515-2.59c-2.276-1.653-3.515-4.479-3.549-7.261
						c-0.01-0.858-0.046-3.61,1.524-2.597c0.963,0.621,1.367,4.105,1.584,5.23C427.612,407.495,430.504,406.692,430.141,404.804
						L430.141,404.804z"/>
				</g>
			</g>
			<g>
				<path d="M444.788,416.075c0.3-1.778,0.279-3.627-0.059-5.396c-0.092-0.482-0.229-0.996-0.574-1.288
					c-0.684-0.578-1.637,0.062-2.231,0.759c-2.79,3.268-3.865,8.338-2.696,12.716"/>
				<g>
					<path d="M446.234,416.474c0.308-2.234,0.831-5.951-0.784-7.84c-1.247-1.458-3.077-0.998-4.335,0.208
						c-3.714,3.56-4.453,9.659-3.334,14.423c0.44,1.878,3.334,1.083,2.893-0.798c-0.618-2.632-0.522-5.343,0.406-7.895
						c0.267-0.73,1.112-3.036,1.904-3.362c0.788-0.325,0.435,3.906,0.357,4.466C443.082,417.564,445.973,418.381,446.234,416.474
						L446.234,416.474z"/>
				</g>
			</g>
			<g>
				<path d="M434.731,433.175c1.855-2.752,4.646-4.648,7.638-5.189c0.5-0.091,1.019-0.145,1.509,0
					c0.491,0.145,0.955,0.518,1.132,1.063c0.196,0.606,0,1.308-0.358,1.807c-0.358,0.498-0.857,0.833-1.35,1.145
					c-2.969,1.88-6.142,3.331-9.421,4.311"/>
				<g>
					<path d="M436.026,433.933c0.928-1.3,2.046-2.422,3.422-3.249c0.669-0.402,4.987-2.287,3.419-0.209
						c-0.751,0.996-3.092,1.849-4.193,2.381c-1.681,0.812-3.411,1.456-5.192,2.009c-1.838,0.57-1.054,3.468,0.798,2.893
						c3.174-0.985,6.248-2.305,9.091-4.035c1.949-1.188,4.177-3.162,2.804-5.674c-1.285-2.35-4.375-1.668-6.396-0.853
						c-2.65,1.069-4.695,2.918-6.342,5.223C432.313,433.992,434.913,435.492,436.026,433.933L436.026,433.933z"/>
				</g>
			</g>
			<g>
				<path d="M412.953,428.769c-0.801-2.777-0.281-6.009,1.331-8.273c0.416-0.585,0.918-1.121,1.537-1.376
					c0.618-0.256,1.372-0.181,1.851,0.338c0.521,0.564,0.6,1.478,0.57,2.3c-0.133,3.66-1.863,7.198-4.514,9.23"/>
				<g>
					<path d="M414.399,428.37c-0.405-1.648-0.419-3.311,0.092-4.941c0.194-0.624,0.494-1.578,1.004-2.012
						c0.904-0.77,1.297-0.418,1.224,0.705c-0.203,3.073-1.688,5.859-4.051,7.805c-1.492,1.228,0.641,3.339,2.121,2.121
						c2.191-1.804,3.73-4.273,4.465-7.017c0.578-2.158,1.165-5.646-1.103-7.057c-2.359-1.469-4.625,0.65-5.71,2.659
						c-1.424,2.639-1.643,5.652-0.935,8.534C411.968,431.042,414.861,430.248,414.399,428.37L414.399,428.37z"/>
				</g>
			</g>
		</g>
		<ellipse opacity="0.04" cx="622.563" cy="500.603" rx="79.438" ry="9.25"/>
		<ellipse opacity="0.04" cx="416.303" cy="496.603" rx="49.697" ry="9.25"/>
		<g>
			<g>
				<path fill="#1035A0" d="M366.116,481.246L366.116,481.246c0,10.783,8.823,19.606,19.606,19.606h32.841
					c10.783,0,19.606-8.823,19.606-19.606l0,0v-20.06h-72.054V481.246z"/>
				<g>
					<path fill="#184EED" d="M364.056,457.029c0,0-1.197,3.284,0.751,4.157c1.947,0.874,34.896,10.938,75.961,0
						c1.017-0.271,0.974-1.073,0.648-4.157"/>
					<ellipse fill="#184EED" cx="402.736" cy="457.029" rx="38.68" ry="6.979"/>
					<ellipse fill="#1035A0" cx="402.817" cy="456.349" rx="35.353" ry="4.838"/>
				</g>
			</g>
			<g>
				<g>
					<g>
						<path fill="#184EED" d="M404.036,457.188c0.165-24.705-4.453-49.11-13.676-72.032c-0.711-1.769-3.614-0.997-2.893,0.797
							c9.128,22.688,13.732,46.778,13.568,71.235C401.023,459.119,404.023,459.122,404.036,457.188L404.036,457.188z"/>
					</g>
				</g>
				<g>
					<g>
						<path fill="#184EED" d="M360.205,370.267c2.961,4.555,6.931,7.862,11.648,10.507c3.915,2.194,9.135,5.425,13.816,4.992
							c5.206-0.481,7.061-5.229,8.389-9.62c2.057-6.799,2.857-13.864,2.747-20.949c-0.03-1.929-3.03-1.935-3,0
							c0.105,6.76-0.339,29.498-11.044,27.299c-7.335-1.508-15.988-7.624-19.967-13.742
							C361.747,367.14,359.148,368.642,360.205,370.267L360.205,370.267z"/>
					</g>
				</g>
				<g>
					<g>
						<path fill="#184EED" d="M365.368,363.945c5.159,7.896,11.592,14.642,19.209,20.202c1.562,1.139,3.06-1.463,1.515-2.591
							c-7.188-5.246-13.267-11.678-18.133-19.125C366.907,360.821,364.309,362.323,365.368,363.945L365.368,363.945z"/>
					</g>
				</g>
				<g>
					<g>
						<path fill="#184EED" d="M373.902,361.246c2.629,7.438,6.103,14.457,10.467,21.032c1.063,1.602,3.662,0.101,2.59-1.514
							c-4.226-6.368-7.616-13.106-10.163-20.316C376.157,358.641,373.258,359.419,373.902,361.246L373.902,361.246z"/>
					</g>
				</g>
				<g>
					<g>
						<path fill="#184EED" d="M384.164,355.52c0.65,9.327,1.301,18.653,1.951,27.98c0.133,1.915,3.135,1.93,3,0
							c-0.65-9.327-1.301-18.653-1.951-27.98C387.031,353.604,384.03,353.59,384.164,355.52L384.164,355.52z"/>
					</g>
				</g>
				<circle fill="#3799F0" cx="359.5" cy="367.353" r="4.5"/>
				<circle fill="#057FED" cx="366.5" cy="361.353" r="4.5"/>
				<circle fill="#3799F0" cx="375.5" cy="358.353" r="4.5"/>
				<circle fill="#057FED" cx="385.5" cy="355.353" r="4.5"/>
				<circle fill="#3799F0" cx="395.5" cy="353.353" r="4.5"/>
			</g>
			<g>
				<g>
					<g>
						<path fill="#184EED" d="M412.769,455.552c2.015-16.363,6.16-32.306,12.313-47.599c0.721-1.79-2.181-2.569-2.893-0.797
							c-6.261,15.562-10.37,31.751-12.42,48.396C409.533,457.463,412.535,457.446,412.769,455.552L412.769,455.552z"/>
					</g>
				</g>
				<g>
					<g>
						<path fill="#184EED" d="M449.754,390.753c-3.986,6.131-12.634,12.235-19.967,13.742
							c-10.783,2.215-11.147-20.632-11.044-27.299c0.03-1.932-2.97-1.932-3,0c-0.11,7.088,0.699,14.146,2.747,20.949
							c1.325,4.399,3.193,9.127,8.389,9.62c4.669,0.442,9.911-2.799,13.816-4.992c4.717-2.649,8.686-5.948,11.648-10.507
							C453.399,390.644,450.804,389.138,449.754,390.753L449.754,390.753z"/>
					</g>
				</g>
				<g>
					<g>
						<path fill="#184EED" d="M444.59,384.432c-4.866,7.447-10.945,13.879-18.133,19.125c-1.543,1.127-0.048,3.731,1.515,2.591
							c7.617-5.561,14.05-12.307,19.209-20.202C448.24,384.324,445.644,382.819,444.59,384.432L444.59,384.432z"/>
					</g>
				</g>
				<g>
					<g>
						<path fill="#184EED" d="M435.753,382.448c-2.547,7.21-5.938,13.948-10.163,20.316c-1.071,1.613,1.526,3.117,2.59,1.514
							c4.364-6.575,7.838-13.595,10.467-21.032C439.291,381.423,436.393,380.638,435.753,382.448L435.753,382.448z"/>
					</g>
				</g>
				<g>
					<g>
						<path fill="#184EED" d="M425.385,377.52c-0.65,9.327-1.301,18.653-1.951,27.98c-0.134,1.927,2.867,1.918,3,0
							c0.65-9.327,1.301-18.653,1.951-27.98C428.519,375.593,425.519,375.602,425.385,377.52L425.385,377.52z"/>
					</g>
				</g>
				<circle fill="#3799F0" cx="453.048" cy="389.353" r="4.5"/>
				<circle fill="#057FED" cx="446.048" cy="383.353" r="4.5"/>
				<circle fill="#3799F0" cx="437.048" cy="380.353" r="4.5"/>
				<circle fill="#057FED" cx="427.048" cy="377.353" r="4.5"/>
				<circle fill="#3799F0" cx="417.048" cy="375.353" r="4.5"/>
			</g>
			<g>
				<g>
					<g>
						<path fill="#184EED" d="M396.53,457.001c-4.485-8.301-9.633-16.146-15.424-23.594c-1.184-1.522-3.293,0.614-2.121,2.121
							c5.63,7.241,10.596,14.919,14.955,22.987C394.858,460.215,397.449,458.701,396.53,457.001L396.53,457.001z"/>
					</g>
				</g>
				<g>
					<g>
						<path fill="#184EED" d="M352.451,428.725c3.733,3.212,7.955,5.042,12.732,6.13c3.844,0.875,9.089,2.335,12.867,0.499
							c3.576-1.737,4.107-5.544,4.215-9.153c0.189-6.392-0.831-12.712-2.672-18.818c-0.556-1.844-3.452-1.058-2.893,0.798
							c1.621,5.378,6.248,22.335-1.037,24.67c-3.074,0.985-7.345-0.319-10.422-1.065c-3.985-0.966-7.536-2.485-10.67-5.181
							C353.116,425.35,350.984,427.463,352.451,428.725L352.451,428.725z"/>
					</g>
				</g>
				<g>
					<g>
						<path fill="#184EED" d="M355.233,422.259c6.197,5.342,13.132,9.426,20.805,12.263c1.813,0.671,2.596-2.228,0.798-2.893
							c-7.186-2.656-13.679-6.49-19.48-11.491C355.899,418.883,353.769,420.995,355.233,422.259L355.233,422.259z"/>
					</g>
				</g>
				<g>
					<g>
						<path fill="#184EED" d="M361.646,417.955c3.942,5.563,8.493,10.582,13.688,15c1.463,1.243,3.596-0.868,2.122-2.122
							c-4.997-4.248-9.427-9.039-13.22-14.393C363.129,414.878,360.526,416.375,361.646,417.955L361.646,417.955z"/>
					</g>
				</g>
				<g>
					<g>
						<path fill="#184EED" d="M368.784,410.733c2.75,7.579,5.501,15.158,8.251,22.737c0.653,1.801,3.554,1.023,2.893-0.797
							c-2.75-7.579-5.5-15.158-8.251-22.737C371.023,408.136,368.123,408.913,368.784,410.733L368.784,410.733z"/>
					</g>
				</g>
				<circle fill="#3799F0" cx="351.343" cy="426.349" r="3.881"/>
				<circle fill="#057FED" cx="355.724" cy="419.714" r="3.881"/>
				<circle fill="#3799F0" cx="362.475" cy="415.093" r="3.881"/>
				<circle fill="#057FED" cx="370.055" cy="410.235" r="3.881"/>
				<circle fill="#3799F0" cx="377.873" cy="406.206" r="3.881"/>
			</g>
			<g>
				<path fill="#184EED" d="M395.511,403.849c-0.663-5.256,0.662-10.738,3.65-15.112c0.509-0.743,1.305-1.542,2.166-1.28
					c0.638,0.194,0.965,0.889,1.17,1.523c0.951,2.938,0.909,6.189-0.116,9.104c-1.026,2.913-3.031,5.473-5.613,7.167"/>
			</g>
			<g>
				<path fill="#184EED" d="M397.687,415.179c-1.034-1.777-2.338-3.398-3.854-4.789c-0.62-0.569-1.364-1.132-2.205-1.083
					c-0.781,0.045-1.455,0.64-1.778,1.353c-0.322,0.713-0.348,1.525-0.276,2.305c0.399,4.382,3.955,8.284,8.28,9.088"/>
			</g>
			<g>
				<path fill="#184EED" d="M419.491,419.519c-0.269-1.856-0.921-3.657-1.902-5.256c-0.268-0.436-0.597-0.885-1.085-1.035
					c-0.966-0.299-1.819,0.7-2.252,1.614c-2.026,4.289-1.511,9.669,1.294,13.496"/>
			</g>
			<g>
				<path fill="#184EED" d="M413.996,440.183c1.15-3.419,3.645-6.366,6.826-8.066c0.532-0.284,1.097-0.539,1.697-0.59
					c0.602-0.051,1.25,0.132,1.635,0.598c0.427,0.517,0.445,1.279,0.212,1.907s-0.681,1.15-1.129,1.648
					c-2.7,3-5.775,5.661-9.132,7.903"/>
			</g>
			<g>
				<path fill="#184EED" d="M387.998,444.394c-1.847-2.404-2.361-5.77-1.318-8.615c0.27-0.735,0.651-1.456,1.261-1.947
					c0.609-0.492,1.482-0.713,2.197-0.394c0.777,0.348,1.178,1.21,1.424,2.026c1.096,3.633,0.354,7.771-1.937,10.796"/>
			</g>
		</g>
	</g>
</g>
<g>
	<defs>
		<rect id="SVGID_10_" x="-39.488" y="-524.096" width="1597.962" height="366.233"/>
	</defs>
	<clipPath id="SVGID_9_">
		<use xlink:href="#SVGID_10_"  overflow="visible"/>
	</clipPath>
	<g clip-path="url(#SVGID_9_)">
		<g>
			<defs>
				<rect id="SVGID_12_" x="-37.842" y="-543.915" width="1598.119" height="920.961"/>
			</defs>
			<clipPath id="SVGID_11_">
				<use xlink:href="#SVGID_12_"  overflow="visible"/>
			</clipPath>
			<g clip-path="url(#SVGID_11_)">
				<g>
					<g>
						<linearGradient id="SVGID_13_" gradientUnits="userSpaceOnUse" x1="-37.8418" y1="-83.4346" x2="1560.2773" y2="-83.4346">
							<stop  offset="0" style="stop-color:#1035A0"/>
							<stop  offset="1" style="stop-color:#184EED"/>
						</linearGradient>
						<rect x="-37.842" y="-543.915" fill="url(#SVGID_13_)" width="1598.119" height="920.961"/>
					</g>
				</g>
			</g>
			<g opacity="0.2" clip-path="url(#SVGID_11_)">
				<g>
					<path fill="#CFF9FE" d="M800.119,98.892l14.391,15.232l-3.551,20.654l-14.389-15.235L800.119,98.892 M796.779,87.841
						l-5.734,33.372l23.253,24.616l5.738-33.376L796.779,87.841L796.779,87.841z"/>
				</g>
				<g>
					<g>
						<path fill="#CFF9FE" d="M-15.441,206.618c-2.361,0-4.737-0.327-7.072-0.992c-6.615-1.879-12.104-6.219-15.451-12.225
							l5.865-3.273c2.475,4.44,6.53,7.65,11.422,9.04c4.886,1.387,10.03,0.79,14.466-1.688c9.165-5.108,12.465-16.723,7.356-25.885
							l5.864-3.272c6.912,12.4,2.45,28.111-9.95,35.022C-6.826,205.516-11.109,206.618-15.441,206.618z"/>
					</g>
					<g>
						<path fill="#CFF9FE" d="M581.645,49.818c-10.703-9.722-11.505-26.344-1.784-37.048c9.723-10.703,26.342-11.5,37.048-1.788
							l-4.599,5.068c-7.911-7.181-20.195-6.597-27.385,1.319c-7.184,7.913-6.592,20.199,1.319,27.387L581.645,49.818z"/>
					</g>
					<g>
						<path fill="#CFF9FE" d="M299.63,58.183l-3.962-6.154c9.621-6.188,12.414-19.052,6.228-28.672
							c-6.19-9.624-19.048-12.422-28.671-6.226l-3.957-6.162c13.013-8.361,30.414-4.586,38.786,8.426
							C316.424,32.413,312.645,49.812,299.63,58.183z"/>
					</g>
					<g>
						<path fill="#CFF9FE" d="M155.705,47.517c-12.468-10.292-14.242-28.807-3.954-41.271c4.982-6.041,12.021-9.779,19.815-10.528
							c7.805-0.739,15.42,1.589,21.458,6.57l-4.869,5.897c-4.464-3.685-10.089-5.415-15.858-4.855
							c-5.762,0.554-10.965,3.317-14.647,7.781c-7.604,9.216-6.292,22.902,2.925,30.508L155.705,47.517z"/>
					</g>
					<path fill="#CFF9FE" d="M219.643,298.813L219.643,298.813c1.332,0,2.617,0.304,3.826,0.897c2.076,1.022,3.63,2.794,4.376,4.987
						c0.744,2.193,0.593,4.542-0.43,6.617c-1.474,2.99-4.458,4.846-7.79,4.846c-1.33,0-2.615-0.301-3.818-0.895
						c-4.289-2.115-6.061-7.325-3.949-11.611C213.328,300.669,216.313,298.813,219.643,298.813 M219.643,294.946
						c-4.624,0-9.072,2.571-11.254,6.998c-3.059,6.213-0.507,13.728,5.707,16.791c1.781,0.878,3.668,1.293,5.529,1.293
						c4.624,0,9.075-2.571,11.259-7.002c3.059-6.209,0.503-13.728-5.706-16.784C223.395,295.361,221.504,294.946,219.643,294.946
						L219.643,294.946z"/>
					<path fill="#CFF9FE" d="M559.934,313.481l27.9,13.812l5.693,30.603l-27.9-13.809L559.934,313.481 M549.588,299.802
						l9.201,49.459l45.085,22.311l-9.202-49.451L549.588,299.802L549.588,299.802z"/>
					<path fill="#CFF9FE" d="M226.732,114.164l2.189,18.424l-13.426,12.806l-2.189-18.424L226.732,114.164 M230.195,104.544
						l-21.697,20.695l3.538,29.771l21.694-20.691L230.195,104.544L230.195,104.544z"/>
					<path fill="#CFF9FE" d="M96.309,347.232l-6.881,14.088l-15.398,2.952l6.878-14.088L96.309,347.232 M103.17,341.985
						l-24.886,4.768l-11.115,22.768l24.882-4.769L103.17,341.985L103.17,341.985z"/>
					<g>
						<path fill="#CFF9FE" d="M447.943,268.934c-1.146,0-2.08-0.922-2.096-2.069c-0.013-1.157,0.913-2.108,2.07-2.122
							c1.492-0.017,2.828-0.607,3.762-1.66c0.936-1.056,1.364-2.46,1.202-3.948c-0.286-2.676,0.507-5.22,2.232-7.17
							c1.726-1.947,4.157-3.044,6.847-3.081c1.494-0.017,2.831-0.607,3.766-1.664c0.935-1.053,1.361-2.453,1.201-3.941
							c-0.125-1.15,0.707-2.183,1.855-2.308c1.149-0.151,2.186,0.705,2.309,1.856c0.29,2.676-0.501,5.223-2.23,7.173
							c-1.727,1.947-4.157,3.041-6.845,3.075c-1.493,0.02-2.831,0.613-3.767,1.67c-0.934,1.056-1.361,2.453-1.201,3.941
							c0.289,2.676-0.506,5.227-2.234,7.174c-1.727,1.95-4.158,3.04-6.844,3.074C447.961,268.934,447.952,268.934,447.943,268.934z"
							/>
					</g>
					<g>
						<path fill="#CFF9FE" d="M69.264,79.36c-0.56,0-1.118-0.232-1.52-0.685L55.866,65.232c-0.741-0.841-0.661-2.123,0.177-2.861
							c0.839-0.739,2.119-0.662,2.863,0.175L70.785,75.99c0.74,0.84,0.66,2.122-0.178,2.861
							C70.221,79.192,69.742,79.36,69.264,79.36z"/>
					</g>
					<g>
						<path fill="#CFF9FE" d="M679.959,290.569c-0.95,0-1.812-0.647-2.043-1.612l-4.315-18.087
							c-0.269-1.131,0.428-2.264,1.557-2.534c1.115-0.267,2.263,0.425,2.532,1.556l4.316,18.087c0.268,1.13-0.429,2.264-1.558,2.534
							C680.284,290.55,680.121,290.569,679.959,290.569z"/>
					</g>
					<g>
						<path fill="#CFF9FE" d="M340.303,311.032c-0.779,0-1.523-0.449-1.861-1.208l-7.305-16.447
							c-0.456-1.029,0.006-2.23,1.033-2.686s2.229,0.007,2.686,1.032l7.305,16.447c0.455,1.028-0.007,2.23-1.034,2.686
							C340.857,310.975,340.578,311.032,340.303,311.032z"/>
					</g>
					<g>
						<path fill="#CFF9FE" d="M332.289,182.573c-1.789,0-3.287-1.395-3.394-3.203c-0.109-1.876,1.321-3.485,3.197-3.597
							l30.042-1.762c1.893-0.084,3.486,1.323,3.596,3.199s-1.321,3.485-3.197,3.597l-30.043,1.762
							C332.424,182.573,332.355,182.573,332.289,182.573z"/>
					</g>
					<g>
						<path fill="#CFF9FE" d="M135.537,223.548c-0.781,0-1.5-0.51-1.732-1.296l-4.516-15.326c-0.281-0.955,0.268-1.961,1.224-2.24
							c0.948-0.291,1.958,0.266,2.242,1.222l4.515,15.326c0.281,0.955-0.267,1.96-1.223,2.24
							C135.878,223.524,135.705,223.548,135.537,223.548z"/>
					</g>
					<g>
						<path fill="#CFF9FE" d="M697.73,115.14c-0.118,0-0.238-0.007-0.357-0.023l-26.186-3.139c-1.635-0.195-2.803-1.681-2.607-3.313
							c0.198-1.637,1.699-2.817,3.316-2.605l26.185,3.139c1.635,0.195,2.803,1.68,2.606,3.313
							C700.506,114.025,699.218,115.14,697.73,115.14z"/>
					</g>
					<g>
						<polygon fill="#CFF9FE" points="448.375,128.664 443.402,125.822 455,105.546 434.727,93.951 437.57,88.978 462.818,103.42 
													"/>
					</g>
					<g>
						<polygon fill="#CFF9FE" points="287.008,398.9 271.967,377.872 276.106,374.909 288.186,391.795 305.069,379.711 
							308.031,383.854 						"/>
					</g>
					<g>
						<polygon fill="#CFF9FE" points="451.156,385.079 440.637,365.35 420.906,375.871 418.324,371.032 442.897,357.933 
							455.995,382.501 						"/>
					</g>
					<g>
						<polygon fill="#CFF9FE" points="573.392,168.566 546.365,141.773 551.643,136.448 573.344,157.964 594.857,136.26 
							600.182,141.537 						"/>
					</g>
				</g>
			</g>
		</g>
	</g>
</g>
</svg>
