<?xml version="1.0" encoding="utf-8"?>
<!-- Generator: Adobe Illustrator 16.0.0, SVG Export Plug-In . SVG Version: 6.00 Build 0)  -->
<!DOCTYPE svg PUBLIC "-//W3C//DTD SVG 1.1//EN" "http://www.w3.org/Graphics/SVG/1.1/DTD/svg11.dtd">
<svg version="1.1" id="Layer_1" xmlns="http://www.w3.org/2000/svg" xmlns:xlink="http://www.w3.org/1999/xlink" x="0px" y="0px"
	 width="614.009px" height="626.746px" viewBox="0 0 614.009 626.746" enable-background="new 0 0 614.009 626.746"
	 xml:space="preserve">
<g>
	<defs>
		<rect id="SVGID_7_" y="-42.22" width="715.938" height="668.966"/>
	</defs>
	<clipPath id="SVGID_2_">
		<use xlink:href="#SVGID_7_"  overflow="visible"/>
	</clipPath>
	<g clip-path="url(#SVGID_2_)">
		<g>
			<path fill="#FFF3DC" d="M586.164,657.632c-111.988,132.197-472.25,75.015-603.516-36.185
				C-148.62,510.245-167.329,246.388-55.341,114.19C56.648-18.006,187.866-60.61,296.791,203.827
				C362.411,363.134,698.153,525.435,586.164,657.632z"/>
		</g>
	</g>
</g>
<g>
	<g opacity="0.04">
		<path stroke="#000000" stroke-miterlimit="10" d="M292.103,421.747c2.474,7.161-11.061,19.725-30.23,28.062
			c-19.17,8.336-36.716,9.289-39.189,2.128c-2.475-7.161,11.061-19.725,30.23-28.061
			C272.083,415.539,289.628,414.586,292.103,421.747z"/>
		<path stroke="#000000" stroke-miterlimit="10" d="M238.42,477.782l24.862,57.144c0,0,25.957,3.841,47.289-21.94l-15.186-60.604"/>
		<path stroke="#000000" stroke-miterlimit="10" d="M222.683,451.937c0,0,4.639,22.066,9.311,25.077c0,0,35.066,8.59,67.83-29.498
			c0,0,1.529-12.155-7.721-25.769"/>
		<path stroke="#000000" stroke-miterlimit="10" d="M288.338,421.947c1.978,5.723-10.499,16.485-27.867,24.038
			c-17.367,7.553-33.05,9.036-35.026,3.313c-1.977-5.723,10.5-16.485,27.867-24.038S286.36,416.224,288.338,421.947z"/>
		<g>
			<path d="M210.192,243.182c-4.235-4.65-7.564-11.033-9.291-17.818c-1.729-6.785-1.845-13.929-0.324-19.941
				c0.469-1.855,1.331-3.811,2.846-3.712c0.932,0.061,1.85,0.909,2.643,1.812c4.491,5.099,7.141,12.946,7.603,20.282
				s-1.069,14.175-3.525,19.94"/>
			<g>
				<path d="M211.253,242.121c-4.344-5.006-7.151-10.787-8.905-17.156c-0.885-3.213-1.207-6.544-1.327-9.862
					c-0.041-1.159,0.756-13.628,3.984-10.521c9.825,9.455,8.294,27.426,3.691,38.764c-0.729,1.793,2.175,2.565,2.893,0.797
					c3.539-8.717,4.519-17.846,2.602-27.075c-0.748-3.606-5.481-18.354-11.166-16.804c-6.571,1.791-5.175,15.091-4.617,19.967
					c1.015,8.86,4.905,17.306,10.725,24.012C210.401,245.706,212.515,243.574,211.253,242.121L211.253,242.121z"/>
			</g>
		</g>
		<g>
			<path d="M213.32,259.745c-0.606-6.856,0.489-13.519,3.06-18.598c2.57-5.08,6.598-8.545,11.244-9.672
				c1.434-0.349,3.23-0.308,4.35,1.414c0.688,1.059,0.91,2.469,1.006,3.769c0.547,7.348-1.92,13.942-5.791,17.88
				c-3.87,3.938-9,5.438-14.23,5.414"/>
			<g>
				<path d="M214.82,259.745c-0.681-10.291,1.826-23.507,13.202-26.823c4.699-1.37,3.414,8.373,3.206,9.851
					c-0.395,2.804-1.502,5.444-2.899,7.882c-3.174,5.537-9.341,7.646-15.371,7.798c-1.931,0.049-1.936,3.049,0,3
					c7.469-0.188,13.747-2.985,17.961-9.284c2.876-4.298,6.361-15.888,2.115-20.339c-4.336-4.547-10.839-0.158-14.373,3.392
					c-6.195,6.222-7.391,16.224-6.841,24.524C211.947,261.665,214.948,261.678,214.82,259.745L214.82,259.745z"/>
			</g>
		</g>
		<g>
			<path d="M218.204,293.38c-0.605-6.855,0.49-13.518,3.061-18.598s6.598-8.544,11.243-9.672c1.435-0.348,3.23-0.307,4.35,1.414
				c0.688,1.06,0.911,2.47,1.007,3.769c0.547,7.349-1.921,13.943-5.791,17.881s-9.001,5.438-14.23,5.414"/>
			<g>
				<path d="M219.704,293.38c-0.68-10.291,1.827-23.504,13.202-26.823c4.701-1.371,3.415,8.374,3.207,9.852
					c-0.396,2.804-1.503,5.444-2.899,7.882c-3.175,5.537-9.341,7.646-15.371,7.798c-1.931,0.049-1.936,3.049,0,3
					c7.469-0.188,13.747-2.985,17.961-9.284c2.876-4.298,6.361-15.889,2.114-20.34c-4.337-4.546-10.838-0.157-14.372,3.392
					c-6.195,6.222-7.391,16.224-6.842,24.524C216.831,295.3,219.832,295.313,219.704,293.38L219.704,293.38z"/>
			</g>
		</g>
		<g>
			<path d="M224.687,326.321c-0.607-6.856,0.489-13.519,3.06-18.598c2.57-5.08,6.598-8.545,11.243-9.672
				c1.434-0.348,3.23-0.308,4.35,1.414c0.688,1.059,0.91,2.469,1.007,3.769c0.546,7.348-1.921,13.942-5.791,17.88
				s-9.001,5.438-14.231,5.414"/>
			<g>
				<path d="M226.187,326.321c-0.682-10.29,1.826-23.507,13.201-26.823c4.701-1.371,3.415,8.373,3.207,9.851
					c-0.396,2.804-1.503,5.444-2.9,7.882c-3.174,5.538-9.34,7.646-15.371,7.798c-1.931,0.049-1.936,3.049,0,3
					c7.469-0.188,13.748-2.984,17.962-9.284c2.876-4.298,6.36-15.887,2.114-20.339c-4.337-4.547-10.838-0.158-14.372,3.392
					c-6.195,6.222-7.392,16.224-6.841,24.524C223.313,328.241,226.314,328.254,226.187,326.321L226.187,326.321z"/>
			</g>
		</g>
		<g>
			<path d="M232.765,358.567c-0.607-6.855,0.489-13.518,3.06-18.598s6.598-8.544,11.243-9.672c1.434-0.348,3.23-0.307,4.35,1.414
				c0.688,1.06,0.91,2.47,1.007,3.769c0.546,7.348-1.921,13.942-5.791,17.881c-3.87,3.938-9.001,5.438-14.231,5.414"/>
			<g>
				<path d="M234.265,358.567c-0.683-10.291,1.827-23.505,13.201-26.823c4.701-1.371,3.415,8.373,3.207,9.851
					c-0.396,2.805-1.503,5.444-2.9,7.882c-3.174,5.539-9.34,7.646-15.371,7.799c-1.931,0.049-1.936,3.049,0,3
					c7.469-0.189,13.748-2.984,17.962-9.284c2.875-4.298,6.361-15.89,2.114-20.34c-4.338-4.546-10.838-0.158-14.372,3.392
					c-6.195,6.221-7.392,16.225-6.841,24.524C231.392,360.487,234.393,360.5,234.265,358.567L234.265,358.567z"/>
			</g>
		</g>
		<g>
			<path d="M283.458,320.947c-0.451-5.104,0.365-10.063,2.278-13.845s4.911-6.36,8.37-7.199c1.066-0.259,2.404-0.229,3.237,1.053
				c0.513,0.788,0.678,1.838,0.75,2.805c0.406,5.47-1.431,10.379-4.312,13.311c-2.881,2.931-6.7,4.048-10.594,4.03"/>
			<g>
				<path d="M284.958,320.947c-0.479-7.504,1.242-17.136,9.547-19.598c4.334-1.284,0.547,11.255,0.082,12.153
					c-2.236,4.319-6.828,5.968-11.398,6.099c-1.931,0.056-1.936,3.056,0,3c5.932-0.17,10.806-2.482,13.988-7.584
					c2.084-3.339,4.409-11.787,1.228-15.122c-3.298-3.456-8.123-0.432-10.952,2.221c-4.948,4.639-5.901,12.459-5.494,18.831
					C282.081,322.868,285.081,322.88,284.958,320.947L284.958,320.947z"/>
			</g>
		</g>
		<g>
			<path d="M278.831,330.606c-3.419-2.819-6.343-7.104-8.162-11.961c-1.82-4.857-2.523-10.254-1.965-15.066
				c0.172-1.486,0.616-3.112,1.703-3.29c0.668-0.11,1.395,0.381,2.038,0.932c3.64,3.118,6.207,8.626,7.174,14.112
				c0.967,5.485,0.472,10.927-0.774,15.708"/>
			<g>
				<path d="M279.892,329.546c-6.967-6.174-10.09-15.166-9.827-24.343c0.16-5.595,4.494,0.856,4.905,1.509
					c1.413,2.25,2.193,4.83,2.865,7.376c1.424,5.393,0.84,11.211-0.437,16.555c-0.45,1.881,2.443,2.679,2.893,0.797
					c1.716-7.179,1.776-14.324-0.514-21.384c-0.975-3.004-5.212-12.467-9.769-11.213c-4.485,1.233-3.087,10.491-2.539,13.504
					c1.354,7.438,4.588,14.259,10.301,19.32C279.213,332.945,281.343,330.831,279.892,329.546L279.892,329.546z"/>
			</g>
		</g>
		<g>
			<path d="M151.378,346.256c-3.17,2.279-7.125,2.852-11.041,1.596c-3.916-1.255-7.767-4.329-10.75-8.582
				c-0.921-1.313-1.832-3.074-1.538-4.59c0.181-0.932,0.782-1.496,1.394-1.91c3.451-2.342,8.084-1.561,12.094,1.244
				s7.435,7.438,10.136,12.544"/>
			<g>
				<path d="M150.621,344.961c-7.896,4.996-16.061-0.643-20.409-7.506c-3.514-5.546,5.602-4.38,6.775-4.084
					c2.575,0.648,4.775,2.604,6.636,4.379c2.831,2.7,4.892,6.16,6.754,9.564c0.928,1.698,3.519,0.184,2.59-1.514
					c-3.237-5.921-7.261-11.537-13.419-14.641c-3.813-1.921-11.518-2.068-12.945,3.121c-1.319,4.795,5.147,10.125,8.361,12.527
					c5.138,3.842,11.801,4.141,17.171,0.742C153.765,346.52,152.261,343.923,150.621,344.961L150.621,344.961z"/>
			</g>
		</g>
		<g>
			<path d="M170.104,359.215c-0.913,4.935-3.138,9.071-6.212,11.549c-3.074,2.479-6.978,3.281-10.896,2.241
				c-1.209-0.321-2.628-1.05-3.167-2.666c-0.331-0.993-0.222-2.047-0.034-2.975c1.061-5.247,4.361-8.804,8.236-9.992
				c3.874-1.188,8.254-0.215,12.403,1.843"/>
			<g>
				<path d="M168.657,358.816c-1.611,7.594-6.559,14.602-15.264,12.742c-3.721-0.795-1.851-5.316-1.115-7.045
					c0.783-1.84,2.147-3.347,3.736-4.521c4.053-2.997,9.554-1.385,13.662,0.518c1.743,0.808,3.268-1.777,1.514-2.59
					c-5.428-2.515-11.301-3.764-16.689-0.519c-4.223,2.543-7.067,8.507-6.119,13.336c1,5.095,9.528,4.746,12.946,3.235
					c5.926-2.619,8.925-8.248,10.222-14.359C171.95,357.727,169.059,356.924,168.657,358.816L168.657,358.816z"/>
			</g>
		</g>
		<g>
			<path d="M188.063,374.517c-0.363,5.205-2.07,9.862-4.768,13.002c-2.699,3.139-6.369,4.738-10.247,4.466
				c-1.196-0.084-2.638-0.541-3.325-2.078c-0.422-0.945-0.426-2.039-0.343-3.021c0.472-5.555,3.274-9.836,6.876-11.822
				c3.604-1.986,7.918-1.874,12.123-0.612"/>
			<g>
				<path d="M186.563,374.517c-0.349,3.791-1.31,7.284-3.299,10.553c-1.072,1.764-2.646,3.093-4.382,4.16
					c-2.086,1.283-7.682,2.806-8.044-1.335c-0.322-3.688,1.753-7.682,4.289-10.188c3.402-3.363,8.636-2.954,12.854-1.81
					c1.869,0.508,2.662-2.387,0.797-2.893c-5.92-1.607-11.898-1.248-16.438,3.238c-2.897,2.864-6.367,10.461-3.912,14.421
					c2.827,4.56,9.134,2.9,12.953,0.551c5.569-3.425,7.623-10.62,8.182-16.697C189.741,372.59,186.739,372.606,186.563,374.517
					L186.563,374.517z"/>
			</g>
		</g>
		<g>
			<path d="M208.31,394.136c-0.361,5.205-2.069,9.862-4.768,13.002c-2.697,3.139-6.368,4.738-10.246,4.466
				c-1.197-0.084-2.637-0.541-3.324-2.078c-0.423-0.945-0.427-2.039-0.344-3.021c0.472-5.554,3.274-9.836,6.877-11.822
				c3.602-1.986,7.917-1.874,12.123-0.612"/>
			<g>
				<path d="M206.81,394.136c-0.348,3.791-1.309,7.284-3.298,10.553c-1.073,1.764-2.646,3.093-4.382,4.16
					c-2.086,1.284-7.681,2.806-8.044-1.335c-0.323-3.687,1.753-7.683,4.289-10.188c3.403-3.363,8.636-2.954,12.854-1.81
					c1.869,0.508,2.662-2.387,0.797-2.893c-5.92-1.606-11.898-1.248-16.438,3.239c-2.898,2.864-6.366,10.459-3.911,14.42
					c2.826,4.561,9.134,2.9,12.953,0.551c5.567-3.425,7.623-10.62,8.18-16.697C209.986,392.209,206.984,392.226,206.81,394.136
					L206.81,394.136z"/>
			</g>
		</g>
		<g>
			<path d="M230.612,421.23c-1.543,4.482-4.323,7.894-7.764,9.521c-3.439,1.629-7.516,1.464-11.38-0.459
				c-1.192-0.594-2.548-1.625-2.896-3.293c-0.214-1.025,0.028-2.002,0.335-2.841c1.731-4.746,5.535-7.348,9.631-7.557
				c4.096-0.21,8.438,1.76,12.41,4.706"/>
			<g>
				<path d="M229.166,420.832c-1.264,3.319-3.066,6.092-6.063,8.084c-3.169,2.105-14.571,2.423-12.75-4.358
					c2.677-9.966,14.146-5.974,19.838-1.954c1.584,1.119,3.081-1.483,1.514-2.59c-4.946-3.494-10.744-6.172-16.815-4.158
					c-3.699,1.228-9.431,7.164-7.764,11.543c2.014,5.291,8.384,6.374,13.436,5.686c5.83-0.794,9.593-6.453,11.497-11.455
					C232.748,419.818,229.847,419.042,229.166,420.832L229.166,420.832z"/>
			</g>
		</g>
		<g>
			<path d="M161.733,352.536c-3.367-3.626-6.031-8.635-7.438-13.982s-1.546-10.999-0.389-15.776
				c0.357-1.475,1.023-3.032,2.218-2.974c0.734,0.036,1.462,0.695,2.094,1.399c3.571,3.978,5.711,10.153,6.124,15.953
				s-0.747,11.231-2.645,15.825"/>
			<g>
				<path d="M162.794,351.476c-3.425-3.909-5.617-8.343-7.052-13.32c-0.807-2.8-1.041-5.698-1.112-8.594
					c-0.009-0.379,0.58-9.133,2.528-7.298c7.783,7.334,6.565,21.404,3.094,30.319c-0.703,1.805,2.198,2.579,2.893,0.797
					c2.707-6.951,3.41-14.08,1.928-21.399c-0.746-3.682-3.976-13.677-8.947-13.677c-5.52,0-4.554,11.702-4.312,14.845
					c0.581,7.548,3.908,14.798,8.859,20.448C161.95,355.055,164.063,352.924,162.794,351.476L162.794,351.476z"/>
			</g>
		</g>
		<g>
			<path d="M178.55,365.403c-3.029-4.19-5.189-9.559-6.032-14.985c-0.843-5.426-0.361-10.876,1.344-15.213
				c0.526-1.34,1.376-2.693,2.586-2.385c0.744,0.19,1.413,0.978,1.978,1.785c3.199,4.571,4.697,10.947,4.479,16.598
				s-2,10.614-4.438,14.619"/>
			<g>
				<path d="M179.845,364.646c-2.732-4-4.513-8.281-5.589-13.002c-0.629-2.758-0.678-5.568-0.586-8.375
					c-0.009,0.282,1.276-11.297,4.29-6.617c5.473,8.5,4.031,20.07-0.789,28.413c-0.97,1.678,1.623,3.188,2.59,1.514
					c3.593-6.218,5.125-12.948,4.438-20.109c-0.391-4.079-2.46-13.75-7.354-15.096c-5.116-1.407-5.93,9.104-6.176,11.896
					c-0.708,8.009,2.114,16.347,6.585,22.891C178.339,367.747,180.939,366.248,179.845,364.646L179.845,364.646z"/>
			</g>
		</g>
		<g>
			<path d="M197.972,382.631c-3.029-4.19-5.19-9.559-6.033-14.984c-0.843-5.427-0.361-10.877,1.344-15.214
				c0.526-1.339,1.377-2.692,2.586-2.384c0.744,0.189,1.412,0.977,1.979,1.785c3.198,4.57,4.695,10.946,4.477,16.597
				s-1.999,10.614-4.438,14.619"/>
			<g>
				<path d="M199.267,381.874c-2.732-3.999-4.513-8.281-5.59-13.001c-0.629-2.759-0.678-5.568-0.586-8.376
					c-0.01,0.282,1.277-11.298,4.291-6.616c5.471,8.498,4.029,20.071-0.791,28.412c-0.971,1.678,1.623,3.188,2.59,1.514
					c3.594-6.217,5.125-12.948,4.439-20.109c-0.392-4.08-2.459-13.748-7.354-15.095c-5.115-1.407-5.93,9.104-6.176,11.895
					c-0.707,8.01,2.114,16.347,6.586,22.891C197.761,384.975,200.361,383.476,199.267,381.874L199.267,381.874z"/>
			</g>
		</g>
		<g>
			<path d="M221.229,409.192c-3.029-4.19-5.19-9.558-6.033-14.984s-0.361-10.876,1.344-15.214c0.526-1.339,1.377-2.692,2.586-2.384
				c0.744,0.189,1.412,0.977,1.979,1.785c3.198,4.571,4.695,10.947,4.477,16.598c-0.219,5.649-1.999,10.614-4.438,14.619"/>
			<g>
				<path d="M222.524,408.436c-2.732-3.999-4.514-8.281-5.59-13.001c-0.629-2.759-0.678-5.568-0.586-8.376
					c-0.01,0.283,1.277-11.298,4.291-6.616c5.471,8.499,4.029,20.071-0.791,28.413c-0.971,1.678,1.623,3.188,2.59,1.514
					c3.594-6.217,5.125-12.948,4.439-20.109c-0.392-4.08-2.459-13.75-7.354-15.096c-5.116-1.407-5.93,9.104-6.176,11.895
					c-0.708,8.01,2.114,16.347,6.586,22.891C221.019,411.536,223.619,410.037,222.524,408.436L222.524,408.436z"/>
			</g>
		</g>
		<g>
			<path d="M275.603,339.497c2.146-3.51,5.324-5.723,8.871-6.177s7.439,0.853,10.865,3.647c1.058,0.863,2.206,2.158,2.293,3.727
				c0.054,0.965-0.324,1.756-0.743,2.408c-2.368,3.688-6.409,4.896-10.375,3.913s-7.845-3.955-11.224-7.684"/>
			<g>
				<path d="M276.897,340.254c2.134-3.178,4.861-5.236,8.771-5.521c2.988-0.216,12.271,2.967,9.926,7.612
					c-4.393,8.698-15.356,0.063-19.243-4.074c-1.327-1.413-3.444,0.713-2.121,2.121c4.004,4.263,8.641,7.962,14.658,8.447
					c4.414,0.356,10.244-3.351,10.244-8.146c0-5.258-7.67-8.293-11.853-8.865c-5.489-0.751-10.058,2.57-12.972,6.911
					C273.226,340.352,275.825,341.852,276.897,340.254L276.897,340.254z"/>
			</g>
		</g>
		<g>
			<path d="M268.298,357.344c2.146-3.51,5.324-5.722,8.871-6.176c3.547-0.455,7.439,0.852,10.865,3.647
				c1.059,0.862,2.207,2.157,2.293,3.726c0.055,0.965-0.324,1.756-0.743,2.408c-2.368,3.688-6.409,4.896-10.375,3.913
				s-7.845-3.955-11.224-7.683"/>
			<g>
				<path d="M269.593,358.101c2.135-3.179,4.861-5.235,8.771-5.52c2.987-0.217,12.272,2.967,9.926,7.611
					c-4.395,8.696-15.354,0.065-19.243-4.073c-1.327-1.412-3.444,0.713-2.121,2.121c4.004,4.262,8.641,7.961,14.658,8.446
					c4.414,0.356,10.244-3.351,10.244-8.146c0-5.258-7.67-8.293-11.853-8.865c-5.488-0.75-10.058,2.57-12.972,6.911
					C265.921,358.198,268.521,359.697,269.593,358.101L269.593,358.101z"/>
			</g>
		</g>
		<g>
			<path d="M263.376,381.404c1.846-3.854,4.791-6.533,8.22-7.48c3.43-0.946,7.322-0.154,10.866,2.212
				c1.094,0.73,2.308,1.887,2.505,3.466c0.121,0.972-0.192,1.826-0.554,2.545c-2.049,4.065-5.907,5.844-9.849,5.391
				c-3.94-0.453-7.939-2.938-11.504-6.257"/>
			<g>
				<path d="M264.671,382.161c3.688-6.982,10.223-8.853,17.034-4.73c4.386,2.654-0.429,6.696-2.264,7.811
					c-1.72,1.044-3.908,0.946-5.793,0.625c-3.628-0.62-6.882-3.286-9.527-5.646c-1.438-1.283-3.567,0.831-2.121,2.121
					c4.021,3.587,9.537,7.66,15.304,6.646c4.788-0.842,8.813-4.382,9.163-9.386c0.319-4.558-7.485-7.402-10.86-7.518
					c-6.204-0.211-10.701,3.217-13.525,8.563C261.178,382.356,263.768,383.872,264.671,382.161L264.671,382.161z"/>
			</g>
		</g>
		<g>
			<path d="M259.11,396.804c-3.678-1.463-7.223-4.614-9.895-8.797c-2.673-4.182-4.456-9.369-4.979-14.479
				c-0.161-1.577-0.108-3.408,0.832-4.033c0.578-0.384,1.336-0.184,2.033,0.113c3.939,1.674,7.424,6.212,9.463,11.381
				s2.754,10.89,2.649,16.249"/>
			<g>
				<path d="M259.867,395.509c-8.794-3.96-13.659-13.88-14.2-23.188c-0.211-3.635,6.498,3.632,6.525,3.669
					c1.57,2.074,2.614,4.545,3.499,6.965c1.662,4.548,2.042,9.483,2.023,14.284c-0.008,1.935,2.992,1.935,3,0
					c0.029-7.539-1.274-14.83-5.053-21.428c-1.633-2.85-7.239-10.019-11.35-7.61c-4.323,2.532-0.118,12.704,1.095,15.729
					c2.432,6.063,6.939,11.466,12.946,14.17C260.103,398.887,261.629,396.302,259.867,395.509L259.867,395.509z"/>
			</g>
		</g>
		<g>
			<path d="M259.507,406.517c1.162-4.454,3.529-8.025,6.611-9.969c3.081-1.942,6.855-2.245,10.537-0.844
				c1.137,0.433,2.449,1.265,2.869,2.818c0.258,0.955,0.091,1.915-0.143,2.752c-1.32,4.728-4.682,7.641-8.451,8.302
				c-3.77,0.662-7.896-0.729-11.738-3.096"/>
			<g>
				<path d="M260.953,406.915c0.906-3.086,2.187-5.657,4.466-7.951c2.576-2.592,13.837-4.972,12.517,1.912
					c-1.777,9.262-11.917,7.843-17.986,4.31c-1.675-0.976-3.185,1.617-1.514,2.59c4.988,2.904,10.464,4.654,15.978,2.185
					c3.836-1.719,7.739-7.54,6.558-11.836c-1.407-5.114-8.758-5.249-12.823-4.171c-5.478,1.452-8.617,7.159-10.087,12.165
					C257.515,407.979,260.409,408.768,260.953,406.915L260.953,406.915z"/>
			</g>
		</g>
		<g>
			<path d="M271.532,346.734c-3.547-2.349-6.729-6.26-8.881-10.917c-2.152-4.657-3.261-10.031-3.094-15.002
				c0.051-1.534,0.355-3.252,1.398-3.597c0.643-0.212,1.388,0.178,2.057,0.641c3.787,2.617,6.719,7.824,8.09,13.248
				c1.371,5.425,1.316,11.023,0.478,16.066"/>
			<g>
				<path d="M272.289,345.439c-7.801-5.608-11.28-15.281-11.231-24.624c0.023-4.376,5.236,2.683,4.748,2.033
					c1.568,2.091,2.552,4.593,3.393,7.039c1.846,5.37,1.75,11.341,0.936,16.888c-0.277,1.892,2.612,2.705,2.893,0.797
					c1.072-7.304,0.982-15.177-2.265-21.98c-0.985-2.064-6.715-12.573-10.563-9.668c-4.187,3.16-1.878,11.233-0.79,15.438
					c1.724,6.663,5.8,12.667,11.366,16.668C272.35,349.161,273.845,346.558,272.289,345.439L272.289,345.439z"/>
			</g>
		</g>
		<g>
			<path d="M265.055,366.973c-3.548-2.349-6.729-6.259-8.882-10.916c-2.152-4.658-3.26-10.032-3.094-15.002
				c0.051-1.534,0.355-3.253,1.398-3.597c0.643-0.212,1.388,0.177,2.058,0.64c3.786,2.618,6.718,7.824,8.089,13.248
				c1.371,5.425,1.316,11.024,0.478,16.066"/>
			<g>
				<path d="M265.812,365.678c-7.803-5.608-11.28-15.279-11.232-24.623c0.022-4.379,5.236,2.683,4.749,2.032
					c1.567,2.091,2.551,4.593,3.392,7.039c1.846,5.369,1.75,11.342,0.936,16.888c-0.277,1.892,2.612,2.705,2.893,0.797
					c1.072-7.304,0.982-15.177-2.265-21.98c-0.986-2.066-6.712-12.571-10.563-9.667c-4.188,3.157-1.877,11.234-0.79,15.437
					c1.724,6.663,5.801,12.667,11.367,16.668C265.872,369.399,267.367,366.796,265.812,365.678L265.812,365.678z"/>
			</g>
		</g>
		<g>
			<path d="M213.454,273.052c-4.797,0.448-10.018-1.473-14.575-5.362c-4.558-3.891-8.423-9.725-10.79-16.286
				c-0.73-2.025-1.299-4.535-0.416-6c0.543-0.901,1.496-1.13,2.412-1.189c5.174-0.335,10.802,3.499,14.96,9.14
				c4.157,5.642,6.958,12.904,8.681,20.217"/>
			<g>
				<path d="M213.454,271.552c-6.279,0.276-11.381-2.688-15.732-7.024c-1.487-1.482-13.516-18.821-6.335-18.812
					c6.125,0.008,11.246,6.528,14.187,11.108c3.328,5.184,5.238,11.21,6.706,17.145c0.464,1.878,3.357,1.081,2.893-0.797
					c-2.124-8.592-5.384-16.806-11.259-23.538c-3.715-4.257-12.002-9.815-17.301-5.291c-4.593,3.921,4.422,16.64,6.674,19.61
					c4.804,6.335,12.04,10.956,20.168,10.599C215.381,274.467,215.39,271.467,213.454,271.552L213.454,271.552z"/>
			</g>
		</g>
		<g>
			<path d="M219.937,309.458c-4.797,0.448-10.018-1.473-14.575-5.362c-4.558-3.891-8.423-9.725-10.79-16.286
				c-0.73-2.025-1.299-4.535-0.416-6c0.543-0.901,1.496-1.13,2.412-1.189c5.174-0.335,10.802,3.499,14.959,9.14
				c4.158,5.642,6.959,12.904,8.682,20.217"/>
			<g>
				<path d="M219.937,307.958c-6.279,0.276-11.381-2.688-15.732-7.024c-1.487-1.482-13.516-18.821-6.335-18.812
					c6.126,0.008,11.245,6.528,14.186,11.108c3.329,5.184,5.239,11.21,6.707,17.145c0.464,1.878,3.357,1.081,2.893-0.797
					c-2.124-8.593-5.386-16.805-11.26-23.538c-3.714-4.257-12.001-9.815-17.3-5.291c-4.593,3.921,4.422,16.64,6.674,19.61
					c4.804,6.335,12.04,10.956,20.168,10.599C221.863,310.873,221.872,307.873,219.937,307.958L219.937,307.958z"/>
			</g>
		</g>
		<g>
			<path d="M228.364,347.475c-4.624,1.208-9.855,0.076-14.604-3.159c-4.748-3.236-8.981-8.556-11.818-14.85
				c-0.876-1.942-1.633-4.402-0.896-6.029c0.454-1,1.362-1.382,2.247-1.586c5.002-1.152,10.785,1.858,15.287,6.937
				c4.502,5.077,7.818,12.015,10.09,19.172"/>
			<g>
				<path d="M227.966,346.028c-6.354,1.323-11.953-1.386-16.596-5.574c-1.539-1.39-13.033-15.445-7.678-17.157
					c6.039-1.931,12.365,4.539,15.588,8.717c3.71,4.81,6.061,10.627,7.944,16.344c0.603,1.829,3.5,1.046,2.893-0.797
					c-2.868-8.702-6.897-17.248-14.06-23.223c-3.13-2.609-12.305-7.174-15.719-2.469c-4.182,5.766,4.132,15.58,7.817,19.617
					c5.257,5.759,12.865,9.047,20.606,7.435C230.656,348.526,229.854,345.635,227.966,346.028L227.966,346.028z"/>
			</g>
		</g>
		<g>
			<path d="M237.321,380.489c-4.12,2.654-9.182,3.111-14.131,1.275c-4.948-1.835-9.752-5.952-13.408-11.492
				c-1.129-1.71-2.23-3.983-1.803-5.867c0.263-1.159,1.049-1.828,1.842-2.309c4.48-2.714,10.359-1.426,15.374,2.361
				c5.015,3.788,9.222,9.836,12.489,16.43"/>
			<g>
				<path d="M236.564,379.194c-5.45,3.111-10.97,2.5-16.285-0.516c-2.51-1.424-14.694-11.698-9.701-15.287
					c5.577-4.007,12.993,1.273,16.897,5.09c3.796,3.71,6.522,8.476,8.914,13.163c0.879,1.725,3.467,0.205,2.59-1.514
					c-3.778-7.409-8.542-14.468-15.834-18.777c-3.982-2.353-13.815-4.084-16.194,1.646c-2.499,6.019,5.088,13.463,9.444,16.64
					c6.598,4.81,14.368,6.321,21.683,2.145C239.758,380.825,238.247,378.233,236.564,379.194L236.564,379.194z"/>
			</g>
		</g>
		<g>
			<path d="M209.828,238.561c7.219,65.789,22.753,132.055,45.667,194.802"/>
			<g>
				<path d="M208.328,238.561c7.388,66.612,22.805,132.223,45.721,195.2c0.656,1.804,3.556,1.025,2.893-0.797
					c-22.819-62.712-38.256-128.067-45.613-194.403C211.117,236.66,208.115,236.639,208.328,238.561L208.328,238.561z"/>
			</g>
		</g>
		<g>
			<path d="M232.724,357.936c1.482-1.991,2.967-3.982,4.449-5.974"/>
			<g>
				<path d="M234.019,358.692c1.482-1.991,2.967-3.981,4.449-5.974c1.157-1.554-1.449-3.047-2.59-1.514
					c-1.482,1.991-2.967,3.982-4.449,5.974C230.271,358.732,232.878,360.226,234.019,358.692L234.019,358.692z"/>
			</g>
		</g>
		<g>
			<path d="M243.717,394.971c-1.485-6.833-1.333-13.902,0.429-19.735c1.762-5.832,5.119-10.391,9.373-12.724
				c1.313-0.72,3.021-1.137,4.311,0.332c0.793,0.904,1.191,2.284,1.455,3.584c1.494,7.35,0.032,14.7-3.113,19.7
				c-3.145,5-7.809,7.838-12.77,9.146"/>
			<g>
				<path d="M245.163,394.572c-1.246-6.39-1.285-12.633,0.429-18.938c0.554-2.036,9.118-17.568,11.928-10.113
					c4.395,11.659-3.144,24.964-14.517,28.308c-1.853,0.544-1.063,3.439,0.797,2.893c6.688-1.966,12.552-6.255,15.244-12.879
					c1.814-4.466,2.458-8.951,2.247-13.75c-0.113-2.575-0.431-6.843-2.705-8.543c-5.078-3.799-10.728,3.215-13.214,7.118
					c-4.936,7.747-4.791,18.042-3.102,26.702C242.641,397.268,245.532,396.462,245.163,394.572L245.163,394.572z"/>
			</g>
		</g>
		<g>
			<path d="M243.595,394.337c1.141-2.408,2.281-4.815,3.423-7.223"/>
			<g>
				<path d="M244.89,395.094c1.141-2.407,2.281-4.815,3.423-7.223c0.824-1.738-1.762-3.261-2.59-1.514
					c-1.142,2.407-2.282,4.814-3.423,7.223C241.476,395.318,244.063,396.842,244.89,395.094L244.89,395.094z"/>
			</g>
		</g>
		<g>
			<path d="M224.696,328.063c0.22-2.359,0.933-4.501,2.037-6.125"/>
			<g>
				<path d="M226.196,328.063c0.205-1.92,0.775-3.746,1.832-5.368c1.061-1.626-1.538-3.127-2.59-1.514
					c-1.355,2.078-1.98,4.437-2.242,6.882C222.991,329.986,225.993,329.967,226.196,328.063L226.196,328.063z"/>
			</g>
		</g>
		<g>
			<path d="M217.939,293.003c1.073-1.977,2.147-3.953,3.221-5.93"/>
			<g>
				<path d="M219.234,293.76c1.073-1.977,2.147-3.953,3.221-5.93c0.924-1.7-1.667-3.215-2.59-1.514
					c-1.073,1.977-2.147,3.953-3.221,5.93C215.721,293.946,218.312,295.461,219.234,293.76L219.234,293.76z"/>
			</g>
		</g>
		<g>
			<path d="M212.63,259.957c1.313-2.202,2.627-4.404,3.941-6.606"/>
			<g>
				<path d="M213.925,260.714c1.314-2.202,2.627-4.404,3.941-6.606c0.994-1.665-1.6-3.173-2.59-1.514
					c-1.314,2.201-2.628,4.404-3.941,6.606C210.341,260.865,212.936,262.373,213.925,260.714L213.925,260.714z"/>
			</g>
		</g>
		<g>
			<path d="M209.103,268.789c1.896,1.437,3.633,3.431,5.033,5.778"/>
			<g>
				<path d="M208.042,269.85c1.953,1.514,3.518,3.368,4.799,5.475c1.003,1.65,3.599,0.144,2.59-1.514
					c-1.404-2.309-3.125-4.421-5.268-6.082c-0.646-0.501-1.489-0.633-2.121,0C207.519,268.252,207.395,269.348,208.042,269.85
					L208.042,269.85z"/>
			</g>
		</g>
		<g>
			<path d="M217.114,305.786c1.261,1.524,2.521,3.05,3.781,4.574"/>
			<g>
				<path d="M216.054,306.847c1.261,1.524,2.521,3.05,3.781,4.574c1.233,1.493,3.344-0.643,2.121-2.121
					c-1.26-1.525-2.521-3.05-3.781-4.574C216.94,303.233,214.831,305.368,216.054,306.847L216.054,306.847z"/>
			</g>
		</g>
		<g>
			<path d="M225.581,344.972c1.71,1.245,3.273,3.034,4.506,5.158"/>
			<g>
				<path d="M224.824,346.267c1.645,1.229,2.928,2.866,3.968,4.62c0.984,1.662,3.579,0.154,2.59-1.514
					c-1.318-2.225-2.971-4.147-5.044-5.696c-0.656-0.491-1.674-0.108-2.052,0.538C223.837,344.98,224.171,345.778,224.824,346.267
					L224.824,346.267z"/>
			</g>
		</g>
		<g>
			<path d="M234.763,378.818c1.56,1.068,2.98,2.707,4.047,4.672"/>
			<g>
				<path d="M234.006,380.113c1.502,1.06,2.624,2.541,3.509,4.134c0.939,1.691,3.53,0.179,2.59-1.514
					c-1.145-2.062-2.654-3.849-4.585-5.21C233.935,376.405,232.438,379.008,234.006,380.113L234.006,380.113z"/>
			</g>
		</g>
		<g>
			<path d="M262.534,434.434c-5.318-21.85-3.801-44.231,1.146-63.5c4.947-19.268,13.126-35.91,21.24-52.383"/>
			<g>
				<path d="M263.98,434.035c-4.727-20.169-4.05-40.953,0.731-61.044c4.486-18.854,12.986-36.388,21.504-53.684
					c0.852-1.729-1.735-3.249-2.59-1.514c-8.917,18.106-17.512,36.346-22.205,56.074c-4.75,19.962-5.018,40.978-0.333,60.964
					C261.529,436.716,264.422,435.917,263.98,434.035L263.98,434.035z"/>
			</g>
		</g>
		<g>
			<path d="M276.716,324.23c0.645,2.47,1.29,4.938,1.935,7.408"/>
			<g>
				<path d="M275.27,324.629c0.645,2.47,1.29,4.939,1.935,7.408c0.488,1.871,3.382,1.076,2.893-0.797
					c-0.645-2.47-1.29-4.939-1.935-7.408C277.674,321.961,274.78,322.756,275.27,324.629L275.27,324.629z"/>
			</g>
		</g>
		<g>
			<path d="M275.262,339.518c1.523-0.397,3.21-0.176,4.82,0.635"/>
			<g>
				<path d="M275.66,340.964c1.26-0.292,2.507-0.069,3.665,0.483c1.736,0.829,3.259-1.757,1.514-2.59
					c-1.912-0.913-3.891-1.271-5.976-0.786C272.979,338.509,273.778,341.401,275.66,340.964L275.66,340.964z"/>
			</g>
		</g>
		<g>
			<path d="M269.884,341.859c0.505,1.82,1.01,3.64,1.515,5.459"/>
			<g>
				<path d="M268.438,342.258c0.505,1.82,1.01,3.64,1.515,5.459c0.517,1.862,3.411,1.07,2.893-0.797
					c-0.505-1.82-1.01-3.64-1.515-5.459C270.813,339.599,267.919,340.391,268.438,342.258L268.438,342.258z"/>
			</g>
		</g>
		<g>
			<path d="M271.321,357.017c-0.979,0.118-1.959,0.236-2.938,0.354"/>
			<g>
				<path d="M271.321,355.517c-0.979,0.118-1.959,0.236-2.938,0.354c-0.812,0.097-1.5,0.608-1.5,1.5c0,0.744,0.687,1.598,1.5,1.5
					c0.979-0.117,1.959-0.235,2.938-0.354c0.812-0.098,1.5-0.608,1.5-1.5C272.821,356.273,272.135,355.418,271.321,355.517
					L271.321,355.517z"/>
			</g>
		</g>
		<g>
			<path d="M263.476,362.676c0.356,1.425,0.713,2.849,1.07,4.272"/>
			<g>
				<path d="M262.029,363.074c0.356,1.425,0.713,2.849,1.07,4.272c0.471,1.876,3.364,1.08,2.893-0.797
					c-0.357-1.425-0.714-2.849-1.07-4.272C264.452,360.401,261.56,361.197,262.029,363.074L262.029,363.074z"/>
			</g>
		</g>
		<g>
			<path d="M264.911,381.178c-0.83,0.436-1.66,0.87-2.491,1.305"/>
			<g>
				<path d="M264.154,379.883c-0.83,0.436-1.661,0.87-2.491,1.305c-0.725,0.378-0.937,1.372-0.538,2.052
					c0.427,0.729,1.327,0.917,2.052,0.538c0.831-0.434,1.661-0.869,2.491-1.305c0.724-0.379,0.938-1.371,0.538-2.052
					C265.779,379.691,264.878,379.503,264.154,379.883L264.154,379.883z"/>
			</g>
		</g>
		<g>
			<path d="M256.888,393.171c0.779,1.709,1.559,3.418,2.338,5.127"/>
			<g>
				<path d="M255.593,393.928c0.779,1.709,1.559,3.418,2.338,5.127c0.802,1.759,3.387,0.232,2.59-1.514
					c-0.779-1.709-1.559-3.418-2.338-5.127C257.381,390.655,254.796,392.182,255.593,393.928L255.593,393.928z"/>
			</g>
		</g>
		<g>
			<path d="M262.136,405.179c-0.879,0.814-1.759,1.63-2.639,2.444"/>
			<g>
				<path d="M261.075,404.118c-0.88,0.814-1.759,1.63-2.639,2.444c-0.6,0.556-0.562,1.56,0,2.121c0.595,0.595,1.521,0.555,2.121,0
					c0.88-0.814,1.76-1.629,2.639-2.444c0.6-0.556,0.562-1.56,0-2.121C262.603,403.523,261.675,403.563,261.075,404.118
					L261.075,404.118z"/>
			</g>
		</g>
		<g>
			<path d="M245.418,443.743c-26.224-43.238-60.284-77.97-96.792-98.7"/>
			<g>
				<path d="M246.713,442.986c-24.269-39.782-56.584-75.899-97.33-99.238c-1.681-0.964-3.192,1.629-1.514,2.59
					c40.308,23.089,72.247,58.81,96.254,98.162C245.128,446.148,247.724,444.643,246.713,442.986L246.713,442.986z"/>
			</g>
		</g>
		<g>
			<path d="M219.794,401.965c0.502,2.411,1.004,4.821,1.507,7.232"/>
			<g>
				<path d="M218.348,402.363c0.502,2.411,1.004,4.822,1.507,7.232c0.395,1.894,3.286,1.091,2.893-0.797
					c-0.503-2.411-1.005-4.822-1.507-7.232C220.847,399.673,217.954,400.476,218.348,402.363L218.348,402.363z"/>
			</g>
		</g>
		<g>
			<path d="M226.341,422.338c1.192-0.819,2.538-1.297,3.951-1.403"/>
			<g>
				<path d="M227.098,423.633c0.972-0.645,2.023-1.091,3.194-1.198c0.814-0.075,1.5-0.626,1.5-1.5c0-0.761-0.685-1.575-1.5-1.5
					c-1.7,0.156-3.279,0.659-4.708,1.608C223.98,422.107,225.481,424.707,227.098,423.633L227.098,423.633z"/>
			</g>
		</g>
		<g>
			<path d="M204.985,396.838c1.166-0.759,2.33-1.517,3.494-2.275"/>
			<g>
				<path d="M205.742,398.133c1.165-0.758,2.33-1.516,3.494-2.275c1.614-1.052,0.112-3.65-1.514-2.59
					c-1.165,0.759-2.329,1.517-3.494,2.275C202.614,396.594,204.116,399.191,205.742,398.133L205.742,398.133z"/>
			</g>
		</g>
		<g>
			<path d="M196.638,375.949c0.51,2.368,1.021,4.737,1.531,7.105"/>
			<g>
				<path d="M195.191,376.348c0.51,2.369,1.021,4.737,1.531,7.105c0.407,1.892,3.299,1.089,2.893-0.797
					c-0.51-2.369-1.021-4.737-1.531-7.105C197.677,373.659,194.785,374.462,195.191,376.348L195.191,376.348z"/>
			</g>
		</g>
		<g>
			<path d="M185.791,377.086c0.901-1.104,2.017-1.884,3.246-2.272"/>
			<g>
				<path d="M186.852,378.146c0.707-0.843,1.53-1.535,2.584-1.887c0.775-0.258,1.273-1.025,1.048-1.845
					c-0.208-0.757-1.069-1.307-1.845-1.048c-1.536,0.512-2.867,1.417-3.908,2.658c-0.525,0.626-0.616,1.506,0,2.121
					C185.271,378.687,186.325,378.773,186.852,378.146L186.852,378.146z"/>
			</g>
		</g>
		<g>
			<path d="M177.954,359.037c0.148,2.223,0.297,4.446,0.445,6.67"/>
			<g>
				<path d="M176.454,359.037c0.148,2.224,0.297,4.446,0.445,6.67c0.128,1.92,3.129,1.933,3,0c-0.148-2.224-0.297-4.446-0.445-6.67
					C179.326,357.117,176.325,357.104,176.454,359.037L176.454,359.037z"/>
			</g>
		</g>
		<g>
			<path d="M166.71,360.449c1.19-0.72,2.599-0.914,4.014-0.555"/>
			<g>
				<path d="M167.467,361.744c0.903-0.513,1.847-0.634,2.858-0.403c1.883,0.43,2.684-2.463,0.797-2.893
					c-1.797-0.41-3.558-0.21-5.169,0.706C164.271,360.109,165.782,362.702,167.467,361.744L167.467,361.744z"/>
			</g>
		</g>
		<g>
			<path d="M160.44,346.636c0.383,1.926,0.767,3.853,1.149,5.778"/>
			<g>
				<path d="M158.994,347.034c0.383,1.927,0.767,3.853,1.149,5.778c0.377,1.896,3.269,1.092,2.893-0.797
					c-0.383-1.927-0.767-3.853-1.149-5.778C161.51,344.34,158.618,345.146,158.994,347.034L158.994,347.034z"/>
			</g>
		</g>
	</g>
	<g>
		<ellipse opacity="0.04" stroke="#000000" stroke-miterlimit="10" cx="296.691" cy="531.769" rx="55.561" ry="15.643"/>
		<ellipse fill="#FFC352" cx="306.08" cy="430.135" rx="61.784" ry="15.412"/>
		<path fill="#D1860D" d="M254.833,463.915l7.928,70.222c0,0,38.115,15.634,84.908-1.421l8.899-69.449"/>
		<path fill="#FFC352" d="M244.296,430.135c0,0-4.619,24.887,1.002,30.098c0,0,49.676,24.635,120.738,0
			c0,0,8.866-11.873,1.828-30.098"/>
		<ellipse fill="#D1860D" cx="305.956" cy="428.649" rx="55.976" ry="12.317"/>
		<g>
			<path fill="#FFDB97" d="M336.565,208.806c-4.068-6.709-5.807-14.801-4.854-22.589c0.954-7.788,4.593-15.222,10.159-20.751
				c1.718-1.707,4.098-3.34,6.39-2.558c1.41,0.481,2.375,1.771,3.121,3.06c4.224,7.287,4.129,16.587,0.922,24.375
				c-3.206,7.789-9.231,14.167-16.115,19.021"/>
		</g>
		<g>
			<path fill="#FFDB97" d="M332.552,227.326c2.727-7.356,7.984-13.748,14.678-17.843c6.693-4.094,14.777-5.864,22.569-4.941
				c2.405,0.284,5.163,1.134,5.976,3.416c0.499,1.403,0.089,2.96-0.457,4.347c-3.082,7.838-10.426,13.544-18.521,15.874
				c-8.094,2.329-16.837,1.574-24.917-0.801"/>
		</g>
		<g>
			<path fill="#FFDB97" d="M322.129,264.278c2.728-7.356,7.985-13.748,14.679-17.843c6.692-4.095,14.777-5.864,22.569-4.941
				c2.405,0.285,5.163,1.134,5.975,3.416c0.499,1.403,0.089,2.96-0.456,4.347c-3.083,7.838-10.427,13.544-18.521,15.874
				c-8.095,2.329-16.837,1.574-24.918-0.801"/>
		</g>
		<g>
			<path fill="#FFDB97" d="M314.55,301.23c2.727-7.357,7.984-13.749,14.678-17.843c6.692-4.095,14.777-5.864,22.569-4.941
				c2.405,0.284,5.163,1.134,5.976,3.416c0.498,1.403,0.088,2.96-0.457,4.347c-3.083,7.838-10.426,13.544-18.521,15.874
				c-8.095,2.329-16.837,1.574-24.917-0.801"/>
		</g>
		<g>
			<path fill="#FFDB97" d="M309.812,338.183c2.727-7.356,7.984-13.749,14.678-17.843c6.693-4.095,14.778-5.864,22.57-4.941
				c2.404,0.284,5.163,1.134,5.975,3.415c0.5,1.404,0.09,2.961-0.456,4.348c-3.083,7.838-10.427,13.544-18.521,15.874
				c-8.094,2.329-16.837,1.574-24.918-0.801"/>
		</g>
		<g>
			<path fill="#FFDB97" d="M408.375,322.089c2.029-5.477,5.943-10.234,10.926-13.282s11.001-4.365,16.801-3.679
				c1.791,0.212,3.844,0.844,4.448,2.543c0.371,1.044,0.066,2.203-0.34,3.235c-2.295,5.835-7.762,10.082-13.787,11.816
				s-12.533,1.173-18.548-0.596"/>
		</g>
		<g>
			<path fill="#FFDB97" d="M396.049,329.991c-3.782-4.45-6.017-10.192-6.236-16.028c-0.22-5.837,1.577-11.73,5.015-16.452
				c1.061-1.458,2.616-2.938,4.394-2.635c1.093,0.188,1.954,1.021,2.655,1.88c3.966,4.856,4.994,11.702,3.559,17.806
				c-1.437,6.104-5.111,11.504-9.598,15.884"/>
		</g>
		<g>
			<path fill="#FFDB97" d="M190.447,288.887c-6.125,0.931-12.552-0.256-17.94-3.313s-9.705-7.964-12.048-13.699
				c-0.724-1.771-1.192-4.001,0.073-5.435c0.778-0.882,2.011-1.194,3.178-1.348c6.594-0.869,13.344,2.021,18.05,6.721
				c4.706,4.699,7.529,11.026,8.979,17.518"/>
		</g>
		<g>
			<path fill="#FFDB97" d="M212.497,310.693c-4.051,4.688-9.705,7.963-15.787,9.143c-6.083,1.179-12.553,0.254-18.061-2.581
				c-1.701-0.876-3.506-2.266-3.477-4.178c0.02-1.177,0.752-2.215,1.539-3.09c4.446-4.945,11.455-7.138,18.086-6.624
				s12.889,3.487,18.21,7.478"/>
		</g>
		<g>
			<path fill="#FFDB97" d="M232.109,334.575c-3.343,5.217-8.476,9.262-14.329,11.293c-5.853,2.031-12.389,2.035-18.244,0.011
				c-1.807-0.625-3.791-1.744-4.033-3.642c-0.148-1.167,0.43-2.299,1.084-3.276c3.699-5.527,10.324-8.692,16.961-9.127
				c6.637-0.434,13.254,1.621,19.088,4.815"/>
		</g>
		<g>
			<path fill="#FFDB97" d="M252.954,363.947c-3.343,5.217-8.477,9.262-14.328,11.293c-5.854,2.031-12.389,2.035-18.244,0.011
				c-1.808-0.625-3.793-1.744-4.034-3.642c-0.149-1.167,0.43-2.299,1.084-3.276c3.698-5.527,10.325-8.692,16.962-9.126
				c6.637-0.435,13.254,1.62,19.088,4.814"/>
		</g>
		<g>
			<path fill="#FFDB97" d="M272.981,401.969c-4.781,3.938-10.908,6.213-17.103,6.35c-6.194,0.138-12.415-1.864-17.366-5.588
				c-1.529-1.149-3.074-2.824-2.723-4.704c0.217-1.156,1.115-2.057,2.038-2.786c5.216-4.125,12.494-5.104,18.944-3.48
				c6.449,1.624,12.116,5.61,16.688,10.44"/>
		</g>
		<g>
			<path fill="#FFDB97" d="M203.115,300.03c-3.272-5.261-4.719-11.634-4.036-17.792c0.682-6.157,3.488-12.06,7.832-16.477
				c1.342-1.363,3.205-2.674,5.022-2.076c1.117,0.367,1.892,1.376,2.492,2.387c3.401,5.716,3.41,13.059,0.948,19.237
				c-2.461,6.18-7.16,11.271-12.552,15.165"/>
		</g>
		<g>
			<path fill="#FFDB97" d="M222.261,320.883c-2.447-5.691-2.923-12.209-1.326-18.195c1.598-5.986,5.256-11.401,10.213-15.117
				c1.531-1.146,3.57-2.164,5.277-1.301c1.049,0.53,1.663,1.644,2.105,2.733c2.506,6.16,1.416,13.422-1.943,19.163
				c-3.359,5.74-8.769,10.069-14.682,13.112"/>
		</g>
		<g>
			<path fill="#FFDB97" d="M243.105,347.413c-2.448-5.691-2.923-12.21-1.325-18.195c1.596-5.986,5.255-11.401,10.212-15.118
				c1.53-1.146,3.569-2.163,5.276-1.301c1.051,0.53,1.664,1.645,2.107,2.733c2.506,6.161,1.414,13.423-1.944,19.163
				s-8.769,10.07-14.683,13.112"/>
		</g>
		<g>
			<path fill="#FFDB97" d="M264.897,385.313c-2.447-5.691-2.922-12.21-1.326-18.195c1.598-5.986,5.256-11.401,10.213-15.117
				c1.531-1.147,3.57-2.164,5.277-1.302c1.049,0.53,1.663,1.645,2.106,2.734c2.506,6.16,1.415,13.422-1.944,19.162
				s-8.768,10.07-14.682,13.113"/>
		</g>
		<g>
			<path fill="#FFDB97" d="M386.3,337.727c5.199-2.662,11.3-3.52,17.031-2.396s11.056,4.224,14.864,8.652
				c1.175,1.366,2.261,3.221,1.557,4.881c-0.433,1.021-1.441,1.668-2.438,2.153c-5.637,2.746-12.536,2.179-18.146-0.618
				c-5.612-2.798-10.026-7.612-13.262-12.983"/>
		</g>
		<g>
			<path fill="#FFDB97" d="M365.455,352.887c5.198-2.662,11.3-3.521,17.031-2.396c5.731,1.124,11.056,4.224,14.864,8.651
				c1.176,1.367,2.26,3.222,1.557,4.881c-0.433,1.021-1.441,1.669-2.438,2.154c-5.636,2.746-12.536,2.179-18.147-0.619
				c-5.611-2.797-10.025-7.611-13.261-12.982"/>
		</g>
		<g>
			<path fill="#FFDB97" d="M344.978,375.538c4.916-3.153,10.904-4.6,16.719-4.036c5.813,0.563,11.413,3.131,15.633,7.169
				c1.303,1.246,2.563,2.986,2.023,4.707c-0.332,1.058-1.273,1.8-2.219,2.38c-5.343,3.28-12.265,3.385-18.121,1.145
				c-5.856-2.239-10.717-6.604-14.458-11.635"/>
		</g>
		<g>
			<path fill="#FFDB97" d="M330.144,389.533c-4.91-3.164-8.71-8.014-10.61-13.536c-1.899-5.522-1.888-11.684,0.036-17.199
				c0.594-1.702,1.654-3.57,3.443-3.794c1.1-0.137,2.166,0.411,3.086,1.03c5.201,3.501,8.168,9.756,8.561,16.014
				s-1.562,12.49-4.587,17.982"/>
		</g>
		<g>
			<path fill="#FFDB97" d="M325.565,399.749c4.178-4.081,9.75-6.707,15.558-7.33s11.812,0.761,16.76,3.863
				c1.527,0.957,3.112,2.407,2.933,4.201c-0.111,1.104-0.883,2.021-1.691,2.779c-4.571,4.292-11.329,5.792-17.518,4.781
				c-6.188-1.01-11.83-4.303-16.51-8.475"/>
		</g>
		<g>
			<path fill="#FFDB97" d="M376.134,343.377c-4.235-4.021-7.068-9.492-7.909-15.272c-0.841-5.779,0.317-11.831,3.231-16.893
				c0.9-1.563,2.289-3.201,4.089-3.088c1.106,0.069,2.052,0.807,2.841,1.586c4.461,4.407,6.213,11.104,5.436,17.325
				s-3.855,11.983-7.85,16.816"/>
		</g>
		<g>
			<path fill="#FFDB97" d="M355.289,361.38c-4.235-4.022-7.069-9.493-7.909-15.273c-0.84-5.779,0.317-11.831,3.232-16.892
				c0.899-1.563,2.289-3.201,4.088-3.088c1.106,0.069,2.053,0.806,2.841,1.585c4.46,4.407,6.213,11.104,5.436,17.326
				s-3.856,11.982-7.85,16.816"/>
		</g>
		<g>
			<path fill="#FFDB97" d="M325.645,241.137c-7.661-1.691-14.714-6.022-19.688-12.091c-4.974-6.068-7.836-13.834-7.992-21.678
				c-0.047-2.422,0.416-5.271,2.564-6.388c1.321-0.688,2.92-0.494,4.368-0.145c8.187,1.979,14.847,8.47,18.265,16.167
				c3.419,7.698,3.871,16.462,2.627,24.792"/>
		</g>
		<g>
			<path fill="#FFDB97" d="M316.214,281.67c-7.662-1.691-14.715-6.022-19.688-12.091c-4.974-6.067-7.837-13.833-7.991-21.678
				c-0.049-2.422,0.414-5.271,2.563-6.388c1.322-0.687,2.921-0.494,4.369-0.145c8.187,1.979,14.847,8.47,18.265,16.168
				c3.419,7.697,3.87,16.461,2.626,24.791"/>
		</g>
		<g>
			<path fill="#FFDB97" d="M308.934,324.743c-7.802-0.83-15.293-4.351-20.91-9.828c-5.618-5.478-9.326-12.877-10.353-20.655
				c-0.316-2.401-0.173-5.283,1.838-6.633c1.238-0.83,2.848-0.816,4.326-0.629c8.355,1.056,15.695,6.767,19.949,14.037
				c4.252,7.271,5.676,15.929,5.365,24.346"/>
		</g>
		<g>
			<path fill="#FFDB97" d="M305.146,362.883c-7.795,0.892-15.873-0.91-22.55-5.031s-11.909-10.533-14.606-17.901
				c-0.833-2.274-1.322-5.118,0.347-6.874c1.026-1.079,2.601-1.417,4.084-1.557c8.386-0.792,16.794,3.181,22.53,9.349
				c5.735,6.168,9.012,14.309,10.545,22.591"/>
		</g>
		<g>
			<g>
				<path fill="#FFC352" d="M337.026,203.468c-23.963,71.471-35.331,146.86-33.521,222.22c0.047,1.932,3.047,1.936,3,0
					c-1.804-75.114,9.529-150.185,33.414-221.423C340.536,202.426,337.638,201.643,337.026,203.468L337.026,203.468z"/>
			</g>
		</g>
		<g>
			<g>
				<path fill="#FFC352" d="M310.485,338.958c3.359-1.392,6.719-2.783,10.078-4.175c1.762-0.729,0.99-3.633-0.797-2.893
					c-3.359,1.392-6.719,2.783-10.078,4.175C307.927,336.795,308.698,339.698,310.485,338.958L310.485,338.958z"/>
			</g>
		</g>
		<g>
			<path fill="#FFDB97" d="M307.301,380.722c1.353-7.729,5.37-14.965,11.214-20.2c5.844-5.236,13.477-8.438,21.307-8.937
				c2.416-0.154,5.283,0.183,6.493,2.28c0.745,1.29,0.622,2.896,0.337,4.357c-1.617,8.267-7.81,15.205-15.35,18.958
				c-7.541,3.754-16.275,4.59-24.652,3.713"/>
		</g>
		<g>
			<g>
				<path fill="#FFC352" d="M308.207,381.307c3.053-1.976,6.106-3.95,9.159-5.926c1.618-1.046,0.115-3.645-1.514-2.59
					c-3.054,1.975-6.106,3.95-9.159,5.926C305.075,379.764,306.578,382.361,308.207,381.307L308.207,381.307z"/>
			</g>
		</g>
		<g>
			<g>
				<path fill="#FFC352" d="M314.929,303.793c1.509-2.143,3.53-3.758,5.89-4.876c1.747-0.828,0.224-3.414-1.514-2.59
					c-2.834,1.343-5.166,3.395-6.966,5.952C311.222,303.865,313.825,305.361,314.929,303.793L314.929,303.793z"/>
			</g>
		</g>
		<g>
			<g>
				<path fill="#FFC352" d="M322.678,265.064c2.718-1.56,5.436-3.12,8.153-4.68c1.678-0.962,0.167-3.555-1.514-2.59
					c-2.719,1.56-5.436,3.119-8.153,4.68C319.487,263.438,320.997,266.029,322.678,265.064L322.678,265.064z"/>
			</g>
		</g>
		<g>
			<g>
				<path fill="#FFC352" d="M332.126,228.529c3.211-1.685,6.422-3.37,9.632-5.055c1.714-0.898,0.197-3.488-1.514-2.59
					c-3.211,1.685-6.421,3.37-9.632,5.055C328.898,226.838,330.415,229.428,332.126,228.529L332.126,228.529z"/>
			</g>
		</g>
		<g>
			<g>
				<path fill="#FFC352" d="M320.13,235.837c1.987,2.201,3.43,4.741,4.313,7.571c0.575,1.841,3.472,1.055,2.893-0.797
					c-1.04-3.331-2.746-6.307-5.085-8.896C320.952,232.277,318.837,234.405,320.13,235.837L320.13,235.837z"/>
			</g>
		</g>
		<g>
			<g>
				<path fill="#FFC352" d="M312.515,277.365c1.137,2.142,2.271,4.284,3.407,6.426c0.906,1.71,3.496,0.194,2.59-1.514
					c-1.136-2.143-2.271-4.284-3.407-6.426C314.197,274.142,311.608,275.658,312.515,277.365L312.515,277.365z"/>
			</g>
		</g>
		<g>
			<g>
				<path fill="#FFC352" d="M304.903,321.965c1.803,1.924,3.081,4.166,3.829,6.693c0.548,1.852,3.442,1.063,2.893-0.797
					c-0.895-3.023-2.445-5.718-4.601-8.018C305.699,318.43,303.582,320.555,304.903,321.965L304.903,321.965z"/>
			</g>
		</g>
		<g>
			<g>
				<path fill="#FFC352" d="M301.018,361.067c1.67,1.688,2.791,3.686,3.38,5.984c0.479,1.873,3.373,1.078,2.893-0.797
					c-0.713-2.783-2.131-5.268-4.151-7.309C301.776,357.569,299.656,359.691,301.018,361.067L301.018,361.067z"/>
			</g>
		</g>
		<g>
			<g>
				<path fill="#FFC352" d="M316.77,430.354c7.708-52.138,54.771-83.033,95.907-108.789c1.636-1.023,0.131-3.62-1.514-2.59
					c-41.742,26.134-89.468,57.694-97.286,110.582C313.597,431.449,316.487,432.263,316.77,430.354L316.77,430.354z"/>
			</g>
		</g>
		<g>
			<g>
				<path fill="#FFC352" d="M394.686,322.451c-0.322,2.842-0.645,5.684-0.968,8.525c-0.219,1.92,2.784,1.899,3,0
					c0.323-2.842,0.646-5.684,0.968-8.525C397.903,320.53,394.901,320.552,394.686,322.451L394.686,322.451z"/>
			</g>
		</g>
		<g>
			<g>
				<path fill="#FFC352" d="M385.763,339.096c2.341,0.29,4.47,1.232,6.363,2.616c1.564,1.144,3.059-1.461,1.514-2.59
					c-2.351-1.718-5-2.67-7.877-3.026C383.846,335.858,383.869,338.861,385.763,339.096L385.763,339.096z"/>
			</g>
		</g>
		<g>
			<g>
				<path fill="#FFC352" d="M374.688,337.599c-0.192,2.107-0.384,4.214-0.576,6.321c-0.176,1.927,2.826,1.91,3,0
					c0.192-2.107,0.384-4.214,0.576-6.321C377.864,335.672,374.862,335.688,374.688,337.599L374.688,337.599z"/>
			</g>
		</g>
		<g>
			<g>
				<path fill="#FFC352" d="M370.708,352.461c-1.578-0.318-3.157-0.637-4.736-0.955c-1.889-0.381-2.693,2.51-0.797,2.893
					c1.578,0.318,3.157,0.637,4.736,0.955C371.8,355.734,372.604,352.843,370.708,352.461L370.708,352.461z"/>
			</g>
		</g>
		<g>
			<g>
				<path fill="#FFC352" d="M353.642,356.229c-0.209,1.632-0.418,3.264-0.626,4.896c-0.104,0.813,0.761,1.5,1.5,1.5
					c0.896,0,1.396-0.689,1.5-1.5c0.208-1.632,0.417-3.264,0.626-4.896c0.104-0.813-0.762-1.5-1.5-1.5
					C354.245,354.729,353.745,355.419,353.642,356.229L353.642,356.229z"/>
			</g>
		</g>
		<g>
			<g>
				<path fill="#FFC352" d="M347.473,374.493c-1.518,0.076-3.034,0.152-4.552,0.229c-1.925,0.097-1.935,3.097,0,3
					c1.518-0.076,3.034-0.152,4.552-0.229C349.397,377.396,349.407,374.396,347.473,374.493L347.473,374.493z"/>
			</g>
		</g>
		<g>
			<g>
				<path fill="#FFC352" d="M327.199,385.18c0.293,2.116,0.585,4.232,0.877,6.349c0.264,1.909,3.153,1.094,2.893-0.797
					c-0.292-2.116-0.584-4.232-0.877-6.349C329.827,382.473,326.938,383.289,327.199,385.18L327.199,385.18z"/>
			</g>
		</g>
		<g>
			<g>
				<path fill="#FFC352" d="M329.948,398.101c-1.797,0.447-3.593,0.894-5.389,1.341c-1.877,0.467-1.08,3.36,0.797,2.893
					c1.797-0.447,3.593-0.894,5.389-1.341C332.622,400.526,331.825,397.633,329.948,398.101L329.948,398.101z"/>
			</g>
		</g>
		<g>
			<g>
				<path fill="#FFC352" d="M285.307,431.486c-17.748-56.821-51.769-107.924-97.409-146.15c-1.473-1.233-3.606,0.878-2.121,2.121
					c45.256,37.905,79.035,88.473,96.638,144.826C282.989,434.124,285.886,433.338,285.307,431.486L285.307,431.486z"/>
			</g>
		</g>
		<g>
			<g>
				<path fill="#FFC352" d="M265.094,376.8c-0.512,2.717-1.023,5.434-1.534,8.151c-0.355,1.891,2.535,2.697,2.893,0.797
					c0.511-2.717,1.022-5.434,1.534-8.151C268.343,375.707,265.451,374.899,265.094,376.8L265.094,376.8z"/>
			</g>
		</g>
		<g>
			<g>
				<path fill="#FFC352" d="M265.781,402.693c2.178-0.268,4.319-0.201,6.465,0.271c1.885,0.416,2.687-2.477,0.797-2.893
					c-2.401-0.529-4.819-0.679-7.262-0.379C263.887,399.926,263.864,402.929,265.781,402.693L265.781,402.693z"/>
			</g>
		</g>
		<g>
			<g>
				<path fill="#FFC352" d="M246.365,366.746c2.208-0.26,4.416-0.521,6.624-0.781c1.896-0.224,1.919-3.227,0-3
					c-2.208,0.261-4.416,0.521-6.624,0.781C244.468,363.97,244.446,366.972,246.365,366.746L246.365,366.746z"/>
			</g>
		</g>
		<g>
			<g>
				<path fill="#FFC352" d="M243.166,339.51c-0.476,2.677-0.951,5.354-1.428,8.032c-0.337,1.891,2.554,2.7,2.893,0.797
					c0.477-2.677,0.952-5.354,1.428-8.032C246.395,338.416,243.504,337.607,243.166,339.51L243.166,339.51z"/>
			</g>
		</g>
		<g>
			<g>
				<path fill="#FFC352" d="M227.618,337.655c1.91-0.675,3.817-0.948,5.84-0.835c1.934,0.108,1.924-2.892,0-3
					c-2.262-0.127-4.501,0.188-6.637,0.942C225.01,335.402,225.79,338.301,227.618,337.655L227.618,337.655z"/>
			</g>
		</g>
		<g>
			<g>
				<path fill="#FFC352" d="M223.295,313.639c-0.959,2.363-1.919,4.728-2.878,7.092c-0.729,1.793,2.175,2.565,2.893,0.797
					c0.96-2.363,1.919-4.728,2.878-7.092C226.915,312.643,224.013,311.87,223.295,313.639L223.295,313.639z"/>
			</g>
		</g>
		<g>
			<g>
				<path fill="#FFC352" d="M206.585,311.943c2.004-0.149,3.932,0.151,5.751,1.025c1.734,0.834,3.257-1.753,1.514-2.59
					c-2.29-1.101-4.722-1.625-7.265-1.436C204.668,309.086,204.654,312.088,206.585,311.943L206.585,311.943z"/>
			</g>
		</g>
		<g>
			<g>
				<path fill="#FFC352" d="M202.822,292.953c-0.438,2.162-0.874,4.325-1.311,6.488c-0.382,1.889,2.511,2.693,2.893,0.797
					c0.437-2.162,0.873-4.325,1.311-6.488C206.097,291.861,203.206,291.058,202.822,292.953L202.822,292.953z"/>
			</g>
		</g>
	</g>
</g>
</svg>
