<?xml version="1.0" encoding="utf-8"?>
<!-- Generator: Adobe Illustrator 21.0.0, SVG Export Plug-In . SVG Version: 6.00 Build 0)  -->
<svg version="1.1" id="Layer_1" xmlns="http://www.w3.org/2000/svg" xmlns:xlink="http://www.w3.org/1999/xlink" x="0px" y="0px"
	 viewBox="0 0 42.3 42.3" style="enable-background:new 0 0 42.3 42.3;" xml:space="preserve">
<style type="text/css">
	.st0{fill:#57BE97;}
	.st1{enable-background:new    ;}
	.st2{fill:#F2F5F9;}
</style>
<g>
	<circle class="st0" cx="21.6" cy="21.1" r="19.6"/>
	<g class="st1">
		<path class="st2" d="M31.3,30.1c0,0.3-0.1,0.6-0.3,0.8c-0.2,0.2-0.5,0.3-0.8,0.3H25v-8h2.6l0.4-3.1h-3v-2c0-0.5,0.1-0.9,0.3-1.1
			c0.2-0.3,0.7-0.4,1.2-0.4h1.6v-2.8c-0.6-0.1-1.4-0.1-2.4-0.1c-1.2,0-2.1,0.4-2.9,1.1c-0.7,0.7-1.1,1.7-1.1,3v2.3h-2.6v3.1h2.6v8
			h-9.7c-0.3,0-0.6-0.1-0.8-0.3s-0.3-0.5-0.3-0.8V11.8c0-0.3,0.1-0.6,0.3-0.8s0.5-0.3,0.8-0.3h18.1c0.3,0,0.6,0.1,0.8,0.3
			s0.3,0.5,0.3,0.8V30.1z"/>
	</g>
</g>
</svg>
