<?xml version="1.0" encoding="utf-8"?>
<!-- Generator: Adobe Illustrator 21.0.0, SVG Export Plug-In . SVG Version: 6.00 Build 0)  -->
<svg version="1.1" id="Layer_1" xmlns="http://www.w3.org/2000/svg" xmlns:xlink="http://www.w3.org/1999/xlink" x="0px" y="0px"
	 viewBox="0 0 42.3 42.3" style="enable-background:new 0 0 42.3 42.3;" xml:space="preserve">
<style type="text/css">
	.st0{fill:#57BE97;}
	.st1{enable-background:new    ;}
	.st2{fill:#F2F5F9;}
</style>
<g>
	<circle class="st0" cx="21.1" cy="21.1" r="19.6"/>
	<g class="st1">
		<path class="st2" d="M11.9,14.9c-0.5-0.5-0.7-1.1-0.7-1.7s0.2-1.3,0.7-1.7s1.1-0.7,1.7-0.7c0.7,0,1.2,0.2,1.7,0.7s0.7,1.1,0.7,1.7
			s-0.2,1.3-0.7,1.7s-1.1,0.7-1.7,0.7C12.9,15.7,12.4,15.4,11.9,14.9z M11.5,31.3V17.5h4.2v13.7H11.5z M27.3,31.3v-6.7
			c0-1.1-0.1-1.9-0.3-2.4c-0.3-0.8-1-1.2-2-1.2s-1.7,0.4-2,1.1c-0.3,0.6-0.5,1.4-0.5,2.4v6.8h-4.2V17.5h4v1.9h0
			c0.3-0.6,0.8-1.1,1.5-1.5c0.7-0.5,1.6-0.7,2.5-0.7c2,0,3.4,0.6,4.1,1.9c0.6,1,0.9,2.6,0.9,4.7v7.5H27.3z"/>
	</g>
</g>
</svg>
