<?xml version="1.0" encoding="utf-8"?>
<!-- Generator: Adobe Illustrator 16.0.0, SVG Export Plug-In . SVG Version: 6.00 Build 0)  -->
<!DOCTYPE svg PUBLIC "-//W3C//DTD SVG 1.1//EN" "http://www.w3.org/Graphics/SVG/1.1/DTD/svg11.dtd">
<svg version="1.1" id="Layer_1" xmlns="http://www.w3.org/2000/svg" xmlns:xlink="http://www.w3.org/1999/xlink" x="0px" y="0px"
	 width="686.822px" height="701.24px" viewBox="0 0 686.822 701.24" enable-background="new 0 0 686.822 701.24"
	 xml:space="preserve">
<g>
	<g>
		<defs>
			<rect id="SVGID_7_" y="-46.558" width="800.304" height="747.798"/>
		</defs>
		<clipPath id="SVGID_2_">
			<use xlink:href="#SVGID_7_"  overflow="visible"/>
		</clipPath>
		<g clip-path="url(#SVGID_2_)">
			<g>
				<path fill="#FFE4F1" d="M655.237,735.766c-125.186,147.774-527.9,83.854-674.634-40.449
					C-166.135,571.011-187.049,276.06-61.862,128.285C63.323-19.491,210.003-67.115,331.765,228.484
					C405.117,406.563,780.424,587.99,655.237,735.766z"/>
			</g>
		</g>
	</g>
	<g>
		<g opacity="0.04">
			<path stroke="#000000" stroke-miterlimit="10" d="M210.509,551.35c2.79,6.762-11.349,16.066-31.579,20.782
				c-20.231,4.716-38.893,3.058-41.683-3.703c-2.79-6.762,11.349-16.065,31.579-20.782
				C189.058,542.931,207.719,544.589,210.509,551.35z"/>
			<path stroke="#000000" stroke-miterlimit="10" d="M154.566,593.806l27.715,54.688c0,0,27.723,7.15,49.875-12.864L214.67,579.23"
				/>
			<path stroke="#000000" stroke-miterlimit="10" d="M137.247,568.429c0,0,5.419,20.407,10.458,23.771
				c0,0,37.526,12.703,71.584-16.688c0,0,1.365-10.657-8.78-24.162"/>
			<g>
				<path stroke="#000000" stroke-miterlimit="10" d="M206.505,550.99c2.229,5.404-10.821,13.248-29.15,17.521
					s-34.994,3.356-37.224-2.048c-2.23-5.404,10.821-13.248,29.15-17.521C187.609,544.669,204.275,545.586,206.505,550.99z"/>
				<g>
					<g>
						<g>
							<path d="M26.318,361.398c-3.494,1.222-3.534,7.271-1.342,12.127c2.192,4.856,5.918,8.848,9.298,12.929
								s6.728,8.877,7.472,13.793c1.145,7.561-4.242,12.858-1.915,20.504c1.751,5.754,7.069,9.953,11.852,12.636
								s9.987,4.979,13.741,9.871c5.195,6.77,5.451,15.469,7.537,23.435c3.813,14.563,15.555,28.736,27.791,33.546
								c12.237,4.811,24.045-0.106,27.945-11.638c3.901-11.53-0.397-28.804-10.176-40.882c-7.952-9.824-19.004-16.424-24.859-27.754
								c-4.789-9.27-5.863-21.171-13.48-27.37c-5.166-4.204-10.982-3.534-16.437-6.626c-5.049-2.863-9.12-8.53-12.825-13.934
								c-3.703-5.404-7.632-11.126-12.627-14.291c-4.996-3.165-11.218-2.346-11.676,3.204"/>
							<g>
								<path d="M25.562,360.103c-4.034,2.084-4.026,7.192-2.999,11.091c1.828,6.932,7.37,12.115,11.645,17.58
									c2.922,3.736,5.91,8.061,6.185,12.957c0.212,3.789-1.392,7.3-2.149,10.934c-1.154,5.535,0.148,10.621,3.797,14.959
									c4.554,5.412,11.091,7.713,16.785,11.588c7.637,5.195,9.661,13.264,11.363,21.81c2.764,13.872,9.446,26.542,20.834,35.286
									c8.871,6.811,21.491,10.416,31.35,3.42c9.373-6.652,10.399-19.183,8.3-29.584c-2.913-14.434-11.605-24.849-22.043-34.661
									c-5.546-5.213-10.989-10.587-14.302-17.554c-2.875-6.05-4.215-12.719-7.235-18.709c-3.327-6.603-8.338-10.068-15.38-12.001
									c-5.088-1.396-9.091-3.211-12.752-7.127c-3.286-3.516-5.857-7.606-8.618-11.528c-3.688-5.239-8.153-11.691-14.617-13.625
									c-4.831-1.445-9.651,0.347-10.553,5.611c-0.323,1.889,2.567,2.7,2.894,0.798c1.682-9.835,13.158,0.39,15.966,3.765
									c4.219,5.07,7.415,10.91,11.737,15.904c3.369,3.892,7.184,6.699,12.102,8.266c3.426,1.09,7.059,1.561,10.131,3.576
									c2.938,1.926,4.939,4.797,6.5,7.875c2.537,5,3.846,10.529,5.938,15.713c2.016,4.997,4.854,9.448,8.408,13.484
									c8.236,9.352,18.506,16.33,24.296,27.71c5.13,10.083,8.665,24.845,1.927,35.045c-7.955,12.039-23.58,8.278-33.113,0.563
									c-10.374-8.395-16.299-20.139-18.875-33.024c-1.031-5.162-1.997-10.464-4.631-15.099
									c-2.806-4.938-7.188-8.139-12.041-10.864c-6.561-3.686-14.868-7.929-15.631-16.454c-0.539-6.018,3.29-11.438,2.469-17.56
									c-0.836-6.228-5.041-11.409-8.934-16.076c-2.305-2.763-4.727-5.47-6.557-8.585c-1.723-2.934-5.26-10.527-0.68-12.893
									C28.791,361.807,27.275,359.217,25.562,360.103L25.562,360.103z"/>
							</g>
						</g>
						<g>
							<path d="M57.115,402.596c39.072,49.11,73.791,102.861,102.751,159.076"/>
							<g>
								<path d="M56.055,403.657c39.249,49.431,73.559,102.694,102.517,158.771c0.886,1.716,3.476,0.2,2.591-1.515
									C132.082,504.6,97.589,451.173,58.176,401.536C56.977,400.024,54.866,402.16,56.055,403.657L56.055,403.657z"/>
							</g>
						</g>
						<g>
							<path d="M72.344,402.168c1.435,8.395,2.869,16.789,4.303,25.183"/>
							<g>
								<path d="M70.897,402.567c1.435,8.394,2.868,16.788,4.303,25.183c0.325,1.898,3.216,1.094,2.894-0.798
									c-1.436-8.395-2.869-16.788-4.303-25.183C73.466,399.871,70.574,400.676,70.897,402.567L70.897,402.567z"/>
							</g>
						</g>
						<g>
							<path d="M76.282,447.415c9.399,10.444,19.907,19.372,30.839,26.203"/>
							<g>
								<path d="M75.222,448.476c9.224,10.133,19.563,19.093,31.143,26.438c1.636,1.037,3.142-1.558,1.515-2.59
									c-11.371-7.212-21.481-16.022-30.536-25.969C76.041,444.924,73.924,447.051,75.222,448.476L75.222,448.476z"/>
							</g>
						</g>
					</g>
					<g>
						<g>
							<path d="M174.485,355.091c-8.933,3.573-12.864,16.146-9.108,29.129c2.289,7.911,7.149,16.53,5.736,23.288
								c-1.102,5.271-5.675,7.314-9.52,9.733c-3.844,2.419-7.476,6.675-5.887,12.845c1.629,6.32,7.867,11.127,10.379,17.369
								c3.043,7.567-0.387,13.941-0.584,21.105c-0.307,11.105,8.764,25.07,18.746,28.86s18.902-3.343,18.436-14.742
								c-0.186-4.524-1.606-9.714-0.139-13.283c3.332-8.103,18.807-2.183,19.045-12.202c0.175-7.321-8.189-13.566-12.993-20.477
								c-6.114-8.795-6.501-19.516-6.464-28.909c0.009-2.099,0.018-4.196,0.025-6.294c0.02-4.952,0.032-9.971-1.05-15.2
								C197.992,371.26,187.071,358.125,174.485,355.091"/>
							<g>
								<path d="M173.729,353.795c-10.34,4.675-12.551,17.466-10.578,27.592c1.391,7.141,5.337,13.576,6.477,20.766
									c1.527,9.637-6.112,10.771-11.614,15.975c-10.51,9.938,1.821,19.666,6.186,28.769c3.745,7.813-0.63,15.574-0.147,23.615
									c0.338,5.664,2.595,11.261,5.671,15.979c5.182,7.951,14.986,16.465,25.132,12.428c4.006-1.596,6.945-5.041,8.336-9.08
									c0.877-2.547,1.098-5.25,0.943-7.924c-0.21-3.641-1.661-8.24-0.21-11.725c3.12-7.493,16.238-1.984,18.839-10.684
									c1.4-4.685-1.429-9.461-4.159-13.023c-4.595-5.995-10.004-10.88-12.55-18.209c-5.327-15.34,0.257-32.116-4.903-47.533
									c-4.115-12.295-13.394-23.635-26.266-27.096c-1.866-0.502-2.663,2.391-0.798,2.893c12.09,3.25,20.747,14.128,24.413,25.725
									c3.798,12.013,1.229,24.768,2.62,37.09c0.537,4.771,1.609,9.479,3.693,13.825c2.596,5.415,6.889,9.489,10.609,14.096
									c3.151,3.9,8.098,11.887,0.931,14.476c-3.306,1.194-6.953,1.053-10.217,2.437c-9.396,3.983-3.846,14.718-5.177,22.323
									c-1.018,5.821-5.522,10.549-11.643,10.434c-6.745-0.127-12.516-5.578-16.18-10.746c-3.359-4.738-5.914-10.475-6.13-16.342
									c-0.214-5.846,2.222-11.461,1.771-17.326c-0.396-5.158-3.035-9.253-6.022-13.296c-4.353-5.892-9.358-13.249-2.146-19.428
									c4.01-3.435,9.33-4.824,11.416-10.179c1.836-4.712,0.329-9.957-1.217-14.527c-2.453-7.256-5.682-14.053-5.322-21.92
									c0.315-6.928,3.129-13.795,9.756-16.792C176.999,355.592,175.476,353.006,173.729,353.795L173.729,353.795z"/>
							</g>
						</g>
						<g>
							<path d="M186.357,385.966c-10.898,53.997-12.946,113.519-6.025,175.208"/>
							<g>
								<path d="M184.911,385.566c-11.545,57.758-12.548,117.168-6.079,175.607c0.21,1.897,3.212,1.919,3,0
									c-6.438-58.164-5.52-117.32,5.973-174.81C188.182,384.479,185.29,383.672,184.911,385.566L184.911,385.566z"/>
							</g>
						</g>
						<g>
							<path d="M191.816,398.476c-2.83,2.883-5.66,5.766-8.491,8.648"/>
							<g>
								<path d="M190.756,397.415c-2.83,2.883-5.66,5.766-8.491,8.648c-1.354,1.379,0.766,3.502,2.121,2.121
									c2.831-2.883,5.661-5.766,8.491-8.648C194.231,398.157,192.111,396.034,190.756,397.415L190.756,397.415z"/>
							</g>
						</g>
						<g>
							<path d="M169.277,423.679c2.717,6.245,5.434,12.49,8.15,18.735"/>
							<g>
								<path d="M167.982,424.436c2.717,6.246,5.434,12.49,8.15,18.736c0.768,1.766,3.354,0.24,2.59-1.515
									c-2.717-6.245-5.434-12.49-8.149-18.735C169.805,421.156,167.22,422.682,167.982,424.436L167.982,424.436z"/>
							</g>
						</g>
						<g>
							<path d="M196.916,455.715c-6.288,6.616-12.576,13.232-18.864,19.849"/>
							<g>
								<path d="M195.855,454.654c-6.288,6.616-12.576,13.232-18.864,19.848c-1.33,1.4,0.788,3.525,2.121,2.122
									c6.288-6.616,12.576-13.232,18.864-19.849C199.307,455.376,197.189,453.251,195.855,454.654L195.855,454.654z"/>
							</g>
						</g>
					</g>
					<g>
						<g>
							<path d="M129.335,473.059c-10.87-4.643-20.427-19.856-20.065-31.945c0.129-4.286,1.32-8.226,0.357-12.802
								c-2.88-13.678-21.622-21.826-24.175-35.467c-1.954-10.441,7.289-14.7,9.316-23.574c1.849-8.096-2.519-18.525-4.909-28.104
								c-2.391-9.577-1.46-21.073,6.127-21.155c6.646-0.07,13.49,8.818,17.363,16.955c3.872,8.139,6.875,17.248,13.096,23.406
								c6.67,6.601,15.932,8.573,20.957,16.883c6.844,11.318-0.594,23.067,4.088,35.207c3.426,8.882,12.225,15.006,16.111,23.778
								c3.117,7.038,2.371,14.111,1.353,20.418c-1.828,11.315-4.604,22.964-12.604,28.091c-8,5.128-22.826,0.074-28.376-12.565"/>
							<g>
								<path d="M130.092,471.764c-11.293-5.22-19.919-18.928-19.275-31.446c0.303-5.895,1.344-11.142-1.21-16.708
									c-2.153-4.696-5.741-8.561-9.295-12.234c-8.456-8.738-18.407-18.203-10.064-30.644c2.7-4.026,5.563-7.776,6.259-12.714
									c0.923-6.559-1.234-13.305-3.038-19.523c-1.939-6.686-4.462-14.033-2.831-21.059c2.304-9.932,11.209-4.527,15.578,0.836
									c8.749,10.739,10.282,26.062,21.354,35.105c4.571,3.732,10.163,6.029,14.573,9.964c6.574,5.863,7.137,13.787,6.555,22.013
									c-0.448,6.338-0.754,12.584,1.79,18.557c2.349,5.516,6.571,9.89,10.271,14.504c6.591,8.217,8.404,16.71,6.872,27.051
									c-1.087,7.338-2.469,15.45-6.389,21.875c-8.637,14.154-26.059,6.604-31.973-5.912c-0.824-1.744-3.412-0.224-2.591,1.514
									c4.495,9.512,15.568,17.642,26.544,14.77c12.706-3.325,15.645-20.609,17.301-31.449c1.158-7.576,1.273-15.142-2.28-22.142
									c-3.472-6.837-9.588-11.834-13.474-18.392c-5.073-8.563-2.637-17.451-2.81-26.748c-0.133-7.119-2.747-13.553-8.22-18.229
									c-5.447-4.655-12.441-7.16-17.299-12.557c-5.813-6.457-8.35-15.069-12.154-22.706c-3.322-6.673-16.825-25.501-24.817-13.261
									c-2.924,4.478-2.561,10.831-1.757,15.857c1.429,8.941,6.058,17.522,5.999,26.697c-0.05,7.86-5.55,12.066-8.534,18.703
									c-2.328,5.178-1.628,10.719,0.971,15.657c3.23,6.137,8.709,10.792,13.399,15.765c2.626,2.782,5.2,5.707,6.947,9.139
									c2.306,4.525,1.989,9.006,1.521,13.901c-1.376,14.364,7.314,30.282,20.563,36.405
									C130.318,475.158,131.845,472.573,130.092,471.764L130.092,471.764z"/>
							</g>
						</g>
						<g>
							<path d="M104.896,355.39c18.463,69.565,42.463,139.208,71.524,207.556"/>
							<g>
								<path d="M103.449,355.789c18.874,70.924,43.002,140.363,71.677,207.914c0.751,1.771,3.337,0.244,2.591-1.515
									c-28.571-67.306-52.569-136.531-71.375-207.197C105.846,353.127,102.951,353.918,103.449,355.789L103.449,355.789z"/>
							</g>
						</g>
						<g>
							<path d="M99.563,375.383c6.671,10.931,13.342,21.861,20.014,32.793"/>
							<g>
								<path d="M98.268,376.14c6.671,10.931,13.342,21.861,20.014,32.793c1.004,1.646,3.6,0.14,2.59-1.515
									c-6.672-10.931-13.342-21.861-20.014-32.793C99.854,372.979,97.258,374.485,98.268,376.14L98.268,376.14z"/>
							</g>
						</g>
						<g>
							<path d="M137.361,409.883c2.074,14.804,0.479,28.844-4.537,39.914"/>
							<g>
								<path d="M135.861,409.883c1.719,13.213,1.043,26.809-4.332,39.157c-0.763,1.753,1.821,3.282,2.59,1.515
									c5.602-12.867,6.539-26.865,4.742-40.672C138.616,407.995,135.613,407.971,135.861,409.883L135.861,409.883z"/>
							</g>
						</g>
					</g>
				</g>
			</g>
		</g>
		<g>
			<ellipse opacity="0.04" stroke="#000000" stroke-miterlimit="10" cx="213.664" cy="649.722" rx="53.956" ry="15.191"/>
			<ellipse fill="#FE78B7" cx="223.702" cy="549.185" rx="60" ry="14.966"/>
			<path fill="#9E0B5C" d="M173.936,581.988l7.699,68.193c0,0,37.014,15.182,82.455-1.38l8.642-67.442"/>
			<path fill="#FE78B7" d="M163.702,549.185c0,0-4.485,24.167,0.974,29.229c0,0,48.24,23.923,117.25,0c0,0,8.61-11.53,1.775-29.229"
				/>
			<ellipse fill="#9E0B5C" cx="223.581" cy="547.742" rx="54.358" ry="11.961"/>
			<g>
				<g>
					<g>
						<path fill="#FFC9E2" d="M125.586,289.461c-5.975,0.455-9.764,7.191-9.482,13.177c0.283,5.985,3.388,11.405,5.922,16.835
							c2.535,5.43,4.58,11.648,2.661,17.324c-2.95,8.729-14.267,13.237-15.501,22.369c-0.93,6.872,4.427,12.938,9.918,17.172
							c5.492,4.235,11.855,8.149,14.448,14.582c3.588,8.899-1.392,18.667-3.187,28.094c-3.281,17.232,5.525,36.092,20.846,44.637
							c15.318,8.545,35.992,6.131,48.932-5.714c12.938-11.845,17.162-32.227,9.999-48.238
							c-5.827-13.023-18.272-23.257-20.036-37.415c-1.441-11.582,4.291-25.135-3.269-34.027
							c-5.126-6.032-14.231-6.797-20.475-11.663c-5.78-4.505-8.37-11.884-10.573-18.873s-4.546-14.392-10.059-19.221
							c-5.512-4.828-15.314-5.532-19.42,0.538"/>
					</g>
					<g>
						<g>
							<path fill="#FE78B7" d="M144.91,344.17c27.936,64.758,46.578,133.369,55.256,203.359c0.234,1.892,3.238,1.915,3,0
								c-8.748-70.563-27.502-139.586-55.666-204.873C146.737,340.888,144.152,342.414,144.91,344.17L144.91,344.17z"/>
						</g>
					</g>
					<g>
						<g>
							<path fill="#FE78B7" d="M167.777,346.496c-3.033,9.734-6.064,19.468-9.097,29.202c-0.575,1.848,2.319,2.638,2.894,0.798
								c3.031-9.734,6.063-19.469,9.096-29.203C171.245,345.445,168.35,344.656,167.777,346.496L167.777,346.496z"/>
						</g>
					</g>
					<g>
						<g>
							<path fill="#FE78B7" d="M145.918,399.136c7.799,14.226,17.946,26.864,30.16,37.543c1.448,1.267,3.578-0.848,2.121-2.121
								c-12.031-10.519-22.008-22.921-29.691-36.937C147.58,395.928,144.988,397.44,145.918,399.136L145.918,399.136z"/>
						</g>
					</g>
				</g>
				<g>
					<g>
						<path fill="#FFC9E2" d="M350.869,320.946c-15.551,1.663-29.176,14.663-31.568,30.118c-1.457,9.418,0.492,20.293-5.785,27.463
							c-4.896,5.591-12.989,6.681-20.225,8.379c-7.235,1.699-15.287,5.501-16.715,12.795c-1.463,7.473,4.895,14.454,4.799,22.068
							c-0.117,9.23-9.173,15.447-13.885,23.386c-7.305,12.305-2.359,30.237,10.22,37.059c12.579,6.822,30.306,1.187,36.636-11.647
							c2.512-5.094,3.588-11.25,7.981-14.85c9.974-8.17,29.445,2.455,35.98-8.657c4.774-8.119-3.873-17.258-6.791-26.213
							c-3.715-11.398,2.318-23.455,8.165-33.922c1.306-2.337,2.611-4.675,3.917-7.012c3.082-5.519,6.195-11.111,7.802-17.225
							C376.026,345.09,367.805,327.604,350.869,320.946"/>
					</g>
					<g>
						<g>
							<path fill="#FE78B7" d="M348.514,357.405c-38.747,44.97-71.591,94.926-97.326,148.426
								c-7.265,15.101-13.941,30.474-20.08,46.064c-0.708,1.798,2.191,2.577,2.893,0.798
								c27.715-70.385,67.26-135.861,116.636-193.167C351.89,358.07,349.777,355.939,348.514,357.405L348.514,357.405z"/>
						</g>
					</g>
					<g>
						<g>
							<path fill="#FE78B7" d="M349.621,372.39c-6.007,2.479-12.014,4.958-18.021,7.438c-1.76,0.727-0.988,3.63,0.798,2.893
								c6.007-2.479,12.014-4.958,18.021-7.438C352.178,374.557,351.407,371.652,349.621,372.39L349.621,372.39z"/>
						</g>
					</g>
					<g>
						<g>
							<path fill="#FE78B7" d="M299.304,396.084c0.208,7.671,0.417,15.342,0.626,23.013c0.053,1.927,3.053,1.935,3,0
								c-0.209-7.671-0.418-15.342-0.626-23.013C302.251,394.157,299.251,394.149,299.304,396.084L299.304,396.084z"/>
						</g>
					</g>
					<g>
						<g>
							<path fill="#FE78B7" d="M321.594,437.701c-13.475,5.744-26.95,11.487-40.425,17.23c-1.771,0.755-0.243,3.34,1.515,2.591
								c13.475-5.743,26.949-11.487,40.424-17.231C324.878,439.537,323.352,436.951,321.594,437.701L321.594,437.701z"/>
						</g>
					</g>
				</g>
				<g>
					<g>
						<path fill="#FEAED4" d="M210.677,440.769c-13.381-8.003-18.28-27.454-10.288-40.841c2.834-4.748,7.045-8.831,8.426-14.185
							c4.129-16.003-18.852-29.963-14.257-45.839c3.518-12.152,19.954-14.498,28.455-23.869c7.754-8.547,7.658-21.314,9.991-32.617
							c2.332-11.303,10.81-23.882,22.196-22c9.976,1.649,14.722,13.342,15.491,23.424s-0.36,21.021,5.14,29.506
							c5.896,9.096,18.52,13.703,20.904,24.277c3.249,14.402-15.108,25.57-15.597,40.326c-0.356,10.796,9.016,19.912,9.414,30.707
							c0.319,8.659-5.156,16.354-10.566,23.122c-9.707,12.144-21.037,24.413-36.152,28.051
							c-15.115,3.639-34.152-5.852-34.652-21.391"/>
					</g>
					<g>
						<g>
							<path fill="#FE78B7" d="M245.256,302.79c-11.867,64.187-18.863,129.251-20.756,194.502
								c-0.541,18.649-0.654,37.308-0.383,55.962c0.028,1.929,3.028,1.935,3,0c-1.221-83.684,5.814-167.368,21.031-249.666
								C248.498,301.7,245.607,300.891,245.256,302.79L245.256,302.79z"/>
						</g>
					</g>
					<g>
						<g>
							<path fill="#FE78B7" d="M224.961,324.497c3.229,13.925,6.459,27.85,9.688,41.774c0.436,1.88,3.33,1.084,2.893-0.798
								c-3.229-13.925-6.458-27.85-9.688-41.774C227.418,321.819,224.524,322.615,224.961,324.497L224.961,324.497z"/>
						</g>
					</g>
					<g>
						<g>
							<path fill="#FE78B7" d="M260.172,372.002c-6.146,16.915-16.854,31.565-31.001,42.672c-1.518,1.191,0.618,3.301,2.121,2.121
								c14.563-11.434,25.453-26.602,31.772-43.995C263.725,370.982,260.827,370.199,260.172,372.002L260.172,372.002z"/>
						</g>
					</g>
				</g>
			</g>
		</g>
	</g>
</g>
</svg>
