<?xml version="1.0" encoding="utf-8"?>
<!-- Generator: Adobe Illustrator 22.0.1, SVG Export Plug-In . SVG Version: 6.00 Build 0)  -->
<svg version="1.1" id="Layer_1" xmlns="http://www.w3.org/2000/svg" xmlns:xlink="http://www.w3.org/1999/xlink" x="0px" y="0px"
	 viewBox="0 0 792 509" style="enable-background:new 0 0 792 509;" xml:space="preserve">
<style type="text/css">
	.st0{fill:#FFFFFF;}
	.st1{fill:none;stroke:#ACDFED;stroke-miterlimit:10;}
	.st2{fill:#ACDFED;}
	.st3{fill:#445FAB;}
	.st4{fill:#E6F5F8;}
	.st5{fill:#F3FAFB;}
	.st6{fill:#57BF98;}
	.st7{fill:#FFFFFF;stroke:#ACDFED;stroke-miterlimit:10;}
	.st8{fill:#010101;}
	.st9{fill:#FFFFFF;stroke:#ACDFED;stroke-width:0.9013;stroke-miterlimit:10;}
	.st10{fill:#333333;}
	.st11{fill:#818181;}
	.st12{fill:#E6E6E5;}
	.st13{fill:#38A079;}
	.st14{fill:none;}
</style>
<g>
	
		<image style="overflow:visible;opacity:0.1;" width="3330" height="2063" xlink:href="95192389.png"  transform="matrix(0.24 0 0 0.24 -2.8587 9.0449)">
	</image>
	<g>
		<path class="st0" d="M753.7,453.6h-714c-6.6,0-12-5.4-12-12v-410c0-6.6,5.4-12,12-12h714c6.6,0,12,5.4,12,12v410
			C765.7,448.2,760.3,453.6,753.7,453.6z"/>
		<path class="st1" d="M753.7,453.6h-714c-6.6,0-12-5.4-12-12v-410c0-6.6,5.4-12,12-12h714c6.6,0,12,5.4,12,12v410
			C765.7,448.2,760.3,453.6,753.7,453.6z"/>
	</g>
</g>
<g>
	<path class="st2" d="M765.7,51.9h-738V31.6c0-6.6,5.4-12,12-12h714c6.6,0,12,5.4,12,12V51.9z"/>
	<circle class="st3" cx="49" cy="35.3" r="6.3"/>
	<circle class="st3" cx="72" cy="35.3" r="6.3"/>
	<rect x="28.1" y="51.9" class="st4" width="736.3" height="32.2"/>
	<rect x="28.1" y="84.1" class="st5" width="736.3" height="39.8"/>
	<g>
		<g>
			<g>
				<path class="st3" d="M60.2,64.6h-16c-0.8,0-1.5-0.7-1.5-1.5l0,0c0-0.8,0.7-1.5,1.5-1.5h16c0.8,0,1.5,0.7,1.5,1.5l0,0
					C61.7,63.9,61,64.6,60.2,64.6z"/>
			</g>
			<g>
				<path class="st3" d="M60.2,69.6h-16c-0.8,0-1.5-0.7-1.5-1.5l0,0c0-0.8,0.7-1.5,1.5-1.5h16c0.8,0,1.5,0.7,1.5,1.5l0,0
					C61.7,68.9,61,69.6,60.2,69.6z"/>
			</g>
			<g>
				<path class="st3" d="M60.2,74.4h-16c-0.8,0-1.5-0.7-1.5-1.5v0c0-0.8,0.7-1.5,1.5-1.5h16c0.8,0,1.5,0.7,1.5,1.5v0
					C61.7,73.8,61,74.4,60.2,74.4z"/>
			</g>
		</g>
	</g>
	<path class="st6" d="M92,74.4H81.3c-1.7,0-3-1.4-3-3v-6.8c0-1.7,1.3-3,3-3H92c1.7,0,3,1.3,3,3v6.8C95,73.1,93.7,74.4,92,74.4z"/>
	<path class="st6" d="M115.8,74.4h-10.7c-1.7,0-3-1.4-3-3v-6.8c0-1.7,1.3-3,3-3h10.7c1.7,0,3,1.3,3,3v6.8
		C118.8,73.1,117.4,74.4,115.8,74.4z"/>
	<path class="st6" d="M624.7,74.4H614c-1.7,0-3-1.4-3-3v-6.8c0-1.7,1.3-3,3-3h10.7c1.7,0,3,1.3,3,3v6.8
		C627.7,73.1,626.3,74.4,624.7,74.4z"/>
	<path class="st6" d="M601.7,74.4H591c-1.7,0-3-1.4-3-3v-6.8c0-1.7,1.3-3,3-3h10.7c1.7,0,3,1.3,3,3v6.8
		C604.7,73.1,603.3,74.4,601.7,74.4z"/>
	<path class="st6" d="M138.8,74.4h-10.7c-1.7,0-3-1.4-3-3v-6.8c0-1.7,1.3-3,3-3h10.7c1.7,0,3,1.3,3,3v6.8
		C141.8,73.1,140.4,74.4,138.8,74.4z"/>
	<path class="st7" d="M743.7,76.8h-89.1c-3.5,0-6.4-2.9-6.4-6.4v-5.3c0-3.5,2.9-6.4,6.4-6.4h89.1c3.5,0,6.4,2.9,6.4,6.4v5.3
		C750.1,74,747.3,76.8,743.7,76.8z"/>
	<g>
		<path class="st8" d="M663,68.3c0,0.4-0.2,0.7-0.5,1c-0.3,0.2-0.7,0.4-1.2,0.4c-0.6,0-1.1-0.1-1.4-0.2v-0.3
			c0.4,0.2,0.8,0.2,1.4,0.2c0.4,0,0.7-0.1,1-0.3c0.2-0.2,0.4-0.4,0.4-0.7c0-0.2,0-0.3-0.1-0.5c-0.1-0.1-0.2-0.2-0.4-0.3
			s-0.4-0.2-0.8-0.3c-0.5-0.2-0.9-0.4-1.1-0.6c-0.2-0.2-0.3-0.5-0.3-0.8c0-0.4,0.1-0.7,0.4-0.9c0.3-0.2,0.7-0.4,1.1-0.4
			c0.5,0,0.9,0.1,1.3,0.3l-0.1,0.3c-0.4-0.2-0.8-0.3-1.2-0.3c-0.4,0-0.7,0.1-0.9,0.3s-0.3,0.4-0.3,0.7c0,0.2,0,0.3,0.1,0.5
			c0.1,0.1,0.2,0.2,0.3,0.3c0.2,0.1,0.4,0.2,0.8,0.3c0.4,0.1,0.7,0.3,0.9,0.4c0.2,0.1,0.3,0.3,0.4,0.4C662.9,67.9,663,68.1,663,68.3
			z"/>
		<path class="st8" d="M665.5,69.7c-0.5,0-1-0.2-1.3-0.5c-0.3-0.3-0.5-0.8-0.5-1.4c0-0.6,0.1-1.1,0.4-1.4c0.3-0.4,0.7-0.5,1.2-0.5
			c0.4,0,0.8,0.2,1,0.5s0.4,0.7,0.4,1.2v0.3h-2.7c0,0.5,0.1,0.9,0.4,1.2c0.2,0.3,0.6,0.4,1,0.4c0.2,0,0.4,0,0.6,0
			c0.2,0,0.4-0.1,0.6-0.2v0.3c-0.2,0.1-0.4,0.2-0.6,0.2C665.9,69.7,665.7,69.7,665.5,69.7z M665.4,66.1c-0.4,0-0.6,0.1-0.9,0.4
			c-0.2,0.2-0.3,0.6-0.4,1h2.3c0-0.4-0.1-0.8-0.3-1C665.9,66.3,665.7,66.1,665.4,66.1z"/>
		<path class="st8" d="M670,69.6L670,69h0c-0.2,0.2-0.4,0.4-0.6,0.5c-0.2,0.1-0.4,0.1-0.7,0.1c-0.4,0-0.6-0.1-0.9-0.3
			s-0.3-0.4-0.3-0.8c0-0.4,0.2-0.6,0.5-0.8c0.3-0.2,0.7-0.3,1.3-0.3l0.7,0v-0.2c0-0.4-0.1-0.6-0.2-0.8s-0.4-0.3-0.7-0.3
			c-0.3,0-0.7,0.1-1.1,0.3l-0.1-0.3c0.4-0.2,0.8-0.3,1.2-0.3c0.4,0,0.7,0.1,0.9,0.3c0.2,0.2,0.3,0.5,0.3,1v2.5H670z M668.7,69.4
			c0.4,0,0.7-0.1,0.9-0.3c0.2-0.2,0.3-0.5,0.3-0.9v-0.4l-0.6,0c-0.5,0-0.9,0.1-1.1,0.2c-0.2,0.1-0.3,0.4-0.3,0.6
			c0,0.2,0.1,0.4,0.2,0.5C668.2,69.3,668.4,69.4,668.7,69.4z"/>
		<path class="st8" d="M673,65.8c0.2,0,0.3,0,0.5,0l-0.1,0.3c-0.2,0-0.3-0.1-0.5-0.1c-0.3,0-0.6,0.1-0.8,0.4s-0.3,0.6-0.3,1v2.1
			h-0.3v-3.7h0.3l0,0.7h0c0.2-0.3,0.3-0.5,0.5-0.6C672.5,65.9,672.7,65.8,673,65.8z"/>
		<path class="st8" d="M675.7,69.7c-0.5,0-0.9-0.2-1.2-0.5s-0.5-0.8-0.5-1.4c0-0.6,0.2-1.1,0.5-1.4c0.3-0.3,0.7-0.5,1.3-0.5
			c0.3,0,0.6,0.1,0.9,0.2l-0.1,0.3c-0.3-0.1-0.6-0.2-0.8-0.2c-0.5,0-0.8,0.1-1,0.4c-0.2,0.3-0.4,0.7-0.4,1.2c0,0.5,0.1,0.9,0.4,1.2
			c0.2,0.3,0.6,0.4,1,0.4c0.3,0,0.7-0.1,0.9-0.2v0.3C676.4,69.6,676.1,69.7,675.7,69.7z"/>
		<path class="st8" d="M680.1,69.6v-2.4c0-0.4-0.1-0.6-0.2-0.8c-0.2-0.2-0.4-0.3-0.7-0.3c-0.4,0-0.8,0.1-1,0.3
			c-0.2,0.2-0.3,0.6-0.3,1.1v2.1h-0.3v-5.3h0.3V66l0,0.5h0c0.1-0.2,0.3-0.4,0.5-0.5s0.5-0.2,0.8-0.2c0.8,0,1.3,0.5,1.3,1.4v2.4
			H680.1z"/>
	</g>
	<g>
		
			<image style="overflow:visible;" width="446" height="448" xlink:href="9519238B.png"  transform="matrix(7.355027e-02 0 0 7.355027e-02 717.3464 86.9749)">
		</image>
	</g>
	<line class="st9" x1="27" y1="253.2" x2="764.4" y2="253.2"/>
	<g>
		<g>
			<path class="st3" d="M239.1,142.7h-1v-4.6h2.7v0.8h-1.7v1.2h1.6v0.8h-1.6V142.7z"/>
			<path class="st3" d="M243.6,139.1c0.1,0,0.2,0,0.3,0l-0.1,0.9c-0.1,0-0.2,0-0.3,0c-0.3,0-0.6,0.1-0.7,0.2
				c-0.2,0.2-0.3,0.4-0.3,0.7v1.8h-1v-3.6h0.7l0.1,0.6h0c0.1-0.2,0.3-0.4,0.4-0.5S243.4,139.1,243.6,139.1z"/>
			<path class="st3" d="M247.8,140.9c0,0.6-0.2,1-0.5,1.4c-0.3,0.3-0.7,0.5-1.3,0.5c-0.3,0-0.6-0.1-0.9-0.2
				c-0.3-0.1-0.5-0.4-0.6-0.6c-0.1-0.3-0.2-0.6-0.2-1c0-0.6,0.2-1,0.5-1.4c0.3-0.3,0.7-0.5,1.3-0.5c0.3,0,0.6,0.1,0.9,0.2
				c0.3,0.1,0.5,0.4,0.6,0.6C247.7,140.2,247.8,140.5,247.8,140.9z M245.4,140.9c0,0.4,0.1,0.6,0.2,0.8c0.1,0.2,0.3,0.3,0.6,0.3
				c0.3,0,0.4-0.1,0.6-0.3s0.2-0.4,0.2-0.8c0-0.4-0.1-0.6-0.2-0.8s-0.3-0.3-0.6-0.3c-0.3,0-0.4,0.1-0.6,0.3
				C245.4,140.3,245.4,140.6,245.4,140.9z"/>
			<path class="st3" d="M251.8,142.7h-1v-2.1c0-0.3,0-0.4-0.1-0.6c-0.1-0.1-0.2-0.2-0.4-0.2c-0.2,0-0.4,0.1-0.5,0.3
				s-0.2,0.5-0.2,0.9v1.7h-1v-3.6h0.7l0.1,0.5h0.1c0.1-0.2,0.2-0.3,0.4-0.4c0.2-0.1,0.4-0.1,0.6-0.1c0.5,0,0.9,0.2,1.1,0.5h0.1
				c0.1-0.2,0.2-0.3,0.4-0.4c0.2-0.1,0.4-0.1,0.6-0.1c0.4,0,0.7,0.1,0.9,0.3s0.3,0.5,0.3,1v2.3h-1v-2.1c0-0.3,0-0.4-0.1-0.6
				c-0.1-0.1-0.2-0.2-0.4-0.2c-0.2,0-0.4,0.1-0.5,0.3c-0.1,0.2-0.2,0.4-0.2,0.8V142.7z"/>
		</g>
	</g>
	<g>
		<g>
			<path class="st10" d="M270.5,144c-0.2,0-0.4,0-0.5-0.1v-0.6c0.2,0,0.3,0.1,0.5,0.1c0.4,0,0.6-0.3,0.6-0.8v-4.5h0.8v4.5
				c0,0.5-0.1,0.8-0.3,1.1S270.9,144,270.5,144z"/>
			<path class="st10" d="M276.1,140.9c0,0.6-0.1,1-0.4,1.3c-0.3,0.3-0.7,0.5-1.2,0.5c-0.3,0-0.6-0.1-0.9-0.2
				c-0.3-0.1-0.4-0.4-0.6-0.6c-0.1-0.3-0.2-0.6-0.2-1c0-0.6,0.1-1,0.4-1.3c0.3-0.3,0.7-0.5,1.2-0.5c0.5,0,0.9,0.2,1.2,0.5
				S276.1,140.4,276.1,140.9z M273.5,140.9c0,0.8,0.3,1.2,0.9,1.2c0.6,0,0.9-0.4,0.9-1.2c0-0.8-0.3-1.2-0.9-1.2
				c-0.3,0-0.5,0.1-0.7,0.3C273.6,140.2,273.5,140.5,273.5,140.9z"/>
			<path class="st10" d="M278.5,142.8c-0.5,0-1-0.2-1.3-0.5c-0.3-0.3-0.5-0.8-0.5-1.3c0-0.6,0.1-1,0.4-1.4c0.3-0.3,0.7-0.5,1.2-0.5
				c0.5,0,0.8,0.1,1.1,0.4c0.3,0.3,0.4,0.7,0.4,1.2v0.4h-2.3c0,0.3,0.1,0.6,0.3,0.8c0.2,0.2,0.4,0.3,0.7,0.3c0.2,0,0.4,0,0.6-0.1
				s0.4-0.1,0.6-0.2v0.6c-0.2,0.1-0.4,0.1-0.6,0.2C278.9,142.7,278.7,142.8,278.5,142.8z M278.3,139.7c-0.2,0-0.4,0.1-0.6,0.2
				c-0.1,0.2-0.2,0.4-0.3,0.7h1.6c0-0.3-0.1-0.5-0.2-0.7C278.8,139.8,278.6,139.7,278.3,139.7z"/>
			<path class="st10" d="M280.2,139.2h0.8l0.7,2c0.1,0.3,0.2,0.6,0.2,0.8h0c0-0.1,0.1-0.3,0.1-0.4c0.1-0.2,0.3-1,0.8-2.4h0.8l-1.5,4
				c-0.3,0.7-0.7,1.1-1.4,1.1c-0.2,0-0.3,0-0.5-0.1v-0.6c0.1,0,0.2,0,0.4,0c0.4,0,0.6-0.2,0.8-0.6l0.1-0.3L280.2,139.2z"/>
			<path class="st10" d="M288.6,141.4c0,0.4-0.1,0.7-0.4,1s-0.7,0.4-1.2,0.4s-1-0.1-1.3-0.2v-0.7c0.2,0.1,0.4,0.2,0.7,0.2
				s0.5,0.1,0.7,0.1c0.3,0,0.5-0.1,0.7-0.2c0.1-0.1,0.2-0.3,0.2-0.5c0-0.2-0.1-0.3-0.2-0.4s-0.4-0.3-0.8-0.4
				c-0.4-0.2-0.7-0.4-0.9-0.6s-0.3-0.5-0.3-0.8c0-0.4,0.1-0.7,0.4-0.9c0.3-0.2,0.6-0.3,1.1-0.3c0.4,0,0.9,0.1,1.3,0.3l-0.2,0.6
				c-0.4-0.2-0.8-0.3-1.1-0.3c-0.2,0-0.4,0.1-0.6,0.2s-0.2,0.2-0.2,0.4c0,0.1,0,0.2,0.1,0.3c0.1,0.1,0.1,0.2,0.3,0.2
				s0.3,0.2,0.6,0.3c0.3,0.1,0.6,0.3,0.7,0.4c0.2,0.1,0.3,0.3,0.3,0.4C288.6,141,288.6,141.2,288.6,141.4z"/>
			<path class="st10" d="M290.7,142.2c0.2,0,0.4,0,0.5-0.1v0.6c-0.1,0-0.2,0.1-0.3,0.1c-0.1,0-0.3,0-0.4,0c-0.7,0-1.1-0.4-1.1-1.1
				v-1.9H289v-0.3l0.5-0.3l0.3-0.7h0.5v0.8h1v0.6h-1v1.9c0,0.2,0,0.3,0.1,0.4C290.5,142.1,290.6,142.2,290.7,142.2z"/>
			<path class="st10" d="M293.5,142.8c-0.5,0-1-0.2-1.3-0.5c-0.3-0.3-0.5-0.8-0.5-1.3c0-0.6,0.1-1,0.4-1.4c0.3-0.3,0.7-0.5,1.2-0.5
				c0.5,0,0.8,0.1,1.1,0.4c0.3,0.3,0.4,0.7,0.4,1.2v0.4h-2.3c0,0.3,0.1,0.6,0.3,0.8c0.2,0.2,0.4,0.3,0.7,0.3c0.2,0,0.4,0,0.6-0.1
				c0.2,0,0.4-0.1,0.6-0.2v0.6c-0.2,0.1-0.4,0.1-0.6,0.2C294,142.7,293.8,142.8,293.5,142.8z M293.4,139.7c-0.2,0-0.4,0.1-0.6,0.2
				s-0.2,0.4-0.3,0.7h1.6c0-0.3-0.1-0.5-0.2-0.7C293.8,139.8,293.6,139.7,293.4,139.7z"/>
			<path class="st10" d="M298.6,142.7l-0.5-1.6c-0.1-0.2-0.2-0.6-0.3-1.2h0c-0.1,0.6-0.2,1-0.3,1.2l-0.5,1.6h-0.8l-1-3.5h0.8
				l0.4,1.7c0.1,0.4,0.2,0.8,0.2,1.1h0c0-0.2,0.1-0.3,0.1-0.5c0-0.2,0.1-0.3,0.1-0.4l0.5-1.8h0.8l0.5,1.8c0,0.1,0.1,0.3,0.1,0.5
				c0,0.2,0.1,0.4,0.1,0.5h0c0-0.3,0.1-0.6,0.2-1.1l0.5-1.7h0.7l-1,3.5H298.6z"/>
			<path class="st10" d="M300.5,139.2h0.8l0.7,2c0.1,0.3,0.2,0.6,0.2,0.8h0c0-0.1,0.1-0.3,0.1-0.4c0.1-0.2,0.3-1,0.8-2.4h0.8l-1.5,4
				c-0.3,0.7-0.7,1.1-1.4,1.1c-0.2,0-0.3,0-0.5-0.1v-0.6c0.1,0,0.2,0,0.4,0c0.4,0,0.6-0.2,0.8-0.6l0.1-0.3L300.5,139.2z"/>
		</g>
	</g>
	<g>
		<g>
			<path class="st11" d="M271.2,181.3v1.9h-0.5v-4.6h1.3c0.6,0,1,0.1,1.3,0.3s0.4,0.5,0.4,1c0,0.6-0.3,1-0.9,1.2l1.3,2.1h-0.6
				l-1.1-1.9H271.2z M271.2,180.8h0.7c0.4,0,0.7-0.1,0.8-0.2s0.3-0.4,0.3-0.7c0-0.3-0.1-0.5-0.3-0.7c-0.2-0.1-0.5-0.2-0.9-0.2h-0.7
				V180.8z"/>
			<path class="st11" d="M276,183.3c-0.5,0-0.9-0.2-1.2-0.5c-0.3-0.3-0.4-0.7-0.4-1.3c0-0.6,0.1-1,0.4-1.3c0.3-0.3,0.6-0.5,1.1-0.5
				c0.4,0,0.8,0.1,1,0.4c0.3,0.3,0.4,0.7,0.4,1.1v0.3h-2.4c0,0.4,0.1,0.7,0.3,0.9c0.2,0.2,0.5,0.3,0.8,0.3c0.4,0,0.7-0.1,1.1-0.2
				v0.5c-0.2,0.1-0.4,0.1-0.5,0.2C276.5,183.3,276.3,183.3,276,183.3z M275.9,180.1c-0.3,0-0.5,0.1-0.7,0.3
				c-0.2,0.2-0.3,0.4-0.3,0.8h1.8c0-0.3-0.1-0.6-0.2-0.8C276.4,180.2,276.2,180.1,275.9,180.1z"/>
			<path class="st11" d="M278.1,180.1c0-0.3,0.1-0.4,0.4-0.4c0.3,0,0.4,0.1,0.4,0.4c0,0.1,0,0.2-0.1,0.3s-0.2,0.1-0.3,0.1
				c-0.1,0-0.2,0-0.3-0.1C278.2,180.4,278.1,180.2,278.1,180.1z M278.1,182.9c0-0.1,0-0.2,0.1-0.3c0.1-0.1,0.2-0.1,0.3-0.1
				c0.1,0,0.2,0,0.3,0.1c0.1,0.1,0.1,0.2,0.1,0.3c0,0.1,0,0.2-0.1,0.3s-0.2,0.1-0.3,0.1c-0.1,0-0.2,0-0.3-0.1
				C278.2,183.2,278.1,183.1,278.1,182.9z"/>
			<path class="st11" d="M283.2,183.2h-0.5v-4.2h-1.5v-0.5h3.5v0.5h-1.5V183.2z"/>
			<path class="st11" d="M286.7,183.3c-0.5,0-0.9-0.2-1.2-0.5c-0.3-0.3-0.4-0.7-0.4-1.3c0-0.6,0.1-1,0.4-1.3
				c0.3-0.3,0.6-0.5,1.1-0.5c0.4,0,0.8,0.1,1,0.4c0.3,0.3,0.4,0.7,0.4,1.1v0.3h-2.4c0,0.4,0.1,0.7,0.3,0.9c0.2,0.2,0.5,0.3,0.8,0.3
				c0.4,0,0.7-0.1,1.1-0.2v0.5c-0.2,0.1-0.4,0.1-0.5,0.2C287.1,183.3,286.9,183.3,286.7,183.3z M286.6,180.1c-0.3,0-0.5,0.1-0.7,0.3
				c-0.2,0.2-0.3,0.4-0.3,0.8h1.8c0-0.3-0.1-0.6-0.2-0.8C287.1,180.2,286.8,180.1,286.6,180.1z"/>
			<path class="st11" d="M291.1,182.3c0,0.3-0.1,0.6-0.4,0.7c-0.2,0.2-0.6,0.3-1,0.3c-0.5,0-0.8-0.1-1.1-0.2v-0.5
				c0.2,0.1,0.3,0.2,0.5,0.2c0.2,0,0.4,0.1,0.6,0.1c0.3,0,0.5,0,0.6-0.1c0.1-0.1,0.2-0.2,0.2-0.4c0-0.1-0.1-0.3-0.2-0.3
				c-0.1-0.1-0.3-0.2-0.7-0.3c-0.3-0.1-0.6-0.2-0.7-0.3c-0.1-0.1-0.2-0.2-0.3-0.3s-0.1-0.3-0.1-0.4c0-0.3,0.1-0.5,0.3-0.7
				s0.5-0.2,0.9-0.2c0.4,0,0.7,0.1,1.1,0.2l-0.2,0.4c-0.3-0.1-0.7-0.2-0.9-0.2c-0.3,0-0.4,0-0.6,0.1c-0.1,0.1-0.2,0.2-0.2,0.3
				c0,0.1,0,0.2,0.1,0.2c0,0.1,0.1,0.1,0.2,0.2c0.1,0.1,0.3,0.1,0.6,0.3c0.4,0.2,0.7,0.3,0.8,0.5S291.1,182.1,291.1,182.3z"/>
			<path class="st11" d="M293.1,182.9c0.1,0,0.2,0,0.3,0c0.1,0,0.2,0,0.2,0v0.4c-0.1,0-0.1,0.1-0.3,0.1c-0.1,0-0.2,0-0.3,0
				c-0.7,0-1-0.4-1-1.1v-2.1h-0.5v-0.3l0.5-0.2l0.2-0.7h0.3v0.8h1v0.4h-1v2c0,0.2,0,0.4,0.1,0.5
				C292.8,182.8,292.9,182.9,293.1,182.9z"/>
			<path class="st11" d="M296.6,183.2h-0.5v-4.6h2.6v0.5h-2v1.7h1.9v0.5h-1.9V183.2z"/>
			<path class="st11" d="M300.9,179.7c0.2,0,0.3,0,0.4,0l-0.1,0.5c-0.1,0-0.3,0-0.4,0c-0.3,0-0.5,0.1-0.7,0.3
				c-0.2,0.2-0.3,0.5-0.3,0.9v1.9h-0.5v-3.5h0.4l0.1,0.6h0c0.1-0.2,0.3-0.4,0.5-0.5C300.5,179.8,300.7,179.7,300.9,179.7z"/>
			<path class="st11" d="M305,181.5c0,0.6-0.1,1-0.4,1.3c-0.3,0.3-0.7,0.5-1.2,0.5c-0.3,0-0.6-0.1-0.8-0.2s-0.4-0.4-0.6-0.6
				c-0.1-0.3-0.2-0.6-0.2-1c0-0.6,0.1-1,0.4-1.3c0.3-0.3,0.7-0.5,1.2-0.5c0.5,0,0.9,0.2,1.2,0.5C304.9,180.5,305,180.9,305,181.5z
				 M302.3,181.5c0,0.4,0.1,0.8,0.3,1s0.4,0.3,0.8,0.3c0.3,0,0.6-0.1,0.8-0.3c0.2-0.2,0.3-0.6,0.3-1c0-0.4-0.1-0.8-0.3-1
				c-0.2-0.2-0.4-0.3-0.8-0.3c-0.3,0-0.6,0.1-0.8,0.3C302.4,180.7,302.3,181,302.3,181.5z"/>
			<path class="st11" d="M310.4,183.2V181c0-0.3-0.1-0.5-0.2-0.6s-0.3-0.2-0.6-0.2c-0.3,0-0.6,0.1-0.7,0.3c-0.2,0.2-0.2,0.5-0.2,0.9
				v1.9h-0.5V181c0-0.3-0.1-0.5-0.2-0.6c-0.1-0.1-0.3-0.2-0.6-0.2c-0.3,0-0.6,0.1-0.7,0.3c-0.2,0.2-0.2,0.5-0.2,1v1.8h-0.5v-3.5h0.4
				l0.1,0.5h0c0.1-0.2,0.2-0.3,0.4-0.4c0.2-0.1,0.4-0.1,0.6-0.1c0.5,0,0.9,0.2,1.1,0.6h0c0.1-0.2,0.3-0.3,0.5-0.4
				c0.2-0.1,0.4-0.2,0.7-0.2c0.4,0,0.7,0.1,0.9,0.3c0.2,0.2,0.3,0.5,0.3,1v2.3H310.4z"/>
			<path class="st11" d="M315.8,180.8h1.6v2.3c-0.2,0.1-0.5,0.1-0.7,0.2c-0.3,0-0.5,0.1-0.9,0.1c-0.7,0-1.3-0.2-1.6-0.6
				c-0.4-0.4-0.6-1-0.6-1.8c0-0.5,0.1-0.9,0.3-1.3c0.2-0.4,0.5-0.6,0.8-0.8c0.4-0.2,0.8-0.3,1.3-0.3c0.5,0,1,0.1,1.4,0.3l-0.2,0.5
				c-0.4-0.2-0.8-0.3-1.2-0.3c-0.6,0-1,0.2-1.3,0.5c-0.3,0.3-0.5,0.8-0.5,1.4c0,0.6,0.2,1.1,0.5,1.4c0.3,0.3,0.8,0.5,1.3,0.5
				c0.3,0,0.6,0,0.9-0.1v-1.4h-1V180.8z"/>
			<path class="st11" d="M320.5,183.2l-1.6-4.1h0c0,0.3,0,0.7,0,1.2v3h-0.5v-4.6h0.8l1.5,3.8h0l1.5-3.8h0.8v4.6h-0.5v-3
				c0-0.3,0-0.7,0-1.1h0l-1.6,4.1H320.5z"/>
			<path class="st11" d="M326.4,183.2l-0.1-0.5h0c-0.2,0.2-0.3,0.4-0.5,0.4c-0.2,0.1-0.4,0.1-0.6,0.1c-0.3,0-0.6-0.1-0.8-0.3
				c-0.2-0.2-0.3-0.4-0.3-0.8c0-0.7,0.6-1.1,1.7-1.1l0.6,0v-0.2c0-0.3-0.1-0.5-0.2-0.6c-0.1-0.1-0.3-0.2-0.6-0.2
				c-0.3,0-0.6,0.1-1,0.3l-0.2-0.4c0.2-0.1,0.4-0.2,0.6-0.2c0.2-0.1,0.4-0.1,0.6-0.1c0.4,0,0.7,0.1,0.9,0.3c0.2,0.2,0.3,0.5,0.3,0.9
				v2.4H326.4z M325.2,182.9c0.3,0,0.6-0.1,0.8-0.3c0.2-0.2,0.3-0.4,0.3-0.8v-0.3l-0.5,0c-0.4,0-0.7,0.1-0.9,0.2
				c-0.2,0.1-0.3,0.3-0.3,0.5c0,0.2,0.1,0.3,0.2,0.4C324.8,182.8,325,182.9,325.2,182.9z"/>
			<path class="st11" d="M327.8,178.8c0-0.1,0-0.2,0.1-0.3s0.1-0.1,0.2-0.1c0.1,0,0.2,0,0.2,0.1c0.1,0.1,0.1,0.1,0.1,0.3
				s0,0.2-0.1,0.3c-0.1,0.1-0.1,0.1-0.2,0.1c-0.1,0-0.2,0-0.2-0.1S327.8,178.9,327.8,178.8z M328.4,183.2h-0.5v-3.5h0.5V183.2z"/>
			<path class="st11" d="M330.1,183.2h-0.5v-4.9h0.5V183.2z"/>
		</g>
	</g>
	<g>
		<g>
			<path class="st3" d="M233.9,181.9c0,0.4-0.2,0.7-0.5,1c-0.3,0.2-0.7,0.4-1.3,0.4c-0.5,0-0.9-0.1-1.3-0.3V182
				c0.3,0.1,0.6,0.2,0.8,0.3c0.2,0.1,0.4,0.1,0.6,0.1c0.2,0,0.4,0,0.5-0.1s0.2-0.2,0.2-0.4c0-0.1,0-0.2-0.1-0.2
				c-0.1-0.1-0.1-0.1-0.2-0.2c-0.1-0.1-0.3-0.2-0.6-0.3c-0.3-0.1-0.5-0.3-0.6-0.4s-0.3-0.3-0.3-0.4c-0.1-0.2-0.1-0.4-0.1-0.6
				c0-0.4,0.1-0.7,0.4-1c0.3-0.2,0.7-0.4,1.2-0.4c0.2,0,0.5,0,0.7,0.1s0.4,0.1,0.7,0.2l-0.3,0.8c-0.2-0.1-0.5-0.2-0.6-0.2
				c-0.2,0-0.3-0.1-0.5-0.1c-0.2,0-0.3,0-0.4,0.1s-0.1,0.2-0.1,0.3c0,0.1,0,0.2,0.1,0.2s0.1,0.1,0.2,0.2c0.1,0.1,0.3,0.2,0.6,0.3
				c0.4,0.2,0.7,0.4,0.9,0.6C233.8,181.3,233.9,181.6,233.9,181.9z"/>
			<path class="st3" d="M237.1,183.2l-0.1-0.5H237c-0.1,0.2-0.3,0.3-0.4,0.4c-0.2,0.1-0.4,0.1-0.7,0.1c-0.4,0-0.7-0.1-0.9-0.3
				c-0.2-0.2-0.3-0.5-0.3-1v-2.3h1v2.1c0,0.3,0,0.4,0.1,0.6c0.1,0.1,0.2,0.2,0.4,0.2c0.3,0,0.5-0.1,0.6-0.3c0.1-0.2,0.2-0.5,0.2-0.9
				v-1.7h1v3.6H237.1z"/>
			<path class="st3" d="M240.9,179.5c0.4,0,0.7,0.2,1,0.5c0.2,0.3,0.4,0.8,0.4,1.3c0,0.6-0.1,1-0.4,1.4c-0.2,0.3-0.6,0.5-1,0.5
				c-0.4,0-0.7-0.2-1-0.5h-0.1l-0.2,0.4h-0.7v-4.9h1v1.1c0,0.1,0,0.4,0,0.7h0C240.1,179.7,240.4,179.5,240.9,179.5z M240.6,180.3
				c-0.2,0-0.4,0.1-0.5,0.2c-0.1,0.1-0.2,0.4-0.2,0.7v0.1c0,0.4,0.1,0.7,0.2,0.8s0.3,0.2,0.5,0.2c0.2,0,0.4-0.1,0.5-0.3
				c0.1-0.2,0.2-0.4,0.2-0.8c0-0.3-0.1-0.6-0.2-0.8C240.9,180.4,240.8,180.3,240.6,180.3z"/>
			<path class="st3" d="M242.7,184.7c-0.2,0-0.5,0-0.6-0.1v-0.8c0.1,0,0.3,0.1,0.5,0.1c0.2,0,0.3,0,0.4-0.1c0.1-0.1,0.1-0.2,0.1-0.4
				v-3.8h1v3.9c0,0.4-0.1,0.7-0.3,0.9C243.4,184.6,243.1,184.7,242.7,184.7z M243,178.7c0-0.3,0.2-0.5,0.5-0.5s0.5,0.2,0.5,0.5
				c0,0.2,0,0.3-0.1,0.4c-0.1,0.1-0.2,0.1-0.4,0.1C243.1,179.2,243,179,243,178.7z"/>
			<path class="st3" d="M246.6,183.2c-0.6,0-1-0.2-1.3-0.5s-0.5-0.8-0.5-1.3c0-0.6,0.1-1.1,0.4-1.4c0.3-0.3,0.7-0.5,1.2-0.5
				c0.5,0,0.9,0.1,1.2,0.4c0.3,0.3,0.4,0.7,0.4,1.2v0.5h-2.3c0,0.3,0.1,0.5,0.2,0.6c0.2,0.2,0.4,0.2,0.6,0.2c0.2,0,0.4,0,0.6-0.1
				s0.4-0.1,0.6-0.2v0.7c-0.2,0.1-0.4,0.1-0.5,0.2C247.1,183.2,246.9,183.2,246.6,183.2z M246.5,180.2c-0.2,0-0.4,0.1-0.5,0.2
				c-0.1,0.1-0.2,0.3-0.2,0.6h1.4c0-0.2-0.1-0.4-0.2-0.6C246.8,180.3,246.7,180.2,246.5,180.2z"/>
			<path class="st3" d="M250.3,183.2c-1.1,0-1.7-0.6-1.7-1.8c0-0.6,0.2-1.1,0.5-1.4c0.3-0.3,0.7-0.5,1.3-0.5c0.4,0,0.8,0.1,1.1,0.2
				l-0.3,0.7c-0.2-0.1-0.3-0.1-0.4-0.2s-0.3-0.1-0.4-0.1c-0.5,0-0.8,0.4-0.8,1.1c0,0.7,0.3,1,0.8,1c0.2,0,0.4,0,0.5-0.1
				c0.2,0,0.3-0.1,0.5-0.2v0.8c-0.2,0.1-0.3,0.2-0.5,0.2C250.7,183.2,250.5,183.2,250.3,183.2z"/>
			<path class="st3" d="M253.7,182.5c0.2,0,0.4,0,0.6-0.1v0.7c-0.2,0.1-0.5,0.2-0.9,0.2c-0.4,0-0.7-0.1-0.8-0.3
				c-0.2-0.2-0.3-0.5-0.3-0.9v-1.7h-0.5v-0.4l0.5-0.3l0.3-0.7h0.6v0.8h1v0.7h-1v1.7c0,0.1,0,0.2,0.1,0.3
				C253.4,182.4,253.6,182.5,253.7,182.5z"/>
		</g>
	</g>
	<g>
		<g>
			<path class="st3" d="M249.1,162.2h-1v-3.8h-1.3v-0.8h3.5v0.8h-1.3V162.2z"/>
			<path class="st3" d="M254.2,160.5c0,0.6-0.2,1-0.5,1.4c-0.3,0.3-0.7,0.5-1.3,0.5c-0.3,0-0.6-0.1-0.9-0.2
				c-0.3-0.1-0.5-0.4-0.6-0.6c-0.1-0.3-0.2-0.6-0.2-1c0-0.6,0.2-1,0.5-1.4c0.3-0.3,0.7-0.5,1.3-0.5c0.3,0,0.6,0.1,0.9,0.2
				c0.3,0.1,0.5,0.4,0.6,0.6C254.1,159.8,254.2,160.1,254.2,160.5z M251.8,160.5c0,0.4,0.1,0.6,0.2,0.8c0.1,0.2,0.3,0.3,0.6,0.3
				c0.3,0,0.4-0.1,0.6-0.3s0.2-0.4,0.2-0.8c0-0.4-0.1-0.6-0.2-0.8c-0.1-0.2-0.3-0.3-0.6-0.3c-0.3,0-0.4,0.1-0.6,0.3
				C251.8,159.9,251.8,160.1,251.8,160.5z"/>
		</g>
	</g>
	<g>
		<g>
			<path class="st3" d="M231.3,201.6c0,0.4-0.2,0.7-0.5,1c-0.3,0.2-0.7,0.4-1.3,0.4c-0.5,0-0.9-0.1-1.3-0.3v-0.9
				c0.3,0.1,0.6,0.2,0.8,0.3c0.2,0.1,0.4,0.1,0.6,0.1c0.2,0,0.4,0,0.5-0.1s0.2-0.2,0.2-0.4c0-0.1,0-0.2-0.1-0.2
				c-0.1-0.1-0.1-0.1-0.2-0.2c-0.1-0.1-0.3-0.2-0.6-0.3c-0.3-0.1-0.5-0.3-0.6-0.4s-0.3-0.3-0.3-0.4s-0.1-0.4-0.1-0.6
				c0-0.4,0.1-0.7,0.4-1c0.3-0.2,0.7-0.4,1.2-0.4c0.2,0,0.5,0,0.7,0.1s0.4,0.1,0.7,0.2l-0.3,0.8c-0.2-0.1-0.5-0.2-0.6-0.2
				c-0.2,0-0.3-0.1-0.5-0.1c-0.2,0-0.3,0-0.4,0.1c-0.1,0.1-0.1,0.2-0.1,0.3c0,0.1,0,0.2,0.1,0.2c0,0.1,0.1,0.1,0.2,0.2
				c0.1,0.1,0.3,0.2,0.6,0.3c0.4,0.2,0.7,0.4,0.9,0.6C231.2,201,231.3,201.3,231.3,201.6z"/>
			<path class="st3" d="M233.7,202.9c-0.6,0-1-0.2-1.3-0.5c-0.3-0.3-0.5-0.8-0.5-1.3c0-0.6,0.1-1.1,0.4-1.4c0.3-0.3,0.7-0.5,1.2-0.5
				c0.5,0,0.9,0.1,1.2,0.4c0.3,0.3,0.4,0.7,0.4,1.2v0.5h-2.3c0,0.3,0.1,0.5,0.2,0.6c0.2,0.2,0.4,0.2,0.6,0.2c0.2,0,0.4,0,0.6-0.1
				c0.2,0,0.4-0.1,0.6-0.2v0.7c-0.2,0.1-0.4,0.1-0.5,0.2C234.2,202.9,234,202.9,233.7,202.9z M233.6,199.9c-0.2,0-0.4,0.1-0.5,0.2
				c-0.1,0.1-0.2,0.3-0.2,0.6h1.4c0-0.2-0.1-0.4-0.2-0.6C233.9,200,233.8,199.9,233.6,199.9z"/>
			<path class="st3" d="M237.4,202.9c-1.1,0-1.7-0.6-1.7-1.8c0-0.6,0.2-1.1,0.5-1.4c0.3-0.3,0.7-0.5,1.3-0.5c0.4,0,0.8,0.1,1.1,0.2
				l-0.3,0.7c-0.2-0.1-0.3-0.1-0.4-0.2s-0.3-0.1-0.4-0.1c-0.5,0-0.8,0.4-0.8,1.1c0,0.7,0.3,1,0.8,1c0.2,0,0.4,0,0.5-0.1
				s0.3-0.1,0.5-0.2v0.8c-0.2,0.1-0.3,0.2-0.5,0.2C237.8,202.9,237.6,202.9,237.4,202.9z"/>
			<path class="st3" d="M241.8,202.9l-0.1-0.5h-0.1c-0.1,0.2-0.3,0.3-0.4,0.4c-0.2,0.1-0.4,0.1-0.7,0.1c-0.4,0-0.7-0.1-0.9-0.3
				c-0.2-0.2-0.3-0.5-0.3-1v-2.3h1v2.1c0,0.3,0,0.4,0.1,0.6c0.1,0.1,0.2,0.2,0.4,0.2c0.3,0,0.5-0.1,0.6-0.3c0.1-0.2,0.2-0.5,0.2-0.9
				v-1.7h1v3.6H241.8z"/>
			<path class="st3" d="M245.5,199.2c0.1,0,0.2,0,0.3,0l-0.1,0.9c-0.1,0-0.2,0-0.3,0c-0.3,0-0.6,0.1-0.7,0.2
				c-0.2,0.2-0.3,0.4-0.3,0.7v1.8h-1v-3.6h0.7l0.1,0.6h0c0.1-0.2,0.3-0.4,0.4-0.5S245.3,199.2,245.5,199.2z"/>
			<path class="st3" d="M246.5,198.4c0-0.3,0.2-0.5,0.5-0.5c0.4,0,0.5,0.2,0.5,0.5c0,0.2,0,0.3-0.1,0.4c-0.1,0.1-0.2,0.1-0.4,0.1
				C246.6,198.9,246.5,198.7,246.5,198.4z M247.5,202.9h-1v-3.6h1V202.9z"/>
			<path class="st3" d="M250,202.2c0.2,0,0.4,0,0.6-0.1v0.7c-0.2,0.1-0.5,0.2-0.9,0.2c-0.4,0-0.7-0.1-0.8-0.3
				c-0.2-0.2-0.3-0.5-0.3-0.9V200h-0.5v-0.4l0.5-0.3l0.3-0.7h0.6v0.8h1v0.7h-1v1.7c0,0.1,0,0.2,0.1,0.3
				C249.7,202.1,249.9,202.2,250,202.2z"/>
			<path class="st3" d="M250.8,199.3h1.1l0.7,2c0.1,0.2,0.1,0.4,0.1,0.6h0c0-0.2,0.1-0.4,0.1-0.6l0.7-2h1l-1.5,4
				c-0.1,0.4-0.3,0.6-0.6,0.8s-0.6,0.3-0.9,0.3c-0.2,0-0.3,0-0.5-0.1v-0.8c0.1,0,0.2,0,0.4,0c0.2,0,0.3-0.1,0.4-0.2
				c0.1-0.1,0.2-0.3,0.3-0.5l0.1-0.2L250.8,199.3z"/>
		</g>
	</g>
	<g>
		<g>
			<path class="st3" d="M228.3,222.4l-0.3-1.1h-1.7l-0.3,1.1h-1.1l1.6-4.7h1.2l1.6,4.7H228.3z M227.7,220.4c-0.3-1-0.5-1.6-0.5-1.7
				s-0.1-0.2-0.1-0.3c-0.1,0.3-0.3,0.9-0.6,2H227.7z"/>
			<path class="st3" d="M231.3,221.7c0.2,0,0.4,0,0.6-0.1v0.7c-0.2,0.1-0.5,0.2-0.9,0.2c-0.4,0-0.7-0.1-0.8-0.3
				c-0.2-0.2-0.3-0.5-0.3-0.9v-1.7h-0.5v-0.4l0.5-0.3l0.3-0.7h0.6v0.8h1v0.7h-1v1.7c0,0.1,0,0.2,0.1,0.3S231.2,221.7,231.3,221.7z"
				/>
			<path class="st3" d="M234.2,221.7c0.2,0,0.4,0,0.6-0.1v0.7c-0.2,0.1-0.5,0.2-0.9,0.2c-0.4,0-0.7-0.1-0.8-0.3
				c-0.2-0.2-0.3-0.5-0.3-0.9v-1.7h-0.5v-0.4l0.5-0.3l0.3-0.7h0.6v0.8h1v0.7h-1v1.7c0,0.1,0,0.2,0.1,0.3S234,221.7,234.2,221.7z"/>
			<path class="st3" d="M237.8,222.4l-0.2-0.5h0c-0.2,0.2-0.3,0.3-0.5,0.4c-0.2,0.1-0.4,0.1-0.7,0.1c-0.3,0-0.6-0.1-0.8-0.3
				s-0.3-0.5-0.3-0.8c0-0.4,0.1-0.7,0.4-0.8c0.3-0.2,0.7-0.3,1.2-0.3l0.6,0V220c0-0.4-0.2-0.5-0.6-0.5c-0.3,0-0.6,0.1-1,0.3
				l-0.3-0.7c0.4-0.2,0.9-0.3,1.4-0.3c0.5,0,0.8,0.1,1.1,0.3c0.3,0.2,0.4,0.5,0.4,0.9v2.4H237.8z M237.5,220.7l-0.4,0
				c-0.3,0-0.5,0.1-0.6,0.2s-0.2,0.2-0.2,0.4c0,0.3,0.2,0.4,0.5,0.4c0.2,0,0.4-0.1,0.5-0.2c0.1-0.1,0.2-0.3,0.2-0.5V220.7z"/>
			<path class="st3" d="M240.9,222.4c-1.1,0-1.7-0.6-1.7-1.8c0-0.6,0.2-1.1,0.5-1.4c0.3-0.3,0.7-0.5,1.3-0.5c0.4,0,0.8,0.1,1.1,0.2
				l-0.3,0.7c-0.2-0.1-0.3-0.1-0.4-0.2s-0.3-0.1-0.4-0.1c-0.5,0-0.8,0.4-0.8,1.1c0,0.7,0.3,1,0.8,1c0.2,0,0.4,0,0.5-0.1
				s0.3-0.1,0.5-0.2v0.8c-0.2,0.1-0.3,0.2-0.5,0.2C241.3,222.4,241.1,222.4,240.9,222.4z"/>
			<path class="st3" d="M246,222.4h-1v-2.1c0-0.5-0.2-0.8-0.6-0.8c-0.3,0-0.5,0.1-0.6,0.3c-0.1,0.2-0.2,0.5-0.2,0.9v1.7h-1v-4.9h1v1
				c0,0.1,0,0.3,0,0.6l0,0.3h0.1c0.2-0.3,0.6-0.5,1-0.5c0.4,0,0.7,0.1,0.9,0.3c0.2,0.2,0.3,0.5,0.3,1V222.4z"/>
			<path class="st3" d="M248.7,222.4c-0.6,0-1-0.2-1.3-0.5c-0.3-0.3-0.5-0.8-0.5-1.3c0-0.6,0.1-1.1,0.4-1.4c0.3-0.3,0.7-0.5,1.2-0.5
				c0.5,0,0.9,0.1,1.2,0.4s0.4,0.7,0.4,1.2v0.5h-2.3c0,0.3,0.1,0.5,0.2,0.6c0.2,0.2,0.4,0.2,0.6,0.2c0.2,0,0.4,0,0.6-0.1
				s0.4-0.1,0.6-0.2v0.7c-0.2,0.1-0.4,0.1-0.5,0.2C249.2,222.4,248.9,222.4,248.7,222.4z M248.5,219.4c-0.2,0-0.4,0.1-0.5,0.2
				c-0.1,0.1-0.2,0.3-0.2,0.6h1.4c0-0.2-0.1-0.4-0.2-0.6C248.9,219.5,248.7,219.4,248.5,219.4z"/>
			<path class="st3" d="M252,222.4c-0.4,0-0.7-0.2-1-0.5c-0.2-0.3-0.4-0.8-0.4-1.3c0-0.6,0.1-1,0.4-1.4c0.2-0.3,0.6-0.5,1-0.5
				c0.4,0,0.8,0.2,1,0.5h0c0-0.3-0.1-0.5-0.1-0.7v-1.1h1v4.9h-0.7l-0.2-0.5h0C252.8,222.3,252.5,222.4,252,222.4z M252.4,221.7
				c0.2,0,0.4-0.1,0.5-0.2c0.1-0.1,0.2-0.4,0.2-0.7v-0.1c0-0.4-0.1-0.7-0.2-0.8s-0.3-0.2-0.6-0.2c-0.2,0-0.4,0.1-0.5,0.3
				c-0.1,0.2-0.2,0.4-0.2,0.8c0,0.3,0.1,0.6,0.2,0.8S252.1,221.7,252.4,221.7z"/>
		</g>
	</g>
	<g>
		<g>
			<path class="st3" d="M372.6,103.7h-3.7v3.4h4.1v1h-5.3v-9.4h5.1v1h-3.9v3h3.7V103.7z"/>
			<path class="st3" d="M374.5,103.2c0-0.7,0-1.3-0.1-1.8h1.1l0.1,1.1h0c0.4-0.6,1-1.2,2.1-1.2c0.9,0,1.6,0.6,1.9,1.4h0
				c0.2-0.4,0.5-0.7,0.8-0.9c0.4-0.3,0.9-0.5,1.5-0.5c0.9,0,2.2,0.6,2.2,2.9v4H383v-3.8c0-1.3-0.5-2.1-1.5-2.1
				c-0.7,0-1.2,0.5-1.5,1.1c-0.1,0.2-0.1,0.4-0.1,0.6v4.2h-1.2v-4.1c0-1.1-0.5-1.9-1.4-1.9c-0.8,0-1.3,0.6-1.5,1.2
				c-0.1,0.2-0.1,0.4-0.1,0.6v4.1h-1.2V103.2z"/>
			<path class="st3" d="M389.9,108.1l-0.1-0.9h0c-0.4,0.5-1.1,1-2.1,1c-1.4,0-2.1-1-2.1-1.9c0-1.6,1.5-2.5,4.1-2.5v-0.1
				c0-0.6-0.2-1.6-1.5-1.6c-0.6,0-1.3,0.2-1.8,0.5l-0.3-0.8c0.6-0.4,1.4-0.6,2.2-0.6c2.1,0,2.6,1.4,2.6,2.8v2.5c0,0.6,0,1.2,0.1,1.6
				H389.9z M389.8,104.7c-1.3,0-2.9,0.2-2.9,1.5c0,0.8,0.5,1.2,1.2,1.2c0.9,0,1.4-0.6,1.6-1.1c0-0.1,0.1-0.3,0.1-0.4V104.7z"/>
			<path class="st3" d="M394.3,99.4c0,0.4-0.3,0.8-0.8,0.8c-0.4,0-0.7-0.3-0.7-0.8c0-0.4,0.3-0.8,0.8-0.8
				C394,98.7,394.3,99,394.3,99.4z M392.9,108.1v-6.8h1.2v6.8H392.9z"/>
			<path class="st3" d="M396.2,98.2h1.2v9.9h-1.2V98.2z"/>
		</g>
	</g>
	<g>
		<g>
			<path class="st11" d="M270.5,163.5c-0.2,0-0.4,0-0.5-0.1V163c0.2,0,0.3,0.1,0.5,0.1c0.2,0,0.4-0.1,0.5-0.2s0.2-0.3,0.2-0.5v-4.6
				h0.5v4.6c0,0.4-0.1,0.7-0.3,0.9S270.8,163.5,270.5,163.5z"/>
			<path class="st11" d="M275.8,160.6c0,0.6-0.1,1-0.4,1.3c-0.3,0.3-0.7,0.5-1.2,0.5c-0.3,0-0.6-0.1-0.8-0.2s-0.4-0.4-0.6-0.6
				c-0.1-0.3-0.2-0.6-0.2-1c0-0.6,0.1-1,0.4-1.3c0.3-0.3,0.7-0.5,1.2-0.5c0.5,0,0.9,0.2,1.2,0.5C275.7,159.6,275.8,160,275.8,160.6z
				 M273.2,160.6c0,0.4,0.1,0.8,0.3,1s0.4,0.3,0.8,0.3c0.3,0,0.6-0.1,0.8-0.3c0.2-0.2,0.3-0.6,0.3-1c0-0.4-0.1-0.8-0.3-1
				c-0.2-0.2-0.4-0.3-0.8-0.3c-0.3,0-0.6,0.1-0.8,0.3C273.2,159.8,273.2,160.1,273.2,160.6z"/>
			<path class="st11" d="M279.1,162.3v-2.3c0-0.3-0.1-0.5-0.2-0.6c-0.1-0.1-0.3-0.2-0.6-0.2c-0.4,0-0.6,0.1-0.8,0.3s-0.3,0.5-0.3,1
				v1.8h-0.5v-4.9h0.5v1.5c0,0.2,0,0.3,0,0.4h0c0.1-0.2,0.3-0.3,0.4-0.4c0.2-0.1,0.4-0.1,0.7-0.1c0.4,0,0.7,0.1,1,0.3
				c0.2,0.2,0.3,0.5,0.3,1v2.3H279.1z"/>
			<path class="st11" d="M283.1,162.3v-2.3c0-0.3-0.1-0.5-0.2-0.6s-0.3-0.2-0.6-0.2c-0.4,0-0.6,0.1-0.8,0.3c-0.2,0.2-0.3,0.5-0.3,1
				v1.8h-0.5v-3.5h0.4l0.1,0.5h0c0.1-0.2,0.3-0.3,0.5-0.4c0.2-0.1,0.4-0.1,0.7-0.1c0.4,0,0.7,0.1,0.9,0.3s0.3,0.5,0.3,1v2.3H283.1z"
				/>
			<path class="st11" d="M289.1,161.1c0,0.4-0.1,0.7-0.4,1c-0.3,0.2-0.7,0.3-1.2,0.3c-0.6,0-1-0.1-1.3-0.2v-0.5
				c0.2,0.1,0.4,0.1,0.6,0.2s0.4,0.1,0.7,0.1c0.4,0,0.6-0.1,0.8-0.2c0.2-0.1,0.3-0.3,0.3-0.6c0-0.2,0-0.3-0.1-0.4
				c-0.1-0.1-0.2-0.2-0.3-0.3s-0.4-0.2-0.7-0.3c-0.4-0.2-0.7-0.3-0.9-0.5c-0.2-0.2-0.3-0.5-0.3-0.8c0-0.4,0.1-0.6,0.4-0.9
				s0.6-0.3,1.1-0.3c0.5,0,0.9,0.1,1.3,0.3l-0.2,0.5c-0.4-0.2-0.8-0.2-1.1-0.2c-0.3,0-0.5,0.1-0.7,0.2c-0.2,0.1-0.2,0.3-0.2,0.5
				c0,0.2,0,0.3,0.1,0.4c0.1,0.1,0.2,0.2,0.3,0.3s0.4,0.2,0.6,0.3c0.5,0.2,0.8,0.4,1,0.6S289.1,160.8,289.1,161.1z"/>
			<path class="st11" d="M294.4,162.3v-2.3c0-0.3-0.1-0.5-0.2-0.6s-0.3-0.2-0.6-0.2c-0.3,0-0.6,0.1-0.7,0.3
				c-0.2,0.2-0.2,0.5-0.2,0.9v1.9h-0.5v-2.3c0-0.3-0.1-0.5-0.2-0.6s-0.3-0.2-0.6-0.2c-0.3,0-0.6,0.1-0.7,0.3c-0.2,0.2-0.2,0.5-0.2,1
				v1.8H290v-3.5h0.4l0.1,0.5h0c0.1-0.2,0.2-0.3,0.4-0.4s0.4-0.1,0.6-0.1c0.5,0,0.9,0.2,1.1,0.6h0c0.1-0.2,0.3-0.3,0.5-0.4
				s0.4-0.2,0.7-0.2c0.4,0,0.7,0.1,0.9,0.3c0.2,0.2,0.3,0.5,0.3,1v2.3H294.4z"/>
			<path class="st11" d="M296,157.9c0-0.1,0-0.2,0.1-0.3c0.1-0.1,0.1-0.1,0.2-0.1c0.1,0,0.2,0,0.2,0.1c0.1,0.1,0.1,0.1,0.1,0.3
				s0,0.2-0.1,0.3c-0.1,0.1-0.1,0.1-0.2,0.1c-0.1,0-0.2,0-0.2-0.1C296,158.1,296,158,296,157.9z M296.5,162.3H296v-3.5h0.5V162.3z"
				/>
			<path class="st11" d="M298.8,161.9c0.1,0,0.2,0,0.3,0s0.2,0,0.2,0v0.4c-0.1,0-0.1,0.1-0.3,0.1c-0.1,0-0.2,0-0.3,0
				c-0.7,0-1-0.4-1-1.1v-2.1h-0.5V159l0.5-0.2l0.2-0.7h0.3v0.8h1v0.4h-1v2c0,0.2,0,0.4,0.1,0.5C298.5,161.9,298.6,161.9,298.8,161.9
				z"/>
			<path class="st11" d="M302.3,162.3v-2.3c0-0.3-0.1-0.5-0.2-0.6c-0.1-0.1-0.3-0.2-0.6-0.2c-0.4,0-0.6,0.1-0.8,0.3
				c-0.2,0.2-0.3,0.5-0.3,1v1.8H300v-4.9h0.5v1.5c0,0.2,0,0.3,0,0.4h0c0.1-0.2,0.3-0.3,0.4-0.4c0.2-0.1,0.4-0.1,0.7-0.1
				c0.4,0,0.7,0.1,1,0.3s0.3,0.5,0.3,1v2.3H302.3z"/>
		</g>
	</g>
	<g>
		<g>
			<path class="st11" d="M273.2,202.9h-2.6v-4.6h2.6v0.5h-2v1.5h1.9v0.5h-1.9v1.7h2V202.9z"/>
			<path class="st11" d="M276.6,202.9v-2.3c0-0.3-0.1-0.5-0.2-0.6c-0.1-0.1-0.3-0.2-0.6-0.2c-0.4,0-0.6,0.1-0.8,0.3
				c-0.2,0.2-0.3,0.5-0.3,1v1.8h-0.5v-3.5h0.4l0.1,0.5h0c0.1-0.2,0.3-0.3,0.5-0.4s0.4-0.1,0.7-0.1c0.4,0,0.7,0.1,0.9,0.3
				c0.2,0.2,0.3,0.5,0.3,1v2.3H276.6z"/>
			<path class="st11" d="M279.6,202.9c-0.5,0-0.9-0.2-1.2-0.5c-0.3-0.3-0.4-0.7-0.4-1.3c0-0.6,0.1-1,0.4-1.3
				c0.3-0.3,0.7-0.5,1.2-0.5c0.2,0,0.3,0,0.5,0.1c0.2,0,0.3,0.1,0.4,0.1l-0.2,0.4c-0.1,0-0.2-0.1-0.4-0.1s-0.3,0-0.4,0
				c-0.7,0-1.1,0.5-1.1,1.4c0,0.4,0.1,0.8,0.3,1c0.2,0.2,0.4,0.3,0.8,0.3c0.3,0,0.6-0.1,0.9-0.2v0.5
				C280.2,202.9,279.9,202.9,279.6,202.9z"/>
			<path class="st11" d="M282.8,199.3c0.2,0,0.3,0,0.4,0l-0.1,0.5c-0.1,0-0.3,0-0.4,0c-0.3,0-0.5,0.1-0.7,0.3
				c-0.2,0.2-0.3,0.5-0.3,0.9v1.9h-0.5v-3.5h0.4l0.1,0.6h0c0.1-0.2,0.3-0.4,0.5-0.5C282.4,199.4,282.6,199.3,282.8,199.3z"/>
			<path class="st11" d="M283.4,199.4h0.6l0.8,2c0.2,0.5,0.3,0.8,0.3,1h0c0-0.1,0.1-0.3,0.2-0.6c0.1-0.3,0.4-1.1,0.9-2.4h0.6l-1.5,4
				c-0.1,0.4-0.3,0.7-0.5,0.8s-0.4,0.2-0.7,0.2c-0.2,0-0.3,0-0.5-0.1v-0.4c0.1,0,0.2,0,0.4,0c0.4,0,0.6-0.2,0.8-0.6l0.2-0.5
				L283.4,199.4z"/>
			<path class="st11" d="M288.8,202.9c-0.2,0-0.4,0-0.6-0.1c-0.2-0.1-0.3-0.2-0.5-0.4h0c0,0.2,0,0.4,0,0.6v1.4h-0.5v-5h0.4l0.1,0.5
				h0c0.1-0.2,0.3-0.3,0.5-0.4c0.2-0.1,0.4-0.1,0.6-0.1c0.5,0,0.8,0.2,1.1,0.5c0.3,0.3,0.4,0.8,0.4,1.3c0,0.6-0.1,1-0.4,1.3
				C289.6,202.8,289.3,202.9,288.8,202.9z M288.7,199.8c-0.4,0-0.6,0.1-0.8,0.3c-0.2,0.2-0.2,0.5-0.2,0.9v0.1c0,0.5,0.1,0.8,0.2,1
				c0.2,0.2,0.4,0.3,0.8,0.3c0.3,0,0.5-0.1,0.7-0.4s0.3-0.6,0.3-1c0-0.4-0.1-0.8-0.3-1S289,199.8,288.7,199.8z"/>
			<path class="st11" d="M292.3,202.5c0.1,0,0.2,0,0.3,0c0.1,0,0.2,0,0.2,0v0.4c-0.1,0-0.1,0.1-0.3,0.1c-0.1,0-0.2,0-0.3,0
				c-0.7,0-1-0.4-1-1.1v-2.1h-0.5v-0.3l0.5-0.2l0.2-0.7h0.3v0.8h1v0.4h-1v2c0,0.2,0,0.4,0.1,0.5C292,202.4,292.1,202.5,292.3,202.5z
				"/>
			<path class="st11" d="M294.9,202.9c-0.5,0-0.9-0.2-1.2-0.5c-0.3-0.3-0.4-0.7-0.4-1.3c0-0.6,0.1-1,0.4-1.3
				c0.3-0.3,0.6-0.5,1.1-0.5c0.4,0,0.8,0.1,1,0.4c0.3,0.3,0.4,0.7,0.4,1.1v0.3h-2.4c0,0.4,0.1,0.7,0.3,0.9c0.2,0.2,0.5,0.3,0.8,0.3
				c0.4,0,0.7-0.1,1.1-0.2v0.5c-0.2,0.1-0.4,0.1-0.5,0.2C295.4,202.9,295.2,202.9,294.9,202.9z M294.8,199.8c-0.3,0-0.5,0.1-0.7,0.3
				c-0.2,0.2-0.3,0.4-0.3,0.8h1.8c0-0.3-0.1-0.6-0.2-0.8C295.3,199.8,295.1,199.8,294.8,199.8z"/>
			<path class="st11" d="M299.5,202.4L299.5,202.4c-0.3,0.4-0.6,0.5-1.1,0.5c-0.5,0-0.8-0.2-1.1-0.5s-0.4-0.8-0.4-1.3s0.1-1,0.4-1.3
				s0.6-0.5,1.1-0.5c0.5,0,0.8,0.2,1.1,0.5h0l0-0.3l0-0.2v-1.4h0.5v4.9h-0.4L299.5,202.4z M298.4,202.5c0.4,0,0.6-0.1,0.8-0.3
				c0.2-0.2,0.2-0.5,0.2-0.9v-0.1c0-0.5-0.1-0.8-0.2-1.1c-0.2-0.2-0.4-0.3-0.8-0.3c-0.3,0-0.5,0.1-0.7,0.4s-0.2,0.6-0.2,1
				c0,0.4,0.1,0.8,0.2,1C297.9,202.4,298.1,202.5,298.4,202.5z"/>
			<path class="st11" d="M301.7,202.1L301.7,202.1c0,0.3-0.1,0.5-0.2,0.8c-0.1,0.3-0.2,0.5-0.3,0.8h-0.4c0.1-0.2,0.1-0.5,0.2-0.8
				c0.1-0.3,0.1-0.6,0.1-0.8H301.7z"/>
			<path class="st11" d="M307.1,201.6c0,0.4-0.1,0.7-0.4,1c-0.3,0.2-0.7,0.3-1.2,0.3c-0.6,0-1-0.1-1.3-0.2v-0.5
				c0.2,0.1,0.4,0.1,0.6,0.2c0.2,0,0.4,0.1,0.7,0.1c0.4,0,0.6-0.1,0.8-0.2c0.2-0.1,0.3-0.3,0.3-0.6c0-0.2,0-0.3-0.1-0.4
				c-0.1-0.1-0.2-0.2-0.3-0.3s-0.4-0.2-0.7-0.3c-0.4-0.2-0.7-0.3-0.9-0.5s-0.3-0.5-0.3-0.8c0-0.4,0.1-0.6,0.4-0.9s0.6-0.3,1.1-0.3
				c0.5,0,0.9,0.1,1.3,0.3l-0.2,0.5c-0.4-0.2-0.8-0.2-1.1-0.2c-0.3,0-0.5,0.1-0.7,0.2c-0.2,0.1-0.2,0.3-0.2,0.5c0,0.2,0,0.3,0.1,0.4
				c0.1,0.1,0.2,0.2,0.3,0.3c0.1,0.1,0.4,0.2,0.6,0.3c0.5,0.2,0.8,0.4,1,0.6C307,201,307.1,201.3,307.1,201.6z"/>
			<path class="st11" d="M307.9,198.4c0-0.1,0-0.2,0.1-0.3s0.1-0.1,0.2-0.1c0.1,0,0.2,0,0.2,0.1c0.1,0.1,0.1,0.1,0.1,0.3
				s0,0.2-0.1,0.3c-0.1,0.1-0.1,0.1-0.2,0.1c-0.1,0-0.2,0-0.2-0.1S307.9,198.6,307.9,198.4z M308.5,202.9H308v-3.5h0.5V202.9z"/>
			<path class="st11" d="M312.5,199.4v0.3l-0.6,0.1c0.1,0.1,0.1,0.2,0.2,0.3c0,0.1,0.1,0.3,0.1,0.4c0,0.3-0.1,0.6-0.3,0.8
				c-0.2,0.2-0.6,0.3-1,0.3c-0.1,0-0.2,0-0.3,0c-0.2,0.1-0.3,0.3-0.3,0.4c0,0.1,0,0.2,0.1,0.2c0.1,0,0.2,0.1,0.4,0.1h0.6
				c0.4,0,0.7,0.1,0.9,0.2s0.3,0.4,0.3,0.7c0,0.4-0.2,0.7-0.5,0.9s-0.8,0.3-1.4,0.3c-0.5,0-0.8-0.1-1.1-0.3s-0.4-0.4-0.4-0.7
				c0-0.2,0.1-0.4,0.2-0.5c0.1-0.2,0.3-0.3,0.6-0.3c-0.1,0-0.2-0.1-0.2-0.2c-0.1-0.1-0.1-0.2-0.1-0.3c0-0.1,0-0.2,0.1-0.3
				c0.1-0.1,0.2-0.2,0.3-0.3c-0.2-0.1-0.3-0.2-0.4-0.4s-0.2-0.4-0.2-0.6c0-0.4,0.1-0.7,0.3-0.9c0.2-0.2,0.6-0.3,1-0.3
				c0.2,0,0.3,0,0.5,0.1H312.5z M309.7,203.4c0,0.2,0.1,0.3,0.2,0.4c0.2,0.1,0.4,0.1,0.7,0.1c0.4,0,0.8-0.1,1-0.2s0.3-0.3,0.3-0.5
				c0-0.2-0.1-0.3-0.2-0.4c-0.1-0.1-0.3-0.1-0.7-0.1h-0.6c-0.2,0-0.4,0.1-0.6,0.2C309.7,203.1,309.7,203.2,309.7,203.4z M310,200.5
				c0,0.2,0.1,0.4,0.2,0.6s0.3,0.2,0.6,0.2c0.5,0,0.8-0.3,0.8-0.7c0-0.5-0.3-0.8-0.8-0.8c-0.2,0-0.4,0.1-0.6,0.2
				S310,200.2,310,200.5z"/>
			<path class="st11" d="M315.6,202.9v-2.3c0-0.3-0.1-0.5-0.2-0.6c-0.1-0.1-0.3-0.2-0.6-0.2c-0.4,0-0.6,0.1-0.8,0.3
				c-0.2,0.2-0.3,0.5-0.3,1v1.8h-0.5v-3.5h0.4l0.1,0.5h0c0.1-0.2,0.3-0.3,0.5-0.4s0.4-0.1,0.7-0.1c0.4,0,0.7,0.1,0.9,0.3
				c0.2,0.2,0.3,0.5,0.3,1v2.3H315.6z"/>
			<path class="st11" d="M318.6,202.9c-0.5,0-0.9-0.2-1.2-0.5c-0.3-0.3-0.4-0.7-0.4-1.3c0-0.6,0.1-1,0.4-1.3
				c0.3-0.3,0.6-0.5,1.1-0.5c0.4,0,0.8,0.1,1,0.4c0.3,0.3,0.4,0.7,0.4,1.1v0.3h-2.4c0,0.4,0.1,0.7,0.3,0.9c0.2,0.2,0.5,0.3,0.8,0.3
				c0.4,0,0.7-0.1,1.1-0.2v0.5c-0.2,0.1-0.4,0.1-0.5,0.2C319.1,202.9,318.9,202.9,318.6,202.9z M318.5,199.8c-0.3,0-0.5,0.1-0.7,0.3
				s-0.3,0.4-0.3,0.8h1.8c0-0.3-0.1-0.6-0.2-0.8S318.8,199.8,318.5,199.8z"/>
			<path class="st11" d="M323.2,202.4L323.2,202.4c-0.3,0.4-0.6,0.5-1.1,0.5c-0.5,0-0.8-0.2-1.1-0.5s-0.4-0.8-0.4-1.3s0.1-1,0.4-1.3
				c0.3-0.3,0.6-0.5,1.1-0.5c0.5,0,0.8,0.2,1.1,0.5h0l0-0.3l0-0.2v-1.4h0.5v4.9h-0.4L323.2,202.4z M322.1,202.5
				c0.4,0,0.6-0.1,0.8-0.3c0.2-0.2,0.2-0.5,0.2-0.9v-0.1c0-0.5-0.1-0.8-0.2-1.1c-0.2-0.2-0.4-0.3-0.8-0.3c-0.3,0-0.5,0.1-0.7,0.4
				s-0.2,0.6-0.2,1c0,0.4,0.1,0.8,0.2,1S321.8,202.5,322.1,202.5z"/>
			<path class="st11" d="M326.2,201.1c0-0.6,0.1-1.1,0.2-1.6c0.2-0.5,0.4-0.9,0.7-1.3h0.5c-0.3,0.4-0.5,0.9-0.7,1.3
				c-0.2,0.5-0.2,1-0.2,1.5c0,0.5,0.1,1,0.2,1.5s0.4,0.9,0.7,1.3h-0.5c-0.3-0.4-0.5-0.8-0.7-1.3S326.2,201.6,326.2,201.1z"/>
			<path class="st11" d="M328,204.4c-0.2,0-0.4,0-0.5-0.1v-0.4c0.1,0,0.3,0.1,0.4,0.1c0.2,0,0.3,0,0.4-0.1c0.1-0.1,0.1-0.2,0.1-0.4
				v-4.1h0.5v4C328.9,204.1,328.6,204.4,328,204.4z M328.4,198.4c0-0.1,0-0.2,0.1-0.3s0.1-0.1,0.2-0.1c0.1,0,0.2,0,0.2,0.1
				s0.1,0.1,0.1,0.3s0,0.2-0.1,0.3s-0.1,0.1-0.2,0.1c-0.1,0-0.2,0-0.2-0.1S328.4,198.6,328.4,198.4z"/>
			<path class="st11" d="M333.1,201.1c0,0.6-0.1,1-0.4,1.3c-0.3,0.3-0.7,0.5-1.2,0.5c-0.3,0-0.6-0.1-0.8-0.2s-0.4-0.4-0.6-0.6
				c-0.1-0.3-0.2-0.6-0.2-1c0-0.6,0.1-1,0.4-1.3s0.7-0.5,1.2-0.5c0.5,0,0.9,0.2,1.2,0.5C332.9,200.1,333.1,200.6,333.1,201.1z
				 M330.4,201.1c0,0.4,0.1,0.8,0.3,1c0.2,0.2,0.4,0.3,0.8,0.3c0.3,0,0.6-0.1,0.8-0.3c0.2-0.2,0.3-0.6,0.3-1c0-0.4-0.1-0.8-0.3-1
				c-0.2-0.2-0.4-0.3-0.8-0.3c-0.3,0-0.6,0.1-0.8,0.3C330.5,200.3,330.4,200.7,330.4,201.1z"/>
			<path class="st11" d="M335.5,202.9c-0.5,0-0.9-0.2-1.2-0.5c-0.3-0.3-0.4-0.7-0.4-1.3c0-0.6,0.1-1,0.4-1.3
				c0.3-0.3,0.6-0.5,1.1-0.5c0.4,0,0.8,0.1,1,0.4c0.3,0.3,0.4,0.7,0.4,1.1v0.3h-2.4c0,0.4,0.1,0.7,0.3,0.9c0.2,0.2,0.5,0.3,0.8,0.3
				c0.4,0,0.7-0.1,1.1-0.2v0.5c-0.2,0.1-0.4,0.1-0.5,0.2C335.9,202.9,335.7,202.9,335.5,202.9z M335.3,199.8c-0.3,0-0.5,0.1-0.7,0.3
				s-0.3,0.4-0.3,0.8h1.8c0-0.3-0.1-0.6-0.2-0.8S335.6,199.8,335.3,199.8z"/>
			<path class="st11" d="M337.1,199.4h0.6l0.8,2c0.2,0.5,0.3,0.8,0.3,1h0c0-0.1,0.1-0.3,0.2-0.6c0.1-0.3,0.4-1.1,0.9-2.4h0.6l-1.5,4
				c-0.1,0.4-0.3,0.7-0.5,0.8c-0.2,0.2-0.4,0.2-0.7,0.2c-0.2,0-0.3,0-0.5-0.1v-0.4c0.1,0,0.2,0,0.4,0c0.4,0,0.6-0.2,0.8-0.6l0.2-0.5
				L337.1,199.4z"/>
			<path class="st11" d="M340.8,202.5c0-0.1,0-0.2,0.1-0.3c0.1-0.1,0.2-0.1,0.3-0.1c0.1,0,0.2,0,0.3,0.1c0.1,0.1,0.1,0.2,0.1,0.3
				c0,0.1,0,0.2-0.1,0.3c-0.1,0.1-0.2,0.1-0.3,0.1c-0.1,0-0.2,0-0.3-0.1C340.9,202.8,340.8,202.7,340.8,202.5z"/>
			<path class="st11" d="M344.9,201.9c0,0.3-0.1,0.6-0.4,0.7c-0.2,0.2-0.6,0.3-1,0.3c-0.5,0-0.8-0.1-1.1-0.2v-0.5
				c0.2,0.1,0.3,0.2,0.5,0.2c0.2,0,0.4,0.1,0.6,0.1c0.3,0,0.5,0,0.6-0.1c0.1-0.1,0.2-0.2,0.2-0.4c0-0.1-0.1-0.3-0.2-0.3
				c-0.1-0.1-0.3-0.2-0.7-0.3c-0.3-0.1-0.6-0.2-0.7-0.3c-0.1-0.1-0.2-0.2-0.3-0.3c-0.1-0.1-0.1-0.3-0.1-0.4c0-0.3,0.1-0.5,0.3-0.7
				c0.2-0.2,0.5-0.2,0.9-0.2c0.4,0,0.7,0.1,1.1,0.2l-0.2,0.4c-0.3-0.1-0.7-0.2-0.9-0.2c-0.3,0-0.4,0-0.6,0.1
				c-0.1,0.1-0.2,0.2-0.2,0.3c0,0.1,0,0.2,0.1,0.2c0,0.1,0.1,0.1,0.2,0.2c0.1,0.1,0.3,0.1,0.6,0.3c0.4,0.2,0.7,0.3,0.8,0.5
				S344.9,201.7,344.9,201.9z"/>
			<path class="st11" d="M346.9,202.5c0.1,0,0.2,0,0.3,0s0.2,0,0.2,0v0.4c-0.1,0-0.1,0.1-0.3,0.1s-0.2,0-0.3,0c-0.7,0-1-0.4-1-1.1
				v-2.1h-0.5v-0.3l0.5-0.2l0.2-0.7h0.3v0.8h1v0.4h-1v2c0,0.2,0,0.4,0.1,0.5C346.6,202.4,346.7,202.5,346.9,202.5z"/>
			<path class="st11" d="M349.5,202.9c-0.5,0-0.9-0.2-1.2-0.5c-0.3-0.3-0.4-0.7-0.4-1.3c0-0.6,0.1-1,0.4-1.3
				c0.3-0.3,0.6-0.5,1.1-0.5c0.4,0,0.8,0.1,1,0.4c0.3,0.3,0.4,0.7,0.4,1.1v0.3h-2.4c0,0.4,0.1,0.7,0.3,0.9c0.2,0.2,0.5,0.3,0.8,0.3
				c0.4,0,0.7-0.1,1.1-0.2v0.5c-0.2,0.1-0.4,0.1-0.5,0.2C349.9,202.9,349.7,202.9,349.5,202.9z M349.4,199.8c-0.3,0-0.5,0.1-0.7,0.3
				s-0.3,0.4-0.3,0.8h1.8c0-0.3-0.1-0.6-0.2-0.8S349.6,199.8,349.4,199.8z"/>
			<path class="st11" d="M354.5,202.9l-0.6-2c0-0.1-0.1-0.4-0.2-0.9h0c-0.1,0.4-0.2,0.7-0.2,0.9l-0.7,2h-0.6l-0.9-3.5h0.6
				c0.2,0.9,0.4,1.5,0.5,2c0.1,0.5,0.2,0.8,0.2,0.9h0c0-0.1,0.1-0.3,0.1-0.5c0.1-0.2,0.1-0.3,0.1-0.5l0.6-2h0.6l0.6,2
				c0.1,0.4,0.2,0.7,0.2,0.9h0c0-0.1,0-0.2,0.1-0.4c0-0.2,0.3-1,0.7-2.6h0.5l-1,3.5H354.5z"/>
			<path class="st11" d="M356.2,199.4h0.6l0.8,2c0.2,0.5,0.3,0.8,0.3,1h0c0-0.1,0.1-0.3,0.2-0.6c0.1-0.3,0.4-1.1,0.9-2.4h0.6l-1.5,4
				c-0.1,0.4-0.3,0.7-0.5,0.8c-0.2,0.2-0.4,0.2-0.7,0.2c-0.2,0-0.3,0-0.5-0.1v-0.4c0.1,0,0.2,0,0.4,0c0.4,0,0.6-0.2,0.8-0.6l0.2-0.5
				L356.2,199.4z"/>
			<path class="st11" d="M364.9,200.5c0,0.3,0,0.6-0.1,0.8c-0.1,0.2-0.2,0.4-0.4,0.6s-0.4,0.2-0.6,0.2c-0.2,0-0.3-0.1-0.5-0.2
				c-0.1-0.1-0.2-0.3-0.2-0.4h0c-0.1,0.2-0.2,0.3-0.4,0.4c-0.2,0.1-0.3,0.2-0.6,0.2c-0.3,0-0.6-0.1-0.7-0.3
				c-0.2-0.2-0.3-0.5-0.3-0.9c0-0.4,0.1-0.8,0.4-1.1c0.3-0.3,0.6-0.4,1-0.4c0.1,0,0.3,0,0.5,0c0.2,0,0.3,0.1,0.5,0.1l-0.1,1.5v0.1
				c0,0.4,0.1,0.6,0.4,0.6c0.2,0,0.3-0.1,0.5-0.3c0.1-0.2,0.2-0.5,0.2-0.9c0-0.4-0.1-0.7-0.2-1c-0.2-0.3-0.4-0.5-0.7-0.7
				s-0.6-0.2-1-0.2c-0.5,0-0.9,0.1-1.2,0.3s-0.6,0.5-0.8,0.8c-0.2,0.4-0.3,0.8-0.3,1.3c0,0.6,0.2,1.1,0.5,1.5s0.8,0.5,1.5,0.5
				c0.4,0,0.9-0.1,1.4-0.3v0.4c-0.4,0.2-0.9,0.3-1.4,0.3c-0.8,0-1.4-0.2-1.8-0.6s-0.6-1-0.6-1.8c0-0.6,0.1-1,0.3-1.5s0.5-0.8,1-1
				c0.4-0.2,0.9-0.4,1.4-0.4c0.5,0,0.9,0.1,1.2,0.3c0.4,0.2,0.6,0.5,0.8,0.8S364.9,200.1,364.9,200.5z M361.6,201
				c0,0.5,0.2,0.8,0.6,0.8c0.4,0,0.7-0.3,0.7-1l0-0.8c-0.2,0-0.3-0.1-0.5-0.1c-0.3,0-0.5,0.1-0.6,0.3
				C361.7,200.4,361.6,200.6,361.6,201z"/>
			<path class="st11" d="M368.1,201.9c0,0.3-0.1,0.6-0.4,0.7c-0.2,0.2-0.6,0.3-1,0.3c-0.5,0-0.8-0.1-1.1-0.2v-0.5
				c0.2,0.1,0.3,0.2,0.5,0.2c0.2,0,0.4,0.1,0.6,0.1c0.3,0,0.5,0,0.6-0.1s0.2-0.2,0.2-0.4c0-0.1-0.1-0.3-0.2-0.3
				c-0.1-0.1-0.3-0.2-0.7-0.3c-0.3-0.1-0.6-0.2-0.7-0.3s-0.2-0.2-0.3-0.3c-0.1-0.1-0.1-0.3-0.1-0.4c0-0.3,0.1-0.5,0.3-0.7
				c0.2-0.2,0.5-0.2,0.9-0.2c0.4,0,0.7,0.1,1.1,0.2l-0.2,0.4c-0.3-0.1-0.7-0.2-0.9-0.2c-0.3,0-0.4,0-0.6,0.1
				c-0.1,0.1-0.2,0.2-0.2,0.3c0,0.1,0,0.2,0.1,0.2c0,0.1,0.1,0.1,0.2,0.2c0.1,0.1,0.3,0.1,0.6,0.3c0.4,0.2,0.7,0.3,0.8,0.5
				C368,201.5,368.1,201.7,368.1,201.9z"/>
			<path class="st11" d="M370.1,202.5c0.1,0,0.2,0,0.3,0c0.1,0,0.2,0,0.2,0v0.4c-0.1,0-0.1,0.1-0.3,0.1c-0.1,0-0.2,0-0.3,0
				c-0.7,0-1-0.4-1-1.1v-2.1h-0.5v-0.3l0.5-0.2l0.2-0.7h0.3v0.8h1v0.4h-1v2c0,0.2,0,0.4,0.1,0.5
				C369.8,202.4,369.9,202.5,370.1,202.5z"/>
			<path class="st11" d="M372.9,199.3c0.2,0,0.3,0,0.4,0l-0.1,0.5c-0.1,0-0.3,0-0.4,0c-0.3,0-0.5,0.1-0.7,0.3s-0.3,0.5-0.3,0.9v1.9
				h-0.5v-3.5h0.4l0.1,0.6h0c0.1-0.2,0.3-0.4,0.5-0.5C372.4,199.4,372.6,199.3,372.9,199.3z"/>
			<path class="st11" d="M375.4,202.9c-0.5,0-0.9-0.2-1.2-0.5c-0.3-0.3-0.4-0.7-0.4-1.3c0-0.6,0.1-1,0.4-1.3
				c0.3-0.3,0.6-0.5,1.1-0.5c0.4,0,0.8,0.1,1,0.4c0.3,0.3,0.4,0.7,0.4,1.1v0.3h-2.4c0,0.4,0.1,0.7,0.3,0.9c0.2,0.2,0.5,0.3,0.8,0.3
				c0.4,0,0.7-0.1,1.1-0.2v0.5c-0.2,0.1-0.4,0.1-0.5,0.2C375.8,202.9,375.6,202.9,375.4,202.9z M375.3,199.8c-0.3,0-0.5,0.1-0.7,0.3
				c-0.2,0.2-0.3,0.4-0.3,0.8h1.8c0-0.3-0.1-0.6-0.2-0.8C375.7,199.8,375.5,199.8,375.3,199.8z"/>
			<path class="st11" d="M379.7,202.9l-0.1-0.5h0c-0.2,0.2-0.3,0.4-0.5,0.4c-0.2,0.1-0.4,0.1-0.6,0.1c-0.3,0-0.6-0.1-0.8-0.3
				c-0.2-0.2-0.3-0.4-0.3-0.8c0-0.7,0.6-1.1,1.7-1.1l0.6,0v-0.2c0-0.3-0.1-0.5-0.2-0.6c-0.1-0.1-0.3-0.2-0.6-0.2
				c-0.3,0-0.6,0.1-1,0.3l-0.2-0.4c0.2-0.1,0.4-0.2,0.6-0.2c0.2-0.1,0.4-0.1,0.6-0.1c0.4,0,0.7,0.1,0.9,0.3c0.2,0.2,0.3,0.5,0.3,0.9
				v2.4H379.7z M378.5,202.5c0.3,0,0.6-0.1,0.8-0.3c0.2-0.2,0.3-0.4,0.3-0.8v-0.3l-0.5,0c-0.4,0-0.7,0.1-0.9,0.2
				c-0.2,0.1-0.3,0.3-0.3,0.5c0,0.2,0.1,0.3,0.2,0.4C378.2,202.4,378.3,202.5,378.5,202.5z"/>
			<path class="st11" d="M385.6,202.9v-2.3c0-0.3-0.1-0.5-0.2-0.6s-0.3-0.2-0.6-0.2c-0.3,0-0.6,0.1-0.7,0.3
				c-0.2,0.2-0.2,0.5-0.2,0.9v1.9h-0.5v-2.3c0-0.3-0.1-0.5-0.2-0.6s-0.3-0.2-0.6-0.2c-0.3,0-0.6,0.1-0.7,0.3c-0.2,0.2-0.2,0.5-0.2,1
				v1.8h-0.5v-3.5h0.4l0.1,0.5h0c0.1-0.2,0.2-0.3,0.4-0.4s0.4-0.1,0.6-0.1c0.5,0,0.9,0.2,1.1,0.6h0c0.1-0.2,0.3-0.3,0.5-0.4
				s0.4-0.2,0.7-0.2c0.4,0,0.7,0.1,0.9,0.3c0.2,0.2,0.3,0.5,0.3,1v2.3H385.6z"/>
			<path class="st11" d="M387.8,202.9h-0.5v-4.9h0.5V202.9z"/>
			<path class="st11" d="M388.8,198.4c0-0.1,0-0.2,0.1-0.3c0.1-0.1,0.1-0.1,0.2-0.1c0.1,0,0.2,0,0.2,0.1s0.1,0.1,0.1,0.3
				s0,0.2-0.1,0.3s-0.1,0.1-0.2,0.1c-0.1,0-0.2,0-0.2-0.1C388.9,198.6,388.8,198.6,388.8,198.4z M389.4,202.9h-0.5v-3.5h0.5V202.9z"
				/>
			<path class="st11" d="M392.9,202.9v-2.3c0-0.3-0.1-0.5-0.2-0.6s-0.3-0.2-0.6-0.2c-0.4,0-0.6,0.1-0.8,0.3c-0.2,0.2-0.3,0.5-0.3,1
				v1.8h-0.5v-3.5h0.4l0.1,0.5h0c0.1-0.2,0.3-0.3,0.5-0.4c0.2-0.1,0.4-0.1,0.7-0.1c0.4,0,0.7,0.1,0.9,0.3s0.3,0.5,0.3,1v2.3H392.9z"
				/>
			<path class="st11" d="M396,202.9c-0.5,0-0.9-0.2-1.2-0.5c-0.3-0.3-0.4-0.7-0.4-1.3c0-0.6,0.1-1,0.4-1.3c0.3-0.3,0.6-0.5,1.1-0.5
				c0.4,0,0.8,0.1,1,0.4c0.3,0.3,0.4,0.7,0.4,1.1v0.3h-2.4c0,0.4,0.1,0.7,0.3,0.9c0.2,0.2,0.5,0.3,0.8,0.3c0.4,0,0.7-0.1,1.1-0.2
				v0.5c-0.2,0.1-0.4,0.1-0.5,0.2C396.4,202.9,396.2,202.9,396,202.9z M395.9,199.8c-0.3,0-0.5,0.1-0.7,0.3s-0.3,0.4-0.3,0.8h1.8
				c0-0.3-0.1-0.6-0.2-0.8S396.1,199.8,395.9,199.8z"/>
			<path class="st11" d="M398.1,202.5c0-0.1,0-0.2,0.1-0.3c0.1-0.1,0.2-0.1,0.3-0.1c0.1,0,0.2,0,0.3,0.1c0.1,0.1,0.1,0.2,0.1,0.3
				c0,0.1,0,0.2-0.1,0.3s-0.2,0.1-0.3,0.1c-0.1,0-0.2,0-0.3-0.1C398.1,202.8,398.1,202.7,398.1,202.5z"/>
			<path class="st11" d="M401.3,202.9c-0.5,0-0.9-0.2-1.2-0.5c-0.3-0.3-0.4-0.7-0.4-1.3c0-0.6,0.1-1,0.4-1.3
				c0.3-0.3,0.7-0.5,1.2-0.5c0.2,0,0.3,0,0.5,0.1s0.3,0.1,0.4,0.1l-0.2,0.4c-0.1,0-0.2-0.1-0.4-0.1c-0.1,0-0.3,0-0.4,0
				c-0.7,0-1.1,0.5-1.1,1.4c0,0.4,0.1,0.8,0.3,1c0.2,0.2,0.4,0.3,0.8,0.3c0.3,0,0.6-0.1,0.9-0.2v0.5
				C401.9,202.9,401.6,202.9,401.3,202.9z"/>
			<path class="st11" d="M406,201.1c0,0.6-0.1,1-0.4,1.3c-0.3,0.3-0.7,0.5-1.2,0.5c-0.3,0-0.6-0.1-0.8-0.2s-0.4-0.4-0.6-0.6
				c-0.1-0.3-0.2-0.6-0.2-1c0-0.6,0.1-1,0.4-1.3c0.3-0.3,0.7-0.5,1.2-0.5c0.5,0,0.9,0.2,1.2,0.5C405.9,200.1,406,200.6,406,201.1z
				 M403.4,201.1c0,0.4,0.1,0.8,0.3,1s0.4,0.3,0.8,0.3c0.3,0,0.6-0.1,0.8-0.3c0.2-0.2,0.3-0.6,0.3-1c0-0.4-0.1-0.8-0.3-1
				c-0.2-0.2-0.4-0.3-0.8-0.3c-0.3,0-0.6,0.1-0.8,0.3C403.4,200.3,403.4,200.7,403.4,201.1z"/>
			<path class="st11" d="M411.4,202.9v-2.3c0-0.3-0.1-0.5-0.2-0.6s-0.3-0.2-0.6-0.2c-0.3,0-0.6,0.1-0.7,0.3
				c-0.2,0.2-0.2,0.5-0.2,0.9v1.9h-0.5v-2.3c0-0.3-0.1-0.5-0.2-0.6c-0.1-0.1-0.3-0.2-0.6-0.2c-0.3,0-0.6,0.1-0.7,0.3
				c-0.2,0.2-0.2,0.5-0.2,1v1.8h-0.5v-3.5h0.4l0.1,0.5h0c0.1-0.2,0.2-0.3,0.4-0.4c0.2-0.1,0.4-0.1,0.6-0.1c0.5,0,0.9,0.2,1.1,0.6h0
				c0.1-0.2,0.3-0.3,0.5-0.4c0.2-0.1,0.4-0.2,0.7-0.2c0.4,0,0.7,0.1,0.9,0.3c0.2,0.2,0.3,0.5,0.3,1v2.3H411.4z"/>
			<path class="st11" d="M414.1,201.1c0,0.6-0.1,1.1-0.2,1.6s-0.4,0.9-0.7,1.3h-0.5c0.3-0.4,0.5-0.8,0.7-1.3s0.2-1,0.2-1.5
				c0-0.5-0.1-1-0.2-1.5c-0.2-0.5-0.4-0.9-0.7-1.3h0.5c0.3,0.4,0.5,0.8,0.7,1.3S414.1,200.5,414.1,201.1z"/>
		</g>
	</g>
	<g>
		<g>
			<path class="st11" d="M293.8,226.8c0,0.3-0.1,0.6-0.4,0.7s-0.6,0.3-1,0.3c-0.5,0-0.8-0.1-1.1-0.2v-0.5c0.2,0.1,0.3,0.2,0.5,0.2
				c0.2,0,0.4,0.1,0.6,0.1c0.3,0,0.5,0,0.6-0.1c0.1-0.1,0.2-0.2,0.2-0.4c0-0.1-0.1-0.3-0.2-0.3c-0.1-0.1-0.3-0.2-0.7-0.3
				c-0.3-0.1-0.6-0.2-0.7-0.3s-0.2-0.2-0.3-0.3c-0.1-0.1-0.1-0.3-0.1-0.4c0-0.3,0.1-0.5,0.3-0.7c0.2-0.2,0.5-0.2,0.9-0.2
				c0.4,0,0.7,0.1,1.1,0.2l-0.2,0.4c-0.3-0.1-0.7-0.2-0.9-0.2c-0.2,0-0.4,0-0.6,0.1c-0.1,0.1-0.2,0.2-0.2,0.3c0,0.1,0,0.2,0.1,0.2
				c0,0.1,0.1,0.1,0.2,0.2c0.1,0.1,0.3,0.1,0.6,0.3c0.4,0.2,0.7,0.3,0.8,0.5S293.8,226.6,293.8,226.8z"/>
			<path class="st11" d="M297,227.8v-2.3c0-0.3-0.1-0.5-0.2-0.6c-0.1-0.1-0.3-0.2-0.6-0.2c-0.4,0-0.6,0.1-0.8,0.3
				c-0.2,0.2-0.3,0.5-0.3,1v1.8h-0.5v-4.9h0.5v1.5c0,0.2,0,0.3,0,0.4h0c0.1-0.2,0.3-0.3,0.4-0.4c0.2-0.1,0.4-0.1,0.7-0.1
				c0.4,0,0.7,0.1,1,0.3c0.2,0.2,0.3,0.5,0.3,1v2.3H297z"/>
			<path class="st11" d="M300.8,227.8l-0.1-0.5h0c-0.2,0.2-0.3,0.4-0.5,0.4c-0.2,0.1-0.4,0.1-0.6,0.1c-0.3,0-0.6-0.1-0.8-0.3
				s-0.3-0.4-0.3-0.8c0-0.7,0.6-1.1,1.7-1.1l0.6,0v-0.2c0-0.3-0.1-0.5-0.2-0.6c-0.1-0.1-0.3-0.2-0.6-0.2c-0.3,0-0.6,0.1-1,0.3
				l-0.2-0.4c0.2-0.1,0.4-0.2,0.6-0.2c0.2-0.1,0.4-0.1,0.6-0.1c0.4,0,0.7,0.1,0.9,0.3c0.2,0.2,0.3,0.5,0.3,0.9v2.4H300.8z
				 M299.6,227.4c0.3,0,0.6-0.1,0.8-0.3c0.2-0.2,0.3-0.4,0.3-0.8v-0.3l-0.5,0c-0.4,0-0.7,0.1-0.9,0.2c-0.2,0.1-0.3,0.3-0.3,0.5
				c0,0.2,0.1,0.3,0.2,0.4C299.2,227.4,299.4,227.4,299.6,227.4z"/>
			<path class="st11" d="M303.9,224.2c0.2,0,0.3,0,0.4,0l-0.1,0.5c-0.1,0-0.3,0-0.4,0c-0.3,0-0.5,0.1-0.7,0.3
				c-0.2,0.2-0.3,0.5-0.3,0.9v1.9h-0.5v-3.5h0.4l0.1,0.6h0c0.1-0.2,0.3-0.4,0.5-0.5C303.4,224.3,303.6,224.2,303.9,224.2z"/>
			<path class="st11" d="M306.4,227.9c-0.5,0-0.9-0.2-1.2-0.5c-0.3-0.3-0.4-0.7-0.4-1.3c0-0.6,0.1-1,0.4-1.3
				c0.3-0.3,0.6-0.5,1.1-0.5c0.4,0,0.8,0.1,1,0.4c0.3,0.3,0.4,0.7,0.4,1.1v0.3h-2.4c0,0.4,0.1,0.7,0.3,0.9c0.2,0.2,0.5,0.3,0.8,0.3
				c0.4,0,0.7-0.1,1.1-0.2v0.5c-0.2,0.1-0.4,0.1-0.5,0.2C306.8,227.8,306.6,227.9,306.4,227.9z M306.2,224.7c-0.3,0-0.5,0.1-0.7,0.3
				s-0.3,0.4-0.3,0.8h1.8c0-0.3-0.1-0.6-0.2-0.8S306.5,224.7,306.2,224.7z"/>
			<path class="st11" d="M310.9,227.3L310.9,227.3c-0.3,0.4-0.6,0.5-1.1,0.5c-0.5,0-0.8-0.2-1.1-0.5s-0.4-0.8-0.4-1.3s0.1-1,0.4-1.3
				c0.3-0.3,0.6-0.5,1.1-0.5c0.5,0,0.8,0.2,1.1,0.5h0l0-0.3l0-0.2v-1.4h0.5v4.9H311L310.9,227.3z M309.9,227.4
				c0.4,0,0.6-0.1,0.8-0.3c0.2-0.2,0.2-0.5,0.2-0.9v-0.1c0-0.5-0.1-0.8-0.2-1.1c-0.2-0.2-0.4-0.3-0.8-0.3c-0.3,0-0.5,0.1-0.7,0.4
				s-0.2,0.6-0.2,1c0,0.4,0.1,0.8,0.2,1S309.6,227.4,309.9,227.4z"/>
			<path class="st11" d="M312.3,226.3v-0.5h1.6v0.5H312.3z"/>
			<path class="st11" d="M316.2,224.7h-0.9v3.1h-0.5v-3.1h-0.6v-0.2l0.6-0.2v-0.2c0-0.9,0.4-1.3,1.1-1.3c0.2,0,0.4,0,0.6,0.1
				l-0.1,0.4c-0.2-0.1-0.4-0.1-0.5-0.1c-0.2,0-0.3,0.1-0.4,0.2c-0.1,0.1-0.1,0.3-0.1,0.6v0.2h0.9V224.7z M316.8,223.4
				c0-0.1,0-0.2,0.1-0.3c0.1-0.1,0.1-0.1,0.2-0.1c0.1,0,0.2,0,0.2,0.1c0.1,0.1,0.1,0.1,0.1,0.3s0,0.2-0.1,0.3
				c-0.1,0.1-0.1,0.1-0.2,0.1c-0.1,0-0.2,0-0.2-0.1C316.8,223.6,316.8,223.5,316.8,223.4z M317.4,227.8h-0.5v-3.5h0.5V227.8z"/>
			<path class="st11" d="M319,227.8h-0.5v-4.9h0.5V227.8z"/>
			<path class="st11" d="M321.6,227.9c-0.5,0-0.9-0.2-1.2-0.5c-0.3-0.3-0.4-0.7-0.4-1.3c0-0.6,0.1-1,0.4-1.3
				c0.3-0.3,0.6-0.5,1.1-0.5c0.4,0,0.8,0.1,1,0.4c0.3,0.3,0.4,0.7,0.4,1.1v0.3h-2.4c0,0.4,0.1,0.7,0.3,0.9c0.2,0.2,0.5,0.3,0.8,0.3
				c0.4,0,0.7-0.1,1.1-0.2v0.5c-0.2,0.1-0.4,0.1-0.5,0.2C322,227.8,321.8,227.9,321.6,227.9z M321.5,224.7c-0.3,0-0.5,0.1-0.7,0.3
				s-0.3,0.4-0.3,0.8h1.8c0-0.3-0.1-0.6-0.2-0.8S321.7,224.7,321.5,224.7z"/>
			<path class="st11" d="M323.7,227.5c0-0.1,0-0.2,0.1-0.3c0.1-0.1,0.2-0.1,0.3-0.1c0.1,0,0.2,0,0.3,0.1c0.1,0.1,0.1,0.2,0.1,0.3
				c0,0.1,0,0.2-0.1,0.3c-0.1,0.1-0.2,0.1-0.3,0.1c-0.1,0-0.2,0-0.3-0.1C323.7,227.7,323.7,227.6,323.7,227.5z"/>
			<path class="st11" d="M327.9,227.3L327.9,227.3c-0.3,0.4-0.6,0.5-1.1,0.5c-0.5,0-0.8-0.2-1.1-0.5c-0.3-0.3-0.4-0.8-0.4-1.3
				s0.1-1,0.4-1.3s0.6-0.5,1.1-0.5c0.5,0,0.8,0.2,1.1,0.5h0l0-0.3l0-0.2v-1.4h0.5v4.9H328L327.9,227.3z M326.8,227.4
				c0.4,0,0.6-0.1,0.8-0.3c0.2-0.2,0.2-0.5,0.2-0.9v-0.1c0-0.5-0.1-0.8-0.2-1.1c-0.2-0.2-0.4-0.3-0.8-0.3c-0.3,0-0.5,0.1-0.7,0.4
				s-0.2,0.6-0.2,1c0,0.4,0.1,0.8,0.2,1S326.5,227.4,326.8,227.4z"/>
			<path class="st11" d="M332.5,226c0,0.6-0.1,1-0.4,1.3c-0.3,0.3-0.7,0.5-1.2,0.5c-0.3,0-0.6-0.1-0.8-0.2s-0.4-0.4-0.6-0.6
				c-0.1-0.3-0.2-0.6-0.2-1c0-0.6,0.1-1,0.4-1.3s0.7-0.5,1.2-0.5c0.5,0,0.9,0.2,1.2,0.5C332.4,225.1,332.5,225.5,332.5,226z
				 M329.9,226c0,0.4,0.1,0.8,0.3,1c0.2,0.2,0.4,0.3,0.8,0.3c0.3,0,0.6-0.1,0.8-0.3c0.2-0.2,0.3-0.6,0.3-1c0-0.4-0.1-0.8-0.3-1
				c-0.2-0.2-0.4-0.3-0.8-0.3c-0.3,0-0.6,0.1-0.8,0.3C329.9,225.3,329.9,225.6,329.9,226z"/>
			<path class="st11" d="M334.8,227.9c-0.5,0-0.9-0.2-1.2-0.5c-0.3-0.3-0.4-0.7-0.4-1.3c0-0.6,0.1-1,0.4-1.3
				c0.3-0.3,0.7-0.5,1.2-0.5c0.2,0,0.3,0,0.5,0.1c0.2,0,0.3,0.1,0.4,0.1l-0.2,0.4c-0.1,0-0.2-0.1-0.4-0.1c-0.1,0-0.3,0-0.4,0
				c-0.7,0-1.1,0.5-1.1,1.4c0,0.4,0.1,0.8,0.3,1c0.2,0.2,0.4,0.3,0.8,0.3c0.3,0,0.6-0.1,0.9-0.2v0.5
				C335.5,227.8,335.2,227.9,334.8,227.9z"/>
			<path class="st11" d="M337.4,226l-1.2-1.7h0.6l0.9,1.3l0.9-1.3h0.6L338,226l1.3,1.8h-0.6l-1-1.4l-1,1.4h-0.6L337.4,226z"/>
		</g>
	</g>
	<g>
		<g>
			<path class="st11" d="M227.7,408.8v-0.5h1.6v0.5H227.7z"/>
			<path class="st11" d="M231.2,411.6c-0.2,0-0.4,0-0.5-0.1V411c0.2,0,0.3,0.1,0.5,0.1c0.2,0,0.4-0.1,0.5-0.2
				c0.1-0.1,0.2-0.3,0.2-0.5v-4.6h0.5v4.6c0,0.4-0.1,0.7-0.3,0.9C231.9,411.5,231.6,411.6,231.2,411.6z"/>
			<path class="st11" d="M234,406.9v2.3c0,0.3,0.1,0.5,0.2,0.6c0.1,0.1,0.3,0.2,0.6,0.2c0.4,0,0.6-0.1,0.8-0.3
				c0.2-0.2,0.3-0.5,0.3-1v-1.8h0.5v3.5H236l-0.1-0.5h0c-0.1,0.2-0.3,0.3-0.4,0.4c-0.2,0.1-0.4,0.1-0.7,0.1c-0.4,0-0.7-0.1-1-0.3
				s-0.3-0.5-0.3-1v-2.3H234z"/>
			<path class="st11" d="M239.8,409.4c0,0.3-0.1,0.6-0.4,0.8c-0.2,0.2-0.6,0.3-1,0.3c-0.5,0-0.8-0.1-1.1-0.2v-0.5
				c0.2,0.1,0.3,0.2,0.5,0.2c0.2,0,0.4,0.1,0.6,0.1c0.3,0,0.5,0,0.6-0.1s0.2-0.2,0.2-0.4c0-0.1-0.1-0.3-0.2-0.3
				c-0.1-0.1-0.3-0.2-0.7-0.3c-0.3-0.1-0.6-0.2-0.7-0.3s-0.2-0.2-0.3-0.3c-0.1-0.1-0.1-0.3-0.1-0.4c0-0.3,0.1-0.5,0.3-0.7
				c0.2-0.2,0.5-0.2,0.9-0.2c0.4,0,0.7,0.1,1.1,0.2l-0.2,0.4c-0.3-0.1-0.7-0.2-0.9-0.2c-0.3,0-0.4,0-0.6,0.1s-0.2,0.2-0.2,0.3
				c0,0.1,0,0.2,0.1,0.2c0,0.1,0.1,0.1,0.2,0.2s0.3,0.1,0.6,0.3c0.4,0.2,0.7,0.3,0.8,0.5C239.7,409,239.8,409.2,239.8,409.4z"/>
			<path class="st11" d="M241.8,410c0.1,0,0.2,0,0.3,0c0.1,0,0.2,0,0.2,0v0.4c-0.1,0-0.1,0.1-0.3,0.1c-0.1,0-0.2,0-0.3,0
				c-0.7,0-1-0.4-1-1.1v-2.1h-0.5V407l0.5-0.2l0.2-0.7h0.3v0.8h1v0.4h-1v2c0,0.2,0,0.4,0.1,0.5C241.4,409.9,241.6,410,241.8,410z"/>
			<path class="st11" d="M242.9,405.9c0-0.1,0-0.2,0.1-0.3c0.1-0.1,0.1-0.1,0.2-0.1c0.1,0,0.2,0,0.2,0.1c0.1,0.1,0.1,0.1,0.1,0.3
				c0,0.1,0,0.2-0.1,0.3c-0.1,0.1-0.1,0.1-0.2,0.1c-0.1,0-0.2,0-0.2-0.1C242.9,406.1,242.9,406,242.9,405.9z M243.5,410.4h-0.5v-3.5
				h0.5V410.4z"/>
			<path class="st11" d="M247,410.4v-2.3c0-0.3-0.1-0.5-0.2-0.6c-0.1-0.1-0.3-0.2-0.6-0.2c-0.4,0-0.6,0.1-0.8,0.3
				c-0.2,0.2-0.3,0.5-0.3,1v1.8h-0.5v-3.5h0.4l0.1,0.5h0c0.1-0.2,0.3-0.3,0.5-0.4c0.2-0.1,0.4-0.1,0.7-0.1c0.4,0,0.7,0.1,0.9,0.3
				s0.3,0.5,0.3,1v2.3H247z"/>
		</g>
	</g>
	<path class="st12" d="M276.1,285.6h-43.2c-3.3,0-6-2.7-6-6v0c0-3.3,2.7-6,6-6h43.2c3.3,0,6,2.7,6,6v0
		C282.1,282.9,279.4,285.6,276.1,285.6z"/>
	<path class="st12" d="M545,311.7H232.9c-3.3,0-6-2.7-6-6l0,0c0-3.3,2.7-6,6-6H545c3.3,0,6,2.7,6,6l0,0
		C551,309,548.3,311.7,545,311.7z"/>
	<path class="st12" d="M415.2,331.2H232.9c-3.3,0-6-2.7-6-6v0c0-3.3,2.7-6,6-6h182.3c3.3,0,6,2.7,6,6v0
		C421.2,328.5,418.5,331.2,415.2,331.2z"/>
	<path class="st12" d="M545,356.1H232.9c-3.3,0-6-2.7-6-6v0c0-3.3,2.7-6,6-6H545c3.3,0,6,2.7,6,6v0C551,353.4,548.3,356.1,545,356.1
		z"/>
	<path class="st12" d="M415.2,375.6H232.9c-3.3,0-6-2.7-6-6l0,0c0-3.3,2.7-6,6-6h182.3c3.3,0,6,2.7,6,6l0,0
		C421.2,372.9,418.5,375.6,415.2,375.6z"/>
	<g>
		<g>
			<g>
				<path class="st11" d="M283.6,223.6h-0.4v-1.9c0,0,0,0,0,0c0-0.1,0-0.1-0.1-0.2l-3.2-3.6c0,0,0,0,0,0c0,0,0,0-0.1-0.1
					c0,0,0,0,0,0c0,0,0,0-0.1,0c0,0,0,0,0,0c0,0,0,0-0.1,0h-7.7c-0.4,0-0.6,0.3-0.6,0.6v5.2h-0.4c-0.5,0-0.9,0.4-0.9,0.9v4.8
					c0,0.5,0.4,0.9,0.9,0.9h0.4v3.3c0,0.4,0.3,0.6,0.6,0.6h10.6c0.4,0,0.6-0.3,0.6-0.6v-3.3h0.4c0.5,0,0.9-0.4,0.9-0.9v-4.8
					C284.5,224,284.1,223.6,283.6,223.6z M271.9,218.4h7.4v3.3c0,0.2,0.1,0.3,0.3,0.3h2.8v1.6h-10.6V218.4z M280,227.8
					c0.2,0,0.5-0.1,0.6-0.1l0.1,0.6c-0.1,0.1-0.5,0.1-0.9,0.1c-1.2,0-1.8-0.7-1.8-1.7c0-1.2,0.8-1.8,1.9-1.8c0.4,0,0.7,0.1,0.8,0.2
					l-0.2,0.6c-0.2-0.1-0.4-0.1-0.7-0.1c-0.6,0-1.1,0.4-1.1,1.1C278.9,227.3,279.3,227.8,280,227.8z M277.8,226.6
					c0,1.1-0.7,1.8-1.7,1.8c-1,0-1.6-0.8-1.6-1.7c0-1,0.7-1.8,1.7-1.8C277.2,224.9,277.8,225.7,277.8,226.6z M271.1,228.3V225
					c0.3,0,0.7-0.1,1-0.1c0.7,0,1.1,0.1,1.4,0.4c0.4,0.3,0.6,0.7,0.6,1.3c0,0.7-0.2,1.1-0.6,1.4c-0.4,0.3-0.9,0.4-1.6,0.4
					C271.6,228.4,271.3,228.4,271.1,228.3z M282.5,233.3h-10.6v-3.1h10.6L282.5,233.3L282.5,233.3z M283.1,228.4l-0.3-0.6
					c-0.1-0.2-0.2-0.4-0.3-0.6h0c-0.1,0.2-0.2,0.4-0.3,0.6l-0.3,0.6h-0.9l1-1.7l-1-1.7h0.9l0.3,0.6c0.1,0.2,0.2,0.4,0.3,0.6h0
					c0.1-0.2,0.1-0.4,0.2-0.6l0.3-0.6h0.9l-1,1.7l1,1.8H283.1L283.1,228.4z"/>
				<path class="st11" d="M273.3,226.6c0-0.7-0.4-1.1-1.1-1.1c-0.2,0-0.3,0-0.4,0v2.2c0.1,0,0.2,0,0.3,0
					C272.8,227.8,273.3,227.4,273.3,226.6z"/>
				<path class="st11" d="M275.3,226.6c0,0.7,0.3,1.1,0.8,1.1c0.5,0,0.8-0.5,0.8-1.2c0-0.6-0.3-1.1-0.8-1.1
					C275.6,225.5,275.3,226,275.3,226.6z"/>
			</g>
		</g>
	</g>
</g>
</svg>
