<?xml version="1.0" encoding="utf-8"?>
<!-- Generator: Adobe Illustrator 16.0.0, SVG Export Plug-In . SVG Version: 6.00 Build 0)  -->
<!DOCTYPE svg PUBLIC "-//W3C//DTD SVG 1.1//EN" "http://www.w3.org/Graphics/SVG/1.1/DTD/svg11.dtd">
<svg version="1.1" id="Layer_1" xmlns="http://www.w3.org/2000/svg" xmlns:xlink="http://www.w3.org/1999/xlink" x="0px" y="0px"
	 width="618.955px" height="642.941px" viewBox="0 0 618.955 642.941" enable-background="new 0 0 618.955 642.941"
	 xml:space="preserve">
<g>
	<g>
		<defs>
			<rect id="SVGID_7_" y="-26.025" width="715.938" height="668.967"/>
		</defs>
		<clipPath id="SVGID_2_">
			<use xlink:href="#SVGID_7_"  overflow="visible"/>
		</clipPath>
		<g clip-path="url(#SVGID_2_)">
			<g>
				<path fill="#FAE0E3" d="M586.164,673.826c-111.988,132.197-472.25,75.016-603.516-36.184
					C-148.619,526.44-167.329,262.583-55.34,130.386C56.648-1.812,187.865-44.416,296.791,220.022
					C362.411,379.329,698.153,541.629,586.164,673.826z"/>
			</g>
		</g>
	</g>
	<ellipse opacity="0.04" stroke="#000000" stroke-miterlimit="10" cx="207.197" cy="585.48" rx="58.64" ry="16.51"/>
	<g opacity="0.04">
		<g>
			<path stroke="#000000" stroke-miterlimit="10" d="M209.049,484.291c2.277,7.429-13.598,17.342-35.459,22.143
				c-21.861,4.8-41.43,2.67-43.707-4.758c-2.277-7.429,13.6-17.342,35.461-22.142C187.204,474.733,206.771,476.863,209.049,484.291z
				"/>
			<path stroke="#000000" stroke-miterlimit="10" d="M145.672,529.672l23.865,60.168c0,0,28.602,8.281,54.018-13.186l-12.879-61.86"
				/>
			<path stroke="#000000" stroke-miterlimit="10" d="M129.883,501.676c0,0,3.699,22.367,8.694,26.125
				c0,0,38.416,14.51,77.353-16.986c0,0,2.504-11.609-6.881-26.523"/>
			<path stroke="#000000" stroke-miterlimit="10" d="M204.852,483.83c1.819,5.937-12.761,14.274-32.566,18.624
				c-19.807,4.349-37.338,3.063-39.157-2.875c-1.819-5.937,12.761-14.274,32.566-18.624
				C185.5,476.606,203.031,477.894,204.852,483.83z"/>
		</g>
		<g>
			<g>
				<path d="M109.955,277.19c-3.953-0.856-7.887-5.572-8.854-10.617c-0.967-5.044,1.141-9.846,4.746-10.81
					c1.777-0.476,3.84-0.08,5.725,1.112c3.619,2.289,6.32,7.626,6.186,12.225c-0.133,4.599-3.088,8.003-6.769,7.798"/>
				<g>
					<path d="M110.354,275.744c-3.759-1.115-6.451-4.628-7.504-8.317c-1.146-4.019-0.012-11.661,6.006-10.147
						c6.727,1.691,11.676,17.812,2.134,18.119c-1.926,0.063-1.935,3.063,0,3c13.567-0.438,8.532-22.738-2.503-24.238
						c-5.678-0.772-9.039,4.62-9.117,9.708c-0.095,6.289,4.035,12.944,10.188,14.769
						C111.411,279.188,112.203,276.293,110.354,275.744L110.354,275.744z"/>
				</g>
			</g>
			<g>
				<path d="M91.539,299.601c-3.954-0.856-7.887-5.573-8.854-10.617c-0.967-5.045,1.141-9.846,4.746-10.81
					c1.777-0.476,3.84-0.08,5.725,1.112c3.619,2.289,6.32,7.626,6.186,12.225c-0.133,4.599-3.089,8.003-6.769,7.798"/>
				<g>
					<path d="M91.938,298.154c-3.76-1.115-6.451-4.629-7.504-8.317c-1.146-4.02-0.012-11.662,6.006-10.148
						c6.727,1.691,11.676,17.813,2.134,18.12c-1.926,0.063-1.935,3.063,0,3c13.567-0.438,8.532-22.738-2.503-24.239
						c-5.678-0.771-9.039,4.62-9.117,9.708c-0.095,6.289,4.035,12.945,10.188,14.77C92.995,301.597,93.787,298.702,91.938,298.154
						L91.938,298.154z"/>
				</g>
			</g>
			<g>
				<path d="M58.944,262.538c-3.752-2.691-6.291-8.584-5.716-13.267c0.574-4.683,4.197-7.624,8.158-6.622
					c1.952,0.494,3.925,1.854,5.473,3.791c2.97,3.716,4.066,9.509,2.51,13.27c-1.556,3.761-5.609,5.115-9.283,3.103"/>
				<g>
					<path d="M60.006,261.478c-3.025-2.424-5.064-6.061-5.329-9.976c-0.308-4.542,2.938-9.341,7.896-6.785
						c3.578,1.844,5.634,6.107,5.959,9.985c0.392,4.65-2.601,9.164-7.689,6.815c-1.74-0.804-3.267,1.781-1.514,2.591
						c5.086,2.347,10.529,0.322,11.91-5.384c1.384-5.721-1.311-12.738-6.207-16.016c-4.619-3.093-10.431-1.687-12.57,3.619
						c-2.403,5.963,0.625,13.427,5.423,17.271C59.377,264.795,61.512,262.686,60.006,261.478L60.006,261.478z"/>
				</g>
			</g>
			<g>
				<path d="M55.053,293.62c-3.752-2.691-6.292-8.584-5.717-13.267c0.574-4.683,4.198-7.624,8.158-6.622
					c1.952,0.494,3.925,1.854,5.473,3.791c2.971,3.716,4.066,9.509,2.51,13.27c-1.555,3.761-5.608,5.115-9.283,3.104"/>
				<g>
					<path d="M56.113,292.56c-3.025-2.424-5.063-6.06-5.328-9.975c-0.309-4.543,2.938-9.342,7.895-6.786
						c3.578,1.845,5.634,6.107,5.96,9.986c0.391,4.649-2.602,9.163-7.689,6.814c-1.741-0.804-3.267,1.781-1.515,2.591
						c5.086,2.348,10.53,0.322,11.91-5.383c1.385-5.722-1.311-12.739-6.207-16.017c-4.619-3.093-10.43-1.687-12.569,3.62
						c-2.403,5.962,0.625,13.426,5.423,17.271C55.484,295.877,57.62,293.768,56.113,292.56L56.113,292.56z"/>
				</g>
			</g>
			<g>
				<path d="M57.611,334.49c-3.752-2.691-6.291-8.584-5.716-13.267s4.198-7.624,8.158-6.622c1.952,0.494,3.925,1.854,5.473,3.791
					c2.97,3.716,4.065,9.509,2.511,13.27c-1.557,3.761-5.609,5.115-9.284,3.104"/>
				<g>
					<path d="M58.672,333.43c-3.024-2.424-5.063-6.06-5.328-9.975c-0.307-4.543,2.938-9.342,7.896-6.786
						c3.577,1.844,5.634,6.107,5.96,9.985c0.391,4.65-2.602,9.164-7.689,6.815c-1.741-0.804-3.268,1.781-1.514,2.591
						c5.085,2.348,10.529,0.322,11.909-5.383c1.384-5.722-1.31-12.739-6.206-16.017c-4.62-3.093-10.432-1.687-12.57,3.619
						c-2.404,5.963,0.625,13.427,5.422,17.271C58.043,336.747,60.18,334.638,58.672,333.43L58.672,333.43z"/>
				</g>
			</g>
			<g>
				<path d="M71.041,373.138c-3.752-2.691-6.291-8.584-5.717-13.267c0.575-4.683,4.199-7.624,8.158-6.622
					c1.953,0.494,3.926,1.854,5.473,3.791c2.971,3.716,4.066,9.509,2.511,13.27s-5.608,5.115-9.284,3.104"/>
				<g>
					<path d="M72.102,372.077c-3.024-2.424-5.063-6.06-5.328-9.975c-0.308-4.543,2.938-9.342,7.895-6.786
						c3.578,1.845,5.635,6.107,5.961,9.986c0.391,4.649-2.602,9.164-7.689,6.814c-1.742-0.804-3.268,1.781-1.515,2.591
						c5.085,2.348,10.53,0.322,11.91-5.383c1.384-5.722-1.31-12.739-6.207-16.017c-4.62-3.093-10.431-1.687-12.569,3.619
						c-2.404,5.963,0.625,13.427,5.422,17.271C71.473,375.395,73.609,373.285,72.102,372.077L72.102,372.077z"/>
				</g>
			</g>
			<g>
				<path d="M88.947,362.229c-3.752-2.691-6.292-8.584-5.717-13.267c0.574-4.683,4.198-7.624,8.158-6.622
					c1.953,0.494,3.925,1.854,5.473,3.791c2.971,3.716,4.066,9.509,2.51,13.27c-1.555,3.761-5.608,5.115-9.283,3.104"/>
				<g>
					<path d="M90.008,361.169c-3.025-2.424-5.063-6.06-5.328-9.975c-0.309-4.543,2.938-9.342,7.895-6.786
						c3.578,1.844,5.634,6.107,5.96,9.986c0.391,4.649-2.602,9.164-7.689,6.814c-1.741-0.804-3.267,1.781-1.515,2.591
						c5.086,2.348,10.53,0.322,11.91-5.383c1.385-5.722-1.311-12.739-6.207-16.017c-4.619-3.093-10.43-1.687-12.569,3.619
						c-2.403,5.963,0.625,13.427,5.423,17.271C89.379,364.486,91.515,362.377,90.008,361.169L90.008,361.169z"/>
				</g>
			</g>
			<g>
				<path d="M128.777,317.041c-3.752-2.691-6.291-8.584-5.717-13.267s4.199-7.624,8.158-6.622c1.953,0.494,3.926,1.854,5.473,3.791
					c2.971,3.716,4.066,9.509,2.511,13.27s-5.608,5.115-9.284,3.104"/>
				<g>
					<path d="M129.838,315.98c-3.025-2.424-5.063-6.06-5.328-9.975c-0.309-4.543,2.938-9.342,7.895-6.786
						c3.578,1.845,5.635,6.107,5.96,9.986c0.392,4.649-2.601,9.163-7.688,6.814c-1.742-0.804-3.268,1.781-1.515,2.591
						c5.085,2.348,10.529,0.322,11.909-5.383c1.385-5.722-1.31-12.739-6.206-16.017c-4.62-3.093-10.431-1.687-12.569,3.62
						c-2.404,5.962,0.625,13.426,5.422,17.271C129.209,319.298,131.345,317.188,129.838,315.98L129.838,315.98z"/>
				</g>
			</g>
			<g>
				<path d="M153.004,338.188c-3.752-2.691-6.291-8.585-5.717-13.267c0.575-4.683,4.199-7.624,8.158-6.622
					c1.953,0.493,3.926,1.854,5.473,3.791c2.971,3.716,4.066,9.509,2.511,13.27c-1.556,3.76-5.608,5.115-9.284,3.103"/>
				<g>
					<path d="M154.064,337.127c-3.025-2.424-5.063-6.061-5.328-9.976c-0.308-4.542,2.938-9.341,7.895-6.786
						c3.578,1.845,5.635,6.108,5.961,9.986c0.391,4.65-2.602,9.164-7.689,6.815c-1.742-0.804-3.268,1.781-1.515,2.59
						c5.085,2.348,10.53,0.323,11.909-5.383c1.385-5.721-1.31-12.738-6.206-16.017c-4.62-3.092-10.431-1.687-12.569,3.62
						c-2.404,5.963,0.625,13.426,5.422,17.271C153.436,340.444,155.572,338.334,154.064,337.127L154.064,337.127z"/>
				</g>
			</g>
			<g>
				<path d="M164.935,387.56c-3.752-2.691-6.292-8.584-5.717-13.267s4.198-7.624,8.158-6.622c1.952,0.494,3.925,1.854,5.474,3.791
					c2.97,3.716,4.065,9.509,2.51,13.27s-5.609,5.115-9.283,3.103"/>
				<g>
					<path d="M165.995,386.499c-3.024-2.424-5.063-6.06-5.328-9.976c-0.308-4.542,2.938-9.341,7.895-6.785
						c3.578,1.844,5.634,6.107,5.96,9.986c0.391,4.649-2.602,9.163-7.689,6.814c-1.74-0.804-3.267,1.781-1.514,2.591
						c5.085,2.348,10.529,0.322,11.91-5.384c1.384-5.721-1.311-12.738-6.207-16.016c-4.619-3.093-10.431-1.687-12.57,3.619
						c-2.403,5.963,0.625,13.427,5.423,17.271C165.366,389.816,167.502,387.707,165.995,386.499L165.995,386.499z"/>
				</g>
			</g>
			<g>
				<path d="M201.977,400.606c-3.752-2.691-6.291-8.584-5.717-13.267s4.199-7.624,8.158-6.622c1.953,0.494,3.926,1.854,5.473,3.791
					c2.971,3.716,4.066,9.509,2.51,13.27c-1.555,3.761-5.607,5.115-9.283,3.104"/>
				<g>
					<path d="M203.037,399.546c-3.025-2.424-5.063-6.06-5.328-9.976c-0.309-4.542,2.938-9.341,7.895-6.785
						c3.578,1.844,5.635,6.107,5.96,9.986c0.392,4.649-2.601,9.163-7.689,6.814c-1.741-0.804-3.267,1.781-1.514,2.591
						c5.085,2.348,10.529,0.322,11.909-5.383c1.385-5.722-1.31-12.739-6.206-16.017c-4.62-3.093-10.431-1.687-12.569,3.619
						c-2.404,5.963,0.624,13.427,5.422,17.271C202.408,402.863,204.544,400.754,203.037,399.546L203.037,399.546z"/>
				</g>
			</g>
			<g>
				<path d="M173.554,413.852c-3.753-2.692-6.292-8.585-5.717-13.268c0.575-4.682,4.198-7.623,8.158-6.622
					c1.952,0.494,3.925,1.854,5.474,3.791c2.97,3.716,4.065,9.509,2.51,13.27s-5.609,5.115-9.284,3.104"/>
				<g>
					<path d="M174.614,412.791c-3.024-2.425-5.063-6.061-5.329-9.976c-0.307-4.543,2.938-9.342,7.896-6.786
						c3.578,1.845,5.634,6.107,5.96,9.986c0.391,4.649-2.602,9.164-7.689,6.814c-1.74-0.804-3.267,1.781-1.514,2.591
						c5.085,2.348,10.529,0.322,11.91-5.383c1.384-5.722-1.311-12.739-6.207-16.017c-4.619-3.093-10.431-1.687-12.57,3.62
						c-2.404,5.963,0.625,13.426,5.423,17.271C173.985,416.107,176.121,413.998,174.614,412.791L174.614,412.791z"/>
				</g>
			</g>
			<g>
				<path d="M165.275,443.91c-3.752-2.691-6.291-8.585-5.717-13.267c0.575-4.683,4.199-7.624,8.158-6.623
					c1.953,0.494,3.926,1.854,5.473,3.791c2.971,3.717,4.066,9.51,2.511,13.27c-1.556,3.761-5.608,5.116-9.284,3.104"/>
				<g>
					<path d="M166.336,442.85c-3.024-2.424-5.063-6.061-5.328-9.976c-0.308-4.542,2.938-9.342,7.895-6.786
						c3.578,1.845,5.635,6.108,5.961,9.986c0.391,4.65-2.602,9.164-7.689,6.815c-1.742-0.804-3.268,1.781-1.515,2.59
						c5.085,2.348,10.53,0.323,11.91-5.383c1.384-5.721-1.31-12.738-6.207-16.017c-4.62-3.092-10.431-1.687-12.569,3.62
						c-2.404,5.963,0.625,13.426,5.422,17.271C165.707,446.167,167.844,444.057,166.336,442.85L166.336,442.85z"/>
				</g>
			</g>
			<g>
				<path d="M209.295,450.13c-3.752-2.692-6.291-8.585-5.717-13.268c0.574-4.682,4.199-7.624,8.158-6.622
					c1.953,0.494,3.926,1.854,5.473,3.791c2.971,3.716,4.066,9.509,2.511,13.27s-5.608,5.115-9.284,3.104"/>
				<g>
					<path d="M210.355,449.069c-3.025-2.425-5.063-6.061-5.328-9.976c-0.309-4.543,2.938-9.342,7.895-6.786
						c3.578,1.845,5.635,6.108,5.961,9.986c0.391,4.649-2.602,9.164-7.689,6.815c-1.742-0.805-3.268,1.781-1.515,2.59
						c5.085,2.348,10.529,0.322,11.909-5.383c1.385-5.722-1.31-12.739-6.206-16.017c-4.62-3.093-10.431-1.687-12.569,3.62
						c-2.404,5.963,0.624,13.426,5.422,17.271C209.727,452.386,211.863,450.276,210.355,449.069L210.355,449.069z"/>
				</g>
			</g>
			<g>
				<path d="M147.426,390.643c-3.752-2.691-6.291-8.584-5.717-13.267c0.575-4.683,4.199-7.624,8.158-6.622
					c1.953,0.494,3.926,1.854,5.474,3.791c2.97,3.716,4.065,9.509,2.51,13.27s-5.608,5.115-9.284,3.103"/>
				<g>
					<path d="M148.486,389.582c-3.024-2.424-5.063-6.061-5.328-9.976c-0.308-4.542,2.938-9.341,7.895-6.785
						c3.578,1.844,5.635,6.107,5.961,9.985c0.391,4.65-2.602,9.164-7.689,6.815c-1.742-0.804-3.268,1.781-1.515,2.591
						c5.085,2.348,10.53,0.322,11.91-5.383c1.384-5.722-1.31-12.739-6.206-16.018c-4.621-3.092-10.432-1.686-12.57,3.62
						c-2.404,5.963,0.625,13.427,5.422,17.271C147.857,392.899,149.994,390.79,148.486,389.582L148.486,389.582z"/>
				</g>
			</g>
			<g>
				<path d="M115.428,432.088c-3.752-2.691-6.292-8.584-5.717-13.267c0.574-4.683,4.198-7.624,8.158-6.622
					c1.953,0.494,3.925,1.854,5.473,3.791c2.971,3.716,4.066,9.509,2.51,13.27c-1.555,3.761-5.608,5.115-9.283,3.103"/>
				<g>
					<path d="M116.488,431.027c-3.025-2.424-5.063-6.061-5.328-9.976c-0.309-4.542,2.938-9.341,7.895-6.785
						c3.578,1.844,5.635,6.107,5.96,9.985c0.392,4.65-2.601,9.164-7.689,6.815c-1.741-0.804-3.267,1.781-1.515,2.591
						c5.086,2.348,10.53,0.322,11.91-5.384c1.385-5.721-1.31-12.738-6.207-16.017c-4.619-3.092-10.43-1.686-12.569,3.62
						c-2.403,5.963,0.625,13.427,5.423,17.271C115.859,434.345,117.995,432.235,116.488,431.027L116.488,431.027z"/>
				</g>
			</g>
			<g>
				<path d="M77.999,447.367c-3.753-2.691-6.292-8.585-5.717-13.267c0.575-4.683,4.198-7.624,8.158-6.622
					c1.952,0.493,3.925,1.854,5.474,3.791c2.969,3.716,4.065,9.509,2.51,13.27c-1.557,3.76-5.609,5.115-9.284,3.103"/>
				<g>
					<path d="M79.06,446.307c-3.024-2.424-5.063-6.061-5.329-9.976c-0.307-4.542,2.938-9.341,7.896-6.786
						c3.578,1.845,5.634,6.108,5.96,9.986c0.391,4.65-2.602,9.164-7.689,6.815c-1.741-0.804-3.267,1.781-1.514,2.591
						c5.085,2.347,10.529,0.322,11.91-5.384c1.383-5.721-1.311-12.738-6.207-16.017c-4.62-3.092-10.431-1.687-12.57,3.62
						c-2.404,5.963,0.625,13.426,5.422,17.271C78.431,449.624,80.566,447.515,79.06,446.307L79.06,446.307z"/>
				</g>
			</g>
			<g>
				<path d="M96.63,467.987c-3.752-2.692-6.292-8.585-5.717-13.268c0.575-4.682,4.198-7.624,8.158-6.622
					c1.952,0.494,3.925,1.854,5.474,3.791c2.97,3.716,4.065,9.509,2.51,13.27s-5.609,5.115-9.284,3.104"/>
				<g>
					<path d="M97.69,466.926c-3.024-2.424-5.063-6.06-5.328-9.975c-0.308-4.543,2.938-9.342,7.895-6.786
						c3.578,1.845,5.634,6.108,5.96,9.986c0.391,4.649-2.602,9.164-7.689,6.815c-1.74-0.805-3.267,1.781-1.514,2.59
						c5.085,2.348,10.529,0.322,11.91-5.383c1.384-5.722-1.311-12.739-6.207-16.017c-4.619-3.093-10.431-1.687-12.57,3.62
						c-2.404,5.963,0.625,13.426,5.423,17.271C97.062,470.243,99.197,468.134,97.69,466.926L97.69,466.926z"/>
				</g>
			</g>
			<g>
				<g>
					<path d="M57.041,285.781c47.338,38.066,73.408,97.182,93.078,153.064c6.182,17.559,11.846,35.293,17.506,53.024
						c0.584,1.832,3.482,1.049,2.893-0.798c-19.154-60.007-38.793-122.104-77.797-172.641
						c-9.877-12.797-20.947-24.631-33.559-34.771C57.672,282.461,55.536,284.571,57.041,285.781L57.041,285.781z"/>
				</g>
			</g>
			<g>
				<g>
					<path d="M113.059,347.2c1.074-14.813,2.399-29.631,3.17-44.462c0.662-12.768-0.108-25.456-5.684-37.153
						c-0.83-1.742-3.417-0.222-2.59,1.514c5.824,12.22,5.93,25.679,5.078,38.922c-0.882,13.733-1.98,27.455-2.975,41.18
						C109.918,349.127,112.919,349.118,113.059,347.2L113.059,347.2z"/>
				</g>
			</g>
			<g>
				<g>
					<path d="M139.455,404.174c-12.039-5.827-25.461-6.389-37.863-11.038c-13.323-4.994-23.93-15.802-27.102-29.861
						c-0.425-1.883-3.318-1.086-2.893,0.798c2.784,12.344,11.26,22.966,22.387,28.909c13.762,7.351,29.975,7.015,43.957,13.783
						C139.672,407.603,141.194,405.017,139.455,404.174L139.455,404.174z"/>
				</g>
			</g>
			<g>
				<g>
					<path d="M109.992,395.223c-13.093-9.352-15.352-27.522-17.096-42.249c-0.225-1.894-3.227-1.916-3,0
						c1.891,15.973,4.455,34.749,18.582,44.84C110.053,398.938,111.552,396.337,109.992,395.223L109.992,395.223z"/>
				</g>
			</g>
			<g>
				<g>
					<path d="M128.01,376.437c-0.672-12.519,3.656-23.795,6.441-35.774c2.502-10.757,2.957-21.751-0.832-32.259
						c-0.65-1.802-3.551-1.024-2.893,0.798c8.331,23.1-6.958,44.132-5.717,67.235C125.113,378.356,128.114,378.369,128.01,376.437
						L128.01,376.437z"/>
				</g>
			</g>
			<g>
				<g>
					<path d="M131.515,348.57c11.834-0.622,20.815-8.223,25.364-18.909c0.747-1.757-1.836-3.287-2.591-1.515
						c-4.112,9.662-11.949,16.854-22.773,17.424C129.594,345.672,129.582,348.672,131.515,348.57L131.515,348.57z"/>
				</g>
			</g>
			<g>
				<g>
					<path d="M114.012,307.813c-9.592-3.492-16.863-11.124-21.967-19.757c-0.982-1.661-3.576-0.153-2.59,1.514
						c5.526,9.351,13.404,17.366,23.759,21.136C115.031,311.367,115.814,308.469,114.012,307.813L114.012,307.813z"/>
				</g>
			</g>
			<g>
				<g>
					<path d="M157.429,451.001c-4.534-13.45-5.245-28.202,1.304-41.113c5.349-10.543,10.911-19.611,8.859-31.926
						c-0.317-1.9-3.209-1.095-2.894,0.798c2.454,14.726-7.876,24.446-11.839,37.565c-3.492,11.563-2.13,24.181,1.676,35.474
						C155.149,453.619,158.048,452.838,157.429,451.001L157.429,451.001z"/>
				</g>
			</g>
			<g>
				<g>
					<path d="M163.758,397.904c-7.26-2.223-11.755-9.849-13.115-16.92c-0.365-1.894-3.258-1.092-2.894,0.798
						c1.566,8.14,6.96,16.488,15.212,19.015C164.811,401.363,165.602,398.469,163.758,397.904L163.758,397.904z"/>
				</g>
			</g>
			<g>
				<g>
					<path d="M157.008,412.979c7.107-0.592,13.663-2.81,19.577-6.814c1.59-1.077,0.091-3.677-1.515-2.591
						c-5.473,3.706-11.469,5.856-18.063,6.405C155.098,410.139,155.08,413.14,157.008,412.979L157.008,412.979z"/>
				</g>
			</g>
			<g>
				<g>
					<path d="M95.685,326.389c-9.95,9.349-24.001,6.318-33.896-1.452c-1.502-1.18-3.639,0.93-2.121,2.121
						c11.219,8.811,26.914,11.997,38.139,1.452C99.217,327.185,97.092,325.066,95.685,326.389L95.685,326.389z"/>
				</g>
			</g>
			<g>
				<g>
					<path d="M85.613,309.825c-8.865-16.941-2.359-46.648-22.128-56.85c-1.714-0.884-3.232,1.704-1.515,2.591
						c9.889,5.103,12.57,17.782,14.063,27.829c1.43,9.625,2.408,19.188,6.99,27.944C83.919,313.051,86.51,311.536,85.613,309.825
						L85.613,309.825z"/>
				</g>
			</g>
			<g>
				<g>
					<path d="M164.758,495.304c-16.146-30.312-46.147-59.885-82.942-58.34c-1.923,0.081-1.934,3.081,0,3
						c35.764-1.502,64.69,27.452,80.352,56.854C163.075,498.522,165.666,497.009,164.758,495.304L164.758,495.304z"/>
				</g>
			</g>
			<g>
				<g>
					<path d="M141.197,463.063c-10.563-11.378-17.705-25.401-21.331-40.46c-0.452-1.876-3.346-1.082-2.894,0.798
						c3.746,15.555,11.197,30.035,22.104,41.784C140.393,466.603,142.51,464.477,141.197,463.063L141.197,463.063z"/>
				</g>
			</g>
			<g>
				<g>
					<path d="M118.879,448.632c-5.651,4.659-12.252,7.325-19.555,7.909c-1.912,0.152-1.928,3.154,0,3
						c8.146-0.651,15.37-3.589,21.676-8.788C122.491,449.523,120.358,447.412,118.879,448.632L118.879,448.632z"/>
				</g>
			</g>
			<g>
				<g>
					<path d="M181.264,489.697c-3.306-9.665-4.623-20.065-2.667-30.167c1.927-9.953,7.421-16.561,14.749-23.179
						c5.982-5.403,10.598-11.221,12.799-19.09c2.408-8.615,2.051-17.683,0.144-26.351c-0.415-1.885-3.308-1.087-2.894,0.798
						c2.21,10.04,2.286,21.224-2.343,30.646c-4.142,8.431-12.478,13.02-18.175,20.177c-10.549,13.25-9.705,32.761-4.506,47.963
						C178.992,492.312,181.891,491.531,181.264,489.697L181.264,489.697z"/>
				</g>
			</g>
			<g>
				<g>
					<path d="M184.768,444.408c8.901-4.722,19.396,4.728,27.871-2.53c1.47-1.258-0.66-3.371-2.121-2.121
						c-7.36,6.303-18.736-2.463-27.265,2.061C181.547,442.723,183.061,445.313,184.768,444.408L184.768,444.408z"/>
				</g>
			</g>
			<g>
				<g>
					<path d="M176.97,461.714c-4.483-8.506-7.124-17.613-7.582-27.229c-0.091-1.922-3.093-1.934-3,0
						c0.482,10.129,3.27,19.786,7.991,28.743C175.279,464.937,177.87,463.422,176.97,461.714L176.97,461.714z"/>
				</g>
			</g>
		</g>
	</g>
	<g>
		<ellipse fill="#E7061F" cx="218.106" cy="478.215" rx="65.208" ry="16.266"/>
		<path fill="#930C20" d="M164.02,513.866l8.367,74.114c0,0,40.228,16.5,89.613-1.5l9.393-73.299"/>
		<path fill="#E7061F" d="M152.898,478.215c0,0-4.875,26.266,1.057,31.766c0,0,52.429,26,127.43,0c0,0,9.357-12.531,1.93-31.766"/>
		<ellipse fill="#930C20" cx="217.976" cy="476.646" rx="59.077" ry="13"/>
	</g>
	<g>
		<g>
			<path fill="#F1A1AA" d="M228.358,218.893c-5.697-1.955-9.536-8.277-8.642-14.233s6.42-10.873,12.44-11.068
				c2.969-0.096,5.964,0.865,8.311,2.686c4.503,3.494,6.146,10.213,3.763,15.391s-8.555,8.3-14.138,7.152"/>
		</g>
		<g>
			<path fill="#F1A1AA" d="M189.33,239.702c-5.697-1.954-9.535-8.276-8.642-14.232c0.895-5.957,6.421-10.873,12.44-11.068
				c2.969-0.097,5.964,0.864,8.311,2.686c4.503,3.493,6.146,10.213,3.763,15.391c-2.383,5.177-8.555,8.3-14.138,7.151"/>
		</g>
		<g>
			<path fill="#F1A1AA" d="M156.558,189.598c-4.518-3.984-5.648-11.293-2.546-16.455c3.103-5.163,10.088-7.595,15.726-5.475
				c2.78,1.046,5.181,3.078,6.653,5.658c2.826,4.949,1.777,11.786-2.404,15.66c-4.181,3.874-11.077,4.4-15.798,1.206"/>
		</g>
		<g>
			<path fill="#F1A1AA" d="M135.844,223.849c-4.519-3.983-5.649-11.293-2.547-16.456c3.103-5.162,10.088-7.594,15.726-5.474
				c2.78,1.046,5.181,3.078,6.653,5.658c2.826,4.949,1.777,11.786-2.404,15.66c-4.18,3.874-11.077,4.4-15.798,1.206"/>
		</g>
		<g>
			<path fill="#F1A1AA" d="M120.455,270.795c-4.518-3.983-5.648-11.293-2.546-16.455c3.103-5.163,10.088-7.594,15.726-5.474
				c2.779,1.046,5.181,3.078,6.653,5.657c2.826,4.949,1.776,11.786-2.404,15.66s-11.077,4.4-15.798,1.206"/>
		</g>
		<g>
			<path fill="#F1A1AA" d="M122.896,317.928c-4.518-3.983-5.648-11.292-2.547-16.455c3.104-5.162,10.088-7.594,15.727-5.474
				c2.779,1.046,5.18,3.078,6.653,5.657c2.825,4.95,1.776,11.787-2.404,15.66c-4.181,3.874-11.077,4.4-15.798,1.207"/>
		</g>
		<g>
			<path fill="#F1A1AA" d="M155.695,310.023c-4.519-3.983-5.649-11.293-2.547-16.455c3.104-5.163,10.088-7.595,15.726-5.475
				c2.78,1.046,5.181,3.078,6.653,5.658c2.826,4.949,1.777,11.786-2.404,15.66c-4.18,3.874-11.077,4.4-15.797,1.206"/>
		</g>
		<g>
			<path fill="#F1A1AA" d="M238.554,268.73c-4.518-3.983-5.648-11.293-2.546-16.455c3.103-5.163,10.088-7.594,15.726-5.474
				c2.78,1.045,5.181,3.077,6.653,5.657c2.826,4.949,1.776,11.786-2.404,15.66s-11.077,4.4-15.798,1.206"/>
		</g>
		<g>
			<path fill="#F1A1AA" d="M265.941,298.719c-4.518-3.983-5.648-11.293-2.546-16.455s10.088-7.594,15.726-5.474
				c2.78,1.046,5.181,3.078,6.653,5.657c2.826,4.949,1.776,11.786-2.403,15.66c-4.182,3.874-11.078,4.4-15.799,1.206"/>
		</g>
		<g>
			<path fill="#F1A1AA" d="M260.995,357.631c-4.519-3.983-5.649-11.292-2.546-16.455c3.103-5.162,10.088-7.594,15.725-5.474
				c2.781,1.046,5.182,3.078,6.654,5.657c2.826,4.95,1.776,11.787-2.404,15.661s-11.078,4.4-15.798,1.206"/>
		</g>
		<g>
			<path fill="#F1A1AA" d="M311.995,381.631c-4.519-3.983-5.649-11.292-2.546-16.455c3.103-5.162,10.088-7.594,15.725-5.474
				c2.781,1.046,5.182,3.078,6.654,5.657c2.826,4.95,1.776,11.787-2.404,15.661s-11.078,4.4-15.798,1.206"/>
		</g>
		<g>
			<path fill="#F1A1AA" d="M261.857,389.566c-4.518-3.983-5.648-11.292-2.545-16.455c3.102-5.162,10.088-7.594,15.725-5.474
				c2.78,1.046,5.182,3.078,6.654,5.657c2.826,4.95,1.775,11.787-2.404,15.66c-4.182,3.874-11.078,4.401-15.799,1.207"/>
		</g>
		<g>
			<path fill="#F1A1AA" d="M234.857,421.566c-4.518-3.983-5.648-11.292-2.545-16.455c3.102-5.162,10.088-7.594,15.725-5.474
				c2.78,1.046,5.182,3.078,6.654,5.657c2.826,4.95,1.775,11.787-2.404,15.66c-4.182,3.874-11.078,4.401-15.799,1.207"/>
		</g>
		<g>
			<path fill="#F1A1AA" d="M299.857,439.566c-4.518-3.983-5.648-11.292-2.545-16.455c3.102-5.162,10.088-7.594,15.725-5.474
				c2.78,1.046,5.182,3.078,6.654,5.657c2.826,4.95,1.775,11.787-2.404,15.66c-4.182,3.874-11.078,4.401-15.799,1.207"/>
		</g>
		<g>
			<path fill="#F1A1AA" d="M232.512,356.769c-4.518-3.983-5.648-11.293-2.546-16.455c3.103-5.163,10.088-7.595,15.726-5.474
				c2.78,1.045,5.182,3.077,6.654,5.657c2.825,4.949,1.775,11.786-2.404,15.66c-4.182,3.874-11.078,4.4-15.799,1.206"/>
		</g>
		<g>
			<path fill="#F1A1AA" d="M163.512,395.769c-4.518-3.983-5.648-11.293-2.545-16.455c3.102-5.163,10.087-7.595,15.725-5.474
				c2.78,1.045,5.182,3.077,6.654,5.657c2.825,4.949,1.775,11.786-2.404,15.66c-4.182,3.874-11.078,4.4-15.799,1.206"/>
		</g>
		<g>
			<path fill="#F1A1AA" d="M98.512,403.769c-4.518-3.983-5.648-11.293-2.545-16.455c3.102-5.163,10.087-7.595,15.725-5.474
				c2.78,1.045,5.182,3.077,6.654,5.657c2.826,4.949,1.775,11.786-2.404,15.66c-4.182,3.874-11.078,4.4-15.799,1.206"/>
		</g>
		<g>
			<path fill="#F1A1AA" d="M117.512,431.769c-4.518-3.983-5.648-11.293-2.545-16.455c3.102-5.163,10.087-7.595,15.725-5.474
				c2.78,1.045,5.182,3.077,6.654,5.657c2.826,4.949,1.775,11.786-2.404,15.66c-4.182,3.874-11.078,4.4-15.799,1.206"/>
		</g>
		<g>
			<g>
				<path fill="#E7061F" d="M143.701,215.583c51.322,51.093,66.838,125.051,70.99,194.808c1.308,21.979,1.666,44.001,2.02,66.013
					c0.031,1.928,3.031,1.935,3,0c-1.187-73.825-2.914-151.479-39.834-217.661c-9.245-16.571-20.601-31.886-34.055-45.28
					C144.452,212.099,142.33,214.219,143.701,215.583L143.701,215.583z"/>
			</g>
		</g>
		<g>
			<g>
				<path fill="#E7061F" d="M199.002,299.376c8.53-16.258,17.365-32.394,25.551-48.827c6.911-13.874,12.627-28.854,9.298-44.523
					c-0.401-1.888-3.294-1.089-2.893,0.797c3.548,16.702-3.978,32.643-11.505,47.121c-7.626,14.668-15.361,29.28-23.042,43.919
					C195.516,299.57,198.104,301.088,199.002,299.376L199.002,299.376z"/>
			</g>
		</g>
		<g>
			<g>
				<path fill="#E7061F" d="M212.782,370.102c-15.788-9.709-34.197-13.013-50.854-20.771c-16.354-7.617-32.144-21.92-29.963-41.629
					c0.212-1.916-2.79-1.9-3,0c-1.985,17.95,10.639,32.826,25.433,41.148c18.033,10.145,39.178,12.962,56.869,23.843
					C212.918,373.706,214.426,371.112,212.782,370.102L212.782,370.102z"/>
			</g>
		</g>
		<g>
			<g>
				<path fill="#E7061F" d="M171.846,352.862c-15.428-13.329-10.863-35.041-6.545-52.319c0.469-1.873-2.424-2.672-2.893-0.797
					c-4.578,18.315-8.948,41.187,7.316,55.238C171.18,356.24,173.311,354.127,171.846,352.862L171.846,352.862z"/>
			</g>
		</g>
		<g>
			<g>
				<path fill="#E7061F" d="M208.397,335.865c9.096-27.375,43.203-43.962,40.796-75.626c-0.146-1.913-3.146-1.929-3,0
					c2.345,30.846-31.726,47.853-40.688,74.829C204.895,336.904,207.791,337.691,208.397,335.865L208.397,335.865z"/>
			</g>
		</g>
		<g>
			<g>
				<path fill="#E7061F" d="M228.57,304.938c17.081,2.146,34.141-3.408,46.806-15.035c1.425-1.309-0.7-3.426-2.121-2.121
					c-12.124,11.13-28.378,16.205-44.685,14.156C226.66,301.697,226.678,304.699,228.57,304.938L228.57,304.938z"/>
			</g>
		</g>
		<g>
			<g>
				<path fill="#E7061F" d="M219.587,254.844c-11.807-5.643-20.717-15.55-24.925-27.96c-0.616-1.818-3.515-1.038-2.893,0.798
					c4.447,13.117,13.788,23.771,26.303,29.752C219.807,258.263,221.33,255.677,219.587,254.844L219.587,254.844z"/>
			</g>
		</g>
		<g>
			<g>
				<path fill="#E7061F" d="M218.47,427.741c-0.78-17.939,6.97-34.278,20.75-45.626c11.71-9.643,26.667-17.883,29.442-34.208
					c0.322-1.888-2.568-2.699-2.893-0.797c-3.21,18.877-23.148,26.107-34.996,38.703c-10.584,11.252-15.973,26.556-15.304,41.928
					C215.554,429.664,218.555,429.675,218.47,427.741L218.47,427.741z"/>
			</g>
		</g>
		<g>
			<g>
				<path fill="#E7061F" d="M253.741,369.304c-8.702-3.69-14.095-12.735-12.671-22.188c0.285-1.889-2.605-2.704-2.893-0.798
					c-1.611,10.696,3.996,21.312,14.05,25.576C253.984,372.64,255.516,370.056,253.741,369.304L253.741,369.304z"/>
			</g>
		</g>
		<g>
			<g>
				<path fill="#E7061F" d="M237.441,384.263c11.016,1.09,21.92,0.119,32.576-2.86c1.856-0.52,1.067-3.415-0.798-2.894
					c-10.407,2.911-21.029,3.817-31.778,2.754C235.521,381.072,235.535,384.073,237.441,384.263L237.441,384.263z"/>
			</g>
		</g>
		<g>
			<g>
				<path fill="#E7061F" d="M183.79,271.106c-18.093,7.602-39.461,3.597-53.446-10.221c-1.374-1.358-3.496,0.762-2.121,2.121
					c14.672,14.497,37.318,18.995,56.365,10.992C186.341,273.263,185.57,270.358,183.79,271.106L183.79,271.106z"/>
			</g>
		</g>
		<g>
			<g>
				<path fill="#E7061F" d="M174.436,249.951c-5.813-21.514,17.318-54.67-7.369-70.075c-1.643-1.025-3.15,1.569-1.514,2.59
					c11.996,7.487,10.953,22.913,8.395,34.946c-2.352,11.065-5.447,22.078-2.404,33.337
					C172.046,252.61,174.94,251.82,174.436,249.951L174.436,249.951z"/>
			</g>
		</g>
		<g>
			<g>
				<path fill="#E7061F" d="M208.83,479.809c-12.732-46.466-52.453-80.689-100.214-86.679c-1.911-0.24-1.894,2.763,0,3
					c46.413,5.82,84.974,39.415,97.321,84.477C206.446,482.466,209.342,481.677,208.83,479.809L208.83,479.809z"/>
			</g>
		</g>
		<g>
			<g>
				<path fill="#E7061F" d="M187.787,437.459c-10.601-15.005-15.451-32.94-13.857-51.242c0.168-1.923-2.833-1.912-3,0
					c-1.633,18.748,3.408,37.386,14.268,52.756C186.303,440.537,188.904,439.04,187.787,437.459L187.787,437.459z"/>
			</g>
		</g>
		<g>
			<g>
				<path fill="#E7061F" d="M161.748,415.392c-11.43,4.079-23.303,5.51-35.371,4.277c-1.92-0.196-1.906,2.805,0,3
					c12.318,1.258,24.508-0.223,36.169-4.384C164.352,417.641,163.573,414.741,161.748,415.392L161.748,415.392z"/>
			</g>
		</g>
		<g>
			<g>
				<path fill="#E7061F" d="M236.949,477.519c-0.628-12.593,3.061-24.98,10.48-35.192c8.414-11.582,20.279-17.146,33.252-22.225
					c10.846-4.247,21.071-9.165,28.782-18.18c7.302-8.537,11.661-18.97,12.853-30.111c0.205-1.918-2.797-1.903-3,0
					c-1.402,13.117-7.809,25.393-17.928,33.903c-10.369,8.723-23.867,11.567-35.766,17.493
					c-20.246,10.082-32.8,31.744-31.674,54.312C234.045,479.44,237.046,479.451,236.949,477.519L236.949,477.519z"/>
			</g>
		</g>
		<g>
			<g>
				<path fill="#E7061F" d="M264.551,426.771c14.984-3.187,28.663,10.059,43.637,4.259c1.781-0.69,1.008-3.592-0.797-2.894
					c-14.623,5.664-28.643-7.447-43.638-4.259C261.865,424.279,262.664,427.172,264.551,426.771L264.551,426.771z"/>
			</g>
		</g>
		<g>
			<g>
				<path fill="#E7061F" d="M243.572,444.786c-2.979-10.972-2.541-22.132,1.225-32.852c0.641-1.825-2.257-2.609-2.894-0.797
					c-3.938,11.208-4.335,22.985-1.224,34.446C241.185,447.445,244.08,446.655,243.572,444.786L243.572,444.786z"/>
			</g>
		</g>
	</g>
</g>
</svg>
