<?xml version="1.0" encoding="utf-8"?>
<!-- Generator: Adobe Illustrator 21.0.0, SVG Export Plug-In . SVG Version: 6.00 Build 0)  -->
<svg version="1.1" id="Layer_1" xmlns="http://www.w3.org/2000/svg" xmlns:xlink="http://www.w3.org/1999/xlink" x="0px" y="0px"
	 viewBox="0 0 42.3 42.3" style="enable-background:new 0 0 42.3 42.3;" xml:space="preserve">
<style type="text/css">
	.st0{fill:#57BE97;}
	.st1{enable-background:new    ;}
	.st2{fill:#F2F5F9;}
</style>
<g>
	<circle class="st0" cx="21.1" cy="21.1" r="19.6"/>
	<g class="st1">
		<path class="st2" d="M31.2,16.8c0,2.2-0.5,4.3-1.6,6.4c-1.1,2.2-2.6,3.9-4.6,5.2c-2.2,1.4-4.6,2.2-7.4,2.2c-2.7,0-5.1-0.7-7.3-2.2
			c0.3,0,0.7,0,1.1,0c2.2,0,4.2-0.7,6-2.1c-1.1,0-2-0.3-2.8-0.9C13.8,24.8,13.3,24,13,23c0.3,0,0.6,0,0.9,0c0.4,0,0.8,0,1.3-0.1
			c-1.1-0.2-2-0.8-2.7-1.7c-0.7-0.9-1.1-1.9-1.1-3v-0.1c0.7,0.4,1.4,0.6,2.1,0.6c-0.6-0.5-1.2-1-1.5-1.7s-0.6-1.5-0.6-2.3
			s0.2-1.6,0.7-2.4c1.2,1.5,2.6,2.7,4.3,3.6s3.5,1.4,5.5,1.5c-0.1-0.4-0.1-0.7-0.1-1.1c0-0.9,0.2-1.7,0.6-2.4c0.4-0.8,1-1.3,1.7-1.8
			c0.7-0.4,1.5-0.6,2.4-0.6c0.7,0,1.3,0.1,1.9,0.4c0.6,0.3,1.1,0.6,1.6,1.1c1.1-0.2,2.1-0.6,3-1.1c-0.4,1.1-1.1,2-2.1,2.7
			c0.9-0.1,1.8-0.4,2.7-0.8c-0.7,1-1.5,1.8-2.4,2.5C31.2,16.3,31.2,16.5,31.2,16.8z"/>
	</g>
</g>
</svg>
