<?xml version="1.0" encoding="utf-8"?>
<!-- Generator: Adobe Illustrator 17.0.0, SVG Export Plug-In . SVG Version: 6.00 Build 0)  -->
<!DOCTYPE svg PUBLIC "-//W3C//DTD SVG 1.1//EN" "http://www.w3.org/Graphics/SVG/1.1/DTD/svg11.dtd">
<svg version="1.1" xmlns="http://www.w3.org/2000/svg" xmlns:xlink="http://www.w3.org/1999/xlink" x="0px" y="0px" width="35px"
	 height="36px" viewBox="0 0 35 36" enable-background="new 0 0 35 36" xml:space="preserve">
<g id="Grid">
</g>
<g id="_x32_4_Grid_Col" display="none" opacity="0.1" enable-background="new    ">
</g>
<g id="Layer_3">
</g>
<g id="Layer_4">
</g>
<g id="Layer_5">
	<path fill="#FFC352" d="M17.614,32.865c-8.468,0-15.333-6.865-15.333-15.333S9.146,2.2,17.614,2.2s15.333,6.865,15.333,15.333
		S26.082,32.865,17.614,32.865"/>
	<g>
		<g>
			<g>
				<path fill="#FFFFFF" d="M19.686,16.35c-0.587,0.3-1.248,0.474-1.947,0.496c0.618,1.901,0.251,0.774,1.29,3.969
					c1.167,0,1.872,0,3.129,0c0.884-2.721,0.74-2.276,1.078-3.317C22.32,16.98,21.095,16.563,19.686,16.35z"/>
			</g>
		</g>
		<g>
			<g>
				<path fill="#FFFFFF" d="M15.505,16.349c-1.395,0.21-2.607,0.62-3.518,1.131c0.339,1.041,0.189,0.579,1.084,3.335
					c1.115,0,1.777,0,3.129,0c1.028-3.164,0.666-2.049,1.289-3.967C16.776,16.831,16.104,16.655,15.505,16.349z"/>
			</g>
		</g>
		<g>
			<g>
				<circle fill="#FFFFFF" cx="17.596" cy="12.235" r="3.3"/>
			</g>
		</g>
		<g>
			<g>
				<path fill="#FFFFFF" d="M27.532,21.475h-3.025l-0.935-2.877l-0.935,2.877c-2.507,0-1.579,0-4.088,0l-0.935-2.877l-0.935,2.877
					c-2.507,0-1.579,0-4.088,0l-0.935-2.877l-0.935,2.877H7.696l2.447,1.778L9.209,26.13l2.447-1.778l2.447,1.778l-0.935-2.877
					l1.467-1.065l1.467,1.065l-0.935,2.877l2.447-1.778l2.447,1.778l-0.935-2.877l1.467-1.065l1.466,1.065l-0.935,2.877l2.447-1.778
					l2.447,1.778l-0.935-2.877L27.532,21.475z M23.572,23.536c-0.36,0.261-0.201,0.146-1.192,0.866
					c0.331-1.02,0.259-0.797,0.455-1.401c-0.358-0.261-0.207-0.151-1.192-0.866h0.022c0.995,0,0.827,0,1.451,0
					c0.163-0.502,0.082-0.253,0.455-1.401c0.365,1.123,0.289,0.889,0.455,1.401c0.684,0,0.292,0,1.474,0
					c-0.955,0.694-0.756,0.55-1.192,0.866c0.195,0.601,0.127,0.391,0.455,1.401C23.931,23.797,24.11,23.927,23.572,23.536z"/>
			</g>
		</g>
	</g>
</g>
</svg>
