<?xml version="1.0" encoding="utf-8"?>
<!-- Generator: Adobe Illustrator 17.0.0, SVG Export Plug-In . SVG Version: 6.00 Build 0)  -->
<!DOCTYPE svg PUBLIC "-//W3C//DTD SVG 1.1//EN" "http://www.w3.org/Graphics/SVG/1.1/DTD/svg11.dtd">
<svg version="1.1" xmlns="http://www.w3.org/2000/svg" xmlns:xlink="http://www.w3.org/1999/xlink" x="0px" y="0px" width="35px"
	 height="36px" viewBox="0 0 35 36" enable-background="new 0 0 35 36" xml:space="preserve">
<g id="Grid">
</g>
<g id="_x32_4_Grid_Col" display="none" opacity="0.1" enable-background="new    ">
</g>
<g id="Layer_3">
</g>
<g id="Layer_4">
</g>
<g id="Layer_5">
	<g>
		<circle fill="#EC374C" cx="17.718" cy="17.665" r="15.344"/>
		<g>
			<g>
				<path fill="#FFFFFF" d="M16.635,9.59H9.643v6.992l9.158,9.158l6.992-6.992L16.635,9.59z M13.108,14.292
					c-0.681,0-1.238-0.557-1.238-1.238s0.557-1.238,1.238-1.238c0.681,0,1.238,0.557,1.238,1.238S13.789,14.292,13.108,14.292z
					 M19.606,19.923c-0.433,0.371-0.866,0.557-1.299,0.557c-0.557,0-1.052-0.186-1.485-0.619l0.495-0.495
					c0.248,0.248,0.495,0.371,0.743,0.433c0.371,0.062,0.681,0,1.052-0.309l-1.485-1.485l-0.124,0.062
					c-0.433,0.248-0.743,0.433-0.99,0.495c-0.433,0.062-0.804-0.062-1.114-0.371c-0.371-0.371-0.557-0.804-0.557-1.299
					c0-0.433,0.186-0.804,0.495-1.176l-0.681-0.681l0.433-0.433l0.681,0.681c0.371-0.309,0.743-0.495,1.114-0.557
					c0.495-0.062,0.99,0.124,1.423,0.557l-0.495,0.495c-0.248-0.186-0.495-0.309-0.681-0.309c-0.309-0.062-0.557,0.062-0.866,0.248
					l1.361,1.361l0.495-0.309c0.309-0.186,0.619-0.309,0.866-0.371c0.433-0.062,0.866,0.062,1.238,0.433
					c0.433,0.433,0.619,0.928,0.495,1.423c-0.124,0.433-0.309,0.804-0.619,1.176l0.743,0.743l-0.433,0.433L19.606,19.923z"/>
			</g>
		</g>
	</g>
</g>
</svg>
