<?xml version="1.0" encoding="utf-8"?>
<!-- Generator: Adobe Illustrator 17.0.0, SVG Export Plug-In . SVG Version: 6.00 Build 0)  -->
<!DOCTYPE svg PUBLIC "-//W3C//DTD SVG 1.1//EN" "http://www.w3.org/Graphics/SVG/1.1/DTD/svg11.dtd">
<svg version="1.1" xmlns="http://www.w3.org/2000/svg" xmlns:xlink="http://www.w3.org/1999/xlink" x="0px" y="0px" width="35px"
	 height="36px" viewBox="0 0 35 36" enable-background="new 0 0 35 36" xml:space="preserve">
<g id="Grid">
</g>
<g id="_x32_4_Grid_Col" display="none" opacity="0.1" enable-background="new    ">
</g>
<g id="Layer_3">
</g>
<g id="Layer_4">
</g>
<g id="Layer_5">
	<circle fill="#184EED" cx="17.849" cy="18.038" r="15.422"/>
	<g>
		<g>
			<path fill="#FFFFFF" d="M23.519,12.521v-1.226H11.872v1.226l-1.226,4.291v0.702c0,0.639,0.379,1.209,0.919,1.493
				c0,1.892,0,5.773,0,5.773h2.452v-4.904h2.452v4.904h7.356v-5.649c0.698-0.206,1.226-0.863,1.226-1.618v-0.702L23.519,12.521z
				 M12.332,18.587c-0.505,0-1.073-0.405-1.073-1.162h2.145C13.405,18.181,12.838,18.587,12.332,18.587z M21.067,12.521l0.613,4.291
				c-1.202,0-1.263,0-2.145,0l-0.306-4.291H21.067z M21.68,17.425c0,0.751-0.563,1.162-1.073,1.162
				c-0.521,0-1.073-0.421-1.073-1.162H21.68z M15.091,18.587c-0.505,0-1.073-0.405-1.073-1.162h2.145
				C16.163,18.181,15.596,18.587,15.091,18.587z M16.163,16.812c-0.853,0-0.973,0-2.145,0l0.613-4.291h1.839L16.163,16.812z
				 M16.776,17.425h2.145c0,0.756-0.567,1.162-1.073,1.162C17.344,18.587,16.776,18.182,16.776,17.425z M22.6,23.555h-4.904v-3.678
				H22.6V23.555z M23.366,18.587c-0.521,0-1.073-0.421-1.073-1.162h2.145C24.439,18.176,23.876,18.587,23.366,18.587z"/>
		</g>
	</g>
</g>
</svg>
