<svg id="Layer_1" data-name="Layer 1" xmlns="http://www.w3.org/2000/svg" xmlns:xlink="http://www.w3.org/1999/xlink" viewBox="0 0 699 663"><defs><style>.cls-1{fill:none;}.cls-2{clip-path:url(#clip-path);}.cls-3{clip-path:url(#clip-path-2);}.cls-4{opacity:0.5;}.cls-5{fill:#9ecaec;}.cls-14,.cls-6{opacity:0.04;}.cls-14,.cls-7,.cls-8{fill:#010101;}.cls-7{stroke:#010101;stroke-miterlimit:10;stroke-width:0.55px;}.cls-9{fill:#223e98;}.cls-10{fill:#415daa;}.cls-11{fill:#5194cf;}.cls-12{fill:#3e79bd;}.cls-13{opacity:0.03;}</style><clipPath id="clip-path"><rect id="SVGID" class="cls-1" width="699" height="663"/></clipPath><clipPath id="clip-path-2"><path id="SVGID-2" data-name="SVGID" class="cls-1" d="M-246.51,3h977a5,5,0,0,1,5,5V662.17a0,0,0,0,1,0,0h-982a5,5,0,0,1-5-5V8a5,5,0,0,1,5-5Z"/></clipPath></defs><title>useracct</title><g class="cls-2"><g class="cls-3"><g class="cls-4"><path class="cls-5" d="M240.65,683.85c53.44,115,318.73,144.33,432.88,91.26S852,539.48,798.51,424.52s-137.79-170.42-265.83-4.9C455.54,519.34,187.21,568.89,240.65,683.85Z"/></g><g class="cls-6"><path class="cls-7" d="M594.39,614.59h0c-2.26,8.78,3.32,17,12.41,18.31l27.67,4c9.08,1.3,18.37-4.83,20.63-13.6h0l4.21-16.33-60.71-8.66Z"/><path class="cls-7" d="M597.74,594.63s-1.7,2.53-.24,3.47,27.1,13.1,64,9.13c.91-.1,1-.76,1.42-3.31"/><ellipse class="cls-7" cx="630.33" cy="599.28" rx="5.83" ry="32.93" transform="translate(-49.99 1141.14) rotate(-82.09)"/><ellipse class="cls-7" cx="630.54" cy="598.73" rx="4.04" ry="30.09" transform="translate(-50.11 1139.82) rotate(-82)"/><path class="cls-8" d="M621.33,578a30.54,30.54,0,0,1-1.44,11.13,7,7,0,0,1-2.23,3.79c-1.94,1.31-5.13-.24-6.38-3.1a29.08,29.08,0,0,0-1.11-2.77c-.49-.86-1.42-1.56-2.06-1.19s-.52,2,.13,3,1.55,1.57,2.26,2.46c1.55,1.94,1.82,5.05.66,6.74s-3.5,1.87-5.37.52a8.77,8.77,0,0,1-3.28-6.47c0-1.21,0-2.78-1-3.42a1,1,0,0,0-1.48.37,3.09,3.09,0,0,0-.19,2c.31,1.81,1.39,3.44,2.24,5.1s1.52,3.74.89,5.19-2.53,1.62-4.14,1.43a10.9,10.9,0,0,1-5.72-2c-1.78-1.38-3.19-4.08-2.73-6.24.22-1.06.86-1.94.7-3.12-.21-1.44-1.86-2.56-2.73-1.85-1,.85-.56,3.05.12,4.7s1.49,3.63.84,5a2,2,0,0,1-2.45.84,9.1,9.1,0,0,1-2.74-1.66l-6.08-4.71h0c.19-2.61.37-5.21.56-7.82a9.51,9.51,0,0,1,.59-3.23,2,2,0,0,1,2.22-1.34c1.4.36,2.31,2.28,3.06,3.9s2,3.44,3.36,3.18c1.09-.21,1.36-2.23.44-3.34-.75-.89-1.82-1-2.74-1.5-1.88-1.06-2.92-3.94-2.77-6.23a11.66,11.66,0,0,1,2.31-5.76c.91-1.37,2.15-2.79,3.76-2.28s2.55,2.35,3.2,4.1,1.14,3.67,2.26,5.1a2.93,2.93,0,0,0,1.58,1.15,1,1,0,0,0,1.23-.91c.15-1.15-1-2.15-1.87-3a8.86,8.86,0,0,1-2.58-6.8c.25-2.35,1.92-4.06,3.91-3.84s4.1,2.46,4.5,4.94c.18,1.14,0,2.25.31,3.38s1.25,2.33,2.07,2,.79-1.43.48-2.38a26.41,26.41,0,0,0-1.3-2.68c-1.26-2.85-.3-6.35,1.93-7a6.58,6.58,0,0,1,4.24.76,32.35,32.35,0,0,1,9.08,6.19S621.05,574.18,621.33,578Z"/><path class="cls-8" d="M620.5,578a31.78,31.78,0,0,1-.61,7.9c-.22,1-.48,2-.79,3q-5.88,5.85-7.55-.71c-1.13-1.86-1.2-2.89-3.44-3.16a.8.8,0,0,0-.71.41c-.88,1.47-.48,2.47.26,3.94.57,1.14,3.18,3,3.17,4.33L604.56,596l-1.23-3.9c-.27-1.28.17-2.88-1.06-3.83-3-2.31-3.41,2.4-2.81,4.3.43,1.39,1.63,2.6,2,4,2.11,9-7.1,4.85-9.41,1.61-1.81-2.54,1.63-7.07-1.41-9.08-4.35-2.88-3,3.76-2.87,5.38l.51,1.28-2.31,2.9s-3.5-2.49-4.22-3.2c-2.11-2.09-3.48-4.47-2.39-7.66l.14-1.95,3.74-1.5a21.09,21.09,0,0,1,1.26,2.45c.51.73,1.28,1.93,2.22,2.19,3.65,1,3.42-3.63,1.29-5.29-2.44-1.88-4.08-2.14-4.13-6,0-1.61.13-4,1.57-5.08.77-.56,4.29-.94,5.38-.14,2.21,1.63,1.07,7.1,4.7,7.86,5.35,1.12-.17-6.08-.67-6.94-2.54-4.33,4.24-3.19,5.67-.82.12.19.09.92.21,1.25.28.79.82,2,1.72,2.27,1.52.46,2.3-.35,2.5-1.83a5.22,5.22,0,0,0-.55-2.29c-1.13-3.77-2.46-3.28.68-5.86,2.71-2.22,3.35-1.45,6.07.12,4.89,2.81,8.52,6.33,9.41,12.07.17,1,1.75.6,1.59-.44a15.86,15.86,0,0,0-6.18-10.32c-2.65-2.1-8-6.26-11.76-4.86-3.54,1.31-2.8,5.31-2.23,8.11.5,2.39.38.67,0-.76a12.32,12.32,0,0,0-.54-1.86,6.58,6.58,0,0,0-4-3.7c-3-.8-5.22,1.6-5.55,4.46-.26,2.24.72,4.18,1.73,6.08.15.28.46.45.61.73-.11-.2.41,1.53.1,1.16-1-1.13-1.17-3.2-1.81-4.6-4.52-9.77-12.56,2.45-9.87,8.81.61,1.44,1.69,2,2.53,3.14.57.81.44.12.84,1.08.67,1.65-.75-.52-.78-.55-.69-1-1-2.18-1.82-3.06-1.78-1.81-3.76-1.52-5,.7s-1.55,7.91-1.1,10.29,1,2.22,3.22,3.93c2,1.52,6.41,6.32,9.08,3.51.9-.94.82-2.16.62-3.38s-1-2.21-1.16-3.36c-.2-1.5.85-.16.86-.1,0,.4-.43.83-.35,1.24.85,4.38,2,7.4,6.88,8.64,3,.77,7.16,1.06,7.59-2.91.2-1.78-.8-3.63-1.56-5.14-.36-.71-1.3-3.85-.73-2.26.31.84.31,1.76.67,2.62,1.29,3.06,5.12,6.48,8.47,4a5.25,5.25,0,0,0,1.75-4.7c0-.28-2.28-5.92-2.74-5.25s3.25,3.83,3.87,4.13a4.32,4.32,0,0,0,3.82.21c4.66-2.14,4.69-11.58,4.53-15.82C622.11,577,620.46,577,620.5,578Z"/><path class="cls-8" d="M647.22,587.55a29.69,29.69,0,0,1,8.43-4.34,5.63,5.63,0,0,1,3.47-.36c1.59.62,1.58,3.4,0,5.55-.51.69-1.15,1.31-1.6,2s-.63,1.64-.15,1.88,1.6-.61,2.06-1.48.6-1.74,1-2.61c.85-1.91,3-3.55,4.59-3.61s2.52,1.36,2.2,3.2a8.92,8.92,0,0,1-3.5,5.16c-.85.6-2,1.32-2.12,2.22a.64.64,0,0,0,.76.78,3,3,0,0,0,1.48-.82,19.32,19.32,0,0,0,2.89-3.84c.89-1.34,2.15-2.74,3.39-3s2,.86,2.43,2a7.9,7.9,0,0,1,.53,4.61,7.08,7.08,0,0,1-3.53,4.7,8.06,8.06,0,0,0-2.46,1c-1,.81-1.2,2.4-.39,2.62,1,.27,2.37-1.08,3.31-2.3s2.08-2.67,3.25-2.87a1.23,1.23,0,0,1,1.43,1.17,7.19,7.19,0,0,1-.25,2.54l-1.29,6.12h0l-5.77,3.34a9,9,0,0,1-2.5,1.15c-.81.17-1.57,0-1.72-.79-.22-1.06.85-2.56,1.74-3.81s1.76-2.93,1.13-3.65-2.06.18-2.53,1.3c-.39.9-.08,1.62-.14,2.46-.12,1.7-1.82,3.73-3.5,4.72a10.18,10.18,0,0,1-4.9,1.24c-1.29.06-2.73-.06-2.91-1.33s.81-2.74,1.84-4a19.18,19.18,0,0,0,2.86-3.86,2.48,2.48,0,0,0,.29-1.55.7.7,0,0,0-1.07-.37c-.87.45-1.19,1.67-1.49,2.62a9.14,9.14,0,0,1-4,4.86c-1.76.95-3.55.69-4.07-.69s.36-3.79,2-5.22c.75-.65,1.6-1.09,2.31-1.8s1.24-1.9.75-2.28-1.3.17-1.87.81-1,1.41-1.47,2.1c-1.6,2.16-4.43,3.2-5.65,2.07a4.31,4.31,0,0,1-.91-3.07,27.31,27.31,0,0,1,1.33-8.74A17.19,17.19,0,0,1,647.22,587.55Z"/><path class="cls-8" d="M647.64,588.26c3.06-2.15,12.5-8.76,10,.56-.4,1.51-1.8,1.89-1.14,3.71a.84.84,0,0,0,.79.6,3.16,3.16,0,0,0,2.47-1.47c.75-1,1.78-5.08,2.68-4.94l3.1,2.94a9.6,9.6,0,0,1-3.22,3.24c-1.09,1.05-2.64,2.9-.56,3.77.92.39,1.91-.42,2.57-.93.93-.73,1.32-1.86,2.13-2.66l.89-1.36q7.56-2.13,4,5c-1.32,2-8.15,3.53-5.33,7.12a.81.81,0,0,0,.8.22c2.24-.43,2.39-2.24,4.17-3.14,4.14-2.07,1.77,5.68.2,7.14a11.08,11.08,0,0,1-3.61,2.09c-.94.8-1.93.6-3-.61l.9-1.3c.25-1.76,1.59-2.28,1.22-4.29a.81.81,0,0,0-.58-.57c-4.31-1-4.62,6.59-6.81,8.56q-4.95,3.58-5.82-1.63l1.91-2.41a12.55,12.55,0,0,0,1.93-2.78c.32-.83.75-2.06,0-2.76-1.8-1.61-2.94,1-3.58,2.33a8.63,8.63,0,0,1-1.95,3.42q-7.25,1.44-3.29-2.13c.06-.06,2.54-2.6,2.76-2.92.75-1,1.28-1.72.9-3a.86.86,0,0,0-.79-.61,2.72,2.72,0,0,0-1.95.67c-2,1.38-5.72,8.26-7.12,1.24-.92-4.65,2.07-10.26,5.45-13.19.8-.69-.36-1.85-1.16-1.16a15.69,15.69,0,0,0-5.09,8c-.65,2.56-2.3,8.87.46,10.92,2.22,1.64,5.24-.46,6.65-2.2,2-2.49-1.06,0-1.76,1a6.32,6.32,0,0,0-1.51,3.9c.17,2.27,1.81,3.25,4,2.91a7.3,7.3,0,0,0,4.07-2.79,9.75,9.75,0,0,0,1.23-1.79c1.67-3.15-1,.46-1.41,1-1.22,1.66-3.27,4.37-1.12,6.2,2.32,2,7.66-.23,9.5-1.87.64-.57,3.16-3.31,2.5-4.39-.4-.65-.34-.07-.89.78a5.17,5.17,0,0,0-.8,1.74c-.37,3,1.68,3.07,4.05,2.22,3.57-1.27,7.12-3.11,7.9-6.82.41-1.95,2.46-6.83,0-8.3-1.06-.65-2-.06-2.92.52-1.08.69-3.25,3.62-.58,1.66a8.12,8.12,0,0,0,2.39-9.65c-.91-2-2-3.07-4.25-2.16-1.72.71-3.11,2.82-4,4.37-2.07,3.79,1.41-.88,1.92-1.77,1.35-2.34,1.7-6.29-1.81-6.66a4.73,4.73,0,0,0-2.87.95s-4,4.38-3.2,4.54c2.27.49,2.46-6,.41-7.17-3.45-1.88-10.19,2.92-12.72,4.7C646,587.44,646.77,588.87,647.64,588.26Z"/><path class="cls-8" d="M659.56,549.15a33.89,33.89,0,0,1,9.88-5.51,7,7,0,0,1,4.28-.57c2.08.66,2.46,4,.76,6.58-.54.84-1.25,1.59-1.7,2.47s-.55,2,.09,2.23,1.9-.79,2.35-1.83.49-2.09.85-3.15c.79-2.3,3.21-4.33,5.2-4.48s3.35,1.51,3.22,3.71a9.47,9.47,0,0,1-3.62,6.26c-1,.76-2.28,1.65-2.32,2.73a.86.86,0,0,0,1.07.89,3.49,3.49,0,0,0,1.72-1,19.88,19.88,0,0,0,3-4.69c.92-1.62,2.28-3.34,3.8-3.73s2.64.94,3.32,2.24a9.41,9.41,0,0,1,1.33,5.45,7.62,7.62,0,0,1-3.72,5.73c-1,.45-2,.5-2.92,1.32-1.08,1-1.15,2.89-.11,3.13,1.25.27,2.8-1.4,3.8-2.88s2.21-3.25,3.64-3.54a1.67,1.67,0,0,1,2,1.32,8.26,8.26,0,0,1,0,3c-.24,2.44-.47,4.87-.71,7.31v0l-6.72,4.2a10.56,10.56,0,0,1-3,1.47c-1,.24-2,0-2.26-.86-.43-1.25.68-3.07,1.61-4.59s1.77-3.56.88-4.38-2.54.3-3,1.65c-.35,1.08.13,1.93.18,2.92.1,2-1.72,4.51-3.68,5.75A12.38,12.38,0,0,1,673,580c-1.6.13-3.41,0-3.83-1.45s.61-3.29,1.71-4.81a20.15,20.15,0,0,0,3-4.7,2.69,2.69,0,0,0,.13-1.85.93.93,0,0,0-1.39-.39c-1,.57-1.24,2-1.48,3.16a9.66,9.66,0,0,1-4.25,5.94c-2.06,1.2-4.33,1-5.19-.64s-.1-4.52,1.74-6.28c.83-.8,1.82-1.36,2.61-2.23s1.27-2.3.6-2.74-1.59.26-2.21,1-1,1.71-1.53,2.55c-1.69,2.63-5.06,4-6.75,2.7a5.48,5.48,0,0,1-1.58-3.61,29.84,29.84,0,0,1,.39-10.42S656.52,551.63,659.56,549.15Z"/><path class="cls-8" d="M660,549.86c2.28-1.76,16.36-11.17,13.8-.63-.57,2.37-2.95,2.94-1.61,5.54a.77.77,0,0,0,.71.4c1.56-.2,2.2-.85,3.06-2.24,1.08-1.74.47-4.19,2.54-5.44l1.16-1.17,3.83,3.41c.1,1.61-2.6,4-3.68,4.95-1.25,1.14-3.59,4.69,0,4.6,1.57,0,2.87-2,3.61-3,.85-1.26,1.93-4.72,3.3-5.21,1.76-.63,3.81.76,4.63,1.82,2.57,3.32-.81,7.28-3.37,9.18-1.26.93-5.7,3.55-2.4,5.46,1,.59,2.11-.05,3-.65a8.88,8.88,0,0,0,1.68-1.84c.47-.56,1.32-2.38,2-2.61,3.54-1.25,2.63,1.93,2.5,3.36-.21,2.44-.08,4.89-1.91,6.76s-4.54,3.46-6.62,2.32c-2.45-1.34-1-1.28-.15-3.43a5,5,0,0,0,.59-2.79c-.77-2.76-4-1.45-4.84.63a10.52,10.52,0,0,0-.16,2c-.93,5.43-1.44,5.59-4.44,6.94-.68.31-3.34,1.42-4.12,1l-1.1-1.91q-2.05-1.62-.31-3.12a12.29,12.29,0,0,1,1.28-1.71,9.61,9.61,0,0,0,1.94-3.68c.49-2.85-2-3.86-3.7-1.45-1.48,2.1-1.21,4.39-3.19,6.42l-1.43,1.46-4.12-2.8c-.59-1.62,2.66-3.48,3.64-4.49,1.3-1.34,2.17-2.51,1.37-4.3a.78.78,0,0,0-.71-.41,3.08,3.08,0,0,0-2.85,1.37c-.94,1-1.33,2.53-2.29,3.51-3.23,3.32-6,.52-6.3-3-.56-5.84.57-11.24,4.94-15.34.77-.73-.39-1.89-1.17-1.16a16.39,16.39,0,0,0-5.13,9.31c-.5,3.19-1.55,10.87,1.9,13.14,2.87,1.89,5.94-.79,7.74-2.83,2.59-3-.92.37-1.59,1.34a6.77,6.77,0,0,0-1.29,5c.64,2.59,3.08,3.31,5.45,2.59a9,9,0,0,0,4.68-4c-.13.2,1.33-3.13,1.19-2.93.08-1.48.3-1.59.67-.33a19.53,19.53,0,0,1-1.59,2.33c-1.35,2-4.39,5.72-1.72,8s9.12-.1,11.35-2.12a9.9,9.9,0,0,0,2.62-4.19c1.09-3-.32-1.06-.87.73-1.14,3.68,1.27,4.63,4.46,3.47,1.83-.67,7.39-3.54,8.38-5.17.62-1,.4-.58.6-2.55.24-2.44,2.56-10.85-2.3-10.66-1.62.07-2.41,1.74-3.43,2.65-2.34,2.09-1.1,1.42.58.11,3.18-2.49,3.58-6.84,2.12-10.34-1.16-2.78-3.11-4.91-6.13-3.23-1.77,1-2.66,3.12-3.67,4.74l-.68,1.23c-.76,2.32-1.39,2.79-1.88,1.44,1-1.18,2.33-1.86,3.23-3.2,1.73-2.56,2.86-7.57-1.06-8.83s-7.1,3.33-7.71,6.51l-.58.55a9.12,9.12,0,0,0,1.56-2.57,6.61,6.61,0,0,0,.47-3.08,3.86,3.86,0,0,0-2.21-3.27c-4.23-2-12,3.77-15,6.08C658.32,549.08,659.13,550.5,660,549.86Z"/><path class="cls-8" d="M654.33,522.12a28.8,28.8,0,0,1,1-11.46,8.09,8.09,0,0,1,2.33-4.23c2.12-1.68,5.82-.73,7.38,1.91a23.63,23.63,0,0,0,1.41,2.57c.6.78,1.68,1.31,2.39.81s.48-2.1-.3-2.94-1.85-1.28-2.69-2a5.51,5.51,0,0,1-1.11-6.65,4.8,4.8,0,0,1,6.06-1.54,7.45,7.45,0,0,1,4,5.88c.12,1.21.16,2.79,1.25,3.26a1.34,1.34,0,0,0,1.66-.65,2.92,2.92,0,0,0,.11-2c-.44-1.76-1.75-3.19-2.8-4.7s-1.92-3.47-1.29-5c.7-1.73,2.79-2.11,4.61-2.22A12.6,12.6,0,0,1,685,494c2.08,1.06,3.82,3.5,3.41,5.76-.19,1.1-.87,2.11-.62,3.26.3,1.41,2.23,2.23,3.18,1.34,1.15-1.05.47-3.17-.39-4.69s-1.87-3.36-1.2-4.82a2.63,2.63,0,0,1,2.72-1.31,9.44,9.44,0,0,1,3.19,1.15l7.13,3.59h0c-.07,2.65-.15,5.31-.22,8a9.32,9.32,0,0,1-.5,3.36,2.62,2.62,0,0,1-2.44,1.77c-1.6-.1-2.73-1.86-3.67-3.34s-2.5-3.07-4-2.57c-1.24.42-1.43,2.5-.33,3.44.9.76,2.11.64,3.18,1,2.18.72,3.51,3.41,3.46,5.74a12.41,12.41,0,0,1-2.31,6.22c-1,1.55-2.29,3.21-4.14,3-1.68-.19-3-1.88-3.83-3.52s-1.48-3.47-2.83-4.69a2.85,2.85,0,0,0-1.84-.86,1.32,1.32,0,0,0-1.36,1.14c-.1,1.19,1.27,2,2.29,2.65a7.42,7.42,0,0,1,3.26,6.34,4.8,4.8,0,0,1-4.22,4.6,5.52,5.52,0,0,1-5.35-4.12c-.26-1.1-.16-2.25-.53-3.33s-1.53-2.11-2.44-1.66-.82,1.59-.42,2.49a22.45,22.45,0,0,0,1.61,2.45c1.58,2.63.67,6.33-1.82,7.39a8,8,0,0,1-4.84,0,32.43,32.43,0,0,1-10.59-4.51S654.85,526,654.33,522.12Z"/><path class="cls-8" d="M655.16,522.12a28.37,28.37,0,0,1,.6-9.67,12.88,12.88,0,0,1,1.19-3.72c7.79-11.23,6.34-.08,8.09,1.34,1.19,1,2.17,3.93,4.42,2.23,1.38-1,.49-3.08-.3-4.1-.21-.27-.9-.55-1-.86l-.93-.63,6.09-4.7c.83.29.62,4.77,1.88,5.87a2.06,2.06,0,0,0,3.21-.26c1.61-2-.69-5-1.74-6.6-.56-.85-1.93-2.37-2-3.43-.31-3.71,2.43-3.67,4.63-3.75,4.44-.16,7.53.56,7.9,7.28,0,.73-1,.34-.18,1.87.74,1.28,1.34,2.8,3.26,2.51s2.24-1.88,2.11-3.45-1.58-2.69-1.68-4c-.44-5.67,10.13-.31,10.9,2.22a14.42,14.42,0,0,1-.13,5l0,1q-2.62,5.84-4.35,2.39c-1.11-.91-1.51-2.58-2.81-3.34s-3.16-1.13-4.11.54c-1.14,2,.33,3.3,1.76,4.3,2.58,1.79,5.13,1.25,5.25,5.5,0-.16-1.07,4.8-2.2,5.81-4.87,4.32-5.46,1.22-7.16-1.77-.92-1.62-2.3-4.92-4.77-4.71-1.93.17-2.35,1.68-1.83,3.25.42,1.26,2.71,2,3.31,2.9l-6.06,5.07-.23-1.67c-.42-1.07-.16-2-1-2.87-1.13-1.2-2.84-1.64-3.81,0a3.28,3.28,0,0,0,0,2.5c.15.52.74.92.85,1.44,1.71,1.6,1,3-2,4.32q-1.35,4.23-4.43,2.72c-5.64-.49-11.5-5.21-12.72-10.68-.23-1-1.82-.6-1.59.43a13.22,13.22,0,0,0,6.09,8.52c3.62,2.16,10.45,5.61,14.73,3.63,3-1.4,3.72-5.15,2.47-8-.29-.65-.84-1.16-1.11-1.8.16.37.69.29,1,1a14.18,14.18,0,0,0,1,2.71,6.4,6.4,0,0,0,3.91,2.75c3.33.66,6.18-2.07,6.41-5.32a7.88,7.88,0,0,0-1.43-4.79c-.15-.22-2.09-2.45-2.25-2.26,1-1.1,2.72,3.07,3,3.49,5.35,8.7,13.31-3.22,11-9.51-.78-2.1-2-2.4-3.46-3.71-.09-.08-1.19-.2-1.2-.28-.17-.88,1.77.22,1.65.15.9.53,1.28,2,2.31,2.59,2.48,1.39,4.41-.19,5.14-2.6a18.91,18.91,0,0,0,.38-4.75c0-1.4.76-4.74.16-6s-1.87-1.45-3.09-2.07c-2.49-1.25-8.94-5.95-11.36-1.95a4,4,0,0,0-.14,3.28c.27,1,1,2.09.88,2.48s-.31-1.76-.33-1.85c-1.48-4.9-6-6.3-10.8-5.92-2.75.22-5.63,1.14-5.63,4.38,0,2.54,2,3.68,2.82,5.8.11.3.76,1.71.09,2,.12-.05-.67-1.61-.18-.95-.74-1-.84-2.55-1.74-3.63-2.39-2.86-7.33-3.79-9.65-.26a6.06,6.06,0,0,0-.43,5.33,7.89,7.89,0,0,0,1.19,1.93c.09.13.45.41.57.6s.84,1.63,1,1.79c-1.54-1.59-1.72-3.25-4.05-4.08a5.57,5.57,0,0,0-5.12.56c-4.26,3.11-4.21,11.83-3.78,16.4C653.61,523.16,655.26,523.17,655.16,522.12Z"/><path class="cls-8" d="M628.44,557.26a30.42,30.42,0,0,1-10.78-.25c-1.47-.29-2.91-.73-3.63-1.7-1.22-1.66.37-4.74,3.18-6.17a29.6,29.6,0,0,0,2.73-1.29c.85-.53,1.56-1.45,1.21-2s-1.92-.29-2.87.4-1.57,1.58-2.45,2.32c-1.93,1.61-5,2.15-6.58,1.25s-1.72-3-.36-4.9a10.15,10.15,0,0,1,6.38-3.64c1.19-.16,2.7-.27,3.36-1.2a.84.84,0,0,0-.32-1.32,3.07,3.07,0,0,0-1.92,0,21.47,21.47,0,0,0-5,2.55c-1.64.94-3.67,1.75-5.06,1.32s-1.51-2.18-1.28-3.68a10.9,10.9,0,0,1,2.09-5.46c1.4-1.76,4.06-3.32,6.15-3.11,1,.1,1.86.61,3,.35,1.41-.33,2.54-2,1.87-2.69s-2.95-.22-4.57.56-3.57,1.72-4.84,1.24a1.59,1.59,0,0,1-.75-2.16,9.62,9.62,0,0,1,1.69-2.69l4.74-6h0l7.59-.23a9.25,9.25,0,0,1,3.12.23,1.58,1.58,0,0,1,1.25,1.92c-.39,1.32-2.29,2.34-3.88,3.19s-3.4,2.21-3.19,3.39c.18,1,2.14,1,3.24.09.89-.78,1-1.77,1.54-2.66,1.08-1.83,3.9-3.07,6.13-3.15a10.49,10.49,0,0,1,5.54,1.57c1.31.71,2.66,1.72,2.12,3.25s-2.35,2.57-4.08,3.34a21.6,21.6,0,0,0-5,2.57,3.16,3.16,0,0,0-1.16,1.56.83.83,0,0,0,.85,1c1.12,0,2.12-1.15,2.95-2a10,10,0,0,1,6.69-3c2.27,0,3.89,1.37,3.63,3.23s-2.51,4-4.93,4.61c-1.11.28-2.19.25-3.3.61s-2.3,1.37-2,2.1,1.37.59,2.3.22,1.75-1,2.65-1.46c2.8-1.44,6.18-.88,6.75,1.11.33,1.17-.19,2.61-.85,4a35.44,35.44,0,0,1-6.27,9S632.2,556.64,628.44,557.26Z"/><path class="cls-8" d="M628.44,556.44a33.13,33.13,0,0,1-7.38.24l-3.19-.47q-4.79-4.41-.24-6.36c1.89-1.12,3.93-1.31,4.31-3.79a.82.82,0,0,0-.37-.92c-1.41-.67-2.3-.34-3.7.4-1.82,1-2.67,3.5-5.06,3.46l-1.56.43-.82-5c.72-1.27,3.67-2,5.06-2.37s6.45-1.93,3.14-4.06c-1.27-.82-3.49.3-4.59.82-1.45.7-2.76,1.83-4.31,2.33-6.13,2-3.51-5.12-1.42-7.38,3-3.28,6.52-.78,9.44-2.85.93-.66,1.77-2,1.19-3.1-.44-.87-1.36-.93-2.2-1a7,7,0,0,0-2.3.5c-.93.27-3.09,1.72-3.64,1.55l-1.41-2.17,2.05-2.67c1.71-2.22,3-3.88,5.83-4.39a9.75,9.75,0,0,1,2.85-.09l1.9-.06,1.3,3.14c-.75,1.54-4,1.55-4.6,3.65-.88,2.86,2.54,3.29,4.34,1.85.69-.55.81-1.32,1.31-2,1.87-2.48,3.9-3.93,7.26-3.45.69.09,3.34.49,3.72,1.25.52,1-.66,4.28-1.31,4.84-1.32,1.17-3.6,1.44-5.09,2.5-1.84,1.31-3.38,5.06.29,4.35,1-.19,1.59-1,2.33-1.61a17.46,17.46,0,0,1,2.7-2.15q5.87-3.45,3.09,2c.48,2.18-.05,3.26-1.59,3.26-2,1.09-4.48.3-5.07,3.14a.84.84,0,0,0,.37.93,3.06,3.06,0,0,0,2.94.3c1.27-.29,2.9-2.28,4.08-2l3.54,4.43a21.81,21.81,0,0,1-1,2c-2.89,5.07-6.56,9.06-12.37,10.49-1,.25-.59,1.83.44,1.58a18.28,18.28,0,0,0,10.15-6.57c1.93-2.41,6.59-7.92,5.09-11.44-1.38-3.24-5.35-2.26-7.88-1.41-3.76,1.28.84.1,1,0a8.59,8.59,0,0,0,2.91-1.43c1.19-.91,2.53-2.38,2.63-4,.2-3.3-3.16-4.31-5.86-3.91a10.65,10.65,0,0,0-4.73,2.13l-1.13,1q-1.49,1.9-.5-.09c1.57-1.07,3.54-1.45,5.17-2.43,8.63-5.23-3.3-10.85-9-8.1-1.43.69-2,1.6-3.13,2.61s-5.14,3.31-.46.31a18.45,18.45,0,0,0,2.55-1.55c2.69-2.38,1.89-4.7-1.61-5.31-2.31-.4-5.22.08-7.54.16-2.69.11-2-.25-3.68,1.82-1.5,1.86-8.19,8-4.5,10.56.9.63,2.12.28,3.09.06,1.71-.39,3.94-1.67.71-.86a10.14,10.14,0,0,0-7.72,9.1c-.31,2.65.23,4.72,3.21,4.83,2,.07,3.92-1.41,5.56-2.27l1.24-.73c2.15-1.57,2.83-1.66,2.06-.26-1.46.47-2.88.45-4.33,1.15-2.65,1.27-6.65,5.11-4.09,8.27,2.2,2.71,8.27,1.06,9.73-1.76l.57-.15a10,10,0,0,0-2.51,1.32,7.76,7.76,0,0,0-2,2.09,4.52,4.52,0,0,0-.72,3.71c1.66,4.76,12,3.59,15.48,3.14C629.47,558,629.49,556.3,628.44,556.44Z"/><path class="cls-8" d="M625.75,597.23c2.91-8.32,6.13-16.81,6.89-25.66.7-8.12-1.31-15.76-4.49-23.17-.41-1-1.83-.13-1.42.83,3.36,7.82,5.16,15.79,4,24.3-1,8-4,15.69-6.6,23.26-.35,1,1.23,1.43,1.58.44Z"/><path class="cls-8" d="M633.73,599.29c2.87-7.93,3.45-16.45,6.6-24.31,3.87-9.65,12.66-19.13,24-17.12,1,.18,1.48-1.4.44-1.58-9.11-1.61-17.52,3.7-22.44,11.13-6.28,9.5-6.47,21-10.23,31.45-.36,1,1.22,1.42,1.58.43Z"/><path class="cls-8" d="M650.29,591.62a10.47,10.47,0,0,0-14.58,8.48"/><path class="cls-8" d="M650.7,590.91a11.41,11.41,0,0,0-15.81,9.19c-.12,1,1.52,1,1.64,0a9.74,9.74,0,0,1,13.34-7.77c1,.41,1.8-1,.83-1.42Z"/><path class="cls-8" d="M614.67,576.8c8.83,2.41,8.11,12.48,7.11,19.65-.15,1,1.44,1.48,1.58.44,1.14-8.14,1.52-19-8.25-21.68a.83.83,0,0,0-.44,1.59Z"/><path class="cls-8" d="M665.32,519.26c-18.5,22.5-31.23,49.36-35.51,78.26-.16,1,1.43,1.48,1.58.43,4.24-28.6,16.77-55.25,35.09-77.53.66-.81-.49-2-1.16-1.16Z"/></g><path class="cls-9" d="M572.93,623.91h0a19.22,19.22,0,0,0,19.16,19.16h32.09a19.21,19.21,0,0,0,19.17-19.15h0v-19.6l-70.41,0Z"/><path class="cls-10" d="M570.93,600.24s-1.17,3.21.73,4.06,34.1,10.7,74.23,0c1-.27,1-1.05.64-4.06"/><ellipse class="cls-10" cx="608.73" cy="600.25" rx="37.8" ry="6.82"/><ellipse class="cls-9" cx="608.81" cy="599.59" rx="34.55" ry="4.73"/><path class="cls-11" d="M592.54,577.15a37.07,37.07,0,0,1,1.6,13.12c-.09,1.83-.36,3.68-1.41,4.76-1.79,1.83-5.8.57-8-2.54-.71-1-1.24-2.11-2-3s-2-1.57-2.64-1,0,2.39,1,3.39,2.19,1.56,3.24,2.47c2.3,2,3.49,5.55,2.69,7.71s-3.38,2.73-5.87,1.48a11.9,11.9,0,0,1-5.53-7c-.41-1.4-.81-3.22-2-3.81a1.06,1.06,0,0,0-1.55.67,3.86,3.86,0,0,0,.36,2.33c.87,2,2.54,3.76,4,5.54s2.78,4.08,2.5,5.86c-.31,2-2.37,2.29-4.22,2.33a13.07,13.07,0,0,1-7-1.36c-2.38-1.31-4.74-4.21-4.85-6.78-.06-1.26.4-2.39-.12-3.72-.64-1.64-2.81-2.67-3.59-1.7-.92,1.16.26,3.63,1.5,5.42s2.71,4,2.36,5.6a2,2,0,0,1-2.49,1.37,11.36,11.36,0,0,1-3.55-1.47l-8.16-4.45v0L547,593.2a11.34,11.34,0,0,1-.27-3.83c.2-1.15,1-2.06,2.09-1.93,1.67.19,3.25,2.27,4.56,4s3.27,3.65,4.67,3.14c1.16-.43.88-2.81-.47-3.94-1.1-.92-2.32-.84-3.5-1.29-2.4-.92-4.4-4.08-4.89-6.76a13.07,13.07,0,0,1,.92-7c.63-1.74,1.6-3.59,3.55-3.27,1.78.3,3.53,2.3,4.77,4.23s2.32,4.05,4,5.52a3.81,3.81,0,0,0,2.09,1.08,1.06,1.06,0,0,0,1.13-1.26c-.17-1.36-1.76-2.32-3-3.15a11.91,11.91,0,0,1-4.84-7.44c-.39-2.76,1-5,3.27-5.1s5.29,2.18,6.45,5c.53,1.28.69,2.6,1.32,3.86s2.07,2.49,2.9,2,.48-1.79-.14-2.83-1.51-1.91-2.23-2.9c-2.23-3.09-2.16-7.3.15-8.42,1.35-.65,3.19-.32,4.95.18a41.51,41.51,0,0,1,11.94,5.68S591.12,572.72,592.54,577.15Z"/><path class="cls-11" d="M624.25,583.89a29,29,0,0,1,8.18-6.41,5.78,5.78,0,0,1,3.77-1c2,.46,2.75,3.68,1.56,6.44-.38.88-.91,1.69-1.21,2.6s-.23,2,.38,2.2,1.61-1,1.88-2,.16-2.12.35-3.19c.4-2.35,2.32-4.6,4.09-4.94s3.21,1.16,3.39,3.35a9.43,9.43,0,0,1-2.43,6.55c-.78.84-1.84,1.85-1.73,2.92a.83.83,0,0,0,1.08.77A3.05,3.05,0,0,0,645,590a20.31,20.31,0,0,0,2.11-4.93c.62-1.69,1.62-3.53,2.93-4.06s2.51.66,3.29,1.89a10.3,10.3,0,0,1,1.92,5.25c.08,2.14-.91,4.9-2.59,6-.83.55-1.78.7-2.46,1.59-.85,1.1-.65,3,.32,3.1,1.15.15,2.33-1.65,3-3.21s1.55-3.43,2.8-3.86a1.57,1.57,0,0,1,1.94,1.11,9.07,9.07,0,0,1,.46,3l.32,7.3v0L653.56,608a9.46,9.46,0,0,1-2.47,1.74,1.58,1.58,0,0,1-2.15-.63c-.55-1.2.21-3.11.85-4.7s1.12-3.69.21-4.42-2.25.55-2.46,1.92c-.17,1.11.38,1.9.55,2.88.36,2-1,4.62-2.56,6a10.21,10.21,0,0,1-5.12,2.24c-1.42.29-3.06.38-3.64-1.06s.12-3.31.91-4.92a20.45,20.45,0,0,0,2.1-4.94,3,3,0,0,0-.13-1.85.84.84,0,0,0-1.31-.25c-.84.67-.84,2.13-.91,3.28a9.34,9.34,0,0,1-3,6.28c-1.69,1.39-3.77,1.39-4.76-.13s-.68-4.45.74-6.37c.64-.88,1.46-1.52,2.06-2.46s.83-2.4.18-2.77-1.4.41-1.86,1.25-.67,1.79-1,2.68c-1.17,2.76-4,4.43-5.72,3.32a5.78,5.78,0,0,1-1.91-3.4,33,33,0,0,1-1-10.35S621.84,586.65,624.25,583.89Z"/><path class="cls-12" d="M627,537.39a33.31,33.31,0,0,1,9.48-8c1.51-.88,3.13-1.62,4.61-1.37,2.52.43,3.9,4.19,2.75,7.5a33.14,33.14,0,0,0-1.19,3.14c-.26,1.09,0,2.38.74,2.57s1.91-1.23,2.11-2.51-.06-2.5,0-3.78c.22-2.8,2.34-5.55,4.53-6s4.18,1.2,4.66,3.76a10.13,10.13,0,0,1-2.24,7.86c-.87,1-2.07,2.28-1.81,3.54a1.11,1.11,0,0,0,1.45.85,3.44,3.44,0,0,0,1.64-1.48c1.11-1.72,1.47-3.9,2-5.92s1.6-4.25,3.18-5,3.23.65,4.36,2.05a12.46,12.46,0,0,1,3.06,6.08c.37,2.52-.53,5.83-2.51,7.25-1,.69-2.14.92-2.89,2-.92,1.34-.45,3.54.78,3.64,1.47.12,2.73-2.07,3.42-4s1.53-4.13,3-4.71a2.14,2.14,0,0,1,2.58,1.21,10.61,10.61,0,0,1,.94,3.5c.43,2.86.87,5.72,1.3,8.59h0l-6.29,6a10.57,10.57,0,0,1-2.89,2.19,2.11,2.11,0,0,1-2.77-.62c-.85-1.38-.13-3.67.48-5.58s1-4.42-.28-5.22c-1-.68-2.75.77-2.85,2.39-.08,1.32.71,2.22,1,3.36.69,2.33-.63,5.5-2.46,7.26a12.6,12.6,0,0,1-6.15,2.93c-1.76.42-3.8.62-4.7-1.06-.82-1.52-.27-3.9.52-5.85s1.85-3.89,2-5.93a3.45,3.45,0,0,0-.39-2.17,1.11,1.11,0,0,0-1.67-.22c-1,.83-.8,2.56-.74,3.91a10.12,10.12,0,0,1-3,7.57c-2,1.73-4.56,1.84-6,.11s-1.41-5.21.13-7.55c.71-1.07,1.66-1.87,2.29-3s.75-2.88-.12-3.28-1.7.56-2.17,1.58-.62,2.15-1,3.21c-1.13,3.32-4.52,5.44-6.77,4.23-1.33-.71-2.15-2.29-2.81-3.91a37.64,37.64,0,0,1-2.57-12.14S624.3,540.77,627,537.39Z"/><path class="cls-11" d="M613.35,507a35.43,35.43,0,0,1-2.14-13.44c0-1.94.28-3.93,1.39-5.28,1.89-2.3,6.3-1.81,8.81,1a30.54,30.54,0,0,0,2.31,2.75c.89.8,2.26,1.24,2.91.54s-.07-2.51-1.19-3.35-2.43-1.19-3.6-1.92c-2.55-1.61-4-5.1-3.15-7.53s3.59-3.57,6.34-2.77a10,10,0,0,1,6.22,6.14c.48,1.38,1,3.2,2.34,3.57a1.35,1.35,0,0,0,1.66-1,3.53,3.53,0,0,0-.45-2.36c-1-2-2.88-3.42-4.49-5s-3.14-3.7-2.89-5.63c.28-2.11,2.51-2.9,4.52-3.33a14.17,14.17,0,0,1,7.62,0c2.64.89,5.29,3.43,5.49,6.11.1,1.31-.37,2.6.24,3.88.74,1.59,3.13,2.21,4,1,1-1.4-.39-3.74-1.79-5.37s-3.07-3.58-2.74-5.38a2.64,2.64,0,0,1,2.67-2,11.38,11.38,0,0,1,3.91.8l9,3h0c.69,3.09,1.37,6.17,2.06,9.26a11.63,11.63,0,0,1,.41,4,2.65,2.65,0,0,1-2.23,2.46c-1.82.15-3.59-1.7-5.07-3.26s-3.67-3.15-5.17-2.32c-1.26.69-.88,3.13.63,4,1.22.74,2.54.4,3.84.63,2.64.47,4.91,3.36,5.52,6.07a14,14,0,0,1-.79,7.59c-.63,1.95-1.63,4.09-3.76,4.16-1.94.06-3.9-1.68-5.31-3.44s-2.65-3.77-4.51-5a3.57,3.57,0,0,0-2.31-.69,1.34,1.34,0,0,0-1.18,1.55c.22,1.39,2,2.07,3.31,2.68a10.08,10.08,0,0,1,5.49,6.81c.51,2.81-.91,5.47-3.4,6s-5.83-1.19-7.17-3.89c-.62-1.24-.83-2.58-1.56-3.78s-2.32-2.18-3.21-1.51-.46,2,.24,2.95a33.78,33.78,0,0,0,2.51,2.57c2.53,2.78,2.58,7.21.1,8.86-1.45,1-3.46,1-5.4.85a39.71,39.71,0,0,1-13.15-3.48S615,511.3,613.35,507Z"/><path class="cls-12" d="M594.51,551.91a32.84,32.84,0,0,1-12.14,1.48c-1.72-.09-3.46-.36-4.54-1.36-1.85-1.72-1-5.56,1.78-7.67a32.68,32.68,0,0,0,2.68-1.94c.8-.76,1.33-1.94.78-2.53s-2.24,0-3.1.94-1.3,2.09-2.07,3.09c-1.69,2.19-4.93,3.31-7,2.54s-2.8-3.24-1.81-5.62a9.93,9.93,0,0,1,6.09-5.26c1.27-.38,2.94-.77,3.4-2a1.08,1.08,0,0,0-.73-1.48,3.37,3.37,0,0,0-2.15.33c-1.85.82-3.33,2.42-4.89,3.78s-3.6,2.64-5.29,2.37-2.31-2.28-2.48-4a12.39,12.39,0,0,1,.76-6.67c1.06-2.27,3.59-4.52,6-4.61,1.18,0,2.27.39,3.47-.1,1.49-.61,2.29-2.68,1.32-3.42-1.14-.9-3.36.23-5,1.41s-3.49,2.57-5,2.23A2.09,2.09,0,0,1,563.1,521a10.47,10.47,0,0,1,1.12-3.39c1.18-2.59,2.37-5.19,3.56-7.78h0l8.42-1.53a10.41,10.41,0,0,1,3.56-.24,2.09,2.09,0,0,1,2,2c-.05,1.59-1.88,3.09-3.42,4.34s-3.17,3.12-2.59,4.45c.49,1.12,2.69.86,3.65-.43.77-1.05.61-2.21,1-3.34.68-2.29,3.49-4.19,5.95-4.65a12.3,12.3,0,0,1,6.65.91c1.67.6,3.47,1.54,3.3,3.41-.14,1.69-1.88,3.36-3.59,4.54s-3.62,2.21-4.87,3.8a3.37,3.37,0,0,0-.86,2,1.09,1.09,0,0,0,1.26,1.08c1.26-.15,2-1.67,2.72-2.81a10,10,0,0,1,6.61-4.6c2.54-.37,4.75,1,5,3.14s-1.65,5.06-4.19,6.16c-1.16.5-2.37.65-3.5,1.24s-2.18,2-1.68,2.77,1.71.46,2.64-.13,1.67-1.44,2.55-2.12c2.72-2.12,6.66-2,7.87.17.7,1.3.53,3,.19,4.74a37,37,0,0,1-4.43,11.4S598.54,550.57,594.51,551.91Z"/><path class="cls-10" d="M602.89,598.51c.84-9.93,1.93-20.07.45-30s-5.94-18.57-11.67-26.63c-.61-.86-2,0-1.42.83,5.64,7.93,10.08,16.51,11.5,26.24s.32,19.79-.51,29.56c-.08,1.06,1.56,1,1.65,0Z"/><path class="cls-10" d="M612.41,599.59c1-10.55-1.19-21.15.76-31.66,2-10.9,9.47-21.87,21.74-21.38,1.05,0,1.05-1.6,0-1.64-10.22-.42-18.24,7.06-21.63,16.25-4.59,12.45-1.27,25.6-2.51,38.43-.1,1,1.54,1,1.64,0Z"/><path class="cls-10" d="M629.07,587.31a11.77,11.77,0,0,0-14.88,13.23c.15,1,1.74.6,1.59-.44a10.11,10.11,0,0,1,12.85-11.21.82.82,0,0,0,.44-1.58Z"/><path class="cls-10" d="M584.75,576.67c10.69,1.36,12.76,13.14,13.73,21.84.11,1,1.76,1.06,1.64,0-1.08-9.79-3.71-22-15.37-23.48-1-.14-1,1.51,0,1.64Z"/><path class="cls-10" d="M624.92,502a177.8,177.8,0,0,0-17.16,96.44c.11,1,1.76,1.05,1.65,0a176.18,176.18,0,0,1,16.93-95.61c.46-.95-1-1.78-1.42-.83Z"/><g class="cls-13"><path class="cls-7" d="M491,618.16h0c-1.64,5.38.86,11.32,5.55,13.2l14.26,5.71c4.69,1.88,9.86-1,11.49-6.38h0l3-10L494,608.14Z"/><path class="cls-7" d="M493.75,605.7s-1,1.43-.3,2.21,13.51,11.53,33,13.21c.48,0,.59-.37.91-2"/><path class="cls-7" d="M527.36,619.15c-.58,1.93-8.58.48-17.86-3.24s-16.33-8.28-15.75-10.21,8.58-.47,17.86,3.24S527.94,617.23,527.36,619.15Z"/><ellipse class="cls-7" cx="510.7" cy="612.1" rx="2.52" ry="16.54" transform="translate(-247.87 857.16) rotate(-68.06)"/><path class="cls-8" d="M510.45,612.47a111.18,111.18,0,0,0,4.92-38.15"/><path class="cls-8" d="M511.24,612.69a116.39,116.39,0,0,0,5-38.37c0-1.05-1.68-1.06-1.65,0a114.27,114.27,0,0,1-4.89,37.93.83.83,0,0,0,1.59.44Z"/><path class="cls-8" d="M505.88,561.54c.74,4,3.23,7,5.82,9.83,1,1.07,2.24,2.08,3.57,1.82a4.79,4.79,0,0,0,2.67-2.32,36.79,36.79,0,0,0,4.8-10.6"/><path class="cls-8" d="M505.09,561.76a18.87,18.87,0,0,0,4,7.81c1.4,1.73,3.25,4.41,5.73,4.43,2.2,0,3.44-2,4.49-3.68a38.74,38.74,0,0,0,4.26-9.84.82.82,0,0,0-1.59-.43,39.48,39.48,0,0,1-2.41,6.4c-.56,1.14-2.07,4.79-3.35,5.3s-3.74-.94-4.6-1.74a17.28,17.28,0,0,1-1.92-2.35,16.16,16.16,0,0,1-3-6.34c-.24-1-1.82-.6-1.59.44Z"/><path class="cls-8" d="M509.08,559.28a41.26,41.26,0,0,0,5.14,13.07"/><path class="cls-8" d="M508.29,559.5a44.1,44.1,0,0,0,5.22,13.26.82.82,0,0,0,1.42-.83,42.64,42.64,0,0,1-5-12.87c-.23-1-1.81-.6-1.59.44Z"/><path class="cls-8" d="M513.21,559.62a53.55,53.55,0,0,0,1.35,12.12"/><path class="cls-8" d="M512.39,559.62A58.19,58.19,0,0,0,513.77,572c.23,1,1.82.59,1.59-.44a56.73,56.73,0,0,1-1.33-11.9.82.82,0,0,0-1.64,0Z"/><path class="cls-8" d="M518.5,558.75l-3.39,14.32"/><path class="cls-8" d="M517.71,558.53l-3.39,14.32c-.24,1,1.34,1.47,1.59.44q1.68-7.17,3.38-14.32c.24-1-1.34-1.47-1.58-.44Z"/><path class="cls-7" d="M507.3,560.89a2,2,0,0,1-2.64,1.47,2.48,2.48,0,0,1-1.27-3,2,2,0,0,1,2.63-1.47A2.5,2.5,0,0,1,507.3,560.89Z"/><ellipse class="cls-7" cx="509.29" cy="558.33" rx="2.07" ry="2.38"/><ellipse class="cls-7" cx="513.65" cy="558.4" rx="2.07" ry="2.38"/><path class="cls-7" d="M520.41,559.42a2,2,0,0,1-2.64,1.47,2.48,2.48,0,0,1-1.27-3,2,2,0,0,1,2.63-1.47A2.49,2.49,0,0,1,520.41,559.42Z"/><path class="cls-7" d="M525.05,560.16a2,2,0,0,1-2.63,1.47,2.5,2.5,0,0,1-1.28-3,2,2,0,0,1,2.64-1.47A2.48,2.48,0,0,1,525.05,560.16Z"/><path class="cls-8" d="M514.49,613.17a99.58,99.58,0,0,1,12.63-21.82"/><path class="cls-8" d="M515.2,613.59a105.31,105.31,0,0,1,12.63-21.83c.64-.84-.79-1.66-1.42-.83a105.31,105.31,0,0,0-12.63,21.83c-.42,1,1,1.8,1.42.83Z"/><path class="cls-8" d="M541.46,588.1c-2.76,2.64-6.3,3.17-9.87,3.55a4,4,0,0,1-3.78-1.12,6,6,0,0,1-.84-3.72,38.69,38.69,0,0,1,2-11.74"/><path class="cls-8" d="M540.88,587.52c-2.62,2.27-11.76,6.19-13.07.28-.84-3.78.79-8.92,1.92-12.51.32-1-1.27-1.44-1.59-.44a41.42,41.42,0,0,0-2,10.75c-.08,2.14-.18,4.85,1.82,6.21,1.77,1.2,4.29.64,6.23.32a15,15,0,0,0,7.81-3.45c.8-.69-.37-1.85-1.16-1.16Z"/><path class="cls-8" d="M540.17,584a31.77,31.77,0,0,1-11.08,6.58"/><path class="cls-8" d="M539.59,583.46a32.25,32.25,0,0,1-10.72,6.37c-1,.35-.57,1.94.43,1.58a34.5,34.5,0,0,0,11.45-6.78c.8-.71-.37-1.86-1.16-1.17Z"/><path class="cls-8" d="M536.75,581.36a43.9,43.9,0,0,1-7.61,8.54"/><path class="cls-8" d="M536,581a45.45,45.45,0,0,1-7.48,8.37c-.8.69.37,1.85,1.16,1.16a47.1,47.1,0,0,0,7.74-8.7c.61-.87-.82-1.69-1.42-.83Z"/><path class="cls-8" d="M533.08,576.91q-2.55,6.83-5.08,13.64"/><path class="cls-8" d="M532.28,576.69q-2.53,6.82-5.08,13.64c-.37,1,1.22,1.42,1.59.44q2.54-6.82,5.08-13.64c.37-1-1.22-1.42-1.59-.44Z"/><path class="cls-7" d="M540.7,586.59a2.48,2.48,0,0,0,1.27,3,2,2,0,0,0,2.64-1.47,2.49,2.49,0,0,0-1.28-3A2,2,0,0,0,540.7,586.59Z"/><path class="cls-7" d="M538.56,582.37a2.49,2.49,0,0,0,1.28,3,2,2,0,0,0,2.63-1.46,2.48,2.48,0,0,0-1.27-3A2,2,0,0,0,538.56,582.37Z"/><path class="cls-7" d="M535.11,579.31a2.48,2.48,0,0,0,1.27,3,2,2,0,0,0,2.64-1.47,2.5,2.5,0,0,0-1.28-3A2,2,0,0,0,535.11,579.31Z"/><path class="cls-7" d="M531.22,576.07a2.48,2.48,0,0,0,1.27,3,2,2,0,0,0,2.64-1.46,2.49,2.49,0,0,0-1.28-3A2,2,0,0,0,531.22,576.07Z"/><path class="cls-7" d="M527.18,573.33a2.48,2.48,0,0,0,1.27,3,2,2,0,0,0,2.64-1.46,2.49,2.49,0,0,0-1.28-3A2,2,0,0,0,527.18,573.33Z"/><path class="cls-8" d="M507.19,611.49a94,94,0,0,0-3.08-14.28"/><path class="cls-8" d="M508,611.27A100.84,100.84,0,0,0,504.91,597a.83.83,0,0,0-1.59.44,102.29,102.29,0,0,1,3.08,14.28c.14,1,1.73.59,1.58-.44Z"/><path class="cls-8" d="M493.62,589.2c1.44,3.15,4.11,4.9,6.85,6.56,1,.63,2.28,1.12,3.33.54a4.58,4.58,0,0,0,1.73-2.65,33.42,33.42,0,0,0,1.8-10.1"/><path class="cls-8" d="M492.91,589.61a14.22,14.22,0,0,0,4.47,5.12c1.54,1.13,3.76,2.93,5.82,2.61s2.73-2.3,3.28-4a35.29,35.29,0,0,0,1.67-9.83c0-1.06-1.6-1.06-1.64,0a36.89,36.89,0,0,1-.68,5.93,30.29,30.29,0,0,1-.77,3c-.56,1.74-.47,2.27-2.54,2.45s-3.23-.73-4.85-2a12.21,12.21,0,0,1-3.34-4.11c-.48-.94-1.9-.11-1.42.83Z"/><path class="cls-8" d="M495.8,586.45a32.05,32.05,0,0,0,7,9.44"/><path class="cls-8" d="M495.09,586.87a34.46,34.46,0,0,0,7.09,9.6c.76.73,1.93-.43,1.16-1.16a33.13,33.13,0,0,1-6.83-9.27c-.47-.95-1.89-.12-1.42.83Z"/><path class="cls-8" d="M499.3,585.61a43.61,43.61,0,0,0,3.62,9.68"/><path class="cls-8" d="M498.5,585.83a47.28,47.28,0,0,0,3.71,9.88c.48.94,1.9.11,1.42-.83a45.37,45.37,0,0,1-3.54-9.49.83.83,0,0,0-1.59.44Z"/><path class="cls-8" d="M503.5,583.45l.15,12.79"/><path class="cls-8" d="M502.68,583.45l.14,12.79a.83.83,0,0,0,1.65,0l-.15-12.79a.82.82,0,0,0-1.64,0Z"/><path class="cls-7" d="M494.66,588.28a1.9,1.9,0,0,1-1.89,1.93,2,2,0,0,1-1.68-2.16,1.91,1.91,0,0,1,1.88-1.94A2,2,0,0,1,494.66,588.28Z"/><path class="cls-7" d="M497.56,585.73a1.89,1.89,0,0,1-1.88,1.93A2,2,0,0,1,494,585.5a1.9,1.9,0,0,1,1.88-1.94A2,2,0,0,1,497.56,585.73Z"/><ellipse class="cls-7" cx="499.41" cy="584.48" rx="1.79" ry="2.05"/><path class="cls-7" d="M505.22,583.48a1.9,1.9,0,0,1-1.88,1.94,2,2,0,0,1-1.68-2.17,1.89,1.89,0,0,1,1.88-1.93A2,2,0,0,1,505.22,583.48Z"/><path class="cls-7" d="M509.23,582.83a1.9,1.9,0,0,1-1.89,1.93,2,2,0,0,1-1.68-2.16,1.9,1.9,0,0,1,1.89-1.93A2,2,0,0,1,509.23,582.83Z"/><path class="cls-8" d="M515.46,584.61a12,12,0,0,1,3.88-6.92c.33-.28.8-.54,1.13-.26a1.21,1.21,0,0,1,.28,1,8.27,8.27,0,0,1-1.43,4.53,6.52,6.52,0,0,1-3.52,2.6"/><path class="cls-8" d="M516.26,584.82a12.33,12.33,0,0,1,1.31-3.66c.38-.68,1.35-2.58,2.17-2.67.67-.06-.56,3.09-.85,3.58a6.06,6.06,0,0,1-3.31,2.66c-1,.34-.57,1.92.44,1.59a7.81,7.81,0,0,0,4.54-3.88c.66-1.3,1.72-4.12.62-5.43-1.24-1.47-3,.56-3.79,1.5a13.62,13.62,0,0,0-2.72,5.88c-.21,1,1.37,1.47,1.59.43Z"/><path class="cls-8" d="M514.7,590.64a12.36,12.36,0,0,0-1-3.06,1.64,1.64,0,0,0-.8-.92.91.91,0,0,0-1,.36,2.46,2.46,0,0,0-.47,1.11,5.91,5.91,0,0,0,2.22,6"/><path class="cls-8" d="M515.49,590.43c-.26-1.33-.67-3.61-2-4.38a1.83,1.83,0,0,0-2.56,1.08c-1.22,2.66.1,6.06,2.34,7.69.86.62,1.68-.81.83-1.42a5,5,0,0,1-1.94-4c0-.47,0-2,.84-1.42.52.34.74,2.24.86,2.86.2,1,1.79.6,1.59-.43Z"/><path class="cls-8" d="M523.51,596.6a8.35,8.35,0,0,0,0-3,1.25,1.25,0,0,0-.31-.71c-.38-.32-.9,0-1.23.42a7.92,7.92,0,0,0-1.48,7"/><path class="cls-8" d="M524.3,596.82c.17-1.22.46-3.26-.43-4.29a1.56,1.56,0,0,0-2.37.11c-2,1.94-2.44,5.3-1.83,7.9.24,1,1.83.59,1.59-.44a7.49,7.49,0,0,1,.22-4.32c.15-.4.61-1.66,1-1.84s.24,2.14.2,2.44c-.14,1,1.44,1.49,1.58.44Z"/><path class="cls-8" d="M518,606a6.5,6.5,0,0,1,4.18-2.84,1.79,1.79,0,0,1,.83,0,.92.92,0,0,1,.62.58,1.14,1.14,0,0,1-.2,1,2.48,2.48,0,0,1-.74.63,20.72,20.72,0,0,1-5.16,2.36"/><path class="cls-8" d="M518.71,606.39a6.22,6.22,0,0,1,1.87-1.78c.37-.22,2.74-1.26,1.88-.12a7.68,7.68,0,0,1-2.3,1.31,21.8,21.8,0,0,1-2.85,1.1c-1,.31-.57,1.89.44,1.58a22.18,22.18,0,0,0,5-2.21c1.07-.65,2.29-1.73,1.54-3.11s-2.4-.91-3.51-.46a7.8,7.8,0,0,0-3.47,2.86c-.62.86.81,1.68,1.42.83Z"/><path class="cls-8" d="M506.07,603.55a5.42,5.42,0,0,1,.73-4.53,2.07,2.07,0,0,1,.84-.75.9.9,0,0,1,1,.18,1.79,1.79,0,0,1,.32,1.26,6.83,6.83,0,0,1-2.48,5.06"/><path class="cls-8" d="M506.86,603.33a5,5,0,0,1,.05-2.7,2.58,2.58,0,0,1,.55-1.11c.5-.42.71-.22.67.39a6,6,0,0,1-2.22,4.28c-.82.67.35,1.83,1.16,1.16a7.47,7.47,0,0,0,2.45-3.84c.32-1.19.64-3.1-.6-3.87s-2.54.36-3.13,1.46a6.52,6.52,0,0,0-.52,4.67.83.83,0,0,0,1.59-.44Z"/></g><ellipse class="cls-14" cx="620.89" cy="642.95" rx="43.52" ry="5.07"/><ellipse class="cls-14" cx="507.89" cy="640.72" rx="27.23" ry="5.07"/><path class="cls-9" d="M480.4,632.29h0A10.78,10.78,0,0,0,491.14,643h18a10.77,10.77,0,0,0,10.74-10.74h0v-11l-39.48,0Z"/><path class="cls-10" d="M479.27,619s-.65,1.8.41,2.27,19.12,6,41.62,0c.56-.15.53-.59.36-2.28"/><ellipse class="cls-10" cx="500.46" cy="619.03" rx="21.19" ry="3.82"/><ellipse class="cls-9" cx="500.51" cy="618.66" rx="19.37" ry="2.65"/><path class="cls-10" d="M501.18,619.12a105.61,105.61,0,0,0-7.48-39.47c-.39-1-2-.54-1.59.44a104.33,104.33,0,0,1,7.42,39,.83.83,0,0,0,1.65,0Z"/><path class="cls-10" d="M477.18,571.49a18.07,18.07,0,0,0,6.55,5.85c2.13,1.18,5.21,3.09,7.79,2.61,5.78-1.06,5.76-12.42,5.71-16.71a.82.82,0,0,0-1.64,0,39.38,39.38,0,0,1-.56,7.35,29.79,29.79,0,0,1-.79,3.36c-.66,2.16-.72,2.9-3.12,3.57-2.19.61-2.6.35-4.51-.55-.87-.41-1.73-.84-2.55-1.33a15.81,15.81,0,0,1-5.46-5c-.59-.87-2,0-1.42.83Z"/><path class="cls-10" d="M480,568a42.14,42.14,0,0,0,10.52,11.07c.85.62,1.68-.8.83-1.42a39.78,39.78,0,0,1-9.93-10.48c-.58-.88-2-.06-1.42.83Z"/><path class="cls-10" d="M484.69,566.55a51.9,51.9,0,0,0,5.73,11.53c.58.87,2,0,1.41-.83a50.21,50.21,0,0,1-5.56-11.14c-.35-1-1.94-.56-1.58.44Z"/><path class="cls-10" d="M490.31,563.42q.53,7.67,1.06,15.33c.07,1,1.72,1,1.65,0q-.54-7.66-1.07-15.33c-.07-1-1.72-1.06-1.64,0Z"/><circle class="cls-11" cx="476.79" cy="569.89" r="2.47"/><circle class="cls-12" cx="480.63" cy="566.61" r="2.47"/><circle class="cls-11" cx="485.56" cy="564.97" r="2.47"/><circle class="cls-12" cx="491.04" cy="563.32" r="2.47"/><circle class="cls-11" cx="496.52" cy="562.23" r="2.47"/><path class="cls-10" d="M506,618.23a106.44,106.44,0,0,1,6.76-26.08c.39-1-1.2-1.41-1.59-.44a108,108,0,0,0-6.81,26.52c-.14,1,1.51,1,1.64,0Z"/><path class="cls-10" d="M526.24,582.73a15.61,15.61,0,0,1-5,4.69c-.82.49-1.66.94-2.52,1.36-1.94,1-2.81,1.43-5,.8s-2.23-.89-2.91-2.91a27.46,27.46,0,0,1-.87-3.35,38.51,38.51,0,0,1-.68-8,.82.82,0,0,0-1.64,0c-.05,4.3-.09,15.67,5.7,16.71,2.45.45,5.23-1.23,7.29-2.33a18.53,18.53,0,0,0,7-6.12c.59-.88-.83-1.7-1.41-.83Z"/><path class="cls-10" d="M523.41,579.27a39.94,39.94,0,0,1-9.94,10.47c-.85.62,0,2,.83,1.42a42.3,42.3,0,0,0,10.53-11.06c.58-.89-.84-1.72-1.42-.83Z"/><path class="cls-10" d="M518.57,578.18A50.43,50.43,0,0,1,513,589.31c-.58.88.84,1.71,1.42.83a51.86,51.86,0,0,0,5.74-11.52c.36-1-1.23-1.43-1.58-.44Z"/><path class="cls-10" d="M512.89,575.48l-1.08,15.33c-.07,1.05,1.57,1.05,1.65,0q.54-7.66,1.07-15.33c.07-1.06-1.57-1.05-1.64,0Z"/><circle class="cls-11" cx="528.04" cy="581.96" r="2.47"/><circle class="cls-12" cx="524.21" cy="578.68" r="2.47"/><circle class="cls-11" cx="519.28" cy="577.03" r="2.47"/><circle class="cls-12" cx="513.8" cy="575.39" r="2.47"/><circle class="cls-11" cx="508.32" cy="574.29" r="2.47"/><path class="cls-10" d="M497.06,619a92.59,92.59,0,0,0-8.44-12.93c-.65-.84-1.81.33-1.16,1.16a91.54,91.54,0,0,1,8.19,12.6c.5.93,1.92.1,1.41-.83Z"/><path class="cls-10" d="M472.92,603.52a15.63,15.63,0,0,0,6.7,3.3c2.17.51,5.29,1.39,7.42.3,1.89-1,2.16-3.11,2.22-5a32.42,32.42,0,0,0-1.47-10.26.82.82,0,0,0-1.58.44c.83,2.76,3.5,12.14-.47,13.59-1.55.57-4.09-.25-5.68-.63a13.77,13.77,0,0,1-6-2.88c-.8-.68-2,.48-1.16,1.17Z"/><path class="cls-10" d="M474.45,600a37.13,37.13,0,0,0,11.39,6.72c1,.37,1.42-1.22.44-1.59a34.46,34.46,0,0,1-10.67-6.3c-.8-.68-2,.47-1.16,1.17Z"/><path class="cls-10" d="M478,597.62a44.35,44.35,0,0,0,7.5,8.22c.8.68,2-.48,1.16-1.16a43,43,0,0,1-7.24-7.89c-.61-.86-2,0-1.42.83Z"/><path class="cls-10" d="M481.87,593.66q2.26,6.24,4.52,12.46c.36,1,1.94.56,1.58-.43q-2.25-6.24-4.51-12.46c-.36-1-1.95-.56-1.59.43Z"/><path class="cls-11" d="M474.36,601.63a2.13,2.13,0,1,1-2.63-1.46A2.13,2.13,0,0,1,474.36,601.63Z"/><path class="cls-12" d="M476.76,598a2.13,2.13,0,1,1-2.63-1.46A2.13,2.13,0,0,1,476.76,598Z"/><circle class="cls-11" cx="478.41" cy="596.05" r="2.13" transform="translate(-201 946.13) rotate(-78.51)"/><path class="cls-12" d="M484.61,592.81a2.13,2.13,0,1,1-2.63-1.46A2.11,2.11,0,0,1,484.61,592.81Z"/><path class="cls-11" d="M488.9,590.6a2.13,2.13,0,1,1-2.63-1.46A2.14,2.14,0,0,1,488.9,590.6Z"/><path class="cls-10" d="M496.52,589.9a12.08,12.08,0,0,1,2-8.28c.28-.41.71-.85,1.19-.7s.52.48.64.83a7.89,7.89,0,0,1-.07,5,7.8,7.8,0,0,1-3.08,3.92"/><path class="cls-10" d="M497.71,596.1a11.35,11.35,0,0,0-2.11-2.62,1.75,1.75,0,0,0-1.21-.59,1.21,1.21,0,0,0-1,.74,2.56,2.56,0,0,0-.15,1.26,5.75,5.75,0,0,0,4.54,5"/><path class="cls-10" d="M509.65,598.49a7.56,7.56,0,0,0-1-2.88A1.21,1.21,0,0,0,508,595c-.53-.17-1,.38-1.24.88a7.42,7.42,0,0,0,.71,7.4"/><path class="cls-10" d="M506.64,609.81a7.88,7.88,0,0,1,3.74-4.42,2.41,2.41,0,0,1,.93-.33,1,1,0,0,1,1,1.38,2.9,2.9,0,0,1-.62.9,26.83,26.83,0,0,1-5,4.33"/><path class="cls-10" d="M492.39,612.11a5.05,5.05,0,0,1-.72-4.72,2.42,2.42,0,0,1,.69-1.07,1.19,1.19,0,0,1,1.21-.21,1.69,1.69,0,0,1,.78,1.11,6.72,6.72,0,0,1-1.07,5.91"/></g></g></svg>