<svg id="Layer_1" data-name="Layer 1" xmlns="http://www.w3.org/2000/svg" viewBox="0 0 19 19"><defs><style>.cls-1{opacity:0.5;}.cls-2{fill:#515e72;}</style></defs><title>useracct_your-setting-icon</title><g class="cls-1"><path class="cls-2" d="M16.79,7.79,15.65,7.6a6.44,6.44,0,0,0-.46-1.11l.67-.94a1,1,0,0,0-.11-1.29l-1-1A1,1,0,0,0,14,3a1,1,0,0,0-.58.19l-.94.67a6.37,6.37,0,0,0-1.15-.47l-.19-1.13a1,1,0,0,0-1-.84H8.75a1,1,0,0,0-1,.84l-.2,1.15a6.28,6.28,0,0,0-1.1.47l-.93-.67a1,1,0,0,0-1.29.11l-1,1a1,1,0,0,0-.11,1.29l.68,1a6.29,6.29,0,0,0-.45,1.11l-1.13.19a1,1,0,0,0-.84,1v1.43a1,1,0,0,0,.84,1l1.15.2a6.28,6.28,0,0,0,.47,1.1l-.67.93a1,1,0,0,0,.11,1.29l1,1a1,1,0,0,0,.71.3,1,1,0,0,0,.58-.19l1-.68a6.42,6.42,0,0,0,1.07.44l.19,1.14a1,1,0,0,0,1,.84h1.43a1,1,0,0,0,1-.84l.19-1.14a6.44,6.44,0,0,0,1.11-.46l.94.67A1,1,0,0,0,14,16h0a1,1,0,0,0,.71-.3l1-1a1,1,0,0,0,.11-1.29l-.67-.94a6.39,6.39,0,0,0,.46-1.11l1.14-.19a1,1,0,0,0,.84-1V8.79A1,1,0,0,0,16.79,7.79Zm-.08,2.42a.09.09,0,0,1-.07.09l-1.43.24a.46.46,0,0,0-.37.34,5.43,5.43,0,0,1-.59,1.42.46.46,0,0,0,0,.5L15.12,14a.09.09,0,0,1,0,.12l-1,1a.09.09,0,0,1-.06,0l-.05,0-1.18-.84a.46.46,0,0,0-.5,0,5.43,5.43,0,0,1-1.42.59.45.45,0,0,0-.34.37l-.24,1.43a.09.09,0,0,1-.09.07H8.79a.09.09,0,0,1-.09-.07l-.24-1.43a.46.46,0,0,0-.34-.37,5.64,5.64,0,0,1-1.39-.57.47.47,0,0,0-.23-.06.45.45,0,0,0-.26.08L5,15.15l-.05,0a.09.09,0,0,1-.06,0l-1-1a.09.09,0,0,1,0-.12l.84-1.17a.46.46,0,0,0,0-.5,5.38,5.38,0,0,1-.6-1.42.46.46,0,0,0-.37-.34l-1.44-.24a.09.09,0,0,1-.07-.09V8.82a.09.09,0,0,1,.07-.09l1.42-.24a.46.46,0,0,0,.37-.34,5.43,5.43,0,0,1,.58-1.43.45.45,0,0,0,0-.5L3.86,5a.09.09,0,0,1,0-.12l1-1a.09.09,0,0,1,.06,0l.05,0,1.17.84a.46.46,0,0,0,.5,0,5.38,5.38,0,0,1,1.42-.6.46.46,0,0,0,.34-.37l.24-1.44a.09.09,0,0,1,.09-.07h1.43a.09.09,0,0,1,.09.07l.24,1.42a.46.46,0,0,0,.34.37,5.51,5.51,0,0,1,1.46.6.46.46,0,0,0,.5,0L14,3.88l.05,0a.09.09,0,0,1,.06,0l1,1a.09.09,0,0,1,0,.12L14.28,6.2a.46.46,0,0,0,0,.5,5.43,5.43,0,0,1,.59,1.42.45.45,0,0,0,.37.34l1.43.24a.09.09,0,0,1,.07.09v1.43Z"/><path class="cls-2" d="M9.5,6A3.51,3.51,0,1,0,13,9.5,3.51,3.51,0,0,0,9.5,6Zm0,6.1A2.59,2.59,0,1,1,12.09,9.5,2.59,2.59,0,0,1,9.5,12.09Z"/></g></svg>