<?xml version="1.0" encoding="utf-8"?>
<!-- Generator: Adobe Illustrator 21.0.0, SVG Export Plug-In . SVG Version: 6.00 Build 0)  -->
<svg version="1.1" id="Layer_1" xmlns="http://www.w3.org/2000/svg" xmlns:xlink="http://www.w3.org/1999/xlink" x="0px" y="0px"
	 viewBox="0 0 32 34" style="enable-background:new 0 0 32 34;" xml:space="preserve">
<style type="text/css">
	.st0{fill:#3F7FBC;}
	.st1{fill:#333333;}
	.st2{fill:none;stroke:#E4F1FD;}
	.st3{fill:#1035A0;}
	.st4{fill:#405DB3;}
	.st5{fill:#FFFFFF;}
	.st6{fill-rule:evenodd;clip-rule:evenodd;fill:#009245;}
</style>
<g>
	<path class="st5" d="M19.2,17.1C21.5,15.6,23,13,23,10c0-4.7-3.8-8.5-8.5-8.5C9.8,1.5,6,5.3,6,10c0,3,1.5,5.6,3.8,7.1
		c-5.2,1.9-8.9,6.9-8.9,12.8v1.1H21c-0.5-0.7-0.8-1.4-1-2.3H3.2c0.6-5.7,5.4-10.2,11.3-10.2c3.3,0,6.2,1.4,8.3,3.6
		c0.7-0.4,1.4-0.7,2.2-0.9C23.5,19.4,21.5,18,19.2,17.1z M14.5,16.3c-3.4,0-6.2-2.8-6.2-6.2s2.8-6.2,6.2-6.2c3.4,0,6.2,2.8,6.2,6.2
		S17.9,16.3,14.5,16.3z"/>
	<path class="st6" d="M31.1,27.3c0,2.8-2.3,5.2-5.2,5.2c-1.7,0-3.3-0.9-4.2-2.2c-0.4-0.6-0.7-1.2-0.8-1.9c-0.1-0.3-0.1-0.7-0.1-1.1
		c0-1.8,0.9-3.4,2.4-4.3c0.5-0.4,1.2-0.6,1.8-0.7c0.3-0.1,0.6-0.1,1-0.1C28.8,22.2,31.1,24.5,31.1,27.3z"/>
</g>
</svg>
