<?xml version="1.0" encoding="utf-8"?>
<!-- Generator: Adobe Illustrator 19.1.0, SVG Export Plug-In . SVG Version: 6.00 Build 0)  -->
<svg version="1.1" id="Layer_1" xmlns="http://www.w3.org/2000/svg" xmlns:xlink="http://www.w3.org/1999/xlink" x="0px" y="0px"
	 viewBox="0 0 1074.9 461" style="enable-background:new 0 0 1074.9 461;" xml:space="preserve">
<style type="text/css">
	.st0{opacity:0.1;}
	.st1{fill:#A2B8F8;}
	.st2{fill:#FFFFFF;}
	.st3{fill:#40E6FB;}
	.st4{fill:#E6E7E8;}
	.st5{fill:#F8DCA0;}
	.st6{fill:#9BF3DB;}
	.st7{fill:#FE93C5;}
	.st8{fill:#5A73DF;}
	.st9{fill:#F9EFE0;}
	.st10{fill:#8BD9AC;}
	.st11{fill:#6BDCA8;}
	.st12{fill:#3799F0;}
	.st13{fill:#455EB2;}
	.st14{fill:#EC818D;}
	.st15{fill:#F4C567;}
	.st16{fill:#394B83;}
	.st17{fill:#937753;}
	.st18{fill:#DDB9E5;}
	.st19{fill:#F16979;}
	.st20{fill:#FFFF83;}
	.st21{fill:#FE78B7;}
	.st22{fill:none;stroke:#455EB2;stroke-width:2;stroke-miterlimit:10;}
	.st23{fill:#F6D083;}
	.st24{fill:#5272E7;}
	.st25{fill:#5798E9;}
	.st26{fill:#FFDB97;}
	.st27{fill:#FBEFDE;}
	.st28{fill:#405DB3;}
	.st29{fill:none;stroke:#455EB2;stroke-miterlimit:10;}
	.st30{fill:#FFC352;}
	.st31{fill:#9BCCF8;}
	.st32{fill:#475FAB;}
	.st33{fill:#BAE5F5;}
	.st34{fill:#CBE7D7;}
	.st35{fill:#FFAFA7;}
	.st36{fill:#70ECFC;}
	.st37{fill:#485FAB;}
	.st38{fill:#FEFAE7;}
	.st39{fill:#C0E5F1;}
	.st40{fill:#FFF4DD;}
	.st41{fill:#A1C9EB;}
	.st42{fill:#3094D1;}
	.st43{fill:#FFFEF4;}
	.st44{fill:#FBCED3;}
	.st45{fill:#1035A0;}
	.st46{fill:#F1F2F2;}
	.st47{fill:#F15F79;}
	.st48{fill-rule:evenodd;clip-rule:evenodd;fill:#03E3A8;stroke:#000000;stroke-width:0.75;stroke-miterlimit:10;}
	.st49{fill-rule:evenodd;clip-rule:evenodd;fill:#F6F6F6;stroke:#000000;stroke-width:0.75;stroke-miterlimit:10;}
	.st50{fill-rule:evenodd;clip-rule:evenodd;fill:#F14C47;}
	.st51{fill-rule:evenodd;clip-rule:evenodd;fill:#826EA1;}
	.st52{fill-rule:evenodd;clip-rule:evenodd;fill:#25A65C;}
	.st53{fill-rule:evenodd;clip-rule:evenodd;fill:#FFFFFF;}
	.st54{fill-rule:evenodd;clip-rule:evenodd;fill:#03E3A8;stroke:#000000;stroke-width:0.7;stroke-miterlimit:10;}
	.st55{fill-rule:evenodd;clip-rule:evenodd;fill:#03E3A8;}
	.st56{fill:#FFFFFF;stroke:#000000;stroke-miterlimit:10;}
	.st57{clip-path:url(#SVGID_2_);}
	.st58{fill:#03E3A8;}
	.st59{fill:#F1AF00;}
	.st60{fill:#FFEFDD;}
	.st61{fill:none;stroke:#231F20;stroke-linecap:round;stroke-linejoin:round;stroke-miterlimit:10;}
	.st62{fill:#1035A0;stroke:#231F20;stroke-miterlimit:10;}
	.st63{fill:#231F20;}
	.st64{fill:none;stroke:#000000;stroke-miterlimit:10;}
	.st65{fill:none;stroke:#000000;stroke-linecap:round;stroke-linejoin:round;stroke-miterlimit:10;}
	.st66{fill:#F6F6F6;stroke:#000000;stroke-width:0.75;stroke-miterlimit:10;}
	.st67{fill:#FF7A6C;stroke:#000000;stroke-width:0.75;stroke-miterlimit:10;}
	.st68{clip-path:url(#SVGID_4_);}
	.st69{fill:#FF7A6C;}
	.st70{fill:#FCE2A2;}
	.st71{fill:#F9A09B;}
	.st72{fill:#69B2F4;}
	.st73{fill:#0C308C;}
	.st74{fill:#49A5EA;}
	.st75{fill:#FF9E6E;}
	.st76{fill:#EF9C95;stroke:#000000;stroke-width:0.75;stroke-miterlimit:10;}
	.st77{fill:#C1DDF4;stroke:#000000;stroke-width:0.75;stroke-miterlimit:10;}
	.st78{clip-path:url(#SVGID_6_);}
	.st79{fill:#E0E0E0;}
	.st80{fill:#EF7F8F;}
	.st81{clip-path:url(#SVGID_8_);fill:#FCE2A2;stroke:#231F20;stroke-width:0.7;stroke-miterlimit:10;}
	.st82{clip-path:url(#SVGID_8_);}
	.st83{fill:#EF9C95;}
	.st84{fill:#10E0FA;stroke:#000000;stroke-width:0.75;stroke-miterlimit:10;}
	.st85{fill:#F6F6F6;}
	.st86{clip-path:url(#SVGID_10_);}
	.st87{fill:#1C75BC;}
	.st88{fill:none;stroke:#000000;stroke-width:0.5;stroke-linecap:round;stroke-linejoin:round;}
	.st89{fill:#9FF3FD;}
	.st90{clip-path:url(#SVGID_12_);}
	.st91{clip-path:url(#SVGID_14_);}
	.st92{clip-path:url(#SVGID_16_);}
	.st93{fill:#7DD7EF;}
	.st94{fill:#EDD07E;}
	.st95{fill:#6AECC8;}
	.st96{fill:#FF9589;}
	.st97{fill:#FEAED4;}
	.st98{fill:#CD97D9;}
	.st99{fill:#CFF9FE;}
	.st100{fill:none;stroke:#475FAB;stroke-width:2;stroke-linecap:round;stroke-miterlimit:10;}
	.st101{fill:#7AA7D9;}
	.st102{fill:#3E658C;}
	.st103{fill:#5C7DA5;}
	.st104{fill:#6985AC;}
	.st105{fill:url(#SVGID_17_);}
	.st106{fill:url(#SVGID_18_);}
	.st107{fill:url(#SVGID_19_);}
	.st108{fill:#485A93;}
</style>
<g id="Layer_2">
	<g>
		<g id="XMLID_18_">
			<g>
				<g>
					<path class="st40" d="M1061.4,272.9c1.2,3.1,1.7,6.6,1.6,10c0,0,0,0,0,0c-0.8,0.1-18.1,1.7-21.7,5.3h0
						c-2.9,0.5-6.1-2.7-3.4-6.4c0.1-0.1,0.2-0.3,0.3-0.4C1042.1,276.7,1061.4,272.9,1061.4,272.9z"/>
				</g>
				<g>
					<path class="st40" d="M1062.9,282.9c-0.1,2.2-0.3,4.3-0.8,6.2c-0.3,1.1-0.7,2.1-1.1,3c-14.2,5.1-21,1.9-20.4-2.7
						c0.1-0.4,0.3-0.8,0.6-1.2h0C1044.8,284.6,1062.2,283,1062.9,282.9z"/>
				</g>
				<g>
					<path class="st38" d="M1061.4,272.9c0,0-19.3,3.9-23.2,8.5c-0.1,0.1-0.2,0.3-0.3,0.4l-1-0.4c-5.6-4.8-2-9.4,2.2-12.5
						c3.1-2.3,6.7-3.8,7.1-4c0,0,0,0,0,0C1054.4,263.2,1059.2,267.2,1061.4,272.9z"/>
				</g>
				<g>
					<path class="st38" d="M1040.6,289.4c-0.6,4.5,6.2,7.8,20.4,2.7c-4.7,8.7-18,8.3-22.9,7.7c-5.2-0.6-5.3,2.4-5.3,2.8l-1.3,0.1
						c-0.5-5.8-6.9-15.1-10.1-19.3c-0.7-0.9-1.7-1.4-2.7-1.4l2.7-0.5c0.7-0.2,2.2,0,5.1-4.7c2.9-4.7,7.4-13.9,6.1-18.5
						c-1.4-4.5,10.3-4.4,6.4,10.4l0.2,0.3c-4.2,3.1-7.7,7.6-2.2,12.5l1,0.4c-2.7,3.7,0.5,6.9,3.4,6.4
						C1040.9,288.6,1040.7,289,1040.6,289.4z"/>
				</g>
				<g>
					<path class="st33" d="M1004.2,170.5c-17.6-0.7-30.4-15-30.4-15c-7.5-9.8-38.2-15.9-38.2,13.3c0,12.4-9.5,7.6-9.5,7.6v-0.9
						c0,0,1.4-12.8-10-11.5c-2.5,0.3-3.9,2.6-4.6,5.6l-0.1-18.4h0c0.3-17,18.7-25.2,18.7-25.2c-2.1-11.3,7.3-10.8,7.3-10.8
						c-4.5,17.6,13.9,11.5,28.6,9.1c14.7-2.4,34.5-3.5,41.7,2.8c7.3,6.4,8.1,9.8,8.1,9.8v0.1c4.5-0.4,18.7-0.2,16.4,16.7
						c-2.1,15.1-13.5,15.6-22.9,16.7C1007.6,170.5,1005.9,170.6,1004.2,170.5z"/>
				</g>
				<g>
					<path class="st41" d="M1031.4,302.7c0.2,2.1-0.4,3.8-2.3,4.6c0,0-3.1,2.2-8,5.4c2.7-19.5-11.3-26.7-11.3-26.7
						c3-1.5,5.6-2.7,7.3-3.6c0.5-0.3,1-0.4,1.5-0.4c1,0,2,0.5,2.7,1.4C1024.4,287.6,1030.9,296.9,1031.4,302.7z"/>
				</g>
				<g>
					<path class="st41" d="M944.8,245.2c0.1-3.7,0.8-7.2,0.8-7.2c9.9,1.5,17.6-1.2,23.4-5.2c1.1,0.8,6,4.4,10.3,13.8
						c5,10.7,3,50.3,3,50.3s-1.4,4.5,6.4,0c4.4-2.6,13.8-7.3,21.1-10.9c0,0,14,7.2,11.3,26.7c-13.3,8.5-40.1,23.7-56.2,19.7
						c-9.4-2.3-9.4-31.8-8.6-48.8h0c-0.5-1.5-37.5,57.2-37.5,57.2l-1.9,0.7c-1.3-2.7-2.8-5.2-4.5-7.6l0.7-0.5l-0.1-10.3h0.1
						c0,0,1.7-5.9,5.7-8.3c3.9-2.4,5.1-4.3,5.1-4.3s-0.5-4.2,2.5-19.4c3-14.9,14.2-40.7,14.7-41.6c0,0,0,0,0,0
						C942.2,248.7,943.4,247.4,944.8,245.2L944.8,245.2L944.8,245.2z"/>
				</g>
				<g>
					<path class="st38" d="M969,232.7c-5.8,4-13.5,6.7-23.4,5.2c-2.2-0.3-4.5-0.9-7-1.6c-2.8-0.9-5.3-2.2-7.5-3.8
						c-13.1-9.3-17.4-28.3-17.4-28.3l-1.9,0l-0.2-19.7l-0.1-14.9c0.7-3,2.1-5.3,4.6-5.6c11.4-1.4,10,11.5,10,11.5v0.9
						c0,0,9.5,4.9,9.5-7.6c0-29.2,30.7-23.1,38.2-13.3c0,0,12.7,14.4,30.4,15c-1.1,2.8-13.9,34.5-20.5,44.9
						C982.2,217.9,977.7,226.8,969,232.7z M985.1,193.8c0-1.6-1.3-2.9-2.9-2.9c-1.6,0-2.9,1.3-2.9,2.9c0,1.6,1.3,2.9,2.9,2.9
						C983.8,196.6,985.1,195.4,985.1,193.8z M968.7,217.2c0.1-2.3-6.5-4.8-9.7-6.5c-2.8-1.5-5.2-3.9-7.3-5.8
						c-7.9-7.2-11.1,6.6-4.3,13.7C958.2,229.6,968.6,221,968.7,217.2z M959,181.5c0-1.6-1.3-2.9-2.9-2.9c-1.6,0-2.9,1.3-2.9,2.9
						c0,1.6,1.3,2.9,2.9,2.9C957.7,184.4,959,183.1,959,181.5z"/>
				</g>
				<g>
					<path class="st32" d="M982.2,190.9c1.6,0,2.9,1.3,2.9,2.9c0,1.6-1.3,2.9-2.9,2.9c-1.6,0-2.9-1.3-2.9-2.9
						C979.3,192.2,980.6,190.9,982.2,190.9z"/>
				</g>
				<g>
					<path class="st2" d="M959,210.7c3.2,1.7,9.8,4.2,9.7,6.5c-0.1,3.8-10.6,12.4-21.2,1.4c-6.8-7.1-3.6-20.8,4.3-13.7
						C953.8,206.8,956.3,209.1,959,210.7z"/>
				</g>
				<g>
					<path class="st32" d="M956.2,178.6c1.6,0,2.9,1.3,2.9,2.9c0,1.6-1.3,2.9-2.9,2.9c-1.6,0-2.9-1.3-2.9-2.9
						C953.3,179.9,954.6,178.6,956.2,178.6z"/>
				</g>
				<g>
					<path class="st42" d="M945.6,238c0,0-0.7,3.5-0.8,7.2h0c-1.3,2.2-2.5,3.6-3.8,4.4c0,0,0,0,0,0c-2.7,1.7-5.9,0.8-11.4-0.2
						c-2.3-0.4-3.8-1.5-4.6-2.9c-2.2-3.3-0.7-8.1-0.7-8.1c3.8-2.6,7-5.8,7-5.8c2.2,1.6,4.7,2.9,7.5,3.8
						C941,237.1,943.4,237.6,945.6,238z"/>
				</g>
				<g>
					<path class="st42" d="M929.5,249.4c5.5,1,8.7,1.9,11.4,0.2c-0.5,0.9-11.8,26.7-14.7,41.6c-3,15.1-2.5,19.4-2.5,19.4
						s-1.1,1.8-5.1,4.3c-3.9,2.4-5.7,8.3-5.7,8.3h-0.1l-0.4-50.2c2.1-6.1,12.4-26.3,12.4-26.3C925.7,247.8,927.2,248.9,929.5,249.4z
						"/>
				</g>
				<g>
					<path class="st41" d="M931.1,232.6c0,0-3.2,3.2-7,5.8c-1.8,1.2-3.7,2.3-5.5,2.8c-5.5,1.5-5.7-8.6-5.7-8.6h-0.8l-0.2-28.3l1.9,0
						C913.8,204.2,918,223.3,931.1,232.6z"/>
				</g>
				<g>
					<path class="st43" d="M926.9,108.5c0,0,0.5,3.2-3.6,3.2c-3.8,0-11.1,0-12.2,0L911,95.1H789.3l-7.5-54.8L854.3,77L922,37.1
						l0.1,0c0.5,1.4,0.9,3.1,1.1,5.4C924.1,50.2,926.9,108.5,926.9,108.5z"/>
				</g>
				<g>
					<path class="st41" d="M924.1,238.4c0,0-1.4,4.8,0.7,8.1c0,0-10.3,20.3-12.4,26.3l-0.3-40.3h0.8c0,0,0.2,10.1,5.7,8.6
						C920.4,240.7,922.3,239.6,924.1,238.4z"/>
				</g>
				<g>
					<path class="st38" d="M922.2,37.1l-0.1,0L854.3,77l-72.6-36.7c0,0,0.6-6.1,8.4-6.3c7.8-0.2,126.9-1.6,126.9-1.6
						S920.2,31.4,922.2,37.1z"/>
				</g>
				<g>
					<path class="st44" d="M916.7,341.5c3.6,7.5,5.7,15.9,5.7,24.8c0,31.6-25.6,57.2-57.2,57.2s-57.2-25.6-57.2-57.2
						s25.6-57.2,57.2-57.2c19.6,0,36.8,9.8,47.1,24.7C913.9,336.3,915.4,338.9,916.7,341.5z M916,365.8c0-27.6-22.5-50-50-50
						c-27.6,0-50,22.4-50,50c0,27.6,22.4,50,50,50C893.5,415.8,916,393.4,916,365.8z"/>
				</g>
				<g>
					<g>
						<path class="st45" d="M911.1,111.6l0.3,39.6l0.1,18.4c-1.4,6.1,0.1,14.8,0.1,14.8s0,0.1,0.1,0.1l0.2,19.7l0.2,28.3l0.3,40.3
							l0.4,50.2l0.1,10.3l-0.7,0.5c-10.3-15-27.6-24.7-47.1-24.7c-31.6,0-57.2,25.6-57.2,57.2H221.3l-9.2-26.1l-5.5-15.8l-84.3,28.1
							V329c17.2-16,35.2-37.5,35.2-37.5c0.9-1.1,0.4-2.3-0.7-3.4c14,2,25.6-15.8,26.8-18.2c5.7-10.7-2.1-4.9-2.1-4.9l-0.4-0.3
							c1.1-1.3,2.3-2.8,3.2-4.3c6.1-10.1-4.7-3.6-5.5-3.1c2.1-2.7,3.5-5.7,2-7.8c-1.6-2.3-6.7,2.3-6.7,2.3c0.9-2,1.2-3.8,0.3-4.8
							c-2.1-2.3-6.4,2.7-6.4,2.7L158,260.2c1.1-6.8-7.5-10.4-6.1-5.9c1.3,4.5-2.7,16.1-2.7,16.1l-4.1,5.7l-0.8,1
							c0,0-11.2,11.9-21.5,22.3l0.2-31.7l0.1-15.9l0.2-25.2l0.5-77.6l0.1-12l0.3-41.8h19.3h21.4h26.3c9.3,9.7,17,17.2,19.1,18.2
							c6.6,2.9,15.7-5.8,23.6-18.2h555.4H911L911.1,111.6z"/>
					</g>
				</g>
				<g>
					<path class="st2" d="M911.6,169.6l0.1,14.9c-0.1-0.1-0.1-0.1-0.1-0.1S910.2,175.7,911.6,169.6z"/>
				</g>
				<g>
					<path class="st46" d="M866,315.7c27.6,0,50,22.4,50,50c0,27.6-22.5,50-50,50c-27.6,0-50-22.4-50-50
						C815.9,338.2,838.4,315.7,866,315.7z M912.4,365.8c0-25.6-20.8-46.4-46.4-46.4c-25.6,0-46.4,20.8-46.4,46.4
						c0,25.6,20.8,46.4,46.4,46.4C891.5,412.2,912.4,391.4,912.4,365.8z"/>
				</g>
				<g>
					<path class="st2" d="M866,319.4c25.6,0,46.4,20.8,46.4,46.4c0,25.6-20.8,46.4-46.4,46.4c-25.6,0-46.4-20.8-46.4-46.4
						C819.6,340.2,840.4,319.4,866,319.4z"/>
				</g>
				<g>
					<path class="st38" d="M249.4,23.2c4.4,4.6,8.8,17.1-4.4,50c-3,7.6-6.9,15.2-11.1,21.8c-7.9,12.4-17,21-23.6,18.2
						c-0.5-0.9-0.9-1.8-1.3-2.8c37.7-35.9,31.4-83.8,31.4-83.8c4.6-2.5,8.2-2.8,8.2-2.8L249.4,23.2z"/>
				</g>
				<g>
					<path class="st2" d="M208.9,110.4c0.4,1,0.8,1.9,1.3,2.8c-2.2-0.9-9.8-8.4-19.1-18.2c-5.7-5.9-12-12.7-18.1-19.2
						c-5.7-6.1-11.1-12.1-15.7-17.2c-3.2-3.5-5.9-6.5-8-8.9c0,0,0,0-0.1-0.1c-2.7-3-4.4-4.9-4.4-4.9c-1.9-7.5-0.7-14.7,2.3-19.5
						c5.8-9.7,11.9-9.8,12-9.8c0-0.1,1.9-0.1,5.1,0.1c18.4,0.8,80.8,4.9,80.8,4.9s2.2,0.4,4.4,2.7l-0.9,0.6c0,0-3.6,0.3-8.2,2.8
						c-1.9,1-3.9,2.5-6,4.4C222.2,42.5,199.8,87.6,208.9,110.4z"/>
				</g>
				<g>
					<path class="st38" d="M240.3,26.6c0,0,6.4,47.9-31.4,83.8c-9.2-22.9,13.2-67.9,25.4-79.4C236.4,29.1,238.4,27.7,240.3,26.6z"/>
				</g>
				<g>
					<path class="st2" d="M221.3,366.3l15.7,44.9l-116.7,37.3l-23.1-70l113.3-37.6l1.6-0.6L221.3,366.3z M149.7,415.2
						c6.9-2.3,9.8-12.1,6.6-22c-3.3-9.8-11.5-15.9-18.4-13.6c-6.9,2.3-9.8,12.1-6.6,22C134.6,411.4,142.8,417.5,149.7,415.2z"/>
				</g>
				<g>
					<polygon class="st38" points="206.6,324.5 212.2,340.3 210.6,340.8 97.2,378.4 92,362.6 122.3,352.5 					"/>
				</g>
				<g>
					<path class="st2" d="M191.1,95.1h-26.3v-1.8l7.1-16.4l1.2-1.1C179.1,82.4,185.4,89.1,191.1,95.1z"/>
				</g>
				<g>
					<path class="st38" d="M174.3,251.8c0,0,5.1-4.5,6.7-2.3c1.5,2.1,0.1,5.2-2,7.8c0.8-0.5,11.5-7,5.5,3.1c-0.9,1.5-2.1,3-3.2,4.3
						l0.4,0.3c0,0,7.8-5.9,2.1,4.9c-1.2,2.3-12.8,20.2-26.8,18.2c-1.5-1.5-3.9-2.7-4.7-2.6c-1.5,0.1-4.9,0.2-3.9-3.1
						c0.9-3.3-3.9-5.3-3.9-5.3l0.8-1l4.1-5.7c0,0,4.1-11.6,2.7-16.1c-1.4-4.5,7.3-0.9,6.1,5.9l10.2-10.4c0,0,4.3-5,6.4-2.7
						C175.5,248,175.2,249.8,174.3,251.8z"/>
				</g>
				<g>
					<path class="st33" d="M173,75.8l-1.2,1.1l-7.1,16.4v1.8h-21.4v-1.8L155,59.6l2.3-1C161.9,63.7,167.4,69.7,173,75.8z"/>
				</g>
				<g>
					<path class="st33" d="M164.2,15.5v0.1c-3.2-0.1-5.1-0.2-5.1-0.1c-0.1,0-6.2,0.1-12,9.8c-2.9,4.9-4.2,12-2.3,19.5
						c0,0,1.6,1.8,4.4,4.9c-0.7-0.7-6.3-6.4-10.4-10.5c-4.7-4.8-8.5-10.8-4.6-18.9c4.8-10,11.5-7.2,19-6
						C158.6,15.2,164.2,15.5,164.2,15.5z"/>
				</g>
				<g>
					<path class="st47" d="M122.3,329c-9.8,9.1-19.3,16.3-25.1,16.8c-7.4,0.6-15.1-9.8-21.2-22.3c-1.1-2.3-2.2-4.7-3.2-7.1
						c-5.3-12.7-8.7-25.9-8.4-30.9c0.7-11.2,17-27.2,17-27.2l0-0.4c4.7,0.7,9.1,0.4,12.4-0.1l0.1,0.5c0,0-6.6,15,4.6,18.2
						c11.1,3.2,12.7-9.1,12.7-9.1s7.3,3,11.1,0.3h0.6l-0.2,31.7c10.3-10.4,21.5-22.3,21.5-22.3s4.8,2,3.9,5.3
						c-0.9,3.3,2.4,3.3,3.9,3.1c0.9-0.1,3.3,1.1,4.7,2.6c1.1,1.1,1.6,2.3,0.7,3.4C157.6,291.5,139.5,313,122.3,329z"/>
				</g>
				<g>
					<path class="st2" d="M156.3,393.2c3.3,9.8,0.3,19.7-6.6,22c-6.9,2.3-15.2-3.8-18.4-13.6c-3.3-9.8-0.3-19.7,6.6-22
						C144.8,377.3,153,383.4,156.3,393.2z"/>
				</g>
				<g>
					<path class="st2" d="M123.9,136.9l-0.1,12l-1.4,0c0,0-8.6-2.3-8.6,8.8c-2.5-1.8-5.8-3.3-10.2-4.1l0.3-1.6
						c2.9-15.9,18.6-15.2,18.6-15.2L123.9,136.9z"/>
				</g>
				<g>
					<path class="st44" d="M113.7,157.7c0-11.1,8.6-8.8,8.6-8.8l1.4,0l-0.5,77.6h-0.9c-5.9-3.2-9.8-17-9.8-17l0-1
						c7.1,0,8.1-14.7,1.1-19.5c-2.7-1.9-6-0.9-8.4,0.4c0,0-11.1,3.7-14.1-8.2c0,0-23.7,7.3-34.6-5.8c0,0,0.4,17.8-13.9,35.8l0.1,0.1
						c0,0,5.9,10,9.2,21.3c5.2,17.6,18.2,23.8,29.3,25.3l0,0.4c0,0-16.3,15.9-17,27.2c-0.3,5.1,3.1,18.2,8.4,30.9l-0.7,0.3
						c-33.2-1.1-20.4-26.6-20.4-26.6c-15-8.9-13.9-24.4-12.3-31.8l-0.3-0.1c-21.9-10.2-21.3-28.6-18.5-39.7l-0.3-0.1
						c-7.6-7.7-5.7-14.5-3.2-18.4l-1.3-0.4c-8.8-33.6,18.1-39.2,18.1-39.2c4.9-20.7,26-16.2,26-16.2c21.4-9.9,32,2,36.3,9.3l1.1-0.5
						c2.3,0,4.4,0.2,6.3,0.6C107.9,154.4,111.2,155.9,113.7,157.7z"/>
				</g>
				<g>
					<path class="st38" d="M96,257.4c-0.6,0.2-1.3,0.3-2.1,0.4c-3.3,0.6-7.7,0.8-12.4,0.1c-11.1-1.5-24.1-7.7-29.3-25.3
						c-3.4-11.3-9.2-21.3-9.2-21.3l-0.1-0.1c14.3-18,13.9-35.8,13.9-35.8c11,13.1,34.6,5.8,34.6,5.8c3,11.8,14.1,8.2,14.1,8.2
						c2.4-1.3,5.6-2.3,8.4-0.4c7,4.8,6,19.5-1.1,19.5l0,1c0,0,3.9,13.9,9.8,17h0.9l-0.2,25.2h-0.7c0,0-7.4,19.8-24,13.8l0.1-0.5
						C98.5,262.4,96,257.4,96,257.4z M89.1,241c6.2-5.3,6.4-18.3,0.8-19.2c-5.5-0.9-6.5,6.3-11,10.2c-2.2,2-4.1,4.3-4.8,5.3
						c-0.7,1-0.1,2.1,0.7,2.8C77.6,242.2,84.3,245.1,89.1,241z M88.3,204.9c0-1.4-1.1-2.5-2.5-2.5c-1.4,0-2.5,1.1-2.5,2.5
						c0,1.4,1.1,2.5,2.5,2.5S88.3,206.2,88.3,204.9z M59.9,218.6c0-1.4-1.1-2.5-2.5-2.5c-1.4,0-2.5,1.1-2.5,2.5
						c0,1.4,1.1,2.5,2.5,2.5C58.8,221.1,59.9,219.9,59.9,218.6z"/>
				</g>
				<g>
					<path class="st2" d="M98.4,265.6c16.6,6.1,24-13.8,24-13.8h0.7l-0.1,15.9h-0.6c-3.9,2.8-11.1-0.3-11.1-0.3s-1.6,12.3-12.7,9.1
						c-11.1-3.2-4.6-18.2-4.6-18.2l-0.1-0.5c0.8-0.1,1.5-0.3,2.1-0.4c0,0,2.5,5,2.5,7.7L98.4,265.6z"/>
				</g>
				<g>
					<path class="st2" d="M89.9,221.8c5.5,0.9,5.4,13.9-0.8,19.2c-4.8,4.1-11.5,1.2-14.2-0.9c-0.8-0.6-1.4-1.8-0.7-2.8
						c0.7-1,2.6-3.3,4.8-5.3C83.4,228.1,84.4,220.9,89.9,221.8z"/>
				</g>
				<g>
					<path class="st32" d="M85.8,202.4c1.4,0,2.5,1.1,2.5,2.5c0,1.4-1.1,2.5-2.5,2.5c-1.4,0-2.5-1.1-2.5-2.5
						C83.3,203.5,84.4,202.4,85.8,202.4z"/>
				</g>
				<g>
					<path class="st32" d="M57.4,216.1c1.4,0,2.5,1.1,2.5,2.5c0,1.4-1.1,2.5-2.5,2.5c-1.4,0-2.5-1.1-2.5-2.5
						C54.9,217.2,56,216.1,57.4,216.1z"/>
				</g>
			</g>
			<g>
				<g>
					<path class="st32" d="M164.8,95.1c-0.2,0-0.5,0-0.7-0.1c-0.9-0.4-1.3-1.5-0.9-2.4l7.1-16.4c0.4-0.9,1.5-1.3,2.4-0.9
						c0.9,0.4,1.3,1.5,0.9,2.4L166.5,94C166.2,94.6,165.5,95.1,164.8,95.1z"/>
				</g>
				<g>
					<path class="st32" d="M143.5,95.1c-0.2,0-0.4,0-0.6-0.1c-0.9-0.3-1.5-1.4-1.1-2.3L153.3,59c0.3-0.9,1.4-1.5,2.3-1.1
						c0.9,0.3,1.5,1.4,1.1,2.3l-11.6,33.6C144.9,94.6,144.2,95.1,143.5,95.1z"/>
				</g>
				<g>
					<path class="st32" d="M213,115.6c-1.2,0-2.3-0.2-3.5-0.7c-0.9-0.4-3.3-1.4-19.7-18.6c-5.8-6.1-12.4-13.1-18.1-19.3
						c-5.7-6.2-11.2-12.1-15.7-17.2c-3.2-3.5-5.9-6.5-8-8.8c0,0-0.1-0.1-0.1-0.1c-2.8-3-4.4-4.9-4.4-4.9l-0.3-0.3l-0.1-0.4
						c-1.9-7.3-1-15.2,2.5-20.9c5.5-9.2,11.4-10.5,13.2-10.6c0.7-0.1,2-0.1,5.6,0.1c18.2,0.8,80.2,4.9,80.8,4.9
						c0.5,0.1,3,0.6,5.6,3.2c5.4,5.7,9,19.3-4,52c-3.1,7.8-7,15.5-11.3,22.1C230.4,103.8,221.5,115.6,213,115.6z M150.5,48.5
						c0,0,0.1,0.1,0.1,0.1c2.1,2.3,4.9,5.4,8,8.9c4.6,5.1,10.1,11,15.7,17.2c5.7,6.1,12.3,13.2,18.1,19.2
						c14.4,15,17.8,17.4,18.5,17.8c4.9,2.1,13.1-4.6,21.4-17.5c4.2-6.5,7.9-13.9,11-21.5c13-32.5,8.6-44.1,4.8-48.1
						c-1.5-1.6-3-2-3.3-2.1c-3.2-0.2-62.8-4.1-80.6-4.9c-1.5-0.1-2.5-0.1-3.2-0.1v0h-1.8c-0.2,0-5.3,0.2-10.5,8.9
						c-2.9,4.8-3.7,11.4-2.2,17.7C147.1,44.6,148.5,46.2,150.5,48.5z"/>
				</g>
				<g>
					<path class="st32" d="M210.3,115c-0.6,0-1.2-0.3-1.6-0.9c-0.6-1-1-2-1.4-3.1c-9.6-23.9,13.2-69.4,25.8-81.4
						c2-1.8,4.1-3.4,6.4-4.6c4.9-2.7,8.8-3,8.9-3.1c1.1-0.1,1.9,0.6,2,1.6c0.1,1-0.6,1.9-1.6,2c-0.1,0-3.4,0.4-7.5,2.6
						c-2,1.1-3.9,2.5-5.6,4.1c-11.8,11.1-33.8,55.3-24.9,77.4c0.3,0.9,0.7,1.7,1.2,2.6c0.5,0.9,0.2,2-0.7,2.5
						C210.9,115,210.6,115,210.3,115z"/>
				</g>
				<g>
					<path class="st32" d="M208.9,112.3c-0.5,0-0.9-0.2-1.3-0.5c-0.7-0.7-0.7-1.8,0-2.5c36.6-34.9,30.9-81.8,30.9-82.3
						c-0.1-1,0.6-1.9,1.6-2c1-0.1,1.9,0.6,2,1.6c0.1,0.5,6.1,49.2-31.9,85.4C209.8,112.1,209.4,112.3,208.9,112.3z"/>
				</g>
				<g>
					<path class="st32" d="M149.2,51.6c-0.4,0-0.9-0.2-1.2-0.5c-0.8-0.8-6.4-6.4-10.5-10.6c-4.3-4.4-9.6-11.3-5-20.9
						c4.8-10,11.9-8.7,18.2-7.5c0.9,0.2,1.8,0.3,2.7,0.5c5.3,0.9,10.8,1.1,10.9,1.1c1,0,1.8,0.9,1.7,1.9s-0.9,1.8-1.9,1.7
						c-0.2,0-5.8-0.3-11.3-1.2c-0.9-0.2-1.9-0.3-2.8-0.5c-6.4-1.2-10.7-2-14.3,5.5c-2.8,5.9-1.5,10.9,4.3,16.8
						c4.1,4.2,9.7,9.8,10.4,10.5c0.7,0.7,0.7,1.9,0,2.6C150.2,51.4,149.7,51.6,149.2,51.6z"/>
				</g>
				<g>
					<path class="st32" d="M70.8,229.9c-0.9,0-2,0-3.1-0.1c-0.9-0.1-1.7-0.5-2.2-1.3c-1.9-2.7-0.2-10,0.6-13.1
						c0.3-1,1.3-1.5,2.2-1.3c1,0.3,1.5,1.3,1.3,2.2c-1.1,4-1.6,8.5-1.2,9.8c2.8,0.2,5.2,0,5.2,0c1-0.1,1.9,0.7,2,1.7
						c0.1,1-0.7,1.9-1.7,2C73.8,229.8,72.6,229.9,70.8,229.9z"/>
				</g>
				<g>
					<path class="st32" d="M87.3,260.2c-2,0-4.1-0.1-6.1-0.4c-8.9-1.2-24.8-6.3-30.8-26.6c-3.3-10.9-9-20.8-9.1-20.9
						c-0.5-0.9-0.2-2,0.6-2.5c0.9-0.5,2-0.2,2.5,0.6c0.2,0.4,6,10.3,9.4,21.7c5.2,17.4,18,22.7,27.8,24c5.4,0.7,9.7,0.2,11.9-0.1
						c0.7-0.1,1.4-0.3,2-0.4c1-0.2,1.6-0.5,2-0.6c13.1-5.8,13.3-25.5,13.3-25.7c0-1,0.8-1.8,1.8-1.8h0c1,0,1.8,0.8,1.8,1.8
						c0,0.9-0.2,22.3-15.5,29c-0.7,0.3-1.6,0.6-2.5,0.8c-0.7,0.2-1.4,0.3-2.3,0.5C92,260,89.7,260.2,87.3,260.2z"/>
				</g>
				<g>
					<path class="st32" d="M76.7,198.2c-0.2,0-0.4,0-0.5-0.1c-1-0.3-1.5-1.3-1.2-2.3c0.1-0.2,1.3-4,4.7-5.5c2.1-0.9,4.4-0.7,6.9,0.6
						c0.9,0.4,1.3,1.5,0.8,2.4c-0.4,0.9-1.5,1.3-2.4,0.8c-1.5-0.8-2.8-0.9-3.9-0.5c-1.8,0.8-2.7,3.2-2.7,3.2
						C78.2,197.7,77.5,198.2,76.7,198.2z"/>
				</g>
				<g>
					<path class="st32" d="M49,213.2c-1,0-1.8-0.8-1.8-1.8c0-0.2-0.1-3.9,2.6-6.1c1.9-1.6,4.6-2,8-1.2c1,0.2,1.6,1.2,1.3,2.2
						c-0.2,1-1.2,1.6-2.2,1.3c-2.2-0.5-3.9-0.4-4.9,0.4c-1.3,1.1-1.3,3.2-1.3,3.2C50.8,212.3,50,213.1,49,213.2
						C49,213.2,49,213.2,49,213.2z"/>
				</g>
				<g>
					<path class="st32" d="M83.3,244.9c-3.8,0-7.4-1.7-9.6-3.4c-1.8-1.4-2.3-3.6-1.1-5.2c0.7-1,2.7-3.5,5.1-5.6
						c1.4-1.3,2.5-3,3.5-4.7c2-3.2,4.2-6.8,8.9-6c2.4,0.4,4.2,2.3,5,5.3c1.4,5-0.1,13-5,17.1C88.2,244.2,85.7,244.9,83.3,244.9z
						 M75.7,238.4c0.1,0,0.2,0.2,0.3,0.3c2.2,1.8,8,4.3,11.9,1l0,0c3.6-3.1,4.9-9.4,3.8-13.4c-0.3-0.9-0.9-2.5-2.1-2.7
						c-2.1-0.4-3.2,1-5.2,4.3c-1.1,1.8-2.4,3.9-4.2,5.5C77.9,235.4,76.1,237.6,75.7,238.4C75.7,238.4,75.7,238.4,75.7,238.4z"/>
				</g>
				<g>
					<path class="st32" d="M91.9,247.7c-0.9,0-1.6-0.6-1.8-1.5c-0.2-1,0.5-1.9,1.5-2.1c0.4-0.1,3.8-0.9,3.8-5.2c0-1,0.8-1.8,1.8-1.8
						s1.8,0.8,1.8,1.8c0,6-4.4,8.3-6.8,8.8C92.1,247.7,92,247.7,91.9,247.7z"/>
				</g>
				<g>
					<path class="st32" d="M98.5,266.9c-1,0-1.8-0.8-1.8-1.8c0-1.7-1.4-5.1-2.3-6.9c-0.5-0.9-0.1-2,0.8-2.4c0.9-0.5,2-0.1,2.4,0.8
						c0.3,0.6,2.7,5.5,2.7,8.5C100.3,266.1,99.5,266.9,98.5,266.9z"/>
				</g>
				<g>
					<path class="st32" d="M112.6,210.3c-0.4,0-0.8,0-1.2-0.1c-1-0.2-1.7-1.1-1.5-2.1c0.2-1,1.1-1.7,2.1-1.5c2.5,0.4,3.7-2,4.2-3.5
						c1.3-4.1,0.2-10.2-3.4-12.7c-1.6-1.1-3.8-1-6.5,0.5c-1.7,0.9-2.9,1.9-2.9,2c-0.8,0.7-1.9,0.6-2.6-0.2c-0.7-0.7-0.6-1.9,0.2-2.6
						c0.1-0.1,1.5-1.3,3.6-2.4c3.9-2.1,7.5-2.2,10.2-0.3c5.1,3.5,6.5,11.4,4.9,16.7C118.4,208.1,115.8,210.3,112.6,210.3z"/>
				</g>
				<g>
					<path class="st32" d="M122.3,228.4c-0.3,0-0.6-0.1-0.9-0.2c-6.4-3.4-10.2-16.6-10.6-18.1c-0.3-1,0.3-2,1.3-2.2
						c1-0.3,2,0.3,2.2,1.3c1,3.7,4.6,13.6,8.9,15.9c0.9,0.5,1.2,1.6,0.7,2.5C123.6,228,123,228.4,122.3,228.4z"/>
				</g>
				<g>
					<path class="st32" d="M101.6,191.7c-1.8,0-4-0.3-6-1.4c-2.5-1.4-4.4-3.7-5.5-6.8c-5.9,1.5-24.9,5.1-34.8-6.8
						c-0.6-0.7-1.2-1.6-1.9-2.6c-0.5-0.9-0.3-2,0.6-2.5c0.9-0.5,2-0.3,2.5,0.6c0.5,0.8,1,1.5,1.5,2.1c10.1,12.1,32.5,5.3,32.7,5.3
						l1.8-0.6l0.5,1.8c0.8,3.1,2.2,5.2,4.3,6.3c3.4,1.9,7.5,0.6,7.5,0.6c1-0.3,2,0.2,2.3,1.2c0.3,1-0.2,2-1.2,2.3
						C105.8,191.1,104,191.7,101.6,191.7z"/>
				</g>
				<g>
					<path class="st32" d="M44.7,239.1c-0.4,0-0.9-0.2-1.3-0.5c-5.1-4.8-12.5-16.4-4.2-25.9c0.7-0.8,1.4-1.7,2.1-2.5
						c13.7-17.3,13.5-34.5,13.5-34.7c0-1,0.8-1.8,1.8-1.9c1,0,1.8,0.8,1.9,1.8c0,0.8,0.2,18.7-14.3,37c-0.7,0.9-1.4,1.8-2.2,2.7
						c-8.1,9.3,3.5,20.4,4,20.9c0.7,0.7,0.8,1.8,0.1,2.6C45.6,238.9,45.2,239.1,44.7,239.1z"/>
				</g>
				<g>
					<path class="st32" d="M120.9,169.7c-0.9,0-1.6-0.6-1.8-1.5c0-0.2-1-5.2-6.4-9c-2.6-1.8-5.8-3.1-9.5-3.8c-1.8-0.3-3.9-0.5-6-0.5
						c-1,0-1.8-0.8-1.8-1.8c0-1,0.8-1.8,1.8-1.8c0,0,0,0,0,0c2.3,0,4.5,0.2,6.5,0.6c4.3,0.8,8,2.2,11,4.4c6.7,4.7,7.9,11.1,7.9,11.4
						c0.2,1-0.5,1.9-1.5,2.1C121.1,169.7,121,169.7,120.9,169.7z"/>
				</g>
				<g>
					<path class="st32" d="M33.1,167.3c-0.1,0-0.1,0-0.2,0c-1-0.1-1.7-1-1.6-2c0.2-1.8,0.4-3.6,0.8-5.3
						c4.7-20.1,23.8-18.2,27.5-17.7c23-10.3,34.3,3.7,38.1,10.3c1.7,2.9,2.5,5.2,2.5,5.3c0.3,1-0.2,2-1.2,2.3c-1,0.3-2-0.2-2.3-1.2
						c0,0-0.7-2-2.2-4.6c-4.2-7.1-14.1-17.8-34-8.6l-0.5,0.3l-0.6-0.1c-0.8-0.2-19.5-3.8-23.9,14.8c-0.4,1.5-0.6,3.1-0.8,4.7
						C34.8,166.6,34,167.3,33.1,167.3z"/>
				</g>
				<g>
					<path class="st32" d="M15.8,201.5c-0.8,0-1.5-0.5-1.8-1.4c-3.1-11.8-2.3-21.6,2.4-29.2c6.1-9.9,16.6-12.2,17-12.3
						c1-0.2,1.9,0.4,2.1,1.4c0.2,1-0.4,1.9-1.4,2.1l0,0c-0.1,0-9.4,2.1-14.7,10.7c-4.1,6.7-4.8,15.5-2,26.3c0.3,1-0.3,2-1.3,2.2
						C16.1,201.5,16,201.5,15.8,201.5z"/>
				</g>
				<g>
					<path class="st32" d="M20.4,220.4c-0.5,0-0.9-0.2-1.3-0.5c-8.7-8.9-5.9-16.8-3.4-20.7c1.6-2.6,3.5-4.1,3.6-4.2
						c0.8-0.6,1.9-0.5,2.6,0.3c0.6,0.8,0.5,1.9-0.3,2.6l0,0c0,0-1.5,1.2-2.8,3.3c-3.4,5.4-2.4,10.8,3,16.2c0.7,0.7,0.7,1.9,0,2.6
						C21.3,220.2,20.8,220.4,20.4,220.4z"/>
				</g>
				<g>
					<path class="st32" d="M39.1,260.2c-0.3,0-0.5-0.1-0.8-0.2c-23.4-10.9-22.2-30.9-19.5-41.8c1.4-5.6,3.4-9.4,3.4-9.5
						c0.5-0.9,1.6-1.2,2.4-0.8c0.9,0.5,1.2,1.6,0.8,2.4c0,0-1.8,3.6-3.1,8.7c-3.1,12-2.5,28.3,17.5,37.6c0.9,0.4,1.3,1.5,0.9,2.4
						C40.5,259.8,39.8,260.2,39.1,260.2z"/>
				</g>
				<g>
					<path class="st32" d="M72.2,318.6C72.1,318.6,72.1,318.6,72.2,318.6c-11.4-0.4-18.9-3.6-22.5-9.6c-4-6.7-1.6-14.8-0.3-18.1
						C34.6,281,36.2,264.7,37.6,258c0.6-2.6,1.2-4.3,1.2-4.4c0.4-0.9,1.4-1.4,2.3-1c0.9,0.4,1.4,1.4,1,2.3c0,0-0.6,1.5-1.1,3.8
						c-1.6,7.6-2.3,21.6,11.4,29.8l1.4,0.9l-0.7,1.5c0,0.1-4.6,9.4-0.5,16.2c2.9,4.8,9.4,7.4,19.4,7.8c1,0,1.8,0.9,1.8,1.9
						C73.9,317.8,73.1,318.6,72.2,318.6z"/>
				</g>
				<g>
					<path class="st32" d="M103.7,153.9c-0.1,0-0.2,0-0.3,0c-1-0.2-1.6-1.1-1.5-2.1c3.2-17.2,20.3-16.7,20.5-16.7
						c1,0,1.8,0.9,1.7,1.9c0,1-0.9,1.8-1.9,1.7l0,0c-0.6,0-14.1-0.4-16.7,13.7C105.4,153.3,104.6,153.9,103.7,153.9z"/>
				</g>
				<g>
					<path class="st32" d="M113.7,159.5c-1,0-1.8-0.8-1.8-1.8c0-4.3,1.2-7.4,3.5-9.2c3.2-2.5,7.2-1.4,7.4-1.4c1,0.3,1.5,1.3,1.3,2.2
						c-0.3,1-1.3,1.6-2.2,1.3c-0.1,0-2.5-0.6-4.3,0.8c-1.4,1.1-2.1,3.2-2.1,6.3C115.5,158.7,114.7,159.5,113.7,159.5
						C113.7,159.5,113.7,159.5,113.7,159.5z"/>
				</g>
				<g>
					<path class="st32" d="M102,278.9c-1.3,0-2.6-0.2-4-0.6c-3.2-0.9-5.4-2.7-6.7-5.4c-2.9-6.2,0.8-14.9,0.9-15.3
						c0.4-0.9,1.5-1.3,2.4-0.9c0.9,0.4,1.3,1.5,0.9,2.4c0,0.1-3.2,7.5-1,12.3c0.8,1.7,2.2,2.8,4.4,3.4c2.6,0.8,4.8,0.6,6.5-0.5
						c3.2-2.1,3.9-7,3.9-7l0.3-2.3l2.2,0.9c1.8,0.7,6.9,2.2,9.4,0.5c0.8-0.6,2-0.4,2.5,0.4c0.6,0.8,0.4,2-0.4,2.5
						c-3.3,2.4-8.1,1.5-10.9,0.6c-0.6,2.2-2.1,5.5-5.1,7.5C105.9,278.3,104,278.9,102,278.9z"/>
				</g>
				<g>
					<path class="st32" d="M104.4,268.5c-2.1,0-4.3-0.4-6.7-1.3c-0.4-0.2-0.8-0.3-1.2-0.5c-0.9-0.4-1.4-1.5-1-2.4
						c0.4-0.9,1.5-1.4,2.4-1c0.4,0.2,0.7,0.3,1.1,0.4c14.7,5.4,21.4-12,21.6-12.7c0.4-0.9,1.4-1.4,2.3-1.1c0.9,0.3,1.4,1.4,1.1,2.3
						C121.7,258.6,115,268.5,104.4,268.5z"/>
				</g>
				<g>
					<path class="st32" d="M96.6,347.7c-8.9,0-16.9-12.6-22.2-23.3c-1.1-2.3-2.2-4.7-3.2-7.2c-5.2-12.5-8.9-26.2-8.5-31.8
						c0.7-11.8,16.8-27.7,17.5-28.4c0.7-0.7,1.9-0.7,2.6,0c0.7,0.7,0.7,1.9,0,2.6c-0.2,0.2-15.8,15.6-16.4,26
						c-0.3,4.4,2.8,16.9,8.3,30.1c1,2.4,2.1,4.7,3.2,7c6.8,14,13.9,21.7,19.4,21.3c3.2-0.3,10-3.3,24-16.4
						c16.9-15.7,34.9-37.1,35.1-37.3c0-0.1-0.1-0.4-0.6-1c-1.1-1.2-2.9-2-3.4-2.1c-0.9,0.1-3.6,0.3-5.1-1.5
						c-0.6-0.7-1.1-1.9-0.6-3.9c0.3-1-0.9-2-1.8-2.6c-2.9,3.1-12.1,12.8-20.6,21.3c-8,8.1-13.4,13.1-15.8,14.7
						c-1.4,0.9-2.9,1.1-4.3,0.5c-6.3-2.4-10.8-19.4-11.7-22.8c-0.2-1,0.3-2,1.3-2.2c1-0.2,2,0.3,2.2,1.3c1.9,7.7,6.1,19,9.5,20.3
						c0.3,0.1,0.6,0.1,1-0.1c2.2-1.5,7.6-6.5,15.3-14.3c10.2-10.2,21.4-22.1,21.5-22.3l0.9-0.9l1.2,0.5c2.3,1,6,3.6,5,7.5
						c-0.1,0.5-0.1,0.7-0.1,0.7l0,0c0,0,0.4,0.3,2.1,0.2c1.7-0.1,4.6,1.6,6.2,3.2c2.9,2.9,1.3,5.2,0.8,5.9
						c-0.2,0.2-18.3,21.8-35.4,37.6c-12,11.2-20.6,16.8-26.2,17.3C97.1,347.6,96.8,347.7,96.6,347.7z"/>
				</g>
				<g>
					<path class="st32" d="M145,277.9c-0.4,0-0.7-0.1-1.1-0.3c-0.8-0.6-1-1.7-0.4-2.5l4-5.5c1.5-4.3,3.5-11.9,2.6-14.8
						c-0.7-2.2,0.4-3.4,0.8-3.7c1.1-0.9,2.9-0.8,4.6,0.2c1.6,1,3.1,2.7,3.9,4.8l7.5-7.6c0.5-0.6,3.4-3.8,6.3-3.9
						c1.1,0,2,0.4,2.7,1.2c0.9,1,1.7,3,0,6.7c-1.3,2.8-3.8,6-6.3,8.1c-0.8,0.6-1.9,0.5-2.6-0.2c-0.6-0.8-0.5-1.9,0.2-2.6
						c2.1-1.8,4.3-4.5,5.4-6.8c0.9-1.9,0.7-2.7,0.6-2.8c-0.5-0.1-2.3,1.1-3.6,2.7l-14.4,14.6l1-5.7c0.4-2.2-0.6-3.7-1.2-4.4
						c-0.4-0.5-0.8-0.8-1.2-1c1,5.2-2.5,15.4-2.9,16.6l-0.2,0.5l-4.1,5.7C146.2,277.6,145.6,277.9,145,277.9z"/>
				</g>
				<g>
					<path class="st32" d="M173,265.2c-0.5,0-1.1-0.2-1.4-0.7c-0.6-0.8-0.5-1.9,0.3-2.6c0,0,3.3-2.7,5.7-5.7
						c0.6-0.8,1.8-0.9,2.5-0.3c0.8,0.6,0.9,1.8,0.3,2.5c-2.6,3.4-6.1,6.2-6.3,6.3C173.8,265.1,173.4,265.2,173,265.2z"/>
				</g>
				<g>
					<path class="st32" d="M179,259.2c-0.4,0-0.8-0.1-1.1-0.4c-0.8-0.6-0.9-1.8-0.3-2.5c0.9-1.2,2.9-4,2-5.5c-0.7,0-2.7,1.2-4.1,2.4
						c-0.7,0.7-1.9,0.6-2.6-0.1c-0.7-0.7-0.6-1.9,0.1-2.6c1-0.9,4.3-3.6,7-3.3c1,0.1,1.8,0.6,2.4,1.4c1.8,2.5,1.1,5.9-2,10
						C180.1,258.9,179.5,259.2,179,259.2z"/>
				</g>
				<g>
					<path class="st32" d="M178.4,269.5c-0.5,0-0.9-0.2-1.3-0.6c-0.7-0.7-0.7-1.9,0-2.6c0,0,1.2-1.2,2.7-2.8c0.9-1,2.1-2.5,3-4
						c0.8-1.3,1.2-2.2,1.4-2.8c-1,0.3-2.7,1.1-4.1,2l-0.4,0.4l-0.8,0c-1,0-1.8-0.8-1.8-1.8c0-0.6,0.2-1,0.6-1.4l0.3-0.2
						c3.1-2,7.3-3.9,9.2-2c1.8,1.8,0.4,4.8-1.3,7.6c-1,1.7-2.4,3.4-3.4,4.5c-1.5,1.7-2.8,3-2.9,3
						C179.4,269.3,178.9,269.5,178.4,269.5z"/>
				</g>
				<g>
					<path class="st32" d="M159.1,290.1c-0.8,0-1.7-0.1-2.5-0.2c-1-0.1-1.7-1.1-1.5-2.1c0.1-1,1.1-1.7,2.1-1.5
						c13.6,2,24.9-17,25-17.2c0.7-1.4,1.2-2.4,1.5-3.1c-0.3,0.2-0.6,0.4-0.9,0.6c-0.8,0.6-1.9,0.4-2.5-0.4c-0.6-0.8-0.4-1.9,0.4-2.5
						c1.9-1.4,4.5-2.8,6.2-1.4c1.8,1.5,0.8,4.5-1.4,8.5C185.2,271,174.1,290.1,159.1,290.1z"/>
				</g>
				<g>
					<path class="st32" d="M951,240.2c-1.8,0-3.7-0.1-5.7-0.4c-2.3-0.3-4.7-0.9-7.3-1.7c-2.8-0.9-5.5-2.2-8-4
						c-13.5-9.6-17.9-28.6-18.1-29.4c-0.2-1,0.4-2,1.4-2.2c1-0.2,1.9,0.4,2.2,1.4c0,0.2,4.3,18.5,16.6,27.3c2.2,1.6,4.5,2.7,7,3.5
						c2.4,0.7,4.6,1.3,6.7,1.5c8.2,1.2,15.6-0.4,22.1-4.9c7.2-5,11.4-12.1,13.5-15.5c0.3-0.5,0.6-1,0.8-1.3
						c6.7-10.4,19.8-43.2,20.4-44.6l3.5,0.9c0,0,0,0.2-0.2,0.5c-1.4,3.5-13.9,34.6-20.6,45.2c-0.2,0.3-0.4,0.7-0.7,1.2
						c-2.2,3.6-6.6,11.2-14.5,16.6C964.3,238.2,957.9,240.2,951,240.2z"/>
				</g>
				<g>
					<path class="st32" d="M966,205.7c-1.7,0-3.5-0.4-4.6-1.4c-0.7-0.7-0.8-1.8-0.1-2.6c0.7-0.7,1.8-0.8,2.6-0.1
						c0.9,0.8,4.7,0.3,6.2-0.3v-12c0-1,0.8-1.8,1.8-1.8c1,0,1.8,0.8,1.8,1.8v12.7c0,1.1-0.7,1.9-2.1,2.5
						C970.4,205.2,968.2,205.7,966,205.7z"/>
				</g>
				<g>
					<path class="st32" d="M966,174.2c-1,0-1.8-0.8-1.8-1.8c0-2.4-0.7-4-1.9-4.8c-2.4-1.6-6.9-0.2-8.3,0.4c-0.9,0.4-2,0-2.4-1
						c-0.4-0.9,0-2,1-2.4c0.7-0.3,7.3-2.9,11.7-0.1c2.3,1.5,3.5,4.1,3.5,7.8C967.8,173.4,967,174.2,966,174.2
						C966,174.2,966,174.2,966,174.2z"/>
				</g>
				<g>
					<path class="st32" d="M990.4,188.5c-0.1,0-0.2,0-0.3,0c-1-0.2-1.6-1.1-1.5-2.1c0.2-1.2,0.4-3.3-0.5-4c-1.2-1-4-0.3-5.2,0.2
						c-0.9,0.4-2-0.1-2.4-1c-0.4-0.9,0.1-2,1-2.4c0.6-0.2,5.7-2.2,8.9,0.4c1.8,1.5,2.4,4,1.8,7.5C992,187.9,991.2,188.5,990.4,188.5
						z"/>
				</g>
				<g>
					<path class="st32" d="M958.6,225.8c-3.4,0-7.8-1.2-12.4-5.9l0,0c-5-5.2-5.3-13.8-2.1-17.2c0.9-0.9,4-3.4,8.8,1l0.6,0.6
						c1.9,1.7,4,3.7,6.3,5c0.7,0.4,1.6,0.8,2.6,1.3c4.2,2,8.1,3.9,8.1,6.9c-0.1,2.8-3.1,6.1-7,7.6
						C962.5,225.3,960.7,225.8,958.6,225.8z M948.8,217.3c5.7,5.9,10.8,5.1,13.4,4.2c3-1.2,4.7-3.5,4.7-4.3c-0.4-0.8-4.2-2.6-6-3.5
						c-1-0.5-2-1-2.8-1.4c-2.7-1.5-5-3.6-7-5.5l-0.6-0.5c-1.2-1.1-2.8-2.1-3.8-1.1C944.9,207.1,945.1,213.4,948.8,217.3L948.8,217.3
						z"/>
				</g>
				<g>
					<path class="st32" d="M953.3,231.3C953.3,231.3,953.2,231.3,953.3,231.3c-11.1-0.5-14-8.6-14.1-9c-0.3-1,0.2-2,1.1-2.3
						c0.9-0.3,2,0.2,2.3,1.1c0.1,0.3,2.3,6.1,10.7,6.5c1,0,1.8,0.9,1.7,1.9C955.1,230.6,954.3,231.3,953.3,231.3z"/>
				</g>
				<g>
					<path class="st32" d="M930.1,179.1c-2.5,0-4.6-1.1-4.7-1.1c-0.9-0.5-1.3-1.5-0.8-2.4c0.5-0.9,1.5-1.3,2.4-0.8
						c0.8,0.4,3.3,1.3,4.9,0.3c1.7-1,2-4,2-6.2c0-15.3,8.2-20.4,13.1-22.1c10.2-3.5,23.4,1.2,28.3,7.6c0,0,12.4,13.7,29,14.3
						c1.6,0.1,3.2,0,4.8-0.2l1.6-0.2c9.3-1,18-2,19.8-14.9c0.7-5-0.2-8.8-2.5-11.3c-3.5-3.7-9.6-3.6-12-3.4
						c-0.7,0.1-1.1,0.1-1.2,0.1c-1,0.1-1.9-0.5-2.1-1.5c-0.1-1,0.5-1.9,1.5-2.1c0,0,0.5-0.1,1.4-0.2c3-0.2,10.4-0.3,15,4.5
						c3.1,3.3,4.3,8.1,3.4,14.3c-2.1,15.7-13.7,17-23,18l-1.6,0.2c-1.7,0.2-3.5,0.3-5.3,0.2c-18.2-0.7-31.1-15-31.7-15.7
						c-4.1-5.4-15.9-9.4-24.4-6.5c-6.9,2.4-10.6,8.8-10.6,18.6c0,4.7-1.3,7.8-3.8,9.3C932.6,178.9,931.3,179.1,930.1,179.1z"/>
				</g>
				<g>
					<path class="st32" d="M911.5,153.1C911.5,153.1,911.4,153.1,911.5,153.1c-1,0-1.8-0.8-1.8-1.8c0.3-15.4,14.1-23.9,18.5-26.2
						c-0.4-3.6,0.2-6.5,2-8.6c2.8-3.2,7.2-3,7.3-3l2.2,0.1l-0.6,2.2c-1,3.9-0.8,6.6,0.5,8.1c3,3.2,12.1,1.4,20.1-0.1
						c2-0.4,4-0.8,6-1.1c10-1.7,34.2-4.6,43.2,3.2c7.5,6.6,8.6,10.3,8.7,10.7c0.2,1-0.4,2-1.3,2.2c-1,0.2-1.9-0.3-2.2-1.3
						c0-0.1-1.1-3.2-7.5-8.9c-6.4-5.6-25-4.9-40.2-2.4c-1.9,0.3-3.9,0.7-5.9,1.1c-9.8,1.9-19.1,3.7-23.4-1c-1.9-2-2.5-4.9-1.9-8.8
						c-0.8,0.3-1.6,0.7-2.2,1.4c-1.2,1.4-1.6,3.8-1,6.9l0.3,1.4l-1.3,0.6c-0.2,0.1-17.3,8-17.6,23.6
						C913.3,152.3,912.5,153.1,911.5,153.1z"/>
				</g>
				<g>
					<path class="st32" d="M916.6,191.2c-0.1,0-0.2,0-0.3,0c-3-0.4-5.2-3.8-6.3-5.8l-0.3-0.7c-0.1-0.4-1.5-9.2,0-15.5
						c1.2-5.3,4-6.8,6.2-7c3.7-0.4,6.6,0.4,8.8,2.5c4,3.9,3.3,10.7,3.3,11c-0.1,1-1,1.7-2,1.6c-1-0.1-1.7-1-1.6-2
						c0-0.1,0.5-5.4-2.2-8c-1.3-1.3-3.2-1.8-5.8-1.5c-1.4,0.2-2.4,1.6-3,4.2c-1.2,5.1-0.2,12.3,0,13.8c1.2,2.1,2.6,3.6,3.5,3.7
						c1,0.1,1.7,1.1,1.5,2.1C918.3,190.5,917.5,191.2,916.6,191.2z"/>
				</g>
				<g>
					<path class="st32" d="M917.6,243.2c-1.1,0-2-0.3-2.9-1c-3.3-2.4-3.5-8.9-3.5-9.6c0-1,0.8-1.8,1.8-1.9c1,0,1.8,0.8,1.9,1.8
						c0.1,2.2,0.7,5.8,2.1,6.8c0.3,0.2,0.6,0.4,1.3,0.2c1.4-0.4,3.1-1.3,5-2.6c3.6-2.4,6.7-5.6,6.7-5.6c0.7-0.7,1.9-0.7,2.6,0
						s0.7,1.9,0,2.6c-0.1,0.1-3.4,3.4-7.3,6c-2.2,1.5-4.3,2.6-6,3.1C918.6,243.1,918.1,243.2,917.6,243.2z"/>
				</g>
				<g>
					<path class="st32" d="M947.9,255.2c-0.4,0-0.8,0-1.2-0.1c-4.2-0.9-3.9-7.7-3.8-10c0.1-3.8,0.8-7.3,0.8-7.5
						c0.2-1,1.1-1.6,2.1-1.5c1,0.2,1.6,1.1,1.5,2.1c0,0-0.6,3.4-0.8,7c-0.2,5.4,0.9,6.3,0.9,6.3c1.1,0.2,4.5-0.6,8.3-3.2
						c4.7-3.2,7.8-7.4,8.4-11.7c0.2-1,1.1-1.7,2.1-1.5c1,0.2,1.7,1.1,1.5,2.1c-0.8,5.2-4.5,10.3-10,14.1
						C954.3,253.8,950.6,255.2,947.9,255.2z"/>
				</g>
				<g>
					<path class="st32" d="M940.9,251.4c-0.6,0-1.2-0.3-1.5-0.9c-0.5-0.9-0.3-2,0.6-2.5c1-0.6,2-1.8,3.2-3.8
						c0.5-0.9,1.6-1.1,2.5-0.6c0.9,0.5,1.1,1.6,0.6,2.5c-1.5,2.5-2.9,4-4.4,5C941.6,251.3,941.3,251.4,940.9,251.4z"/>
				</g>
				<g>
					<path class="st32" d="M937.3,252.3c-1.8,0-3.9-0.4-6.4-0.9l-1.6-0.3c-2.6-0.5-4.6-1.7-5.8-3.7c-2.6-4-1-9.4-1-9.6
						c0.3-1,1.3-1.5,2.3-1.2c1,0.3,1.5,1.3,1.2,2.3l0,0c0,0-1.1,4.1,0.5,6.6c0.7,1.1,1.8,1.8,3.4,2.1l1.7,0.3
						c4.6,0.9,6.7,1.2,8.5,0.1c0.9-0.5,2-0.3,2.5,0.6c0.5,0.9,0.3,2-0.6,2.5C940.4,252,938.9,252.3,937.3,252.3z"/>
				</g>
				<g>
					<path class="st32" d="M912.4,274.7c-0.2,0-0.4,0-0.6-0.1c-0.9-0.3-1.5-1.4-1.1-2.3c2.1-6.1,12.1-25.7,12.5-26.6
						c0.5-0.9,1.5-1.3,2.4-0.8c0.9,0.5,1.2,1.5,0.8,2.4c-0.1,0.2-10.3,20.3-12.3,26.1C913.9,274.2,913.2,274.7,912.4,274.7z"/>
				</g>
				<g>
					<path class="st32" d="M912.9,324.9c-0.2,0-0.3,0-0.5-0.1c-1-0.3-1.5-1.3-1.2-2.3c0.1-0.3,2-6.6,6.5-9.4
						c2.4-1.5,3.6-2.7,4.2-3.3c0-1.9,0.2-7.1,2.6-19.1c3-14.9,14.2-40.9,15-42.2l0.5-0.9h0.8c0.1,0,0.2,0,0.3,0l0,0
						c1,0,1.8,0.8,1.8,1.8c0,0.4-0.1,0.7-0.3,1c-0.7,1.5-11.6,26.4-14.5,41c-2.9,14.4-2.5,18.8-2.5,18.8l0.1,0.6l-0.3,0.5
						c-0.1,0.2-1.5,2.3-5.6,4.9c-3.3,2-4.9,7.2-4.9,7.3C914.4,324.4,913.7,324.9,912.9,324.9z"/>
				</g>
				<g>
					<path class="st32" d="M970.6,334.9c-2.2,0-4.3-0.2-6.2-0.7c-8.1-2-11.4-19-10-50.6c0.3-7,0.8-11.9,0.8-11.9c0.1-1,1-1.7,2-1.6
						c1,0.1,1.7,1,1.6,2c0,0-0.5,4.9-0.8,11.8c-1.3,27.5,1.5,45.5,7.2,46.9c15.9,3.9,43.6-12.3,54.8-19.5c4.9-3.1,7.9-5.3,8-5.3
						l0.4-0.2c0.4-0.2,1.4-0.6,1.2-2.8c-0.3-3.8-4-10.7-9.7-18.4c-0.3-0.4-1.1-0.9-2-0.5l-0.8,0.4c-1.7,0.8-4,2-6.6,3.2
						c-4.6,2.3-15.9,7.9-20.9,10.8c-4,2.4-6.5,2.9-8.1,1.6c-1.1-0.9-1.3-2.4-1-3.5c0.1-2.9,1.8-39.5-2.8-49.3
						c-4.2-9-8.8-12.4-9.7-13l-0.2-0.1c-0.9-0.5-1.1-1.6-0.6-2.5c0.5-0.9,1.6-1.1,2.5-0.6l0.3,0.2c1.5,1,6.5,4.9,11,14.5
						c5.1,11,3.2,49.6,3.1,51.2l0,0c0.6-0.1,1.7-0.6,3.6-1.7c5.1-3,16.5-8.7,21.2-11c2.6-1.3,4.9-2.4,6.6-3.2l0.8-0.4
						c2.2-1.1,4.9-0.5,6.5,1.6c3.7,4.9,9.9,14.1,10.5,20.3c0.4,4-1.7,5.7-3.2,6.3c-0.7,0.5-3.6,2.5-8,5.3
						C1009.3,322.3,987.1,334.9,970.6,334.9z"/>
				</g>
				<g>
					<path class="st32" d="M918.6,342.6c-0.3,0-0.7-0.1-1-0.3c-0.8-0.5-1.1-1.7-0.6-2.5c0.1-0.1,9.2-14.5,18.3-28.7
						c19-29.6,19.4-29.5,21-29.4c0.7,0.1,1.3,0.6,1.5,1.3c0.3,0.9-0.1,1.8-0.9,2.2c-3,3.4-24,36.2-36.8,56.5
						C919.8,342.3,919.2,342.6,918.6,342.6z"/>
				</g>
				<g>
					<path class="st32" d="M1021,314.5c-0.1,0-0.2,0-0.3,0c-1-0.1-1.7-1.1-1.5-2.1c2.5-17.9-9.8-24.6-10.4-24.9
						c-0.9-0.5-1.2-1.6-0.8-2.4c0.5-0.9,1.5-1.2,2.4-0.8c0.2,0.1,15.2,8.1,12.3,28.6C1022.7,313.8,1021.9,314.5,1021,314.5z"/>
				</g>
				<g>
					<path class="st32" d="M1021.4,283.2c-0.8,0-1.6-0.6-1.8-1.4c-0.2-1,0.3-1.9,1.3-2.2c0.1,0,0.2,0,0.3-0.1
						c0.4-0.1,1.4-0.2,3.6-3.8c3.6-5.8,6.9-13.7,5.9-17c-0.5-1.6,0-3.2,1.3-4.2c1.6-1.2,4-1.1,5.9,0.2c1.6,1.1,5.2,4.8,2.7,14.3
						c-0.3,1-1.3,1.5-2.2,1.3c-1-0.3-1.5-1.3-1.3-2.2c1.6-6.2,0.3-9.5-1.4-10.5c-0.8-0.5-1.4-0.3-1.5-0.2c0,0,0,0.1,0.1,0.2
						c1.9,6.4-5.4,18.6-6.3,19.9c-2.7,4.4-4.5,5.2-6.1,5.5C1021.7,283.2,1021.5,283.2,1021.4,283.2z"/>
				</g>
				<g>
					<path class="st32" d="M1039.6,269c-0.7,0-1.3-0.4-1.7-1.1c-0.4-0.9,0-2,0.9-2.4c2.5-1.1,4.8-1.9,6.9-2.3c1-0.2,1.9,0.4,2.1,1.4
						c0.2,1-0.4,1.9-1.4,2.1c-1.8,0.4-3.9,1.1-6.1,2.1C1040.1,268.9,1039.9,269,1039.6,269z"/>
				</g>
				<g>
					<path class="st32" d="M1063,284.7C1062.9,284.7,1062.9,284.7,1063,284.7c-1.1,0-1.8-0.9-1.8-1.9c0.1-3.4-0.4-6.6-1.4-9.3
						c-2.3-5.9-6.7-8.1-13.2-6.8c-1,0.2-1.9-0.4-2.1-1.4c-0.2-1,0.4-1.9,1.4-2.1c8.2-1.7,14.4,1.5,17.3,9c1.2,3.1,1.8,6.9,1.7,10.8
						C1064.7,283.9,1063.9,284.7,1063,284.7z"/>
				</g>
				<g>
					<path class="st32" d="M1032.7,304.4C1032.7,304.4,1032.7,304.4,1032.7,304.4c-1,0-1.8-0.8-1.8-1.8v0c0-0.5,0.1-2,1.5-3.3
						c1.3-1.2,3.3-1.6,5.8-1.3c2.7,0.3,16.6,1.6,21.1-6.8c0.4-0.8,0.8-1.7,1-2.6c0.5-1.8,0.7-3.8,0.8-5.8c0-1,0.8-1.8,1.9-1.8
						c1,0,1.8,0.9,1.8,1.9c-0.1,2.3-0.4,4.6-0.9,6.6c-0.3,1.2-0.7,2.3-1.3,3.4c-5.6,10.5-21.6,9-24.8,8.7c-2-0.2-2.7,0.2-3,0.4
						c-0.3,0.2-0.3,0.6-0.3,0.6C1034.5,303.6,1033.7,304.4,1032.7,304.4z"/>
				</g>
				<g>
					<path class="st32" d="M1048.5,296.5c-3.2,0-5.8-0.7-7.5-2.1c-1.6-1.3-2.4-3.2-2.1-5.2c0.1-0.8,0.5-1.6,1.2-2.2
						c0.7-0.7,1.9-0.7,2.6,0c0.7,0.7,0.7,1.9,0,2.6c-0.1,0.1-0.1,0.2-0.1,0.2c-0.1,0.7,0.2,1.3,0.8,1.9c2.1,1.7,7.6,2.2,17.1-1.2
						c0.9-0.3,2,0.1,2.3,1.1c0.3,0.9-0.1,2-1.1,2.3C1056.6,295.6,1052.1,296.5,1048.5,296.5z"/>
				</g>
				<g>
					<path class="st32" d="M1041.3,290.1c-0.5,0-0.9-0.2-1.3-0.5c-0.7-0.7-0.7-1.9,0-2.6c3.8-3.8,18.4-5.5,22.8-5.9l0.2,0
						c1,0,1.8,0.8,1.8,1.8c0,1-0.8,1.8-1.8,1.8h0c-8.5,0.8-18.3,2.7-20.4,4.8C1042.2,289.9,1041.7,290.1,1041.3,290.1z"/>
				</g>
				<g>
					<path class="st32" d="M1040.7,290.1c-2,0-3.9-1.1-4.9-2.7c-1.2-2-1-4.4,0.6-6.6c0.1-0.1,0.2-0.3,0.4-0.6
						c4.2-5,22.2-8.7,24.2-9.1c1-0.2,1.9,0.4,2.1,1.4c0.2,1-0.4,1.9-1.4,2.1c-7.2,1.4-19.6,4.9-22.2,7.9c-0.1,0.1-0.1,0.2-0.2,0.2
						c-0.6,0.8-1.1,1.8-0.5,2.7c0.4,0.7,1.3,1.1,2.1,1l0.3,0c1,0,1.8,0.8,1.8,1.8c0,0.9-0.7,1.7-1.6,1.8
						C1041.2,290.1,1040.9,290.1,1040.7,290.1z"/>
				</g>
				<g>
					<path class="st32" d="M1036.8,283.2c-0.4,0-0.8-0.1-1.2-0.4c-2.4-2.1-3.6-4.4-3.5-6.8c0.1-2.9,2.1-5.8,5.8-8.5
						c2.7-2,5.7-3.4,7.1-4l0.3-0.3l0.8,0c1,0,1.8,0.8,1.8,1.8c0,0.6-0.3,1.1-0.7,1.4l-0.1,0.1l-0.3,0.1c-1.2,0.5-4.1,1.8-6.7,3.8
						c-2.8,2-4.2,4-4.3,5.7c-0.1,1.3,0.7,2.6,2.2,3.9c0.8,0.7,0.8,1.8,0.2,2.6C1037.8,283,1037.3,283.2,1036.8,283.2z"/>
				</g>
				<g>
					<path class="st32" d="M119.1,450.8l-29.4-89.3l118-39.3l31.6,90.2L119.1,450.8z M99,377.9l22.5,68.3l113.3-36.1l-29.2-83.3
						l-111.2,37L99,377.9z"/>
				</g>
				<g>
					<path class="st32" d="M97.2,380.3c-0.8,0-1.5-0.5-1.7-1.2c-0.3-1,0.2-2,1.2-2.3L210,339.1c1-0.3,2,0.2,2.3,1.2
						c0.3,1-0.2,2-1.2,2.3L97.8,380.2C97.6,380.2,97.4,380.3,97.2,380.3z"/>
				</g>
				<g>
					<path class="st32" d="M923.3,113.5h-12.2c-1,0-1.9-0.8-1.9-1.8c0-1,0.7-1.8,1.8-1.8h12.3c0.8,0,1.4-0.2,1.6-0.4
						c0.2-0.3,0.2-0.7,0.2-0.7c0-0.7-2.8-58.4-3.6-66c-0.2-1.9-0.6-3.6-1-5c-1-3.1-2.4-3.7-3-3.6l-0.2,0.1l-0.2,0
						c-1.2,0-119.2,1.5-126.9,1.6c-5.4,0.1-6.4,3.5-6.6,4.5l7.5,54.5c0.1,1-0.6,1.9-1.6,2c-1,0.1-1.9-0.6-2-1.6l-7.6-55l0-0.2
						c0.3-2.7,2.7-7.8,10.1-7.9c7.6-0.2,121.7-1.6,126.7-1.6c1.2-0.2,5-0.3,7.1,6c0.6,1.7,0.9,3.6,1.2,5.8
						c0.8,7.7,3.5,63.7,3.6,66.1c0,0,0.2,1.9-1.1,3.4C926.7,112.9,925.2,113.5,923.3,113.5z"/>
				</g>
				<g>
					<path class="st32" d="M854.4,79.1l-73.5-37.2c-0.9-0.5-1.3-1.5-0.8-2.4c0.5-0.9,1.5-1.3,2.4-0.8l71.7,36.3l66.8-39.4
						c0.9-0.5,2-0.2,2.5,0.6c0.5,0.9,0.2,2-0.6,2.5L854.4,79.1z"/>
				</g>
				<g>
					<path class="st32" d="M865.1,425.4c-32.5,0-59-26.5-59-59c0-32.5,26.5-59,59-59c19.4,0,37.6,9.5,48.6,25.5
						c1.7,2.5,3.3,5.1,4.6,7.9l0,0c3.9,8,5.8,16.6,5.8,25.6C924.1,398.9,897.7,425.4,865.1,425.4z M865.1,311
						c-30.5,0-55.4,24.8-55.4,55.4c0,30.5,24.8,55.4,55.4,55.4c30.5,0,55.4-24.9,55.4-55.4c0-8.4-1.8-16.5-5.5-24
						c-1.3-2.6-2.7-5.1-4.3-7.4C900.4,319.9,883.3,311,865.1,311z"/>
				</g>
				<g>
					<path class="st32" d="M895.3,377.5h-35.6v-45.2c0-1,0.8-1.8,1.8-1.8c1,0,1.8,0.8,1.8,1.8v41.6h32c1,0,1.8,0.8,1.8,1.8
						S896.3,377.5,895.3,377.5z"/>
				</g>
				<g>
					<path class="st32" d="M807.9,368.2H221.3c-1,0-1.8-0.8-1.8-1.8s0.8-1.8,1.8-1.8h586.6c1,0,1.8,0.8,1.8,1.8
						S808.9,368.2,807.9,368.2z"/>
				</g>
				<g>
					<path class="st32" d="M912.9,335.2c-1,0-1.8-0.8-1.8-1.8l-1.9-236.6H233.9c-1,0-1.8-0.8-1.8-1.8c0-1,0.8-1.8,1.8-1.8h678.9
						l2,240.2C914.8,334.4,914,335.2,912.9,335.2C912.9,335.2,912.9,335.2,912.9,335.2z"/>
				</g>
				<g>
					<path class="st32" d="M122.7,303C122.7,303,122.7,303,122.7,303c-1,0-1.8-0.8-1.8-1.8l0.5-74.6l0.9-133.3h68.8
						c1,0,1.8,0.8,1.8,1.8c0,1-0.8,1.8-1.8,1.8H126l-1.4,204.3C124.5,302.2,123.7,303,122.7,303z"/>
				</g>
				<g>
					<path class="st32" d="M122.3,354.3c-1,0-1.8-0.8-1.8-1.8V329c0-1,0.8-1.8,1.8-1.8c1,0,1.8,0.8,1.8,1.8v23.5
						C124.2,353.5,123.3,354.3,122.3,354.3z"/>
				</g>
				<g>
					<path class="st32" d="M146.7,417.5c-2.9,0-5.8-1.1-8.6-3.1c-3.8-2.8-6.8-7.1-8.5-12.2c-1.7-5.1-1.9-10.4-0.6-14.9
						c1.4-4.7,4.4-8.1,8.3-9.4c7.9-2.6,17.1,4,20.7,14.8l0,0c2.1,6.2,1.9,12.9-0.6,17.7c-1.6,3.3-4.1,5.5-7.2,6.5
						C149.1,417.3,147.9,417.5,146.7,417.5z M140.9,380.9c-0.8,0-1.7,0.1-2.5,0.4c-2.8,0.9-4.9,3.4-5.9,7c-1.1,3.8-0.9,8.3,0.5,12.7
						c1.5,4.4,4,8.1,7.2,10.5c3,2.2,6.2,2.9,8.9,2c2.1-0.7,3.9-2.3,5.1-4.7c2-4,2.1-9.6,0.4-15l0,0
						C152,386.2,146.3,380.9,140.9,380.9z"/>
				</g>
				<g>
					<path class="st32" d="M181.4,405.3c-0.8,0-1.5-0.5-1.7-1.2c-0.1-0.2-7-20.6-10.1-30.1c-0.5-1.4-0.8-2.5-1.2-3.2l-2.1,8.1
						c-0.3,1-1.2,1.6-2.2,1.3c-1-0.3-1.6-1.2-1.3-2.2l2.6-9.9c0.3-1.1,1.1-2.4,2.6-2.5c0,0,0.1,0,0.1,0c1.9,0,3.3,2,5,7.3
						c3,9.4,10,29.8,10.1,30c0.3,1-0.2,2-1.1,2.3C181.8,405.3,181.6,405.3,181.4,405.3z"/>
				</g>
				<g>
					<path class="st32" d="M172.7,409.6c-0.7,0-1.4-0.4-1.7-1.1c-0.4-0.9,0.1-2,1-2.4l19.3-7.7c0.9-0.4,2,0.1,2.4,1
						c0.4,0.9-0.1,2-1,2.4l-19.3,7.7C173.1,409.6,172.9,409.6,172.7,409.6z"/>
				</g>
				<g>
					<path class="st32" d="M866,416.7c-28.1,0-51-22.9-51-51c0-28.1,22.9-51,51-51c28.1,0,51,22.9,51,51
						C916.9,393.9,894.1,416.7,866,416.7z M866,316.6c-27.1,0-49.1,22-49.1,49.1c0,27.1,22,49.1,49.1,49.1c27.1,0,49.1-22,49.1-49.1
						C915.1,338.7,893.1,316.6,866,316.6z"/>
				</g>
			</g>
		</g>
	</g>
</g>
</svg>
