<?xml version="1.0" encoding="utf-8"?>
<!-- Generator: Adobe Illustrator 19.1.0, SVG Export Plug-In . SVG Version: 6.00 Build 0)  -->
<svg version="1.1" id="Layer_1" xmlns="http://www.w3.org/2000/svg" xmlns:xlink="http://www.w3.org/1999/xlink" x="0px" y="0px"
	 viewBox="0 0 845 636" style="enable-background:new 0 0 845 636;" xml:space="preserve">
<style type="text/css">
	.st0{opacity:0.1;}
	.st1{fill:#A2B8F8;}
	.st2{fill:#FFFFFF;}
	.st3{fill:#40E6FB;}
	.st4{fill:#E6E7E8;}
	.st5{fill:#F8DCA0;}
	.st6{fill:#9BF3DB;}
	.st7{fill:#FE93C5;}
	.st8{fill:#5A73DF;}
	.st9{fill:#F9EFE0;}
	.st10{fill:#8BD9AC;}
	.st11{fill:#6BDCA8;}
	.st12{fill:#3799F0;}
	.st13{fill:#455EB2;}
	.st14{fill:#EC818D;}
	.st15{fill:#F4C567;}
	.st16{fill:#394B83;}
	.st17{fill:#937753;}
	.st18{fill:#DDB9E5;}
	.st19{fill:#F16979;}
	.st20{fill:#FFFF83;}
	.st21{fill:#FE78B7;}
	.st22{fill:none;stroke:#455EB2;stroke-width:2;stroke-miterlimit:10;}
	.st23{fill:#F6D083;}
	.st24{fill:#5272E7;}
	.st25{fill:#5798E9;}
	.st26{fill:#FFDB97;}
	.st27{fill:#FBEFDE;}
	.st28{fill:#405DB3;}
	.st29{fill:none;stroke:#455EB2;stroke-miterlimit:10;}
	.st30{fill:#FFC352;}
	.st31{fill:#9BCCF8;}
	.st32{fill:#475FAB;}
	.st33{fill:#BAE5F5;}
	.st34{fill:#CBE7D7;}
	.st35{fill:#FFAFA7;}
	.st36{fill:#70ECFC;}
	.st37{fill:#485FAB;}
	.st38{fill:#FEFAE7;}
	.st39{fill:#C0E5F1;}
	.st40{fill:#FFF4DD;}
	.st41{fill:#A1C9EB;}
	.st42{fill:#3094D1;}
	.st43{fill:#FFFEF4;}
	.st44{fill:#FBCED3;}
	.st45{fill:#1035A0;}
	.st46{fill:#F1F2F2;}
	.st47{fill:#F15F79;}
	.st48{fill-rule:evenodd;clip-rule:evenodd;fill:#03E3A8;stroke:#000000;stroke-width:0.75;stroke-miterlimit:10;}
	.st49{fill-rule:evenodd;clip-rule:evenodd;fill:#F6F6F6;stroke:#000000;stroke-width:0.75;stroke-miterlimit:10;}
	.st50{fill-rule:evenodd;clip-rule:evenodd;fill:#F14C47;}
	.st51{fill-rule:evenodd;clip-rule:evenodd;fill:#826EA1;}
	.st52{fill-rule:evenodd;clip-rule:evenodd;fill:#25A65C;}
	.st53{fill-rule:evenodd;clip-rule:evenodd;fill:#FFFFFF;}
	.st54{fill-rule:evenodd;clip-rule:evenodd;fill:#03E3A8;stroke:#000000;stroke-width:0.7;stroke-miterlimit:10;}
	.st55{fill-rule:evenodd;clip-rule:evenodd;fill:#03E3A8;}
	.st56{fill:#FFFFFF;stroke:#000000;stroke-miterlimit:10;}
	.st57{clip-path:url(#SVGID_2_);}
	.st58{fill:#03E3A8;}
	.st59{fill:#F1AF00;}
	.st60{fill:#FFEFDD;}
	.st61{fill:none;stroke:#231F20;stroke-linecap:round;stroke-linejoin:round;stroke-miterlimit:10;}
	.st62{fill:#1035A0;stroke:#231F20;stroke-miterlimit:10;}
	.st63{fill:#231F20;}
	.st64{fill:none;stroke:#000000;stroke-miterlimit:10;}
	.st65{fill:none;stroke:#000000;stroke-linecap:round;stroke-linejoin:round;stroke-miterlimit:10;}
	.st66{fill:#F6F6F6;stroke:#000000;stroke-width:0.75;stroke-miterlimit:10;}
	.st67{fill:#FF7A6C;stroke:#000000;stroke-width:0.75;stroke-miterlimit:10;}
	.st68{clip-path:url(#SVGID_4_);}
	.st69{fill:#FF7A6C;}
	.st70{fill:#FCE2A2;}
	.st71{fill:#F9A09B;}
	.st72{fill:#69B2F4;}
	.st73{fill:#0C308C;}
	.st74{fill:#49A5EA;}
	.st75{fill:#FF9E6E;}
	.st76{fill:#EF9C95;stroke:#000000;stroke-width:0.75;stroke-miterlimit:10;}
	.st77{fill:#C1DDF4;stroke:#000000;stroke-width:0.75;stroke-miterlimit:10;}
	.st78{clip-path:url(#SVGID_6_);}
	.st79{fill:#E0E0E0;}
	.st80{fill:#EF7F8F;}
	.st81{clip-path:url(#SVGID_8_);fill:#FCE2A2;stroke:#231F20;stroke-width:0.7;stroke-miterlimit:10;}
	.st82{clip-path:url(#SVGID_8_);}
	.st83{fill:#EF9C95;}
	.st84{fill:#10E0FA;stroke:#000000;stroke-width:0.75;stroke-miterlimit:10;}
	.st85{fill:#F6F6F6;}
	.st86{clip-path:url(#SVGID_10_);}
	.st87{fill:#1C75BC;}
	.st88{fill:none;stroke:#000000;stroke-width:0.5;stroke-linecap:round;stroke-linejoin:round;}
	.st89{fill:#9FF3FD;}
	.st90{clip-path:url(#SVGID_12_);}
	.st91{clip-path:url(#SVGID_14_);}
	.st92{clip-path:url(#SVGID_16_);}
	.st93{fill:#7DD7EF;}
	.st94{fill:#EDD07E;}
	.st95{fill:#6AECC8;}
	.st96{fill:#FF9589;}
	.st97{fill:#FEAED4;}
	.st98{fill:#CD97D9;}
	.st99{fill:#CFF9FE;}
	.st100{fill:none;stroke:#475FAB;stroke-width:2;stroke-linecap:round;stroke-miterlimit:10;}
	.st101{fill:#7AA7D9;}
	.st102{fill:#3E658C;}
	.st103{fill:#5C7DA5;}
	.st104{fill:#6985AC;}
	.st105{fill:url(#SVGID_17_);}
	.st106{fill:url(#SVGID_18_);}
	.st107{fill:url(#SVGID_19_);}
	.st108{fill:#485A93;}
</style>
<g>
	<g class="st0">
		<path class="st1" d="M19.6,375.7c38,165.3,377,277.4,541.1,239.7c164.1-37.7,298.9-258.8,260.9-424.1S688.7-70,475.2,111.1
			C346.5,220.1-18.4,210.4,19.6,375.7z"/>
	</g>
	<g>
		<rect x="198.9" y="407.5" class="st15" width="256.7" height="28.8"/>
		<polygon class="st18" points="275.3,359.8 235.7,364.6 222.9,372.8 222.9,398.7 247.1,408.6 275.3,408.6 281.6,403 288.9,394.5 
			291.5,382.3 292.9,369.8 291.5,364.6 288.4,358.5 		"/>
		<polygon class="st31" points="250.6,408.1 249.4,403.6 240.4,398.1 227.4,391.8 212.6,389.2 197,391.9 197,408.1 		"/>
		<path class="st4" d="M396.7,361c0,0.5-12.8,36.8-12.8,36.8l-6.3,1.9l-3.1,3.3l-0.8,4.6l104.4,0.4l0.2-5.1l-2.4-3.3l-10.3-1.6
			l-33-21.7l-28.8-15.2L396.7,361z"/>
		<polygon class="st2" points="549.4,409.5 543.7,401.5 526.9,394.5 507.6,397.8 498.6,405 499.3,410.1 		"/>
		<polygon class="st2" points="304.6,182.6 307.1,334.8 550.3,185.3 		"/>
		<polygon class="st2" points="214.1,180.3 214.1,208.8 192.5,243.9 163.9,296.8 152.9,300.3 148.2,304.9 147.1,314.6 150.9,320.3 
			155.8,325.4 161.3,329.9 203,392.8 216.9,391.1 216.9,387.6 170.9,323.8 174.5,319.4 176.8,310.1 177.1,308.8 210.1,247.6 
			235.5,286.7 245.8,279.6 268.9,250.1 278.6,220.6 282.1,210.6 282.1,174 214.6,174 		"/>
		<g>
			<g>
				<path class="st95" d="M742.4,353.3c-0.2,0.1-4.2,1.9-3.9,2.2c0.1,0.5,0.3,1,0.4,1.5c0.1-0.5,1.7-1.5,2.2-1.8
					c1.2-1,2.5-1.9,3.9-2.8c2.2-1.5,4.5-2.8,6.9-4c1.7-0.9,0.2-3.4-1.5-2.6c-2.8,1.4-5.5,2.9-8.1,4.7c-1.8,1.2-4.8,2.9-5.9,4.8
					c-0.7,1.1-0.4,2.6,1,3c1.9,0.7,5-1.7,6.6-2.5C745.7,355.1,744.1,352.5,742.4,353.3L742.4,353.3z"/>
			</g>
		</g>
		<g>
			<g>
				<path class="st95" d="M736.6,359.2c1.9,0,1.9-3,0-3C734.6,356.2,734.6,359.2,736.6,359.2L736.6,359.2z"/>
			</g>
		</g>
		<g>
			<g>
				<path class="st95" d="M739.5,358.9c2.9-0.2,6.7,0.2,9.5-0.6c2.1-0.6,2.6-2.3,3.2-4.1c1.7-4.6,4.3-9.9,1.5-14.5
					c-0.5-0.8-1.7-1-2.4-0.3c-2.8,3.2-5.4,6.6-8.4,9.5c-2.2,2.2-5.1,2.9-5.9,6.1c-0.5,1.9,2.4,2.7,2.9,0.8c0.6-2.1,4.9-4.5,6.5-6.2
					c2.4-2.7,4.7-5.4,7.1-8.1c-0.8-0.1-1.6-0.2-2.4-0.3c2,3.4-0.3,7.7-1.5,11.1c-0.7,2.1-1.1,2.9-3.4,3.3c-2.2,0.4-4.6,0.3-6.8,0.4
					C737.6,356,737.6,359,739.5,358.9L739.5,358.9z"/>
			</g>
		</g>
		<g>
			<g>
				<path class="st95" d="M744.1,357.7c2.7-1,5.4-2.5,7.1-4.9c1.5-2.1,0.9-4.8,2.9-6.5c-1.9-1.1-3.9-2.3-5.8-3.4
					c-0.6,3-1.5,7-4.1,8.9c-1.4,1-2.2,2.7-1.4,4.4c0.6,1.4,2.5,2.7,4.1,2c0.1-0.1,0.3-0.1,0.4-0.2c1.8-0.7,3-2.3,2.4-4.3
					c-0.5-1.7-2.5-3.2-4.3-2.4c-0.1,0.1-0.3,0.1-0.4,0.2c0.9,2.1,1.8,4.3,2.7,6.4c4.3-3.3,6.2-7.9,7.3-13.1c0.7-3.5-3.2-5.7-5.8-3.4
					c-1.7,1.4-2.9,3.4-3.3,5.6c-0.2,0.9-0.1,1.5-0.8,2.2c-0.7,0.8-1.9,1.4-2.9,1.7C738.1,352.5,739.9,359.3,744.1,357.7L744.1,357.7
					z"/>
			</g>
		</g>
		<g>
			<g>
				<path class="st95" d="M700.1,340.2c-1.1-0.6-3-1.2-3.7-2.2c-0.5-0.6-0.5-1.4-1.1-2c-0.9-0.9-2-1.4-3.3-1.3
					c-3.8,0.3-4.9,5.7-0.9,6.9c1.5,0.5,3,1,4.5,1.5c1.2,0.4,2.7,0.8,3.7,1.6c-0.4-0.4-0.8-0.8-1.3-1.3c0.1,0.1,0.2,0.2,0.2,0.4
					c2.4,3.8,8.5,0.3,6-3.5c-1.2-1.9-3.3-2.5-5.3-3.3c-2-0.8-4-1.5-6.1-2.1c-0.3,2.3-0.6,4.6-0.9,6.9c0.1,0,0.3,0,0.4,0
					c-0.6-0.2-1.2-0.3-1.8-0.5c0.1,0.1,0.2,0.2,0.4,0.3c-0.4-0.4-0.8-0.8-1.3-1.3c0.7,1.5,1.3,2.6,2.7,3.6c1.3,0.9,2.7,1.6,4,2.4
					C700.5,348.3,704.1,342.3,700.1,340.2L700.1,340.2z"/>
			</g>
		</g>
		<g>
			<g>
				<path class="st95" d="M690.4,342c1,5.8,6.3,10,10.4,13.8c3.3,3,8.3-1.9,4.9-4.9c-3.2-2.9-7.8-6.2-8.6-10.7
					c-0.3-1.9-2.6-2.9-4.3-2.4C690.9,338.2,690.1,340.1,690.4,342L690.4,342z"/>
			</g>
		</g>
		<g>
			<g>
				<path class="st95" d="M694.2,351.5c0.9,0.8,1.4,1.7,2.3,2.5c1.1,1,2.5,1.6,3.8,2.2c2.8,1.3,5.6,2.5,8.5,3.5
					c4.2,1.5,6.1-5.2,1.9-6.7c-2.3-0.8-4.6-1.8-6.8-2.8c-1-0.5-2.1-0.9-2.9-1.6c-0.7-0.6-1.1-1.4-1.8-2
					C695.8,343.6,690.8,348.5,694.2,351.5L694.2,351.5z"/>
			</g>
		</g>
		<g>
			<g>
				<path class="st95" d="M702.2,355.7c0,0,0,0.1,0,0.1c0,1.8,1.6,3.6,3.5,3.5c1.9-0.1,3.5-1.5,3.5-3.5c0,0,0-0.1,0-0.1
					c0-1.8-1.6-3.6-3.5-3.5C703.8,352.3,702.2,353.7,702.2,355.7L702.2,355.7z"/>
			</g>
		</g>
		<g>
			<g>
				<path class="st95" d="M695.8,344.7c1,2.9,3.8,4.4,6.3,5.8c2.6,1.5,5.4,2.7,8.2,3.8c4.2,1.6,6.1-5.2,1.9-6.7
					c-1.9-0.7-3.7-1.5-5.4-2.5c-0.7-0.4-1.5-0.8-2.2-1.3c-0.5-0.3-1-0.6-1.4-0.9c-0.7-0.7-0.9-0.7-0.5,0
					C701.1,338.6,694.4,340.5,695.8,344.7L695.8,344.7z"/>
			</g>
		</g>
		<g>
			<g>
				<path class="st95" d="M702.1,316.4c0-0.2,0-1.2-0.2-0.5c0.1-0.8,0.6-1.2,0.6-2.1c0-0.8-0.4-1.9-0.3-2.3c0.3-1.8-0.5-3.9-2.4-4.3
					c-1.7-0.4-4,0.5-4.3,2.4c-0.1,0.7-0.2,1.5-0.2,2.2c0,0.5,0,1.7,0.4,2.2c0.2-1.6,0.1-1.7-0.3-0.5c-0.1,0.2-0.2,0.5-0.2,0.7
					c-0.1,0.7-0.1,1.4-0.1,2.1c0.2,1.8,1.5,3.6,3.5,3.5C700.4,319.8,702.3,318.4,702.1,316.4L702.1,316.4z"/>
			</g>
		</g>
		<g>
			<g>
				<path class="st95" d="M696.9,312.7c-0.4,1-0.9,1.9-1.3,2.9c-0.6,1.3-1.2,2.5-1,4c0.2,1.6,1.4,2.9,3,3.3c1.6,0.4,3.2-0.2,4.4-1.3
					c1.3-1.3,1.4-3.7,0-4.9c-1.4-1.3-3.6-1.4-4.9,0c0.7-0.2,1.5-0.4,2.2-0.6c0.5,0.3,1,0.6,1.5,0.9c0.1,0.1,0.2,0.2,0.3,0.4
					c0.2,0.6,0.3,1.2,0.5,1.8c-0.2,0.8-0.3,0.9-0.1,0.5c0.1-0.2,0.2-0.4,0.2-0.5c0.1-0.3,0.3-0.6,0.4-0.9c0.3-0.7,0.6-1.3,0.9-2
					c0.7-1.7,0.5-3.8-1.3-4.8C700.2,310.7,697.7,311,696.9,312.7L696.9,312.7z"/>
			</g>
		</g>
		<g>
			<g>
				<path class="st95" d="M702.7,321.2c-0.1,0-0.1,0.1-0.2,0.1c-0.9-0.1-1.8-0.2-2.7-0.4c0.2,0.1,0.5,0.2,0.7,0.3
					c-0.6-1-1.2-2-1.7-3c0,0.2,0,0.5,0.1,0.7c0.6-1,1.2-2,1.7-3c-2.4,1.7-4.9,1.9-5.5,5.2c-0.6,3.4,0.6,8.1,1.5,11.4
					c1.9,7.7,5.9,14.8,12.2,19.8c3.5,2.8,8.5-2.2,4.9-4.9c-7.2-5.7-12.8-16.8-11.6-26.2c-0.6,1-1.2,2-1.7,3c2.5-1.9,7.1-3,5.2-7.2
					c-1.6-3.4-5.3-2.7-7.7-0.7C694.3,319.2,699.3,324.1,702.7,321.2L702.7,321.2z"/>
			</g>
		</g>
		<g>
			<g>
				<path class="st95" d="M704.6,350.5c0.3,3.9,2.4,6.2,6.3,7c4.3,0.8,8.6,1.2,12.9,0.1c4.3-1.2,2.5-7.9-1.9-6.7
					c-2.2,0.6-4.3,0.6-6.6,0.3c-1-0.1-2-0.4-2.9-0.5c-0.4-0.1-0.8-0.2-1.1-0.3c0.4,0.7,0.5,0.8,0.4,0.1
					C711.3,346,704.3,346,704.6,350.5L704.6,350.5z"/>
			</g>
		</g>
		<g>
			<g>
				<path class="st95" d="M707.4,357.2c0.7,1.1,1.6,1.7,2.9,1.9c1.3,0.2,2.4-0.2,3.3-1.1c1.4-1.2,1.3-3.7,0-4.9
					c-1.5-1.3-3.5-1.3-4.9,0c0,0-0.1,0.1-0.1,0.1c0.2-0.2,0.5-0.4,0.7-0.5c0,0-0.1,0-0.1,0c0.3-0.1,0.6-0.2,0.8-0.4c0,0-0.1,0-0.1,0
					c0.3,0,0.6-0.1,0.9-0.1c0,0-0.1,0-0.1,0c0.3,0,0.6,0.1,0.9,0.1c0,0-0.1,0-0.1,0c0.3,0.1,0.6,0.2,0.8,0.4c0,0-0.1,0-0.1,0
					c0.2,0.2,0.5,0.4,0.7,0.5c0,0-0.1,0-0.1-0.1c0.2,0.2,0.4,0.5,0.5,0.7c0,0,0-0.1-0.1-0.1c-0.5-0.8-1.2-1.4-2.1-1.6
					c-0.8-0.2-2-0.1-2.7,0.4C707.1,353.4,706.3,355.6,707.4,357.2L707.4,357.2z"/>
			</g>
		</g>
		<g>
			<g>
				<path class="st95" d="M711.6,359.1c8.9,0.2,17.8,0,26.8-0.4c4.5-0.2,4.5-7.2,0-7c-8.9,0.4-17.8,0.6-26.8,0.4
					C707.1,352,707.1,359,711.6,359.1L711.6,359.1z"/>
			</g>
		</g>
		<g>
			<g>
				<path class="st95" d="M698.4,322.4c0.6,5.5,3.4,10.6,6,15.4c2.9,5.5,6.4,10.8,10.1,15.8c1.6-1.6,3.2-3.2,4.8-4.8
					c-3.8-1.6-5-5.2-7.1-8.5c-1.8-2.8-4-5.3-6.5-7.5c-3.4-3-8.3,2-4.9,4.9c5.6,5,7.8,14.1,15,17.1c2.8,1.2,7.2-1.6,4.8-4.8
					c-3-4.1-5.9-8.3-8.4-12.7c-2.5-4.4-6.2-10-6.8-15C704.9,318,697.9,317.9,698.4,322.4L698.4,322.4z"/>
			</g>
		</g>
		<g>
			<g>
				<path class="st95" d="M714.3,357.5c1.4,0.3,2.7,0.3,4.2-0.1c1.8-0.4,3-2.5,2.4-4.3c-0.6-1.8-2.4-2.9-4.3-2.4
					c-0.2,0-0.3,0.1-0.5,0.1c0.3,0,0.6-0.1,0.9-0.1c-0.5,0.1-0.9,0.1-1.4,0c0.3,0,0.6,0.1,0.9,0.1c-0.1,0-0.2,0-0.4-0.1
					c-0.9-0.2-1.9-0.1-2.7,0.4c-0.7,0.4-1.4,1.3-1.6,2.1C711.5,355,712.4,357.2,714.3,357.5L714.3,357.5z"/>
			</g>
		</g>
		<g>
			<g>
				<path class="st95" d="M708.4,321.5c-0.7-1.2-1.3-1.9-2.6-2.5c-3-1.5-6.7,1.6-4.8,4.8c1.8,2.9,4,5.2,6.3,7.7
					c2.4,2.7,3.2,5.9,4.9,9c1.6,2.8,3.9,5.1,5.3,8.1c0.5,1.2,0.8,2.2,1.5,3.3c0.7,1,2.1,1.8,2.6,2.8c2.1-0.9,4.3-1.8,6.4-2.7
					c-2.6-4.8-5.7-9.2-9.2-13.3c-1.7-2-3.5-3.9-4.8-6.1c-1.3-2.1-2-4.4-3.5-6.4c-2-2.6-6.5-2-6.5,1.8c0,6.1,4.6,11.8,7.5,16.9
					c3.5,6,7.4,9.1,13.3,12.8c3.8,2.4,7.3-3.6,3.5-6c-4.6-2.9-8-5.5-10.8-10.3c-2.1-3.7-6.6-9-6.6-13.4c-2.2,0.6-4.3,1.2-6.5,1.8
					c2.8,3.7,4.4,7.9,7.4,11.5c3.8,4.5,7.3,9.1,10.1,14.3c1.9,3.4,8,1,6.4-2.7c-1.2-2.8-3.2-4.9-4.5-7.6c-1.4-2.8-3.6-4.9-5.1-7.6
					c-1.6-2.8-2.4-6-4.3-8.6c-2.3-3.1-5.3-5.4-7.3-8.7c-1.6,1.6-3.2,3.2-4.8,4.8c0,0,0,0,0.1,0C704.6,329,710.6,325.4,708.4,321.5
					L708.4,321.5z"/>
			</g>
		</g>
		<g>
			<g>
				<path class="st95" d="M711.4,319.9c-2.5-3.5,0.8-8.4,2.2-11.8c1.7-4.1,3.5-8.1,5.6-12c2.2-3.9-3.9-7.5-6-3.5
					c-3.1,5.6-5.4,11.5-7.9,17.3c-2,4.7-3.2,9,0,13.5C707.9,327.1,714,323.6,711.4,319.9L711.4,319.9z"/>
			</g>
		</g>
		<g>
			<g>
				<path class="st95" d="M713.5,300.2c-5.5,9.2-13.6,16.8-11.5,28.4c0.4,2.1,3.4,3.4,5.1,2.1c0.7-0.6,1.5-1.1,2.2-1.7
					c3.6-2.7,0.1-8.8-3.5-6c-0.7,0.6-1.5,1.1-2.2,1.7c1.7,0.7,3.4,1.4,5.1,2.1c-1.6-8.8,6.7-16.2,10.8-23
					C721.8,299.8,715.8,296.3,713.5,300.2L713.5,300.2z"/>
			</g>
		</g>
		<g>
			<g>
				<path class="st95" d="M707.6,329.5c4.5,0,4.5-7,0-7C703.1,322.5,703.1,329.5,707.6,329.5L707.6,329.5z"/>
			</g>
		</g>
		<g>
			<g>
				<path class="st95" d="M711.2,306.5c0.7,7.5-0.7,14.5-4.3,21.1c2.1,0.9,4.3,1.8,6.4,2.7c2.1-6.9,5.3-13.2,6.2-20.4
					c0.4-3.5-5-4.7-6.5-1.8c-3.6,7-10.2,10.8-11.3,19.1c-0.4,3.5,5,4.6,6.5,1.8c2.7-4.9,5.4-9.8,8.3-14.6c-1.8,0.2-3.7,0.5-5.5,0.7
					c0.2,0.2-0.6,5.8-0.6,6.5c-0.3,2.9-0.9,5.8-1.5,8.7c-0.7,3.6,4.7,6.6,6.4,2.7c4-8.8,9.5-16.7,14.6-25c-2.1-0.9-4.3-1.8-6.4-2.7
					c-3.1,8.9-6.4,17.7-10.1,26.4c-1.7,4.1,5,6,6.8,1.9c3.6-8.7,7-17.5,10.1-26.4c1.3-3.8-4.4-6-6.4-2.7c-5.1,8.2-10.6,16.1-14.6,25
					c2.1,0.9,4.3,1.8,6.4,2.7c0.8-4.5,1.7-9,2-13.5c0.2-2.8,0.7-6.5-1.7-8.5c-1.7-1.5-4.3-1.3-5.5,0.7c-2.9,4.8-5.6,9.7-8.3,14.6
					c2.2,0.6,4.3,1.2,6.5,1.8c0.7-6.1,7.6-10.3,10.3-15.6c-2.2-0.6-4.3-1.2-6.5-1.8c-0.8,6.5-4,12.4-6,18.6
					c-1.2,3.8,4.5,6.2,6.4,2.7c4.2-7.6,6.1-16,5.3-24.7C717.7,302.1,710.7,302,711.2,306.5L711.2,306.5z"/>
			</g>
		</g>
		<g>
			<g>
				<path class="st95" d="M720.2,318.3c1-1.2,1.8-2.4,2.5-3.7c1-1.8,2.3-3,3.6-4.5c2.4-2.8,4.1-6,5.1-9.5c1.2-4.3-5.5-6.2-6.7-1.9
					c-0.9,3.2-2.5,5.6-4.7,8c-1.9,2-2.8,4.6-4.6,6.6C712.3,316.7,717.2,321.7,720.2,318.3L720.2,318.3z"/>
			</g>
		</g>
		<g>
			<g>
				<path class="st95" d="M722.4,308.4c0-2.6,1.8-5.4,3.1-7.6c2.3-3.9-3.8-7.4-6-3.5c-1.9,3.3-4.1,7.2-4.1,11.1
					C715.5,312.9,722.5,312.9,722.4,308.4L722.4,308.4z"/>
			</g>
		</g>
		<g>
			<g>
				<path class="st95" d="M719.7,303.6c0.2-2.3,2.6-4.6,4-6.2c0.9-1,3-4,4.4-4.3c-1.1-0.3-2.3-0.6-3.4-0.9
					c4.8,3.9,8.9,11.1,10.9,16.9c1.5,4.2,8.3,2.4,6.7-1.9c-1.6-4.6-3.9-8.7-6.7-12.6c-1.9-2.6-4.6-7.7-8-8.3
					c-3.6-0.6-6.9,3.8-8.9,6.1c-2.9,3.3-5.7,6.6-6.1,11.2C712.3,308.1,719.3,308,719.7,303.6L719.7,303.6z"/>
			</g>
		</g>
		<g>
			<g>
				<path class="st95" d="M724.7,292.8c-1.6,3-2.3,6.1-2.2,9.5c0.2,4,5.5,4.6,6.9,0.9c1-2.7,1.8-6.8-0.7-9c-1.9-1.7-6.1-2.3-8-0.3
					c-3.5,3.5-2.4,15.2,4,14.6c5.1-0.5,12.7-10.6,5.1-13.2c-6-2-10.4,9.3-6.6,13.1c0.8,0.8,2.3,1.3,3.4,0.9c3.8-1.4,5.9-5.4,6.5-9.2
					c-2.3,0-4.5,0-6.7,0c1.6,4.5,3,9.1,4,13.8c0.9,4.4,7.7,2.5,6.7-1.9c-1-4.7-2.3-9.3-4-13.8c-1-2.9-6.2-3.7-6.7,0
					c-0.1,1-0.8,4.1-1.6,4.4c1.1,0.3,2.3,0.6,3.4,0.9c1.3,1.3,0.8-1.1,1.8-1.8c-0.9,0.1-1.8,0.2-2.7,0.4c-0.9-1.9-1.7-2.4-2.6-1.3
					c-1.1,0.7-0.7,1,1.2,0.9c0.2-0.1,0.1-3,0.3-3.5c-0.7,0.5-1.4,1.1-2.1,1.6c-0.6-0.6-0.9-0.6-0.9,0.1c-0.1,0.5-0.3,1-0.5,1.5
					c2.3,0.3,4.6,0.6,6.9,0.9c-0.1-2.2,0.2-4,1.2-6C732.9,292.3,726.8,288.8,724.7,292.8L724.7,292.8z"/>
			</g>
		</g>
		<g>
			<g>
				<path class="st95" d="M726.4,307.6c-1.3,5-2.6,9.8-4.3,14.6c-0.8,2.1-1.5,4.3-2.3,6.4c-0.6,1.7-1.7,6.5-3.5,7.5
					c1.8,1,3.5,2,5.3,3c-0.3-1-0.3-2.1,0-3.1c-0.8,0.8-1.6,1.6-2.4,2.4c1-0.3,3.9,0.4,3.1-1.2c2.1,4,8.2,0.4,6-3.5
					c-1.7-3.2-6.5-2.9-9.6-2.3c-4.1,0.7-4.5,4.1-4,7.7c0.3,2.6,2.7,4.5,5.3,3c4.4-2.5,6-9.8,7.6-14.2c2.2-6.1,4-12.2,5.7-18.5
					C734.3,305.1,727.5,303.2,726.4,307.6L726.4,307.6z"/>
			</g>
		</g>
		<g>
			<g>
				<path class="st95" d="M727.9,347.8c-1.2-3.7-2.3-7.3-3.5-11c-2.1,0.9-4.3,1.8-6.4,2.7c1.3,1.8,2.6,3.6,4.3,5.1
					c0.8,0.7,4.9,3.1,4.8,3.8c0.6-1,1.2-2,1.7-3c-1.5,0.8-3,1-4.3,2.2c-0.9,0.8-1.2,2.3-0.9,3.4c1,3.5,4.3,4,7.5,4.4
					c1.9,0.3,3.9,0.5,5.9,0.3c2-0.2,4-1.6,6-1.4c1.8,0.2,3.6-1.8,3.5-3.5c-0.5-7.6-10.8-7-16.4-7.9c0,2.3,0,4.5,0,6.7
					c6.3-0.9,12.6-1.9,18.8-3.6c3.1-0.9,3.5-6.1,0-6.7c-5.5-1-10.9-1.7-16.5-2.1c0.3,2.3,0.6,4.6,0.9,6.9c4.2-1.3,8.5-1.2,12.2-3.8
					c2.8-2,1.8-6.4-1.8-6.5c-4.5-0.2-9-0.2-13.5,0c0.8,2,1.6,4,2.5,6c2-2.6,6-5.8,4.6-9.5c-1.4-3.5-6.1-3.7-9.2-4.9
					c-4.2-1.6-6,5.1-1.9,6.7c1.1,0.4,5,2.4,4.5,0.8c0.1-0.9,0.2-1.8,0.4-2.7c-0.9,1.6-2.3,3.1-3.4,4.5c-1.7,2.2-0.8,6.1,2.5,6
					c4.5-0.2,9-0.2,13.5,0c-0.6-2.2-1.2-4.3-1.8-6.5c-3.1,2.2-7,2.1-10.5,3.1c-3.9,1.2-3,6.6,0.9,6.9c4.9,0.3,9.8,0.9,14.6,1.8
					c0-2.2,0-4.5,0-6.7c-6.2,1.7-12.5,2.7-18.8,3.6c-3.4,0.5-3.3,6.2,0,6.7c2.4,0.4,10.5,0.6,12.2,2.5c-0.3-0.8-0.7-1.6-1-2.5
					c0,0.4,0,0.7,0.1,1.1c1.2-1.2,2.3-2.3,3.5-3.5c-2.1-0.2-3.4,0.5-5.4,1.1c-1.1,0.3-2.2,0.4-3.4,0.3c-0.7,0-4.3-1.1-3.9,0.4
					c-0.3,1.1-0.6,2.3-0.9,3.4c1.4-1.2,3.1-0.5,4.2-2.3c0.8-1.4,0.5-3-0.1-4.4c-1.8-4.1-6.9-6.2-9.5-9.8c-2.1-3.1-7.7-1.3-6.4,2.7
					c1.2,3.7,2.3,7.3,3.5,11C722.5,354,729.2,352.2,727.9,347.8L727.9,347.8z"/>
			</g>
		</g>
		<g>
			<g>
				<path class="st95" d="M727.8,338C727.8,338,727.8,338,727.8,338c0.7-0.6,1.4-1.1,2.1-1.7c-0.3,0-0.6,0.1-0.9,0.1
					c0.9,0.1,1.8,0.2,2.7,0.4c-0.3-0.2-0.5-0.3-0.8-0.5c0.5,0.7,1.1,1.4,1.6,2.1c-0.6-1.7-0.2-4.5-0.2-6.3c0-2.4,0-4.8,0-7.2
					c0-3.8-6.2-4.9-6.9-0.9c-0.8,4.6-1.3,9.3-1.4,14c-0.1,4.1,0.2,7.5,4.3,9.4c2.7,1.3,6.3,0.9,7-2.5c0.3-1.6-0.3-3.1-0.9-4.5
					c-1.1-2.6-2.5-4.1,0-6.3c3.4-3-1.6-7.9-4.9-4.9c-2.1,1.8-3.7,4-3.8,6.9c0,1.4,0.4,2.8,0.9,4.1c0.5,1.2,1.9,2.9,1.8,4.3
					c0.6-1,1.2-2,1.7-3c-0.2,0.1-0.4,0.2-0.6,0.3c0.9-0.1,1.8-0.2,2.7-0.4c-2.3-0.5-1.2-4.4-1.1-6.3c0.2-3.1,0.5-6.2,1.1-9.2
					c-2.3-0.3-4.6-0.6-6.9-0.9c0,3.4,0,6.7,0,10.1c0,2.1-0.3,4.7,1.1,6.5c3,3.9,8.8,1.2,8.5-3.4C734.5,333.6,727.5,333.5,727.8,338
					L727.8,338z"/>
			</g>
		</g>
		<g>
			<g>
				<path class="st95" d="M733.9,317.1c-0.1-0.3,0-0.5,0.3-0.6c-2.2-0.6-4.3-1.2-6.5-1.8c0.1,1.7,0.3,3.4,0.4,5.2
					c0.1,1.1,0.6,3.4,0.2,4.4c0.5-0.7,1.1-1.4,1.6-2.1c-0.1,0.1-0.2,0.1-0.4,0.2c1.7,1.3,3.4,2.6,5.1,4c0.1-0.2,0.1-0.4,0.2-0.7
					c1-4.4-5.8-6.3-6.8-1.9c-0.1,0.2-0.1,0.4-0.2,0.7c-0.7,3,2.4,5.4,5.1,4c2.4-1.3,2.3-3.8,2.1-6.1c-0.2-2.5-0.4-5-0.6-7.6
					c-0.3-3.6-4.4-4.5-6.5-1.8c-0.5,0.7-0.8,1.5-1,2.3C726.3,319.6,733,321.5,733.9,317.1L733.9,317.1z"/>
			</g>
		</g>
		<g>
			<g>
				<path class="st95" d="M738.8,310.1c-0.2-0.4-0.1-1-0.1-1.6c0-0.8,0.2-1.4,0.3-2.2c0.4-1.9-0.5-3.8-2.4-4.3
					c-1.7-0.5-3.9,0.6-4.3,2.4c-0.6,3.2-0.9,6.1,0.5,9.2c0.8,1.7,3.3,2.1,4.8,1.3C739.4,313.8,739.6,311.8,738.8,310.1L738.8,310.1z
					"/>
			</g>
		</g>
		<g>
			<g>
				<path class="st95" d="M732.2,305.5c1,3.1,2.9,7.4,2.5,10.6c-0.2,1.5-3.9,10-5.4,10.4c1.4,1.4,2.9,2.9,4.3,4.3
					c1.3-5,2.1-10,2.4-15.1c0.2-3-3.9-4.6-6-2.5c-1.6,1.7-2.9,3.5-3.9,5.6c-1.8,3.7,2.4,6.7,5.5,4.2c1.6-1.3,3.2-2.5,4.8-3.8
					c-1.9-1.1-3.9-2.3-5.8-3.4c-0.9,5.1-7.1,4.4-9.8,8c-1.6,2.1,0.5,5.5,3,5.3c6.5-0.6,14.9-2.2,15.9-9.7c0.6-4.5-6.4-4.4-7,0
					c-0.2,1.8-7.6,2.6-8.9,2.7c1,1.8,2,3.5,3,5.3c0,0,2.3-0.5,2.9-0.7c1.5-0.7,2.8-1.4,4-2.5c2-1.8,3.2-3.8,3.6-6.4
					c0.6-3.6-3.1-5.6-5.8-3.4c-1.6,1.3-3.2,2.5-4.8,3.8c1.8,1.4,3.7,2.8,5.5,4.2c0.8-1.7,1.5-2.8,2.8-4.2c-2-0.8-4-1.6-6-2.5
					c-0.2,4.5-0.9,8.9-2.1,13.2c-0.7,2.7,1.7,4.9,4.3,4.3c5-1.1,8-8.9,9.7-13.2c2.1-5.3-0.2-11.2-1.8-16.4
					C737.6,299.4,730.8,301.2,732.2,305.5L732.2,305.5z"/>
			</g>
		</g>
		<g>
			<g>
				<path class="st95" d="M741,312.3c-0.1-2,0-2,1.5-3.2c1.2-0.9,2.1-2,2.5-3.4c0.3-1.3,0.2-2.6-0.2-3.8c-0.2-0.8-0.6-1.5-1-2.2
					c-0.2-0.3-0.4-0.6-0.6-0.9c-0.3-1.2-0.6-1.2-0.8-0.1c-1.4,0.2-2.8,0.4-4.2,0.5c0.1,0.1,0.2,0.1,0.3,0.2
					c-0.5-0.7-1.1-1.4-1.6-2.1c0.7,2.7,2.6,5.8,2.5,8.6c-0.3,4.5,6.7,4.5,7,0c0.2-2.7-0.9-4.7-1.8-7.2c-0.8-2.2-0.7-4.1-2.8-5.6
					c-1.4-1-3.1-0.4-4.2,0.5c-1.4,1.1-1.8,3.1-1.7,4.7c0.1,1,0.4,2,0.8,2.9c0.3,0.6,1.7,2.1,1.5,2.7c0.3-1.1-1.2,0.3-1.4,0.5
					c-0.7,0.5-1.3,1.1-1.8,1.9c-1,1.8-1.1,3.9-1,5.9C734.2,316.8,741.2,316.9,741,312.3L741,312.3z"/>
			</g>
		</g>
		<g>
			<g>
				<path class="st95" d="M737.3,311.4c2.7,2.9,0.9,10.5-1,13.2c-2.4,3.4-4.2,6.6-5,10.7c-0.4,2,1,4.7,3.4,4.4
					c8.7-1.1,12.2-8.3,11.7-16.5c-0.2-4.5-7-4.5-7,0c0,6.3-1.7,14.8,4.1,19c1.5,1.1,4,0.3,4.8-1.3c2.7-4.9,1.5-9.5,0.5-14.7
					c-1.4-6.6-1.6-13.4-2-20.2c-2.2,0.6-4.3,1.2-6.5,1.8c5.9,9.3,3.7,23.5,2.4,33.8c-0.6,4.5,6.4,4.4,7,0
					c1.5-11.7,3.3-26.8-3.3-37.3c-1.8-2.8-6.7-1.9-6.5,1.8c0.2,5.2,0.5,10.4,1.2,15.6c0.6,4.6,3.6,11.5,1.3,15.7
					c1.6-0.4,3.2-0.8,4.8-1.3c-1.9-1.4-0.6-10.7-0.6-13c-2.3,0-4.7,0-7,0c0.2,3.6-0.1,8.9-4.7,9.5c1.1,1.5,2.3,3,3.4,4.4
					c1.3-6.1,6.3-10,7.2-16.2c0.7-4.6,0.4-11-2.9-14.6C739.2,303.1,734.2,308.1,737.3,311.4L737.3,311.4z"/>
			</g>
		</g>
		<g>
			<g>
				<path class="st95" d="M749.9,344c3.2-3.4,4.3-8.1,4.8-12.6c0.3-3-0.2-6.4,2.4-8.6c1.9-1.7,4.3-2.6,6.2-4.5c-2-0.8-4-1.6-6-2.5
					c-0.2,4-0.9,7.8-2,11.6c-1.3,4.3-3.3,5.9-6.8,8.5c-3.6,2.6-0.1,8.7,3.5,6c3.8-2.8,7.3-5,9-9.6c2-5.3,2.9-10.9,3.2-16.5
					c0.2-3-3.9-4.6-6-2.5c-3.4,3.6-8.1,4.6-9.7,9.8c-1.5,5,0.2,11.8-3.7,15.9C741.8,342.3,746.8,347.3,749.9,344L749.9,344z"/>
			</g>
		</g>
		<g>
			<g>
				<path class="st95" d="M754,317.2c-2.4,5.6-4.9,11.1-7.3,16.7c-1.8,4.1,4.2,7.7,6,3.5c2.4-5.6,4.9-11.1,7.3-16.7
					C761.9,316.7,755.8,313.1,754,317.2L754,317.2z"/>
			</g>
		</g>
		<g>
			<g>
				<path class="st95" d="M751.3,328.8c-0.1,2.7-0.7,5.3-1.8,7.8c-0.8,1.7-0.5,3.8,1.3,4.8c1.5,0.9,4,0.5,4.8-1.3
					c1.7-3.6,2.6-7.3,2.8-11.3C758.5,324.3,751.5,324.3,751.3,328.8L751.3,328.8z"/>
			</g>
		</g>
		<g>
			<g>
				<path class="st35" d="M715.6,360.5c-1.4,0.2-2.7-0.1-3.9-0.9c-0.6,2.2-1.2,4.3-1.8,6.5c13.1-0.3,26.3-0.5,39.4-0.5
					c4.5,0,4.5-7,0-7c-13.2,0-26.3,0.2-39.4,0.5c-3.3,0.1-5,4.9-1.8,6.5c2.4,1.3,4.7,1.9,7.4,1.9
					C720.1,367.5,720.1,360.5,715.6,360.5L715.6,360.5z"/>
			</g>
		</g>
		<g>
			<g>
				<path class="st35" d="M709.3,362.5c-3.3-0.1-6,1.8-6.6,5.2c2.1-0.3,4.3-0.6,6.4-0.8c-0.2-0.3-0.4-0.7-0.6-1c-1,1.8-2,3.5-3,5.3
					c15.7-0.2,31.5-0.3,47.2-0.5c4.5,0,4.5-7,0-7c-15.7,0.2-31.5,0.3-47.2,0.5c-2.7,0-4.3,2.9-3,5.3c0.2,0.3,0.4,0.7,0.6,1
					c1.3,2.5,5.9,2.2,6.4-0.8c-0.1,0-0.1,0-0.2,0C713.8,369.6,713.7,362.6,709.3,362.5L709.3,362.5z"/>
			</g>
		</g>
		<polygon class="st35" points="703,364.3 703,407.2 756,406.6 756,367.4 		"/>
		<polygon class="st12" points="575.4,376.7 582.4,375.8 583.6,406.4 583.6,407.2 574.5,408.1 574.5,375.8 		"/>
		<polygon class="st96" points="579.8,352 586.7,352 586.5,378 579.1,378 		"/>
		<polygon class="st36" points="604,305.5 640.9,305.3 642.8,349.4 604,350.5 		"/>
		<g>
			<g>
				<path class="st97" d="M626.1,268.3c-0.6,1.1,0,2.6,1.4,2.8c0.5,0.1,0.9,0,1.3-0.2c0.1,0,0.2-0.1,0.3-0.1
					c-0.3-0.1-0.6-0.2-0.8-0.3c-0.2-0.2-0.2-0.3-0.1,0c0.2,0.8,1,1.3,1.8,1c0.8-0.2,1.3-1.1,1-1.8c-0.2-0.8-0.6-1.4-1.4-1.7
					c-0.5-0.2-0.9-0.2-1.4-0.1c-0.1,0-0.3,0.1-0.4,0.2c0,0-0.1,0-0.1,0.1c0.2,0,0.1,0,0,0c0.3,0.1,0.5,0.1,0.8,0.2
					c0.1,0.3,0.3,0.6,0.4,0.8c-0.1,0.3-0.1,0.5-0.2,0.8c0,0,0-0.1,0.1-0.1c0.4-0.7,0.2-1.6-0.5-2.1
					C627.5,267.4,626.5,267.6,626.1,268.3L626.1,268.3z"/>
			</g>
		</g>
		<g>
			<g>
				<path class="st97" d="M625.1,271.8c0.8,2.5,0.1,5.8,0.3,8.4c0.2,3,0.1,5.8-0.6,8.7c-0.9,3.8,4.9,5.4,5.8,1.6
					c0.8-3.4,1.1-6.8,0.8-10.3c-0.2-3.3,0.6-6.8-0.5-10C629.7,266.5,623.9,268.1,625.1,271.8L625.1,271.8z"/>
			</g>
		</g>
		<g>
			<g>
				<path class="st97" d="M624.9,291.9c0.1,0.5,0.3,0.9,0.4,1.4c0.3,0.8,1,1.5,1.9,1.5c1,0,1.6-0.6,1.9-1.5c0.2-0.5,0.4-1,0.5-1.5
					c0.3-1-0.3-2.2-1.4-2.5c-1.1-0.3-2.1,0.3-2.5,1.4c-0.2,0.7-0.4,1.3-0.7,2c-0.3,1,0.4,2.2,1.4,2.5c1.1,0.3,2.1-0.3,2.5-1.4
					c0.2-0.7,0.4-1.3,0.7-2c-1.3-0.4-2.6-0.7-3.9-1.1c-0.1,0.5-0.3,1-0.5,1.5c1.3,0,2.6,0,3.9,0c-0.1-0.5-0.3-0.9-0.4-1.4
					c-0.3-1-1.4-1.7-2.5-1.4C625.3,289.7,624.6,290.8,624.9,291.9L624.9,291.9z"/>
			</g>
		</g>
		<g>
			<g>
				<path class="st97" d="M626.6,293.4c-0.6,0.3-0.9,0.9-1,1.6c-0.1,0.7,0.2,1.5,0,2.1c-0.2,0.5,0.2,1.1,0.7,1.2
					c0.6,0.2,1-0.2,1.2-0.7c0.2-0.6,0.2-1.1,0.1-1.7c0-0.2-0.1-0.6,0.1-0.7C628.8,294.5,627.8,292.8,626.6,293.4L626.6,293.4z"/>
			</g>
		</g>
		<g>
			<g>
				<path class="st97" d="M626.3,295.4c1.3,0,1.3-2,0-2C625,293.4,625,295.4,626.3,295.4L626.3,295.4z"/>
			</g>
		</g>
		<g>
			<g>
				<path class="st97" d="M626.3,295.4c1.3,0,1.3-2,0-2C625,293.4,625,295.4,626.3,295.4L626.3,295.4z"/>
			</g>
		</g>
		<g>
			<g>
				<path class="st97" d="M626,297.3c1.3,0,1.3-2,0-2C624.7,295.3,624.7,297.3,626,297.3L626,297.3z"/>
			</g>
		</g>
		<g>
			<g>
				<path class="st97" d="M601.6,288c3.2,0,3.2-5,0-5C598.4,283,598.4,288,601.6,288L601.6,288z"/>
			</g>
		</g>
		<g>
			<g>
				<path class="st97" d="M603.2,288.7c0.6-0.4,1.1-0.8,1.4-1.4c0.2-0.3,0.3-0.6,0.4-0.9c0-0.1,0-0.2,0.1-0.3
					c-0.1,0.3-0.2,0.5-0.4,0.7c-0.4,0.2-0.7,0.4-1.1,0.6c-0.5-0.1-1-0.2-1.5-0.2c-0.3-0.3-0.6-0.6-0.9-0.9c0,0,0,0.1,0.1,0.1
					c0.7,1.1,2.3,1.6,3.4,0.9c1.1-0.7,1.6-2.2,0.9-3.4c-0.9-1.5-3.1-1.9-4.4-0.6c-0.4,0.4-0.7,1-0.9,1.6c-0.1,0.5,0.2-0.3,0.1-0.1
					c-0.1,0.2,0,0.1,0.2-0.2c-0.2,0.2-0.1,0.1,0.2-0.1c-1.1,0.7-1.7,2.2-0.9,3.4C600.5,288.9,602.1,289.5,603.2,288.7L603.2,288.7z"
					/>
			</g>
		</g>
		<g>
			<g>
				<path class="st97" d="M604.8,287.2c0.1-0.1,0.3-0.2,0.4-0.2c1.1-0.7,1.6-2.3,0.9-3.4c-0.7-1.1-2.2-1.6-3.4-0.9
					c-0.1,0.1-0.3,0.2-0.4,0.2c-1.1,0.7-1.6,2.3-0.9,3.4C602.1,287.4,603.6,287.9,604.8,287.2L604.8,287.2z"/>
			</g>
		</g>
		<g>
			<g>
				<path class="st97" d="M600.2,286.9c0.2,0.4,0.1,0.8-0.3,1.1c1.3,1,2.6,2,3.9,3c0.3-0.6,0.5-1.2,0.7-1.9c0.6-2.6-2.3-3.9-4.2-2.4
					c-2,1.6-1.4,4.7,0.8,5.8c2.3,1.2,4.8,0,5.1-2.5c0.3-2.5-3.6-3.4-4.7-1.3c-0.9,1.8-2.2,3.8-1.1,5.8c1,1.9,3.6,2.1,5,0.6
					c-1.3-1-2.6-2-3.9-3c-1.1,2.5-1.1,5,0.3,7.4c1.7,2.7,6,0.2,4.3-2.5c-0.5-0.8-0.7-1.5-0.3-2.3c1.1-2.4-1.8-5.3-3.9-3
					c-0.1,0.1-0.2,0.2-0.3,0.3c0.6-0.2,1.2-0.5,1.8-0.7c-0.2,0-0.3,0-0.5,0c0.6,0.2,1.2,0.5,1.8,0.7c0.1,1.5,0.3,1.8,0.6,0.7
					c0.2-0.4,0.4-0.8,0.6-1.3c-1.6-0.4-3.1-0.8-4.7-1.3c0,0.1,0,0.2,0,0.3c0.4-0.7,0.8-1.4,1.2-2.2c0.3-0.1,0.7-0.1,1-0.2
					c0.2,0.6,0.5,1.2,0.7,1.8c-0.1,0.2-0.2,0.3-0.3,0.5c-1.4-0.8-2.8-1.6-4.2-2.4c-0.1,0.2-0.1,0.5-0.2,0.7c-1.2,2.5,1.8,5.1,3.9,3
					c1.3-1.3,1.9-2.8,1.8-4.6C605,283.7,600,283.7,600.2,286.9L600.2,286.9z"/>
			</g>
		</g>
		<g>
			<g>
				<path class="st97" d="M633.7,305.5c2.9-0.7,6.9,0.5,7.7-3.5c0.3-1.7,0-3.5,0-5.2c0-2.3,0.1-4.6,0.3-6.9c0.2-2.4-3.6-3.5-4.7-1.3
					c-1.9,4-3.5,8.1-4.9,12.4c-1,3.1,3.8,4.4,4.8,1.3c1.2-3.8,2.7-7.5,4.4-11.2c-1.6-0.4-3.1-0.8-4.7-1.3c-0.2,2.8-0.4,5.6-0.3,8.4
					c0,0.5,0.2,1.5,0.1,2c-0.3,0.8,0.4,0-0.6,0c-1.2,0-2.3,0.1-3.5,0.3C629.3,301.4,630.6,306.2,633.7,305.5L633.7,305.5z"/>
			</g>
		</g>
		<g>
			<g>
				<path class="st26" d="M607.9,270.2c0.3,0,5.3-0.4,5.5-0.2c-0.5-0.9-0.8,4.7-0.8,4.4c0,3.3,0,6.5-0.2,9.8
					c-0.3,6.2-0.5,12.2,0.4,18.4c0.4,3.2,5.3,1.8,4.8-1.3c-1.3-8.9,0-18,0-26.9c0-2.3,0.7-6.4-1.2-8.3c-2-2-6.1-0.9-8.5-0.9
					C604.6,265.3,604.6,270.3,607.9,270.2L607.9,270.2z"/>
			</g>
		</g>
		<g>
			<g>
				<path class="st26" d="M610,269.2c-0.1-0.1-0.2-0.2-0.3-0.3c-0.9-0.9-2.6-1-3.5,0c-0.9,1-1,2.5,0,3.5c0.1,0.1,0.2,0.2,0.3,0.3
					c0.9,0.9,2.6,1,3.5,0C610.9,271.7,611,270.2,610,269.2L610,269.2z"/>
			</g>
		</g>
		<g>
			<g>
				<path class="st26" d="M606.2,271.3c0,10.5,0,21.1,0,31.6c0,3.2,5,3.2,5,0c0-10.5,0-21.1,0-31.6
					C611.2,268.1,606.2,268.1,606.2,271.3L606.2,271.3z"/>
			</g>
		</g>
		<g>
			<g>
				<path class="st26" d="M610.4,294.6c-0.1-1-0.1-2,0-3.1c-1.7,0-3.3,0-5,0c0.4,3.5-0.5,7.4,0.5,10.8c1,3.5,4.4,3,7.3,2.7
					c3.2-0.3,3.2-5.3,0-5c-1,0.1-1.9,0.1-2.9,0.2c0.5,1,0.6,0.9,0.3-0.1c0-0.6-0.1-1.2-0.1-1.7c0-2.3,0.1-4.6-0.2-6.9
					c-0.4-3.2-4.7-3.3-5,0c-0.1,1-0.1,2,0,3.1C605.6,297.8,610.6,297.9,610.4,294.6L610.4,294.6z"/>
			</g>
		</g>
		<g>
			<g>
				<path class="st26" d="M608.8,269.9c0,10.3,0,20.6,0,31c0,3.2,5,3.2,5,0c0-10.3,0-20.6,0-31C613.8,266.7,608.8,266.7,608.8,269.9
					L608.8,269.9z"/>
			</g>
		</g>
		<g>
			<g>
				<path class="st26" d="M641.4,278.7c-0.3,0.2-0.7,0.4-1,0.7c-0.8-1.1-1.6-2.1-2.4-3.2c-1,3.9-3.3,7.4-4.5,11.3
					c-0.7,2.2-3,12-5.7,12.2c0.7,1.3,1.4,2.5,2.2,3.8c5-8,8.1-16.6,10.6-25.7c0.9-3.1-4-4.4-4.8-1.3c-2.4,8.7-5.3,16.8-10.1,24.5
					c-0.9,1.5,0.3,4,2.2,3.8c4.8-0.5,6.3-5,8-9c1.3-3,2.1-6.2,3.2-9.3c1.1-3.1,3-5.8,3.8-8.9c0.4-1.6-0.8-3.1-2.4-3.2
					c-2-0.1-3.5,1-3.8,3C636.1,280.5,641,281.9,641.4,278.7L641.4,278.7z"/>
			</g>
		</g>
		<g>
			<g>
				<path class="st98" d="M621.9,283.9c0.2-0.9,0.3-1.7,0.5-2.6c0.6-3.1-4.2-4.5-4.8-1.3c-1.6,7.5,0,14.9-0.3,22.4
					c-0.1,3.2,4.9,3.2,5,0c0.3-7-1.3-14.1,0.1-21.1c-1.6-0.4-3.2-0.9-4.8-1.3c-0.2,0.9-0.3,1.7-0.5,2.6
					C616.5,285.8,621.3,287.1,621.9,283.9L621.9,283.9z"/>
			</g>
		</g>
		<g>
			<g>
				<path class="st98" d="M623.1,289.3c0.3-1.7,0.1-3.3-0.8-4.8c-0.7-1.1-2.3-1.6-3.4-0.9c-1.1,0.7-1.6,2.2-0.9,3.4
					c0.1,0.1,0.1,0.2,0.2,0.3c0-0.1-0.1-0.2-0.1-0.3c0.1,0.2,0.1,0.4,0.2,0.6c0,0.2,0,0.1,0-0.2c0,0.1,0,0.2,0,0.3
					c0,0.2-0.1,0.8,0,0.2c-0.1,0.7-0.1,1.3,0.3,1.9c0.3,0.5,0.9,1,1.5,1.1C621.2,291.3,622.9,290.7,623.1,289.3L623.1,289.3z"/>
			</g>
		</g>
		<polygon class="st7" points="592.8,250.2 592.9,258 753,258.1 753,250.4 		"/>
		<g>
			<g>
				<path class="st96" d="M587,356.1c28.5,0,56.9,0,85.4,0c3.2,0,3.2-5,0-5c-28.5,0-56.9,0-85.4,0
					C583.7,351.1,583.7,356.1,587,356.1L587,356.1z"/>
			</g>
		</g>
		<g>
			<g>
				<path class="st96" d="M587.5,374.7c28.7,0,57.4,0,86.1,0c3.2,0,3.2-5,0-5c-28.7,0-57.4,0-86.1,0
					C584.3,369.7,584.2,374.7,587.5,374.7L587.5,374.7z"/>
			</g>
		</g>
		<g>
			<g>
				<path class="st96" d="M584.2,381.9c32.4,0,64.7,0,97.1,0c3.2,0,3.2-5,0-5c-32.4,0-64.7,0-97.1,0
					C580.9,376.9,580.9,381.9,584.2,381.9L584.2,381.9z"/>
			</g>
		</g>
		<g>
			<g>
				<path class="st96" d="M605.8,380.3c3.2,0,3.2-5,0-5C602.6,375.3,602.6,380.3,605.8,380.3L605.8,380.3z"/>
			</g>
		</g>
		<g>
			<g>
				<path class="st12" d="M605.8,380.3c25.2,0,50.5,0,75.7,0c3.2,0,3.2-5,0-5c-25.2,0-50.5,0-75.7,0
					C602.6,375.3,602.6,380.3,605.8,380.3L605.8,380.3z"/>
			</g>
		</g>
		<g>
			<g>
				<path class="st96" d="M584.2,404.6c32.4,0,64.7,0,97.1,0c3.2,0,3.2-5,0-5c-32.4,0-64.7,0-97.1,0
					C580.9,399.6,580.9,404.6,584.2,404.6L584.2,404.6z"/>
			</g>
		</g>
		<g>
			<g>
				<path class="st12" d="M585.7,381.6c3.2,0,3.2-5,0-5C582.5,376.6,582.5,381.6,585.7,381.6L585.7,381.6z"/>
			</g>
		</g>
		<g>
			<g>
				<path class="st12" d="M584.7,381.4c32.2,0,64.4,0,96.6,0c3.2,0,3.2-5,0-5c-32.2,0-64.4,0-96.6,0
					C581.4,376.4,581.4,381.4,584.7,381.4L584.7,381.4z"/>
			</g>
		</g>
		<g>
			<g>
				<path class="st12" d="M584.7,380.3c3.2,0,3.2-5,0-5C581.4,375.3,581.4,380.3,584.7,380.3L584.7,380.3z"/>
			</g>
		</g>
		<g>
			<g>
				<path class="st12" d="M606.1,374.8c-8.1,0-16.1,0-24.2,0c-3.2,0-3.2,5,0,5c8.1,0,16.1,0,24.2,0
					C609.3,379.8,609.3,374.8,606.1,374.8L606.1,374.8z"/>
			</g>
		</g>
		<g>
			<g>
				<path class="st12" d="M582.6,382.2c1.1-1.1,2.2-2.2,3.3-3.3c0.9-0.9,1-2.6,0-3.5c-1-0.9-2.5-1-3.5,0c-1.1,1.1-2.2,2.2-3.3,3.3
					c-0.9,0.9-1,2.6,0,3.5C580.1,383.1,581.6,383.1,582.6,382.2L582.6,382.2z"/>
			</g>
		</g>
		<g>
			<g>
				<path class="st12" d="M583.1,383.4c16.1,0,32.3,0,48.4,0c3.2,0,3.2-5,0-5c-16.1,0-32.3,0-48.4,0
					C579.9,378.4,579.9,383.4,583.1,383.4L583.1,383.4z"/>
			</g>
		</g>
		<g>
			<g>
				<path class="st12" d="M581.6,405.8c33.5,0,66.9,0,100.4,0c3.2,0,3.2-5,0-5c-33.5,0-66.9,0-100.4,0
					C578.4,400.8,578.4,405.8,581.6,405.8L581.6,405.8z"/>
			</g>
		</g>
		<g>
			<g>
				<path class="st12" d="M581.6,404.1c1.8,1.8,3.6,3.6,5.4,5.4c2.3,2.3,5.8-1.3,3.5-3.5c-1.8-1.8-3.6-3.6-5.4-5.4
					C582.9,398.3,579.3,401.8,581.6,404.1L581.6,404.1z"/>
			</g>
		</g>
		<g>
			<g>
				<path class="st12" d="M583.6,404c32.8,0,65.6,0,98.4,0c3.2,0,3.2-5,0-5c-32.8,0-65.6,0-98.4,0C580.4,399,580.4,404,583.6,404
					L583.6,404z"/>
			</g>
		</g>
		<g>
			<g>
				<path class="st12" d="M583.9,408.4c33,0,66.1,0,99.1,0c3.2,0,3.2-5,0-5c-33,0-66.1,0-99.1,0
					C580.7,403.4,580.7,408.4,583.9,408.4L583.9,408.4z"/>
			</g>
		</g>
		<path class="st15" d="M133,410h76c0,0-0.4,23.1,1.3,26.1c0,0,3.2-8.3,6-0.9L214.1,565H190V438h-15.4l0,127h-32.1l2.8-128.9
			l-12.3-0.4V410z"/>
		<polygon class="st15" points="432.3,407.7 793,408.1 793,437.7 440.7,436.6 		"/>
		<polygon class="st15" points="722,437 722,565 753,565 753,437 764.1,437 764.5,565.4 790,564.9 790,437 		"/>
		<path class="st4" d="M455.7,363l10.6,34l7.8,1.5l4.1,7l-1.3,2.7l-45.3-0.4c0,0-6-21.5-10.9-25.7c0,0-8.6-15.8-26.3-18.9
			C394.4,363.1,450.4,359.8,455.7,363z"/>
		<path class="st4" d="M297.7,331.5c0,0,0.5,25.2,3.2,27.9c0,0,75.8-1.5,83.6,1.9l154.8,0.3c0,0,11,0.3,8.8-9.7l0.3-19.6
			L297.7,331.5z"/>
		<path class="st4" d="M549,329.9V182.4c0,0,3-9.1-7-5.5v154.5L549,329.9z"/>
		<path class="st4" d="M303,176.7l240.4,1.2l5.4,9.4l-249.1-1.3C299.6,186.1,297.8,177.6,303,176.7z"/>
		<path class="st4" d="M310,329.2V185h-9v146.5C301,331.5,310,333,310,329.2z"/>
		<path class="st18" d="M225,352.9v24.5c0,0,23.1-16.1,51-15.8l-1.5-10.4C274.5,351.2,241,344.5,225,352.9z"/>
		<g>
			<g>
				<path class="st18" d="M279.6,356c-0.4,0-0.8,0-1.3,0c-0.8,0-1.5,0.7-1.5,1.5c0,0.8,0.7,1.5,1.5,1.5c0.4,0,0.8,0,1.3,0
					c0.8,0,1.5-0.7,1.5-1.5C281.1,356.6,280.4,356,279.6,356L279.6,356z"/>
			</g>
		</g>
		<g>
			<g>
				<path class="st18" d="M277.7,356c-0.3,0.1-0.5,0.2-0.8,0.2c-0.8,0.2-1.3,1-1,1.8c0.2,0.8,1.1,1.3,1.8,1c0.3-0.1,0.5-0.2,0.8-0.2
					c0.8-0.2,1.3-1,1-1.8C279.3,356.3,278.4,355.7,277.7,356L277.7,356z"/>
			</g>
		</g>
		<g>
			<g>
				<path class="st18" d="M276,356.8c-1.1,1.5,0.1,3.3,1.8,3.5c1.1,0.1,2.3-0.3,3.5-0.4c1.6-0.1,3,0.1,4.5,0.6
					c1.4,0.4,2.7-1.5,1.5-2.5c-2.7-2.1-8.6-3.8-11.1-0.5c-1,1.4-0.4,3.2,1.3,3.6c2.4,0.6,5.3,0,7.7-0.5c1.9-0.4,1.1-3.3-0.8-2.9
					c-1.1,0.3-2.3,0.5-3.5,0.5c-0.6,0-1.4-0.1-2,0c-0.2,0-0.4,0-0.7,0c0.3,0.7,0.7,0.9,1.1,0.7c1,0,1.8-0.3,2.8-0.2
					c1.1,0.2,2.1,0.6,3,1.3c0.5-0.8,1-1.7,1.5-2.5c-1.4-0.4-2.9-0.6-4.3-0.7c-0.7,0-1.3,0-2,0.1c-0.4,0-0.7,0.1-1.1,0.1
					c-0.8-0.1-1,0.3-0.6,1.2C279.8,356.8,277.2,355.3,276,356.8L276,356.8z"/>
			</g>
		</g>
		<polygon class="st14" points="215,167.8 283,168.4 283,181 215,181 		"/>
		<path class="st31" d="M236.5,281c0,0-1.9,8.1,3.8,5.2c0,0,32.3-11.9,41.3-60.7c0,0,2.6-10.1-5.4-9.2l-2.7,2.9
			C273.6,219.3,270.2,259.2,236.5,281z"/>
		<path class="st31" d="M192.5,220.6l43.8,64.3c0,0,2-27.5,16.2-44.7c0,0,15.3-23.6,26.2-24.5c0,0-59.3-18.2-70-18.8
			C208.6,196.8,190.7,203.5,192.5,220.6z"/>
		<g>
			<g>
				<path class="st31" d="M188.8,200c-0.5,1.2-0.6,2.1-0.6,3.3c0,1.6,2.5,2.1,2.9,0.4c0.4-1.9,1.9-3.3,2.4-5.1c-0.3,0.3-0.7,0.7-1,1
					c0.2-0.1,0.4-0.1,0.6-0.2c1.7-0.5,1.2-2.8-0.4-2.9c-3.9-0.4-6.4,3.9-6.7,7.2c-0.4,4,0.8,9.6,4.5,11.7c1.2,0.7,2.5-0.4,2.2-1.7
					c-0.4-1.8-0.8-3.7-1.1-5.5c-0.4-2.2-0.2-2.8,1-4.5c1.3-1.7,2.2-2.7,4.5-3c1.6-0.2,2.9-0.7,4.3-1.6c1.2-0.8,0.8-2.8-0.8-2.8
					c-2,0-3.2,0.9-3.9,2.8c-0.5,1.2,0.9,2,1.8,1.8c1.1-0.2,1.8-1,2.7-1.2c-0.1,0,1.2,0.2,1.6,0.2c0.5-0.1,0.9-0.6,1-1
					c0-0.1,0.1-0.3,0.1-0.4c0.6-1.6-1.5-2.3-2.5-1.5c-1.1,0.9-1.8,1.9-2.8,2.9c-1.2,1.1-2.6,1.7-3.9,2.6c-2.1,1.5-3.7,3.7-5.4,5.6
					c0.8,0.6,1.6,1.2,2.4,1.8c1.7-3.3,3.5-6.6,6.3-9.2c1.3-1.3-0.4-3-1.8-2.4c-3.4,1.5-6.4,3.6-6.4,7.6c0,0.8,0.7,1.6,1.5,1.5
					c3.5-0.3,6.5-4.1,9.1-6.2c-0.7-0.7-1.4-1.4-2.1-2.1c-1.3,1.1-2.5,2.2-3.7,3.4c0.8,0.6,1.6,1.2,2.4,1.8c0.5-1.1,1.1-2,1.8-3
					c-0.8-0.6-1.6-1.2-2.4-1.8c-2.4,4.1-6.5,9-5.9,14.1c0.2,1.9,3.2,1.9,3,0c-0.5-4.3,3.4-9,5.5-12.5c0.8-1.4-1.3-3.2-2.4-1.8
					c-0.9,1.1-1.7,2.3-2.3,3.6c-0.7,1.5,1.1,3,2.4,1.8c1.2-1.2,2.4-2.3,3.7-3.4c1.5-1.2-0.6-3.3-2.1-2.1c-1.5,1.3-5,5.2-7,5.4
					c0.5,0.5,1,1,1.5,1.5c0-2.9,2.7-4,4.9-5c-0.6-0.8-1.2-1.6-1.8-2.4c-2.9,2.8-4.9,6.2-6.7,9.8c-0.8,1.4,1.2,3.1,2.4,1.8
					c2.1-2.3,3.9-4.5,6.5-6.2c2.2-1.4,3.6-3.2,5.5-4.9c-0.8-0.5-1.7-1-2.5-1.5c0,0.1-0.1,0.3-0.1,0.4c0.3-0.3,0.7-0.7,1-1
					c0.3-0.1-1.1-0.3-1.5-0.2c-1.1,0.2-1.8,1.1-2.9,1.3c0.6,0.6,1.2,1.2,1.8,1.8c0.3-0.2,0.7-0.4,1-0.6c-0.3-0.9-0.5-1.9-0.8-2.8
					c-2.5,1.5-5.5,0.6-7.8,2.4c-1.2,0.9-1.9,2.5-2.8,3.6c-2.6,3.3-0.3,8.2,0.5,12c0.7-0.6,1.5-1.1,2.2-1.7c-3.4-1.9-5-14,0.7-13.4
					c-0.1-1-0.3-2-0.4-2.9c-1.5,0.5-1.4,1-2.1,2.4c-0.7,1.4-1.6,2.4-2,4c1,0.1,2,0.3,2.9,0.4c-0.1-0.9,0-1.8,0.5-2.5
					C192.4,199,189.5,198.3,188.8,200L188.8,200z"/>
			</g>
		</g>
		<g>
			<g>
				<path class="st31" d="M189.7,203.7C189.7,203.7,189.7,203.8,189.7,203.7C189.6,203.7,189.6,203.7,189.7,203.7
					C189.8,203.8,189.5,203.6,189.7,203.7C189.7,203.7,189.7,203.7,189.7,203.7C189.6,203.7,189.7,203.7,189.7,203.7
					C189.7,203.6,189.7,203.6,189.7,203.7C189.6,203.8,189.6,203.8,189.7,203.7c0.2-0.9-0.2-1.8-1-1.9c-0.8-0.2-1.6,0.2-1.8,1
					c-0.4,1.4,0.2,2.7,1.4,3.5c0.7,0.5,1.7,0.1,2.1-0.5C190.6,205,190.3,204.2,189.7,203.7L189.7,203.7z"/>
			</g>
		</g>
		<g>
			<g>
				<path class="st31" d="M190.1,214.3c0.1,0.9,0.5,1.7,1.3,2.1c0.7,0.4,1.6,0.2,2.1-0.5c0.4-0.7,0.2-1.7-0.5-2.1
					c-0.2-0.1-0.2-0.1,0,0c0.2,0.1,0.2,0.3,0.2,0.5c-0.1-0.8-0.6-1.5-1.5-1.5C190.9,212.8,190.1,213.5,190.1,214.3L190.1,214.3z"/>
			</g>
		</g>
		<circle class="st30" cx="161.3" cy="312.1" r="7.6"/>
		<path class="st31" d="M167.7,410H209c0,0,3-17.8,5.6-19.8l-3.3,2C211.4,392.2,181.8,388,167.7,410z"/>
		<polygon class="st99" points="308.4,330.5 540.8,331.5 539.6,187.7 		"/>
		<rect x="593" y="157" class="st2" width="159" height="92"/>
		<path class="st13" d="M720.5,564.9c0-0.9-0.1-1.9-0.1-2.8c0-40.6,0.1-81.2,0.1-121.8c0-0.8,0-1.5,0-2.5c-167.9,0-335.6,0-503.6,0
			c0,1,0,2,0,3c0,40.5,0.1,81,0.1,121.5c0,0.9,0,1.7-0.1,2.6c-0.9,0-1.9,0-2.8,0c0-42.4,0-84.7,0-127.3c-22.9,0-45.6,0-68.6,0
			c0,1,0,1.9,0,2.8c0,10.9,0.1,21.7,0.1,32.6c0,30.7,0,61.3,0,92c-0.9,0-1.9,0-2.8,0c0-27.5,0-54.9,0-82.4c0-14.2,0-28.5,0.1-42.7
			c0-2.2-0.7-2.8-2.8-2.7c-1.9,0.1-3.9,0-5.9-0.1c-2.7-0.1-4.1-1.5-4.1-4.3c0-7.7,0-15.3,0-23c0-1.7,0.5-2.6,2.4-2.7
			c3.4,0,6.7-0.2,10.1-0.3c6.9-0.1,13.8,0,20.6-0.1c0.8,0,1.8-0.3,2.2-0.9c7-7.8,15.7-12.7,26.1-14.5c3-0.5,6-1.1,9.1-1.6
			c-0.1-0.4-0.2-0.8-0.4-1.1c-11.1-16.2-22.2-32.4-33.3-48.5c-2.6-3.7-5.2-7.4-7.9-11c-0.6-0.8-1.8-1.4-2.8-1.8
			c-6.4-2.4-10.6-8.1-10.6-14.9c0-6.8,3.9-12.5,10-14.7c0.5-0.2,1.1-0.5,1.6-0.5c3.2,0.3,4.4-1.8,5.7-4.1
			c11.2-19.8,22.4-39.6,33.6-59.4c0.8-1.4,0.8-2.4-0.1-3.6c-1.3-1.6-2.4-3.3-3.5-5c-1.4-2.1-2.7-4.3-1-6.8c-1.3-1.2-2.7-2.2-3.7-3.5
			c-1.9-2.5-1.1-5.3,0-7.8c1.6-3.3,3.5-6.5,5.2-9.8c-3.5-1.5-6.7,2.5-6.5,9.6c-2.2-0.4-3.6-2.5-3.4-5.2c0.4-4.8,6.2-8.1,10.7-6.1
			c0.9,0.4,2.3,0.1,3.2-0.4c2-1.2,3.8-1.1,5.4,0.3c1.9,1.6,3.7,1.1,5.7,0.5c1.3-0.4,2.8-0.7,4.6-1.2c0-0.3,0.1-1.2,0.1-2
			c0-7.3,0.2-14.5,0.1-21.8c-0.1-3.1,0.4-4.4,4.6-4.5c4.8-0.1,9.7-0.1,14.5-0.1c15.7,0,31.4,0,47.2,0c1.3,0,3.3-0.7,3.4,1.4
			c0.1,2.1-2,1.4-3.3,1.4c-20.6,0-41.1-0.1-61.7-0.1c-0.6,0-1.2,0.1-2.1,0.1c0,2.4-0.1,4.7,0.1,7c0,0.4,1.3,0.9,2,0.9
			c7.5,0.1,15,0.1,22.5,0.1c12.3,0,24.6,0,36.8,0c0.9,0,1.8,0,3.1,0c0-1.8-0.1-3.4,0.1-4.9c0.1-0.9,0.8-1.8,1.2-2.7
			c0.4,0.9,1.3,1.7,1.3,2.6c0.1,5.7,0.1,11.4,0.1,17.1c0,5.6,0.1,11.1,0,16.7c-0.1,2.7-1,5.4,0.8,7.9c0.1,0.1-1,1-1.6,1.6
			c-0.2-0.1-0.5-0.2-0.7-0.3c0.2,0.6,0.3,1.3,0.6,1.9c1.5,3.7,1.6,7.4,1.1,11.3c-1.3,8.8-5.2,16.4-9.2,24.1
			c-5.7,10.9-13.2,20.3-22.1,28.6c-3.6,3.4-7.7,5.8-12.3,7.6c-2.2,0.8-3.2-0.9-4.1-2.2c-8.5-11.8-16.9-23.6-25.4-35.4
			c-0.1-0.1-0.3-0.1-0.6-0.3c-0.8,1.3-1.5,2.6-2.3,4c-9.8,17.5-19.7,35-29.5,52.6c-0.7,1.3-1.1,2.5-0.8,4.1c0.6,3.6-0.6,7-2.8,9.9
			c-0.9,1.3-0.8,2.1,0.1,3.3c12.8,18.5,25.6,37,38.5,55.5c1.8,2.6,3.7,5.3,5.7,7.7c0.8,0.9,2.2,1.3,3.4,2c0-10.3,0-20,0-29.7
			c0-2.3,0.3-4.5,0.2-6.8c-0.1-2,1-2.9,2.7-3.2c4.4-0.8,8.8-1.6,13.2-2.2c3.2-0.5,5.1-2.2,5.1-5.5c0-2-0.2-4.3-1.1-6.1
			c-3.2-6.2-4.2-12.7-3.6-19.5c0.2-2.3,0.6-4.5,3-6c0.3,0.5,0.5,0.8,0.4,0.9c-2.8,8.4-1.4,16.2,2.4,24c1.9,3.8,2.3,7.8-1,11.7
			c2.2,0,4.1,0.1,5.9-0.1c0.5-0.1,1.1-1.2,1.1-1.9c-0.2-2.4-0.8-4.8-0.9-7.2c0-2.2,0.4-4.4,0.8-6.6c0.1-0.5,0.8-0.9,1.2-1.4
			c0.2,0.1,0.4,0.2,0.5,0.3c-0.1,0.7,0,1.3-0.2,1.9c-1.6,4.8,0.8,9.4,1,14.1c0,0.4,1.8,1.1,2.8,1.1c1.8,0,3.5-0.3,5.3-0.5
			c0.1,0,0.2-0.6,0.1-0.9c-0.7-3.8-1.1-7.7-2.2-11.4c-1.1-3.7-2.4-7.3-0.6-11.1c0.4-0.8,0.9-1.5,1.4-2.2c0.2,0.1,0.4,0.2,0.7,0.2
			c-0.2,0.8-0.3,1.5-0.5,2.3c-0.9,2.7-1.2,5.4,0.2,8c2.6,5,2.4,10.6,3.3,15.6c3.5,0.7,6.9,1.5,10.3,2.1c2.3,0.4,3.2,1.6,3,3.9
			c0,0.5,0.2,1,0.2,1.3c2.3,0,4.5-0.3,6.6,0.1c5.7,0.9,8.8,4.7,9.6,11.7c1.1,10.5-0.1,20.7-4.9,30.4c-2,4.1-5.6,6.4-9.1,9.4
			c31.7,0,63.1,0,94.4,0c0.1-1.5,0-2.8,0.2-4.1c0.4-2.8,3.5-5.6,6.8-5.6c24.9,0.2,49.9,0.1,74.8,0.1c3.7,0,7.3,0,11.4,0
			c-0.7-1.6-1.3-2.7-1.7-3.8c-3.5-9.5-6.9-18.9-10.3-28.4c-0.4-1.3-0.9-1.7-2.3-1.7c-17.7,0-35.4,0-53-0.1c-1.5,0-1.9,0.7-2.3,2
			c-3.1,8.8-6.3,17.5-9.5,26.2c-0.4,1-1,1.9-2.1,2.8c0.1-0.8,0-1.7,0.2-2.5c2.4-7.8,4.9-15.5,7.3-23.2c0.5-1.6,1-3.1,1.6-5
			c-1.1-0.1-1.9-0.2-2.7-0.2c-23,0-46,0-69,0c-4.9,0-9.8,0.9-14.7,0.5c-2.7-0.2-5.5-1.9-7.8-3.5c-1.2-0.8-1.8-3-2-4.6
			c-0.4-3.6-0.5-7.3-0.4-11c0-50.1,0.1-100.3,0.1-150.4c0-3.6-0.1-7.2-0.1-10.8c0-0.8,0.1-1.7,0.4-2.5c1.8-5,2.5-5.6,7.8-5.6
			c28.3,0.1,56.6,0.3,84.9,0.3c47.5,0,95,0,142.4-0.1c3.4,0,6.8-0.6,10.2-0.7c4.2-0.1,7,2.9,7.1,7.7c0.1,6.4,0,12.8,0,19.2
			c0,49.3,0,98.5,0,147.8c0,2.3-0.2,4.7-0.5,7c-0.3,2.3-3.2,4.9-5.9,5.3c-0.7,0.1-1.4,0.5-2,0.8c-0.5,0.2-1,0.6-1.5,0.6
			c-4.5,0-9-0.2-13.5-0.2c-22.8,0-45.5,0-68.3,0c-0.5,0-1.1,0.1-2,0.1c0.3,1,0.5,1.9,0.7,2.7c2.7,8.2,5.3,16.4,8,24.5
			c0.6,1.9,1.5,3.8,2.3,5.6c0.2,0.5,1,0.8,1.6,0.9c2.5,0.2,5.4-0.7,6.9,2.1c1.2,2.2,2,4.6,3.1,7.4c5,0,10.9,0,16.7,0
			c3.2-8.7,11.2-10.3,18.8-12.1c8-1.8,15.7-0.2,23.1,2.9c3.9,1.6,6.8,4.4,9.2,7.8c0.6,0.8,1.8,1.5,2.7,1.5c9.8,0.1,19.6,0,29.3,0.1
			c1.7,0,2.1-0.7,2-2.2c-0.2-3.5-0.5-7-0.5-10.5c0-4.8,0.3-9.7,0.5-14.5c0-0.8,0-1.5,0-2.4c-0.8,0.1-1.3,0.1-1.8,0.2
			c-4,0.3-4,0.3-4,4.2c0.1,6.7,0.1,13.5,0.1,20.2c0,0.5,0.1,1.2-0.1,1.6c-0.3,0.5-0.8,1.1-1.4,1.2c-0.3,0.1-1-0.7-1.1-1.2
			c-0.2-0.6-0.1-1.4-0.1-2.1c0.1-7.8,0.2-15.6,0.1-23.5c0-2.4,0.7-3.3,3-3.1c0.3,0,0.6-0.1,1.1-0.2c0-3.1,0-6.1,0-9.1
			c0-4.1,0.1-8.1,0.1-12.2c0-2.1,0.8-3.1,3.1-3c5.9,0,11.9-0.2,17.8-0.2c2.3,0,3.1-0.5,3-3c-0.1-12.9-0.1-25.8,0-38.7
			c0-3.8,0-3.8,3.8-4.6c-0.2-6.5-0.5-13.1-0.8-20.3c-1.9,0.7-3.4,1.3-5,1.9c0.1-2.2,1.3-3,4.6-3.4c0-4.6,0-9.1,0-13.7
			c0-3.2,0-3.3,3.2-3.3c3,0,6.1,0,9.1,0.3c0.6,0,1.4,1.2,1.5,1.9c0.1,2.7,0.1,5.5-0.1,8.2c-0.1,1.3,0.1,2.1,1.5,2.3
			c2.3,0.3,3.2,1.8,3.6,3.9c0.9,5,0.9,9.9,0.2,14.9c-0.3,2-0.4,4-0.5,6.1c0,0.4,0.3,0.8,0.5,1.2c0.3-0.3,0.8-0.6,1-0.9
			c0.7-1.5,1.3-3.1,1.9-4.7c0.3-0.6,0.5-1.3,0.8-1.9c1.2-3,3.1-5.8,3.4-8.9c0.6-5.6,0.1-11.2,0.2-16.8c0-1.3-0.6-1.8-1.8-1.9
			c-1.5-0.1-2,0.5-2,2.1c-0.2,8.8-0.5,17.6-0.8,26.4c0,0.4,0.2,0.7,0.2,1.1c-0.4-0.9-1.1-1.8-1.1-2.7c-0.3-6.9-0.5-13.9-0.6-20.8
			c0-1.3,0.1-2.7,0-4c-0.1-2.8,0.9-3.9,3.8-4c2.1-0.1,4.6,1.9,4.7,3.9c0.1,3.2,0,6.3,0,9.5c0.3,0,0.5,0.1,0.8,0.1
			c0.7-1.6,1.5-3.2,1.9-4.8c0.6-2.2,2.6-2.2,4.1-2.2c1.1,0,2.4,1.1,3.3,2c1.4,1.4,1.2,3.2,0.5,5c-0.6,1.4-0.9,2.8-1.5,4.2
			c-0.6,1.5-1.5,2.9,0.7,4.1c0.6,0.3,0.8,1.8,0.7,2.8c-0.4,4.2-1,8.4-1.3,12.6c-0.1,1.6,0.7,3.3,0.7,4.9c0.1,12.9,0.2,25.8,0.1,38.7
			c0,2.1,0.5,2.8,2.7,2.8c9.2-0.1,18.5-0.1,27.7-0.1c3.2,0,3.1,0.1,3.1,3.1c0,4.7-0.2,9.4,0.2,14.1c0.2,1.9,1.2,3.6,0,5.6
			c-0.7,1.2,0.2,2.4,1.9,2.2c0.8-0.1,1.6-0.1,2.3-0.1c3.5-0.1,4.1,0.6,4.4,4.1c0.2,2.1,0.4,4,0.2,6.2c-0.5,6.8-0.1,13.6-0.1,20.4
			c0,0.4,0.1,0.7,0.2,1.2c5.2,0,10.3,0,15.2,0c0-13.5,0-26.8,0-40.1c0-2.1,0.2-3.5,2.9-3.3c1.8,0.1,1.5-1.6,1.6-2.6
			c0-0.8-0.6-1.9-1.2-2.2c-5.4-2.3-9.7-5.9-12.1-11.2c-1.6-3.6-2.5-7.5-3.6-11.3c-0.4-1.5,0.3-2.3,2-1.7c2.2,0.8,4.4,1.5,6.8,2.4
			c-0.2-0.7-0.3-1.3-0.5-1.8c-3.6-7.5-3.4-15.1-1.1-22.8c0.5-1.6,1.5-3.1,2.7-4.3c1.1-1.2,2.5-1.2,3.3,0.7c0.9,2,1.9,3.9,2.7,5.7
			c1.1-3.2,2-6.6,3.4-9.8c1.7-3.8,3.6-7.5,5.7-11.1c1.6-2.9,2.8-3.1,5.6-1.2c1.6-1.5,3.1-3,4.7-4.4c3.2-2.7,5.1-2.5,7.5,0.9
			c2,2.8,3.9,5.6,5.9,8.4c0.8,2.1,1.7,4.2,2.4,6.3c0.3,1,0.2,2.2,0.3,3.3c-0.3,0.1-0.6,0.1-0.8,0.2c-1.9-6.3-5.5-11.5-9.2-16.7
			c-1.9-2.6-2.4-2.7-5-0.5c-3.6,3-6.1,6.8-7.8,11.2c-1,2.4-1.2,4.1,0.7,6.2c1.3,1.4,1.8,3.6,2.7,5.4c-0.3,0.1-0.5,0.3-0.8,0.4
			c-2.7-3.8-5-8-9.6-10.6c-1.4,4.2-2.9,8-4,11.9c-0.4,1.3-0.2,3,0.4,4.1c4.8,8.1,9.8,16.1,14.8,24.2c0.6,1,1.5,1.8,2.6,2.9
			c0.3-3,0.6-5.6,0.9-8.1c0.7-5.8,1.8-11.5,5.6-16.4c1.9-2.4,3.4-5.2,5.1-7.8l-0.1,0.1c2.1-2.5,4.5-4.7,6.2-7.5
			c3-4.8,2.5-8-1.1-10.8c-1.2,0.8-2.3,1.6-3.4,2.3c0.4-1,0.8-2,1.3-3c1.3-2.4,2.6-2.5,4.2-0.3c1.2,1.6,2.3,3.4,2.9,5.3
			c2.2,5.9,4.5,11.8,4.9,18.2c0,0.2,0.2,0.4,0.4,0.9c0.8-0.5,1.5-1,2.3-1.5c2.6-1.7,5.3-3.3,7.9-5c1.4-0.9,2.4-0.5,2.8,1.1
			c0.2,0.8,0.4,1.5,0.5,2.3c0.9,9-1.3,17.2-6.7,24.5c-0.6,0.9-1,2.3-0.9,3.4c0.4,4.5-0.4,8.8-2.6,12.7c-1.3,2.3-2.9,4.4-0.5,7.2
			c2.2,0.4,3,2.2,3,4.6c0.1,12.2,0.2,24.4,0.2,36.6c0,2.4,0.7,3,3,3c9.8-0.1,19.7-0.1,29.5-0.1c0.8,0,1.7-0.1,2.5-0.2
			c0,1.1,0,2.2,0,3.3c-1.3,0-2.5,0-3.8,0c-69.8,0-139.7,0-209.5,0c-144.8-0.1-289.5-0.2-434.3-0.4c-3.7,0-7.4,0-11.2,0
			c0,8.9,0,17.2,0,25.9c1.4,0,2.7,0,3.9,0c23.5-0.1,47.1-0.4,70.6-0.4c175.7-0.1,351.3-0.1,527-0.1c19.1,0,38.2,0,57.2-0.1
			c0,1.1,0,2.2,0,3.3c-13.3,0-26.5,0-40,0c0,1.1,0,1.8,0,2.6c0.1,40.7,0.3,81.5,0.4,122.2c0,0.8,0.1,1.6,0.2,2.3c-1.1,0-2.2,0-3.3,0
			c0-42.3,0-84.7,0-127.1c-8.6,0-17.2,0-26,0c0,0.9,0,1.6,0,2.3c0,23.1,0.1,46.1,0.1,69.2c0,18.5,0,37.1,0.1,55.6
			C722.4,564.9,721.4,564.9,720.5,564.9z M748,340c-0.2-0.6-0.8-1.3-0.7-1.9c1.7-8.5,0.8-17-0.4-25.4c-0.4-2.6-1.3-5.1-2.1-8
			c-3.6,4.7-6.9,8.8-10.1,13c-3.8,4.9-7,10-7.8,16.3c-0.3,2.3-1,4.6-1.3,6.9c-0.2,2.1-0.9,4.7,0.1,6.1c2.2,3.3,3.8,6.6,3,10.7
			c2.2,0,4,0,6.2,0c-0.9-3.1,0.7-5.2,2.5-7c2.2-2.3,4.7-4.3,7-6.5C745.7,343,746.8,341.4,748,340c1-0.8,2-1.5,3-2.3
			c0.8-0.6,1.3-1.8,2.2-2c0.7-0.2,1.6,0.7,2.4,1.1c5.4-6.8,7.1-14.4,6-23.5c-3.3,2.2-6.2,4-9,5.9c-1.5,1-2,2.3-1.9,4.2
			c0.1,3.6,0.2,7.2-0.2,10.7C750.1,336.1,748.9,338.1,748,340z M306.6,330.2c0-1.2,0-2.1,0-3c0-46,0-92,0-138c0-0.9-0.1-1.9,0.1-2.8
			c0.1-0.5,1.2-1.3,1.3-1.2c1.7,1.4,3.3,0,5,0c73.7,0.1,147.3,0.1,221,0.2c1.2,0,2.4,0.9,3.5,1.3c-1.2,0.4-2.4,1.2-3.6,1.2
			c-12,0.1-23.9,0.1-35.9,0.1c-62.7,0-125.4,0-188.4,0c0,47.3,0,94.7,0,142c76.1,0,152.5,0,228.8,0c0-1.8,0-3.2,0-4.7
			c0-45.6,0-91.2,0.1-136.8c0-1.3-0.7-3.3,1.4-3.3c1.9,0.1,1.2,2.1,1.2,3.3c0,46.5,0,93.1,0.1,139.6c0,0.6,0.1,1.2,0.1,2
			c2.2,0,4.3,0,6.5,0c0-1.1,0-2.2,0-3.3c0-37.1,0-74.3,0-111.4c0-9.8,0.3-19.5,0.3-29.3c0-2.4-0.3-4.8-0.7-7.2
			c-0.3-1.4-1.2-2.3-2.9-1.9c-1.8,0.5-3.5,1.1-5.3,1.2c-4.8,0.2-9.7,0.1-14.5,0.1c-73.4-0.1-146.7-0.2-220.1-0.2
			c-3.5,0-4.4,0.8-4.4,4.4c0,2.6,0.2,5.1,0.2,7.7c0,45.7,0.1,91.3,0.1,137c0,1.1,0,2.1,0,3.3C302.7,330.4,304.6,330.3,306.6,330.2z
			 M547.4,339.3c-82.2,0-164.5,0-246.5,0c0,6-0.1,11.7,0,17.5c0,1.8,2.7,3.6,4.6,3.5c1.6-0.1,3.3-0.3,4.9-0.3
			c56.6,0,113.2,0,169.8-0.1c20.7,0,41.4,0,62.1,0c2.6,0,4.9-1.8,5-4.5C547.5,350.1,547.4,344.7,547.4,339.3z M234.6,282.3
			c0.2-1.1,0.3-1.6,0.3-2c0.3-5.3,1.3-10.4,3.2-15.3c4-10,8.7-19.5,14.8-28.4c6-8.7,12.5-16.6,22.5-20.9c0.3-0.1,0.4-0.4,0.8-0.7
			c-5.1-1.5-10-3.1-14.9-4.3c-11.2-2.8-22.5-5.4-33.7-8.1c-4.6-1.1-9.5-1.6-13.7-3.6c-4.3-2-7.6-1.1-10.6,1.4
			c-4.6,3.9-7.8,8.9-10.2,14.4c-1.2,2.9-0.9,5.3,1.2,7.8c2.6,3.1,5.2,6.3,7.4,9.6c7.7,11.6,15.3,23.2,23,34.8
			C227.9,272,231.1,276.8,234.6,282.3z M203.5,391.3c-5.7-1.7-30.9,9-34.6,15.2c34.9,0,69.8,0,104.6,0c0-18,0-35.7,0-53.8
			c-8.3,2.5-16.4,2.5-24.5,2.3c-8.1-0.2-16.1-0.7-24.5-1.1c0,11.7,0,23.7,0,35.8c4.4,1.6,9.1,3.2,13.5,5.1
			c6.5,2.9,10.7,6.3,11.5,8.7c-0.5-0.3-0.9-0.4-1.3-0.7c-12.3-8.8-26.1-12.5-41-12.3C205.9,390.7,204.7,391.1,203.5,391.3z
			 M753.9,365.7c-16.7,0-33.4,0-50.4,0c0,1.1,0,2,0,2.9c0.2,11.8,0.4,23.6,0.4,35.4c0,2.1,0.6,2.6,2.6,2.6c14.9-0.1,29.7,0,44.6,0
			c0.8,0,1.6-0.1,2.7-0.2C753.9,392.8,753.9,379.4,753.9,365.7z M604.5,332.4c0,5.7,0,11,0.1,16.3c0,0.3,1.1,0.9,1.7,1
			c10.6,0,21.3,0,31.9,0c1.3,0,1.8-0.5,1.8-1.8c-0.1-2.5,0-5,0-7.4c0-10.3,0.1-20.6,0.1-30.9c0-4.1,0.1-4.1-3.9-3.9
			c-0.3,0-0.6,0.1-0.9,0.1c-9.4,0.1-18.9,0.3-28.3,0.4c-0.8,0-2.2,0.3-2.2,0.5c0,1.2,0.3,2.4,0.6,3.5c0.1,0.4,0.8,0.7,1.3,1
			c8,5.9,17.2,8.7,26.8,10.5c0.6,0.1,1.2,0.4,1.8,0.6c-0.1,0.3-0.2,0.5-0.3,0.8c-11.3,0.8-21.1-3.5-30.4-10.5c0,6,0,11.4,0,16.9
			c0,0.4,0.1,0.9,0.3,1.1c1.5,1.5,3,3.2,4.7,4.5c6.3,4.8,13.4,7.6,21.3,8.6c2.6,0.3,5.1,0.7,8.2,1.2
			C631.2,349.2,611.3,342,604.5,332.4z M199.1,234.3c-3.3,5.9-6.3,11.3-9.4,16.7c-8.6,15.3-17.2,30.5-25.8,45.7
			c-0.5,0.8-1.5,1.5-2.4,1.8c-1.7,0.6-3.7,0.6-5.4,1.3c-5.7,2.5-8.8,8.5-7.7,14.8c1,5.9,6.1,10.3,12.3,10.7
			c5.8,0.4,11.5-3.5,13.3-9.2c0.5-1.5,0.8-3.4,0.3-4.8c-0.7-2-0.2-3.4,0.7-5c10.7-18.9,21.4-37.8,32.1-56.7c0.4-0.7,0.7-2.1,0.3-2.7
			C204.9,242.9,202.1,238.8,199.1,234.3z M585.9,382.5c0-0.3,0-0.7,0-1c0.8-0.1,1.7-0.4,2.5-0.4c13.8-0.1,27.7-0.3,41.5-0.3
			c16.8-0.1,33.6-0.1,50.4-0.1c1.3,0,2.3,0,2.3-1.8c0-1.8-1.1-1.8-2.3-1.8c-3.4-0.1-6.9-0.3-10.3-0.3c-27.7,0-55.4,0-83,0
			c-0.8,0-1.7,0.1-2.6,0.1c0,4.6,0.1,9,0,13.3c0,1.8,0.6,2.2,2.3,2.2c31.2,0.1,62.4,0.2,93.6,0.3c1.6,0,2.3-0.3,2.2-2.1
			c-0.1-1.8-0.1-3.6,0.1-5.4c0.2-1.8-0.6-2.2-2.3-2.2c-6.8,0.1-13.6,0-20.4,0c-23.5-0.1-46.9-0.2-70.4-0.3
			C588.3,382.8,587.1,382.6,585.9,382.5z M279,214c0.4-3.9,1.2-7.7,1.3-11.6c0.2-6.6,0.1-13.1,0.1-19.7c0-0.8-0.1-1.6-0.1-2.6
			c-1.2,0-2.2,0-3.1,0c-18.1,0-36.3,0-54.4-0.1c-1.4,0-2.7-0.4-4-0.8c-2-0.6-2.8-0.2-2.8,1.9c0,4.5,0.3,8.9,0.2,13.4
			c0,1.8,0.6,2.6,2.2,2.9c5.4,1.3,10.8,2.6,16.2,3.9c1.9,0.5,3.9,0.9,5.8,1.3c0.1-0.3,0.2-0.5,0.2-0.8c-1.1-0.4-2.2-0.7-3.3-1.1
			c-0.7-0.3-1.7-0.5-1.9-1c-0.2-0.5,0.2-1.5,0.6-2c0.8-1,1.9-1.9,2.8-2.8c1.3-1.3,2.7-2.7,4-4c-0.1-0.2-0.2-0.5-0.3-0.7
			c-5.4-0.1-10.7-0.2-16.1-0.4c-0.7,0-1.4-0.8-2.2-1.2c0.7-0.4,1.4-1.1,2-1.1c6,0.2,12,0.4,18,0.8c0.8,0,2.3,0.7,2.3,1.1
			c0,1-0.5,2.1-1.1,2.8c-1.9,2-3.9,3.7-5.4,5.1c1.6,2.3,2.7,4.1,4,5.9c0.2,0.3,0.7,0.6,1.1,0.8c1.5,0.4,3,0.7,4.4,1.1
			c0.2-0.2,0.3-0.3,0.3-0.4c0-0.3,0-0.6,0-0.9c-0.4-4.3-0.2-8.4,2.2-12.2c2.9-4.7,8.6-5.6,12.6-1.8c5.4,5.1,7.6,11.3,5.3,18.6
			c-0.5,1.7,0,2.2,1.4,2.7C273.5,211.7,275.9,212.7,279,214z M300.6,336.3c82.6,0,164.8,0,247.1,0c0-1.2,0-2.2,0-3
			c-82.5,0-164.7,0-247.1,0C300.6,334.4,300.6,335.2,300.6,336.3z M216.4,388.6c-15.1-21.2-30.2-42.4-45.1-63.4
			c-3,1.1-6,2.2-9.1,3.3c0.3,0.5,0.7,1,1,1.5c5.2,7.4,10.4,14.6,15.5,22.1c8,11.8,15.8,23.7,23.7,35.5c0.5,0.7,1.5,1.6,2.3,1.6
			C208.4,389.2,212.3,388.9,216.4,388.6z M374.5,406.4c34.2,0,68.2,0,102.3,0c-1-5.8-1.9-6.6-7.3-6.6c-28.7,0-57.4,0-86.1,0
			c-6.4,0-6.4,0-8.9,6C374.5,405.8,374.5,406,374.5,406.4z M698.6,308c-0.8,1.7-1.8,3-2,4.3c-1.3,7.7-0.8,15.4,1.9,22.7
			c2.9,7.7,6.7,15.2,11.9,21.7c0.4,0.5,1.1,1.2,1.6,1.2c5.1,0.1,10.3,0.1,15.5,0.1c0-3.6-1.1-6.4-3.4-9c-2.5-2.8-4.8-5.7-7-8.7
			c-1.2-1.6-1.9-3.6-3-5.3c-5.4-8.2-11.5-16-14.5-25.6C699.5,309.2,699.2,308.9,698.6,308z M237.9,279.6
			c12.2-4.4,36.2-45.8,34.2-59.1C260.9,224.3,236.3,266.8,237.9,279.6z M281.3,222.8c-0.2,0-0.4-0.1-0.6-0.1c0-1,0.3-2.2-0.1-3
			c-0.5-1-1.7-2.3-2.6-2.4c-1.4-0.1-3.1,0.4-3.2,2.6c-0.4,9.1-3.5,17.6-7.5,25.7c-3.3,6.8-7.4,12.9-12.3,18.7
			c-5.2,6.2-9.3,13.3-16.9,17.2c-0.8,0.4-0.9,2.4-0.9,3.7c0,0.3,1.8,1.1,2.4,0.9c2.2-0.7,4.6-1.4,6.3-2.8c3.6-2.9,7-6,10.2-9.3
			c10.3-10.5,17.8-22.7,22-36.9C279.6,232.5,280.3,227.6,281.3,222.8z M584.6,406.5c4.4,0,8.6,0,12.9,0c27.4,0,54.9,0,82.3,0
			c1.8,0,2.6-0.4,2.6-2.4c0-1.9-0.3-2.9-2.6-2.8c-3.4,0.2-6.9,0-10.3,0c-26.9-0.1-53.8-0.2-80.7-0.4
			C583.9,400.9,583.9,400.8,584.6,406.5z M633.5,394.5c0,0.1,0,0.2,0,0.4c-13.1,0-26.1,0-39.2,0c-2.8,0-5.6-0.1-8.4,0
			c-2.7,0.1-1.3,2.2-1.5,3.4c-0.3,1.4,0.6,1.7,1.9,1.5c1.3-0.2,2.6-0.3,4-0.3c25.9-0.1,51.8-0.2,77.6-0.3c4.1,0,8.3-0.1,12.4-0.1
			c1.5,0,2-0.5,2.1-2c0.2-2.2-0.8-2.5-2.7-2.5C664.3,394.5,648.9,394.5,633.5,394.5z M544.2,406.4c0.2-0.3,0.3-0.6,0.5-0.9
			c-2.4-1.8-4.5-4-7.2-5.3c-10.8-5.2-21.8-5-32.5,0.3c-2.4,1.2-4.8,2.7-5.7,5.9C514.4,406.4,529.3,406.4,544.2,406.4z M606.9,266.8
			c0,4.5,0,8.5,0,12.5c-0.1,7.5-0.2,14.9-0.4,22.4c0,1.5,0.4,2.2,2,2.2c1.4-0.1,2.8-0.2,4.2-0.1c2.3,0.2,2.8-0.8,2.8-2.9
			c0-4.1,0.2-8.1,0.2-12.2c0.1-6.6,0.2-13.3,0.2-19.9c0-0.7-0.8-1.9-1.2-1.9C612,266.7,609.3,266.8,606.9,266.8z M276.7,362.4
			c5.8-0.2,9.7,3.6,9.4,9.5c-0.3,6.6-0.5,13.3-3.6,19.4c-1,1.9-2.2,3.8-3.8,5.2c-2.7,2.5-3.5,4.8-2.2,8.9c1.2-0.9,2.6-1.4,3.3-2.5
			c3.1-4.7,6.5-9.4,8.9-14.5c3.3-6.9,3-14.4,1.8-21.8c-1-6.2-4.1-9.6-9.3-9.7c-5.6-0.1-5.1-0.9-4.8,5.1
			C276.5,362.1,276.6,362.2,276.7,362.4z M673.2,373.8c0.8-2.4,0-3.2-2.2-3.2c-27.3,0-54.5-0.1-81.8-0.1c-0.6,0-1.2,0.1-1.8,0.2
			c0,1.1,0,2.1,0,3.1C616.1,373.8,644.6,373.8,673.2,373.8z M587.5,364.6c0.7,0,1.2,0.1,1.7,0.1c24.5-0.1,48.9-0.1,73.4-0.2
			c3,0,6.1,0,9.1-0.2c0.6,0,1.5-0.7,1.7-1.3c0.4-1.3-0.7-1.5-1.7-1.4c-0.4,0-0.8,0-1.2,0c-27-0.1-54.1-0.2-81.1-0.2
			C587,361.2,586.9,361.4,587.5,364.6z M251.4,200.2c0.2,0.1,0.4,0.1,0.6,0.2c0,0.8,0,1.6,0,2.3c-0.1,2.1,0.8,3.2,2.9,3.7
			c3.3,0.8,6.4,1.9,9.6,3c1.4,0.5,1.9,0.1,2.4-1.2c2.7-6.4-0.4-13.6-4.2-16.8c-3.1-2.6-7-2.2-8.9,1.4
			C252.7,195.1,252.2,197.7,251.4,200.2z M587.3,355.1c1.4,0,2.7,0,4,0c26.4-0.1,52.8-0.2,79.2-0.3c0.5,0,1.2,0.2,1.6,0
			c0.5-0.2,1.2-0.8,1.2-1.2c0-0.4-0.6-1-1.1-1.3c-0.3-0.2-0.9,0-1.4,0c-27.4,0-54.8-0.1-82.3-0.1c-0.7,0-1.4,0-2.2,0
			C586.8,353.3,587.1,354.2,587.3,355.1z M630.2,366.6c0-0.1,0-0.2,0-0.2c-9.3,0-18.6,0-27.9,0c-4.4,0-8.8-0.1-13.1,0
			c-0.6,0-1.3,0.8-1.9,1.3c0.7,0.4,1.3,0.9,2,1.3c0.1,0.1,0.3,0,0.5,0c26.9-0.1,53.8-0.1,80.7-0.2c1,0,2.1-0.7,3.1-1
			c-1.1-0.4-2.1-1-3.2-1C656.9,366.6,643.5,366.6,630.2,366.6z M276.4,396c2.1-3.2,4.5-5.7,5.5-8.7c2.2-6.7,2.8-13.6,0.1-20.3
			c-0.5-1.2-2.6-2.1-4.1-2.3c-2-0.2-1.4,1.8-1.5,3c-0.1,6.3,0,12.6,0,18.9C276.4,389.5,276.4,392.4,276.4,396z M736.4,357.9
			c3.3,0,5.8,0,8.4,0c5.6,0,5.6,0,7.6-5.3c1.5-4.1,2.3-8.2,0.4-13.2c-1.6,1.8-2.8,3.4-4.2,4.8c-3.4,3.3-7,6.4-10.4,9.8
			C737.3,354.9,737.1,356.3,736.4,357.9z M690.9,336.3c-0.2,0.4-0.3,0.5-0.3,0.7c0,0.3,0,0.6,0.1,0.9c1.7,8.5,6.1,15.1,13.7,19.4
			c1.3,0.7,3,0.7,4.6,1c-2.9-5.9-6.1-11.1-9-16.4C697.9,338.1,694.3,337.5,690.9,336.3z M587.3,357.3c-0.6,1.7,0.4,2.1,2.1,2
			c27.1-0.1,54.1-0.2,81.2-0.3c0.7,0,1.4,0.1,2.1-0.1c0.3-0.1,0.7-0.6,0.8-0.9c0-0.1-0.4-0.6-0.7-0.7c-0.4-0.1-0.9-0.1-1.4-0.1
			C643.4,357.3,615.5,357.3,587.3,357.3z M626.6,303.3c4.3,0.6,4.3,0.6,5.5-3c0.1-0.1,0.1-0.3,0.2-0.4c3.2-7.3,6.4-14.6,9.5-21.9
			c0.3-0.7,0.5-1.8,0.2-2.2c-1.3-1.3-4-0.4-4.6,1.4c-1.9,5.1-3.9,10.2-5.9,15.3C629.9,296,628.2,299.6,626.6,303.3z M750.2,362.7
			c0.2-2.4-1.2-2.5-2.7-2.5c-9.1,0-18.1,0-27.2,0c-3.7,0-7.5,0.3-11.2,0.5c-0.5,0-0.9,0.6-1.3,0.9c0.4,0.4,0.8,0.8,1.2,1
			c0.3,0.2,0.8,0,1.2,0c12.5,0,25,0,37.5-0.1C748.5,362.7,749.4,362.7,750.2,362.7z M249.4,349.5c-6.9,0.5-13.7,1-20.5,1.5
			c0,0.4,0,0.8,0.1,1.2c14.5,0,29,2.2,43.4-1.1c-3.8-0.1-7.6-2.2-10.6-0.7c-2.7-0.2-4.7-0.1-6.5-0.6c-2.5-0.7-3.4,2-5.4,2.4
			C249.6,351.3,249.6,350.7,249.4,349.5z M580,373.6c4.3,0.8,4.4,0.7,4.4-3.1c0-6.1,0-12.2,0-18.4c-0.7,0-1.8-0.3-2.8-0.1
			c-0.6,0.1-1.5,0.9-1.5,1.4C580,360.1,580,366.8,580,373.6z M192,215.6c0.5-7.9,4.8-13.2,11-17.3c-3.3-2.1-3.5-2-6,0.3
			c-3.5,3.3-6,7.1-7.4,11.7C188.8,213,189,214,192,215.6z M621,279.2c-1.6,0.3-2.8,0.9-2.8,2.7c0.1,6.8,0.2,13.6,0.4,20.3
			c0,0.5,0.7,0.9,1.1,1.4c0.5-0.5,1.3-0.9,1.4-1.4c0.2-1,0.1-2,0.1-3c0.1-6.1,0.2-12.3,0.3-18.4C621.4,280.3,621.1,279.8,621,279.2z
			 M640.4,303.4c0-5,0-9.8,0-14.6c-0.2-0.1-0.3-0.1-0.5-0.2c-2.4,4.8-4.7,9.6-7.2,14.7C635.5,303.4,637.9,303.4,640.4,303.4z
			 M713.1,302c0.3-0.1,0.5-0.2,0.8-0.3c1.2-2.6,2.4-5.2,3.5-7.8c0.2-0.4-0.2-1.1-0.3-1.6c-0.6,0.2-1.5,0.2-1.7,0.6
			c-1.1,2-2.2,4.1-3,6.3C712.1,299.8,712.8,301,713.1,302z"/>
		<path class="st13" d="M186.4,564.9c0.1-1,0.2-2,0.2-3c0.1-40,0.2-79.9,0.3-119.9c0-0.9,0-1.9,0.2-2.8c0.1-0.4,0.7-3.7,1.1-3.7
			c0.4,0,1,3.3,1.1,3.7c0.2,1,0.2,2,0.2,3c0.1,39.3,0.2,78.5,0.2,117.8c0,1.6,0.1,3.3,0.1,4.9C188.6,564.9,187.5,564.9,186.4,564.9z
			"/>
		<path class="st13" d="M762.3,564.9c0.1-36.9,0.1-73.8,0.2-110.7c0-4.4,0.1-8.8,0.3-13.1c0-0.8,0.6-1.6,0.9-2.4
			c0.4,0.8,1.2,1.6,1.2,2.4c0.1,11.4,0.2,22.8,0.3,34.2c0.1,29.1,0.1,58.2,0.1,87.3c0,0.8-0.1,1.6-0.2,2.3
			C764.2,564.9,763.2,564.9,762.3,564.9z"/>
		<path class="st13" d="M173.3,564.9c-0.1-0.9-0.2-1.9-0.2-2.8c0.1-39.3,0.2-78.6,0.3-118c0-1.2-0.8-6.9,1.2-6.9
			c2,0,1.3,5.6,1.3,6.8c0.1,40.3,0.1,80.5,0.2,120.8C175.2,564.9,174.2,564.9,173.3,564.9z"/>
		<path class="st13" d="M591.4,257.9c-2.6,0.3-2.7-1.4-2.7-3.3c0-20.5,0-41,0.1-61.5c0-11,0.1-22.1,0.2-33.1
			c0.1-6.1,0.1-6.2,6.2-6.2c51.1,0,102.3-0.1,153.4-0.1c2,0,3.5,0.1,3.5,2.7c0,2.7,0.5,5.4,0.5,8.2c0.1,31.3,0.1,62.6,0.2,93.8
			c0,3-0.2,3.1-3,2.4c-1-0.3-2.2-0.2-3.3-0.2c-50.5,0-101,0.1-151.6,0.1c-0.6,0-1.3,0-1.9,0C590.6,260.8,590.3,260.2,591.4,257.9
			c0.7,0,1.5,0.1,2.3,0.1c51.1,0,102.3,0.1,153.4,0.1c0.8,0,1.7,0,2.6,0c0-2.7,0-5,0-7.5c-52.7,0-105.2,0-157.6,0
			C591.8,253.2,591.6,255.6,591.4,257.9z M591.8,247.3c3.1-5.9,6-11.3,8.7-16.8c0.8-1.6,1.5-3.5,1.8-5.3c0.4-2.9,0.9-3.6,3.6-2.7
			c5.6,1.9,11.1,4,16.7,6c0.9,0.3,2.7,0.6,2.9,0.3c0.6-1.1,0.8-2.5,1-3.9c0.2-0.9,0.2-2.4,0.6-2.5c1-0.2,2.2,0,3.2,0.4
			c1.7,0.7,3.2,2,5,2.6c1.9,0.6,4,0.6,6,1.2c2.4,0.7,3.3-0.2,3.7-2.4c0.8-4.8,1.6-9.7,2.4-14.5c0.2-1.3,0.3-2.3-1-3.3
			c-0.5-0.3-0.6-2.1-0.2-2.8c1-1.8,3.8-1.8,5.2-0.1c0.4,0.5,0.9,1.2,1.4,1.3c6.3,1.6,12.6,3,18.9,4.5c2.7,0.6,3.5,0,4.8-2.5
			c1.1-2.3,2.5-4.5,3.7-6.8c3.7-6.9,8.4-13.3,10.8-21c0.3-1-0.1-2.2,0.1-3.2c0.2-1.2,0.3-2.7,1-3.6c0.6-0.7,2.2-1,3.1-0.6
			c1,0.4,2.2,1.8,2.1,2.6c-0.3,1.9,0.8,2.3,2,2.8c5.4,2.3,10.8,4.6,16.2,6.8c1.9,0.8,3.7,1,5.4-0.9c6.7-7.1,13.6-14,20.4-21
			c1.5-1.6,3.1-3.2,5-5.2c-52,0-103.3,0-154.5,0C591.8,187,591.8,217,591.8,247.3z M749.9,247.5c0-30.4,0-60.5,0-91
			c-0.5,0.5-0.9,0.8-1.1,1.1c-7.6,8.2-15.3,16.3-22.9,24.5c-1.5,1.6-2.9,3.4-4.4,5c-0.7,0.8-1.5,2.1-2.3,2.2
			c-1.1,0.1-2.4-0.6-3.5-1.2c-0.9-0.5-1.6-1.6-2.5-2c-6.1-2.6-12.2-5.1-18.6-7.8c-1.1,2.8-2.1,5.6-3.5,8.2
			c-3.3,6-6.9,11.9-10.1,17.9c-1.1,2-1.9,4.3-2.1,6.5c-0.1,1.8-0.3,3.1-2,3.7c-1.8,0.6-3.7,1.2-4.8-1.2c-0.2-0.5-1-1-1.6-1.1
			c-5.7-1.4-11.4-2.8-17.1-4.1c-2.7-0.6-2.8-0.4-3.3,2.3c-0.8,5.2-1.8,10.3-2.6,15.4c-0.1,0.6-0.2,1.6,0.2,1.9
			c1.9,1.9,0.2,3.1-0.8,4.1c-1.3,1.2-2.6,0.2-3.6-0.9c-0.5-0.5-1-1-1.6-1.2c-3.9-0.9-7.9-1.6-12-2.5c-0.1,0.2-0.3,0.5-0.4,0.8
			c-1.8,4.8-3.2,5.3-7.9,3.1c-3.6-1.7-7.3-3.2-11-4.6c-2.2-0.8-5,0.6-6,2.6c-1.1,2.4-2.5,4.7-3.6,7.1c-1.8,3.6-3.5,7.2-5.4,11.1
			C647.1,247.5,698.3,247.5,749.9,247.5z"/>
		<path class="st13" d="M599.9,286.1c1,4.5,2.1,9.1,3.1,13.6c-0.2,0.1-0.5,0.1-0.7,0.2c-2.7-4.1-3.3-8.8-3.4-13.5
			C599.3,286.2,599.6,286.1,599.9,286.1z"/>
		<path class="st13" d="M232.4,333.9c1.5,4,4.5,7.6,3.9,12.2c-0.3,0.1-0.5,0.2-0.8,0.2c-1.4-4-2.8-8.1-4.2-12.1
			C231.7,334.1,232.1,334,232.4,333.9z"/>
		<path class="st13" d="M267.1,346.8c0.1-2,0.2-3.7,0.4-5.9C269.5,343.1,269.2,345.8,267.1,346.8z"/>
		<path class="st13" d="M422,348.6c0-2.7,2.1-4.9,4.8-4.9c2.7,0,5,2.1,5,4.8c0,2.7-2.3,4.9-5.1,5C424.2,353.5,422,351.3,422,348.6z
			 M427.4,345.9c-0.3,0-0.6,0-1,0c-0.5,0.9-1.7,1.9-1.5,2.6c0.2,0.9,1.5,1.6,2.3,2.3c0.7-0.8,1.8-1.6,1.8-2.5
			C429.1,347.6,428,346.7,427.4,345.9z"/>
		<path class="st13" d="M161.3,302.6c5.3,0,9.6,4.2,9.6,9.5c0,5.4-4.3,9.7-9.7,9.6c-5.3-0.1-9.5-4.4-9.4-9.6
			C151.9,306.6,155.9,302.6,161.3,302.6z M161.3,319.4c3.9,0,7.2-3.2,7.3-7.1c0.1-3.9-3.3-7.4-7.2-7.4c-3.7,0-7.3,3.5-7.3,7.1
			C154,315.9,157.4,319.4,161.3,319.4z"/>
		<path class="st13" d="M585.2,387.5c1-0.1,2-0.3,3-0.3c25.2-0.1,50.4-0.1,75.5-0.2c5,0,10-0.1,15-0.2c0.6,0,1.3,0,1.8,0.2
			c0.4,0.2,0.8,0.7,0.9,1.1c0.1,0.2-0.5,0.7-0.9,0.9c-0.5,0.2-1.1,0.2-1.6,0.2c-30.3-0.1-60.5-0.2-90.8-0.4c-1,0-2-0.2-3-0.3
			C585.2,388.2,585.2,387.8,585.2,387.5z"/>
		<path class="st13" d="M735.1,312.4c-0.8-1-1.8-1.8-2.4-2.9c-1.2-2.2-2.3-4.5-3.8-6.7c-3.7,10.1-11.2,18.3-11.9,29.4
			c-0.3-0.1-0.7-0.1-1-0.2c0-2-0.2-4,0-6c0.5-4.7,2.9-8.7,4.9-12.8c2.1-4.2,3.9-8.6,5.8-13c0.7-1.7,1.4-2.1,2.6-0.7
			C732.7,303.3,735.5,307.2,735.1,312.4C735,312.5,735.1,312.4,735.1,312.4z"/>
	</g>
	<g>
		<path class="st2" d="M539.4,36.4c14.3,0,25.8,11.6,25.8,25.8S553.6,88,539.4,88c-14.2,0-25.8-11.6-25.8-25.8
			S525.1,36.4,539.4,36.4z"/>
		<path class="st2" d="M512.1,164.4c9.5,0,17.2,7.7,17.2,17.2s-7.7,17.2-17.2,17.2s-17.2-7.7-17.2-17.2
			C494.9,172.1,502.6,164.4,512.1,164.4z"/>
		<path class="st2" d="M414.3,125.5c-1.6-2.4-2.9-5.1-3.9-7.9c-1.4-3.9-2.1-8.1-2.1-12.4c0-20.5,16.6-37.2,37.2-37.2
			c20.5,0,37.2,16.6,37.2,37.2c0,4.3-0.7,8.5-2.1,12.3c-1,2.7-2.2,5.3-3.8,7.7c-6.6,10.3-18.2,17.1-31.3,17.1
			C432.4,142.3,420.9,135.7,414.3,125.5z"/>
		<polygon class="st2" points="356.4,249.9 347.3,249.9 323.5,249.9 323.5,165.2 325.3,165.2 378.8,215.6 434.1,165.2 434.1,246.4 
			434.1,256.9 434.1,266 422,256.5 413.7,250 		"/>
		<polygon class="st2" points="434.1,165.2 378.8,215.6 325.3,165.2 347.3,165.2 356.4,165.2 		"/>
		<path class="st2" d="M372.4,25.9c8.7,0,15.7,7,15.7,15.7c0,8.7-7.1,15.7-15.7,15.7c-8.7,0-15.7-7.1-15.7-15.7
			C356.7,33,363.7,25.9,372.4,25.9z"/>
		<path class="st2" d="M310.5,92.5c11.6,0,21,9.4,21,21c0,11.6-9.4,21-21,21c-11.6,0-21-9.4-21-21
			C289.5,101.9,298.9,92.5,310.5,92.5z"/>
		<path class="st100" d="M529.2,181.6c0,9.5-7.7,17.2-17.2,17.2s-17.2-7.7-17.2-17.2c0-9.5,7.7-17.2,17.2-17.2
			C521.5,164.4,529.2,172.1,529.2,181.6z"/>
		<path class="st100" d="M410.4,117.6c-1.4-3.9-2.1-8.1-2.1-12.4c0-20.5,16.6-37.2,37.2-37.2c20.5,0,37.2,16.6,37.2,37.2
			c0,4.3-0.7,8.5-2.1,12.3c-1,2.7-2.2,5.3-3.8,7.7c-6.6,10.3-18.2,17.1-31.3,17.1c-13,0-24.5-6.7-31.1-16.8
			C412.7,123.1,411.4,120.4,410.4,117.6z"/>
		<path class="st100" d="M565.2,62.2c0,14.3-11.6,25.8-25.8,25.8c-14.2,0-25.8-11.6-25.8-25.8s11.6-25.8,25.8-25.8
			C553.6,36.4,565.2,47.9,565.2,62.2z"/>
		<path class="st100" d="M388.2,41.7c0,8.7-7.1,15.7-15.7,15.7c-8.7,0-15.7-7.1-15.7-15.7c0-8.7,7-15.7,15.7-15.7
			C381.1,25.9,388.2,33,388.2,41.7z"/>
		<path class="st100" d="M331.4,113.5c0,11.6-9.4,21-21,21c-11.6,0-21-9.4-21-21c0-11.6,9.4-21,21-21
			C322,92.5,331.4,101.9,331.4,113.5z"/>
		<polygon class="st100" points="434.1,165.2 434.1,246.4 434.1,256.9 434.1,266 422,256.5 413.7,250 356.4,249.9 347.3,249.9 
			323.5,249.9 323.5,165.2 325.3,165.2 347.3,165.2 356.4,165.2 		"/>
		<polyline class="st100" points="325.3,165.2 378.8,215.6 434.1,165.2 		"/>
		<circle cx="504.4" cy="178.9" r="1.8"/>
		<circle cx="519.8" cy="178.9" r="1.8"/>
		<path class="st32" d="M504.4,185.6c0,0,3.2,4.7,7.7,4.8c4.5,0.1,7.7-4.8,7.7-4.8H504.4z"/>
		<path class="st100" d="M452.9,209.1c0,0,31.1,6.5,39.1-13.4"/>
		<path class="st100" d="M480.1,134.3c0,0,17.8,5.9,22.5,26.2"/>
		<path class="st100" d="M388.2,62.2c0,0,7.5,14.6,21.8,13.5"/>
		<path class="st100" d="M352.7,56.9c0,0-21.2,5.3-27.3,31.1"/>
		<path class="st100" d="M506.1,50.2c0,0-45.9-30.9-103.5-8.5"/>
		<path class="st100" d="M552.9,99.1c0,0,12.2,42.4-27,61.5"/>
		<path class="st101" d="M321,107c0,0.1,0,0.1-0.1,0.1c-0.5,0.7-1.1,1.4-1.8,2c-0.2,0.2-0.3,0.4-0.3,0.6v0.1c0,1.4-0.3,3-0.8,4.4
			c-0.6,1.5-1.4,2.8-2.4,4c-1.1,1.3-2.4,2.2-3.9,2.9c-1.6,0.7-3.4,1.1-5.4,1.1c-2.2,0-4.4-0.6-6.3-1.7c-0.1-0.1-0.2-0.2-0.2-0.4
			c0-0.2,0.2-0.3,0.3-0.3h0.5c1.7,0,3.3-0.5,4.7-1.4c-1.7-0.3-3.1-1.5-3.6-3.1c-0.1-0.2,0.1-0.3,0.2-0.3c0,0,0,0,0.1,0
			c0.3,0,0.5,0.1,0.8,0.1c0,0,0.1,0,0.1,0c-1.6-0.7-2.6-2.3-2.6-4.1c0,0,0,0,0-0.1c0-0.1,0.1-0.2,0.2-0.2c0,0,0.1,0,0.1,0
			c0.3,0.2,0.7,0.3,1,0.4c-0.9-0.8-1.4-2-1.4-3.2c0-0.8,0.2-1.6,0.6-2.3c0-0.1,0.1-0.1,0.2-0.1c0.1,0,0.1,0,0.2,0.1
			c2.1,2.5,5,4.1,8.2,4.4h0c0.1,0,0.1,0,0.1-0.1c0,0,0.1-0.1,0-0.1c-0.1-0.5,0-1.1,0.1-1.7c0.4-1.5,1.5-2.7,3-3.2
			c0.5-0.2,1-0.2,1.4-0.2c1.1,0,2.2,0.4,3,1.1c0.1,0.1,0.3,0.2,0.4,0.2c0,0,0.1,0,0.1,0c0.8-0.2,1.5-0.5,2.2-0.9
			c0.2-0.1,0.4,0,0.4,0.2c0,0,0,0.1,0,0.1c-0.2,0.7-0.6,1.4-1.2,1.9c0.5-0.1,1-0.3,1.5-0.5C320.8,106.7,321,106.8,321,107z"/>
		<g>
			<path class="st102" d="M379.6,39.6c0.8,0,1.4,0.6,1.4,1.4c0,0.5-0.3,1-0.7,1.2c0.2,0.2,0.2,0.5,0.2,0.8c0,0.5-0.3,1-0.7,1.2
				c0.2,0.2,0.2,0.5,0.2,0.8c0,0.5-0.3,1-0.7,1.2c0.2,0.2,0.2,0.5,0.2,0.8c0,0.8-0.6,1.4-1.4,1.4h-7.2c-0.6,0-1.2-0.4-1.4-1h-0.5
				v-0.3h0.8c0.1,0.6,0.6,1,1.1,1h7.2c0.6,0,1.1-0.5,1.1-1.1c0-0.4-0.2-0.7-0.4-0.9c0.5-0.1,0.9-0.6,0.9-1.1c0-0.4-0.2-0.7-0.4-0.9
				c0.5-0.1,0.9-0.6,0.9-1.1c0-0.4-0.2-0.7-0.4-0.9c0.5-0.1,0.9-0.6,0.9-1.1c0-0.6-0.5-1.1-1.1-1.1h-4.9c0.3-0.6,0.5-1.3,0.6-1.6
				c0.3-1-0.3-4.3-1.5-4.3c-0.6,0-1.1,0.5-1.1,1.1V37l-2.8,3.9h-0.6v-0.3h0.4l2.7-3.7v-1.7c0-0.8,0.6-1.4,1.4-1.4
				c0.3,0,0.7,0.2,0.9,0.5c0.8,1,1.1,3.3,0.9,4.1c-0.1,0.3-0.2,0.7-0.5,1.3L379.6,39.6z"/>
			<path class="st102" d="M380.8,41c0,0.5-0.4,1-0.9,1.1c0.3,0.2,0.4,0.5,0.4,0.9c0,0.5-0.4,1-0.9,1.1c0.3,0.2,0.4,0.5,0.4,0.9
				c0,0.5-0.4,1-0.9,1.1c0.3,0.2,0.4,0.5,0.4,0.9c0,0.6-0.5,1.1-1.1,1.1h-7.2c-0.6,0-1.1-0.4-1.1-1h-0.8V47h1l0,0.3
				c0.1,0.4,0.4,0.7,0.8,0.7h7.2c0.5,0,0.8-0.4,0.8-0.8c0-0.3-0.1-0.5-0.3-0.7l-0.5-0.4l0.6-0.2c0.4-0.1,0.6-0.4,0.6-0.8
				c0-0.3-0.1-0.5-0.3-0.7l-0.5-0.4l0.6-0.1c0.4-0.1,0.6-0.4,0.6-0.8c0-0.3-0.1-0.5-0.3-0.7l-0.5-0.4l0.6-0.1
				c0.4-0.1,0.6-0.4,0.6-0.8c0-0.5-0.4-0.8-0.8-0.8h-5.3l0.2-0.4c0.3-0.7,0.5-1.3,0.6-1.6c0.2-0.7-0.1-2.8-0.8-3.6
				c-0.2-0.2-0.3-0.3-0.5-0.3c-0.5,0-0.8,0.4-0.8,0.8v1.9l-3,4.1h-0.7v-0.3h0.6l2.8-3.9v-1.8c0-0.6,0.5-1.1,1.1-1.1
				c1.2,0,1.8,3.3,1.5,4.3c-0.1,0.4-0.3,1-0.6,1.6h4.9C380.3,39.9,380.8,40.4,380.8,41z"/>
			<path class="st2" d="M379.6,40.2c0.5,0,0.8,0.4,0.8,0.8c0,0.4-0.3,0.7-0.6,0.8l-0.6,0.1l0.5,0.4c0.2,0.2,0.3,0.4,0.3,0.7
				c0,0.4-0.3,0.7-0.6,0.8l-0.6,0.1l0.5,0.4c0.2,0.2,0.3,0.4,0.3,0.7c0,0.4-0.3,0.7-0.6,0.8l-0.6,0.2l0.5,0.4
				c0.2,0.2,0.3,0.4,0.3,0.7c0,0.5-0.4,0.8-0.8,0.8h-7.2c-0.4,0-0.8-0.3-0.8-0.7l0-0.3h-1v-5.8h0.7l3-4.1v-1.9
				c0-0.5,0.4-0.8,0.8-0.8c0.2,0,0.3,0.1,0.5,0.3c0.6,0.8,0.9,2.9,0.8,3.6c-0.1,0.3-0.3,0.9-0.6,1.6l-0.2,0.4L379.6,40.2L379.6,40.2
				z"/>
			<path class="st102" d="M369.3,47.5v0.2c0,0.5-0.4,0.8-0.8,0.8h-4.3c-0.5,0-0.8-0.4-0.8-0.8v-7.2c0-0.5,0.4-0.8,0.8-0.8h4.3
				c0.5,0,0.8,0.4,0.8,0.8v0.2H369v-0.2c0-0.3-0.2-0.5-0.5-0.5h-4.3c-0.3,0-0.5,0.2-0.5,0.5v2.2v5.1c0,0.3,0.2,0.5,0.5,0.5h4.3
				c0.3,0,0.5-0.2,0.5-0.5v-0.2H369.3z"/>
			<polygon class="st102" points="369.3,41.2 369.3,47 369,47 369,42.6 369,41.2 			"/>
			<rect x="369" y="40.9" class="st102" width="0.3" height="0.3"/>
			<rect x="369" y="40.6" class="st102" width="0.3" height="0.3"/>
			<polygon class="st102" points="369,47 369,47.2 368.7,47.2 368.7,42.6 368.8,42.6 368.8,47 			"/>
			<rect x="368.8" y="42.6" class="st102" width="0.2" height="4.3"/>
			<rect x="368.8" y="41.2" class="st102" width="0.2" height="1.4"/>
			<polygon class="st102" points="369,40.9 369,41.2 368.8,41.2 368.8,42.6 368.7,42.6 368.7,40.9 			"/>
			<rect x="368.7" y="40.6" class="st102" width="0.3" height="0.3"/>
			<path class="st102" d="M369,40.4v0.2h-0.3v-0.2c0-0.1-0.1-0.2-0.2-0.2h-4.3c-0.1,0-0.2,0.1-0.2,0.2v2.2h-0.3v-2.2
				c0-0.3,0.2-0.5,0.5-0.5h4.3C368.7,39.9,369,40.1,369,40.4z"/>
			<path class="st103" d="M368.7,47.5v0.2c0,0.1-0.1,0.2-0.2,0.2h-4.3c-0.1,0-0.2-0.1-0.2-0.2v-5.1h4.3v4c-0.1-0.3-0.4-0.5-0.7-0.5
				c-0.4,0-0.7,0.3-0.7,0.7c0,0.4,0.3,0.7,0.7,0.7c0.3,0,0.6-0.2,0.7-0.5v0.5L368.7,47.5z"/>
			<path class="st103" d="M368.7,47.2v0.3h-0.5V47c0-0.1,0-0.1,0-0.2s0-0.1,0-0.2v-4h0.3v4.6C368.5,47.2,368.7,47.2,368.7,47.2z"/>
			<rect x="368.5" y="42.6" class="st103" width="0.2" height="4.6"/>
			<rect x="368.5" y="40.9" class="st104" width="0.2" height="1.7"/>
			<polygon class="st104" points="368.7,40.6 368.7,40.9 368.5,40.9 368.5,42.6 368.2,42.6 368.2,40.6 			"/>
			<path class="st104" d="M368.7,40.4v0.2h-0.5v2h-4.3v-2.2c0-0.1,0.1-0.2,0.2-0.2h4.3C368.6,40.2,368.7,40.3,368.7,40.4z"/>
			<path class="st102" d="M368.2,46.7V47c-0.1,0.3-0.4,0.5-0.7,0.5c-0.4,0-0.7-0.3-0.7-0.7c0-0.4,0.3-0.7,0.7-0.7
				C367.8,46.1,368.1,46.3,368.2,46.7z"/>
		</g>
		<g>
			
				<linearGradient id="SVGID_2_" gradientUnits="userSpaceOnUse" x1="-28058.8398" y1="47214.0117" x2="-28058.8398" y2="47361.207" gradientTransform="matrix(0.1815 0 0 -0.1815 5632.0723 8645.0234)">
				<stop  offset="0" style="stop-color:#E19C3E"/>
				<stop  offset="0.3" style="stop-color:#C74D4E"/>
				<stop  offset="0.6" style="stop-color:#C31C76"/>
				<stop  offset="1" style="stop-color:#6A479C"/>
			</linearGradient>
			<path style="fill:url(#SVGID_2_);" d="M544.8,48.7h-10.9c-4.4,0-8,3.6-8,8v10.9c0,4.4,3.6,8,8,8h10.9c4.4,0,8-3.6,8-8V56.7
				C552.9,52.3,549.3,48.7,544.8,48.7z M550.2,67.6c0,2.9-2.4,5.3-5.3,5.3h-10.9c-2.9,0-5.3-2.4-5.3-5.3V56.7c0-2.9,2.4-5.3,5.3-5.3
				h10.9c2.9,0,5.3,2.4,5.3,5.3V67.6L550.2,67.6z"/>
			
				<linearGradient id="SVGID_4_" gradientUnits="userSpaceOnUse" x1="-28058.8398" y1="47214.1445" x2="-28058.8398" y2="47361.3438" gradientTransform="matrix(0.1815 0 0 -0.1815 5632.0723 8645.0234)">
				<stop  offset="0" style="stop-color:#E19C3E"/>
				<stop  offset="0.3" style="stop-color:#C74D4E"/>
				<stop  offset="0.6" style="stop-color:#C31C76"/>
				<stop  offset="1" style="stop-color:#6A479C"/>
			</linearGradient>
			<path style="fill:url(#SVGID_4_);" d="M539.4,55.2c-3.9,0-7,3.1-7,7c0,3.9,3.1,7,7,7c3.9,0,7-3.1,7-7
				C546.4,58.3,543.2,55.2,539.4,55.2z M539.4,66.4c-2.4,0-4.3-1.9-4.3-4.3s1.9-4.3,4.3-4.3s4.3,1.9,4.3,4.3
				C543.7,64.5,541.7,66.4,539.4,66.4z"/>
			
				<linearGradient id="SVGID_6_" gradientUnits="userSpaceOnUse" x1="-28020.2891" y1="47214.1445" x2="-28020.2891" y2="47361.3438" gradientTransform="matrix(0.1815 0 0 -0.1815 5632.0723 8645.0234)">
				<stop  offset="0" style="stop-color:#E19C3E"/>
				<stop  offset="0.3" style="stop-color:#C74D4E"/>
				<stop  offset="0.6" style="stop-color:#C31C76"/>
				<stop  offset="1" style="stop-color:#6A479C"/>
			</linearGradient>
			<circle style="fill:url(#SVGID_6_);" cx="546.4" cy="55.2" r="1.7"/>
		</g>
		<path class="st108" d="M463.6,80h-36.4c-3.7,0-6.7,3-6.7,6.7v36.4c0,3.7,3,6.7,6.7,6.7h18l0-17.8h-4.6c-0.6,0-1.1-0.5-1.1-1.1
			l0-5.7c0-0.6,0.5-1.1,1.1-1.1h4.6v-5.6c0-6.4,3.9-10,9.7-10h4.7c0.6,0,1.1,0.5,1.1,1.1v4.8c0,0.6-0.5,1.1-1.1,1.1l-2.9,0
			c-3.1,0-3.7,1.5-3.7,3.7v4.8h6.9c0.7,0,1.2,0.6,1.1,1.2l-0.7,5.7c-0.1,0.5-0.5,1-1.1,1H453l0,17.8h10.7c3.7,0,6.7-3,6.7-6.7V86.7
			C470.3,83,467.3,80,463.6,80z"/>
	</g>
</g>
</svg>
