<?xml version="1.0" encoding="utf-8"?>
<!-- Generator: Adobe Illustrator 17.0.0, SVG Export Plug-In . SVG Version: 6.00 Build 0)  -->
<!DOCTYPE svg PUBLIC "-//W3C//DTD SVG 1.1//EN" "http://www.w3.org/Graphics/SVG/1.1/DTD/svg11.dtd">
<svg version="1.1" xmlns="http://www.w3.org/2000/svg" xmlns:xlink="http://www.w3.org/1999/xlink" x="0px" y="0px" width="63px"
	 height="60px" viewBox="0 0 63 60" enable-background="new 0 0 63 60" xml:space="preserve">
<g id="Grid">
</g>
<g id="_x32_4_Grid_Col" display="none" opacity="0.1" enable-background="new    ">
</g>
<g id="Layer_3">
</g>
<g id="Layer_4">
</g>
<g id="Layer_5">
	<g opacity="0.7">
		<g>
			<g>
				<g>
					<path fill="#06133A" d="M50.996,23.986c-0.41-0.164-0.874,0.035-1.038,0.445l-0.742,1.855
						c-0.878-3.271-2.729-6.231-5.325-8.467c-3.077-2.651-7.012-4.111-11.079-4.111c-2.789,0-5.517,0.681-7.958,1.978
						c-0.251-2.307-0.701-4.194-1.356-5.708C22.121,6.801,19.81,5.19,16.628,5.19s-5.493,1.611-6.869,4.788
						c-1.039,2.399-1.561,5.734-1.595,10.198c-0.005,0.622,0.368,1.193,0.95,1.453c0.528,0.237,1.102,0.445,1.715,0.625
						l-1.827,1.044c-1.042,0.596-1.69,1.711-1.69,2.912v1.072c0,1.38,1.122,2.502,2.502,2.502h13.628
						c1.38,0,2.502-1.122,2.502-2.502v-1.072c0-1.201-0.648-2.316-1.69-2.912l-1.827-1.044c0.613-0.18,1.186-0.389,1.715-0.625
						c0.582-0.261,0.955-0.831,0.95-1.453c-0.007-0.966-0.038-1.879-0.091-2.741c2.36-1.393,5.052-2.129,7.81-2.129
						c3.685,0,7.249,1.323,10.037,3.724c2.449,2.11,4.166,4.93,4.918,8.038l-1.699-1.274c-0.353-0.265-0.853-0.193-1.118,0.16
						c-0.264,0.353-0.193,0.853,0.16,1.118l3.407,2.555c0.14,0.105,0.308,0.16,0.479,0.16c0.072,0,0.145-0.01,0.215-0.03
						c0.239-0.067,0.434-0.242,0.526-0.472l1.703-4.259C51.604,24.615,51.405,24.15,50.996,23.986z M23.462,24.685
						c0.546,0.312,0.885,0.896,0.885,1.525v1.072c0,0.499-0.406,0.905-0.905,0.905H9.814c-0.499,0-0.905-0.406-0.905-0.905v-1.072
						c0-0.629,0.339-1.213,0.885-1.525l1.973-1.128c0.348,0.492,2.075,2.787,4.608,3.631c0.082,0.027,0.167,0.041,0.253,0.041
						s0.17-0.014,0.253-0.041c2.533-0.844,4.261-3.139,4.608-3.631L23.462,24.685z M14.741,21.12l0.599,0.36
						c0.397,0.238,0.842,0.357,1.287,0.357c0.445,0,0.89-0.119,1.287-0.357l0.6-0.36c0.193,0.578,0.59,1.076,1.131,1.385
						l0.448,0.256c-0.399,0.535-1.696,2.128-3.465,2.822c-1.76-0.691-3.064-2.287-3.465-2.822l0.448-0.256
						C14.151,22.196,14.549,21.697,14.741,21.12z M13.168,17.318v-3.741c0.53-0.026,1.274-0.082,2.083-0.197
						c1.691-0.241,2.987-0.65,3.868-1.216l0.969,0.969v4.185c0,0.614-0.327,1.191-0.853,1.507l-2.142,1.285
						c-0.287,0.172-0.644,0.172-0.931,0l-2.142-1.285C13.495,18.509,13.168,17.932,13.168,17.318z M23.49,20.172
						c-0.871,0.39-1.936,0.707-3.088,0.922c-0.259-0.166-0.42-0.456-0.42-0.771V20.24l0.075-0.045
						c1.004-0.603,1.628-1.705,1.628-2.876v-4.516c0-0.212-0.084-0.415-0.234-0.565l-1.704-1.703c-0.312-0.312-0.817-0.312-1.129,0
						c-0.563,0.563-1.833,1.011-3.576,1.262c-1.42,0.204-2.662,0.208-2.674,0.208c-0.441,0-0.799,0.358-0.799,0.799v4.516
						c0,1.171,0.624,2.273,1.628,2.876l0.075,0.045v0.083c0,0.315-0.161,0.606-0.42,0.771c-1.151-0.215-2.216-0.532-3.087-0.922
						c-0.003-0.001-0.004-0.002-0.006-0.003c0.034-4.235,0.513-7.361,1.464-9.556c1.115-2.574,2.883-3.825,5.404-3.825
						s4.288,1.251,5.403,3.825c0.951,2.195,1.43,5.321,1.464,9.556C23.494,20.17,23.492,20.171,23.49,20.172z"/>
				</g>
			</g>
			<g>
				<g>
					<path fill="#06133A" d="M56.136,48.06l-4.051-1.519c-0.264-0.099-0.463-0.316-0.545-0.577l0.404-0.303
						c0.783-0.587,1.269-1.484,1.334-2.46l0.191-2.861c0,0,0,0,0-0.001c0,0,0,0,0,0l0.341-5.11c0.077-1.157-0.333-2.306-1.125-3.153
						c-0.792-0.847-1.912-1.333-3.071-1.333h-4.641c-1.16,0-2.279,0.486-3.071,1.332c-0.792,0.847-1.202,1.996-1.125,3.153
						l0.532,7.972c0.007,0.099,0.019,0.197,0.034,0.294c-2.528,1.689-5.466,2.581-8.528,2.581c-3.684,0-7.249-1.323-10.037-3.724
						c-2.449-2.11-4.166-4.93-4.918-8.038l1.699,1.275c0.353,0.265,0.854,0.193,1.118-0.16c0.265-0.353,0.193-0.853-0.16-1.118
						l-3.407-2.555c-0.199-0.149-0.455-0.197-0.695-0.13c-0.239,0.067-0.434,0.242-0.526,0.472l-1.703,4.259
						c-0.164,0.41,0.035,0.874,0.445,1.038c0.097,0.039,0.198,0.057,0.296,0.057c0.317,0,0.617-0.19,0.742-0.502l0.742-1.855
						c0.878,3.271,2.729,6.231,5.325,8.467c3.077,2.651,7.012,4.111,11.079,4.111c3.277,0,6.427-0.925,9.16-2.681
						c0.188,0.251,0.412,0.477,0.669,0.669l0.404,0.303c-0.083,0.261-0.281,0.478-0.545,0.577l-4.051,1.519
						c-1.302,0.488-2.176,1.75-2.176,3.14v2.488c0,1.38,1.122,2.502,2.502,2.502H55.81c1.38,0,2.502-1.123,2.502-2.502V51.2
						C58.312,49.81,57.437,48.548,56.136,48.06z M42.369,35.123c-0.049-0.728,0.199-1.423,0.698-1.956
						c0.499-0.533,1.175-0.826,1.905-0.826h4.641c0.73,0,1.406,0.294,1.905,0.826c0.499,0.533,0.746,1.228,0.698,1.956l-0.008,0.118
						c-2.714,1.546-8.155,2.144-9.679,2.285L42.369,35.123z M42.9,43.095l-0.265-3.975c1.424-0.127,6.277-0.646,9.45-2.038
						l-0.21,3.152c-0.088,1.32-1.28,2.435-2.603,2.435h-1.98c-0.441,0-0.798,0.357-0.798,0.799c0,0.441,0.357,0.799,0.798,0.799
						h1.98c0.846,0,1.648-0.269,2.321-0.724c-0.113,0.332-0.321,0.627-0.608,0.842l-1.787,1.34
						c-0.302,0.227-0.677,0.351-1.054,0.351h-1.703c-0.377,0-0.752-0.125-1.054-0.351l-1.787-1.34
						C43.189,44.076,42.934,43.606,42.9,43.095z M46.494,54.593h-7.719c-0.499,0-0.905-0.406-0.905-0.905V51.2
						c0-0.728,0.458-1.389,1.14-1.645l2.865-1.074l4.619,3.079V54.593L46.494,54.593z M43.629,47.731
						c0.294-0.21,0.539-0.48,0.718-0.79l0.081,0.061c0.577,0.433,1.291,0.671,2.012,0.671h1.703c0.721,0,1.436-0.238,2.012-0.671
						l0.081-0.061c0.179,0.31,0.424,0.58,0.718,0.79l-3.663,2.442L43.629,47.731z M56.715,53.688L56.715,53.688
						c0,0.499-0.406,0.905-0.905,0.905h-7.719V51.56l4.619-3.079l2.865,1.074c0.682,0.256,1.14,0.917,1.14,1.645V53.688z"/>
				</g>
			</g>
		</g>
	</g>
</g>
</svg>
