<?xml version="1.0" encoding="utf-8"?>
<!-- Generator: Adobe Illustrator 17.0.0, SVG Export Plug-In . SVG Version: 6.00 Build 0)  -->
<!DOCTYPE svg PUBLIC "-//W3C//DTD SVG 1.1//EN" "http://www.w3.org/Graphics/SVG/1.1/DTD/svg11.dtd">
<svg version="1.1" xmlns="http://www.w3.org/2000/svg" xmlns:xlink="http://www.w3.org/1999/xlink" x="0px" y="0px" width="48px"
	 height="58px" viewBox="0 0 48 58" enable-background="new 0 0 48 58" xml:space="preserve">
<g id="Grid">
</g>
<g id="_x32_4_Grid_Col" display="none" opacity="0.1" enable-background="new    ">
</g>
<g id="Layer_3">
</g>
<g id="Layer_4">
</g>
<g id="Layer_5">
	<g opacity="0.7">
		<g>
			<g>
				<g>
					<path fill="#06133A" d="M20.181,16.371h-0.791c-1.419,0-2.573-1.154-2.573-2.573c0-0.499-0.405-0.903-0.903-0.903
						c-0.499,0-0.903,0.405-0.903,0.903c0,0.961,0.312,1.85,0.839,2.573h-1.973H9.751c-0.499,0-0.903,0.404-0.903,0.903
						c0,0.499,0.404,0.903,0.903,0.903h4.125c1.419,0,2.573,1.154,2.573,2.573v1.324c0,0.499,0.404,0.903,0.903,0.903
						c0.499,0,0.903-0.404,0.903-0.903v-1.324c0-0.961-0.312-1.85-0.839-2.573h2.764c0.499,0,0.903-0.404,0.903-0.903
						C21.084,16.775,20.68,16.371,20.181,16.371z"/>
				</g>
			</g>
			<g>
				<g>
					<path fill="#06133A" d="M37.122,16.371h-4.125h-1.973c0.527-0.723,0.839-1.612,0.839-2.573c0-0.499-0.404-0.903-0.903-0.903
						c-0.499,0-0.903,0.405-0.903,0.903c0,1.419-1.154,2.573-2.573,2.573h-0.791c-0.499,0-0.903,0.404-0.903,0.903
						c0,0.499,0.405,0.903,0.903,0.903h2.764c-0.527,0.723-0.839,1.612-0.839,2.573v1.324c0,0.499,0.404,0.903,0.903,0.903
						c0.499,0,0.903-0.404,0.903-0.903v-1.324c0-1.419,1.154-2.573,2.573-2.573h4.125c0.499,0,0.903-0.404,0.903-0.903
						C38.025,16.775,37.621,16.371,37.122,16.371z"/>
				</g>
			</g>
			<g>
				<g>
					<path fill="#06133A" d="M37.616,11.965c-0.406-2.657-2.707-4.699-5.475-4.699h-2.52c-0.645-2.859-3.174-4.925-6.185-4.925
						c-3.012,0-5.54,2.067-6.185,4.925h-2.52c-2.769,0-5.069,2.042-5.475,4.699c-2.657,0.406-4.699,2.707-4.699,5.475
						c0,3.054,2.485,5.539,5.539,5.539h0.861c0.971,2.719,3.545,4.563,6.489,4.563c2.461,0,4.722-1.278,5.99-3.23
						c1.268,1.951,3.529,3.23,5.99,3.23c2.943,0,5.518-1.843,6.489-4.563h0.861c3.054,0,5.539-2.485,5.539-5.539
						C42.315,14.671,40.273,12.37,37.616,11.965z M36.776,21.172h-1.532c-0.416,0-0.779,0.284-0.877,0.689
						c-0.558,2.281-2.589,3.874-4.94,3.874c-2.34,0-4.507-1.618-5.087-3.778v-6.352c0-1.054,0.857-1.911,1.911-1.911h0.58
						c0.499,0,0.903-0.405,0.903-0.903c0-0.499-0.404-0.903-0.903-0.903h-0.58c-0.698,0-1.352,0.194-1.911,0.53v-2.365
						c0-0.499-0.405-0.903-0.903-0.903c-0.499,0-0.903,0.405-0.903,0.903v2.365c-0.559-0.336-1.213-0.53-1.911-0.53h-0.58
						c-0.499,0-0.903,0.405-0.903,0.903c0,0.499,0.404,0.903,0.903,0.903h0.58c1.054,0,1.911,0.857,1.911,1.911v6.352
						c-0.58,2.16-2.747,3.778-5.087,3.778c-2.351,0-4.382-1.593-4.94-3.874c-0.099-0.404-0.461-0.689-0.877-0.689h-1.532
						c-2.058,0-3.732-1.674-3.732-3.732s1.674-3.732,3.732-3.732h2.875c0.499,0,0.903-0.405,0.903-0.903
						c0-0.499-0.404-0.903-0.903-0.903h-1.861c0.405-1.623,1.875-2.829,3.621-2.829h2.386v1.27c0,0.499,0.404,0.903,0.903,0.903
						s0.903-0.405,0.903-0.903V8.22c0.236-2.324,2.169-4.073,4.512-4.073c2.354,0,4.296,1.766,4.516,4.106
						c0.004,0.042,0.012,0.083,0.021,0.123v1.966c0,0.499,0.404,0.903,0.903,0.903c0.499,0,0.903-0.405,0.903-0.903V9.072h2.361
						c1.746,0,3.216,1.206,3.621,2.829h-1.861c-0.499,0-0.903,0.404-0.903,0.903c0,0.499,0.404,0.903,0.903,0.903h2.875
						c2.058,0,3.732,1.674,3.732,3.732C40.509,19.498,38.834,21.172,36.776,21.172z"/>
				</g>
			</g>
			<g>
				<g>
					<path fill="#06133A" d="M23.436,26.818c-0.499,0-0.903,0.404-0.903,0.903v4.336c0,0.499,0.405,0.903,0.903,0.903
						c0.499,0,0.903-0.404,0.903-0.903v-4.336C24.34,27.223,23.935,26.818,23.436,26.818z"/>
				</g>
			</g>
			<g>
				<g>
					<path fill="#06133A" d="M23.436,40.702c-0.499,0-0.903,0.405-0.903,0.903v4.336c0,0.499,0.405,0.903,0.903,0.903
						c0.499,0,0.903-0.404,0.903-0.903v-4.336C24.34,41.106,23.935,40.702,23.436,40.702z"/>
				</g>
			</g>
			<g>
				<g>
					<path fill="#06133A" d="M13.492,38.464c-0.253-0.43-0.807-0.572-1.237-0.319l-4.55,2.682c-0.276,0.162-0.444,0.458-0.444,0.778
						v4.336c0,0.499,0.405,0.903,0.903,0.903c0.499,0,0.903-0.405,0.903-0.903v-3.82l4.105-2.42
						C13.602,39.447,13.745,38.893,13.492,38.464z"/>
				</g>
			</g>
			<g>
				<g>
					<path fill="#06133A" d="M31.295,33.503H15.578c-0.499,0-0.903,0.404-0.903,0.903v4.516c0,0.499,0.404,0.903,0.903,0.903h15.717
						c0.499,0,0.903-0.404,0.903-0.903v-4.516C32.198,33.907,31.794,33.503,31.295,33.503z M30.392,38.019h-13.91v-2.71h13.91
						V38.019z"/>
				</g>
			</g>
			<g>
				<g>
					<path fill="#06133A" d="M27.094,47.695h-7.239c-0.499,0-0.903,0.405-0.903,0.903v6.489c0,0.499,0.404,0.903,0.903,0.903h7.239
						c0.499,0,0.903-0.404,0.903-0.903v-6.489C27.998,48.1,27.593,47.695,27.094,47.695z M26.191,54.185h-5.433v-4.683h5.433V54.185
						z"/>
				</g>
			</g>
			<g>
				<g>
					<path fill="#06133A" d="M8.164,47.738c-2.275,0-4.127,1.851-4.127,4.126c0,2.275,1.851,4.127,4.127,4.127
						s4.127-1.851,4.127-4.127C12.291,49.589,10.44,47.738,8.164,47.738z M8.164,54.185c-1.279,0-2.32-1.041-2.32-2.32
						c0-1.279,1.041-2.32,2.32-2.32c1.279,0,2.32,1.041,2.32,2.32C10.484,53.144,9.443,54.185,8.164,54.185z"/>
				</g>
			</g>
			<g>
				<g>
					<path fill="#06133A" d="M43.772,50.917l-4.471-3.106c-0.31-0.215-0.721-0.215-1.031,0l-4.471,3.106
						c-0.243,0.169-0.388,0.446-0.388,0.742c0,0.296,0.145,0.573,0.388,0.742l4.471,3.106c0.155,0.108,0.335,0.161,0.515,0.161
						c0.18,0,0.36-0.054,0.515-0.161l4.471-3.106c0.243-0.169,0.388-0.446,0.388-0.742C44.16,51.363,44.015,51.086,43.772,50.917z
						 M38.785,53.665l-2.888-2.006l2.888-2.006l2.888,2.006L38.785,53.665z"/>
				</g>
			</g>
			<g>
				<g>
					<path fill="#06133A" d="M39.244,40.827l-4.55-2.682c-0.43-0.253-0.983-0.111-1.237,0.319c-0.253,0.43-0.11,0.983,0.319,1.237
						l4.105,2.42v3.82c0,0.499,0.404,0.903,0.903,0.903s0.903-0.404,0.903-0.903v-4.335C39.689,41.285,39.52,40.989,39.244,40.827z"
						/>
				</g>
			</g>
		</g>
	</g>
</g>
</svg>
