<?xml version="1.0" encoding="utf-8"?>
<!-- Generator: Adobe Illustrator 17.0.0, SVG Export Plug-In . SVG Version: 6.00 Build 0)  -->
<!DOCTYPE svg PUBLIC "-//W3C//DTD SVG 1.1//EN" "http://www.w3.org/Graphics/SVG/1.1/DTD/svg11.dtd">
<svg version="1.1" xmlns="http://www.w3.org/2000/svg" xmlns:xlink="http://www.w3.org/1999/xlink" x="0px" y="0px" width="61px"
	 height="61px" viewBox="0 0 61 61" enable-background="new 0 0 61 61" xml:space="preserve">
<g id="Grid">
</g>
<g id="_x32_4_Grid_Col" display="none" opacity="0.1" enable-background="new    ">
</g>
<g id="Layer_3">
</g>
<g id="Layer_4">
</g>
<g id="Layer_5">
	<g opacity="0.7">
		<g>
			<g>
				<g>
					<path fill="#06133A" d="M51.148,31.116c-0.6-0.518-2.75-3.572-3.24-4.533c-0.472-0.927-0.615-1.206-0.116-2.287
						c0.862-1.868,0.429-3.337-0.167-4.645c-0.234-0.512-0.509-1.416-0.829-2.462c-0.67-2.196-1.503-4.928-2.706-6.549
						c-2.767-3.731-7.3-5.932-13.478-6.552V2.932c0-1.035-0.842-1.876-1.876-1.876h-3.873c-1.035,0-1.876,0.842-1.876,1.876v1.303
						c-4.651,0.634-8.279,2.55-11.994,6.307c-3.031,3.066-4.77,7.241-4.77,11.457c0,4.33,1.246,9.016,3.702,13.929
						c1.259,2.517,1.9,5.685,2.226,8.101c-0.35,0.023-0.691,0.142-0.981,0.353c-0.483,0.352-0.771,0.919-0.771,1.516v2.545
						c0,0.384,0.241,0.726,0.603,0.855l27.113,9.683c0.099,0.035,0.202,0.053,0.305,0.053c0.185,0,0.368-0.056,0.523-0.166
						c0.241-0.17,0.385-0.447,0.385-0.742v-4.136c0-0.818-0.523-1.536-1.302-1.786l-0.754-0.242c0.189-1.183,0.382-1.493,0.41-1.532
						c0.693-0.678,2.461-0.599,4.171-0.523c0.403,0.018,0.82,0.037,1.233,0.046c3.029,0.068,4.686-2.2,4.894-3.835
						c0.121-0.948-0.079-1.735-0.239-2.367c-0.083-0.326-0.161-0.634-0.149-0.816c0.021-0.332,0.099-0.398,0.357-0.619
						c0.225-0.193,0.533-0.456,0.731-0.902c0.218-0.491,0.19-1.037-0.067-1.562c0.459-0.395,0.654-0.815,0.735-1.132
						c0.136-0.537,0.039-1.106-0.275-1.603c-0.197-0.312-0.225-0.553-0.186-0.802c0.108-0.03,0.241-0.063,0.35-0.089
						c0.442-0.108,0.992-0.242,1.525-0.514c0.787-0.401,1.277-1.094,1.38-1.952C52.255,32.806,51.847,31.72,51.148,31.116z
						 M24.802,2.932c0-0.033,0.027-0.06,0.06-0.06h3.873c0.033,0,0.06,0.027,0.06,0.06v12.588c0,0.033-0.027,0.061-0.06,0.061
						h-3.873c-0.033,0-0.06-0.027-0.06-0.061V2.932z M27.828,17.397v13.617c0,0.567-0.462,1.029-1.029,1.029
						c-0.567,0-1.029-0.462-1.029-1.029V17.397H27.828z M26.799,33.858c0.316,0,0.621-0.053,0.905-0.149l1.966,2.422
						c-0.85,0.479-1.829,0.753-2.871,0.753c-3.237,0-5.871-2.634-5.871-5.871c0-2.149,1.198-4.114,3.026-5.134v5.134
						C23.954,32.582,25.23,33.858,26.799,33.858z M29.151,32.611c0.31-0.456,0.492-1.006,0.492-1.597V25.88
						c1.828,1.02,3.026,2.985,3.026,5.134c0,1.541-0.598,2.945-1.573,3.994L29.151,32.611z M37.469,53.934
						c0.025,0.008,0.042,0.031,0.042,0.058v2.848l-25.298-9.035v-1.905c0-0.01,0-0.031,0.025-0.049
						c0.025-0.018,0.045-0.012,0.054-0.009L37.469,53.934z M50.338,33.542c-0.031,0.255-0.155,0.426-0.403,0.552
						c-0.344,0.175-0.761,0.277-1.13,0.367c-0.658,0.16-1.404,0.342-1.606,1.086c-0.114,0.419-0.382,1.401,0.337,2.539
						c0.016,0.026,0.069,0.116,0.051,0.187c-0.021,0.081-0.14,0.223-0.413,0.376c-0.308,0.172-0.521,0.471-0.584,0.82
						c-0.065,0.357,0.033,0.722,0.269,1c0.094,0.111,0.134,0.194,0.148,0.233c-0.038,0.061-0.116,0.129-0.239,0.235
						c-0.343,0.294-0.917,0.785-0.988,1.88c-0.03,0.469,0.082,0.912,0.202,1.381c0.136,0.533,0.276,1.084,0.198,1.69
						c-0.119,0.934-1.17,2.294-3.051,2.25c-0.394-0.009-0.801-0.027-1.195-0.045c-2.207-0.098-4.292-0.191-5.545,1.062
						c-0.287,0.287-0.606,0.788-0.865,2.246l-21.487-6.906c-0.001-0.011-0.001-0.021-0.002-0.032
						c-0.312-2.618-0.996-6.364-2.487-9.347c-2.329-4.659-3.51-9.072-3.51-13.117c0-3.741,1.547-7.452,4.245-10.18
						c3.39-3.428,6.551-5.14,10.703-5.75v9.452c0,0.705,0.392,1.32,0.968,1.641v6.712c-2.882,1.152-4.842,3.996-4.842,7.141
						c0,4.238,3.448,7.686,7.686,7.686c1.476,0,2.856-0.419,4.028-1.144l2.142,2.639c0.727,0.896,1.806,1.41,2.96,1.41h2.7
						c0.38,1.125,1.444,1.937,2.695,1.937h1.937c0.501,0,0.908-0.406,0.908-0.908v-3.873c0-0.501-0.406-0.908-0.908-0.908h-1.937
						c-1.251,0-2.315,0.812-2.695,1.937h-2.7c-0.604,0-1.17-0.269-1.551-0.738l-2.129-2.623c1.381-1.39,2.236-3.304,2.236-5.414
						c0-3.145-1.96-5.989-4.842-7.141v-6.712c0.577-0.32,0.968-0.935,0.968-1.641V5.913c3.199,0.339,5.913,1.128,8.075,2.352
						c1.601,0.906,2.892,2.037,3.945,3.456c1.015,1.369,1.798,3.935,2.427,5.997c0.338,1.108,0.63,2.064,0.913,2.686
						c0.508,1.116,0.7,1.985,0.171,3.131c-0.81,1.755-0.485,2.634,0.147,3.873c0.492,0.966,2.794,4.326,3.672,5.083
						C50.182,32.681,50.385,33.148,50.338,33.542z M40.295,40.697c0-0.567,0.462-1.029,1.029-1.029h1.029v2.058h-1.029
						C40.757,41.726,40.295,41.265,40.295,40.697z"/>
				</g>
			</g>
		</g>
	</g>
</g>
</svg>
