<?xml version="1.0" encoding="utf-8"?>
<!-- Generator: Adobe Illustrator 17.0.0, SVG Export Plug-In . SVG Version: 6.00 Build 0)  -->
<!DOCTYPE svg PUBLIC "-//W3C//DTD SVG 1.1//EN" "http://www.w3.org/Graphics/SVG/1.1/DTD/svg11.dtd">
<svg version="1.1" xmlns="http://www.w3.org/2000/svg" xmlns:xlink="http://www.w3.org/1999/xlink" x="0px" y="0px" width="61px"
	 height="55px" viewBox="0 0 61 55" enable-background="new 0 0 61 55" xml:space="preserve">
<g id="Grid">
</g>
<g id="_x32_4_Grid_Col" display="none" opacity="0.1" enable-background="new    ">
</g>
<g id="Layer_3">
</g>
<g id="Layer_4">
</g>
<g id="Layer_5">
	<g opacity="0.7">
		<g>
			<g>
				<g>
					<path fill="#06133A" d="M32.93,5.524H6.961c-0.473,0-0.857,0.383-0.857,0.856v34.047c0,0.473,0.384,0.856,0.857,0.856h25.968
						c0.473,0,0.857-0.383,0.857-0.856V6.38C33.786,5.907,33.403,5.524,32.93,5.524z M32.073,39.571H7.818l0,0V17.68h24.255V39.571z
						 M32.073,15.967H7.818v-8.73h24.255L32.073,15.967L32.073,15.967z"/>
				</g>
			</g>
			<g>
				<g>
					<path fill="#06133A" d="M51.303,5.524H36.706c-0.473,0-0.856,0.383-0.856,0.856v8.694c0,0.473,0.383,0.856,0.856,0.856h14.597
						c0.473,0,0.856-0.383,0.856-0.856V6.38C52.159,5.907,51.776,5.524,51.303,5.524z M50.446,14.218H37.562V7.237h12.884
						L50.446,14.218L50.446,14.218z"/>
				</g>
			</g>
			<g>
				<g>
					<path fill="#06133A" d="M51.303,17.689H36.706c-0.473,0-0.856,0.383-0.856,0.857v8.694c0,0.473,0.383,0.857,0.856,0.857h14.597
						c0.473,0,0.856-0.384,0.856-0.857v-8.694C52.159,18.072,51.776,17.689,51.303,17.689z M50.446,26.383H37.562v-6.981h12.884
						L50.446,26.383L50.446,26.383z"/>
				</g>
			</g>
			<g>
				<g>
					<path fill="#06133A" d="M51.303,29.915H36.706c-0.473,0-0.856,0.383-0.856,0.857v20.361c0,0.473,0.383,0.856,0.856,0.856
						h14.597c0.473,0,0.856-0.383,0.856-0.856V30.771C52.159,30.298,51.776,29.915,51.303,29.915z M50.446,50.276H37.562V31.628
						h12.884L50.446,50.276L50.446,50.276z"/>
				</g>
			</g>
			<g>
				<g>
					<path fill="#06133A" d="M32.913,44.044c-0.145-0.292-0.442-0.477-0.768-0.477h-18.83c-0.17,0-0.336,0.05-0.477,0.145
						l-5.004,3.355c-0.237,0.159-0.379,0.426-0.379,0.711c0,0.285,0.142,0.552,0.379,0.711l5.004,3.355
						c0.141,0.095,0.307,0.145,0.477,0.145h18.83c0.326,0,0.623-0.185,0.768-0.477C34.069,49.174,34.069,46.382,32.913,44.044z
						 M10.599,48.281l-0.75-0.503l0.75-0.503c0.036,0.164,0.055,0.332,0.055,0.503C10.654,47.949,10.635,48.117,10.599,48.281z
						 M12.875,49.806l-0.794-0.532c0.188-0.472,0.286-0.978,0.286-1.496c0-0.517-0.098-1.023-0.286-1.496l0.794-0.532
						C13.24,47.075,13.24,48.481,12.875,49.806z M27.73,50.276H14.521c0.149-0.539,0.251-1.088,0.301-1.642h13.332
						C28.083,49.195,27.941,49.747,27.73,50.276z M14.822,46.922c-0.051-0.554-0.152-1.103-0.301-1.642H27.73
						c0.212,0.53,0.354,1.082,0.425,1.642H14.822z M31.59,50.276h-2.044c0.5-1.623,0.5-3.374,0-4.996h2.044
						C32.228,46.876,32.228,48.68,31.59,50.276z"/>
				</g>
			</g>
			<g>
				<g>
					<path fill="#06133A" d="M44.004,7.657c-1.693,0-3.07,1.377-3.07,3.07s1.377,3.07,3.07,3.07c1.693,0,3.07-1.377,3.07-3.07
						S45.697,7.657,44.004,7.657z M44.004,12.085c-0.748,0-1.357-0.609-1.357-1.357c0-0.748,0.609-1.357,1.357-1.357
						c0.748,0,1.357,0.609,1.357,1.357C45.362,11.476,44.753,12.085,44.004,12.085z"/>
				</g>
			</g>
			<g>
				<g>
					<path fill="#06133A" d="M41.042,20.185c-1.51,0-2.738,1.228-2.738,2.738c0,1.51,1.228,2.738,2.738,2.738
						c1.51,0,2.738-1.229,2.738-2.738C43.781,21.413,42.552,20.185,41.042,20.185z M41.042,23.948c-0.565,0-1.025-0.46-1.025-1.025
						s0.46-1.025,1.025-1.025c0.565,0,1.025,0.46,1.025,1.025S41.608,23.948,41.042,23.948z"/>
				</g>
			</g>
			<g>
				<g>
					<path fill="#06133A" d="M44.004,32.45c-1.693,0-3.07,1.377-3.07,3.07c0,1.693,1.377,3.07,3.07,3.07
						c1.693,0,3.07-1.377,3.07-3.07C47.075,33.827,45.697,32.45,44.004,32.45z M44.004,36.878c-0.748,0-1.357-0.609-1.357-1.357
						c0-0.748,0.609-1.358,1.357-1.358c0.748,0,1.357,0.609,1.357,1.358C45.362,36.268,44.753,36.878,44.004,36.878z"/>
				</g>
			</g>
			<g>
				<g>
					<path fill="#06133A" d="M11.87,8.5c-1.693,0-3.07,1.377-3.07,3.07s1.377,3.07,3.07,3.07s3.07-1.377,3.07-3.07
						S13.563,8.5,11.87,8.5z M11.87,12.928c-0.749,0-1.358-0.609-1.358-1.357c0-0.749,0.609-1.358,1.358-1.358
						c0.748,0,1.357,0.609,1.357,1.358C13.228,12.319,12.619,12.928,11.87,12.928z"/>
				</g>
			</g>
			<g>
				<g>
					<path fill="#06133A" d="M48.285,20.783h-2.31c-0.473,0-0.856,0.383-0.856,0.856c0,0.473,0.383,0.857,0.856,0.857h2.31
						c0.473,0,0.856-0.383,0.856-0.857C49.141,21.167,48.758,20.783,48.285,20.783z"/>
				</g>
			</g>
			<g>
				<g>
					<path fill="#06133A" d="M48.285,23.289h-2.31c-0.473,0-0.856,0.383-0.856,0.856c0,0.473,0.383,0.857,0.856,0.857h2.31
						c0.473,0,0.856-0.383,0.856-0.857C49.141,23.672,48.758,23.289,48.285,23.289z"/>
				</g>
			</g>
			<g>
				<g>
					<path fill="#06133A" d="M47.834,39.92h-7.66c-0.473,0-0.856,0.383-0.856,0.856s0.383,0.856,0.856,0.856h7.66
						c0.473,0,0.856-0.383,0.856-0.856S48.307,39.92,47.834,39.92z"/>
				</g>
			</g>
			<g>
				<g>
					<path fill="#06133A" d="M47.834,43.142h-7.66c-0.473,0-0.856,0.383-0.856,0.856s0.383,0.856,0.856,0.856h7.66
						c0.473,0,0.856-0.383,0.856-0.856C48.691,43.525,48.307,43.142,47.834,43.142z"/>
				</g>
			</g>
			<g>
				<g>
					<path fill="#06133A" d="M47.834,46.364h-7.66c-0.473,0-0.856,0.383-0.856,0.856s0.383,0.856,0.856,0.856h7.66
						c0.473,0,0.856-0.383,0.856-0.856S48.307,46.364,47.834,46.364z"/>
				</g>
			</g>
			<g>
				<g>
					<path fill="#06133A" d="M29.794,23.262H10.097c-0.473,0-0.856,0.383-0.856,0.856s0.383,0.856,0.856,0.856h19.697
						c0.473,0,0.856-0.383,0.856-0.856C30.65,23.646,30.267,23.262,29.794,23.262z"/>
				</g>
			</g>
			<g>
				<g>
					<path fill="#06133A" d="M29.794,26.91H10.097c-0.473,0-0.856,0.384-0.856,0.857s0.383,0.856,0.856,0.856h19.697
						c0.473,0,0.856-0.383,0.856-0.856S30.267,26.91,29.794,26.91z"/>
				</g>
			</g>
			<g>
				<g>
					<path fill="#06133A" d="M29.794,30.558H10.097c-0.473,0-0.856,0.383-0.856,0.856c0,0.473,0.383,0.856,0.856,0.856h19.697
						c0.473,0,0.856-0.383,0.856-0.856C30.65,30.941,30.267,30.558,29.794,30.558z"/>
				</g>
			</g>
			<g>
				<g>
					<path fill="#06133A" d="M29.794,35.907h-3.151c-0.473,0-0.856,0.383-0.856,0.856c0,0.473,0.383,0.856,0.856,0.856h3.151
						c0.473,0,0.856-0.383,0.856-0.856C30.65,36.291,30.267,35.907,29.794,35.907z"/>
				</g>
			</g>
			<g>
				<g>
					<path fill="#06133A" d="M24.333,19.615h-8.775c-0.473,0-0.856,0.383-0.856,0.856s0.383,0.856,0.856,0.856h8.775
						c0.473,0,0.856-0.383,0.856-0.856C25.189,19.998,24.806,19.615,24.333,19.615z"/>
				</g>
			</g>
		</g>
	</g>
</g>
</svg>
