<?xml version="1.0" encoding="utf-8"?>
<!-- Generator: Adobe Illustrator 17.0.0, SVG Export Plug-In . SVG Version: 6.00 Build 0)  -->
<!DOCTYPE svg PUBLIC "-//W3C//DTD SVG 1.1//EN" "http://www.w3.org/Graphics/SVG/1.1/DTD/svg11.dtd">
<svg version="1.1" xmlns="http://www.w3.org/2000/svg" xmlns:xlink="http://www.w3.org/1999/xlink" x="0px" y="0px" width="61px"
	 height="61px" viewBox="0 0 61 61" enable-background="new 0 0 61 61" xml:space="preserve">
<g id="Grid">
</g>
<g id="_x32_4_Grid_Col" display="none" opacity="0.1" enable-background="new    ">
</g>
<g id="Layer_3">
</g>
<g id="Layer_4">
</g>
<g id="Layer_5">
	<g opacity="0.7">
		<g>
			<g>
				<g>
					<path fill="#06133A" d="M50.664,8.798h-9.685c-0.417,0-0.755,0.338-0.755,0.755c0,0.417,0.338,0.755,0.755,0.755h9.685
						c0.417,0,0.755-0.338,0.755-0.755C51.419,9.136,51.081,8.798,50.664,8.798z"/>
				</g>
			</g>
			<g>
				<g>
					<path fill="#06133A" d="M37.75,8.798h-3.228c-0.417,0-0.755,0.338-0.755,0.755c0,0.417,0.338,0.755,0.755,0.755h3.228
						c0.417,0,0.755-0.338,0.755-0.755C38.505,9.136,38.167,8.798,37.75,8.798z"/>
				</g>
			</g>
			<g>
				<g>
					<path fill="#06133A" d="M50.664,12.026h-1.614c-0.417,0-0.755,0.338-0.755,0.755c0,0.417,0.338,0.755,0.755,0.755h1.614
						c0.417,0,0.755-0.338,0.755-0.755C51.419,12.364,51.081,12.026,50.664,12.026z"/>
				</g>
			</g>
			<g>
				<g>
					<path fill="#06133A" d="M45.821,12.026H34.522c-0.417,0-0.755,0.338-0.755,0.755c0,0.417,0.338,0.755,0.755,0.755h11.299
						c0.417,0,0.755-0.338,0.755-0.755C46.576,12.364,46.238,12.026,45.821,12.026z"/>
				</g>
			</g>
			<g>
				<g>
					<path fill="#06133A" d="M53.085,5.569H32.1c-1.751,0-3.176,1.425-3.176,3.176v4.843c0,1.752,1.425,3.176,3.176,3.176h12.662
						l4.644,3.483c0.278,0.208,0.606,0.314,0.937,0.314c0.28,0,0.561-0.076,0.812-0.229c0.549-0.334,0.835-0.958,0.729-1.592
						l-0.329-1.976h1.53c1.751,0,3.176-1.425,3.176-3.176V8.746C56.261,6.994,54.836,5.569,53.085,5.569z M54.751,13.588
						L54.751,13.588c0,0.919-0.748,1.666-1.666,1.666h-2.421c-0.222,0-0.433,0.098-0.576,0.267
						c-0.144,0.169-0.205,0.393-0.169,0.612l0.476,2.856c0.003,0.019,0.006,0.035-0.024,0.053c-0.03,0.018-0.043,0.009-0.058-0.003
						l-4.845-3.634c-0.131-0.098-0.29-0.151-0.453-0.151H32.1c-0.919,0-1.666-0.747-1.666-1.666V8.746
						c0-0.919,0.747-1.666,1.666-1.666h20.984c0.919,0,1.666,0.747,1.666,1.666V13.588L54.751,13.588z"/>
				</g>
			</g>
			<g>
				<g>
					<path fill="#06133A" d="M19.994,43.503h-9.685c-0.417,0-0.755,0.338-0.755,0.755c0,0.417,0.338,0.755,0.755,0.755h9.685
						c0.417,0,0.755-0.338,0.755-0.755C20.749,43.841,20.411,43.503,19.994,43.503z"/>
				</g>
			</g>
			<g>
				<g>
					<path fill="#06133A" d="M24.837,43.503h-1.614c-0.417,0-0.755,0.338-0.755,0.755c0,0.417,0.338,0.755,0.755,0.755h1.614
						c0.417,0,0.755-0.338,0.755-0.755C25.592,43.841,25.254,43.503,24.837,43.503z"/>
				</g>
			</g>
			<g>
				<g>
					<path fill="#06133A" d="M11.923,46.731h-1.614c-0.417,0-0.755,0.338-0.755,0.755s0.338,0.755,0.755,0.755h1.614
						c0.417,0,0.755-0.338,0.755-0.755C12.678,47.069,12.34,46.731,11.923,46.731z"/>
				</g>
			</g>
			<g>
				<g>
					<path fill="#06133A" d="M24.837,46.731h-9.685c-0.417,0-0.755,0.338-0.755,0.755s0.338,0.755,0.755,0.755h9.685
						c0.417,0,0.755-0.338,0.755-0.755C25.592,47.069,25.254,46.731,24.837,46.731z"/>
				</g>
			</g>
			<g>
				<g>
					<path fill="#06133A" d="M27.258,40.274H7.888c-1.752,0-3.176,1.425-3.176,3.176v4.843c0,1.751,1.425,3.176,3.176,3.176h1.53
						l-0.329,1.976c-0.106,0.633,0.181,1.258,0.729,1.592c0.252,0.153,0.532,0.229,0.812,0.229c0.33,0,0.659-0.105,0.937-0.314
						l4.644-3.483h11.048c1.752,0,3.176-1.425,3.176-3.176v-4.843C30.434,41.699,29.009,40.274,27.258,40.274z M28.924,48.293
						L28.924,48.293c0,0.919-0.747,1.666-1.666,1.666H15.959c-0.163,0-0.322,0.053-0.453,0.151l-4.845,3.634
						c-0.015,0.011-0.028,0.021-0.058,0.003c-0.03-0.018-0.027-0.034-0.024-0.053l0.476-2.855c0.036-0.219-0.025-0.443-0.169-0.612
						c-0.143-0.169-0.354-0.267-0.576-0.267H7.888c-0.919,0-1.666-0.747-1.666-1.666v-4.843c0-0.919,0.747-1.666,1.666-1.666h19.37
						c0.919,0,1.666,0.747,1.666,1.666V48.293z"/>
				</g>
			</g>
			<g>
				<g>
					<path fill="#06133A" d="M50.664,36.239h-8.071c-0.417,0-0.755,0.338-0.755,0.755c0,0.417,0.338,0.755,0.755,0.755h8.071
						c0.417,0,0.755-0.338,0.755-0.755C51.419,36.577,51.081,36.239,50.664,36.239z"/>
				</g>
			</g>
			<g>
				<g>
					<path fill="#06133A" d="M39.364,36.239H37.75c-0.417,0-0.755,0.338-0.755,0.755c0,0.417,0.338,0.755,0.755,0.755h1.614
						c0.417,0,0.755-0.338,0.755-0.755C40.12,36.577,39.781,36.239,39.364,36.239z"/>
				</g>
			</g>
			<g>
				<g>
					<path fill="#06133A" d="M53.085,33.011H35.329c-1.751,0-3.176,1.425-3.176,3.176v1.614c0,1.751,1.425,3.177,3.176,3.177h9.433
						l4.644,3.483c0.278,0.208,0.607,0.314,0.937,0.314c0.28,0,0.561-0.076,0.812-0.229c0.549-0.333,0.835-0.958,0.729-1.592
						l-0.329-1.976h1.53c1.751,0,3.176-1.425,3.176-3.177v-1.614C56.261,34.435,54.836,33.011,53.085,33.011z M54.751,37.801
						c0,0.919-0.748,1.666-1.666,1.666h-2.421c-0.222,0-0.433,0.098-0.576,0.267c-0.144,0.169-0.205,0.393-0.169,0.612l0.476,2.856
						c0.003,0.019,0.006,0.035-0.024,0.053c-0.03,0.018-0.043,0.008-0.058-0.003l-4.845-3.634c-0.131-0.098-0.29-0.151-0.453-0.151
						h-9.685c-0.919,0-1.666-0.747-1.666-1.666v-1.614c0-0.919,0.747-1.666,1.666-1.666h17.756c0.919,0,1.666,0.747,1.666,1.666
						V37.801z"/>
				</g>
			</g>
			<g>
				<g>
					<path fill="#06133A" d="M19.994,21.711h-9.685c-0.417,0-0.755,0.338-0.755,0.755c0,0.417,0.338,0.755,0.755,0.755h9.685
						c0.417,0,0.755-0.338,0.755-0.755S20.411,21.711,19.994,21.711z"/>
				</g>
			</g>
			<g>
				<g>
					<path fill="#06133A" d="M26.451,21.711h-3.228c-0.417,0-0.755,0.338-0.755,0.755c0,0.417,0.338,0.755,0.755,0.755h3.228
						c0.417,0,0.755-0.338,0.755-0.755S26.868,21.711,26.451,21.711z"/>
				</g>
			</g>
			<g>
				<g>
					<path fill="#06133A" d="M19.994,28.168h-9.685c-0.417,0-0.755,0.338-0.755,0.755c0,0.417,0.338,0.755,0.755,0.755h9.685
						c0.417,0,0.755-0.338,0.755-0.755C20.749,28.506,20.411,28.168,19.994,28.168z"/>
				</g>
			</g>
			<g>
				<g>
					<path fill="#06133A" d="M26.451,28.168h-3.228c-0.417,0-0.755,0.338-0.755,0.755c0,0.417,0.338,0.755,0.755,0.755h3.228
						c0.417,0,0.755-0.338,0.755-0.755C27.206,28.506,26.868,28.168,26.451,28.168z"/>
				</g>
			</g>
			<g>
				<g>
					<path fill="#06133A" d="M11.923,24.94h-1.614c-0.417,0-0.755,0.338-0.755,0.755c0,0.417,0.338,0.755,0.755,0.755h1.614
						c0.417,0,0.755-0.338,0.755-0.755C12.678,25.277,12.34,24.94,11.923,24.94z"/>
				</g>
			</g>
			<g>
				<g>
					<path fill="#06133A" d="M26.451,24.94H15.152c-0.417,0-0.755,0.338-0.755,0.755c0,0.417,0.338,0.755,0.755,0.755h11.299
						c0.417,0,0.755-0.338,0.755-0.755C27.206,25.277,26.868,24.94,26.451,24.94z"/>
				</g>
			</g>
			<g>
				<g>
					<path fill="#06133A" d="M28.872,18.483H7.888c-1.752,0-3.176,1.425-3.176,3.177v8.071c0,1.751,1.425,3.176,3.176,3.176h1.53
						l-0.329,1.976c-0.106,0.633,0.181,1.258,0.729,1.592c0.252,0.153,0.532,0.229,0.812,0.229c0.33,0,0.659-0.105,0.937-0.314
						l4.644-3.483h12.662c1.751,0,3.177-1.425,3.177-3.176v-8.071C32.049,19.908,30.624,18.483,28.872,18.483z M30.538,29.73
						c0,0.919-0.747,1.666-1.666,1.666H15.959c-0.163,0-0.322,0.053-0.453,0.151l-4.845,3.634c-0.015,0.011-0.028,0.021-0.058,0.003
						c-0.03-0.018-0.027-0.034-0.024-0.053l0.476-2.856c0.036-0.219-0.025-0.443-0.169-0.612c-0.143-0.169-0.354-0.267-0.576-0.267
						H7.888c-0.919,0-1.666-0.747-1.666-1.666v-8.071c0-0.919,0.747-1.666,1.666-1.666h20.984c0.919,0,1.666,0.747,1.666,1.666
						V29.73z"/>
				</g>
			</g>
		</g>
	</g>
</g>
</svg>
