<?xml version="1.0" encoding="utf-8"?>
<!-- Generator: Adobe Illustrator 17.0.0, SVG Export Plug-In . SVG Version: 6.00 Build 0)  -->
<!DOCTYPE svg PUBLIC "-//W3C//DTD SVG 1.1//EN" "http://www.w3.org/Graphics/SVG/1.1/DTD/svg11.dtd">
<svg version="1.1" xmlns="http://www.w3.org/2000/svg" xmlns:xlink="http://www.w3.org/1999/xlink" x="0px" y="0px" width="56px"
	 height="51px" viewBox="0 0 56 51" enable-background="new 0 0 56 51" xml:space="preserve">
<g id="Grid">
</g>
<g id="_x32_4_Grid_Col" display="none" opacity="0.1" enable-background="new    ">
</g>
<g id="Layer_3">
</g>
<g id="Layer_4">
</g>
<g id="Layer_5">
	<g opacity="0.7">
		<g>
			<g>
				<g>
					<path fill="#06133A" d="M22.853,20.82c-0.245-0.245-0.642-0.245-0.887,0l-4.615,4.615c-0.245,0.245-0.245,0.642,0,0.888
						c0.122,0.122,0.283,0.184,0.444,0.184c0.161,0,0.321-0.061,0.444-0.184l4.615-4.615C23.098,21.463,23.098,21.065,22.853,20.82z
						"/>
				</g>
			</g>
			<g>
				<g>
					<path fill="#06133A" d="M26.076,24.044c-0.245-0.245-0.642-0.245-0.888,0l-4.615,4.615c-0.245,0.245-0.245,0.642,0,0.887
						c0.123,0.122,0.283,0.184,0.444,0.184c0.161,0,0.321-0.061,0.444-0.184l4.615-4.615C26.321,24.686,26.321,24.289,26.076,24.044
						z"/>
				</g>
			</g>
			<g>
				<g>
					<path fill="#06133A" d="M32.523,30.491c-0.245-0.245-0.642-0.245-0.887,0l-4.614,4.614c-0.245,0.245-0.245,0.642,0,0.888
						c0.123,0.123,0.283,0.184,0.444,0.184c0.161,0,0.321-0.061,0.444-0.184l4.615-4.615C32.768,31.133,32.768,30.736,32.523,30.491
						z"/>
				</g>
			</g>
			<g>
				<g>
					<path fill="#06133A" d="M29.3,27.267c-0.245-0.245-0.642-0.245-0.887,0l-4.615,4.615c-0.245,0.245-0.245,0.642,0,0.888
						c0.123,0.123,0.283,0.184,0.444,0.184c0.161,0,0.321-0.061,0.444-0.184l4.615-4.615C29.545,27.91,29.545,27.512,29.3,27.267z"
						/>
				</g>
			</g>
			<g>
				<g>
					<path fill="#06133A" d="M50.808,18.415c-0.086-0.265-0.311-0.456-0.587-0.499l-2.94-0.462l-0.47-2.993
						c-0.049-0.318-0.296-0.565-0.614-0.615l-2.993-0.47l-0.472-3.003c-0.049-0.318-0.296-0.565-0.614-0.615l-3.004-0.472
						l-0.435-2.77c-0.05-0.318-0.297-0.565-0.614-0.614l-2.769-0.435l-0.461-2.94c-0.043-0.276-0.235-0.501-0.5-0.587
						c-0.269-0.088-0.561-0.017-0.762,0.185l-4.229,4.229c-0.245,0.245-0.245,0.642,0,0.888c0.245,0.245,0.642,0.245,0.887,0
						l3.521-3.52l0.363,2.313c0.049,0.318,0.296,0.565,0.614,0.615l2.769,0.435l0.435,2.77c0.05,0.317,0.296,0.564,0.614,0.614
						l3.004,0.472l0.472,3.003c0.05,0.318,0.296,0.565,0.614,0.615l2.993,0.47l0.47,2.994c0.05,0.318,0.297,0.565,0.614,0.614
						l2.313,0.363L28.129,39.897l-2.059-2.06c-0.245-0.245-0.642-0.245-0.887,0c-0.245,0.245-0.245,0.642,0,0.887l2.06,2.06
						l-4.302,4.302l-0.363-2.314c-0.05-0.317-0.297-0.564-0.614-0.614l-2.993-0.47l-0.47-2.993
						c-0.019-0.119-0.065-0.229-0.133-0.321c-0.112-0.154-0.283-0.262-0.482-0.293L14.88,37.61l-0.472-3.004
						c-0.05-0.317-0.297-0.564-0.614-0.614l-2.769-0.435l-0.435-2.769c-0.05-0.318-0.297-0.565-0.614-0.614L7.663,29.81l4.302-4.302
						l9.99,9.99c0.245,0.245,0.642,0.245,0.887,0c0.245-0.245,0.245-0.642,0-0.887l-9.99-9.99l14.23-14.23
						c0.245-0.245,0.245-0.642,0-0.887c-0.245-0.245-0.642-0.245-0.888,0L6.067,29.631c-0.201,0.201-0.272,0.493-0.184,0.762
						c0.022,0.066,0.052,0.128,0.089,0.184c0.113,0.168,0.291,0.283,0.497,0.316l2.94,0.462l0.435,2.77
						c0.006,0.04,0.016,0.078,0.028,0.115c0.085,0.26,0.309,0.455,0.587,0.498l2.769,0.435l0.472,3.004
						c0.006,0.04,0.016,0.078,0.028,0.116c0.08,0.246,0.284,0.43,0.539,0.487c0.016,0.004,0.031,0.009,0.048,0.011l3.004,0.472
						l0.47,2.993c0.05,0.317,0.297,0.564,0.614,0.614l2.994,0.47l0.462,2.941c0.043,0.276,0.235,0.5,0.5,0.586
						c0.076,0.025,0.154,0.037,0.231,0.037c0.195,0,0.386-0.077,0.53-0.221l27.506-27.506
						C50.825,18.975,50.896,18.683,50.808,18.415z"/>
				</g>
			</g>
			<g>
				<g>
					<path fill="#06133A" d="M35.998,26.908l-4.76-14.332c-0.039-0.091-0.091-0.169-0.17-0.248c-0.3-0.3-0.783-0.209-1.043,0.052
						c-0.157,0.156-0.248,0.378-0.157,0.626l4.799,14.371c0.026,0.104,0.078,0.183,0.144,0.248c0.235,0.235,0.691,0.274,0.991-0.026
						C35.985,27.416,36.076,27.142,35.998,26.908z"/>
				</g>
			</g>
			<g>
				<g>
					<path fill="#06133A" d="M40.771,18.588l-1.93-1.93c-1.174-1.174-2.373-0.835-3.364,0.156c-1.004,1.004-1.33,2.191-0.157,3.365
						l1.93,1.93c1.174,1.174,2.36,0.847,3.364-0.157C41.606,20.961,41.945,19.761,40.771,18.588z M39.78,21.117
						c-0.509,0.509-1.043,0.574-1.578,0.039l-1.93-1.93c-0.535-0.535-0.469-1.069,0.039-1.578c0.508-0.509,1.056-0.587,1.591-0.052
						l1.93,1.93C40.367,20.061,40.288,20.609,39.78,21.117z"/>
				</g>
			</g>
			<g>
				<g>
					<path fill="#06133A" d="M30.573,19.918l-1.93-1.93c-1.174-1.174-2.373-0.835-3.365,0.156c-1.004,1.004-1.33,2.191-0.156,3.365
						l1.93,1.93c1.174,1.174,2.36,0.848,3.365-0.156C31.408,22.291,31.747,21.092,30.573,19.918z M29.582,22.448
						c-0.509,0.509-1.043,0.574-1.578,0.039l-1.93-1.93c-0.535-0.535-0.469-1.069,0.039-1.578s1.056-0.587,1.591-0.052l1.93,1.93
						C30.169,21.391,30.091,21.939,29.582,22.448z"/>
				</g>
			</g>
		</g>
	</g>
</g>
</svg>
